<svg width="233" height="807" viewBox="0 0 233 807" fill="none" xmlns="http://www.w3.org/2000/svg">
<circle cx="58.5" cy="402.5" r="57.5" transform="rotate(90 58.5 402.5)" fill="#FFECA0"/>
<circle cx="175.5" cy="57.5" r="57.5" transform="rotate(90 175.5 57.5)" fill="#FFB4C7"/>
<path d="M233 345L233 460L118 460L118 395C118 367.386 140.386 345 168 345L233 345Z" fill="#FFB4C7"/>
<path d="M183 115C210.614 115 233 137.386 233 165L233 295C233 322.614 210.614 345 183 345L118 345L118 115L183 115Z" fill="#FFECA0"/>
<path d="M111 235L111 340L6 340L6 235L111 235Z" stroke="#FFB4C7" stroke-width="10"/>
<path d="M233 575L233 640C233 667.614 210.614 690 183 690L168 690C140.386 690 118 667.614 118 640L118 625C118 597.386 140.386 575 168 575L233 575Z" fill="#FFB4C7"/>
<path d="M225.929 748.329L174.671 799.587L123.412 748.329L174.671 697.071L225.929 748.329Z" stroke="#FFECA0" stroke-width="10"/>
<circle cx="175.5" cy="517.5" r="52.5" transform="rotate(90 175.5 517.5)" stroke="#FFECA0" stroke-width="10"/>
<path d="M57.8389 229.678L6.63534e-05 171.839L57.8389 114L115.678 171.839L57.8389 229.678Z" fill="#FFB4C7"/>
</svg>
