<svg width="232" height="690" viewBox="0 0 232 690" fill="none" xmlns="http://www.w3.org/2000/svg">
<path d="M116.355 115L1.35547 115L1.35547 50C1.35548 22.3858 23.7412 -8.09659e-06 51.3555 -5.68248e-06L116.355 0L116.355 115Z" fill="#FFB4C7"/>
<path d="M115.355 640C115.355 667.614 92.9697 690 65.3555 690L0.355469 690L0.355479 575L65.3555 575C92.9697 575 115.355 597.386 115.355 625L115.355 640Z" fill="#FFB4C7"/>
<path d="M115.355 410C115.355 437.614 92.9697 460 65.3555 460L50.3555 460C22.7412 460 0.355471 437.614 0.355473 410L0.355474 395C0.355477 367.386 22.7412 345 50.3555 345L115.355 345L115.355 410Z" fill="#FFECA0"/>
<path d="M231.355 410C231.355 437.614 208.97 460 181.355 460L116.355 460L116.355 230L181.355 230C208.97 230 231.355 252.386 231.355 280L231.355 410Z" fill="#FFB4C7"/>
<circle cx="58.8555" cy="172.5" r="57.5" transform="rotate(-180 58.8555 172.5)" fill="#FFECA0"/>
<circle cx="173.855" cy="517.5" r="52.5" transform="rotate(-180 173.855 517.5)" stroke="#FFECA0" stroke-width="10"/>
<path d="M58.1777 338.929L7.07114 287.822L58.1777 236.716L109.284 287.822L58.1777 338.929Z" stroke="#FFECA0" stroke-width="10"/>
<path d="M110.355 570L5.35547 570L5.35548 465L110.355 465L110.355 570Z" stroke="#FFB4C7" stroke-width="10"/>
</svg>
