<svg width="343" height="73" viewBox="0 0 343 73" fill="none" xmlns="http://www.w3.org/2000/svg">
<path fill-rule="evenodd" clip-rule="evenodd" d="M342.245 72.0002H323.765V1.2002H342.245V72.0002ZM337.245 67.0002V6.2002H328.765V67.0002H337.245Z" fill="#FFB4C7"/>
<path fill-rule="evenodd" clip-rule="evenodd" d="M315.494 23.8799H307.014V45.7199C307.014 48.9199 306.641 51.6665 305.894 53.9599C305.626 54.8264 305.282 55.613 304.862 56.3199C304.322 57.2299 303.656 58.0076 302.864 58.6531C302.681 58.8024 302.491 58.9447 302.294 59.0799C300.588 60.2532 298.241 60.8399 295.254 60.8399C292.268 60.8399 290.054 60.0132 288.614 58.3599C287.228 56.7066 286.534 54.1999 286.534 50.8399V23.8799H277.974V52.1199C277.974 55.7466 278.561 58.7332 279.734 61.0799C280.961 63.3732 282.721 65.0799 285.014 66.1999C287.361 67.2666 290.214 67.7999 293.574 67.7999C295.388 67.7999 297.148 67.5599 298.854 67.0799C300.419 66.6888 301.871 66.0738 303.211 65.2347C303.333 65.1583 303.454 65.08 303.574 64.9999C304.804 64.1804 305.839 63.1666 306.679 61.9585C306.802 61.7821 306.92 61.6016 307.035 61.417C307.055 61.3847 307.075 61.3524 307.094 61.3199H307.494L308.694 66.9999H315.494V23.8799ZM304.294 70.3596L304.64 71.9999H320.494V18.8799H302.014V45.7199C302.014 48.5552 301.681 50.7515 301.14 52.412L301.129 52.4466L301.118 52.4815C300.711 53.7969 300.121 54.5067 299.462 54.9597C298.882 55.3581 297.657 55.8399 295.254 55.8399C293.27 55.8399 292.63 55.3384 292.415 55.1098C292.098 54.7043 291.534 53.5585 291.534 50.8399V18.8799H272.974V52.1199C272.974 56.2427 273.635 60.0617 275.262 63.316L275.293 63.3775L275.325 63.4381C277.038 66.6391 279.564 69.1023 282.82 70.6927L282.882 70.7231L282.945 70.7517C286.107 72.189 289.708 72.7999 293.574 72.7999C295.811 72.7999 298.003 72.5063 300.139 71.9125C301.589 71.5446 302.976 71.0268 304.294 70.3596Z" fill="#FFB4C7"/>
<path fill-rule="evenodd" clip-rule="evenodd" d="M275.821 35.3598H265.181V71.9998H246.701V35.3598H239.421V22.8544L246.708 20.2116C246.784 16.4023 247.418 12.8738 248.93 9.92043L248.941 9.90005L248.951 9.87977C250.59 6.75162 253.012 4.3157 256.195 2.80342C259.163 1.39392 262.524 0.799805 266.101 0.799805C268.248 0.799805 270.3 0.98345 272.234 1.3835C273.919 1.73217 275.453 2.13182 276.792 2.60051L281.442 4.22779L276.172 20.0357L275.821 19.9258V35.3598ZM251.701 23.7198L244.421 26.3598V30.3598H251.701V66.9998H260.181V30.3598H270.821V23.8798H260.181V21.0798C260.181 20.2903 260.22 19.557 260.299 18.8798C260.503 17.1325 260.97 15.7592 261.701 14.7598C262.767 13.3731 264.367 12.6798 266.501 12.6798C267.727 12.6798 268.901 12.8131 270.021 13.0798C271.141 13.2931 272.127 13.5331 272.981 13.7998L275.141 7.31981C274.963 7.25757 274.778 7.19608 274.587 7.13534C273.632 6.83164 272.51 6.54646 271.221 6.2798C270.912 6.21587 270.596 6.15832 270.274 6.10716C268.986 5.90226 267.594 5.7998 266.101 5.7998C263.061 5.7998 260.474 6.30647 258.341 7.31981C256.207 8.33314 254.554 9.9598 253.381 12.1998C252.261 14.3865 251.701 17.3198 251.701 20.9998V23.7198ZM265.352 18.8798H272.474L271.489 18.5722C270.86 18.3756 270.066 18.1783 269.085 17.9915L268.973 17.9702L268.863 17.9438C268.146 17.7732 267.363 17.6798 266.501 17.6798C265.973 17.6798 265.741 17.7651 265.69 17.7871C265.608 17.9361 265.465 18.2697 265.352 18.8798Z" fill="#FFB4C7"/>
<path fill-rule="evenodd" clip-rule="evenodd" d="M241.464 18.8805V72.0005H222.984V18.8805H224.521C222.918 16.9229 222.424 14.5129 222.424 12.3605C222.424 9.86617 223.065 6.83283 225.605 4.74082L225.659 4.6965L225.714 4.65371C227.673 3.13038 229.969 2.48047 232.304 2.48047C234.633 2.48047 236.848 3.18694 238.734 4.65371C241.385 6.71623 242.104 9.77832 242.104 12.3605C242.104 14.5484 241.571 16.9467 239.951 18.8805H241.464ZM228.784 16.1205C227.877 15.3205 227.424 14.0671 227.424 12.3605C227.424 10.6005 227.877 9.34713 228.784 8.60047C229.744 7.8538 230.917 7.48047 232.304 7.48047C233.584 7.48047 234.704 7.8538 235.664 8.60047C236.624 9.34713 237.104 10.6005 237.104 12.3605C237.104 14.0671 236.624 15.3205 235.664 16.1205C234.704 16.8671 233.584 17.2405 232.304 17.2405C230.917 17.2405 229.744 16.8671 228.784 16.1205ZM236.464 23.8805H227.984V67.0005H236.464V23.8805Z" fill="#FFB4C7"/>
<path fill-rule="evenodd" clip-rule="evenodd" d="M214.359 60.8594C213.86 60.8999 213.367 60.9202 212.879 60.9202C211.012 60.9202 209.492 60.3602 208.319 59.2402C207.199 58.1202 206.639 56.3869 206.639 54.0402V30.3602H218.959V23.8802H206.639V14.2002H201.439L198.479 23.3202L192.159 26.5202V30.3602H198.159V54.2002C198.159 57.7202 198.745 60.4669 199.919 62.4402C201.092 64.4135 202.639 65.8002 204.559 66.6002C206.532 67.4002 208.692 67.8002 211.039 67.8002C212.585 67.8002 214.132 67.6402 215.679 67.3202C217.225 67.0535 218.452 66.7069 219.359 66.2802V59.8802C218.505 60.1469 217.492 60.3869 216.319 60.6002C215.657 60.7205 215.004 60.8069 214.359 60.8594ZM193.159 35.3602H187.159V23.4474L194.365 19.7988L197.805 9.2002H211.639V18.8802H223.959V35.3602H211.639V54.0402C211.639 55.1052 211.805 55.5662 211.874 55.7097C212.015 55.8072 212.284 55.9202 212.879 55.9202C213.68 55.9202 214.527 55.844 215.424 55.6808C216.458 55.4929 217.262 55.297 217.867 55.1078L224.359 53.0792V69.4532L221.488 70.8043C220.035 71.4877 218.35 71.9287 216.61 72.2334C214.764 72.6097 212.905 72.8002 211.039 72.8002C208.114 72.8002 205.308 72.2994 202.68 71.2339L202.658 71.2248L202.636 71.2156C199.62 69.9591 197.284 67.792 195.621 64.9956C193.805 61.942 193.159 58.1784 193.159 54.2002V35.3602Z" fill="#FFB4C7"/>
<path fill-rule="evenodd" clip-rule="evenodd" d="M184.088 23.8799H175.608V45.7199C175.608 48.9199 175.235 51.6665 174.488 53.9599C174.22 54.8264 173.876 55.613 173.456 56.3199C172.916 57.2299 172.25 58.0076 171.458 58.6531C171.275 58.8024 171.085 58.9447 170.888 59.0799C169.181 60.2532 166.835 60.8399 163.848 60.8399C160.861 60.8399 158.648 60.0132 157.208 58.3599C155.821 56.7066 155.128 54.1999 155.128 50.8399V23.8799H146.568V52.1199C146.568 55.7466 147.155 58.7332 148.328 61.0799C149.555 63.3732 151.315 65.0799 153.608 66.1999C155.955 67.2666 158.808 67.7999 162.168 67.7999C163.981 67.7999 165.741 67.5599 167.448 67.0799C169.012 66.6888 170.465 66.0737 171.805 65.2347C171.927 65.1583 172.048 65.08 172.168 64.9999C173.397 64.1804 174.432 63.1666 175.273 61.9585C175.396 61.7822 175.514 61.6016 175.629 61.417C175.649 61.3847 175.668 61.3524 175.688 61.3199H176.088L177.288 66.9999H184.088V23.8799ZM172.888 70.3596L173.234 71.9999H189.088V18.8799H170.608V45.7199C170.608 48.5552 170.274 50.7515 169.734 52.412L169.722 52.4466L169.712 52.4815C169.305 53.7969 168.714 54.5067 168.055 54.9597C167.476 55.3581 166.251 55.8399 163.848 55.8399C161.863 55.8399 161.224 55.3384 161.009 55.1098C160.692 54.7043 160.128 53.5585 160.128 50.8399V18.8799H141.568V52.1199C141.568 56.2427 142.229 60.0617 143.856 63.316L143.887 63.3775L143.919 63.4381C145.631 66.6391 148.157 69.1023 151.414 70.6927L151.476 70.7231L151.539 70.7517C154.701 72.189 158.302 72.7999 162.168 72.7999C164.404 72.7999 166.597 72.5063 168.732 71.9125C170.183 71.5446 171.57 71.0268 172.888 70.3596Z" fill="#FFB4C7"/>
<path fill-rule="evenodd" clip-rule="evenodd" d="M129.911 26.6801C127.244 24.2801 123.191 23.0801 117.751 23.0801C114.871 23.0801 112.097 23.4534 109.431 24.2001C108.619 24.4155 107.835 24.6489 107.08 24.9003C106.725 25.0185 106.376 25.1407 106.033 25.2669C104.759 25.7362 103.572 26.2606 102.471 26.8401L105.191 33.0001C106.256 32.4676 107.357 31.981 108.496 31.5405C109.296 31.231 110.114 30.9442 110.951 30.6801C112.977 30.0401 115.111 29.7201 117.351 29.7201C119.964 29.7201 121.991 30.3601 123.431 31.6401C124.443 32.54 125.1 33.9146 125.4 35.7636C125.412 35.8389 125.424 35.9149 125.435 35.9917C125.539 36.7121 125.591 37.5015 125.591 38.3601V40.7601L118.231 41.0001C111.404 41.2134 106.311 42.4667 102.951 44.7601C99.6439 47.0534 97.9906 50.3867 97.9906 54.7601C97.9906 57.6934 98.5773 60.1467 99.7506 62.1201C100.924 64.0401 102.524 65.4801 104.551 66.4401C106.631 67.3467 108.951 67.8001 111.511 67.8001C113.911 67.8001 115.937 67.5601 117.591 67.0801C119.297 66.6001 120.791 65.8534 122.071 64.8401C122.082 64.8311 122.094 64.8221 122.106 64.8131C122.516 64.4995 122.922 64.1605 123.322 63.7961C123.952 63.223 124.57 62.5872 125.175 61.8887C125.391 61.639 125.606 61.3812 125.819 61.1154C125.849 61.0772 125.88 61.0387 125.911 61.0001H126.231L127.911 67.0001H133.911V37.8001C133.911 32.7334 132.577 29.0267 129.911 26.6801ZM133.235 22.9454C129.278 19.3962 123.798 18.0801 117.751 18.0801C114.445 18.0801 111.228 18.5078 108.116 19.376C105.215 20.1477 102.545 21.1506 100.142 22.4155L96.0111 24.5896L102.486 39.254C101.658 39.6674 100.872 40.1252 100.132 40.6303L100.116 40.6409L100.101 40.6515C95.3157 43.9704 92.9906 48.9147 92.9906 54.7601C92.9906 58.3472 93.7088 61.7421 95.4529 64.6755L95.4684 64.7015L95.4842 64.7273C97.1632 67.4748 99.5007 69.5806 102.41 70.9588L102.481 70.9923L102.553 71.0236C105.339 72.2381 108.351 72.8001 111.511 72.8001C114.203 72.8001 116.724 72.5353 118.964 71.8878C120.59 71.4286 122.122 70.773 123.532 69.9074L124.118 72.0001H138.911V37.8001C138.911 31.9368 137.361 26.5901 133.235 22.9454ZM107.666 37.3537C110.797 36.539 114.3 36.1206 118.072 36.0026C118.073 36.0026 118.074 36.0025 118.074 36.0025L120.326 35.9291C120.315 35.8874 120.303 35.8478 120.29 35.8101C120.2 35.5273 120.12 35.401 120.092 35.3629C119.837 35.1433 119.14 34.7201 117.351 34.7201C115.594 34.7201 113.97 34.9699 112.456 35.448C110.759 35.9839 109.164 36.6203 107.666 37.3537ZM120.327 59.7502C121.005 59.3818 121.639 58.9451 122.231 58.4401C122.303 58.3782 122.374 58.3152 122.445 58.2512C123.152 57.6055 123.738 56.8551 124.201 56.0001C124.916 54.678 125.338 53.1057 125.468 51.2832C125.496 50.881 125.511 50.4666 125.511 50.0401V46.2802L119.751 46.4401C114.844 46.6534 111.431 47.4801 109.511 48.9201C107.644 50.3067 106.711 52.2801 106.711 54.8401C106.711 57.0801 107.377 58.7067 108.711 59.7201C110.097 60.7334 111.831 61.2401 113.911 61.2401C116.362 61.2401 118.5 60.7434 120.327 59.7502ZM111.817 55.7872C112.2 56.019 112.825 56.2401 113.911 56.2401C116.292 56.2401 117.852 55.6041 118.984 54.6373C119.603 54.1087 120.224 53.2108 120.435 51.423L119.93 51.437C115.194 51.6468 113.134 52.4526 112.511 52.9201L112.501 52.927L112.492 52.9338C112.037 53.2723 111.711 53.6774 111.711 54.8401C111.711 55.3709 111.777 55.6623 111.817 55.7872Z" fill="#FFB4C7"/>
<path fill-rule="evenodd" clip-rule="evenodd" d="M81.9693 25.4801C79.2493 23.8801 75.996 23.0801 72.2093 23.0801C68.316 23.0801 64.9026 23.9867 61.9693 25.8001C59.0893 27.5601 56.8226 30.1201 55.1693 33.4801C53.5693 36.8401 52.7693 40.9467 52.7693 45.8001C52.7693 50.6001 53.6493 54.6534 55.4093 57.9601C57.2226 61.2134 59.7293 63.6667 62.9293 65.3201C66.1293 66.9734 69.8093 67.8001 73.9693 67.8001C77.0093 67.8001 79.6226 67.5601 81.8093 67.0801C84.0493 66.6001 86.236 65.8801 88.3693 64.9201V57.8801C86.6735 58.6294 85.0068 59.2475 83.3693 59.7343C82.7923 59.9059 82.219 60.0611 81.6493 60.2001C79.516 60.6801 77.0626 60.9201 74.2893 60.9201C70.2893 60.9201 67.1693 59.7467 64.9293 57.4001C63.6554 56.033 62.7345 54.313 62.1666 52.2401C61.7596 50.7546 61.5338 49.088 61.4893 47.2401H90.4493V42.6001C90.4493 42.4796 90.4486 42.3596 90.4473 42.2401C90.4036 38.3917 89.6576 35.0451 88.2093 32.2001C86.7693 29.2667 84.6893 27.0267 81.9693 25.4801ZM84.4729 21.1519C80.8512 19.0302 76.6957 18.0801 72.2093 18.0801C67.5146 18.0801 63.1702 19.1825 59.3512 21.5403C55.5808 23.8475 52.7055 27.1622 50.683 31.2725L50.6688 31.3014L50.655 31.3304C48.6534 35.5337 47.7693 40.4202 47.7693 45.8001C47.7693 51.1949 48.7574 56.1043 50.9956 60.3093L51.0183 60.3521L51.0419 60.3944C53.3164 64.4751 56.5302 67.6418 60.6342 69.7622C64.6464 71.8352 69.1349 72.8001 73.9693 72.8001C77.2462 72.8001 80.2341 72.5437 82.8697 71.9664C85.4579 71.4108 87.9765 70.5798 90.4211 69.4797L93.3693 68.153V52.2401H95.4493V42.6001C95.4493 37.9924 94.5901 33.7277 92.6817 29.9642C90.826 26.1991 88.0788 23.2107 84.4729 21.1519ZM88.7623 52.2401H67.4555C67.78 52.9673 68.1627 53.5307 68.5673 53.9698C69.6529 55.095 71.3347 55.9201 74.2893 55.9201C76.7657 55.9201 78.8245 55.7064 80.5088 55.3316C82.3654 54.8758 84.3111 54.2069 86.3485 53.3066L88.7623 52.2401ZM64.8493 32.6001C66.716 30.6267 69.1693 29.6401 72.2093 29.6401C74.4493 29.6401 76.2893 30.1201 77.7293 31.0801C79.1693 32.0401 80.236 33.3734 80.9293 35.0801C81.0506 35.3786 81.1612 35.6853 81.2613 36.0001C81.7333 37.4852 81.9693 39.1519 81.9693 41.0001H61.6493C61.8162 39.1085 62.1862 37.4419 62.7593 36.0001C63.2851 34.6775 63.9817 33.5442 64.8493 32.6001ZM68.516 36.0001C69.3172 35.1698 70.3891 34.6401 72.2093 34.6401C73.7498 34.6401 74.5476 34.9682 74.9558 35.2403C75.2561 35.4405 75.5258 35.684 75.7644 36.0001H68.516Z" fill="#FFB4C7"/>
<path fill-rule="evenodd" clip-rule="evenodd" d="M11.88 67.0002H5.64001V6.2002H14.12V20.8402C14.12 21.3505 14.1155 21.8541 14.1066 22.351C14.093 23.1028 14.0692 23.8392 14.0351 24.5602C14.014 25.0061 13.989 25.4461 13.96 25.8802C13.9134 27.2311 13.8465 28.3379 13.7592 29.2006C13.7555 29.237 13.7518 29.273 13.7481 29.3086C13.7389 29.395 13.7296 29.4789 13.72 29.5602H14.12C14.62 28.8211 15.1909 28.1307 15.8326 27.4891C15.8458 27.4759 15.859 27.4627 15.8723 27.4496C16.3489 26.9767 16.8643 26.5304 17.4184 26.1108C17.4655 26.0751 17.5129 26.0396 17.5605 26.0044C18.0202 25.664 18.5059 25.3416 19.0177 25.0371C19.0384 25.0248 19.0592 25.0125 19.08 25.0002C21.16 23.7735 23.8533 23.1602 27.16 23.1602C32.3333 23.1602 36.4934 25.0269 39.64 28.7602C42.84 32.4935 44.44 38.0402 44.44 45.4002C44.44 50.3602 43.72 54.4935 42.28 57.8002C40.84 61.1069 38.8134 63.6135 36.2 65.3202C33.5867 66.9735 30.5467 67.8002 27.08 67.8002C23.72 67.8002 21.0267 67.2135 19 66.0402C18.533 65.7575 18.0872 65.4635 17.6627 65.1582C16.4859 64.3119 15.4724 63.3786 14.622 62.3582C14.5159 62.2308 14.4123 62.1021 14.3113 61.9721C14.2465 61.8887 14.1827 61.8047 14.12 61.7202H13.48L11.88 67.0002ZM16.1481 70.1565L15.5894 72.0002H0.640015V1.2002H19.12V19.4675C21.5867 18.5449 24.3115 18.1602 27.16 18.1602C33.7003 18.1602 39.292 20.5978 43.4501 25.5224C47.7226 30.5175 49.44 37.4289 49.44 45.4002C49.44 50.8055 48.6608 55.6709 46.8642 59.7965C45.0966 63.8555 42.4858 67.187 38.934 69.5065L38.9037 69.5263L38.8732 69.5456C35.3659 71.7645 31.3751 72.8002 27.08 72.8002C23.2005 72.8002 19.5435 72.1323 16.4948 70.3673L16.4527 70.3429L16.411 70.3177C16.3229 70.2644 16.2353 70.2106 16.1481 70.1565ZM16.4027 56.7202C16.4413 56.7876 16.4804 56.8542 16.52 56.9202C16.9535 57.6283 17.485 58.2405 18.1143 58.7567C18.1421 58.7795 18.1701 58.8021 18.1983 58.8246C19.8866 60.1683 22.2605 60.8402 25.32 60.8402C28.7333 60.8402 31.32 59.5069 33.08 56.8402C34.84 54.1735 35.72 50.3335 35.72 45.3202C35.72 40.2535 34.84 36.4402 33.08 33.8802C31.32 31.3202 28.68 30.0402 25.16 30.0402C22.6338 30.0402 20.5944 30.4827 19.0417 31.3677C18.8898 31.4543 18.7426 31.5451 18.6 31.6402C18.3681 31.7948 18.1456 31.9612 17.9328 32.1394C17.1558 32.7896 16.5058 33.5965 15.9826 34.5602C15.6602 35.154 15.386 35.8074 15.16 36.5202C14.4667 38.7069 14.12 41.4802 14.12 44.8402V45.4802C14.12 50.3175 14.8809 54.0642 16.4027 56.7202ZM20.7946 54.3261C21.1575 54.9088 22.0683 55.8402 25.32 55.8402C27.1901 55.8402 28.1452 55.2401 28.907 54.086C29.9013 52.5795 30.72 49.8673 30.72 45.3202C30.72 40.6844 29.8882 38.0632 28.9598 36.7128C28.2682 35.7068 27.2883 35.0402 25.16 35.0402C22.958 35.0402 21.8636 35.4737 21.3735 35.8004C20.8933 36.1206 20.3447 36.7114 19.9262 38.0314C19.4417 39.5595 19.12 41.7777 19.12 44.8402V45.4802C19.12 50.0016 19.8665 52.7654 20.7946 54.3261Z" fill="#FFB4C7"/>
</svg>
