<svg width="30" height="30" viewBox="0 0 30 30" fill="none" xmlns="http://www.w3.org/2000/svg">
<path fill-rule="evenodd" clip-rule="evenodd" d="M0 10C0 4.47754 4.47717 0 10 0H20C25.5228 0 30 4.47754 30 10V20C30 25.5225 25.5228 30 20 30H10C4.47717 30 0 25.5225 0 20V10ZM8.17432 8.29199C9.50897 8.29199 10.6237 8.41699 11.5183 8.66602C12.4277 8.91504 13.1097 9.33301 13.5643 9.91992C14.0337 10.4922 14.2683 11.2549 14.2683 12.208C14.2683 12.8242 14.1583 13.374 13.9384 13.8584C13.7183 14.3271 13.3957 14.7236 12.9703 15.0459C12.5597 15.3535 12.0463 15.5596 11.4303 15.6621V15.7725C12.061 15.875 12.6257 16.0654 13.1243 16.3438C13.623 16.6084 14.019 16.9971 14.3123 17.5098C14.6057 18.0234 14.7523 18.6904 14.7523 19.5117C14.7523 20.4658 14.525 21.2793 14.0703 21.9541C13.6303 22.6143 12.9923 23.1201 12.1563 23.4717C11.335 23.8242 10.3524 24 9.20831 24H3.57635V8.29199H8.17432ZM8.57031 14.8477C9.80231 14.8477 10.6457 14.6504 11.1003 14.2539C11.5696 13.8584 11.8043 13.2715 11.8043 12.4941C11.8043 11.7021 11.5256 11.1377 10.9683 10.7998C10.411 10.4629 9.52368 10.2939 8.30634 10.2939H5.95233V14.8477H8.57031ZM5.95233 16.7842V22.0195H8.83435C10.1104 22.0195 10.9977 21.7705 11.4963 21.2725C11.995 20.7734 12.2443 20.1133 12.2443 19.292C12.2443 18.793 12.1343 18.3535 11.9143 17.9717C11.6943 17.5908 11.3203 17.2969 10.7924 17.0918C10.279 16.8867 9.57501 16.7842 8.6803 16.7842H5.95233ZM22.4138 11.9219C23.4551 11.9219 24.3499 12.1416 25.0978 12.582C25.8458 13.0078 26.4178 13.623 26.8138 14.4297C27.2245 15.2363 27.4298 16.1904 27.4298 17.29V18.5664H19.4658C19.4952 19.7832 19.8105 20.7148 20.4118 21.3604C21.0278 22.0049 21.8858 22.3281 22.9858 22.3281C23.7485 22.3281 24.4232 22.2617 25.0098 22.1299C25.6111 21.9834 26.2272 21.7705 26.8578 21.4922V23.4277C26.4892 23.5938 26.1147 23.7334 25.7346 23.8477C25.5097 23.915 25.2828 23.9727 25.0538 24.0225C24.4525 24.1543 23.7338 24.2197 22.8978 24.2197C21.7538 24.2197 20.7418 23.9922 19.8618 23.5381C18.9818 23.083 18.2925 22.4082 17.7938 21.5137C17.3098 20.6045 17.0678 19.4902 17.0678 18.1699C17.0678 16.835 17.2878 15.7061 17.7278 14.7822C18.1825 13.8584 18.8058 13.1543 19.5978 12.6699C20.4045 12.1709 21.3431 11.9219 22.4138 11.9219ZM22.4138 13.7256C21.5778 13.7256 20.9031 13.9971 20.3898 14.54C19.8912 15.083 19.5978 15.8525 19.5098 16.8496H25.0978C25.0978 16.2344 25.0025 15.6914 24.8118 15.2217C24.6212 14.7529 24.3278 14.3857 23.9318 14.1221C23.5358 13.8584 23.0298 13.7256 22.4138 13.7256ZM27 9H18V11H27V9Z" fill="#F0FFFF"/>
</svg>
