<svg width="232" height="690" viewBox="0 0 232 690" fill="none" xmlns="http://www.w3.org/2000/svg">
<path d="M115 575H230V640C230 667.614 207.614 690 180 690H115V575Z" fill="#FFB4C7"/>
<path d="M116 50C116 22.3858 138.386 0 166 0H231V115H166C138.386 115 116 92.6142 116 65V50Z" fill="#FFB4C7"/>
<path d="M116 280C116 252.386 138.386 230 166 230H181C208.614 230 231 252.386 231 280V295C231 322.614 208.614 345 181 345H116V280Z" fill="#FFECA0"/>
<path d="M0 280C0 252.386 22.3858 230 50 230H115V460H50C22.3858 460 0 437.614 0 410V280Z" fill="#FFB4C7"/>
<circle cx="172.5" cy="517.5" r="57.5" fill="#FFECA0"/>
<circle cx="57.5" cy="172.5" r="52.5" stroke="#FFECA0" stroke-width="10"/>
<path d="M173.178 351.071L224.284 402.178L173.178 453.284L122.071 402.178L173.178 351.071Z" stroke="#FFECA0" stroke-width="10"/>
<path d="M121 120H226V225H121V120Z" stroke="#FFB4C7" stroke-width="10"/>
</svg>
