<svg width="231" height="461" viewBox="0 0 231 461" fill="none" xmlns="http://www.w3.org/2000/svg">
<path d="M116 116H181C208.614 116 231 138.386 231 166V181C231 208.614 208.614 231 181 231H116V116Z" fill="#FFB4C7"/>
<path d="M1 346H66C93.6142 346 116 368.386 116 396V411C116 438.614 93.6142 461 66 461H51C23.3858 461 1 438.614 1 411V346Z" fill="#FFECA0"/>
<circle cx="58.8555" cy="173.5" r="57.5" transform="rotate(-180 58.8555 173.5)" fill="#FFECA0"/>
<path d="M58.1777 340.284L7.07114 289.178L58.1777 238.071L109.284 289.178L58.1777 340.284Z" stroke="#FFB4C7" stroke-width="10"/>
<path d="M57.8389 0L115.678 57.8388L57.8389 115.678L6.1478e-05 57.8388L57.8389 0Z" fill="#FFB4C7"/>
</svg>
