<svg width="204" height="72" viewBox="0 0 204 72" fill="none" xmlns="http://www.w3.org/2000/svg">
<path fill-rule="evenodd" clip-rule="evenodd" d="M195.325 60.9601C196.712 59.0401 197.405 56.6667 197.405 53.8401C197.405 51.4401 196.898 49.4667 195.885 47.9201C194.925 46.3734 193.485 45.0667 191.565 44.0001C189.698 42.9334 187.432 41.8934 184.765 40.8801C182.098 39.8134 179.992 38.9067 178.445 38.1601C176.898 37.4134 175.805 36.6667 175.165 35.9201C174.578 35.1734 174.285 34.2934 174.285 33.2801C174.285 31.8401 174.952 30.7201 176.285 29.9201C177.618 29.1201 179.565 28.7201 182.125 28.7201C183.512 28.7201 184.845 28.8534 186.125 29.1201C187.458 29.3867 188.765 29.7334 190.045 30.1601C190.796 30.3704 191.53 30.6146 192.248 30.8927C192.804 31.1082 193.349 31.344 193.885 31.6001L196.685 25.1203C196.188 24.89 195.687 24.6731 195.181 24.4703C194.134 24.0501 193.069 23.6891 191.987 23.3873C191.293 23.194 190.593 23.0249 189.885 22.8801C187.592 22.3467 185.138 22.0801 182.525 22.0801C177.565 22.0801 173.565 23.0934 170.525 25.1201C167.538 27.0934 166.045 29.9467 166.045 33.6801C166.045 36.0801 166.552 38.0534 167.565 39.6001C168.578 41.0934 170.045 42.4001 171.965 43.5201C173.885 44.5867 176.205 45.6801 178.925 46.8001C181.752 47.8667 183.885 48.8267 185.325 49.6801C186.818 50.4801 187.832 51.2801 188.365 52.0801C188.898 52.8267 189.165 53.6801 189.165 54.6401C189.165 56.3467 188.445 57.7067 187.005 58.7201C185.618 59.7334 183.325 60.2401 180.125 60.2401C177.725 60.2401 175.272 59.8934 172.765 59.2001C172.204 59.0329 171.657 58.8616 171.125 58.6864C169.282 58.0791 167.615 57.4237 166.125 56.7201V64.1601C167.938 65.0134 169.912 65.6534 172.045 66.0801C174.232 66.5601 176.845 66.8001 179.885 66.8001C183.565 66.8001 186.712 66.3201 189.325 65.3601C191.938 64.3467 193.938 62.8801 195.325 60.9601ZM171.019 70.9738C168.539 70.4744 166.192 69.7175 163.996 68.6842L161.125 67.3331V48.8295L168.26 52.1988C169.895 52.9707 171.847 53.7075 174.144 54.3937C176.236 54.9682 178.225 55.2401 180.125 55.2401C181.483 55.2401 182.475 55.1305 183.166 54.9778C183.631 54.8751 183.882 54.77 183.991 54.7167C183.768 54.5535 183.436 54.3406 182.964 54.0875L182.869 54.0365L182.776 53.9815C181.709 53.3494 179.894 52.5099 177.16 51.4781L177.09 51.4518L177.021 51.4235C174.178 50.2526 171.672 49.0773 169.537 47.8909L169.491 47.8654L169.446 47.839C167.026 46.4278 164.946 44.6457 163.428 42.4076L163.405 42.3741L163.383 42.3402C161.698 39.7688 161.045 36.7672 161.045 33.6801C161.045 28.3577 163.307 23.9001 167.759 20.9545C171.865 18.2203 176.925 17.0801 182.525 17.0801C185.455 17.0801 188.269 17.3767 190.952 17.9949C193.658 18.5535 196.271 19.4177 198.787 20.5835L203.207 22.6317L196.414 38.3521L191.728 36.1107C190.766 35.6509 189.757 35.2718 188.697 34.9749L188.579 34.942L188.464 34.9035C187.382 34.5429 186.276 34.2493 185.144 34.023L185.125 34.0191L185.105 34.015C184.18 33.8223 183.19 33.7201 182.125 33.7201C181.637 33.7201 181.215 33.7383 180.85 33.7681C182.224 34.4213 184.123 35.2374 186.582 36.2219C189.391 37.291 191.885 38.4264 194.021 39.6446C196.502 41.0281 198.615 42.8601 200.101 45.2324C201.761 47.7921 202.405 50.774 202.405 53.8401C202.405 57.5092 201.492 60.9607 199.378 63.8875C197.329 66.7246 194.478 68.7245 191.133 70.0219L191.091 70.038L191.049 70.0534C187.738 71.2698 183.975 71.8001 179.885 71.8001C176.622 71.8001 173.646 71.5459 171.019 70.9738Z" fill="#FFECA0"/>
<path fill-rule="evenodd" clip-rule="evenodd" d="M151.707 25.6801C149.041 23.2801 144.987 22.0801 139.547 22.0801C136.667 22.0801 133.894 22.4534 131.227 23.2001C130.416 23.4155 129.632 23.6489 128.877 23.9003C128.522 24.0185 128.173 24.1407 127.83 24.2669C126.556 24.7362 125.368 25.2606 124.267 25.8401L126.987 32.0001C128.053 31.4676 129.154 30.981 130.293 30.5405C131.093 30.231 131.911 29.9442 132.747 29.6801C134.774 29.0401 136.907 28.7201 139.147 28.7201C141.761 28.7201 143.787 29.3601 145.227 30.6401C146.24 31.54 146.896 32.9146 147.197 34.7636C147.209 34.8389 147.221 34.9149 147.232 34.9918C147.336 35.7121 147.387 36.5015 147.387 37.3601V39.7598L140.027 40.0001C133.201 40.2134 128.107 41.4667 124.747 43.7601C121.441 46.0534 119.787 49.3867 119.787 53.7601C119.787 56.6934 120.374 59.1467 121.547 61.1201C122.721 63.0401 124.321 64.4801 126.347 65.4401C128.427 66.3467 130.747 66.8001 133.307 66.8001C135.707 66.8001 137.734 66.5601 139.387 66.0801C141.094 65.6001 142.587 64.8534 143.867 63.8401C143.879 63.8311 143.891 63.8221 143.903 63.8131C144.313 63.4995 144.719 63.1605 145.119 62.7961C145.749 62.223 146.367 61.5872 146.971 60.8887C147.188 60.639 147.402 60.3812 147.616 60.1154C147.646 60.0772 147.677 60.0387 147.707 60.0001H148.027L149.707 66.0001H155.707V36.8001C155.707 31.7334 154.374 28.0267 151.707 25.6801ZM155.032 21.9454C151.075 18.3962 145.594 17.0801 139.547 17.0801C136.242 17.0801 133.025 17.5078 129.913 18.376C127.012 19.1477 124.342 20.1506 121.939 21.4155L117.808 23.5896L124.283 38.254C123.455 38.6674 122.669 39.1252 121.929 39.6303L121.913 39.6409L121.898 39.6515C117.113 42.9704 114.787 47.9147 114.787 53.7601C114.787 57.3472 115.506 60.7421 117.25 63.6755L117.265 63.7015L117.281 63.7273C118.96 66.4748 121.298 68.5806 124.207 69.9588L124.278 69.9923L124.35 70.0236C127.136 71.2381 130.148 71.8001 133.307 71.8001C136 71.8001 138.521 71.5353 140.761 70.8878C142.387 70.4286 143.919 69.773 145.329 68.9074L145.915 71.0001H160.707V36.8001C160.707 30.9368 159.158 25.5901 155.032 21.9454ZM129.463 36.3537C132.593 35.539 136.097 35.1206 139.869 35.0026C139.87 35.0026 139.87 35.0025 139.871 35.0025L142.123 34.9291C142.111 34.8874 142.099 34.8478 142.087 34.8101C141.996 34.5274 141.917 34.401 141.889 34.3629C141.634 34.1433 140.937 33.7201 139.147 33.7201C137.391 33.7201 135.767 33.9699 134.253 34.448C132.556 34.9839 130.961 35.6203 129.463 36.3537ZM142.124 58.7501C142.801 58.3817 143.436 57.9451 144.027 57.4401C144.1 57.3782 144.171 57.3152 144.242 57.2512C144.949 56.6055 145.535 55.8551 145.997 55.0001C146.713 53.678 147.135 52.1057 147.265 50.2832C147.293 49.881 147.307 49.4666 147.307 49.0401V45.2801L141.547 45.4401C136.641 45.6534 133.227 46.4801 131.307 47.9201C129.441 49.3067 128.507 51.2801 128.507 53.8401C128.507 56.0801 129.174 57.7067 130.507 58.7201C131.894 59.7334 133.627 60.2401 135.707 60.2401C138.159 60.2401 140.297 59.7434 142.124 58.7501ZM133.614 54.7872C133.997 55.019 134.622 55.2401 135.707 55.2401C138.089 55.2401 139.649 54.6041 140.781 53.6373C141.4 53.1087 142.021 52.2108 142.232 50.423L141.726 50.437C136.991 50.6468 134.931 51.4526 134.307 51.9201L134.298 51.927L134.289 51.9338C133.833 52.2723 133.507 52.6774 133.507 53.8401C133.507 54.3709 133.574 54.6623 133.614 54.7872Z" fill="#FFECA0"/>
<path fill-rule="evenodd" clip-rule="evenodd" d="M103.766 24.4801C101.046 22.8801 97.7928 22.0801 94.0062 22.0801C90.1128 22.0801 86.6995 22.9867 83.7662 24.8001C80.8862 26.5601 78.6195 29.1201 76.9662 32.4801C75.3662 35.8401 74.5662 39.9467 74.5662 44.8001C74.5662 49.6001 75.4462 53.6534 77.2062 56.9601C79.0195 60.2134 81.5262 62.6667 84.7262 64.3201C87.9262 65.9734 91.6062 66.8001 95.7662 66.8001C98.8062 66.8001 101.419 66.5601 103.606 66.0801C105.846 65.6001 108.033 64.8801 110.166 63.9201V56.8801C108.47 57.6294 106.804 58.2475 105.166 58.7343C104.589 58.9059 104.016 59.0611 103.446 59.2001C101.313 59.6801 98.8595 59.9201 96.0862 59.9201C92.0862 59.9201 88.9662 58.7467 86.7262 56.4001C85.4523 55.033 84.5314 53.313 83.9634 51.2401C83.5564 49.7546 83.3307 48.088 83.2862 46.2401H112.246V41.6001C112.246 41.4796 112.245 41.3596 112.244 41.2401C112.201 37.3917 111.455 34.0451 110.006 31.2001C108.566 28.2667 106.486 26.0267 103.766 24.4801ZM106.27 20.1519C102.648 18.0302 98.4925 17.0801 94.0062 17.0801C89.3115 17.0801 84.9671 18.1825 81.148 20.5403C77.3776 22.8474 74.5024 26.1622 72.4799 30.2725L72.4657 30.3014L72.4519 30.3304C70.4503 34.5337 69.5662 39.4202 69.5662 44.8001C69.5662 50.1949 70.5543 55.1043 72.7924 59.3093L72.8152 59.3521L72.8388 59.3944C75.1133 63.4751 78.327 66.6418 82.4311 68.7622C86.4433 70.8352 90.9318 71.8001 95.7662 71.8001C99.0431 71.8001 102.031 71.5437 104.667 70.9664C107.255 70.4108 109.773 69.5798 112.218 68.4797L115.166 67.153V51.2401H117.246V41.6001C117.246 36.9924 116.387 32.7277 114.479 28.9642C112.623 25.1991 109.876 22.2107 106.27 20.1519ZM110.559 51.2401H89.2524C89.5768 51.9673 89.9595 52.5307 90.3642 52.9698C91.4497 54.095 93.1316 54.9201 96.0862 54.9201C98.5625 54.9201 100.621 54.7064 102.306 54.3316C104.162 53.8758 106.108 53.2069 108.145 52.3066L110.559 51.2401ZM86.6462 31.6001C88.5128 29.6267 90.9662 28.6401 94.0062 28.6401C96.2462 28.6401 98.0862 29.1201 99.5262 30.0801C100.966 31.0401 102.033 32.3734 102.726 34.0801C102.847 34.3786 102.958 34.6853 103.058 35.0001C103.53 36.4852 103.766 38.1519 103.766 40.0001H83.4462C83.6131 38.1085 83.9831 36.4419 84.5562 35.0001C85.0819 33.6775 85.7786 32.5442 86.6462 31.6001ZM90.3129 35.0001C91.1141 34.1698 92.186 33.6401 94.0062 33.6401C95.5467 33.6401 96.3445 33.9682 96.7527 34.2403C97.053 34.4405 97.3227 34.684 97.5613 35.0001H90.3129Z" fill="#FFECA0"/>
<path fill-rule="evenodd" clip-rule="evenodd" d="M25.867 64.4384L25.8536 64.4226C21.6439 59.4279 19.9568 52.5235 19.9568 44.5602C19.9568 36.5306 21.6761 29.5759 25.9378 24.5329C30.1452 19.5541 35.7895 17.0802 42.3968 17.0802C44.9763 17.0802 47.4463 17.4193 49.7033 18.2314C49.8959 18.2945 50.0871 18.3602 50.2768 18.4285V0.200195H68.7568V71.0002H53.2129L52.7739 69.2441C51.792 69.7873 50.7533 70.2475 49.6688 70.6323C47.3648 71.4499 44.8584 71.8002 42.2368 71.8002C35.6906 71.8002 30.0855 69.36 25.8805 64.4542L25.867 64.4384ZM51.5017 64.1554C51.7564 63.9778 52.0014 63.7928 52.2368 63.6002C52.5418 63.3483 52.8336 63.0897 53.1122 62.8246C53.9176 62.0581 54.6128 61.2366 55.1978 60.3599C55.2243 60.3201 55.2507 60.2802 55.2768 60.2402H55.6768L57.1168 66.0002H63.7568V5.2002H55.2768V21.3602C55.2768 21.3794 55.2768 21.3986 55.2769 21.4179C55.277 21.4719 55.2773 21.5264 55.2778 21.5812C55.2856 22.4383 55.3386 23.3858 55.4368 24.4236C55.4608 24.6771 55.4874 24.936 55.5168 25.2002C55.6554 26.4013 55.774 27.3624 55.8725 28.0833C55.8878 28.1947 55.9025 28.3003 55.9168 28.4002H55.4368C55.0636 27.8871 54.6548 27.3944 54.2102 26.9221C53.7508 26.434 53.2533 25.9677 52.7176 25.5232C52.7134 25.5197 52.7091 25.5161 52.7049 25.5126C52.5777 25.4073 52.4483 25.3031 52.3168 25.2002C51.7302 24.7202 51.0836 24.2936 50.377 23.9203C49.6703 23.5469 48.9035 23.2269 48.0768 22.9602C46.4768 22.3735 44.5835 22.0802 42.3968 22.0802C37.1701 22.0802 32.9568 23.9735 29.7568 27.7602C26.5568 31.5469 24.9568 37.1469 24.9568 44.5602C24.9568 51.9202 26.5301 57.4669 29.6768 61.2002C32.8768 64.9335 37.0635 66.8002 42.2368 66.8002C44.4235 66.8002 46.3435 66.5069 47.9968 65.9202C49.3185 65.4512 50.4868 64.8629 51.5017 64.1554ZM36.3168 33.2802C34.5568 36.0535 33.6768 39.8669 33.6768 44.7202C33.6768 49.5735 34.5568 53.3069 36.3168 55.9202C38.0768 58.5335 40.7168 59.8402 44.2368 59.8402C46.5938 59.8402 48.557 59.4721 50.1264 58.7359C50.6661 58.4828 51.1591 58.1861 51.6056 57.846C52.1525 57.4293 52.6296 56.9474 53.0368 56.4002C53.2984 56.0405 53.54 55.6538 53.7615 55.2402C54.985 52.9556 55.5968 49.8489 55.5968 45.9202V44.6402C55.5968 39.7971 54.8415 36.0504 53.3308 33.4002C53.2611 33.2779 53.1897 33.1579 53.1168 33.0402C52.6963 32.3393 52.18 31.7306 51.5679 31.2139C51.3535 31.033 51.1274 30.8633 50.8895 30.705C49.2224 29.5951 46.9781 29.0402 44.1568 29.0402C40.6901 29.0402 38.0768 30.4535 36.3168 33.2802ZM49.0111 53.4345C49.8171 52.309 50.5968 50.0571 50.5968 45.9202V44.6402C50.5968 39.9869 49.8146 37.2029 48.8673 35.6749L48.8481 35.6439L48.8293 35.6127C48.4764 35.0245 47.5643 34.0402 44.1568 34.0402C42.331 34.0402 41.3638 34.634 40.5613 35.923L40.5499 35.9412L40.5384 35.9593C39.4748 37.6354 38.6768 40.3901 38.6768 44.7202C38.6768 49.0782 39.4854 51.6742 40.464 53.1272C41.174 54.1815 42.1517 54.8402 44.2368 54.8402C47.5315 54.8402 48.6109 53.959 49.0111 53.4345Z" fill="#FFECA0"/>
<path fill-rule="evenodd" clip-rule="evenodd" d="M19.12 17.8805V71.0005H0.639956V17.8805H2.17745C0.574555 15.9229 0.0799561 13.5129 0.0799561 11.3605C0.0799561 8.86617 0.721118 5.83283 3.26142 3.74082L3.31523 3.6965L3.37025 3.65371C5.32882 2.13038 7.62495 1.48047 9.95996 1.48047C12.2892 1.48047 14.5038 2.18694 16.3897 3.65371M16.3897 3.65371C19.0415 5.71623 19.76 8.77832 19.76 11.3605C19.76 13.5484 19.2276 15.9467 17.6068 17.8805H19.12M6.43996 7.60047C7.39996 6.8538 8.57329 6.48047 9.95996 6.48047C11.24 6.48047 12.36 6.8538 13.32 7.60047C14.28 8.34713 14.76 9.60047 14.76 11.3605C14.76 13.0671 14.28 14.3205 13.32 15.1205C12.36 15.8671 11.24 16.2405 9.95996 16.2405C8.57329 16.2405 7.39996 15.8671 6.43996 15.1205C5.53329 14.3205 5.07996 13.0671 5.07996 11.3605C5.07996 9.60047 5.53329 8.34713 6.43996 7.60047ZM14.12 22.8805H5.63996V66.0005H14.12V22.8805Z" fill="#FFECA0"/>
</svg>
