<svg width="30" height="30" viewBox="0 0 30 30" fill="none" xmlns="http://www.w3.org/2000/svg">
<path fill-rule="evenodd" clip-rule="evenodd" d="M10 0C4.47715 0 0 4.47715 0 10V20C0 25.5228 4.47715 30 10 30H20C25.5228 30 30 25.5228 30 20V10C30 4.47715 25.5228 0 20 0H10ZM12.4 2.40039C6.87718 2.40039 2.40002 6.87754 2.40002 12.4004V17.6004C2.40002 23.1232 6.87717 27.6004 12.4 27.6004H17.6C23.1229 27.6004 27.6 23.1232 27.6 17.6004V12.4004C27.6 6.87754 23.1229 2.40039 17.6 2.40039H12.4ZM22.8 9.00049C23.7941 9.00049 24.6 8.1946 24.6 7.20049C24.6 6.20638 23.7941 5.40049 22.8 5.40049C21.8059 5.40049 21 6.20638 21 7.20049C21 8.1946 21.8059 9.00049 22.8 9.00049ZM15 22.8002C19.3078 22.8002 22.8 19.308 22.8 15.0002C22.8 10.6924 19.3078 7.2002 15 7.2002C10.6922 7.2002 7.20001 10.6924 7.20001 15.0002C7.20001 19.308 10.6922 22.8002 15 22.8002ZM15 19.8002C17.651 19.8002 19.8 17.6512 19.8 15.0002C19.8 12.3493 17.651 10.2002 15 10.2002C12.349 10.2002 10.2 12.3493 10.2 15.0002C10.2 17.6512 12.349 19.8002 15 19.8002Z" fill="#F0FFFF"/>
</svg>
