<svg width="108" height="108" viewBox="0 0 108 108" fill="none" xmlns="http://www.w3.org/2000/svg">
<g id="Group 18">
<g id="Group 17">
<rect id="Rectangle 18" x="5.32288" y="25.4189" width="32" height="110" rx="5" transform="rotate(-45 5.32288 25.4189)" stroke="black" stroke-width="8"/>
<path id="Line 34" d="M26.5361 24.005C28.0982 22.4429 28.0982 19.9103 26.5361 18.3482C24.974 16.7861 22.4413 16.7861 20.8792 18.3482L26.5361 24.005ZM15.9295 34.6116L26.5361 24.005L20.8792 18.3482L10.2726 28.9548L15.9295 34.6116Z" fill="black"/>
<path id="Line 35" d="M28.6574 36.0251C30.2195 34.463 30.2195 31.9303 28.6574 30.3682C27.0953 28.8061 24.5626 28.8061 23.0005 30.3682L28.6574 36.0251ZM23.0005 41.6819L28.6574 36.0251L23.0005 30.3682L17.3437 36.0251L23.0005 41.6819Z" fill="black"/>
<path id="Line 36" d="M40.6782 38.1466C42.2403 36.5845 42.2403 34.0519 40.6782 32.4898C39.1161 30.9277 36.5834 30.9277 35.0213 32.4898L40.6782 38.1466ZM30.0716 48.7532L40.6782 38.1466L35.0213 32.4898L24.4147 43.0964L30.0716 48.7532Z" fill="black"/>
<path id="Line 37" d="M42.7995 50.1677C44.3616 48.6056 44.3616 46.0729 42.7995 44.5108C41.2374 42.9487 38.7047 42.9487 37.1426 44.5108L42.7995 50.1677ZM37.1426 55.8245L42.7995 50.1677L37.1426 44.5108L31.4858 50.1677L37.1426 55.8245Z" fill="black"/>
<path id="Line 38" d="M54.1133 52.9962C55.6753 51.4341 55.6753 48.9015 54.1133 47.3394C52.5512 45.7773 50.0185 45.7773 48.4564 47.3394L54.1133 52.9962ZM43.5066 63.6028L54.1133 52.9962L48.4564 47.3394L37.8498 57.946L43.5066 63.6028Z" fill="black"/>
<path id="Line 39" d="M56.2345 65.0173C57.7966 63.4552 57.7966 60.9225 56.2345 59.3604C54.6725 57.7983 52.1398 57.7983 50.5777 59.3604L56.2345 65.0173ZM50.5777 70.6741L56.2345 65.0173L50.5777 59.3604L44.9208 65.0173L50.5777 70.6741Z" fill="black"/>
<path id="Line 40" d="M68.2554 67.1378C69.8175 65.5757 69.8175 63.0431 68.2554 61.481C66.6933 59.9189 64.1606 59.9189 62.5985 61.481L68.2554 67.1378ZM57.6488 77.7444L68.2554 67.1378L62.5985 61.481L51.9919 72.0876L57.6488 77.7444Z" fill="black"/>
<path id="Line 41" d="M70.3767 79.1589C71.9388 77.5968 71.9388 75.0641 70.3767 73.502C68.8146 71.9399 66.2819 71.9399 64.7198 73.502L70.3767 79.1589ZM64.7198 84.8157L70.3767 79.1589L64.7198 73.502L59.063 79.1589L64.7198 84.8157Z" fill="black"/>
<path id="Line 42" d="M82.3975 81.2804C83.9596 79.7183 83.9596 77.1857 82.3975 75.6236C80.8354 74.0615 78.3027 74.0615 76.7406 75.6236L82.3975 81.2804ZM71.7909 91.887L82.3975 81.2804L76.7406 75.6236L66.134 86.2302L71.7909 91.887Z" fill="black"/>
<path id="Line 43" d="M84.5189 93.3015C86.0809 91.7394 86.0809 89.2067 84.5189 87.6446C82.9568 86.0825 80.4241 86.0825 78.862 87.6446L84.5189 93.3015ZM78.862 98.9583L84.5189 93.3015L78.862 87.6446L73.2051 93.3015L78.862 98.9583Z" fill="black"/>
</g>
<path id="Subtract" fill-rule="evenodd" clip-rule="evenodd" d="M95.8629 8.58579L99.3985 12.1213C100.18 12.9024 100.18 14.1687 99.3985 14.9498L74.0107 40.3375L79.6675 45.9944L105.055 20.6066C108.961 16.7014 108.961 10.3697 105.055 6.46447L101.52 2.92893C97.6145 -0.976308 91.2829 -0.976314 87.3777 2.92893L61.9899 28.3167L67.6467 33.9736L93.0345 8.58578C93.8156 7.80474 95.0819 7.80473 95.8629 8.58579ZM36.5049 65.1154L30.8481 59.4585L14.9306 75.376C14.1632 76.1434 13.5258 77.0306 13.0435 78.0028L2.24349 99.7717L2.10999 100.041L1.33814 101.597L0.325167 103.638C-0.95196 106.213 1.77168 108.936 4.3459 107.659L6.38769 106.646L7.94345 105.874L8.21255 105.741L29.9815 94.9408C30.9537 94.4584 31.8408 93.8211 32.6082 93.0537L48.5257 77.1362L42.8689 71.4793L26.9514 87.3968C26.7979 87.5503 26.6205 87.6778 26.426 87.7742L14.0897 93.8946L20.21 81.5582C20.3065 81.3638 20.4339 81.1863 20.5874 81.0329L36.5049 65.1154Z" fill="black"/>
</g>
</svg>
