<svg width="30" height="30" viewBox="0 0 30 30" fill="none" xmlns="http://www.w3.org/2000/svg">
<path fill-rule="evenodd" clip-rule="evenodd" d="M10 0C4.47715 0 0 4.47715 0 10V20C0 25.5228 4.47715 30 10 30H20C25.5228 30 30 25.5228 30 20V10C30 4.47715 25.5228 0 20 0H10ZM9 10.8H4.2V25.2H9V10.8ZM9.00001 5.99961C9.00001 7.32509 7.9255 8.39961 6.60001 8.39961C5.27453 8.39961 4.20001 7.32509 4.20001 5.99961C4.20001 4.67413 5.27453 3.59961 6.60001 3.59961C7.9255 3.59961 9.00001 4.67413 9.00001 5.99961ZM16.8 10.8H12V25.2H16.8V17.7194C16.8 16.95 17.1552 16.2237 17.7626 15.7513L17.8794 15.6605C18.8052 14.9404 20.1224 15.0224 20.9518 15.8518C21.3683 16.2683 21.6113 16.8274 21.6316 17.4162L21.9 25.2H26.1V16.2919C26.1 15.6357 25.9853 14.9845 25.761 14.3678L25.672 14.1229C25.1808 12.7722 24.1371 11.6948 22.8026 11.1611L22.7495 11.1398C22.1883 10.9153 21.5895 10.8 20.9851 10.8C19.8343 10.8 18.7226 11.2177 17.8566 11.9755L16.8 12.9V10.8Z" fill="#F0FFFF"/>
</svg>
