<svg width="123" height="123" viewBox="0 0 123 123" fill="none" xmlns="http://www.w3.org/2000/svg">
<g id="Group 16">
<path id="Union" fill-rule="evenodd" clip-rule="evenodd" d="M65 4C65 1.79086 63.2091 0 61 0C58.7909 0 57 1.79086 57 4V10.1939C31.8151 12.374 11.8163 32.6805 10.1171 58H4C1.79086 58 0 59.7909 0 62C0 64.2091 1.79086 66 4 66H10.1939C12.3452 90.8525 32.1475 110.655 57 112.806V119C57 121.209 58.7909 123 61 123C63.2091 123 65 121.209 65 119V112.883C90.3195 111.184 110.626 91.1849 112.806 66H119C121.209 66 123 64.2091 123 62C123 59.7909 121.209 58 119 58H112.883C111.161 32.3462 90.6538 11.8387 65 10.1171V4ZM18.2299 66C19.4058 77.4408 25.0155 87.5674 33.3123 94.6327L43.1069 67.2078C44.5855 63.0678 47.1417 59.9472 50.2448 57.8461C47.0229 54.9192 45 50.6958 45 46C45 37.1634 52.1634 30 61 30C69.8366 30 77 37.1634 77 46C77 50.6958 74.9771 54.9192 71.7552 57.8461C74.8583 59.9472 77.4145 63.0678 78.8931 67.2078L88.9168 95.2741C97.6362 88.1873 103.558 77.7917 104.77 66H99C96.7909 66 95 64.2091 95 62C95 59.7909 96.7909 58 99 58H104.861C103.171 36.7668 86.2332 19.8292 65 18.1388V24C65 26.2091 63.2091 28 61 28C58.7909 28 57 26.2091 57 24V18.2299C36.237 20.3638 19.8026 37.1012 18.1388 58H24C26.2091 58 28 59.7909 28 62C28 64.2091 26.2091 66 24 66H18.2299ZM57 104.77C50.9095 104.144 45.1915 102.262 40.1095 99.3862L50.6408 69.8985C54.1172 60.1648 67.8828 60.1648 71.3592 69.8985L82.055 99.8468C76.9039 102.614 71.131 104.373 65 104.861V99C65 96.7909 63.2091 95 61 95C58.7909 95 57 96.7909 57 99V104.77ZM61 38C56.5817 38 53 41.5817 53 46C53 50.4183 56.5817 54 61 54C65.4183 54 69 50.4183 69 46C69 41.5817 65.4183 38 61 38Z" fill="black"/>
</g>
</svg>
