<svg width="30" height="20" viewBox="0 0 30 20" fill="none" xmlns="http://www.w3.org/2000/svg">
<g id="vector">
<path fill-rule="evenodd" clip-rule="evenodd" d="M8.68368 0.0017497C9.49428 -0.0134581 10.3037 0.0705166 11.0944 0.251842C11.7601 0.398698 12.3921 0.671973 12.9568 1.05714C13.4784 1.44014 13.8911 1.95506 14.1535 2.55019C14.4551 3.28201 14.6005 4.06984 14.5805 4.8623C14.6147 5.73242 14.3948 6.5935 13.9481 7.33821C13.4782 8.04157 12.8286 8.60329 12.0683 8.96381C13.1001 9.24488 13.9988 9.8887 14.6027 10.7795C15.1825 11.7233 15.474 12.819 15.4405 13.9294C15.4597 14.8147 15.2785 15.6927 14.9109 16.4966C14.5711 17.1978 14.0735 17.8089 13.458 18.281C12.8244 18.7479 12.1113 19.0933 11.3542 19.3001C10.5692 19.5196 9.75813 19.6298 8.94356 19.6278H0V0.0017497H8.68368ZM8.16763 7.93968C8.80453 7.96621 9.43149 7.77355 9.94595 7.39323C10.1923 7.1716 10.384 6.8948 10.5056 6.58497C10.6272 6.27513 10.6754 5.94084 10.6464 5.60882C10.6629 5.22103 10.5865 4.83496 10.4236 4.48341C10.2855 4.2035 10.0707 3.96957 9.80487 3.80941C9.53558 3.63311 9.23303 3.51517 8.91633 3.46303C8.57271 3.39577 8.22305 3.36517 7.8731 3.37174H4.05164V7.95719H8.16763V7.93968ZM8.39039 16.2953C8.77556 16.3005 9.15994 16.2585 9.53509 16.1702C9.87793 16.0937 10.2031 15.9515 10.4929 15.7513C10.7769 15.5512 11.0063 15.282 11.16 14.9685C11.3381 14.5688 11.42 14.1322 11.3988 13.6943C11.4374 13.2953 11.3851 12.8927 11.2459 12.5172C11.1067 12.1418 10.8843 11.8036 10.5956 11.5285C9.98394 11.0733 9.2343 10.8477 8.47578 10.8908H4.05164V16.2953H8.39039Z" fill="#1C1D1D"/>
<path fill-rule="evenodd" clip-rule="evenodd" d="M21.2111 16.2227C21.5291 16.5206 21.9037 16.75 22.3122 16.897C22.7206 17.044 23.1544 17.1056 23.5871 17.0781C24.2732 17.0956 24.9459 16.8847 25.5016 16.4778C25.9537 16.1808 26.2961 15.7412 26.4755 15.2274H29.7067C29.3624 16.6902 28.5217 17.9848 27.3306 18.8862C26.1881 19.6525 24.8378 20.0406 23.4671 19.9966C22.4888 20.0096 21.518 19.8238 20.6121 19.4502C19.7928 19.1049 19.0579 18.583 18.4589 17.9209C17.8621 17.2271 17.4036 16.4233 17.1087 15.5537C16.7777 14.5818 16.6157 13.5592 16.6298 12.5314C16.6238 11.5208 16.7913 10.5168 17.1248 9.56403C17.5729 8.22368 18.4298 7.06122 19.5723 6.24348C20.7149 5.42573 22.0844 4.99474 23.4844 5.01235C24.5181 4.99052 25.5402 5.23495 26.4545 5.72261C27.2809 6.18053 27.9939 6.82184 28.5397 7.5983C29.098 8.41305 29.4982 9.32748 29.7191 10.293C29.9612 11.3299 30.0476 12.3977 29.9752 13.4605H20.351C20.273 14.459 20.5814 15.4492 21.2111 16.2227ZM25.4335 8.75873C25.1642 8.48653 24.8403 8.27582 24.4836 8.14079C24.1269 8.00576 23.7457 7.94955 23.3656 7.97594C22.8615 7.95651 22.3609 8.06939 21.9128 8.30356C21.5575 8.5012 21.2439 8.76712 20.9896 9.08635C20.7642 9.38566 20.5963 9.72497 20.4946 10.0867C20.4029 10.3884 20.3456 10.6997 20.3238 11.0146H26.2849C26.233 10.1938 25.9371 9.40803 25.436 8.75998L25.4335 8.75873Z" fill="#1C1D1D"/>
<path d="M19.5553 1.3122H27.025V3.24167H19.5553V1.3122Z" fill="#1C1D1D"/>
</g>
</svg>
