<svg width="70" height="30" viewBox="0 0 70 30" fill="none" xmlns="http://www.w3.org/2000/svg">
<path d="M43.8503 14.0338C43.7129 14.0338 43.613 14.0401 43.5505 14.0525L42.8479 14.2868L42.1453 14.521C41.7581 14.7958 41.5645 15.1455 41.5645 15.5702C41.5645 15.7451 41.5957 15.9137 41.6581 16.0761C41.7331 16.226 41.8455 16.3697 41.9954 16.5071L43.3632 17.0317C43.538 17.0692 43.7317 17.0941 43.944 17.1066C44.1564 17.1191 44.3874 17.1254 44.6373 17.1254C45.1619 17.1254 45.7365 17.0941 46.361 17.0317C46.9856 16.9692 47.6351 16.8568 48.3097 16.6944C48.8343 16.9567 49.3402 17.269 49.8273 17.6313C50.3145 17.981 50.7954 18.3807 51.27 18.8304C51.7572 19.2676 52.2506 19.7548 52.7502 20.2919C53.2624 20.829 53.8057 21.4036 54.3803 22.0157C55.2547 22.965 56.0791 23.8519 56.8536 24.6763C57.628 25.4882 58.3837 26.2002 59.1207 26.8123C59.8577 27.4118 60.5947 27.8865 61.3316 28.2362C62.0686 28.5735 62.8368 28.7421 63.6363 28.7421C64.673 28.7421 65.6661 28.4798 66.6154 27.9552C67.5647 27.4181 68.3579 26.6436 68.9949 25.6318C69.0699 25.5194 69.1074 25.3945 69.1074 25.2571C69.1074 25.0822 69.0387 24.9198 68.9013 24.77C68.7763 24.6201 68.6077 24.5451 68.3954 24.5451C68.1331 24.5451 67.9332 24.6513 67.7958 24.8636C67.2837 25.6631 66.6591 26.2751 65.9221 26.6998C65.1852 27.112 64.4169 27.3181 63.6175 27.3181C62.968 27.3181 62.3247 27.1558 61.6876 26.831C61.0631 26.5062 60.4135 26.0628 59.739 25.5007C59.077 24.9261 58.39 24.2578 57.678 23.4959C56.9785 22.7339 56.229 21.922 55.4296 21.0601C54.4678 20.0233 53.5747 19.0865 52.7502 18.2496C51.9258 17.4002 51.0702 16.6944 50.1833 16.1323C51.2451 15.7201 52.1757 15.2579 52.9751 14.7458C53.787 14.2337 54.5052 13.6903 55.1298 13.1157C55.7544 12.5286 56.3102 11.9166 56.7974 11.2795C57.2845 10.63 57.7404 9.97418 58.1651 9.31215C58.6023 8.63763 59.027 7.95686 59.4392 7.26985C59.8639 6.58284 60.3199 5.90832 60.807 5.24628C61.2317 4.67169 61.7064 4.15331 62.231 3.69114C62.7556 3.22896 63.2865 2.82925 63.8236 2.49198C64.3607 2.15472 64.8791 1.89241 65.3788 1.70504C65.8909 1.51768 66.3343 1.41775 66.7091 1.40525C66.9089 1.39276 67.0713 1.31782 67.1962 1.18041C67.3336 1.04301 67.4023 0.874381 67.4023 0.674522C67.4023 0.462173 67.3211 0.299788 67.1587 0.187367C67.0089 0.0624558 66.8402 0 66.6529 0C66.1032 0 65.5162 0.118666 64.8916 0.355998C64.2671 0.580839 63.6425 0.893117 63.0179 1.29283C62.4059 1.68006 61.8063 2.14223 61.2192 2.67935C60.6446 3.21647 60.1325 3.78482 59.6828 4.38439C59.2456 4.95899 58.8272 5.58979 58.4275 6.2768C58.0277 6.95133 57.603 7.63834 57.1534 8.33784C56.7037 9.03735 56.2103 9.73685 55.6732 10.4364C55.1485 11.1234 54.5427 11.7729 53.8557 12.385C53.1812 12.9846 52.4005 13.5279 51.5136 14.0151C50.6392 14.5022 49.6275 14.8957 48.4783 15.1955C47.6289 14.8083 46.8045 14.521 46.005 14.3336C45.2056 14.1337 44.4874 14.0338 43.8503 14.0338Z" fill="#F0FFFF"/>
<path d="M28.105 2.77567C28.3423 2.35097 28.461 1.92002 28.461 1.48283C28.461 1.08312 28.3174 0.758347 28.0301 0.508524C27.7553 0.258701 27.4117 0.133789 26.9995 0.133789C26.6873 0.133789 26.3625 0.221227 26.0252 0.396103C25.688 0.570979 25.3507 0.845785 25.0135 1.22052C24.6887 1.58276 24.3764 2.05118 24.0766 2.62577C23.7893 3.18788 23.5333 3.8624 23.3084 4.64934C22.9836 4.74927 22.6401 4.81797 22.2779 4.85544C21.9157 4.88043 21.5097 4.89292 21.06 4.89292C19.9358 4.89292 18.8304 4.80548 17.7436 4.6306C16.6694 4.44324 15.5952 4.24338 14.5209 4.03103C13.4467 3.81868 12.3724 3.62507 11.2982 3.45019C10.2365 3.26282 9.16223 3.16914 8.0755 3.16914C7.11369 3.16914 6.15187 3.28781 5.19006 3.52514C4.24073 3.76247 3.37885 4.1372 2.6044 4.64934C1.82995 5.14899 1.19915 5.79853 0.711993 6.59796C0.237331 7.3849 0 8.32798 0 9.42721C0 9.98931 0.0811922 10.5077 0.243577 10.9824C0.418452 11.457 0.637047 11.888 0.89936 12.2752C1.16167 12.6499 1.44897 12.9747 1.76125 13.2495C2.07352 13.5243 2.37331 13.7491 2.66061 13.924C2.72306 13.9615 2.79176 13.999 2.86671 14.0364C2.95415 14.0614 3.04159 14.0739 3.12902 14.0739C3.31639 14.0739 3.47253 14.0115 3.59744 13.8865C3.72235 13.7491 3.78481 13.5805 3.78481 13.3807C3.78481 13.1308 3.67239 12.9247 3.44755 12.7623C3.38509 12.7249 3.24144 12.6312 3.0166 12.4813C2.80425 12.3189 2.57941 12.1003 2.34208 11.8255C2.10475 11.5507 1.8924 11.2134 1.70504 10.8137C1.51767 10.414 1.42399 9.95183 1.42399 9.42721C1.42399 8.60279 1.59262 7.89079 1.92988 7.29122C2.27963 6.67915 2.75429 6.17326 3.35386 5.77354C3.95344 5.37383 4.65294 5.08029 5.45237 4.89292C6.26429 4.69306 7.13243 4.59313 8.05677 4.59313C9.18097 4.59313 10.2802 4.68057 11.3544 4.85544C12.4411 5.03032 13.5154 5.22393 14.5771 5.43628C15.6514 5.63614 16.7194 5.82351 17.7811 5.99838C18.8428 6.17326 19.9233 6.2607 21.0225 6.2607C21.3723 6.2607 21.722 6.24196 22.0718 6.20449C22.434 6.15452 22.7588 6.09831 23.0461 6.03586C22.9462 6.52301 22.8587 7.06638 22.7838 7.66595C22.7213 8.25304 22.6776 8.8651 22.6526 9.50215C22.6027 10.5014 22.5465 11.4945 22.484 12.4813C22.434 13.4556 22.2592 15.3855 22.2592 15.3855C22.2592 15.3855 19.9733 15.4979 19.2238 15.5354C18.4744 15.5729 18.0871 15.5916 18.0621 15.5916C17.8623 15.6166 17.6999 15.6978 17.575 15.8352C17.4626 15.9726 17.4064 16.1412 17.4064 16.3411C17.4064 16.5534 17.4813 16.722 17.6312 16.847C17.7936 16.9594 17.9685 17.0156 18.1558 17.0156C18.1808 17.0156 18.5431 16.9968 19.2426 16.9594C19.9421 16.9219 20.8914 16.8719 22.0905 16.8095C21.8782 18.3709 21.5534 19.8323 21.1162 21.1939C20.6915 22.5429 20.0795 23.7233 19.28 24.7351C18.4931 25.7469 17.4751 26.5463 16.226 27.1334C14.9768 27.708 13.4342 27.9953 11.598 27.9953C10.6112 27.9953 9.65563 27.8954 8.73129 27.6955C7.81944 27.4957 6.97004 27.2146 6.1831 26.8524C5.39616 26.4901 4.69041 26.0592 4.06586 25.5595C3.45379 25.0599 2.95415 24.504 2.56692 23.892C2.50447 23.792 2.41703 23.7171 2.30461 23.6671C2.19219 23.6047 2.07977 23.5734 1.96735 23.5734C1.755 23.5734 1.58013 23.6484 1.44272 23.7983C1.31781 23.9357 1.25536 24.0981 1.25536 24.2854C1.25536 24.4228 1.29283 24.5477 1.36778 24.6602C1.81746 25.3597 2.39829 26.003 3.11029 26.59C3.82228 27.1771 4.62171 27.683 5.50858 28.1077C6.39545 28.5199 7.35102 28.8385 8.37529 29.0633C9.41205 29.3006 10.48 29.4193 11.5793 29.4193C13.6653 29.4193 15.4203 29.0883 16.8443 28.4262C18.2683 27.7517 19.4362 26.8399 20.348 25.6907C21.2724 24.529 21.9781 23.18 22.4653 21.6436C22.9649 20.1071 23.3334 18.4708 23.5707 16.7345C24.5825 16.6971 25.688 16.6596 26.8871 16.6221C28.0988 16.5721 29.3604 16.5284 30.6719 16.491C31.996 16.4535 33.3575 16.4223 34.7565 16.3973C36.1555 16.3723 37.5483 16.3598 38.9348 16.3598V17.5777C38.9348 19.7511 39.0535 21.5998 39.2908 23.1238C39.5406 24.6352 39.8154 25.8781 40.1152 26.8524C40.415 27.8142 40.6898 28.5199 40.9396 28.9696C41.2019 29.4193 41.3456 29.6629 41.3706 29.7003C41.508 29.9002 41.6953 30.0001 41.9327 30.0001C42.1325 30.0001 42.3012 29.9252 42.4386 29.7753C42.576 29.6379 42.6447 29.4755 42.6447 29.2881C42.6447 29.1382 42.6009 29.0008 42.5135 28.8759L42.3449 28.6136C42.2449 28.4262 42.1138 28.1452 41.9514 27.7705C41.789 27.3832 41.6141 26.8961 41.4268 26.309C41.2394 25.7094 41.0645 24.9912 40.9021 24.1543C40.7523 23.3174 40.6211 22.3555 40.5087 21.2688C40.4087 20.1821 40.3588 18.9517 40.3588 17.5777V16.9594C40.3588 16.7595 40.365 16.5597 40.3775 16.3598L40.415 14.9545C40.4899 13.2433 40.6398 11.7818 40.8647 10.5701C41.102 9.35851 41.3706 8.34672 41.6704 7.5348C41.9826 6.71038 42.3136 6.06084 42.6634 5.58618C43.0256 5.09902 43.3754 4.73053 43.7127 4.48071C44.0499 4.23089 44.3622 4.07475 44.6495 4.01229C44.9493 3.93734 45.1928 3.89987 45.3802 3.89987C45.6051 3.89987 45.7799 3.91861 45.9048 3.95608C46.0298 3.98106 46.1297 4.01229 46.2046 4.04977C46.2921 4.07475 46.3608 4.10598 46.4107 4.14345C46.4732 4.16843 46.5544 4.18092 46.6543 4.18092C46.8916 4.18092 47.079 4.0685 47.2164 3.84366C47.2539 3.78121 47.2789 3.725 47.2914 3.67503C47.3038 3.61258 47.3101 3.55012 47.3101 3.48766C47.3101 3.26282 47.2351 3.08795 47.0852 2.96304C46.9354 2.82563 46.7542 2.7257 46.5419 2.66325C46.3295 2.5883 46.1109 2.53834 45.8861 2.51335C45.6738 2.48837 45.4926 2.47588 45.3427 2.47588C44.4434 2.47588 43.6252 2.75069 42.8882 3.3003C42.1513 3.84991 41.508 4.65559 40.9584 5.71733C40.4212 6.77908 39.9841 8.08441 39.6468 9.63331C39.3095 11.1822 39.0909 12.956 38.991 14.9545C37.617 14.9545 36.2367 14.967 34.8502 14.992C33.4762 15.017 32.1334 15.0482 30.8218 15.0857C29.5103 15.1232 28.2549 15.1669 27.0557 15.2169C25.8566 15.2543 23.7394 15.3293 23.7394 15.3293C23.7394 15.3293 23.9142 13.4244 23.9642 12.4626C24.0142 11.5007 24.0516 10.5327 24.0766 9.55836C24.1016 8.77142 24.1516 8.05942 24.2265 7.42238C24.3015 6.77284 24.4014 6.18575 24.5263 5.66112C24.9885 5.47376 25.4506 5.23642 25.9128 4.94913C26.3875 4.64934 26.8122 4.31833 27.1869 3.95608C27.5616 3.59384 27.8677 3.20037 28.105 2.77567Z" fill="#F0FFFF"/>
</svg>
