<svg width="30" height="30" viewBox="0 0 30 30" fill="none" xmlns="http://www.w3.org/2000/svg">
<path d="M14.9938 0C6.70095 0 0 6.71328 0 14.9938C0 21.3492 3.94899 26.7791 9.52695 28.9634C9.3912 27.7787 9.28014 25.9523 9.5763 24.6565C9.8478 23.4841 11.3287 17.2028 11.3287 17.2028C11.3287 17.2028 10.8844 16.3019 10.8844 14.9815C10.8844 12.8959 12.0938 11.341 13.5993 11.341C14.8828 11.341 15.4998 12.3036 15.4998 13.4513C15.4998 14.7347 14.6853 16.6598 14.2534 18.4492C13.8955 19.9424 15.0062 21.1641 16.4747 21.1641C19.1403 21.1641 21.1888 18.3505 21.1888 14.3028C21.1888 10.7117 18.6096 8.2065 14.9198 8.2065C10.6499 8.2065 8.14479 11.4027 8.14479 14.71C8.14479 15.9934 8.63841 17.3755 9.25545 18.1283C9.37887 18.2764 9.3912 18.4122 9.35418 18.5602C9.24312 19.0292 8.98395 20.0535 8.9346 20.2633C8.87289 20.5348 8.71245 20.5965 8.42862 20.4607C6.57753 19.5722 5.41752 16.8326 5.41752 14.636C5.41752 9.90951 8.8482 5.5656 15.327 5.5656C20.5224 5.5656 24.5702 9.26778 24.5702 14.2287C24.5702 19.3994 21.3122 23.5582 16.7956 23.5582C15.2776 23.5582 13.8461 22.7684 13.3649 21.8305C13.3649 21.8305 12.6121 24.6935 12.427 25.397C12.0938 26.7051 11.1806 28.334 10.5635 29.3336C11.9704 29.7655 13.4513 30 15.0062 30C23.2867 30 30 23.2867 30 15.0062C29.9877 6.71328 23.2744 0 14.9938 0Z" fill="#F0FFFF"/>
</svg>
