<svg width="345" height="463" viewBox="0 0 345 463" fill="none" xmlns="http://www.w3.org/2000/svg">
<path d="M345 348L345 413C345 440.614 322.614 463 295 463L165 463C137.386 463 115 440.614 115 413L115 348L345 348Z" fill="#FFB4C7"/>
<path d="M115 348L115 413C115 440.614 92.6142 463 65 463L50 463C22.3858 463 -4.0483e-06 440.614 -2.84124e-06 413L-2.18557e-06 398C-9.78513e-07 370.386 22.3858 348 50 348L115 348Z" fill="#FFECA0"/>
<path d="M337.929 289.329L286.671 340.587L235.412 289.329L286.671 238.071L337.929 289.329Z" stroke="#FFECA0" stroke-width="10"/>
<circle cx="287.5" cy="173.5" r="57.5" transform="rotate(90 287.5 173.5)" fill="#FFECA0"/>
<circle cx="170.5" cy="288.5" r="52.5" transform="rotate(90 170.5 288.5)" stroke="#FFB4C7" stroke-width="10"/>
<path d="M285.839 0L343.678 57.8388L285.839 115.678L228 57.8388L285.839 0Z" fill="#FFB4C7"/>
</svg>
