<svg width="579" height="229" viewBox="0 0 579 229" fill="none" xmlns="http://www.w3.org/2000/svg">
<path d="M5 119H110V224H5V119Z" stroke="#FFB4C7" stroke-width="10"/>
<path d="M0 0H65C92.6142 0 115 22.3858 115 50V65C115 92.6142 92.6142 115 65 115H50C22.3858 115 0 92.6142 0 65V0Z" fill="#FFB4C7"/>
<path d="M173.329 7.07107L224.588 58.3293L173.329 109.588L122.071 58.3293L173.329 7.07107Z" stroke="#FFECA0" stroke-width="10"/>
<path d="M348.678 0.322266H578.678V65.3223C578.678 92.9365 556.292 115.322 528.678 115.322H398.678C371.063 115.322 348.678 92.9365 348.678 65.3223V0.322266Z" fill="#FFECA0"/>
<path d="M289.839 0L347.678 57.8388L289.839 115.678L232 57.8388L289.839 0Z" fill="#FFB4C7"/>
</svg>
