<svg width="158" height="158" viewBox="0 0 158 158" fill="none" xmlns="http://www.w3.org/2000/svg">
<g filter="url(#filter0_d_35_7)">
<rect x="4" y="4" width="150" height="150" rx="30" fill="#56C596"/>
</g>
<g filter="url(#filter1_d_35_7)">
<rect x="14" y="14" width="130" height="130" rx="30" fill="white"/>
</g>
<path d="M63.36 55C62.976 55 62.656 54.872 62.4 54.616C62.144 54.36 62.016 54.0507 62.016 53.688V35.48L62.4 35.928L58.784 38.424C58.5707 38.5733 58.3253 38.648 58.048 38.648C57.6853 38.648 57.376 38.52 57.12 38.264C56.864 37.9867 56.736 37.6773 56.736 37.336C56.736 36.8667 56.96 36.4933 57.408 36.216L62.496 32.856C62.6667 32.7493 62.8373 32.6747 63.008 32.632C63.1787 32.5893 63.3493 32.5787 63.52 32.6C63.904 32.6 64.2027 32.728 64.416 32.984C64.6507 33.2187 64.768 33.5173 64.768 33.88V53.688C64.768 54.0507 64.6293 54.36 64.352 54.616C64.096 54.872 63.7653 55 63.36 55ZM79.7188 55C79.3561 55 79.0468 54.872 78.7908 54.616C78.5561 54.36 78.4388 54.0507 78.4388 53.688V36.184L78.9508 36.376L71.3028 46.36L71.1748 45.976H83.1428C83.4841 45.976 83.7721 46.0933 84.0068 46.328C84.2414 46.5627 84.3588 46.8507 84.3588 47.192C84.3588 47.512 84.2414 47.7893 84.0068 48.024C83.7721 48.2373 83.4841 48.344 83.1428 48.344H69.4148C69.0948 48.344 68.7961 48.216 68.5188 47.96C68.2628 47.704 68.1348 47.4053 68.1348 47.064C68.1348 46.744 68.2414 46.4667 68.4548 46.232L78.6628 33.112C78.8121 32.92 78.9828 32.792 79.1748 32.728C79.3668 32.6427 79.5588 32.6 79.7508 32.6C80.1134 32.6 80.4121 32.728 80.6468 32.984C80.8814 33.2187 80.9988 33.5173 80.9988 33.88V53.688C80.9988 54.0507 80.8708 54.36 80.6148 54.616C80.3801 54.872 80.0814 55 79.7188 55ZM97.2188 55C96.8561 55 96.5468 54.872 96.2908 54.616C96.0561 54.36 95.9388 54.0507 95.9388 53.688V36.184L96.4508 36.376L88.8028 46.36L88.6748 45.976H100.643C100.984 45.976 101.272 46.0933 101.507 46.328C101.741 46.5627 101.859 46.8507 101.859 47.192C101.859 47.512 101.741 47.7893 101.507 48.024C101.272 48.2373 100.984 48.344 100.643 48.344H86.9148C86.5948 48.344 86.2961 48.216 86.0188 47.96C85.7628 47.704 85.6348 47.4053 85.6348 47.064C85.6348 46.744 85.7414 46.4667 85.9548 46.232L96.1628 33.112C96.3121 32.92 96.4828 32.792 96.6748 32.728C96.8668 32.6427 97.0588 32.6 97.2508 32.6C97.6134 32.6 97.9121 32.728 98.1468 32.984C98.3814 33.2187 98.4988 33.5173 98.4988 33.88V53.688C98.4988 54.0507 98.3708 54.36 98.1148 54.616C97.8801 54.872 97.5814 55 97.2188 55Z" fill="#358A66"/>
<path d="M49.224 100.8C50.1627 100.8 50.8827 101.045 51.384 101.536C51.896 102.016 52.152 102.699 52.152 103.584C52.152 104.053 52.0453 104.485 51.832 104.88C51.6187 105.275 51.304 105.589 50.888 105.824C50.4827 106.059 49.9813 106.187 49.384 106.208L49.352 105.76C49.7253 105.76 50.1093 105.813 50.504 105.92C50.8987 106.027 51.2613 106.197 51.592 106.432C51.9333 106.667 52.2053 106.976 52.408 107.36C52.6213 107.744 52.728 108.219 52.728 108.784C52.728 109.392 52.6267 109.904 52.424 110.32C52.2213 110.725 51.9493 111.056 51.608 111.312C51.2773 111.557 50.904 111.733 50.488 111.84C50.0827 111.947 49.672 112 49.256 112H45.048C44.8667 112 44.712 111.936 44.584 111.808C44.4667 111.68 44.408 111.525 44.408 111.344V101.44C44.408 101.259 44.4667 101.109 44.584 100.992C44.712 100.864 44.8667 100.8 45.048 100.8H49.224ZM49.032 102.064H45.592L45.784 101.776V105.76L45.608 105.552H49.064C49.5333 105.552 49.9333 105.403 50.264 105.104C50.6053 104.795 50.776 104.341 50.776 103.744C50.776 103.211 50.6213 102.8 50.312 102.512C50.0027 102.213 49.576 102.064 49.032 102.064ZM49.16 106.832H45.672L45.784 106.72V110.896L45.656 110.752H49.208C49.8373 110.752 50.3493 110.592 50.744 110.272C51.1493 109.952 51.352 109.456 51.352 108.784C51.352 108.261 51.2453 107.861 51.032 107.584C50.8187 107.296 50.5413 107.099 50.2 106.992C49.8693 106.885 49.5227 106.832 49.16 106.832ZM58.4455 112.16C57.5922 112.16 56.8455 111.979 56.2055 111.616C55.5655 111.253 55.0642 110.757 54.7015 110.128C54.3495 109.488 54.1735 108.752 54.1735 107.92C54.1735 106.992 54.3548 106.203 54.7175 105.552C55.0908 104.891 55.5708 104.389 56.1575 104.048C56.7548 103.696 57.3842 103.52 58.0455 103.52C58.5362 103.52 59.0108 103.611 59.4695 103.792C59.9282 103.973 60.3335 104.24 60.6855 104.592C61.0375 104.933 61.3202 105.349 61.5335 105.84C61.7468 106.32 61.8588 106.859 61.8695 107.456C61.8695 107.627 61.8055 107.771 61.6775 107.888C61.5495 108.005 61.4002 108.064 61.2295 108.064H54.9095L54.6215 106.96H60.7815L60.5255 107.184V106.832C60.4828 106.395 60.3335 106.021 60.0775 105.712C59.8322 105.392 59.5282 105.147 59.1655 104.976C58.8135 104.805 58.4402 104.72 58.0455 104.72C57.7255 104.72 57.4055 104.779 57.0855 104.896C56.7762 105.003 56.4935 105.184 56.2375 105.44C55.9922 105.685 55.7895 106.005 55.6295 106.4C55.4802 106.795 55.4055 107.269 55.4055 107.824C55.4055 108.443 55.5282 108.987 55.7735 109.456C56.0295 109.925 56.3815 110.299 56.8295 110.576C57.2775 110.843 57.8002 110.976 58.3975 110.976C58.7708 110.976 59.0962 110.928 59.3735 110.832C59.6508 110.736 59.8908 110.619 60.0935 110.48C60.2962 110.331 60.4668 110.181 60.6055 110.032C60.7442 109.936 60.8775 109.888 61.0055 109.888C61.1655 109.888 61.2935 109.941 61.3895 110.048C61.4962 110.155 61.5495 110.283 61.5495 110.432C61.5495 110.613 61.4642 110.773 61.2935 110.912C60.9948 111.243 60.5895 111.536 60.0775 111.792C59.5655 112.037 59.0215 112.16 58.4455 112.16ZM73.5534 103.584C73.724 103.584 73.868 103.643 73.9854 103.76C74.1134 103.877 74.1774 104.032 74.1774 104.224C74.1774 104.267 74.172 104.315 74.1614 104.368C74.1614 104.411 74.1507 104.453 74.1294 104.496L71.6654 111.584C71.612 111.723 71.5214 111.829 71.3934 111.904C71.276 111.979 71.148 112.011 71.0094 112C70.764 111.989 70.5774 111.851 70.4494 111.584L68.4334 106.528L68.7534 106.576L66.9294 111.584C66.812 111.851 66.6254 111.989 66.3694 112C66.2307 112.011 66.0974 111.979 65.9694 111.904C65.8414 111.829 65.756 111.723 65.7134 111.584L63.2014 104.496C63.1694 104.4 63.1534 104.309 63.1534 104.224C63.1534 104.053 63.212 103.904 63.3294 103.776C63.4467 103.648 63.6067 103.584 63.8094 103.584C63.9374 103.584 64.0547 103.616 64.1614 103.68C64.268 103.744 64.3427 103.845 64.3854 103.984L66.5454 110.288L66.2094 110.272L68.0814 105.472C68.188 105.205 68.3854 105.072 68.6734 105.072C68.8227 105.072 68.94 105.109 69.0254 105.184C69.1214 105.248 69.1907 105.344 69.2334 105.472L71.1854 110.272L70.7854 110.304L72.9454 103.984C73.0414 103.717 73.244 103.584 73.5534 103.584ZM83.7587 107.84C83.7587 108.672 83.5721 109.413 83.1988 110.064C82.8361 110.715 82.3401 111.227 81.7108 111.6C81.0921 111.973 80.3934 112.16 79.6148 112.16C78.8361 112.16 78.1321 111.973 77.5028 111.6C76.8734 111.227 76.3721 110.715 75.9988 110.064C75.6361 109.413 75.4548 108.672 75.4548 107.84C75.4548 107.008 75.6361 106.267 75.9988 105.616C76.3721 104.965 76.8734 104.453 77.5028 104.08C78.1321 103.707 78.8361 103.52 79.6148 103.52C80.3934 103.52 81.0921 103.707 81.7108 104.08C82.3401 104.453 82.8361 104.965 83.1988 105.616C83.5721 106.267 83.7587 107.008 83.7587 107.84ZM82.4788 107.84C82.4788 107.221 82.3508 106.677 82.0948 106.208C81.8494 105.739 81.5081 105.371 81.0708 105.104C80.6441 104.837 80.1588 104.704 79.6148 104.704C79.0708 104.704 78.5801 104.837 78.1428 105.104C77.7161 105.371 77.3748 105.739 77.1188 106.208C76.8628 106.677 76.7348 107.221 76.7348 107.84C76.7348 108.448 76.8628 108.987 77.1188 109.456C77.3748 109.925 77.7161 110.299 78.1428 110.576C78.5801 110.843 79.0708 110.976 79.6148 110.976C80.1588 110.976 80.6441 110.843 81.0708 110.576C81.5081 110.299 81.8494 109.925 82.0948 109.456C82.3508 108.987 82.4788 108.448 82.4788 107.84ZM89.796 103.52C90.5213 103.52 91.092 103.669 91.508 103.968C91.924 104.267 92.2173 104.667 92.388 105.168C92.5693 105.669 92.66 106.229 92.66 106.848V111.344C92.66 111.525 92.596 111.68 92.468 111.808C92.3507 111.936 92.2013 112 92.02 112C91.8387 112 91.684 111.936 91.556 111.808C91.4387 111.68 91.38 111.525 91.38 111.344V106.88C91.38 106.475 91.316 106.112 91.188 105.792C91.0707 105.461 90.868 105.2 90.58 105.008C90.3027 104.805 89.9187 104.704 89.428 104.704C88.98 104.704 88.5693 104.805 88.196 105.008C87.8227 105.2 87.524 105.461 87.3 105.792C87.076 106.112 86.964 106.475 86.964 106.88V111.344C86.964 111.525 86.9 111.68 86.772 111.808C86.6547 111.936 86.5053 112 86.324 112C86.1427 112 85.988 111.936 85.86 111.808C85.7427 111.68 85.684 111.525 85.684 111.344V104.368C85.684 104.187 85.7427 104.037 85.86 103.92C85.988 103.792 86.1427 103.728 86.324 103.728C86.516 103.728 86.6707 103.792 86.788 103.92C86.9053 104.037 86.964 104.187 86.964 104.368V105.504L86.644 105.856C86.6973 105.579 86.82 105.301 87.012 105.024C87.204 104.736 87.444 104.48 87.732 104.256C88.02 104.032 88.34 103.856 88.692 103.728C89.044 103.589 89.412 103.52 89.796 103.52ZM98.8518 112.16C97.9984 112.16 97.2518 111.979 96.6118 111.616C95.9718 111.253 95.4704 110.757 95.1078 110.128C94.7558 109.488 94.5798 108.752 94.5798 107.92C94.5798 106.992 94.7611 106.203 95.1238 105.552C95.4971 104.891 95.9771 104.389 96.5638 104.048C97.1611 103.696 97.7904 103.52 98.4518 103.52C98.9424 103.52 99.4171 103.611 99.8758 103.792C100.334 103.973 100.74 104.24 101.092 104.592C101.444 104.933 101.726 105.349 101.94 105.84C102.153 106.32 102.265 106.859 102.276 107.456C102.276 107.627 102.212 107.771 102.084 107.888C101.956 108.005 101.806 108.064 101.636 108.064H95.3158L95.0278 106.96H101.188L100.932 107.184V106.832C100.889 106.395 100.74 106.021 100.484 105.712C100.238 105.392 99.9344 105.147 99.5718 104.976C99.2198 104.805 98.8464 104.72 98.4518 104.72C98.1318 104.72 97.8118 104.779 97.4918 104.896C97.1824 105.003 96.8998 105.184 96.6438 105.44C96.3984 105.685 96.1958 106.005 96.0358 106.4C95.8864 106.795 95.8118 107.269 95.8118 107.824C95.8118 108.443 95.9344 108.987 96.1798 109.456C96.4358 109.925 96.7878 110.299 97.2358 110.576C97.6838 110.843 98.2064 110.976 98.8038 110.976C99.1771 110.976 99.5024 110.928 99.7798 110.832C100.057 110.736 100.297 110.619 100.5 110.48C100.702 110.331 100.873 110.181 101.012 110.032C101.15 109.936 101.284 109.888 101.412 109.888C101.572 109.888 101.7 109.941 101.796 110.048C101.902 110.155 101.956 110.283 101.956 110.432C101.956 110.613 101.87 110.773 101.7 110.912C101.401 111.243 100.996 111.536 100.484 111.792C99.9718 112.037 99.4278 112.16 98.8518 112.16ZM104.84 112C104.658 112 104.504 111.936 104.376 111.808C104.258 111.68 104.2 111.525 104.2 111.344V104.368C104.2 104.187 104.258 104.037 104.376 103.92C104.504 103.792 104.658 103.728 104.84 103.728C105.032 103.728 105.186 103.792 105.304 103.92C105.421 104.037 105.48 104.187 105.48 104.368V106.48L105.288 106.144C105.352 105.813 105.464 105.493 105.624 105.184C105.794 104.864 106.008 104.581 106.264 104.336C106.52 104.08 106.813 103.883 107.144 103.744C107.474 103.595 107.837 103.52 108.232 103.52C108.466 103.52 108.68 103.579 108.872 103.696C109.074 103.803 109.176 103.957 109.176 104.16C109.176 104.384 109.117 104.549 109 104.656C108.882 104.763 108.749 104.816 108.6 104.816C108.461 104.816 108.328 104.789 108.2 104.736C108.072 104.672 107.912 104.64 107.72 104.64C107.453 104.64 107.186 104.715 106.92 104.864C106.664 105.003 106.424 105.205 106.2 105.472C105.986 105.739 105.81 106.043 105.672 106.384C105.544 106.715 105.48 107.072 105.48 107.456V111.344C105.48 111.525 105.416 111.68 105.288 111.808C105.17 111.936 105.021 112 104.84 112ZM110.158 110.688C110.062 110.549 110.019 110.405 110.03 110.256C110.04 110.096 110.131 109.957 110.302 109.84C110.408 109.765 110.531 109.733 110.67 109.744C110.819 109.755 110.952 109.824 111.07 109.952C111.368 110.304 111.71 110.587 112.094 110.8C112.478 111.003 112.947 111.104 113.502 111.104C113.758 111.093 114.014 111.051 114.27 110.976C114.526 110.901 114.739 110.773 114.91 110.592C115.091 110.4 115.182 110.149 115.182 109.84C115.182 109.541 115.091 109.307 114.91 109.136C114.728 108.955 114.494 108.811 114.206 108.704C113.918 108.587 113.603 108.485 113.262 108.4C112.91 108.304 112.563 108.197 112.222 108.08C111.88 107.952 111.571 107.797 111.294 107.616C111.027 107.424 110.808 107.189 110.638 106.912C110.478 106.624 110.398 106.277 110.398 105.872C110.398 105.392 110.526 104.976 110.782 104.624C111.048 104.272 111.4 104 111.838 103.808C112.286 103.616 112.771 103.52 113.294 103.52C113.592 103.52 113.902 103.557 114.222 103.632C114.552 103.696 114.872 103.813 115.182 103.984C115.491 104.144 115.763 104.368 115.998 104.656C116.094 104.763 116.147 104.896 116.158 105.056C116.168 105.216 116.099 105.36 115.95 105.488C115.832 105.573 115.699 105.611 115.55 105.6C115.411 105.589 115.294 105.536 115.198 105.44C114.974 105.173 114.691 104.971 114.35 104.832C114.019 104.683 113.651 104.608 113.246 104.608C112.99 104.608 112.739 104.645 112.494 104.72C112.248 104.795 112.04 104.923 111.87 105.104C111.71 105.275 111.63 105.515 111.63 105.824C111.64 106.112 111.736 106.347 111.918 106.528C112.099 106.709 112.344 106.859 112.654 106.976C112.963 107.083 113.304 107.189 113.678 107.296C114.019 107.381 114.344 107.483 114.654 107.6C114.974 107.707 115.262 107.851 115.518 108.032C115.774 108.213 115.976 108.448 116.126 108.736C116.275 109.013 116.35 109.365 116.35 109.792C116.35 110.283 116.211 110.709 115.934 111.072C115.656 111.424 115.288 111.696 114.83 111.888C114.382 112.069 113.896 112.16 113.374 112.16C112.787 112.16 112.206 112.048 111.63 111.824C111.064 111.6 110.574 111.221 110.158 110.688Z" fill="#358A66"/>
<rect x="30" y="74" width="100" height="5" rx="2.5" fill="#358A66"/>
<defs>
<filter id="filter0_d_35_7" x="0" y="0" width="158" height="158" filterUnits="userSpaceOnUse" color-interpolation-filters="sRGB">
<feFlood flood-opacity="0" result="BackgroundImageFix"/>
<feColorMatrix in="SourceAlpha" type="matrix" values="0 0 0 0 0 0 0 0 0 0 0 0 0 0 0 0 0 0 127 0" result="hardAlpha"/>
<feOffset/>
<feGaussianBlur stdDeviation="2"/>
<feComposite in2="hardAlpha" operator="out"/>
<feColorMatrix type="matrix" values="0 0 0 0 0 0 0 0 0 0 0 0 0 0 0 0 0 0 0.4 0"/>
<feBlend mode="normal" in2="BackgroundImageFix" result="effect1_dropShadow_35_7"/>
<feBlend mode="normal" in="SourceGraphic" in2="effect1_dropShadow_35_7" result="shape"/>
</filter>
<filter id="filter1_d_35_7" x="10" y="10" width="138" height="138" filterUnits="userSpaceOnUse" color-interpolation-filters="sRGB">
<feFlood flood-opacity="0" result="BackgroundImageFix"/>
<feColorMatrix in="SourceAlpha" type="matrix" values="0 0 0 0 0 0 0 0 0 0 0 0 0 0 0 0 0 0 127 0" result="hardAlpha"/>
<feOffset/>
<feGaussianBlur stdDeviation="2"/>
<feComposite in2="hardAlpha" operator="out"/>
<feColorMatrix type="matrix" values="0 0 0 0 0 0 0 0 0 0 0 0 0 0 0 0 0 0 0.4 0"/>
<feBlend mode="normal" in2="BackgroundImageFix" result="effect1_dropShadow_35_7"/>
<feBlend mode="normal" in="SourceGraphic" in2="effect1_dropShadow_35_7" result="shape"/>
</filter>
</defs>
</svg>
