<svg width="78" height="78" viewBox="0 0 78 78" fill="none" xmlns="http://www.w3.org/2000/svg">
<g filter="url(#filter0_d_27_454)">
<rect x="4" y="4" width="70" height="70" rx="20" fill="#56C596"/>
</g>
<g filter="url(#filter1_d_27_454)">
<rect x="9" y="9" width="60" height="60" rx="20" fill="white"/>
</g>
<g clip-path="url(#clip0_27_454)" filter="url(#filter2_i_27_454)">
<path d="M47.9614 52.1899C43.3422 60.9922 39.8253 66.182 35.7646 65.9963C33.1469 65.8762 31.166 63.5636 26.7572 56.6182C23.3668 51.2765 18.8165 43.6296 14 33.8671C15.3703 33.3382 17.8782 32.5879 20.6374 33.2594C30.3374 35.6208 31.7468 52.7976 36.4982 52.6232C39.1122 52.5275 41.0857 47.002 45.0309 35.9509C48.7452 25.5506 49.4602 20.6797 53.9099 17.8025C56.9689 15.8237 60.5082 15.8462 62.9583 16.1538C57.9482 31.802 52.3478 43.8322 47.9595 52.1899H47.9614Z" fill="#11C4D4"/>
</g>
<defs>
<filter id="filter0_d_27_454" x="0" y="0" width="78" height="78" filterUnits="userSpaceOnUse" color-interpolation-filters="sRGB">
<feFlood flood-opacity="0" result="BackgroundImageFix"/>
<feColorMatrix in="SourceAlpha" type="matrix" values="0 0 0 0 0 0 0 0 0 0 0 0 0 0 0 0 0 0 127 0" result="hardAlpha"/>
<feOffset/>
<feGaussianBlur stdDeviation="2"/>
<feComposite in2="hardAlpha" operator="out"/>
<feColorMatrix type="matrix" values="0 0 0 0 0 0 0 0 0 0 0 0 0 0 0 0 0 0 0.4 0"/>
<feBlend mode="normal" in2="BackgroundImageFix" result="effect1_dropShadow_27_454"/>
<feBlend mode="normal" in="SourceGraphic" in2="effect1_dropShadow_27_454" result="shape"/>
</filter>
<filter id="filter1_d_27_454" x="5" y="5" width="68" height="68" filterUnits="userSpaceOnUse" color-interpolation-filters="sRGB">
<feFlood flood-opacity="0" result="BackgroundImageFix"/>
<feColorMatrix in="SourceAlpha" type="matrix" values="0 0 0 0 0 0 0 0 0 0 0 0 0 0 0 0 0 0 127 0" result="hardAlpha"/>
<feOffset/>
<feGaussianBlur stdDeviation="2"/>
<feComposite in2="hardAlpha" operator="out"/>
<feColorMatrix type="matrix" values="0 0 0 0 0 0 0 0 0 0 0 0 0 0 0 0 0 0 0.4 0"/>
<feBlend mode="normal" in2="BackgroundImageFix" result="effect1_dropShadow_27_454"/>
<feBlend mode="normal" in="SourceGraphic" in2="effect1_dropShadow_27_454" result="shape"/>
</filter>
<filter id="filter2_i_27_454" x="14" y="16" width="48.9584" height="50" filterUnits="userSpaceOnUse" color-interpolation-filters="sRGB">
<feFlood flood-opacity="0" result="BackgroundImageFix"/>
<feBlend mode="normal" in="SourceGraphic" in2="BackgroundImageFix" result="shape"/>
<feColorMatrix in="SourceAlpha" type="matrix" values="0 0 0 0 0 0 0 0 0 0 0 0 0 0 0 0 0 0 127 0" result="hardAlpha"/>
<feOffset/>
<feGaussianBlur stdDeviation="2"/>
<feComposite in2="hardAlpha" operator="arithmetic" k2="-1" k3="1"/>
<feColorMatrix type="matrix" values="0 0 0 0 0 0 0 0 0 0 0 0 0 0 0 0 0 0 0.4 0"/>
<feBlend mode="normal" in2="shape" result="effect1_innerShadow_27_454"/>
</filter>
<clipPath id="clip0_27_454">
<rect width="48.9583" height="50" fill="white" transform="translate(14 16)"/>
</clipPath>
</defs>
</svg>
