<svg width="200" height="50" viewBox="0 0 200 50" fill="none" xmlns="http://www.w3.org/2000/svg">
<g filter="url(#filter0_i_17_145)">
<rect width="200" height="50" rx="25" fill="#56C596"/>
</g>
<path d="M34.003 13.568C34.195 13.568 34.3977 13.6213 34.611 13.728C34.8457 13.8347 35.027 13.9733 35.155 14.144L43.635 26.976L42.515 26.944L51.091 14.144C51.3683 13.7387 51.731 13.5467 52.179 13.568C52.5203 13.5893 52.819 13.7173 53.075 13.952C53.331 14.1867 53.459 14.496 53.459 14.88V34.688C53.459 35.0507 53.331 35.36 53.075 35.616C52.819 35.872 52.499 36 52.115 36C51.731 36 51.411 35.872 51.155 35.616C50.899 35.36 50.771 35.0507 50.771 34.688V17.312L51.571 17.472L44.019 28.96C43.891 29.1093 43.731 29.2373 43.539 29.344C43.3683 29.4507 43.187 29.504 42.995 29.504C42.803 29.504 42.611 29.4507 42.419 29.344C42.227 29.2373 42.067 29.1093 41.939 28.96L34.483 17.472L35.155 16.64V34.688C35.155 35.0507 35.0377 35.36 34.803 35.616C34.5683 35.872 34.2697 36 33.907 36C33.5443 36 33.2457 35.872 33.011 35.616C32.7977 35.36 32.691 35.0507 32.691 34.688V14.88C32.691 14.5387 32.8083 14.24 33.043 13.984C33.299 13.7067 33.619 13.568 34.003 13.568ZM66.266 36.32C64.5593 36.32 63.066 35.9573 61.786 35.232C60.506 34.5067 59.5033 33.5147 58.778 32.256C58.074 30.976 57.722 29.504 57.722 27.84C57.722 25.984 58.0847 24.4053 58.81 23.104C59.5567 21.7813 60.5167 20.7787 61.69 20.096C62.8847 19.392 64.1433 19.04 65.466 19.04C66.4473 19.04 67.3967 19.2213 68.314 19.584C69.2313 19.9467 70.042 20.48 70.746 21.184C71.45 21.8667 72.0153 22.6987 72.442 23.68C72.8687 24.64 73.0927 25.7173 73.114 26.912C73.114 27.2533 72.986 27.5413 72.73 27.776C72.474 28.0107 72.1753 28.128 71.834 28.128H59.194L58.618 25.92H70.938L70.426 26.368V25.664C70.3407 24.7893 70.042 24.0427 69.53 23.424C69.0393 22.784 68.4313 22.2933 67.706 21.952C67.002 21.6107 66.2553 21.44 65.466 21.44C64.826 21.44 64.186 21.5573 63.546 21.792C62.9273 22.0053 62.362 22.368 61.85 22.88C61.3593 23.3707 60.954 24.0107 60.634 24.8C60.3353 25.5893 60.186 26.5387 60.186 27.648C60.186 28.8853 60.4313 29.9733 60.922 30.912C61.434 31.8507 62.138 32.5973 63.034 33.152C63.93 33.6853 64.9753 33.952 66.17 33.952C66.9167 33.952 67.5673 33.856 68.122 33.664C68.6767 33.472 69.1567 33.2373 69.562 32.96C69.9673 32.6613 70.3087 32.3627 70.586 32.064C70.8633 31.872 71.13 31.776 71.386 31.776C71.706 31.776 71.962 31.8827 72.154 32.096C72.3673 32.3093 72.474 32.5653 72.474 32.864C72.474 33.2267 72.3033 33.5467 71.962 33.824C71.3647 34.4853 70.554 35.072 69.53 35.584C68.506 36.0747 67.418 36.32 66.266 36.32ZM84.6098 36.32C82.9031 36.32 81.4098 35.9573 80.1298 35.232C78.8498 34.5067 77.8471 33.5147 77.1218 32.256C76.4178 30.976 76.0658 29.504 76.0658 27.84C76.0658 25.984 76.4284 24.4053 77.1538 23.104C77.9004 21.7813 78.8604 20.7787 80.0338 20.096C81.2284 19.392 82.4871 19.04 83.8098 19.04C84.7911 19.04 85.7404 19.2213 86.6578 19.584C87.5751 19.9467 88.3858 20.48 89.0898 21.184C89.7938 21.8667 90.3591 22.6987 90.7858 23.68C91.2124 24.64 91.4364 25.7173 91.4578 26.912C91.4578 27.2533 91.3298 27.5413 91.0738 27.776C90.8178 28.0107 90.5191 28.128 90.1778 28.128H77.5378L76.9618 25.92H89.2818L88.7698 26.368V25.664C88.6844 24.7893 88.3858 24.0427 87.8738 23.424C87.3831 22.784 86.7751 22.2933 86.0498 21.952C85.3458 21.6107 84.5991 21.44 83.8098 21.44C83.1698 21.44 82.5298 21.5573 81.8898 21.792C81.2711 22.0053 80.7058 22.368 80.1938 22.88C79.7031 23.3707 79.2978 24.0107 78.9778 24.8C78.6791 25.5893 78.5298 26.5387 78.5298 27.648C78.5298 28.8853 78.7751 29.9733 79.2658 30.912C79.7778 31.8507 80.4818 32.5973 81.3778 33.152C82.2738 33.6853 83.3191 33.952 84.5138 33.952C85.2604 33.952 85.9111 33.856 86.4658 33.664C87.0204 33.472 87.5004 33.2373 87.9058 32.96C88.3111 32.6613 88.6524 32.3627 88.9298 32.064C89.2071 31.872 89.4738 31.776 89.7298 31.776C90.0498 31.776 90.3058 31.8827 90.4978 32.096C90.7111 32.3093 90.8178 32.5653 90.8178 32.864C90.8178 33.2267 90.6471 33.5467 90.3058 33.824C89.7084 34.4853 88.8978 35.072 87.8738 35.584C86.8498 36.0747 85.7618 36.32 84.6098 36.32ZM96.5855 36C96.2228 36 95.9135 35.872 95.6575 35.616C95.4228 35.36 95.3055 35.0507 95.3055 34.688V20.736C95.3055 20.3733 95.4228 20.0747 95.6575 19.84C95.9135 19.584 96.2228 19.456 96.5855 19.456C96.9695 19.456 97.2788 19.584 97.5135 19.84C97.7482 20.0747 97.8655 20.3733 97.8655 20.736V24.96L97.4815 24.288C97.6095 23.6267 97.8335 22.9867 98.1535 22.368C98.4948 21.728 98.9215 21.1627 99.4335 20.672C99.9455 20.16 100.532 19.7653 101.194 19.488C101.855 19.1893 102.58 19.04 103.37 19.04C103.839 19.04 104.266 19.1573 104.65 19.392C105.055 19.6053 105.258 19.9147 105.258 20.32C105.258 20.768 105.14 21.0987 104.906 21.312C104.671 21.5253 104.404 21.632 104.106 21.632C103.828 21.632 103.562 21.5787 103.306 21.472C103.05 21.344 102.73 21.28 102.345 21.28C101.812 21.28 101.279 21.4293 100.746 21.728C100.234 22.0053 99.7535 22.4107 99.3055 22.944C98.8788 23.4773 98.5268 24.0853 98.2495 24.768C97.9935 25.4293 97.8655 26.144 97.8655 26.912V34.688C97.8655 35.0507 97.7375 35.36 97.4815 35.616C97.2468 35.872 96.9482 36 96.5855 36ZM119.426 34.688C119.426 35.0507 119.298 35.36 119.042 35.616C118.807 35.872 118.508 36 118.146 36C117.762 36 117.452 35.872 117.218 35.616C116.983 35.36 116.866 35.0507 116.866 34.688V20.48C116.866 20.1173 116.983 19.8187 117.218 19.584C117.474 19.328 117.783 19.2 118.146 19.2C118.508 19.2 118.807 19.328 119.042 19.584C119.298 19.8187 119.426 20.1173 119.426 20.48V34.688ZM118.146 17.056C117.612 17.056 117.218 16.9493 116.962 16.736C116.706 16.5227 116.578 16.192 116.578 15.744V15.296C116.578 14.848 116.716 14.5173 116.994 14.304C117.271 14.0907 117.666 13.984 118.178 13.984C118.69 13.984 119.074 14.0907 119.33 14.304C119.586 14.5173 119.714 14.848 119.714 15.296V15.744C119.714 16.192 119.575 16.5227 119.298 16.736C119.042 16.9493 118.658 17.056 118.146 17.056ZM132.248 19.04C133.699 19.04 134.84 19.3387 135.672 19.936C136.504 20.5333 137.091 21.3333 137.432 22.336C137.795 23.3387 137.976 24.4587 137.976 25.696V34.688C137.976 35.0507 137.848 35.36 137.592 35.616C137.358 35.872 137.059 36 136.696 36C136.334 36 136.024 35.872 135.768 35.616C135.534 35.36 135.416 35.0507 135.416 34.688V25.76C135.416 24.9493 135.288 24.224 135.032 23.584C134.798 22.9227 134.392 22.4 133.816 22.016C133.262 21.6107 132.494 21.408 131.512 21.408C130.616 21.408 129.795 21.6107 129.048 22.016C128.302 22.4 127.704 22.9227 127.256 23.584C126.808 24.224 126.584 24.9493 126.584 25.76V34.688C126.584 35.0507 126.456 35.36 126.2 35.616C125.966 35.872 125.667 36 125.304 36C124.942 36 124.632 35.872 124.376 35.616C124.142 35.36 124.024 35.0507 124.024 34.688V20.736C124.024 20.3733 124.142 20.0747 124.376 19.84C124.632 19.584 124.942 19.456 125.304 19.456C125.688 19.456 125.998 19.584 126.232 19.84C126.467 20.0747 126.584 20.3733 126.584 20.736V23.008L125.944 23.712C126.051 23.1573 126.296 22.6027 126.68 22.048C127.064 21.472 127.544 20.96 128.12 20.512C128.696 20.064 129.336 19.712 130.04 19.456C130.744 19.1787 131.48 19.04 132.248 19.04ZM149.624 12.384C149.986 12.384 150.36 12.4267 150.744 12.512C151.149 12.5973 151.49 12.7467 151.768 12.96C152.066 13.1733 152.216 13.4613 152.216 13.824C152.216 14.1653 152.109 14.4533 151.896 14.688C151.682 14.9013 151.426 15.008 151.128 15.008C150.936 15.008 150.669 14.9547 150.328 14.848C149.986 14.72 149.634 14.656 149.272 14.656C148.781 14.656 148.376 14.7627 148.056 14.976C147.757 15.1893 147.533 15.4773 147.384 15.84C147.256 16.1813 147.192 16.5653 147.192 16.992V34.688C147.192 35.0507 147.064 35.36 146.808 35.616C146.573 35.872 146.274 36 145.912 36C145.528 36 145.218 35.872 144.984 35.616C144.749 35.36 144.632 35.0507 144.632 34.688V17.024C144.632 15.5947 145.069 14.464 145.944 13.632C146.84 12.8 148.066 12.384 149.624 12.384ZM150.52 19.712C150.861 19.712 151.149 19.8293 151.384 20.064C151.618 20.2773 151.736 20.5547 151.736 20.896C151.736 21.2373 151.618 21.5253 151.384 21.76C151.149 21.9733 150.861 22.08 150.52 22.08H142.488C142.146 22.08 141.858 21.9627 141.624 21.728C141.389 21.4933 141.272 21.216 141.272 20.896C141.272 20.5333 141.389 20.2453 141.624 20.032C141.858 19.8187 142.146 19.712 142.488 19.712H150.52ZM169.642 27.68C169.642 29.344 169.269 30.8267 168.523 32.128C167.797 33.4293 166.805 34.4533 165.547 35.2C164.309 35.9467 162.912 36.32 161.355 36.32C159.797 36.32 158.389 35.9467 157.131 35.2C155.872 34.4533 154.869 33.4293 154.123 32.128C153.397 30.8267 153.035 29.344 153.035 27.68C153.035 26.016 153.397 24.5333 154.123 23.232C154.869 21.9307 155.872 20.9067 157.131 20.16C158.389 19.4133 159.797 19.04 161.355 19.04C162.912 19.04 164.309 19.4133 165.547 20.16C166.805 20.9067 167.797 21.9307 168.523 23.232C169.269 24.5333 169.642 26.016 169.642 27.68ZM167.083 27.68C167.083 26.4427 166.827 25.3547 166.315 24.416C165.824 23.4773 165.141 22.7413 164.267 22.208C163.413 21.6747 162.443 21.408 161.355 21.408C160.267 21.408 159.285 21.6747 158.411 22.208C157.557 22.7413 156.875 23.4773 156.363 24.416C155.851 25.3547 155.595 26.4427 155.595 27.68C155.595 28.896 155.851 29.9733 156.363 30.912C156.875 31.8507 157.557 32.5973 158.411 33.152C159.285 33.6853 160.267 33.952 161.355 33.952C162.443 33.952 163.413 33.6853 164.267 33.152C165.141 32.5973 165.824 31.8507 166.315 30.912C166.827 29.9733 167.083 28.896 167.083 27.68Z" fill="white"/>
<defs>
<filter id="filter0_i_17_145" x="0" y="0" width="200" height="50" filterUnits="userSpaceOnUse" color-interpolation-filters="sRGB">
<feFlood flood-opacity="0" result="BackgroundImageFix"/>
<feBlend mode="normal" in="SourceGraphic" in2="BackgroundImageFix" result="shape"/>
<feColorMatrix in="SourceAlpha" type="matrix" values="0 0 0 0 0 0 0 0 0 0 0 0 0 0 0 0 0 0 127 0" result="hardAlpha"/>
<feOffset/>
<feGaussianBlur stdDeviation="2"/>
<feComposite in2="hardAlpha" operator="arithmetic" k2="-1" k3="1"/>
<feColorMatrix type="matrix" values="0 0 0 0 0 0 0 0 0 0 0 0 0 0 0 0 0 0 0.4 0"/>
<feBlend mode="normal" in2="shape" result="effect1_innerShadow_17_145"/>
</filter>
</defs>
</svg>
