<svg width="150" height="38" viewBox="0 0 150 38" fill="none" xmlns="http://www.w3.org/2000/svg">
<g filter="url(#filter0_i_75_10)">
<rect width="150" height="37.5" rx="18.75" fill="#56C596"/>
</g>
<path d="M25.7824 12.3C26.561 12.3 27.2437 12.4493 27.8304 12.748C28.4277 13.036 28.9237 13.4413 29.3184 13.964C29.713 14.4867 30.0064 15.0893 30.1984 15.772C30.401 16.444 30.5024 17.1533 30.5024 17.9C30.5024 18.924 30.3264 19.8627 29.9744 20.716C29.6224 21.5587 29.0997 22.236 28.4064 22.748C27.713 23.2493 26.8384 23.5 25.7824 23.5H21.7824C21.601 23.5 21.4464 23.436 21.3184 23.308C21.201 23.18 21.1424 23.0253 21.1424 22.844V12.94C21.1424 12.7587 21.201 12.6093 21.3184 12.492C21.4464 12.364 21.601 12.3 21.7824 12.3H25.7824ZM25.6224 22.252C26.4437 22.252 27.1104 22.0547 27.6224 21.66C28.145 21.2653 28.5237 20.7373 28.7584 20.076C29.0037 19.4147 29.1264 18.6893 29.1264 17.9C29.1264 17.324 29.057 16.7747 28.9184 16.252C28.7904 15.7187 28.5824 15.2493 28.2944 14.844C28.017 14.4387 27.6544 14.1187 27.2064 13.884C26.769 13.6493 26.241 13.532 25.6224 13.532H22.3424L22.4704 13.404V22.412L22.3744 22.252H25.6224ZM40.3837 19.34C40.3837 20.172 40.1971 20.9133 39.8238 21.564C39.4611 22.2147 38.9651 22.7267 38.3358 23.1C37.7171 23.4733 37.0184 23.66 36.2398 23.66C35.4611 23.66 34.7571 23.4733 34.1278 23.1C33.4984 22.7267 32.9971 22.2147 32.6238 21.564C32.2611 20.9133 32.0798 20.172 32.0798 19.34C32.0798 18.508 32.2611 17.7667 32.6238 17.116C32.9971 16.4653 33.4984 15.9533 34.1278 15.58C34.7571 15.2067 35.4611 15.02 36.2398 15.02C37.0184 15.02 37.7171 15.2067 38.3358 15.58C38.9651 15.9533 39.4611 16.4653 39.8238 17.116C40.1971 17.7667 40.3837 18.508 40.3837 19.34ZM39.1038 19.34C39.1038 18.7213 38.9758 18.1773 38.7198 17.708C38.4744 17.2387 38.1331 16.8707 37.6958 16.604C37.2691 16.3373 36.7838 16.204 36.2398 16.204C35.6958 16.204 35.2051 16.3373 34.7678 16.604C34.3411 16.8707 33.9998 17.2387 33.7438 17.708C33.4878 18.1773 33.3598 18.7213 33.3598 19.34C33.3598 19.948 33.4878 20.4867 33.7438 20.956C33.9998 21.4253 34.3411 21.7987 34.7678 22.076C35.2051 22.3427 35.6958 22.476 36.2398 22.476C36.7838 22.476 37.2691 22.3427 37.6958 22.076C38.1331 21.7987 38.4744 21.4253 38.7198 20.956C38.9758 20.4867 39.1038 19.948 39.1038 19.34ZM52.069 15.084C52.2397 15.084 52.3837 15.1427 52.501 15.26C52.629 15.3773 52.693 15.532 52.693 15.724C52.693 15.7667 52.6877 15.8147 52.677 15.868C52.677 15.9107 52.6663 15.9533 52.645 15.996L50.181 23.084C50.1277 23.2227 50.037 23.3293 49.909 23.404C49.7917 23.4787 49.6637 23.5107 49.525 23.5C49.2797 23.4893 49.093 23.3507 48.965 23.084L46.949 18.028L47.269 18.076L45.445 23.084C45.3277 23.3507 45.141 23.4893 44.885 23.5C44.7463 23.5107 44.613 23.4787 44.485 23.404C44.357 23.3293 44.2717 23.2227 44.229 23.084L41.717 15.996C41.685 15.9 41.669 15.8093 41.669 15.724C41.669 15.5533 41.7277 15.404 41.845 15.276C41.9623 15.148 42.1223 15.084 42.325 15.084C42.453 15.084 42.5703 15.116 42.677 15.18C42.7837 15.244 42.8583 15.3453 42.901 15.484L45.061 21.788L44.725 21.772L46.597 16.972C46.7037 16.7053 46.901 16.572 47.189 16.572C47.3383 16.572 47.4557 16.6093 47.541 16.684C47.637 16.748 47.7063 16.844 47.749 16.972L49.701 21.772L49.301 21.804L51.461 15.484C51.557 15.2173 51.7597 15.084 52.069 15.084ZM58.5304 15.02C59.2557 15.02 59.8264 15.1693 60.2424 15.468C60.6584 15.7667 60.9517 16.1667 61.1224 16.668C61.3037 17.1693 61.3944 17.7293 61.3944 18.348V22.844C61.3944 23.0253 61.3304 23.18 61.2024 23.308C61.085 23.436 60.9357 23.5 60.7544 23.5C60.573 23.5 60.4184 23.436 60.2904 23.308C60.173 23.18 60.1144 23.0253 60.1144 22.844V18.38C60.1144 17.9747 60.0504 17.612 59.9224 17.292C59.805 16.9613 59.6024 16.7 59.3144 16.508C59.037 16.3053 58.653 16.204 58.1624 16.204C57.7144 16.204 57.3037 16.3053 56.9304 16.508C56.557 16.7 56.2584 16.9613 56.0344 17.292C55.8104 17.612 55.6984 17.9747 55.6984 18.38V22.844C55.6984 23.0253 55.6344 23.18 55.5064 23.308C55.389 23.436 55.2397 23.5 55.0584 23.5C54.877 23.5 54.7224 23.436 54.5944 23.308C54.477 23.18 54.4184 23.0253 54.4184 22.844V15.868C54.4184 15.6867 54.477 15.5373 54.5944 15.42C54.7224 15.292 54.877 15.228 55.0584 15.228C55.2504 15.228 55.405 15.292 55.5224 15.42C55.6397 15.5373 55.6984 15.6867 55.6984 15.868V17.004L55.3784 17.356C55.4317 17.0787 55.5544 16.8013 55.7464 16.524C55.9384 16.236 56.1784 15.98 56.4664 15.756C56.7544 15.532 57.0744 15.356 57.4264 15.228C57.7784 15.0893 58.1464 15.02 58.5304 15.02ZM65.1701 22.844C65.1701 23.0253 65.1061 23.18 64.9781 23.308C64.8501 23.436 64.6955 23.5 64.5141 23.5C64.3328 23.5 64.1835 23.436 64.0661 23.308C63.9488 23.18 63.8901 23.0253 63.8901 22.844V12.3C63.8901 12.1187 63.9488 11.9693 64.0661 11.852C64.1941 11.724 64.3488 11.66 64.5301 11.66C64.7221 11.66 64.8768 11.724 64.9941 11.852C65.1115 11.9693 65.1701 12.1187 65.1701 12.3V22.844ZM75.3525 19.34C75.3525 20.172 75.1658 20.9133 74.7925 21.564C74.4298 22.2147 73.9338 22.7267 73.3045 23.1C72.6858 23.4733 71.9872 23.66 71.2085 23.66C70.4298 23.66 69.7258 23.4733 69.0965 23.1C68.4672 22.7267 67.9658 22.2147 67.5925 21.564C67.2298 20.9133 67.0485 20.172 67.0485 19.34C67.0485 18.508 67.2298 17.7667 67.5925 17.116C67.9658 16.4653 68.4672 15.9533 69.0965 15.58C69.7258 15.2067 70.4298 15.02 71.2085 15.02C71.9872 15.02 72.6858 15.2067 73.3045 15.58C73.9338 15.9533 74.4298 16.4653 74.7925 17.116C75.1658 17.7667 75.3525 18.508 75.3525 19.34ZM74.0725 19.34C74.0725 18.7213 73.9445 18.1773 73.6885 17.708C73.4432 17.2387 73.1018 16.8707 72.6645 16.604C72.2378 16.3373 71.7525 16.204 71.2085 16.204C70.6645 16.204 70.1738 16.3373 69.7365 16.604C69.3098 16.8707 68.9685 17.2387 68.7125 17.708C68.4565 18.1773 68.3285 18.7213 68.3285 19.34C68.3285 19.948 68.4565 20.4867 68.7125 20.956C68.9685 21.4253 69.3098 21.7987 69.7365 22.076C70.1738 22.3427 70.6645 22.476 71.2085 22.476C71.7525 22.476 72.2378 22.3427 72.6645 22.076C73.1018 21.7987 73.4432 21.4253 73.6885 20.956C73.9445 20.4867 74.0725 19.948 74.0725 19.34ZM84.0938 15.148C84.2751 15.148 84.4244 15.212 84.5417 15.34C84.6698 15.4573 84.7338 15.6067 84.7338 15.788V22.844C84.7338 23.0253 84.6698 23.18 84.5417 23.308C84.4244 23.436 84.2751 23.5 84.0938 23.5C83.9018 23.5 83.7471 23.436 83.6298 23.308C83.5124 23.18 83.4538 23.0253 83.4538 22.844V21.324L83.7578 21.292C83.7578 21.5267 83.6778 21.7827 83.5178 22.06C83.3578 22.3373 83.1391 22.5987 82.8618 22.844C82.5844 23.0787 82.2538 23.276 81.8698 23.436C81.4964 23.5853 81.0911 23.66 80.6538 23.66C79.9284 23.66 79.2778 23.4733 78.7018 23.1C78.1258 22.716 77.6671 22.1987 77.3258 21.548C76.9951 20.8973 76.8298 20.156 76.8298 19.324C76.8298 18.4813 76.9951 17.74 77.3258 17.1C77.6671 16.4493 78.1258 15.9427 78.7018 15.58C79.2778 15.2067 79.9178 15.02 80.6218 15.02C81.0804 15.02 81.5071 15.0947 81.9018 15.244C82.2964 15.3933 82.6378 15.596 82.9258 15.852C83.2244 16.108 83.4538 16.3907 83.6138 16.7C83.7844 17.0093 83.8698 17.3187 83.8698 17.628L83.4538 17.532V15.788C83.4538 15.6067 83.5124 15.4573 83.6298 15.34C83.7471 15.212 83.9018 15.148 84.0938 15.148ZM80.7977 22.476C81.3311 22.476 81.8004 22.3373 82.2058 22.06C82.6218 21.7827 82.9418 21.4093 83.1658 20.94C83.4004 20.46 83.5178 19.9213 83.5178 19.324C83.5178 18.7373 83.4004 18.2093 83.1658 17.74C82.9418 17.26 82.6218 16.8867 82.2058 16.62C81.8004 16.3427 81.3311 16.204 80.7977 16.204C80.2751 16.204 79.8058 16.3373 79.3898 16.604C78.9844 16.8707 78.6644 17.2387 78.4298 17.708C78.1951 18.1773 78.0778 18.716 78.0778 19.324C78.0778 19.9213 78.1898 20.46 78.4138 20.94C78.6484 21.4093 78.9684 21.7827 79.3738 22.06C79.7898 22.3373 80.2644 22.476 80.7977 22.476ZM93.9219 11.66C94.1032 11.66 94.2525 11.724 94.3699 11.852C94.4979 11.9693 94.5619 12.1187 94.5619 12.3V22.844C94.5619 23.0253 94.4979 23.18 94.3699 23.308C94.2525 23.436 94.1032 23.5 93.9219 23.5C93.7299 23.5 93.5752 23.436 93.4579 23.308C93.3405 23.18 93.2819 23.0253 93.2819 22.844V21.324L93.5859 21.212C93.5859 21.468 93.5059 21.74 93.3459 22.028C93.1859 22.3053 92.9672 22.5667 92.6899 22.812C92.4125 23.0573 92.0819 23.26 91.6979 23.42C91.3245 23.58 90.9192 23.66 90.4819 23.66C89.7672 23.66 89.1165 23.4733 88.5299 23.1C87.9539 22.7267 87.4952 22.2147 87.1539 21.564C86.8232 20.9133 86.6579 20.172 86.6579 19.34C86.6579 18.4973 86.8232 17.7507 87.1539 17.1C87.4952 16.4493 87.9539 15.9427 88.5299 15.58C89.1059 15.2067 89.7459 15.02 90.4499 15.02C90.8979 15.02 91.3192 15.0947 91.7139 15.244C92.1085 15.3933 92.4499 15.596 92.7379 15.852C93.0365 16.108 93.2712 16.3907 93.4419 16.7C93.6125 17.0093 93.6979 17.3187 93.6979 17.628L93.2819 17.532V12.3C93.2819 12.1187 93.3405 11.9693 93.4579 11.852C93.5752 11.724 93.7299 11.66 93.9219 11.66ZM90.6259 22.476C91.1592 22.476 91.6285 22.3427 92.0339 22.076C92.4499 21.7987 92.7699 21.4253 92.9939 20.956C93.2285 20.476 93.3459 19.9373 93.3459 19.34C93.3459 18.732 93.2285 18.1933 92.9939 17.724C92.7699 17.2547 92.4499 16.8867 92.0339 16.62C91.6285 16.3427 91.1592 16.204 90.6259 16.204C90.1032 16.204 89.6339 16.3427 89.2179 16.62C88.8125 16.8867 88.4925 17.2547 88.2579 17.724C88.0232 18.1933 87.9059 18.732 87.9059 19.34C87.9059 19.9267 88.0232 20.46 88.2579 20.94C88.4925 21.4093 88.8125 21.7827 89.2179 22.06C89.6339 22.3373 90.1032 22.476 90.6259 22.476ZM105.948 12.3C106.535 12.3 107.063 12.444 107.532 12.732C108.002 13.02 108.37 13.4147 108.636 13.916C108.914 14.4173 109.052 14.988 109.052 15.628C109.052 16.2573 108.914 16.828 108.636 17.34C108.37 17.852 108.002 18.2573 107.532 18.556C107.063 18.8547 106.535 19.004 105.948 19.004H102.7L102.812 18.812V22.844C102.812 23.0253 102.754 23.18 102.636 23.308C102.519 23.436 102.37 23.5 102.188 23.5C101.996 23.5 101.842 23.436 101.724 23.308C101.618 23.18 101.564 23.0253 101.564 22.844V12.94C101.564 12.7587 101.623 12.6093 101.74 12.492C101.868 12.364 102.023 12.3 102.204 12.3H105.948ZM105.948 17.772C106.3 17.772 106.61 17.676 106.876 17.484C107.143 17.292 107.356 17.0307 107.516 16.7C107.676 16.3693 107.756 16.012 107.756 15.628C107.756 15.2227 107.676 14.8653 107.516 14.556C107.356 14.2467 107.143 14.0013 106.876 13.82C106.61 13.628 106.3 13.532 105.948 13.532H102.7L102.812 13.356V17.932L102.7 17.772H105.948ZM115.782 12.3C116.561 12.3 117.244 12.4493 117.83 12.748C118.428 13.036 118.924 13.4413 119.318 13.964C119.713 14.4867 120.006 15.0893 120.198 15.772C120.401 16.444 120.502 17.1533 120.502 17.9C120.502 18.924 120.326 19.8627 119.974 20.716C119.622 21.5587 119.1 22.236 118.406 22.748C117.713 23.2493 116.838 23.5 115.782 23.5H111.782C111.601 23.5 111.446 23.436 111.318 23.308C111.201 23.18 111.142 23.0253 111.142 22.844V12.94C111.142 12.7587 111.201 12.6093 111.318 12.492C111.446 12.364 111.601 12.3 111.782 12.3H115.782ZM115.622 22.252C116.444 22.252 117.11 22.0547 117.622 21.66C118.145 21.2653 118.524 20.7373 118.758 20.076C119.004 19.4147 119.126 18.6893 119.126 17.9C119.126 17.324 119.057 16.7747 118.918 16.252C118.79 15.7187 118.582 15.2493 118.294 14.844C118.017 14.4387 117.654 14.1187 117.206 13.884C116.769 13.6493 116.241 13.532 115.622 13.532H112.342L112.47 13.404V22.412L112.374 22.252H115.622ZM123.283 23.5C123.091 23.5 122.931 23.436 122.803 23.308C122.685 23.18 122.627 23.0253 122.627 22.844V12.94C122.627 12.7587 122.685 12.6093 122.803 12.492C122.931 12.364 123.085 12.3 123.267 12.3H128.883C129.064 12.3 129.219 12.3587 129.347 12.476C129.475 12.5933 129.539 12.7427 129.539 12.924C129.539 13.0947 129.475 13.2387 129.347 13.356C129.219 13.4733 129.064 13.532 128.883 13.532H123.843L123.939 13.404V17.324L123.859 17.148H128.163C128.344 17.148 128.499 17.212 128.627 17.34C128.755 17.4573 128.819 17.6067 128.819 17.788C128.819 17.948 128.755 18.092 128.627 18.22C128.499 18.3373 128.344 18.396 128.163 18.396H123.827L123.939 18.252V22.844C123.939 23.0253 123.875 23.18 123.747 23.308C123.619 23.436 123.464 23.5 123.283 23.5Z" fill="white"/>
<defs>
<filter id="filter0_i_75_10" x="0" y="0" width="150" height="37.5" filterUnits="userSpaceOnUse" color-interpolation-filters="sRGB">
<feFlood flood-opacity="0" result="BackgroundImageFix"/>
<feBlend mode="normal" in="SourceGraphic" in2="BackgroundImageFix" result="shape"/>
<feColorMatrix in="SourceAlpha" type="matrix" values="0 0 0 0 0 0 0 0 0 0 0 0 0 0 0 0 0 0 127 0" result="hardAlpha"/>
<feOffset/>
<feGaussianBlur stdDeviation="2"/>
<feComposite in2="hardAlpha" operator="arithmetic" k2="-1" k3="1"/>
<feColorMatrix type="matrix" values="0 0 0 0 0 0 0 0 0 0 0 0 0 0 0 0 0 0 0.4 0"/>
<feBlend mode="normal" in2="shape" result="effect1_innerShadow_75_10"/>
</filter>
</defs>
</svg>
