<svg width="200" height="50" viewBox="0 0 200 50" fill="none" xmlns="http://www.w3.org/2000/svg">
<g filter="url(#filter0_i_27_453)">
<rect width="200" height="50" rx="25" fill="#56C596"/>
</g>
<path d="M32.3258 16.6C33.3964 16.6 34.3351 16.8053 35.1418 17.216C35.9631 17.612 36.6451 18.1693 37.1878 18.888C37.7304 19.6067 38.1338 20.4353 38.3978 21.374C38.6764 22.298 38.8158 23.2733 38.8158 24.3C38.8158 25.708 38.5738 26.9987 38.0898 28.172C37.6058 29.3307 36.8871 30.262 35.9338 30.966C34.9804 31.6553 33.7778 32 32.3258 32H26.8258C26.5764 32 26.3638 31.912 26.1878 31.736C26.0264 31.56 25.9458 31.3473 25.9458 31.098V17.48C25.9458 17.2307 26.0264 17.0253 26.1878 16.864C26.3638 16.688 26.5764 16.6 26.8258 16.6H32.3258ZM32.1058 30.284C33.2351 30.284 34.1518 30.0127 34.8558 29.47C35.5744 28.9273 36.0951 28.2013 36.4178 27.292C36.7551 26.3827 36.9238 25.3853 36.9238 24.3C36.9238 23.508 36.8284 22.7527 36.6378 22.034C36.4618 21.3007 36.1758 20.6553 35.7798 20.098C35.3984 19.5407 34.8998 19.1007 34.2838 18.778C33.6824 18.4553 32.9564 18.294 32.1058 18.294H27.5958L27.7718 18.118V30.504L27.6398 30.284H32.1058ZM52.4027 26.28C52.4027 27.424 52.146 28.4433 51.6327 29.338C51.134 30.2327 50.452 30.9367 49.5867 31.45C48.736 31.9633 47.7753 32.22 46.7047 32.22C45.634 32.22 44.666 31.9633 43.8007 31.45C42.9353 30.9367 42.246 30.2327 41.7327 29.338C41.234 28.4433 40.9847 27.424 40.9847 26.28C40.9847 25.136 41.234 24.1167 41.7327 23.222C42.246 22.3273 42.9353 21.6233 43.8007 21.11C44.666 20.5967 45.634 20.34 46.7047 20.34C47.7753 20.34 48.736 20.5967 49.5867 21.11C50.452 21.6233 51.134 22.3273 51.6327 23.222C52.146 24.1167 52.4027 25.136 52.4027 26.28ZM50.6427 26.28C50.6427 25.4293 50.4667 24.6813 50.1147 24.036C49.7773 23.3907 49.308 22.8847 48.7067 22.518C48.12 22.1513 47.4527 21.968 46.7047 21.968C45.9567 21.968 45.282 22.1513 44.6807 22.518C44.094 22.8847 43.6247 23.3907 43.2727 24.036C42.9207 24.6813 42.7447 25.4293 42.7447 26.28C42.7447 27.116 42.9207 27.8567 43.2727 28.502C43.6247 29.1473 44.094 29.6607 44.6807 30.042C45.282 30.4087 45.9567 30.592 46.7047 30.592C47.4527 30.592 48.12 30.4087 48.7067 30.042C49.308 29.6607 49.7773 29.1473 50.1147 28.502C50.4667 27.8567 50.6427 27.116 50.6427 26.28ZM68.4699 20.428C68.7045 20.428 68.9025 20.5087 69.0639 20.67C69.2399 20.8313 69.3279 21.044 69.3279 21.308C69.3279 21.3667 69.3205 21.4327 69.3059 21.506C69.3059 21.5647 69.2912 21.6233 69.2619 21.682L65.8739 31.428C65.8005 31.6187 65.6759 31.7653 65.4999 31.868C65.3385 31.9707 65.1625 32.0147 64.9719 32C64.6345 31.9853 64.3779 31.7947 64.2019 31.428L61.4299 24.476L61.8699 24.542L59.3619 31.428C59.2005 31.7947 58.9439 31.9853 58.5919 32C58.4012 32.0147 58.2179 31.9707 58.0419 31.868C57.8659 31.7653 57.7485 31.6187 57.6899 31.428L54.2359 21.682C54.1919 21.55 54.1699 21.4253 54.1699 21.308C54.1699 21.0733 54.2505 20.868 54.4119 20.692C54.5732 20.516 54.7932 20.428 55.0719 20.428C55.2479 20.428 55.4092 20.472 55.5559 20.56C55.7025 20.648 55.8052 20.7873 55.8639 20.978L58.8339 29.646L58.3719 29.624L60.9459 23.024C61.0925 22.6573 61.3639 22.474 61.7599 22.474C61.9652 22.474 62.1265 22.5253 62.2439 22.628C62.3759 22.716 62.4712 22.848 62.5299 23.024L65.2139 29.624L64.6639 29.668L67.6339 20.978C67.7659 20.6113 68.0445 20.428 68.4699 20.428ZM77.3543 20.34C78.3516 20.34 79.1363 20.5453 79.7083 20.956C80.2803 21.3667 80.6836 21.9167 80.9183 22.606C81.1676 23.2953 81.2923 24.0653 81.2923 24.916V31.098C81.2923 31.3473 81.2043 31.56 81.0283 31.736C80.8669 31.912 80.6616 32 80.4123 32C80.1629 32 79.9503 31.912 79.7743 31.736C79.6129 31.56 79.5323 31.3473 79.5323 31.098V24.96C79.5323 24.4027 79.4443 23.904 79.2683 23.464C79.1069 23.0093 78.8283 22.65 78.4323 22.386C78.0509 22.1073 77.5229 21.968 76.8483 21.968C76.2323 21.968 75.6676 22.1073 75.1543 22.386C74.6409 22.65 74.2303 23.0093 73.9223 23.464C73.6143 23.904 73.4603 24.4027 73.4603 24.96V31.098C73.4603 31.3473 73.3723 31.56 73.1963 31.736C73.0349 31.912 72.8296 32 72.5803 32C72.3309 32 72.1183 31.912 71.9423 31.736C71.7809 31.56 71.7003 31.3473 71.7003 31.098V21.506C71.7003 21.2567 71.7809 21.0513 71.9423 20.89C72.1183 20.714 72.3309 20.626 72.5803 20.626C72.8443 20.626 73.0569 20.714 73.2183 20.89C73.3796 21.0513 73.4603 21.2567 73.4603 21.506V23.068L73.0203 23.552C73.0936 23.1707 73.2623 22.7893 73.5263 22.408C73.7903 22.012 74.1203 21.66 74.5163 21.352C74.9123 21.044 75.3523 20.802 75.8363 20.626C76.3203 20.4353 76.8263 20.34 77.3543 20.34ZM86.4839 31.098C86.4839 31.3473 86.3959 31.56 86.2199 31.736C86.0439 31.912 85.8313 32 85.5819 32C85.3326 32 85.1273 31.912 84.9659 31.736C84.8046 31.56 84.7239 31.3473 84.7239 31.098V16.6C84.7239 16.3507 84.8046 16.1453 84.9659 15.984C85.1419 15.808 85.3546 15.72 85.6039 15.72C85.8679 15.72 86.0806 15.808 86.2419 15.984C86.4033 16.1453 86.4839 16.3507 86.4839 16.6V31.098ZM100.485 26.28C100.485 27.424 100.228 28.4433 99.7147 29.338C99.216 30.2327 98.534 30.9367 97.6687 31.45C96.818 31.9633 95.8574 32.22 94.7867 32.22C93.716 32.22 92.748 31.9633 91.8827 31.45C91.0174 30.9367 90.328 30.2327 89.8147 29.338C89.316 28.4433 89.0667 27.424 89.0667 26.28C89.0667 25.136 89.316 24.1167 89.8147 23.222C90.328 22.3273 91.0174 21.6233 91.8827 21.11C92.748 20.5967 93.716 20.34 94.7867 20.34C95.8574 20.34 96.818 20.5967 97.6687 21.11C98.534 21.6233 99.216 22.3273 99.7147 23.222C100.228 24.1167 100.485 25.136 100.485 26.28ZM98.7247 26.28C98.7247 25.4293 98.5487 24.6813 98.1967 24.036C97.8594 23.3907 97.39 22.8847 96.7887 22.518C96.202 22.1513 95.5347 21.968 94.7867 21.968C94.0387 21.968 93.364 22.1513 92.7627 22.518C92.176 22.8847 91.7067 23.3907 91.3547 24.036C91.0027 24.6813 90.8267 25.4293 90.8267 26.28C90.8267 27.116 91.0027 27.8567 91.3547 28.502C91.7067 29.1473 92.176 29.6607 92.7627 30.042C93.364 30.4087 94.0387 30.592 94.7867 30.592C95.5347 30.592 96.202 30.4087 96.7887 30.042C97.39 29.6607 97.8594 29.1473 98.1967 28.502C98.5487 27.8567 98.7247 27.116 98.7247 26.28ZM112.504 20.516C112.753 20.516 112.959 20.604 113.12 20.78C113.296 20.9413 113.384 21.1467 113.384 21.396V31.098C113.384 31.3473 113.296 31.56 113.12 31.736C112.959 31.912 112.753 32 112.504 32C112.24 32 112.027 31.912 111.866 31.736C111.705 31.56 111.624 31.3473 111.624 31.098V29.008L112.042 28.964C112.042 29.2867 111.932 29.6387 111.712 30.02C111.492 30.4013 111.191 30.7607 110.81 31.098C110.429 31.4207 109.974 31.692 109.446 31.912C108.933 32.1173 108.375 32.22 107.774 32.22C106.777 32.22 105.882 31.9633 105.09 31.45C104.298 30.922 103.667 30.2107 103.198 29.316C102.743 28.4213 102.516 27.402 102.516 26.258C102.516 25.0993 102.743 24.08 103.198 23.2C103.667 22.3053 104.298 21.6087 105.09 21.11C105.882 20.5967 106.762 20.34 107.73 20.34C108.361 20.34 108.947 20.4427 109.49 20.648C110.033 20.8533 110.502 21.132 110.898 21.484C111.309 21.836 111.624 22.2247 111.844 22.65C112.079 23.0753 112.196 23.5007 112.196 23.926L111.624 23.794V21.396C111.624 21.1467 111.705 20.9413 111.866 20.78C112.027 20.604 112.24 20.516 112.504 20.516ZM107.972 30.592C108.705 30.592 109.351 30.4013 109.908 30.02C110.48 29.6387 110.92 29.1253 111.228 28.48C111.551 27.82 111.712 27.0793 111.712 26.258C111.712 25.4513 111.551 24.7253 111.228 24.08C110.92 23.42 110.48 22.9067 109.908 22.54C109.351 22.1587 108.705 21.968 107.972 21.968C107.253 21.968 106.608 22.1513 106.036 22.518C105.479 22.8847 105.039 23.3907 104.716 24.036C104.393 24.6813 104.232 25.422 104.232 26.258C104.232 27.0793 104.386 27.82 104.694 28.48C105.017 29.1253 105.457 29.6387 106.014 30.02C106.586 30.4013 107.239 30.592 107.972 30.592ZM126.018 15.72C126.267 15.72 126.472 15.808 126.634 15.984C126.81 16.1453 126.898 16.3507 126.898 16.6V31.098C126.898 31.3473 126.81 31.56 126.634 31.736C126.472 31.912 126.267 32 126.018 32C125.754 32 125.541 31.912 125.38 31.736C125.218 31.56 125.138 31.3473 125.138 31.098V29.008L125.556 28.854C125.556 29.206 125.446 29.58 125.226 29.976C125.006 30.3573 124.705 30.7167 124.324 31.054C123.942 31.3913 123.488 31.67 122.96 31.89C122.446 32.11 121.889 32.22 121.288 32.22C120.305 32.22 119.41 31.9633 118.604 31.45C117.812 30.9367 117.181 30.2327 116.712 29.338C116.257 28.4433 116.03 27.424 116.03 26.28C116.03 25.1213 116.257 24.0947 116.712 23.2C117.181 22.3053 117.812 21.6087 118.604 21.11C119.396 20.5967 120.276 20.34 121.244 20.34C121.86 20.34 122.439 20.4427 122.982 20.648C123.524 20.8533 123.994 21.132 124.39 21.484C124.8 21.836 125.123 22.2247 125.358 22.65C125.592 23.0753 125.71 23.5007 125.71 23.926L125.138 23.794V16.6C125.138 16.3507 125.218 16.1453 125.38 15.984C125.541 15.808 125.754 15.72 126.018 15.72ZM121.486 30.592C122.219 30.592 122.864 30.4087 123.422 30.042C123.994 29.6607 124.434 29.1473 124.742 28.502C125.064 27.842 125.226 27.1013 125.226 26.28C125.226 25.444 125.064 24.7033 124.742 24.058C124.434 23.4127 123.994 22.9067 123.422 22.54C122.864 22.1587 122.219 21.968 121.486 21.968C120.767 21.968 120.122 22.1587 119.55 22.54C118.992 22.9067 118.552 23.4127 118.23 24.058C117.907 24.7033 117.746 25.444 117.746 26.28C117.746 27.0867 117.907 27.82 118.23 28.48C118.552 29.1253 118.992 29.6387 119.55 30.02C120.122 30.4013 120.767 30.592 121.486 30.592ZM142.554 16.6C143.361 16.6 144.087 16.798 144.732 17.194C145.377 17.59 145.883 18.1327 146.25 18.822C146.631 19.5113 146.822 20.296 146.822 21.176C146.822 22.0413 146.631 22.826 146.25 23.53C145.883 24.234 145.377 24.7913 144.732 25.202C144.087 25.6127 143.361 25.818 142.554 25.818H138.088L138.242 25.554V31.098C138.242 31.3473 138.161 31.56 138 31.736C137.839 31.912 137.633 32 137.384 32C137.12 32 136.907 31.912 136.746 31.736C136.599 31.56 136.526 31.3473 136.526 31.098V17.48C136.526 17.2307 136.607 17.0253 136.768 16.864C136.944 16.688 137.157 16.6 137.406 16.6H142.554ZM142.554 24.124C143.038 24.124 143.463 23.992 143.83 23.728C144.197 23.464 144.49 23.1047 144.71 22.65C144.93 22.1953 145.04 21.704 145.04 21.176C145.04 20.6187 144.93 20.1273 144.71 19.702C144.49 19.2767 144.197 18.9393 143.83 18.69C143.463 18.426 143.038 18.294 142.554 18.294H138.088L138.242 18.052V24.344L138.088 24.124H142.554ZM156.076 16.6C157.146 16.6 158.085 16.8053 158.892 17.216C159.713 17.612 160.395 18.1693 160.938 18.888C161.48 19.6067 161.884 20.4353 162.148 21.374C162.426 22.298 162.566 23.2733 162.566 24.3C162.566 25.708 162.324 26.9987 161.84 28.172C161.356 29.3307 160.637 30.262 159.684 30.966C158.73 31.6553 157.528 32 156.076 32H150.576C150.326 32 150.114 31.912 149.938 31.736C149.776 31.56 149.696 31.3473 149.696 31.098V17.48C149.696 17.2307 149.776 17.0253 149.938 16.864C150.114 16.688 150.326 16.6 150.576 16.6H156.076ZM155.856 30.284C156.985 30.284 157.902 30.0127 158.606 29.47C159.324 28.9273 159.845 28.2013 160.168 27.292C160.505 26.3827 160.674 25.3853 160.674 24.3C160.674 23.508 160.578 22.7527 160.388 22.034C160.212 21.3007 159.926 20.6553 159.53 20.098C159.148 19.5407 158.65 19.1007 158.034 18.778C157.432 18.4553 156.706 18.294 155.856 18.294H151.346L151.522 18.118V30.504L151.39 30.284H155.856ZM166.389 32C166.125 32 165.905 31.912 165.729 31.736C165.567 31.56 165.487 31.3473 165.487 31.098V17.48C165.487 17.2307 165.567 17.0253 165.729 16.864C165.905 16.688 166.117 16.6 166.367 16.6H174.089C174.338 16.6 174.551 16.6807 174.727 16.842C174.903 17.0033 174.991 17.2087 174.991 17.458C174.991 17.6927 174.903 17.8907 174.727 18.052C174.551 18.2133 174.338 18.294 174.089 18.294H167.159L167.291 18.118V23.508L167.181 23.266H173.099C173.348 23.266 173.561 23.354 173.737 23.53C173.913 23.6913 174.001 23.8967 174.001 24.146C174.001 24.366 173.913 24.564 173.737 24.74C173.561 24.9013 173.348 24.982 173.099 24.982H167.137L167.291 24.784V31.098C167.291 31.3473 167.203 31.56 167.027 31.736C166.851 31.912 166.638 32 166.389 32Z" fill="white"/>
<defs>
<filter id="filter0_i_27_453" x="0" y="0" width="200" height="50" filterUnits="userSpaceOnUse" color-interpolation-filters="sRGB">
<feFlood flood-opacity="0" result="BackgroundImageFix"/>
<feBlend mode="normal" in="SourceGraphic" in2="BackgroundImageFix" result="shape"/>
<feColorMatrix in="SourceAlpha" type="matrix" values="0 0 0 0 0 0 0 0 0 0 0 0 0 0 0 0 0 0 127 0" result="hardAlpha"/>
<feOffset/>
<feGaussianBlur stdDeviation="2"/>
<feComposite in2="hardAlpha" operator="arithmetic" k2="-1" k3="1"/>
<feColorMatrix type="matrix" values="0 0 0 0 0 0 0 0 0 0 0 0 0 0 0 0 0 0 0.4 0"/>
<feBlend mode="normal" in2="shape" result="effect1_innerShadow_27_453"/>
</filter>
</defs>
</svg>
