<svg width="150" height="38" viewBox="0 0 150 38" fill="none" xmlns="http://www.w3.org/2000/svg">
<g filter="url(#filter0_i_75_9)">
<rect width="150" height="37.5" rx="18.75" fill="#56C596"/>
</g>
<path d="M34.5944 10.8C34.7758 10.8 34.9198 10.8587 35.0264 10.976C35.1331 11.0827 35.1864 11.2213 35.1864 11.392V21.328C35.1864 21.5307 35.1224 21.696 34.9944 21.824C34.8664 21.9413 34.7118 22 34.5304 22C34.4344 22 34.3384 21.984 34.2424 21.952C34.1464 21.9093 34.0718 21.856 34.0184 21.792L27.1704 12.736L27.4904 12.544V21.408C27.4904 21.5787 27.4318 21.7227 27.3144 21.84C27.2078 21.9467 27.0638 22 26.8824 22C26.7118 22 26.5731 21.9467 26.4664 21.84C26.3598 21.7227 26.3064 21.5787 26.3064 21.408V11.44C26.3064 11.248 26.3651 11.0933 26.4824 10.976C26.6104 10.8587 26.7598 10.8 26.9304 10.8C27.0264 10.8 27.1224 10.8213 27.2184 10.864C27.3251 10.896 27.4051 10.9493 27.4584 11.024L34.2104 19.952L34.0024 20.208V11.392C34.0024 11.2213 34.0558 11.0827 34.1624 10.976C34.2798 10.8587 34.4238 10.8 34.5944 10.8ZM44.5859 13.648C44.7673 13.648 44.9166 13.712 45.0339 13.84C45.1619 13.9573 45.2259 14.1067 45.2259 14.288V21.344C45.2259 21.5253 45.1619 21.68 45.0339 21.808C44.9166 21.936 44.7673 22 44.5859 22C44.3939 22 44.2393 21.936 44.1219 21.808C44.0046 21.68 43.9459 21.5253 43.9459 21.344V19.824L44.2499 19.792C44.2499 20.0267 44.1699 20.2827 44.0099 20.56C43.8499 20.8373 43.6313 21.0987 43.3539 21.344C43.0766 21.5787 42.7459 21.776 42.3619 21.936C41.9886 22.0853 41.5833 22.16 41.1459 22.16C40.4206 22.16 39.7699 21.9733 39.1939 21.6C38.6179 21.216 38.1593 20.6987 37.8179 20.048C37.4873 19.3973 37.3219 18.656 37.3219 17.824C37.3219 16.9813 37.4873 16.24 37.8179 15.6C38.1593 14.9493 38.6179 14.4427 39.1939 14.08C39.7699 13.7067 40.4099 13.52 41.1139 13.52C41.5726 13.52 41.9993 13.5947 42.3939 13.744C42.7886 13.8933 43.1299 14.096 43.4179 14.352C43.7166 14.608 43.9459 14.8907 44.1059 15.2C44.2766 15.5093 44.3619 15.8187 44.3619 16.128L43.9459 16.032V14.288C43.9459 14.1067 44.0046 13.9573 44.1219 13.84C44.2393 13.712 44.3939 13.648 44.5859 13.648ZM41.2899 20.976C41.8233 20.976 42.2926 20.8373 42.6979 20.56C43.1139 20.2827 43.4339 19.9093 43.6579 19.44C43.8926 18.96 44.0099 18.4213 44.0099 17.824C44.0099 17.2373 43.8926 16.7093 43.6579 16.24C43.4339 15.76 43.1139 15.3867 42.6979 15.12C42.2926 14.8427 41.8233 14.704 41.2899 14.704C40.7673 14.704 40.2979 14.8373 39.8819 15.104C39.4766 15.3707 39.1566 15.7387 38.9219 16.208C38.6873 16.6773 38.5699 17.216 38.5699 17.824C38.5699 18.4213 38.6819 18.96 38.9059 19.44C39.1406 19.9093 39.4606 20.2827 39.8659 20.56C40.2819 20.8373 40.7566 20.976 41.2899 20.976ZM54.5703 13.648C54.7516 13.648 54.901 13.712 55.0183 13.84C55.1463 13.9573 55.2103 14.1067 55.2103 14.288V21.344C55.2103 21.5253 55.1463 21.68 55.0183 21.808C54.901 21.936 54.7516 22 54.5703 22C54.3783 22 54.2236 21.936 54.1063 21.808C53.989 21.68 53.9303 21.5253 53.9303 21.344V19.824L54.2343 19.792C54.2343 20.0267 54.1543 20.2827 53.9943 20.56C53.8343 20.8373 53.6156 21.0987 53.3383 21.344C53.061 21.5787 52.7303 21.776 52.3463 21.936C51.973 22.0853 51.5676 22.16 51.1303 22.16C50.405 22.16 49.7543 21.9733 49.1783 21.6C48.6023 21.216 48.1436 20.6987 47.8023 20.048C47.4716 19.3973 47.3063 18.656 47.3063 17.824C47.3063 16.9813 47.4716 16.24 47.8023 15.6C48.1436 14.9493 48.6023 14.4427 49.1783 14.08C49.7543 13.7067 50.3943 13.52 51.0983 13.52C51.557 13.52 51.9836 13.5947 52.3783 13.744C52.773 13.8933 53.1143 14.096 53.4023 14.352C53.701 14.608 53.9303 14.8907 54.0903 15.2C54.261 15.5093 54.3463 15.8187 54.3463 16.128L53.9303 16.032V14.288C53.9303 14.1067 53.989 13.9573 54.1063 13.84C54.2236 13.712 54.3783 13.648 54.5703 13.648ZM51.2743 20.976C51.8076 20.976 52.277 20.8373 52.6823 20.56C53.0983 20.2827 53.4183 19.9093 53.6423 19.44C53.877 18.96 53.9943 18.4213 53.9943 17.824C53.9943 17.2373 53.877 16.7093 53.6423 16.24C53.4183 15.76 53.0983 15.3867 52.6823 15.12C52.277 14.8427 51.8076 14.704 51.2743 14.704C50.7516 14.704 50.2823 14.8373 49.8663 15.104C49.461 15.3707 49.141 15.7387 48.9063 16.208C48.6716 16.6773 48.5543 17.216 48.5543 17.824C48.5543 18.4213 48.6663 18.96 48.8903 19.44C49.125 19.9093 49.445 20.2827 49.8503 20.56C50.2663 20.8373 50.741 20.976 51.2743 20.976ZM58.2224 22C58.0411 22 57.8864 21.936 57.7584 21.808C57.6411 21.68 57.5824 21.5253 57.5824 21.344V14.368C57.5824 14.1867 57.6411 14.0373 57.7584 13.92C57.8864 13.792 58.0411 13.728 58.2224 13.728C58.4144 13.728 58.5691 13.792 58.6864 13.92C58.8038 14.0373 58.8624 14.1867 58.8624 14.368V16.48L58.6704 16.144C58.7344 15.8133 58.8464 15.4933 59.0064 15.184C59.1771 14.864 59.3904 14.5813 59.6464 14.336C59.9024 14.08 60.1958 13.8827 60.5264 13.744C60.8571 13.5947 61.2198 13.52 61.6144 13.52C61.8491 13.52 62.0624 13.5787 62.2544 13.696C62.4571 13.8027 62.5584 13.9573 62.5584 14.16C62.5584 14.384 62.4998 14.5493 62.3824 14.656C62.2651 14.7627 62.1318 14.816 61.9824 14.816C61.8438 14.816 61.7104 14.7893 61.5824 14.736C61.4544 14.672 61.2944 14.64 61.1024 14.64C60.8358 14.64 60.5691 14.7147 60.3024 14.864C60.0464 15.0027 59.8064 15.2053 59.5824 15.472C59.3691 15.7387 59.1931 16.0427 59.0544 16.384C58.9264 16.7147 58.8624 17.072 58.8624 17.456V21.344C58.8624 21.5253 58.7984 21.68 58.6704 21.808C58.5531 21.936 58.4038 22 58.2224 22ZM78.1706 13.584C78.3412 13.584 78.4852 13.6427 78.6026 13.76C78.7306 13.8773 78.7946 14.032 78.7946 14.224C78.7946 14.2667 78.7892 14.3147 78.7786 14.368C78.7786 14.4107 78.7679 14.4533 78.7466 14.496L76.2826 21.584C76.2292 21.7227 76.1386 21.8293 76.0106 21.904C75.8932 21.9787 75.7652 22.0107 75.6266 22C75.3812 21.9893 75.1946 21.8507 75.0666 21.584L73.0506 16.528L73.3706 16.576L71.5466 21.584C71.4292 21.8507 71.2426 21.9893 70.9866 22C70.8479 22.0107 70.7146 21.9787 70.5866 21.904C70.4586 21.8293 70.3732 21.7227 70.3306 21.584L67.8186 14.496C67.7866 14.4 67.7706 14.3093 67.7706 14.224C67.7706 14.0533 67.8292 13.904 67.9466 13.776C68.0639 13.648 68.2239 13.584 68.4266 13.584C68.5546 13.584 68.6719 13.616 68.7786 13.68C68.8852 13.744 68.9599 13.8453 69.0026 13.984L71.1626 20.288L70.8266 20.272L72.6986 15.472C72.8052 15.2053 73.0026 15.072 73.2906 15.072C73.4399 15.072 73.5572 15.1093 73.6426 15.184C73.7386 15.248 73.8079 15.344 73.8506 15.472L75.8026 20.272L75.4026 20.304L77.5626 13.984C77.6586 13.7173 77.8612 13.584 78.1706 13.584ZM84.3439 22.16C83.4906 22.16 82.7439 21.9787 82.1039 21.616C81.4639 21.2533 80.9626 20.7573 80.5999 20.128C80.2479 19.488 80.0719 18.752 80.0719 17.92C80.0719 16.992 80.2533 16.2027 80.6159 15.552C80.9893 14.8907 81.4693 14.3893 82.0559 14.048C82.6533 13.696 83.2826 13.52 83.9439 13.52C84.4346 13.52 84.9093 13.6107 85.3679 13.792C85.8266 13.9733 86.2319 14.24 86.5839 14.592C86.9359 14.9333 87.2186 15.3493 87.4319 15.84C87.6453 16.32 87.7573 16.8587 87.7679 17.456C87.7679 17.6267 87.7039 17.7707 87.5759 17.888C87.4479 18.0053 87.2986 18.064 87.1279 18.064H80.8079L80.5199 16.96H86.6799L86.4239 17.184V16.832C86.3813 16.3947 86.2319 16.0213 85.9759 15.712C85.7306 15.392 85.4266 15.1467 85.0639 14.976C84.7119 14.8053 84.3386 14.72 83.9439 14.72C83.6239 14.72 83.3039 14.7787 82.9839 14.896C82.6746 15.0027 82.3919 15.184 82.1359 15.44C81.8906 15.6853 81.6879 16.0053 81.5279 16.4C81.3786 16.7947 81.3039 17.2693 81.3039 17.824C81.3039 18.4427 81.4266 18.9867 81.6719 19.456C81.9279 19.9253 82.2799 20.2987 82.7279 20.576C83.1759 20.8427 83.6986 20.976 84.2959 20.976C84.6693 20.976 84.9946 20.928 85.2719 20.832C85.5493 20.736 85.7893 20.6187 85.9919 20.48C86.1946 20.3307 86.3653 20.1813 86.5039 20.032C86.6426 19.936 86.7759 19.888 86.9039 19.888C87.0639 19.888 87.1919 19.9413 87.2879 20.048C87.3946 20.1547 87.4479 20.2827 87.4479 20.432C87.4479 20.6133 87.3626 20.7733 87.1919 20.912C86.8933 21.2427 86.4879 21.536 85.9759 21.792C85.4639 22.0373 84.9199 22.16 84.3439 22.16ZM93.7718 13.52C94.4971 13.52 95.1478 13.7067 95.7238 14.08C96.2998 14.4427 96.7531 14.944 97.0838 15.584C97.4251 16.224 97.5958 16.9653 97.5958 17.808C97.5958 18.6507 97.4251 19.3973 97.0838 20.048C96.7531 20.6987 96.2998 21.216 95.7238 21.6C95.1585 21.9733 94.5185 22.16 93.8038 22.16C93.4091 22.16 93.0358 22.1013 92.6838 21.984C92.3425 21.856 92.0278 21.6907 91.7398 21.488C91.4625 21.2747 91.2278 21.0453 91.0358 20.8C90.8438 20.544 90.7051 20.2933 90.6198 20.048L90.9718 19.824V21.424C90.9718 21.6053 90.9131 21.76 90.7958 21.888C90.6785 22.016 90.5238 22.08 90.3318 22.08C90.1505 22.08 89.9958 22.0213 89.8678 21.904C89.7505 21.776 89.6918 21.616 89.6918 21.424V10.816C89.6918 10.6347 89.7505 10.48 89.8678 10.352C89.9958 10.224 90.1505 10.16 90.3318 10.16C90.5238 10.16 90.6785 10.224 90.7958 10.352C90.9131 10.48 90.9718 10.6347 90.9718 10.816V15.744L90.7318 15.616C90.8065 15.3493 90.9345 15.0933 91.1158 14.848C91.3078 14.592 91.5371 14.368 91.8038 14.176C92.0811 13.9733 92.3851 13.8133 92.7158 13.696C93.0571 13.5787 93.4091 13.52 93.7718 13.52ZM93.6278 14.704C93.0945 14.704 92.6198 14.8373 92.2038 15.104C91.7985 15.3707 91.4785 15.7387 91.2438 16.208C91.0198 16.6773 90.9078 17.2107 90.9078 17.808C90.9078 18.4053 91.0198 18.944 91.2438 19.424C91.4785 19.904 91.7985 20.2827 92.2038 20.56C92.6198 20.8373 93.0945 20.976 93.6278 20.976C94.1611 20.976 94.6305 20.8373 95.0358 20.56C95.4411 20.2827 95.7611 19.904 95.9958 19.424C96.2305 18.944 96.3478 18.4053 96.3478 17.808C96.3478 17.2107 96.2305 16.6773 95.9958 16.208C95.7611 15.7387 95.4411 15.3707 95.0358 15.104C94.6305 14.8373 94.1611 14.704 93.6278 14.704ZM99.0559 20.688C98.9599 20.5493 98.9173 20.4053 98.9279 20.256C98.9386 20.096 99.0293 19.9573 99.1999 19.84C99.3066 19.7653 99.4293 19.7333 99.5679 19.744C99.7173 19.7547 99.8506 19.824 99.9679 19.952C100.267 20.304 100.608 20.5867 100.992 20.8C101.376 21.0027 101.845 21.104 102.4 21.104C102.656 21.0933 102.912 21.0507 103.168 20.976C103.424 20.9013 103.637 20.7733 103.808 20.592C103.989 20.4 104.08 20.1493 104.08 19.84C104.08 19.5413 103.989 19.3067 103.808 19.136C103.627 18.9547 103.392 18.8107 103.104 18.704C102.816 18.5867 102.501 18.4853 102.16 18.4C101.808 18.304 101.461 18.1973 101.12 18.08C100.779 17.952 100.469 17.7973 100.192 17.616C99.9253 17.424 99.7066 17.1893 99.5359 16.912C99.3759 16.624 99.2959 16.2773 99.2959 15.872C99.2959 15.392 99.4239 14.976 99.6799 14.624C99.9466 14.272 100.299 14 100.736 13.808C101.184 13.616 101.669 13.52 102.192 13.52C102.491 13.52 102.8 13.5573 103.12 13.632C103.451 13.696 103.771 13.8133 104.08 13.984C104.389 14.144 104.661 14.368 104.896 14.656C104.992 14.7627 105.045 14.896 105.056 15.056C105.067 15.216 104.997 15.36 104.848 15.488C104.731 15.5733 104.597 15.6107 104.448 15.6C104.309 15.5893 104.192 15.536 104.096 15.44C103.872 15.1733 103.589 14.9707 103.248 14.832C102.917 14.6827 102.549 14.608 102.144 14.608C101.888 14.608 101.637 14.6453 101.392 14.72C101.147 14.7947 100.939 14.9227 100.768 15.104C100.608 15.2747 100.528 15.5147 100.528 15.824C100.539 16.112 100.635 16.3467 100.816 16.528C100.997 16.7093 101.243 16.8587 101.552 16.976C101.861 17.0827 102.203 17.1893 102.576 17.296C102.917 17.3813 103.243 17.4827 103.552 17.6C103.872 17.7067 104.16 17.8507 104.416 18.032C104.672 18.2133 104.875 18.448 105.024 18.736C105.173 19.0133 105.248 19.3653 105.248 19.792C105.248 20.2827 105.109 20.7093 104.832 21.072C104.555 21.424 104.187 21.696 103.728 21.888C103.28 22.0693 102.795 22.16 102.272 22.16C101.685 22.16 101.104 22.048 100.528 21.824C99.9626 21.6 99.4719 21.2213 99.0559 20.688ZM108.33 21.344C108.33 21.5253 108.266 21.68 108.138 21.808C108.021 21.936 107.871 22 107.69 22C107.498 22 107.343 21.936 107.226 21.808C107.109 21.68 107.05 21.5253 107.05 21.344V14.24C107.05 14.0587 107.109 13.9093 107.226 13.792C107.354 13.664 107.509 13.6 107.69 13.6C107.871 13.6 108.021 13.664 108.138 13.792C108.266 13.9093 108.33 14.0587 108.33 14.24V21.344ZM107.69 12.528C107.423 12.528 107.226 12.4747 107.098 12.368C106.97 12.2613 106.906 12.096 106.906 11.872V11.648C106.906 11.424 106.975 11.2587 107.114 11.152C107.253 11.0453 107.45 10.992 107.706 10.992C107.962 10.992 108.154 11.0453 108.282 11.152C108.41 11.2587 108.474 11.424 108.474 11.648V11.872C108.474 12.096 108.405 12.2613 108.266 12.368C108.138 12.4747 107.946 12.528 107.69 12.528ZM110.309 13.776H114.069C114.24 13.776 114.379 13.8347 114.485 13.952C114.603 14.0693 114.661 14.208 114.661 14.368C114.661 14.5387 114.603 14.6827 114.485 14.8C114.379 14.9067 114.24 14.96 114.069 14.96H110.309C110.149 14.96 110.011 14.9013 109.893 14.784C109.776 14.6667 109.717 14.5227 109.717 14.352C109.717 14.192 109.776 14.0587 109.893 13.952C110.011 13.8347 110.149 13.776 110.309 13.776ZM111.989 11.6C112.171 11.6 112.32 11.664 112.437 11.792C112.555 11.9093 112.613 12.0587 112.613 12.24V19.968C112.613 20.224 112.651 20.416 112.725 20.544C112.8 20.672 112.896 20.7627 113.013 20.816C113.141 20.8587 113.264 20.88 113.381 20.88C113.488 20.88 113.579 20.864 113.653 20.832C113.739 20.7893 113.835 20.768 113.941 20.768C114.048 20.768 114.144 20.8213 114.229 20.928C114.325 21.024 114.373 21.152 114.373 21.312C114.373 21.504 114.261 21.6693 114.037 21.808C113.813 21.936 113.563 22 113.285 22C113.136 22 112.949 21.9893 112.725 21.968C112.512 21.9467 112.299 21.8773 112.085 21.76C111.872 21.6427 111.691 21.4507 111.541 21.184C111.403 20.9067 111.333 20.5227 111.333 20.032V12.24C111.333 12.0587 111.397 11.9093 111.525 11.792C111.653 11.664 111.808 11.6 111.989 11.6ZM120.188 22.16C119.334 22.16 118.588 21.9787 117.948 21.616C117.308 21.2533 116.806 20.7573 116.444 20.128C116.092 19.488 115.916 18.752 115.916 17.92C115.916 16.992 116.097 16.2027 116.46 15.552C116.833 14.8907 117.313 14.3893 117.9 14.048C118.497 13.696 119.126 13.52 119.788 13.52C120.278 13.52 120.753 13.6107 121.212 13.792C121.67 13.9733 122.076 14.24 122.428 14.592C122.78 14.9333 123.062 15.3493 123.276 15.84C123.489 16.32 123.601 16.8587 123.612 17.456C123.612 17.6267 123.548 17.7707 123.42 17.888C123.292 18.0053 123.142 18.064 122.972 18.064H116.652L116.364 16.96H122.524L122.268 17.184V16.832C122.225 16.3947 122.076 16.0213 121.82 15.712C121.574 15.392 121.27 15.1467 120.908 14.976C120.556 14.8053 120.182 14.72 119.788 14.72C119.468 14.72 119.148 14.7787 118.828 14.896C118.518 15.0027 118.236 15.184 117.98 15.44C117.734 15.6853 117.532 16.0053 117.372 16.4C117.222 16.7947 117.148 17.2693 117.148 17.824C117.148 18.4427 117.27 18.9867 117.516 19.456C117.772 19.9253 118.124 20.2987 118.572 20.576C119.02 20.8427 119.542 20.976 120.14 20.976C120.513 20.976 120.838 20.928 121.116 20.832C121.393 20.736 121.633 20.6187 121.836 20.48C122.038 20.3307 122.209 20.1813 122.348 20.032C122.486 19.936 122.62 19.888 122.748 19.888C122.908 19.888 123.036 19.9413 123.132 20.048C123.238 20.1547 123.292 20.2827 123.292 20.432C123.292 20.6133 123.206 20.7733 123.036 20.912C122.737 21.2427 122.332 21.536 121.82 21.792C121.308 22.0373 120.764 22.16 120.188 22.16Z" fill="white"/>
<defs>
<filter id="filter0_i_75_9" x="0" y="0" width="150" height="37.5" filterUnits="userSpaceOnUse" color-interpolation-filters="sRGB">
<feFlood flood-opacity="0" result="BackgroundImageFix"/>
<feBlend mode="normal" in="SourceGraphic" in2="BackgroundImageFix" result="shape"/>
<feColorMatrix in="SourceAlpha" type="matrix" values="0 0 0 0 0 0 0 0 0 0 0 0 0 0 0 0 0 0 127 0" result="hardAlpha"/>
<feOffset/>
<feGaussianBlur stdDeviation="2"/>
<feComposite in2="hardAlpha" operator="arithmetic" k2="-1" k3="1"/>
<feColorMatrix type="matrix" values="0 0 0 0 0 0 0 0 0 0 0 0 0 0 0 0 0 0 0.4 0"/>
<feBlend mode="normal" in2="shape" result="effect1_innerShadow_75_9"/>
</filter>
</defs>
</svg>
