<svg width="150" height="38" viewBox="0 0 150 38" fill="none" xmlns="http://www.w3.org/2000/svg">
<g filter="url(#filter0_i_75_11)">
<rect width="150" height="37.5" rx="18.75" fill="#56C596"/>
</g>
<path d="M42.1265 12.284C42.2225 12.284 42.3238 12.3107 42.4305 12.364C42.5478 12.4173 42.6385 12.4867 42.7025 12.572L46.9425 18.988L46.3825 18.972L50.6705 12.572C50.8092 12.3693 50.9905 12.2733 51.2145 12.284C51.3852 12.2947 51.5345 12.3587 51.6625 12.476C51.7905 12.5933 51.8545 12.748 51.8545 12.94V22.844C51.8545 23.0253 51.7905 23.18 51.6625 23.308C51.5345 23.436 51.3745 23.5 51.1825 23.5C50.9905 23.5 50.8305 23.436 50.7025 23.308C50.5745 23.18 50.5105 23.0253 50.5105 22.844V14.156L50.9105 14.236L47.1345 19.98C47.0705 20.0547 46.9905 20.1187 46.8945 20.172C46.8092 20.2253 46.7185 20.252 46.6225 20.252C46.5265 20.252 46.4305 20.2253 46.3345 20.172C46.2385 20.1187 46.1585 20.0547 46.0945 19.98L42.3665 14.236L42.7025 13.82V22.844C42.7025 23.0253 42.6438 23.18 42.5265 23.308C42.4092 23.436 42.2598 23.5 42.0785 23.5C41.8972 23.5 41.7478 23.436 41.6305 23.308C41.5238 23.18 41.4705 23.0253 41.4705 22.844V12.94C41.4705 12.7693 41.5292 12.62 41.6465 12.492C41.7745 12.3533 41.9345 12.284 42.1265 12.284ZM58.258 23.66C57.4047 23.66 56.658 23.4787 56.018 23.116C55.378 22.7533 54.8767 22.2573 54.514 21.628C54.162 20.988 53.986 20.252 53.986 19.42C53.986 18.492 54.1673 17.7027 54.53 17.052C54.9033 16.3907 55.3833 15.8893 55.97 15.548C56.5673 15.196 57.1967 15.02 57.858 15.02C58.3487 15.02 58.8233 15.1107 59.282 15.292C59.7407 15.4733 60.146 15.74 60.498 16.092C60.85 16.4333 61.1327 16.8493 61.346 17.34C61.5593 17.82 61.6713 18.3587 61.682 18.956C61.682 19.1267 61.618 19.2707 61.49 19.388C61.362 19.5053 61.2127 19.564 61.042 19.564H54.722L54.434 18.46H60.594L60.338 18.684V18.332C60.2953 17.8947 60.146 17.5213 59.89 17.212C59.6447 16.892 59.3407 16.6467 58.978 16.476C58.626 16.3053 58.2527 16.22 57.858 16.22C57.538 16.22 57.218 16.2787 56.898 16.396C56.5887 16.5027 56.306 16.684 56.05 16.94C55.8047 17.1853 55.602 17.5053 55.442 17.9C55.2927 18.2947 55.218 18.7693 55.218 19.324C55.218 19.9427 55.3407 20.4867 55.586 20.956C55.842 21.4253 56.194 21.7987 56.642 22.076C57.09 22.3427 57.6127 22.476 58.21 22.476C58.5833 22.476 58.9087 22.428 59.186 22.332C59.4633 22.236 59.7033 22.1187 59.906 21.98C60.1087 21.8307 60.2793 21.6813 60.418 21.532C60.5567 21.436 60.69 21.388 60.818 21.388C60.978 21.388 61.106 21.4413 61.202 21.548C61.3087 21.6547 61.362 21.7827 61.362 21.932C61.362 22.1133 61.2767 22.2733 61.106 22.412C60.8073 22.7427 60.402 23.036 59.89 23.292C59.378 23.5373 58.834 23.66 58.258 23.66ZM67.4299 23.66C66.5765 23.66 65.8299 23.4787 65.1899 23.116C64.5499 22.7533 64.0485 22.2573 63.6859 21.628C63.3339 20.988 63.1579 20.252 63.1579 19.42C63.1579 18.492 63.3392 17.7027 63.7019 17.052C64.0752 16.3907 64.5552 15.8893 65.1419 15.548C65.7392 15.196 66.3685 15.02 67.0299 15.02C67.5205 15.02 67.9952 15.1107 68.4539 15.292C68.9125 15.4733 69.3179 15.74 69.6699 16.092C70.0219 16.4333 70.3045 16.8493 70.5179 17.34C70.7312 17.82 70.8432 18.3587 70.8539 18.956C70.8539 19.1267 70.7899 19.2707 70.6619 19.388C70.5339 19.5053 70.3845 19.564 70.2139 19.564H63.8939L63.6059 18.46H69.7659L69.5099 18.684V18.332C69.4672 17.8947 69.3179 17.5213 69.0619 17.212C68.8165 16.892 68.5125 16.6467 68.1499 16.476C67.7979 16.3053 67.4245 16.22 67.0299 16.22C66.7099 16.22 66.3899 16.2787 66.0699 16.396C65.7605 16.5027 65.4779 16.684 65.2219 16.94C64.9765 17.1853 64.7739 17.5053 64.6139 17.9C64.4645 18.2947 64.3899 18.7693 64.3899 19.324C64.3899 19.9427 64.5125 20.4867 64.7579 20.956C65.0139 21.4253 65.3659 21.7987 65.8139 22.076C66.2619 22.3427 66.7845 22.476 67.3819 22.476C67.7552 22.476 68.0805 22.428 68.3579 22.332C68.6352 22.236 68.8752 22.1187 69.0779 21.98C69.2805 21.8307 69.4512 21.6813 69.5899 21.532C69.7285 21.436 69.8619 21.388 69.9899 21.388C70.1499 21.388 70.2779 21.4413 70.3739 21.548C70.4805 21.6547 70.5339 21.7827 70.5339 21.932C70.5339 22.1133 70.4485 22.2733 70.2779 22.412C69.9792 22.7427 69.5739 23.036 69.0619 23.292C68.5499 23.5373 68.0059 23.66 67.4299 23.66ZM73.4178 23.5C73.2364 23.5 73.0818 23.436 72.9538 23.308C72.8364 23.18 72.7778 23.0253 72.7778 22.844V15.868C72.7778 15.6867 72.8364 15.5373 72.9538 15.42C73.0818 15.292 73.2364 15.228 73.4178 15.228C73.6098 15.228 73.7644 15.292 73.8818 15.42C73.9991 15.5373 74.0578 15.6867 74.0578 15.868V17.98L73.8658 17.644C73.9298 17.3133 74.0418 16.9933 74.2018 16.684C74.3724 16.364 74.5858 16.0813 74.8418 15.836C75.0978 15.58 75.3911 15.3827 75.7218 15.244C76.0524 15.0947 76.4151 15.02 76.8098 15.02C77.0444 15.02 77.2578 15.0787 77.4498 15.196C77.6524 15.3027 77.7538 15.4573 77.7538 15.66C77.7538 15.884 77.6951 16.0493 77.5778 16.156C77.4604 16.2627 77.3271 16.316 77.1778 16.316C77.0391 16.316 76.9058 16.2893 76.7778 16.236C76.6498 16.172 76.4898 16.14 76.2977 16.14C76.0311 16.14 75.7644 16.2147 75.4978 16.364C75.2418 16.5027 75.0018 16.7053 74.7778 16.972C74.5644 17.2387 74.3884 17.5427 74.2498 17.884C74.1218 18.2147 74.0578 18.572 74.0578 18.956V22.844C74.0578 23.0253 73.9938 23.18 73.8658 23.308C73.7484 23.436 73.5991 23.5 73.4178 23.5ZM84.8379 22.844C84.8379 23.0253 84.7739 23.18 84.6459 23.308C84.5285 23.436 84.3792 23.5 84.1979 23.5C84.0059 23.5 83.8512 23.436 83.7339 23.308C83.6165 23.18 83.5579 23.0253 83.5579 22.844V15.74C83.5579 15.5587 83.6165 15.4093 83.7339 15.292C83.8619 15.164 84.0165 15.1 84.1979 15.1C84.3792 15.1 84.5285 15.164 84.6459 15.292C84.7739 15.4093 84.8379 15.5587 84.8379 15.74V22.844ZM84.1979 14.028C83.9312 14.028 83.7339 13.9747 83.6059 13.868C83.4779 13.7613 83.4139 13.596 83.4139 13.372V13.148C83.4139 12.924 83.4832 12.7587 83.6219 12.652C83.7605 12.5453 83.9579 12.492 84.2139 12.492C84.4699 12.492 84.6619 12.5453 84.7899 12.652C84.9179 12.7587 84.9819 12.924 84.9819 13.148V13.372C84.9819 13.596 84.9125 13.7613 84.7739 13.868C84.6459 13.9747 84.4539 14.028 84.1979 14.028ZM91.2491 15.02C91.9745 15.02 92.5451 15.1693 92.9611 15.468C93.3771 15.7667 93.6705 16.1667 93.8411 16.668C94.0225 17.1693 94.1131 17.7293 94.1131 18.348V22.844C94.1131 23.0253 94.0491 23.18 93.9211 23.308C93.8038 23.436 93.6545 23.5 93.4731 23.5C93.2918 23.5 93.1371 23.436 93.0091 23.308C92.8918 23.18 92.8331 23.0253 92.8331 22.844V18.38C92.8331 17.9747 92.7691 17.612 92.6411 17.292C92.5238 16.9613 92.3211 16.7 92.0331 16.508C91.7558 16.3053 91.3718 16.204 90.8811 16.204C90.4331 16.204 90.0225 16.3053 89.6491 16.508C89.2758 16.7 88.9771 16.9613 88.7531 17.292C88.5291 17.612 88.4171 17.9747 88.4171 18.38V22.844C88.4171 23.0253 88.3531 23.18 88.2251 23.308C88.1078 23.436 87.9585 23.5 87.7771 23.5C87.5958 23.5 87.4411 23.436 87.3131 23.308C87.1958 23.18 87.1371 23.0253 87.1371 22.844V15.868C87.1371 15.6867 87.1958 15.5373 87.3131 15.42C87.4411 15.292 87.5958 15.228 87.7771 15.228C87.9691 15.228 88.1238 15.292 88.2411 15.42C88.3585 15.5373 88.4171 15.6867 88.4171 15.868V17.004L88.0971 17.356C88.1505 17.0787 88.2731 16.8013 88.4651 16.524C88.6571 16.236 88.8971 15.98 89.1851 15.756C89.4731 15.532 89.7931 15.356 90.1451 15.228C90.4971 15.0893 90.8651 15.02 91.2491 15.02ZM99.9369 11.692C100.118 11.692 100.305 11.7133 100.497 11.756C100.7 11.7987 100.87 11.8733 101.009 11.98C101.158 12.0867 101.233 12.2307 101.233 12.412C101.233 12.5827 101.18 12.7267 101.073 12.844C100.966 12.9507 100.838 13.004 100.689 13.004C100.593 13.004 100.46 12.9773 100.289 12.924C100.118 12.86 99.9422 12.828 99.7609 12.828C99.5155 12.828 99.3129 12.8813 99.1529 12.988C99.0035 13.0947 98.8915 13.2387 98.8169 13.42C98.7529 13.5907 98.7209 13.7827 98.7209 13.996V22.844C98.7209 23.0253 98.6569 23.18 98.5289 23.308C98.4115 23.436 98.2622 23.5 98.0809 23.5C97.8889 23.5 97.7342 23.436 97.6169 23.308C97.4995 23.18 97.4409 23.0253 97.4409 22.844V14.012C97.4409 13.2973 97.6595 12.732 98.0969 12.316C98.5449 11.9 99.1582 11.692 99.9369 11.692ZM100.385 15.356C100.556 15.356 100.7 15.4147 100.817 15.532C100.934 15.6387 100.993 15.7773 100.993 15.948C100.993 16.1187 100.934 16.2627 100.817 16.38C100.7 16.4867 100.556 16.54 100.385 16.54H96.3689C96.1982 16.54 96.0542 16.4813 95.9369 16.364C95.8195 16.2467 95.7609 16.108 95.7609 15.948C95.7609 15.7667 95.8195 15.6227 95.9369 15.516C96.0542 15.4093 96.1982 15.356 96.3689 15.356H100.385ZM109.946 19.34C109.946 20.172 109.76 20.9133 109.386 21.564C109.024 22.2147 108.528 22.7267 107.898 23.1C107.28 23.4733 106.581 23.66 105.802 23.66C105.024 23.66 104.32 23.4733 103.69 23.1C103.061 22.7267 102.56 22.2147 102.186 21.564C101.824 20.9133 101.642 20.172 101.642 19.34C101.642 18.508 101.824 17.7667 102.186 17.116C102.56 16.4653 103.061 15.9533 103.69 15.58C104.32 15.2067 105.024 15.02 105.802 15.02C106.581 15.02 107.28 15.2067 107.898 15.58C108.528 15.9533 109.024 16.4653 109.386 17.116C109.76 17.7667 109.946 18.508 109.946 19.34ZM108.666 19.34C108.666 18.7213 108.538 18.1773 108.282 17.708C108.037 17.2387 107.696 16.8707 107.258 16.604C106.832 16.3373 106.346 16.204 105.802 16.204C105.258 16.204 104.768 16.3373 104.33 16.604C103.904 16.8707 103.562 17.2387 103.306 17.708C103.05 18.1773 102.922 18.7213 102.922 19.34C102.922 19.948 103.05 20.4867 103.306 20.956C103.562 21.4253 103.904 21.7987 104.33 22.076C104.768 22.3427 105.258 22.476 105.802 22.476C106.346 22.476 106.832 22.3427 107.258 22.076C107.696 21.7987 108.037 21.4253 108.282 20.956C108.538 20.4867 108.666 19.948 108.666 19.34Z" fill="white"/>
<defs>
<filter id="filter0_i_75_11" x="0" y="0" width="150" height="37.5" filterUnits="userSpaceOnUse" color-interpolation-filters="sRGB">
<feFlood flood-opacity="0" result="BackgroundImageFix"/>
<feBlend mode="normal" in="SourceGraphic" in2="BackgroundImageFix" result="shape"/>
<feColorMatrix in="SourceAlpha" type="matrix" values="0 0 0 0 0 0 0 0 0 0 0 0 0 0 0 0 0 0 127 0" result="hardAlpha"/>
<feOffset/>
<feGaussianBlur stdDeviation="2"/>
<feComposite in2="hardAlpha" operator="arithmetic" k2="-1" k3="1"/>
<feColorMatrix type="matrix" values="0 0 0 0 0 0 0 0 0 0 0 0 0 0 0 0 0 0 0.4 0"/>
<feBlend mode="normal" in2="shape" result="effect1_innerShadow_75_11"/>
</filter>
</defs>
</svg>
