<svg width="200" height="50" viewBox="0 0 200 50" fill="none" xmlns="http://www.w3.org/2000/svg">
<g filter="url(#filter0_i_27_452)">
<rect width="200" height="50" rx="25" fill="#56C596"/>
</g>
<path d="M44.458 14.6C44.7073 14.6 44.9053 14.6807 45.052 14.842C45.1986 14.9887 45.272 15.1793 45.272 15.414V29.076C45.272 29.3547 45.184 29.582 45.008 29.758C44.832 29.9193 44.6193 30 44.37 30C44.238 30 44.106 29.978 43.974 29.934C43.842 29.8753 43.7393 29.802 43.666 29.714L34.25 17.262L34.69 16.998V29.186C34.69 29.4207 34.6093 29.6187 34.448 29.78C34.3013 29.9267 34.1033 30 33.854 30C33.6193 30 33.4286 29.9267 33.282 29.78C33.1353 29.6187 33.062 29.4207 33.062 29.186V15.48C33.062 15.216 33.1426 15.0033 33.304 14.842C33.48 14.6807 33.6853 14.6 33.92 14.6C34.052 14.6 34.184 14.6293 34.316 14.688C34.4626 14.732 34.5726 14.8053 34.646 14.908L43.93 27.184L43.644 27.536V15.414C43.644 15.1793 43.7173 14.9887 43.864 14.842C44.0253 14.6807 44.2233 14.6 44.458 14.6ZM58.1963 18.516C58.4456 18.516 58.651 18.604 58.8123 18.78C58.9883 18.9413 59.0763 19.1467 59.0763 19.396V29.098C59.0763 29.3473 58.9883 29.56 58.8123 29.736C58.651 29.912 58.4456 30 58.1963 30C57.9323 30 57.7196 29.912 57.5583 29.736C57.397 29.56 57.3163 29.3473 57.3163 29.098V27.008L57.7343 26.964C57.7343 27.2867 57.6243 27.6387 57.4043 28.02C57.1843 28.4013 56.8836 28.7607 56.5023 29.098C56.121 29.4207 55.6663 29.692 55.1383 29.912C54.625 30.1173 54.0676 30.22 53.4663 30.22C52.469 30.22 51.5743 29.9633 50.7823 29.45C49.9903 28.922 49.3596 28.2107 48.8903 27.316C48.4356 26.4213 48.2083 25.402 48.2083 24.258C48.2083 23.0993 48.4356 22.08 48.8903 21.2C49.3596 20.3053 49.9903 19.6087 50.7823 19.11C51.5743 18.5967 52.4543 18.34 53.4223 18.34C54.053 18.34 54.6396 18.4427 55.1823 18.648C55.725 18.8533 56.1943 19.132 56.5903 19.484C57.001 19.836 57.3163 20.2247 57.5363 20.65C57.771 21.0753 57.8883 21.5007 57.8883 21.926L57.3163 21.794V19.396C57.3163 19.1467 57.397 18.9413 57.5583 18.78C57.7196 18.604 57.9323 18.516 58.1963 18.516ZM53.6643 28.592C54.3976 28.592 55.043 28.4013 55.6003 28.02C56.1723 27.6387 56.6123 27.1253 56.9203 26.48C57.243 25.82 57.4043 25.0793 57.4043 24.258C57.4043 23.4513 57.243 22.7253 56.9203 22.08C56.6123 21.42 56.1723 20.9067 55.6003 20.54C55.043 20.1587 54.3976 19.968 53.6643 19.968C52.9456 19.968 52.3003 20.1513 51.7283 20.518C51.171 20.8847 50.731 21.3907 50.4083 22.036C50.0856 22.6813 49.9243 23.422 49.9243 24.258C49.9243 25.0793 50.0783 25.82 50.3863 26.48C50.709 27.1253 51.149 27.6387 51.7063 28.02C52.2783 28.4013 52.931 28.592 53.6643 28.592ZM71.9248 18.516C72.1741 18.516 72.3795 18.604 72.5408 18.78C72.7168 18.9413 72.8048 19.1467 72.8048 19.396V29.098C72.8048 29.3473 72.7168 29.56 72.5408 29.736C72.3795 29.912 72.1741 30 71.9248 30C71.6608 30 71.4481 29.912 71.2868 29.736C71.1255 29.56 71.0448 29.3473 71.0448 29.098V27.008L71.4628 26.964C71.4628 27.2867 71.3528 27.6387 71.1328 28.02C70.9128 28.4013 70.6121 28.7607 70.2308 29.098C69.8495 29.4207 69.3948 29.692 68.8668 29.912C68.3535 30.1173 67.7961 30.22 67.1948 30.22C66.1975 30.22 65.3028 29.9633 64.5108 29.45C63.7188 28.922 63.0881 28.2107 62.6188 27.316C62.1641 26.4213 61.9368 25.402 61.9368 24.258C61.9368 23.0993 62.1641 22.08 62.6188 21.2C63.0881 20.3053 63.7188 19.6087 64.5108 19.11C65.3028 18.5967 66.1828 18.34 67.1508 18.34C67.7815 18.34 68.3681 18.4427 68.9108 18.648C69.4535 18.8533 69.9228 19.132 70.3188 19.484C70.7295 19.836 71.0448 20.2247 71.2648 20.65C71.4995 21.0753 71.6168 21.5007 71.6168 21.926L71.0448 21.794V19.396C71.0448 19.1467 71.1255 18.9413 71.2868 18.78C71.4481 18.604 71.6608 18.516 71.9248 18.516ZM67.3928 28.592C68.1261 28.592 68.7715 28.4013 69.3288 28.02C69.9008 27.6387 70.3408 27.1253 70.6488 26.48C70.9715 25.82 71.1328 25.0793 71.1328 24.258C71.1328 23.4513 70.9715 22.7253 70.6488 22.08C70.3408 21.42 69.9008 20.9067 69.3288 20.54C68.7715 20.1587 68.1261 19.968 67.3928 19.968C66.6741 19.968 66.0288 20.1513 65.4568 20.518C64.8995 20.8847 64.4595 21.3907 64.1368 22.036C63.8141 22.6813 63.6528 23.422 63.6528 24.258C63.6528 25.0793 63.8068 25.82 64.1148 26.48C64.4375 27.1253 64.8775 27.6387 65.4348 28.02C66.0068 28.4013 66.6595 28.592 67.3928 28.592ZM76.9465 30C76.6971 30 76.4845 29.912 76.3085 29.736C76.1471 29.56 76.0665 29.3473 76.0665 29.098V19.506C76.0665 19.2567 76.1471 19.0513 76.3085 18.89C76.4845 18.714 76.6971 18.626 76.9465 18.626C77.2105 18.626 77.4231 18.714 77.5845 18.89C77.7458 19.0513 77.8265 19.2567 77.8265 19.506V22.41L77.5625 21.948C77.6505 21.4933 77.8045 21.0533 78.0245 20.628C78.2591 20.188 78.5525 19.7993 78.9045 19.462C79.2565 19.11 79.6598 18.8387 80.1145 18.648C80.5691 18.4427 81.0678 18.34 81.6105 18.34C81.9331 18.34 82.2265 18.4207 82.4905 18.582C82.7691 18.7287 82.9085 18.9413 82.9085 19.22C82.9085 19.528 82.8278 19.7553 82.6665 19.902C82.5051 20.0487 82.3218 20.122 82.1165 20.122C81.9258 20.122 81.7425 20.0853 81.5665 20.012C81.3905 19.924 81.1705 19.88 80.9065 19.88C80.5398 19.88 80.1731 19.9827 79.8065 20.188C79.4545 20.3787 79.1245 20.6573 78.8165 21.024C78.5231 21.3907 78.2811 21.8087 78.0905 22.278C77.9145 22.7327 77.8265 23.224 77.8265 23.752V29.098C77.8265 29.3473 77.7385 29.56 77.5625 29.736C77.4011 29.912 77.1958 30 76.9465 30ZM104.375 18.428C104.61 18.428 104.808 18.5087 104.969 18.67C105.145 18.8313 105.233 19.044 105.233 19.308C105.233 19.3667 105.226 19.4327 105.211 19.506C105.211 19.5647 105.196 19.6233 105.167 19.682L101.779 29.428C101.706 29.6187 101.581 29.7653 101.405 29.868C101.244 29.9707 101.068 30.0147 100.877 30C100.54 29.9853 100.283 29.7947 100.107 29.428L97.3351 22.476L97.7751 22.542L95.2671 29.428C95.1058 29.7947 94.8491 29.9853 94.4971 30C94.3065 30.0147 94.1231 29.9707 93.9471 29.868C93.7711 29.7653 93.6538 29.6187 93.5951 29.428L90.1411 19.682C90.0971 19.55 90.0751 19.4253 90.0751 19.308C90.0751 19.0733 90.1558 18.868 90.3171 18.692C90.4785 18.516 90.6985 18.428 90.9771 18.428C91.1531 18.428 91.3145 18.472 91.4611 18.56C91.6078 18.648 91.7105 18.7873 91.7691 18.978L94.7391 27.646L94.2771 27.624L96.8511 21.024C96.9978 20.6573 97.2691 20.474 97.6651 20.474C97.8705 20.474 98.0318 20.5253 98.1491 20.628C98.2811 20.716 98.3765 20.848 98.4351 21.024L101.119 27.624L100.569 27.668L103.539 18.978C103.671 18.6113 103.95 18.428 104.375 18.428ZM112.864 30.22C111.69 30.22 110.664 29.9707 109.784 29.472C108.904 28.9733 108.214 28.2913 107.716 27.426C107.232 26.546 106.99 25.534 106.99 24.39C106.99 23.114 107.239 22.0287 107.738 21.134C108.251 20.2247 108.911 19.5353 109.718 19.066C110.539 18.582 111.404 18.34 112.314 18.34C112.988 18.34 113.641 18.4647 114.272 18.714C114.902 18.9633 115.46 19.33 115.944 19.814C116.428 20.2833 116.816 20.8553 117.11 21.53C117.403 22.19 117.557 22.9307 117.572 23.752C117.572 23.9867 117.484 24.1847 117.308 24.346C117.132 24.5073 116.926 24.588 116.692 24.588H108.002L107.606 23.07H116.076L115.724 23.378V22.894C115.665 22.2927 115.46 21.7793 115.108 21.354C114.77 20.914 114.352 20.5767 113.854 20.342C113.37 20.1073 112.856 19.99 112.314 19.99C111.874 19.99 111.434 20.0707 110.994 20.232C110.568 20.3787 110.18 20.628 109.828 20.98C109.49 21.3173 109.212 21.7573 108.992 22.3C108.786 22.8427 108.684 23.4953 108.684 24.258C108.684 25.1087 108.852 25.8567 109.19 26.502C109.542 27.1473 110.026 27.6607 110.642 28.042C111.258 28.4087 111.976 28.592 112.798 28.592C113.311 28.592 113.758 28.526 114.14 28.394C114.521 28.262 114.851 28.1007 115.13 27.91C115.408 27.7047 115.643 27.4993 115.834 27.294C116.024 27.162 116.208 27.096 116.384 27.096C116.604 27.096 116.78 27.1693 116.912 27.316C117.058 27.4627 117.132 27.6387 117.132 27.844C117.132 28.0933 117.014 28.3133 116.78 28.504C116.369 28.9587 115.812 29.362 115.108 29.714C114.404 30.0513 113.656 30.22 112.864 30.22ZM125.827 18.34C126.824 18.34 127.719 18.5967 128.511 19.11C129.303 19.6087 129.926 20.298 130.381 21.178C130.85 22.058 131.085 23.0773 131.085 24.236C131.085 25.3947 130.85 26.4213 130.381 27.316C129.926 28.2107 129.303 28.922 128.511 29.45C127.734 29.9633 126.854 30.22 125.871 30.22C125.328 30.22 124.815 30.1393 124.331 29.978C123.862 29.802 123.429 29.5747 123.033 29.296C122.652 29.0027 122.329 28.6873 122.065 28.35C121.801 27.998 121.61 27.6533 121.493 27.316L121.977 27.008V29.208C121.977 29.4573 121.896 29.67 121.735 29.846C121.574 30.022 121.361 30.11 121.097 30.11C120.848 30.11 120.635 30.0293 120.459 29.868C120.298 29.692 120.217 29.472 120.217 29.208V14.622C120.217 14.3727 120.298 14.16 120.459 13.984C120.635 13.808 120.848 13.72 121.097 13.72C121.361 13.72 121.574 13.808 121.735 13.984C121.896 14.16 121.977 14.3727 121.977 14.622V21.398L121.647 21.222C121.75 20.8553 121.926 20.5033 122.175 20.166C122.439 19.814 122.754 19.506 123.121 19.242C123.502 18.9633 123.92 18.7433 124.375 18.582C124.844 18.4207 125.328 18.34 125.827 18.34ZM125.629 19.968C124.896 19.968 124.243 20.1513 123.671 20.518C123.114 20.8847 122.674 21.3907 122.351 22.036C122.043 22.6813 121.889 23.4147 121.889 24.236C121.889 25.0573 122.043 25.798 122.351 26.458C122.674 27.118 123.114 27.6387 123.671 28.02C124.243 28.4013 124.896 28.592 125.629 28.592C126.362 28.592 127.008 28.4013 127.565 28.02C128.122 27.6387 128.562 27.118 128.885 26.458C129.208 25.798 129.369 25.0573 129.369 24.236C129.369 23.4147 129.208 22.6813 128.885 22.036C128.562 21.3907 128.122 20.8847 127.565 20.518C127.008 20.1513 126.362 19.968 125.629 19.968ZM133.093 28.196C132.961 28.0053 132.902 27.8073 132.917 27.602C132.931 27.382 133.056 27.1913 133.291 27.03C133.437 26.9273 133.606 26.8833 133.797 26.898C134.002 26.9127 134.185 27.008 134.347 27.184C134.757 27.668 135.227 28.0567 135.755 28.35C136.283 28.6287 136.928 28.768 137.691 28.768C138.043 28.7533 138.395 28.6947 138.747 28.592C139.099 28.4893 139.392 28.3133 139.627 28.064C139.876 27.8 140.001 27.4553 140.001 27.03C140.001 26.6193 139.876 26.2967 139.627 26.062C139.377 25.8127 139.055 25.6147 138.659 25.468C138.263 25.3067 137.83 25.1673 137.361 25.05C136.877 24.918 136.4 24.7713 135.931 24.61C135.461 24.434 135.036 24.2213 134.655 23.972C134.288 23.708 133.987 23.3853 133.753 23.004C133.533 22.608 133.423 22.1313 133.423 21.574C133.423 20.914 133.599 20.342 133.951 19.858C134.317 19.374 134.801 19 135.403 18.736C136.019 18.472 136.686 18.34 137.405 18.34C137.815 18.34 138.241 18.3913 138.681 18.494C139.135 18.582 139.575 18.7433 140.001 18.978C140.426 19.198 140.8 19.506 141.123 19.902C141.255 20.0487 141.328 20.232 141.343 20.452C141.357 20.672 141.262 20.87 141.057 21.046C140.895 21.1633 140.712 21.2147 140.507 21.2C140.316 21.1853 140.155 21.112 140.023 20.98C139.715 20.6133 139.326 20.3347 138.857 20.144C138.402 19.9387 137.896 19.836 137.339 19.836C136.987 19.836 136.642 19.8873 136.305 19.99C135.967 20.0927 135.681 20.2687 135.447 20.518C135.227 20.7527 135.117 21.0827 135.117 21.508C135.131 21.904 135.263 22.2267 135.513 22.476C135.762 22.7253 136.099 22.9307 136.525 23.092C136.95 23.2387 137.419 23.3853 137.933 23.532C138.402 23.6493 138.849 23.7887 139.275 23.95C139.715 24.0967 140.111 24.2947 140.463 24.544C140.815 24.7933 141.093 25.116 141.299 25.512C141.504 25.8933 141.607 26.3773 141.607 26.964C141.607 27.6387 141.416 28.2253 141.035 28.724C140.653 29.208 140.147 29.582 139.517 29.846C138.901 30.0953 138.233 30.22 137.515 30.22C136.708 30.22 135.909 30.066 135.117 29.758C134.339 29.45 133.665 28.9293 133.093 28.196ZM145.844 29.098C145.844 29.3473 145.756 29.56 145.58 29.736C145.419 29.912 145.214 30 144.964 30C144.7 30 144.488 29.912 144.326 29.736C144.165 29.56 144.084 29.3473 144.084 29.098V19.33C144.084 19.0807 144.165 18.8753 144.326 18.714C144.502 18.538 144.715 18.45 144.964 18.45C145.214 18.45 145.419 18.538 145.58 18.714C145.756 18.8753 145.844 19.0807 145.844 19.33V29.098ZM144.964 16.976C144.598 16.976 144.326 16.9027 144.15 16.756C143.974 16.6093 143.886 16.382 143.886 16.074V15.766C143.886 15.458 143.982 15.2307 144.172 15.084C144.363 14.9373 144.634 14.864 144.986 14.864C145.338 14.864 145.602 14.9373 145.778 15.084C145.954 15.2307 146.042 15.458 146.042 15.766V16.074C146.042 16.382 145.947 16.6093 145.756 16.756C145.58 16.9027 145.316 16.976 144.964 16.976ZM148.566 18.692H153.736C153.971 18.692 154.161 18.7727 154.308 18.934C154.469 19.0953 154.55 19.286 154.55 19.506C154.55 19.7407 154.469 19.9387 154.308 20.1C154.161 20.2467 153.971 20.32 153.736 20.32H148.566C148.346 20.32 148.155 20.2393 147.994 20.078C147.833 19.9167 147.752 19.7187 147.752 19.484C147.752 19.264 147.833 19.0807 147.994 18.934C148.155 18.7727 148.346 18.692 148.566 18.692ZM150.876 15.7C151.125 15.7 151.331 15.788 151.492 15.964C151.653 16.1253 151.734 16.3307 151.734 16.58V27.206C151.734 27.558 151.785 27.822 151.888 27.998C151.991 28.174 152.123 28.2987 152.284 28.372C152.46 28.4307 152.629 28.46 152.79 28.46C152.937 28.46 153.061 28.438 153.164 28.394C153.281 28.3353 153.413 28.306 153.56 28.306C153.707 28.306 153.839 28.3793 153.956 28.526C154.088 28.658 154.154 28.834 154.154 29.054C154.154 29.318 154 29.5453 153.692 29.736C153.384 29.912 153.039 30 152.658 30C152.453 30 152.196 29.9853 151.888 29.956C151.595 29.9267 151.301 29.8313 151.008 29.67C150.715 29.5087 150.465 29.2447 150.26 28.878C150.069 28.4967 149.974 27.9687 149.974 27.294V16.58C149.974 16.3307 150.062 16.1253 150.238 15.964C150.414 15.788 150.627 15.7 150.876 15.7ZM162.149 30.22C160.975 30.22 159.949 29.9707 159.069 29.472C158.189 28.9733 157.499 28.2913 157.001 27.426C156.517 26.546 156.275 25.534 156.275 24.39C156.275 23.114 156.524 22.0287 157.023 21.134C157.536 20.2247 158.196 19.5353 159.003 19.066C159.824 18.582 160.689 18.34 161.599 18.34C162.273 18.34 162.926 18.4647 163.557 18.714C164.187 18.9633 164.745 19.33 165.229 19.814C165.713 20.2833 166.101 20.8553 166.395 21.53C166.688 22.19 166.842 22.9307 166.857 23.752C166.857 23.9867 166.769 24.1847 166.593 24.346C166.417 24.5073 166.211 24.588 165.977 24.588H157.287L156.891 23.07H165.361L165.009 23.378V22.894C164.95 22.2927 164.745 21.7793 164.393 21.354C164.055 20.914 163.637 20.5767 163.139 20.342C162.655 20.1073 162.141 19.99 161.599 19.99C161.159 19.99 160.719 20.0707 160.279 20.232C159.853 20.3787 159.465 20.628 159.113 20.98C158.775 21.3173 158.497 21.7573 158.277 22.3C158.071 22.8427 157.969 23.4953 157.969 24.258C157.969 25.1087 158.137 25.8567 158.475 26.502C158.827 27.1473 159.311 27.6607 159.927 28.042C160.543 28.4087 161.261 28.592 162.083 28.592C162.596 28.592 163.043 28.526 163.425 28.394C163.806 28.262 164.136 28.1007 164.415 27.91C164.693 27.7047 164.928 27.4993 165.119 27.294C165.309 27.162 165.493 27.096 165.669 27.096C165.889 27.096 166.065 27.1693 166.197 27.316C166.343 27.4627 166.417 27.6387 166.417 27.844C166.417 28.0933 166.299 28.3133 166.065 28.504C165.654 28.9587 165.097 29.362 164.393 29.714C163.689 30.0513 162.941 30.22 162.149 30.22Z" fill="white"/>
<defs>
<filter id="filter0_i_27_452" x="0" y="0" width="200" height="50" filterUnits="userSpaceOnUse" color-interpolation-filters="sRGB">
<feFlood flood-opacity="0" result="BackgroundImageFix"/>
<feBlend mode="normal" in="SourceGraphic" in2="BackgroundImageFix" result="shape"/>
<feColorMatrix in="SourceAlpha" type="matrix" values="0 0 0 0 0 0 0 0 0 0 0 0 0 0 0 0 0 0 127 0" result="hardAlpha"/>
<feOffset/>
<feGaussianBlur stdDeviation="2"/>
<feComposite in2="hardAlpha" operator="arithmetic" k2="-1" k3="1"/>
<feColorMatrix type="matrix" values="0 0 0 0 0 0 0 0 0 0 0 0 0 0 0 0 0 0 0.4 0"/>
<feBlend mode="normal" in2="shape" result="effect1_innerShadow_27_452"/>
</filter>
</defs>
</svg>
