<svg width="27" height="44" viewBox="0 0 27 44" fill="none" xmlns="http://www.w3.org/2000/svg">
<g clip-path="url(#clip0_2_11)" filter="url(#filter0_i_2_11)">
<path d="M26.8084 14.1461C26.5346 18.5509 22.6958 19.4343 22.7259 25.072C22.7379 27.3697 23.3938 30.5372 21.4262 32.7623C21.0291 33.2116 20.626 33.508 20.3552 33.685C15.7357 33.6411 11.1162 33.5988 6.49669 33.5549C6.2169 33.3416 5.81527 33.0028 5.41214 32.5203C3.42203 30.1409 3.71536 27.0641 3.68377 25.2263C3.58449 19.5039 0.224027 18.6568 0.0104259 14.3821C-0.27237 8.72778 5.09775 0.0557522 13.3184 -0.000215934C21.5315 -0.056184 27.1574 8.5266 26.8084 14.1461Z" fill="#358A66"/>
<path d="M13.1651 33.6868C12.9635 29.7629 12.4476 23.9816 11.023 18.9974C10.5552 17.3622 9.84823 15.3126 8.27029 14.8437C7.50614 14.6168 6.44114 14.7332 5.97633 15.3822C5.40472 16.1808 5.79432 17.7101 6.66527 18.3818C8.12438 19.5056 9.86328 17.3985 13.6254 17.459C16.8866 17.5105 18.3171 19.1381 19.5912 18.1518C20.5524 17.4061 20.8638 15.6075 20.1673 14.9057C19.5024 14.2356 17.9786 14.6243 17.0671 15.3065C15.6832 16.3427 15.4786 18.2275 15.3838 19.2288C14.8619 24.7667 14.9025 31.4677 14.925 33.6111" stroke="white" stroke-miterlimit="10"/>
<path d="M19.8474 34.1708H6.97458C6.43323 34.1708 5.99438 34.6096 5.99438 35.151C5.99438 35.6923 6.43323 36.1312 6.97457 36.1312H19.8474C20.3888 36.1312 20.8276 35.6923 20.8276 35.151C20.8276 34.6096 20.3888 34.1708 19.8474 34.1708Z" fill="#358A66"/>
<path d="M19.8474 36.6152H6.97458C6.43323 36.6152 5.99438 37.0541 5.99438 37.5954C5.99438 38.1368 6.43323 38.5756 6.97457 38.5756H19.8474C20.3888 38.5756 20.8276 38.1368 20.8276 37.5954C20.8276 37.0541 20.3888 36.6152 19.8474 36.6152Z" fill="#358A66"/>
<path d="M19.8474 39.0597H6.97457C6.43323 39.0597 5.99438 39.4985 5.99438 40.0399C5.99438 40.5812 6.43323 41.0201 6.97457 41.0201H19.8474C20.3888 41.0201 20.8276 40.5812 20.8276 40.0399C20.8276 39.4985 20.3888 39.0597 19.8474 39.0597Z" fill="#358A66"/>
<path d="M11.3299 41.5041C11.4758 41.2772 11.7962 41.3861 13.4599 41.3876C15.0544 41.3876 15.3567 41.2878 15.4921 41.5041C15.8306 42.0441 14.7746 44.0363 13.3456 44.0015C11.9587 43.9667 10.9839 42.0441 11.3299 41.5041Z" fill="#358A66"/>
</g>
<defs>
<filter id="filter0_i_2_11" x="0" y="0" width="26.8235" height="44" filterUnits="userSpaceOnUse" color-interpolation-filters="sRGB">
<feFlood flood-opacity="0" result="BackgroundImageFix"/>
<feBlend mode="normal" in="SourceGraphic" in2="BackgroundImageFix" result="shape"/>
<feColorMatrix in="SourceAlpha" type="matrix" values="0 0 0 0 0 0 0 0 0 0 0 0 0 0 0 0 0 0 127 0" result="hardAlpha"/>
<feOffset/>
<feGaussianBlur stdDeviation="2"/>
<feComposite in2="hardAlpha" operator="arithmetic" k2="-1" k3="1"/>
<feColorMatrix type="matrix" values="0 0 0 0 0 0 0 0 0 0 0 0 0 0 0 0 0 0 0.4 0"/>
<feBlend mode="normal" in2="shape" result="effect1_innerShadow_2_11"/>
</filter>
<clipPath id="clip0_2_11">
<rect width="26.8235" height="44" fill="white"/>
</clipPath>
</defs>
</svg>
