<svg width="60" height="76" viewBox="0 0 60 76" fill="none" xmlns="http://www.w3.org/2000/svg">
<g id="logo 1" clip-path="url(#clip0_2_5)" filter="url(#filter0_i_2_5)">
<path id="Vector" d="M16.3875 32.4732C16.6957 40.2621 16.7175 51.1272 15.4255 64.2172C13.925 64.2673 11.7613 64.1014 9.5821 62.906C1.63108 58.5343 0.855906 44.4491 0.195915 32.4794C-0.227475 24.8501 -0.165212 13.6158 2.43428 0C3.98464 0.156467 6.30394 0.632127 8.55165 2.22809C11.7956 4.53441 15.4878 9.60394 16.3875 32.4732Z" fill="#358A66"/>
<path id="Vector_2" d="M30.5931 35.1206C34.4503 36.9888 58.1881 48.8834 59.7011 68.8736C59.8599 70.9578 59.7852 73.2703 59.3307 75.7895C57.8083 74.7975 55.6758 73.3611 53.1946 71.5336C36.5423 59.2759 21.1508 47.9477 21.4777 34.5135C21.9198 16.4666 50.508 3.8522 52.6996 2.91027C55.6073 1.66479 58.1477 0.854295 60 0.331696C60 3.09177 59.642 5.53892 59.1065 7.66687C54.6516 25.3977 34.9795 33.437 30.5931 35.1174V35.1206Z" fill="#358A66"/>
</g>
<defs>
<filter id="filter0_i_2_5" x="0" y="0" width="60" height="75.7895" filterUnits="userSpaceOnUse" color-interpolation-filters="sRGB">
<feFlood flood-opacity="0" result="BackgroundImageFix"/>
<feBlend mode="normal" in="SourceGraphic" in2="BackgroundImageFix" result="shape"/>
<feColorMatrix in="SourceAlpha" type="matrix" values="0 0 0 0 0 0 0 0 0 0 0 0 0 0 0 0 0 0 127 0" result="hardAlpha"/>
<feOffset/>
<feGaussianBlur stdDeviation="2"/>
<feComposite in2="hardAlpha" operator="arithmetic" k2="-1" k3="1"/>
<feColorMatrix type="matrix" values="0 0 0 0 0 0 0 0 0 0 0 0 0 0 0 0 0 0 0.4 0"/>
<feBlend mode="normal" in2="shape" result="effect1_innerShadow_2_5"/>
</filter>
<clipPath id="clip0_2_5">
<rect width="60" height="75.7895" fill="white"/>
</clipPath>
</defs>
</svg>
