<svg width="300" height="49" viewBox="0 0 300 49" fill="none" xmlns="http://www.w3.org/2000/svg">
<g clip-path="url(#clip0_25_426)" filter="url(#filter0_i_25_426)">
<path d="M12.2316 31.9506C11.5105 29.2508 10.4551 25.1747 9.30038 20.1511C7.69633 13.1793 7.00141 9.20382 6.59387 9.25676C6.18632 9.30969 6.45802 13.3117 6.59387 19.7752C6.71926 25.6882 6.66701 30.5477 6.59387 33.8457C6.39009 34.3433 5.66905 35.9049 3.91347 36.9319C2.18925 37.9377 0.532943 37.8053 0 37.7418C0.0156748 27.0487 0.0313496 16.3555 0.0470244 5.66238C0.0470244 4.10605 0.449344 3.05791 1.24876 2.51267C2.04817 1.97272 3.12974 1.69745 4.48822 1.69745H6.69314C8.02027 1.69745 8.98166 1.8192 9.58253 2.06271C10.1834 2.30622 10.6275 2.74559 10.9149 3.37553C11.2023 4.00547 11.5314 5.03773 11.8972 6.46172C12.7802 9.27264 13.8983 13.1952 14.9067 17.9648C15.9204 22.7502 16.3175 25.974 17.0019 25.9688C17.6655 25.9688 18.0417 22.9355 18.8934 18.7482C19.9488 13.5499 21.1767 9.35204 22.1119 6.45642C22.2478 5.96941 22.4045 5.33947 22.6344 4.61424C22.7964 4.10076 22.9531 3.68256 23.0942 3.37024C23.3816 2.74029 23.8257 2.30092 24.4266 2.05741C25.0274 1.81391 25.9888 1.69215 27.3159 1.69215H29.5209C30.8794 1.69215 31.9609 1.96213 32.7603 2.50737C33.5597 3.05262 33.9568 4.10076 33.9568 5.65179C33.9568 16.509 33.9464 27.361 33.9464 38.2182C33.6015 38.2923 31.6579 38.6841 29.7769 37.4295C27.8855 36.1643 27.4779 34.1845 27.41 33.8351C27.3473 30.6324 27.295 25.8788 27.41 20.0875C27.5458 13.3805 27.8228 9.29381 27.41 9.24617C27.0077 9.19323 26.3232 13.1052 24.761 19.9075C23.5853 25.0265 22.509 29.182 21.7723 31.94C21.6782 32.3529 21.3125 33.8827 20.8736 35.185C20.6019 35.9949 20.2205 36.556 19.5883 37.0695C18.6217 37.853 17.4983 37.9218 16.9967 37.9218C16.6414 37.9324 15.7532 37.9059 14.8858 37.3765C14.3059 37.0166 13.9401 36.556 13.8408 36.4343C13.7311 36.2913 13.6319 36.1378 13.543 35.979C13.2243 35.4126 12.9735 34.7827 12.7854 34.0945C12.6025 33.4063 12.4144 32.6917 12.2211 31.9453L12.2316 31.9506Z" fill="#358A66"/>
<path d="M234.229 34.1845C232.645 35.4338 231.115 36.3654 229.636 36.9901C228.157 37.6147 226.501 37.9271 224.662 37.9271C222.985 37.9271 221.506 37.5883 220.236 36.916C218.967 36.2437 217.984 35.3332 217.3 34.1845C216.61 33.0358 216.271 31.7865 216.271 30.4419C216.271 28.6262 216.84 27.0804 217.974 25.7994C219.108 24.5183 220.67 23.6607 222.65 23.2214C223.063 23.1261 224.097 22.9037 225.743 22.5649C227.389 22.2262 228.8 21.9138 229.975 21.628C231.041 21.3686 230.785 21.4109 231.271 21.2998C233.058 20.9027 233.539 21.0033 233.8 20.5904C234.046 20.2146 233.884 19.6799 233.555 18.6106C233.262 17.6577 233.116 17.1813 232.76 16.7367C231.867 15.6197 230.31 15.5085 228.936 15.5085C227.274 15.5085 226.02 15.7415 225.184 16.2126C224.139 16.7949 224.312 17.3931 223.026 18.3247C222.744 18.5259 221.851 19.1453 220.534 19.5158C219.029 19.934 217.728 19.8176 216.939 19.6799C216.965 18.7853 217.154 16.6361 218.674 14.6827C219.907 13.0946 221.386 12.4171 222.488 11.9618C224.212 11.2472 226.365 10.8925 228.941 10.8925C231.82 10.8925 234.082 11.2366 235.728 11.9247C237.374 12.6129 238.539 13.7034 239.218 15.1909C239.898 16.6837 240.237 18.6582 240.237 21.1198C240.237 22.6761 240.237 23.9942 240.227 25.0794C240.216 26.4716 240.206 26.8475 240.19 28.7003C240.169 31.0083 240.164 32.1729 240.19 32.8664C240.227 33.9145 240.326 35.4179 240.587 37.2336C240.352 37.3289 238.299 38.1441 236.329 36.9425C234.819 36.0214 234.349 34.5233 234.244 34.1633L234.229 34.1845ZM233.795 24.5871C233.434 24.3701 233.022 24.7724 231.752 25.2118C231.428 25.3229 230.822 25.4553 229.615 25.72C227.53 26.1752 227.003 26.2811 225.811 26.5934C225.106 26.7787 224.437 27.1439 223.794 27.6892C223.157 28.2344 222.833 28.9914 222.833 29.9601C222.833 30.9289 223.209 31.8182 223.962 32.5223C224.714 33.2263 225.696 33.581 226.914 33.581C228.209 33.581 229.406 33.2951 230.498 32.7181C231.951 31.9559 232.724 30.786 232.907 30.4948C233.649 29.3514 233.8 28.3244 233.967 27.2286C234.129 26.154 234.317 24.9047 233.795 24.5924V24.5871Z" fill="#358A66"/>
<path d="M270.296 35.0844C270.296 37.2865 270.066 39.1817 269.601 40.7697C269.136 42.3578 268.394 43.6707 267.37 44.7082C266.346 45.7458 265.009 46.5133 263.352 47.0162C261.696 47.5191 259.637 47.7679 257.176 47.7679C254.925 47.7679 252.908 47.4503 251.131 46.8098C249.94 46.381 248.446 45.7828 247.03 44.3324C245.368 42.6225 244.783 40.6692 244.563 39.6845C244.804 39.4569 246.241 38.1335 248.174 38.3611C248.263 38.3717 249.809 38.5782 250.896 39.7481C251.236 40.1186 251.361 40.3251 251.988 41.0715C252.364 41.5161 252.782 41.8973 253.237 42.2149C253.691 42.5325 254.24 42.7654 254.877 42.919C255.515 43.0725 256.252 43.1519 257.082 43.1519C258.775 43.1519 260.092 42.9137 261.027 42.4372C261.962 41.9608 262.616 41.2885 262.992 40.4309C263.368 39.5734 263.587 38.6523 263.65 37.673C263.734 36.3707 263.614 36.3549 263.765 34.5815C263.849 33.5545 263.958 33.0093 263.796 32.9458C263.582 32.8664 263.222 33.7133 262.396 34.608C261.607 35.4655 260.813 35.9155 260.306 36.2013C258.347 37.3024 256.403 37.3183 255.593 37.3183C253.404 37.3183 251.487 36.7519 249.851 35.619C248.21 34.4862 246.951 32.8981 246.073 30.8548C245.196 28.8114 244.757 26.4558 244.757 23.7825C244.757 21.7921 245.023 19.9922 245.561 18.3883C246.1 16.7843 246.862 15.4344 247.85 14.328C248.843 13.227 249.982 12.3959 251.278 11.84C252.573 11.2842 253.994 11.0036 255.546 11.0036C257.401 11.0036 259.005 11.3636 260.369 12.0835C261.111 12.4753 262.015 12.9623 262.846 13.9575C263.567 14.8151 263.77 15.5085 264.157 15.4715C264.7 15.4238 264.726 14.0369 265.374 12.9146C265.918 11.9618 267.114 10.8342 270.045 10.3049C270.129 18.563 270.213 26.821 270.296 35.0791V35.0844ZM251.325 24.2218C251.325 26.911 251.905 28.9438 253.064 30.3201C254.224 31.6965 255.724 32.3846 257.563 32.3846C258.65 32.3846 259.679 32.0882 260.646 31.4953C261.612 30.9024 262.401 30.0131 263.007 28.822C263.614 27.6309 263.917 26.1858 263.917 24.4865C263.917 21.7815 263.331 19.6746 262.156 18.1712C260.98 16.6625 259.434 15.9108 257.516 15.9108C255.599 15.9108 254.146 16.6308 253.017 18.0706C251.889 19.5105 251.325 21.5591 251.325 24.2166V24.2218Z" fill="#358A66"/>
<path d="M293.965 26.0693C288.27 25.8576 284.027 25.8682 282.82 26.0693C282.517 26.1223 281.89 26.2334 281.545 26.7363C281.478 26.8316 281.279 27.1492 281.31 27.8692C281.321 28.1444 281.378 28.8644 282.063 30.0554C282.491 30.8018 283.118 31.887 284.388 32.6546C285.354 33.2369 286.42 33.5281 287.591 33.5281C288.374 33.5281 289.09 33.4328 289.738 33.2475C290.386 33.0622 291.013 32.7711 291.619 32.3741C292.466 31.8182 292.659 31.5641 293.296 31.0983C293.782 30.7489 295.089 29.8014 296.724 29.7272C298.192 29.6637 299.363 30.3254 300 30.7807C299.404 31.9664 298.255 33.8245 296.186 35.3597C295.81 35.6402 294.545 36.5454 292.659 37.1966C291.243 37.6836 289.618 37.9271 287.779 37.9271C283.573 37.9271 280.302 36.7148 277.972 34.2851C275.636 31.8553 274.471 28.5573 274.471 24.3965C274.471 22.4379 274.758 20.6169 275.333 18.9441C275.908 17.2713 276.749 15.8315 277.851 14.6298C278.954 13.4334 280.312 12.5123 281.927 11.8718C283.541 11.2313 285.334 10.9137 287.298 10.9137C289.858 10.9137 292.048 11.4589 293.882 12.5547C295.716 13.6505 297.084 15.0639 297.994 16.7949C298.903 18.5259 299.363 20.294 299.363 22.0938C299.363 23.7613 298.892 24.8412 297.947 25.3388C297.001 25.8311 295.674 26.0799 293.965 26.0799V26.0693ZM281.159 22.3056C281.493 22.7343 282.319 22.4855 283.379 22.3056C286.723 21.7444 290.276 22.2526 290.647 22.3056C291.901 22.4908 292.669 22.7396 293.025 22.3056C293.343 21.9138 293.114 21.231 292.654 19.9023C292.319 18.9229 292.011 18.0654 291.212 17.2131C290.731 16.6996 290.271 16.4032 290.094 16.2973C289.237 15.7785 288.233 15.5244 287.073 15.5244C285.443 15.5244 284.106 16.0961 283.056 17.2396C282.287 18.0812 282.005 18.8647 281.483 20.3522C280.924 21.9509 281.075 22.2103 281.148 22.3056H281.159Z" fill="#358A66"/>
<path d="M41.4599 7.49927C41.2196 6.81639 40.9897 5.82119 41.1307 4.646C41.2196 3.93136 41.3293 3.01027 42.0242 2.24269C42.6408 1.56511 43.3931 1.36924 44.1821 1.16279C44.8561 0.988102 46.037 0.78165 47.547 1.06221C47.6515 1.58628 47.7612 2.4015 47.6671 3.39141C47.5835 4.29662 47.4999 5.17007 46.8886 5.9747C46.2198 6.85874 45.3002 7.16048 44.6628 7.36693C43.3304 7.80101 42.1444 7.65279 41.4547 7.49927H41.4599ZM47.6828 23.6237C47.6724 32.0458 47.4529 35.0262 45.3264 36.7625C43.8425 37.9694 41.9876 38.1229 40.7389 38.0912C40.7075 31.8341 40.6187 26.9004 40.5456 23.6925C40.4045 17.6101 40.253 14.2804 42.4474 12.5441C43.9731 11.3319 46.0265 11.3742 47.5574 11.6124C47.6567 16.0432 47.6933 20.0716 47.688 23.6237H47.6828Z" fill="#358A66"/>
<path d="M140.159 7.89629C139.919 7.21341 139.689 6.21821 139.83 5.04302C139.919 4.32838 140.028 3.40729 140.723 2.63971C141.34 1.96213 142.092 1.76626 142.881 1.55981C143.555 1.38512 144.736 1.17867 146.246 1.45923C146.35 1.9833 146.46 2.79852 146.366 3.78843C146.283 4.69364 146.199 5.56709 145.588 6.37172C144.919 7.25576 143.999 7.5575 143.362 7.76395C142.029 8.19803 140.843 8.0498 140.154 7.89629H140.159ZM146.382 24.0207C146.371 32.4429 146.152 35.4232 144.025 37.1595C142.541 38.3664 140.687 38.52 139.438 38.4882C139.406 32.2311 139.318 27.2975 139.245 24.0895C139.103 18.0071 138.952 14.6774 141.146 12.9411C142.672 11.7289 144.725 11.7712 146.256 12.0094C146.356 16.4402 146.392 20.4687 146.387 24.0207H146.382Z" fill="#358A66"/>
<path d="M73.3372 15.7732C74.4815 14.2434 75.7303 13.1264 77.0887 12.4065C78.4472 11.6918 80.0043 11.3319 81.7651 11.3319C83.5259 11.3319 85.0097 11.7077 86.3578 12.4647C87.7058 13.2217 88.7142 14.291 89.383 15.6726C89.8115 16.4773 90.0884 17.3454 90.2138 18.2771C90.3392 19.2088 90.4019 20.3999 90.4019 21.845V34.0998C90.4123 35.4232 90.4228 36.7466 90.4332 38.0647C89.1427 38.0965 86.8698 37.943 85.4016 36.3654C84.4298 35.3173 84.1581 34.0204 84.0327 30.7013C83.7349 22.7608 84.8843 20.0769 83.0347 18.1395C82.9041 18.0018 81.3732 16.4137 79.4765 16.4137C78.3166 16.4137 77.2612 16.7631 76.3102 17.4619C75.1346 18.3248 74.5233 19.5635 74.215 20.3416C73.1073 23.1367 73.6089 25.8099 73.3529 31.1353C73.1805 34.7774 72.8409 35.6667 72.2139 36.3813C70.8188 37.9694 68.5199 38.0965 67.2659 38.0594L67.2397 34.0945V15.0745C67.292 13.8252 67.339 12.5759 67.3913 11.3266C67.8302 11.2842 69.5074 11.1783 71.1166 12.3324C72.8356 13.5658 73.2484 15.3656 73.332 15.7732H73.3372Z" fill="#358A66"/>
<path d="M184.393 33.184C183.165 34.7191 181.89 35.8414 180.568 36.5613C179.246 37.2812 177.747 37.6359 176.075 37.6359C174.069 37.6359 172.219 37.1118 170.531 36.0637C168.844 35.0156 167.511 33.4804 166.529 31.4635C165.552 29.4467 165.061 27.0592 165.061 24.3013C165.061 22.2685 165.343 20.3998 165.907 18.6953C166.472 16.9907 167.25 15.5668 168.238 14.4127C169.225 13.2587 170.39 12.3694 171.738 11.75C173.086 11.1307 174.528 10.8184 176.075 10.8184C177.94 10.8184 179.503 11.1995 180.767 11.9565C182.031 12.7135 183.238 13.8304 184.388 15.2968C184.336 14.2116 184.304 12.6076 184.43 10.6649C184.602 7.91746 184.691 6.54111 185.365 5.23359C185.741 4.50836 186.922 2.54971 190.224 1.37982C190.355 7.66336 190.464 13.9787 190.558 20.3204C190.653 26.4028 190.726 32.4534 190.788 38.4829C190.355 38.4988 188.009 38.5305 186.159 36.6936C184.811 35.3491 184.482 33.761 184.388 33.184H184.393ZM171.613 24.3754C171.613 26.117 171.874 27.6151 172.402 28.8644C172.93 30.1137 173.656 31.0771 174.586 31.7441C175.516 32.4111 176.55 32.7499 177.679 32.7499C179.482 32.7499 180.997 32.03 182.23 30.5954C183.463 29.1608 184.08 27.0434 184.08 24.2536C184.08 21.6227 183.468 19.5793 182.24 18.1183C181.013 16.6572 179.492 15.9267 177.679 15.9267C176.597 15.9267 175.594 16.2443 174.669 16.8849C173.745 17.5201 173.008 18.4783 172.449 19.754C171.89 21.0298 171.613 22.5702 171.613 24.3754Z" fill="#358A66"/>
<path d="M115.539 33.184C116.767 34.7191 118.042 35.8414 119.364 36.5613C120.685 37.2812 122.185 37.6359 123.857 37.6359C125.863 37.6359 127.713 37.1118 129.401 36.0637C131.088 35.0156 132.421 33.4804 133.403 31.4635C134.38 29.4467 134.871 27.0592 134.871 24.3013C134.871 22.2685 134.589 20.3998 134.025 18.6953C133.46 16.9907 132.682 15.5668 131.694 14.4127C130.707 13.2587 129.542 12.3694 128.194 11.75C126.846 11.1307 125.404 10.8184 123.857 10.8184C121.992 10.8184 120.429 11.1995 119.165 11.9565C117.901 12.7135 116.694 13.8304 115.544 15.2968C115.596 14.2116 115.628 12.6076 115.502 10.6649C115.33 7.91746 115.241 6.54111 114.567 5.23359C114.191 4.50836 113.01 2.54971 109.708 1.37982C109.577 7.66336 109.468 13.9787 109.373 20.3204C109.279 26.4028 109.206 32.4534 109.144 38.4829C109.577 38.4988 111.923 38.5305 113.773 36.6936C115.121 35.3491 115.45 33.761 115.544 33.184H115.539ZM128.319 24.3754C128.319 26.117 128.058 27.6151 127.53 28.8644C127.002 30.1137 126.276 31.0771 125.346 31.7441C124.416 32.4111 123.381 32.7499 122.253 32.7499C120.45 32.7499 118.935 32.03 117.702 30.5954C116.469 29.1608 115.852 27.0434 115.852 24.2536C115.852 21.6227 116.464 19.5793 117.692 18.1183C118.919 16.6572 120.44 15.9267 122.253 15.9267C123.334 15.9267 124.338 16.2443 125.262 16.8849C126.187 17.5201 126.924 18.4783 127.483 19.754C128.042 21.0298 128.319 22.5702 128.319 24.3754Z" fill="#358A66"/>
<path d="M203.694 28.5468V33.8669C203.522 34.4121 203.072 35.5926 201.928 36.5507C200.047 38.1229 197.805 37.8371 197.414 37.7789C197.393 28.7903 197.367 19.807 197.346 10.8184C197.649 10.776 200.094 10.4849 201.928 12.3218C203.281 13.6769 203.454 15.3497 203.485 15.8103C204.237 14.5028 205.011 13.5181 205.8 12.8458C206.589 12.1788 207.644 11.8453 208.966 11.8453C210.91 11.8453 212.31 12.5547 212.811 12.8458C214.175 13.6505 214.954 14.7145 215.335 15.3233C213.956 17.0966 212.733 17.5678 211.834 17.6419C210.633 17.7425 210.021 17.1284 208.167 17.3243C207.43 17.4037 206.62 17.4619 205.909 18.0601C205.324 18.5524 204.875 19.2776 204.551 20.241C204.227 21.2045 204.007 22.3532 203.882 23.6819C203.757 25.0106 203.699 26.6305 203.699 28.5468H203.694Z" fill="#358A66"/>
<path d="M60.7243 37.9483C60.7243 39.5522 60.672 40.8597 60.5675 41.8708C60.463 42.8819 60.3167 43.6177 60.1234 44.0677C59.0366 46.8839 56.7272 48.2973 53.1952 48.2973C51.2201 48.2973 49.684 47.8209 48.686 47.4715C47.6933 47.1221 46.8939 46.7198 46.3296 46.4022C46.6379 45.7246 47.176 44.8564 48.0852 44.1365C49.0309 43.3901 50.0341 43.0884 50.3214 43.0037C51.4657 42.6702 51.9725 42.5908 51.9725 42.5908C52.5002 42.5114 52.913 42.4955 53.2892 42.1726C53.4773 42.0085 53.6288 41.802 53.7385 41.5426C54.0364 40.8439 54.1827 39.5999 54.1827 37.8V15.4503C54.0625 14.4445 54.2976 13.7616 54.4805 13.3858C55.3374 11.6071 57.8453 10.6596 60.7086 11.1625C60.7138 20.0928 60.7191 29.0179 60.7295 37.9483H60.7243Z" fill="#358A66"/>
<path d="M54.47 7.83806C54.2296 7.15518 53.9997 6.15998 54.1408 4.98479C54.2296 4.27015 54.3393 3.34906 55.0343 2.58148C55.6508 1.9039 56.4032 1.70803 57.1922 1.50158C57.8662 1.32689 59.047 1.12044 60.557 1.401C60.6615 1.92507 60.7712 2.74029 60.6772 3.7302C60.5936 4.63541 60.51 5.50886 59.8987 6.31349C59.2299 7.19753 58.3103 7.49927 57.6728 7.70572C56.3405 8.1398 55.1544 7.99158 54.4647 7.83806H54.47Z" fill="#358A66"/>
<path d="M159.982 38.033C159.982 39.6369 159.93 40.9445 159.826 41.9555C159.721 42.9666 159.575 43.7024 159.381 44.1524C158.295 46.9686 155.985 48.382 152.453 48.382C150.478 48.382 148.942 47.9056 147.944 47.5562C146.951 47.2068 146.152 46.8045 145.588 46.4869C145.896 45.8093 146.434 44.9411 147.343 44.2212C148.289 43.4748 149.292 43.1731 149.579 43.0884C150.724 42.7549 151.231 42.6755 151.231 42.6755C151.758 42.5961 152.171 42.5802 152.547 42.2573C152.735 42.0932 152.887 41.8867 152.997 41.6273C153.294 40.9286 153.441 39.6846 153.441 37.8847V15.535C153.321 14.5292 153.556 13.8463 153.739 13.4705C154.595 11.6918 157.103 10.7443 159.967 11.2472C159.972 20.1775 159.977 29.1026 159.988 38.033H159.982Z" fill="#358A66"/>
<path d="M153.728 7.92806C153.488 7.24518 153.258 6.24998 153.399 5.07479C153.488 4.36015 153.597 3.43906 154.292 2.67148C154.909 1.99389 155.661 1.79803 156.45 1.59158C157.124 1.41689 158.305 1.21044 159.815 1.491C159.92 2.01507 160.029 2.83029 159.935 3.8202C159.852 4.72541 159.768 5.59886 159.157 6.40349C158.488 7.28753 157.568 7.58926 156.931 7.79572C155.599 8.22979 154.412 8.08157 153.723 7.92806H153.728Z" fill="#358A66"/>
</g>
<defs>
<filter id="filter0_i_25_426" x="0" y="0.924576" width="300" height="47.4574" filterUnits="userSpaceOnUse" color-interpolation-filters="sRGB">
<feFlood flood-opacity="0" result="BackgroundImageFix"/>
<feBlend mode="normal" in="SourceGraphic" in2="BackgroundImageFix" result="shape"/>
<feColorMatrix in="SourceAlpha" type="matrix" values="0 0 0 0 0 0 0 0 0 0 0 0 0 0 0 0 0 0 127 0" result="hardAlpha"/>
<feOffset/>
<feGaussianBlur stdDeviation="2"/>
<feComposite in2="hardAlpha" operator="arithmetic" k2="-1" k3="1"/>
<feColorMatrix type="matrix" values="0 0 0 0 0 0 0 0 0 0 0 0 0 0 0 0 0 0 0.4 0"/>
<feBlend mode="normal" in2="shape" result="effect1_innerShadow_25_426"/>
</filter>
<clipPath id="clip0_25_426">
<rect width="300" height="47.4574" fill="white" transform="translate(0 0.924576)"/>
</clipPath>
</defs>
</svg>
