<svg width="39" height="44" viewBox="0 0 39 44" fill="none" xmlns="http://www.w3.org/2000/svg">
<g id="person 1" clip-path="url(#clip0_2_9)" filter="url(#filter0_i_2_9)">
<path id="Vector" d="M24.9604 22.4357C28.501 20.335 30.8767 16.4748 30.8767 12.0599C30.8767 5.39839 25.4768 0 18.8167 0C12.1567 0 6.75835 5.39839 6.75835 12.0584C6.75835 16.5486 9.21398 20.4625 12.8559 22.5386C11.2224 23.1133 7.53899 24.6577 4.42566 28.4026C2.94736 30.1806 -0.865163 34.766 0.178249 37.99C2.76296 45.9839 35.3408 46.0223 37.9547 37.99C39.0288 34.6907 35.0565 30.0008 33.5935 28.2735C30.3865 24.4871 26.6016 22.9812 24.9589 22.4341L24.9604 22.4357Z" fill="#358A66"/>
</g>
<defs>
<filter id="filter0_i_2_9" x="0" y="0" width="38.136" height="44" filterUnits="userSpaceOnUse" color-interpolation-filters="sRGB">
<feFlood flood-opacity="0" result="BackgroundImageFix"/>
<feBlend mode="normal" in="SourceGraphic" in2="BackgroundImageFix" result="shape"/>
<feColorMatrix in="SourceAlpha" type="matrix" values="0 0 0 0 0 0 0 0 0 0 0 0 0 0 0 0 0 0 127 0" result="hardAlpha"/>
<feOffset/>
<feGaussianBlur stdDeviation="2"/>
<feComposite in2="hardAlpha" operator="arithmetic" k2="-1" k3="1"/>
<feColorMatrix type="matrix" values="0 0 0 0 0 0 0 0 0 0 0 0 0 0 0 0 0 0 0.4 0"/>
<feBlend mode="normal" in2="shape" result="effect1_innerShadow_2_9"/>
</filter>
<clipPath id="clip0_2_9">
<rect width="38.136" height="44" fill="white"/>
</clipPath>
</defs>
</svg>
