<svg width="350" height="54" viewBox="0 0 350 54" fill="none" xmlns="http://www.w3.org/2000/svg">
<g clip-path="url(#clip0_2_113)" filter="url(#filter0_i_2_113)">
<path d="M31.5493 29.3252C31.5493 31.7864 30.9138 33.9971 29.6474 35.9572C28.3809 37.9173 26.5238 39.4523 24.0848 40.5621C20.6704 42.1149 17.6944 42.2134 15.3987 42.2268C13.0985 42.2402 10.418 42.2268 7.3615 40.8708C5.68782 40.128 3.52188 39.1658 2.08986 36.7672C1.62893 35.9975 0.451982 33.76 0.930815 30.8914C1.2217 29.1372 2.00483 27.8842 2.48814 27.2219C3.86199 29.7861 5.47302 31.4821 6.57836 32.4801C7.61658 33.4199 8.87407 34.5341 10.8789 35.3262C12.8658 36.1094 14.5574 36.172 15.1795 36.172C17.6228 36.172 19.6053 35.6037 21.1313 34.467C22.6573 33.3303 23.4225 31.9118 23.4225 30.2067C23.4225 28.8553 23.0108 27.7589 22.1874 26.9176C21.364 26.0763 20.2989 25.4318 18.9967 24.9888C17.6944 24.5458 15.9492 24.0714 13.7653 23.5747C10.8431 22.89 8.39524 22.089 6.42621 21.176C4.45717 20.2631 2.8909 19.0101 1.73633 17.4304C0.58176 15.8507 0 13.8817 0 11.5323C0 9.18285 0.60861 7.30332 1.83031 5.56699C3.052 3.82619 4.81965 2.49262 7.12879 1.55733C9.44241 0.630985 12.1632 0.161102 15.2913 0.161102C17.7884 0.161102 19.9499 0.469882 21.7712 1.09192C24.1788 1.91086 25.5348 2.88195 26.309 3.56216C27.1279 4.28265 27.8573 4.94496 28.1885 6.06372C28.7121 7.83138 27.8484 9.43346 27.5709 9.89886C25.1454 8.18491 22.8766 7.31675 21.3461 6.86029C18.3568 5.96527 15.9357 5.9608 14.7364 6.01897C11.3935 6.1756 9.98837 7.13327 9.59008 7.41967C8.28784 8.35496 7.63448 9.47821 7.63448 10.7894C7.63448 11.6039 7.85823 12.3065 8.30126 12.8972C8.74429 13.4879 9.35738 13.998 10.1316 14.4232C10.9102 14.8483 11.6934 15.1839 12.4899 15.4211C13.2865 15.6628 14.5977 16.0118 16.4325 16.4772C18.7282 17.0142 20.8046 17.6049 22.6618 18.2538C24.5189 18.9027 26.1031 19.6859 27.4054 20.6122C28.7076 21.5385 29.7279 22.7065 30.4574 24.1206C31.1868 25.5348 31.5537 27.2711 31.5537 29.3252H31.5493Z" fill="#358A66"/>
<path d="M65.1839 32.8515C65.0989 33.5317 64.9826 34.6505 64.3381 35.8767C63.7743 36.9507 62.9151 37.971 61.756 38.9421C60.6015 39.9132 59.1426 40.6963 57.3839 41.287C55.6252 41.8777 53.6472 42.1731 51.4455 42.1731C46.7645 42.1731 43.1129 40.8082 40.486 38.0784C37.8591 35.3486 36.5435 31.6925 36.5435 27.1055C36.5435 23.9998 37.1431 21.2521 38.3469 18.8624C39.5507 16.4772 41.287 14.629 43.5648 13.3268C45.8427 12.0245 48.559 11.3712 51.7229 11.3712C53.683 11.3712 55.482 11.6576 57.1198 12.2304C58.7577 12.8032 60.145 13.546 61.2817 14.45C62.0514 15.0631 63.1075 15.9178 63.8906 17.3499C65.1526 19.6635 64.8931 22.0263 64.7096 23.0735C62.3154 23.6194 61.0132 23.163 60.2614 22.5991C59.1113 21.7354 59.3126 20.6793 57.6121 19.0191C57.1825 18.5984 56.377 17.8242 55.0792 17.2827C54.6228 17.0903 53.3653 16.6159 51.8214 16.7055C48.8633 16.871 46.8764 18.9967 46.2007 19.8246C44.2361 22.2411 44.1466 25.0157 44.1466 26.9981C44.1466 28.4212 44.3211 29.7324 44.6747 30.9228C45.0237 32.1176 45.5339 33.1334 46.2007 33.9748C46.8675 34.8161 47.673 35.456 48.6127 35.8901C49.557 36.3242 50.5907 36.5435 51.7184 36.5435C53.4503 36.5435 54.842 35.9259 55.6162 35.4873C58.6727 33.7734 58.3773 31.3613 61.0087 30.0233C61.7784 29.6339 63.0672 29.1999 65.0631 29.446C65.2153 30.2336 65.354 31.424 65.175 32.8515H65.1839Z" fill="#358A66"/>
<path d="M77.7813 4.77043V16.0073C78.7434 14.8975 79.6832 14.0204 80.5961 13.3715C81.5135 12.7226 82.5248 12.2393 83.6347 11.9126C84.7445 11.5904 85.9393 11.4249 87.2147 11.4249C89.139 11.4249 90.844 11.8321 92.3342 12.6466C93.8244 13.461 94.9924 14.6424 95.8427 16.1998C96.3797 17.1082 96.7377 18.1196 96.9256 19.2383C97.1091 20.3571 97.2031 21.6459 97.2031 23.1093V37.6219C97.1628 38.9242 97.1225 40.2264 97.0778 41.5287C96.7242 41.6227 93.9363 42.3163 91.6361 40.5173C90.3473 39.5104 89.8416 38.2082 89.6536 37.6175V24.8232C89.6536 22.4022 89.2912 20.5361 88.5707 19.2339C87.8502 17.9316 86.4808 17.2783 84.4626 17.2783C83.1111 17.2783 81.8939 17.6631 80.8154 18.4284C79.7324 19.1981 78.9224 20.2452 78.3854 21.5788C77.9782 22.7065 77.7768 24.7158 77.7768 27.6023V37.6219C77.6918 38.1813 77.3785 39.6939 76.0852 40.8977C73.8029 43.0189 70.6211 42.1686 70.4242 42.1149C70.3482 40.6158 70.2766 39.1211 70.2005 37.6219V4.77043C70.281 3.2668 70.3571 1.76318 70.4377 0.259552C70.6793 0.183476 73.427 -0.648888 75.7093 1.14114C77.3919 2.45681 77.7141 4.33187 77.7768 4.77043H77.7813Z" fill="#358A66"/>
<path d="M133.057 26.8281C133.057 29.0835 132.704 31.1644 132.001 33.0708C131.299 34.9772 130.283 36.6151 128.949 37.9844C127.616 39.3538 126.027 40.4054 124.174 41.1349C122.326 41.8643 120.241 42.2313 117.932 42.2313C115.622 42.2313 113.573 41.8598 111.743 41.1215C109.912 40.3831 108.324 39.3225 106.986 37.9441C105.643 36.5658 104.627 34.9369 103.934 33.0618C103.24 31.1823 102.891 29.1059 102.891 26.8325C102.891 24.5592 103.24 22.438 103.947 20.5316C104.65 18.6253 105.656 16.9963 106.972 15.6493C108.283 14.2979 109.876 13.2596 111.747 12.5257C113.613 11.7963 115.676 11.4293 117.936 11.4293C120.196 11.4293 122.313 11.8008 124.179 12.5392C126.045 13.2775 127.647 14.3337 128.981 15.703C130.314 17.0724 131.326 18.7013 132.019 20.5853C132.713 22.4693 133.062 24.5547 133.062 26.8281H133.057ZM125.454 26.8281C125.454 23.7403 124.774 21.3327 123.414 19.6142C122.053 17.8958 120.227 17.0321 117.932 17.0321C116.45 17.0321 115.148 17.417 114.02 18.1822C112.893 18.9519 112.025 20.0841 111.411 21.5833C110.798 23.0824 110.494 24.8322 110.494 26.8281C110.494 28.8239 110.794 30.5379 111.398 32.0192C111.998 33.5004 112.861 34.6326 113.98 35.4202C115.099 36.2078 116.419 36.6016 117.936 36.6016C120.232 36.6016 122.058 35.7379 123.418 34.0061C124.778 32.2787 125.459 29.8845 125.459 26.8325L125.454 26.8281Z" fill="#358A66"/>
<path d="M167.386 26.8281C167.386 29.0835 167.032 31.1644 166.33 33.0708C165.627 34.9772 164.611 36.6151 163.278 37.9844C161.944 39.3538 160.355 40.4054 158.503 41.1349C156.654 41.8643 154.569 42.2313 152.26 42.2313C149.951 42.2313 147.901 41.8598 146.071 41.1215C144.241 40.3831 142.652 39.3225 141.314 37.9441C139.971 36.5658 138.956 34.9369 138.262 33.0618C137.568 31.1823 137.219 29.1059 137.219 26.8325C137.219 24.5592 137.568 22.438 138.275 20.5316C138.978 18.6253 139.985 16.9963 141.3 15.6493C142.612 14.2979 144.205 13.2596 146.075 12.5257C147.941 11.7963 150.004 11.4293 152.264 11.4293C154.524 11.4293 156.641 11.8008 158.507 12.5392C160.373 13.2775 161.975 14.3337 163.309 15.703C164.642 17.0724 165.654 18.7013 166.347 20.5853C167.041 22.4693 167.39 24.5547 167.39 26.8281H167.386ZM159.783 26.8281C159.783 23.7403 159.102 21.3327 157.742 19.6142C156.381 17.8958 154.556 17.0321 152.26 17.0321C150.779 17.0321 149.476 17.417 148.349 18.1822C147.221 18.9519 146.353 20.0841 145.74 21.5833C145.127 23.0824 144.822 24.8322 144.822 26.8281C144.822 28.8239 145.122 30.5379 145.726 32.0192C146.326 33.5004 147.19 34.6326 148.308 35.4202C149.427 36.2078 150.747 36.6016 152.264 36.6016C154.56 36.6016 156.386 35.7379 157.746 34.0061C159.107 32.2787 159.787 29.8845 159.787 26.8325L159.783 26.8281Z" fill="#358A66"/>
<path d="M180.234 16.5354C181.567 14.7767 183.022 13.4879 184.606 12.6645C186.185 11.841 188.007 11.4293 190.056 11.4293C192.106 11.4293 193.838 11.8634 195.413 12.7316C196.984 13.5997 198.161 14.8304 198.939 16.4235C199.441 17.3499 199.763 18.3478 199.91 19.4218C200.058 20.4958 200.134 21.8652 200.134 23.5299V37.6264C200.148 39.1479 200.157 40.6695 200.17 42.191C198.666 42.2268 196.017 42.0523 194.308 40.2354C193.171 39.0316 192.862 37.5369 192.715 33.7197C192.366 24.5861 193.704 21.4938 191.551 19.2697C191.399 19.113 189.613 17.2872 187.403 17.2872C186.051 17.2872 184.821 17.69 183.711 18.4955C182.341 19.4889 181.63 20.9165 181.267 21.8115C179.974 25.0291 180.556 28.1035 180.26 34.2298C180.059 38.4185 179.665 39.4388 178.931 40.2667C177.307 42.0925 174.626 42.2402 173.167 42.1955L173.136 37.6309V15.7388C173.194 14.3023 173.252 12.8658 173.311 11.4293C173.821 11.3801 175.781 11.2593 177.656 12.5884C179.656 14.007 180.144 16.0789 180.243 16.5443L180.234 16.5354Z" fill="#358A66"/>
<path d="M305.934 7.87166C305.67 7.1288 305.415 6.03688 305.572 4.75701C305.665 3.97834 305.791 2.97145 306.56 2.13909C307.245 1.39623 308.073 1.1859 308.946 0.957669C309.689 0.765241 310.995 0.541487 312.664 0.845793C312.781 1.4186 312.902 2.30914 312.799 3.38763C312.705 4.37215 312.611 5.32534 311.94 6.20693C311.201 7.17355 310.185 7.50023 309.478 7.72846C308.01 8.20281 306.695 8.04171 305.93 7.87166H305.934ZM312.812 25.4632C312.803 34.6505 312.562 37.9039 310.208 39.7968C308.57 41.1125 306.516 41.2826 305.137 41.2423C305.106 34.4178 305.003 29.0343 304.923 25.5348C304.766 18.8982 304.6 15.269 307.021 13.3715C308.709 12.0514 310.977 12.0917 312.669 12.3602C312.781 17.1977 312.817 21.5878 312.812 25.4632Z" fill="#358A66"/>
<path d="M327.553 16.5891C328.976 14.8304 330.457 13.5416 331.992 12.7182C333.527 11.8947 335.268 11.483 337.21 11.483C339.542 11.483 341.685 12.0827 343.65 13.2865C345.61 14.4903 347.158 16.2445 348.299 18.5581C349.436 20.8717 350.004 23.6105 350.004 26.7699C350.004 29.1014 349.678 31.2405 349.02 33.1916C348.362 35.1427 347.463 36.7806 346.313 38.1053C345.167 39.4299 343.811 40.4457 342.249 41.1572C340.687 41.8688 339.005 42.2268 337.215 42.2268C335.049 42.2268 333.232 41.7927 331.764 40.9245C330.296 40.0564 328.891 38.781 327.562 37.0939C327.62 38.3424 327.656 40.1772 327.517 42.4013C327.316 45.5518 327.213 47.1315 326.43 48.6261C325.996 49.4585 324.622 51.7005 320.782 53.043C320.635 45.8382 320.5 38.5975 320.393 31.3255C320.286 24.3533 320.196 17.417 320.129 10.5075C320.63 10.4896 323.36 10.4493 325.508 12.5615C327.079 14.101 327.459 15.9223 327.566 16.5846L327.553 16.5891ZM342.397 26.6893C342.397 24.6935 342.093 22.975 341.479 21.543C340.871 20.111 340.021 19.0101 338.942 18.2404C337.859 17.4707 336.66 17.0903 335.349 17.0903C333.259 17.0903 331.496 17.9137 330.064 19.5605C328.632 21.2074 327.911 23.6329 327.911 26.8325C327.911 29.8487 328.623 32.1937 330.046 33.8674C331.469 35.541 333.236 36.3779 335.344 36.3779C336.602 36.3779 337.77 36.0109 338.839 35.2815C339.913 34.552 340.772 33.4556 341.421 31.9923C342.07 30.5289 342.392 28.7658 342.392 26.6938L342.397 26.6893Z" fill="#358A66"/>
<path d="M231.357 33.1066C231.357 34.928 230.842 36.5658 229.817 38.0202C228.793 39.4746 227.289 40.6113 225.311 41.4347C222.545 42.5848 220.138 42.6564 218.276 42.6698C216.415 42.6788 214.244 42.6698 211.769 41.6629C210.413 41.1125 208.659 40.3965 207.5 38.6244C207.129 38.056 206.176 36.4002 206.56 34.2701C206.793 32.9723 207.429 32.0415 207.822 31.5537C208.937 33.4512 210.239 34.7087 211.134 35.4515C211.975 36.1496 212.991 36.9731 214.616 37.5593C216.227 38.1411 217.596 38.1858 218.097 38.1858C220.075 38.1858 221.682 37.7651 222.917 36.9238C224.152 36.0825 224.77 35.0309 224.77 33.7689C224.77 32.7665 224.434 31.9565 223.772 31.3345C223.105 30.7124 222.246 30.2336 221.189 29.9069C220.133 29.5802 218.719 29.2267 216.956 28.8597C214.589 28.3541 212.606 27.7589 211.013 27.0831C209.42 26.4074 208.154 25.4811 207.214 24.3086C206.279 23.1361 205.809 21.6817 205.809 19.9409C205.809 18.2001 206.301 16.8084 207.29 15.5196C208.279 14.2307 209.711 13.2417 211.581 12.5481C213.452 11.8545 215.654 11.5099 218.187 11.5099C220.209 11.5099 221.959 11.7381 223.431 12.199C225.378 12.8032 226.479 13.5237 227.106 14.0294C227.768 14.5619 228.363 15.0541 228.627 15.882C229.048 17.1888 228.35 18.3747 228.126 18.7237C226.161 17.4528 224.322 16.8129 223.082 16.4727C220.661 15.8104 218.701 15.806 217.73 15.8507C215.023 15.9671 213.886 16.6786 213.564 16.8889C212.508 17.5826 211.98 18.4149 211.98 19.386C211.98 19.9902 212.159 20.5093 212.521 20.9478C212.879 21.3864 213.376 21.7623 214.002 22.08C214.633 22.3933 215.269 22.6439 215.913 22.8184C216.558 22.9974 217.623 23.257 219.104 23.6015C220.961 23.9998 222.644 24.4384 224.147 24.9172C225.651 25.396 226.935 25.9778 227.992 26.6625C229.048 27.3472 229.871 28.2153 230.462 29.2625C231.053 30.3097 231.348 31.594 231.348 33.1155L231.357 33.1066Z" fill="#358A66"/>
<path d="M265.291 32.8515C265.206 33.5317 265.09 34.6505 264.446 35.8767C263.882 36.9507 263.022 37.971 261.863 38.9421C260.709 39.9132 259.25 40.6963 257.491 41.287C255.733 41.8777 253.755 42.1731 251.553 42.1731C246.872 42.1731 243.22 40.8082 240.593 38.0784C237.967 35.3486 236.651 31.6925 236.651 27.1055C236.651 23.9998 237.251 21.2521 238.454 18.8624C239.658 16.4772 241.394 14.629 243.672 13.3268C245.95 12.0245 248.666 11.3712 251.83 11.3712C253.79 11.3712 255.589 11.6576 257.227 12.2304C258.865 12.8032 260.252 13.546 261.389 14.45C262.159 15.0631 263.215 15.9178 263.998 17.3499C265.26 19.6635 265 22.0263 264.817 23.0735C262.423 23.6194 261.121 23.163 260.369 22.5991C259.219 21.7354 259.42 20.6793 257.72 19.0191C257.29 18.5984 256.484 17.8242 255.187 17.2827C254.73 17.0903 253.473 16.6159 251.929 16.7055C248.971 16.871 246.984 18.9967 246.308 19.8246C244.344 22.2411 244.254 25.0157 244.254 26.9981C244.254 28.4212 244.429 29.7324 244.782 30.9228C245.131 32.1176 245.641 33.1334 246.308 33.9748C246.975 34.8161 247.78 35.456 248.72 35.8901C249.664 36.3242 250.698 36.5435 251.826 36.5435C253.558 36.5435 254.949 35.9259 255.724 35.4873C258.78 33.7734 258.485 31.3613 261.116 30.0233C261.886 29.6339 263.175 29.1999 265.171 29.446C265.323 30.2336 265.461 31.424 265.282 32.8515H265.291Z" fill="#358A66"/>
<path d="M278.672 4.80175V16.0387C279.634 14.9288 280.574 14.0517 281.487 13.4028C282.404 12.754 283.415 12.2707 284.525 11.944C285.635 11.6218 286.83 11.4562 288.105 11.4562C290.03 11.4562 291.735 11.8634 293.225 12.6779C294.715 13.4923 295.883 14.6738 296.733 16.2311C297.27 17.1395 297.628 18.1509 297.816 19.2697C298 20.3884 298.094 21.6773 298.094 23.1406V37.6533C298.053 38.9555 298.013 40.2578 297.968 41.56C297.615 41.654 294.827 42.3476 292.527 40.5486C291.238 39.5417 290.732 38.2395 290.544 37.6488V24.8546C290.544 22.4335 290.182 20.5674 289.461 19.2652C288.741 17.9629 287.371 17.3096 285.353 17.3096C284.002 17.3096 282.784 17.6944 281.706 18.4597C280.623 19.2294 279.813 20.2766 279.276 21.6101C278.869 22.7378 278.667 24.7472 278.667 27.6336V37.6533C278.582 38.2127 278.269 39.7252 276.976 40.929C274.693 43.0502 271.512 42.1999 271.315 42.1462C271.239 40.6471 271.167 39.1524 271.091 37.6533V4.80175C271.172 3.29813 271.248 1.7945 271.328 0.290879C271.57 0.214803 274.318 -0.617561 276.6 1.17247C278.282 2.48814 278.605 4.3632 278.667 4.80175H278.672Z" fill="#358A66"/>
</g>
<defs>
<filter id="filter0_i_2_113" x="0" y="0" width="350" height="53.0475" filterUnits="userSpaceOnUse" color-interpolation-filters="sRGB">
<feFlood flood-opacity="0" result="BackgroundImageFix"/>
<feBlend mode="normal" in="SourceGraphic" in2="BackgroundImageFix" result="shape"/>
<feColorMatrix in="SourceAlpha" type="matrix" values="0 0 0 0 0 0 0 0 0 0 0 0 0 0 0 0 0 0 127 0" result="hardAlpha"/>
<feOffset/>
<feGaussianBlur stdDeviation="2"/>
<feComposite in2="hardAlpha" operator="arithmetic" k2="-1" k3="1"/>
<feColorMatrix type="matrix" values="0 0 0 0 0 0 0 0 0 0 0 0 0 0 0 0 0 0 0.4 0"/>
<feBlend mode="normal" in2="shape" result="effect1_innerShadow_2_113"/>
</filter>
<clipPath id="clip0_2_113">
<rect width="350" height="53.0475" fill="white"/>
</clipPath>
</defs>
</svg>
