<svg width="158" height="158" viewBox="0 0 158 158" fill="none" xmlns="http://www.w3.org/2000/svg">
<g filter="url(#filter0_d_36_20)">
<rect x="4" y="4" width="150" height="150" rx="30" fill="#56C596"/>
</g>
<g filter="url(#filter1_d_36_20)">
<rect x="14" y="14" width="130" height="130" rx="30" fill="white"/>
</g>
<path d="M72.3871 55.32C71.1711 55.32 70.0938 55.096 69.1551 54.648C68.2378 54.1787 67.4698 53.5493 66.8511 52.76C66.2325 51.9707 65.7631 51.0853 65.4431 50.104C65.1231 49.1227 64.9631 48.1093 64.9631 47.064C64.9631 46.1467 65.0805 45.1227 65.3151 43.992C65.5498 42.8613 65.9018 41.7093 66.3711 40.536C66.8618 39.3413 67.4911 38.2 68.2591 37.112C69.0271 36.024 69.9445 35.0533 71.0111 34.2C72.0778 33.3253 73.3045 32.6533 74.6911 32.184C74.8831 32.1413 75.0538 32.12 75.2031 32.12C75.5445 32.12 75.8431 32.216 76.0991 32.408C76.3765 32.5787 76.5151 32.8987 76.5151 33.368C76.5151 33.6667 76.4191 33.9333 76.2271 34.168C76.0351 34.3813 75.7791 34.5413 75.4591 34.648C74.6058 34.968 73.7631 35.4373 72.9311 36.056C72.1205 36.6533 71.3631 37.368 70.6591 38.2C69.9765 39.0107 69.3791 39.896 68.8671 40.856C68.3765 41.7947 68.0351 42.776 67.8431 43.8L67.0751 44.056C67.4378 43.48 67.8965 42.936 68.4511 42.424C69.0058 41.912 69.6458 41.496 70.3711 41.176C71.1178 40.856 71.9285 40.696 72.8031 40.696C73.7418 40.696 74.6165 40.8987 75.4271 41.304C76.2378 41.7093 76.9525 42.2533 77.5711 42.936C78.1898 43.6187 78.6698 44.408 79.0111 45.304C79.3738 46.1787 79.5551 47.096 79.5551 48.056C79.5551 49.3573 79.2351 50.5627 78.5951 51.672C77.9765 52.76 77.1231 53.6453 76.0351 54.328C74.9685 54.9893 73.7525 55.32 72.3871 55.32ZM72.3551 52.92C73.2298 52.92 74.0085 52.7173 74.6911 52.312C75.3951 51.8853 75.9498 51.3093 76.3551 50.584C76.7605 49.8373 76.9631 48.9947 76.9631 48.056C76.9631 47.1813 76.7818 46.3707 76.4191 45.624C76.0565 44.8773 75.5338 44.28 74.8511 43.832C74.1898 43.3627 73.3898 43.128 72.4511 43.128C71.4485 43.128 70.5845 43.352 69.8591 43.8C69.1338 44.248 68.5685 44.856 68.1631 45.624C67.7791 46.3707 67.5871 47.2027 67.5871 48.12C67.5871 48.9733 67.7791 49.7627 68.1631 50.488C68.5471 51.2133 69.0911 51.8 69.7951 52.248C70.5205 52.696 71.3738 52.92 72.3551 52.92ZM90.2101 55.32C88.4395 55.32 86.9568 54.8187 85.7621 53.816C84.5888 52.8133 83.6928 51.4373 83.0741 49.688C82.4768 47.9387 82.1781 45.976 82.1781 43.8C82.1781 41.5813 82.4768 39.608 83.0741 37.88C83.6928 36.152 84.5888 34.7867 85.7621 33.784C86.9568 32.7813 88.4395 32.28 90.2101 32.28C91.9808 32.28 93.4528 32.7813 94.6261 33.784C95.8208 34.7867 96.7168 36.152 97.3141 37.88C97.9115 39.608 98.2101 41.5813 98.2101 43.8C98.2101 45.976 97.9115 47.9387 97.3141 49.688C96.7168 51.4373 95.8208 52.8133 94.6261 53.816C93.4528 54.8187 91.9808 55.32 90.2101 55.32ZM90.2101 52.728C91.3408 52.728 92.2901 52.3653 93.0581 51.64C93.8475 50.9147 94.4448 49.8907 94.8501 48.568C95.2555 47.224 95.4581 45.6347 95.4581 43.8C95.4581 41.944 95.2555 40.3547 94.8501 39.032C94.4448 37.688 93.8475 36.664 93.0581 35.96C92.2901 35.2347 91.3408 34.872 90.2101 34.872C89.0795 34.872 88.1195 35.2347 87.3301 35.96C86.5621 36.664 85.9648 37.688 85.5381 39.032C85.1328 40.3547 84.9301 41.944 84.9301 43.8C84.9301 45.6347 85.1328 47.224 85.5381 48.568C85.9648 49.8907 86.5621 50.9147 87.3301 51.64C88.1195 52.3653 89.0795 52.728 90.2101 52.728Z" fill="#358A66"/>
<path d="M40.8878 112C40.6958 112 40.5358 111.936 40.4078 111.808C40.2798 111.68 40.2158 111.525 40.2158 111.344V101.456H41.5758V111.344C41.5758 111.525 41.5118 111.68 41.3838 111.808C41.2558 111.936 41.0905 112 40.8878 112ZM37.1758 102.016C36.9945 102.016 36.8398 101.963 36.7118 101.856C36.5945 101.739 36.5358 101.589 36.5358 101.408C36.5358 101.227 36.5945 101.083 36.7118 100.976C36.8398 100.859 36.9945 100.8 37.1758 100.8H44.6158C44.7971 100.8 44.9518 100.859 45.0798 100.976C45.2078 101.083 45.2718 101.227 45.2718 101.408C45.2718 101.6 45.2078 101.749 45.0798 101.856C44.9518 101.963 44.7971 102.016 44.6158 102.016H37.1758ZM50.9731 103.6C51.6771 103.6 52.2317 103.755 52.6371 104.064C53.0531 104.363 53.3464 104.768 53.5171 105.28C53.6984 105.781 53.7891 106.341 53.7891 106.96V111.344C53.7891 111.525 53.7251 111.68 53.5971 111.808C53.4797 111.936 53.3304 112 53.1491 112C52.9677 112 52.8131 111.936 52.6851 111.808C52.5677 111.68 52.5091 111.525 52.5091 111.344V106.96C52.5091 106.555 52.4504 106.192 52.3331 105.872C52.2157 105.541 52.0184 105.28 51.7411 105.088C51.4744 104.885 51.1064 104.784 50.6371 104.784C50.1997 104.784 49.7997 104.885 49.4371 105.088C49.0744 105.28 48.7864 105.541 48.5731 105.872C48.3597 106.192 48.2531 106.555 48.2531 106.96V111.344C48.2531 111.525 48.1891 111.68 48.0611 111.808C47.9437 111.936 47.7944 112 47.6131 112C47.4317 112 47.2771 111.936 47.1491 111.808C47.0317 111.68 46.9731 111.525 46.9731 111.344V100.8C46.9731 100.619 47.0317 100.469 47.1491 100.352C47.2771 100.224 47.4317 100.16 47.6131 100.16C47.8051 100.16 47.9597 100.224 48.0771 100.352C48.1944 100.469 48.2531 100.619 48.2531 100.8V105.584L47.9331 105.936C47.9864 105.659 48.1037 105.381 48.2851 105.104C48.4664 104.816 48.6957 104.56 48.9731 104.336C49.2504 104.112 49.5597 103.936 49.9011 103.808C50.2424 103.669 50.5997 103.6 50.9731 103.6ZM59.9846 112.16C59.1312 112.16 58.3846 111.979 57.7446 111.616C57.1046 111.253 56.6032 110.757 56.2406 110.128C55.8886 109.488 55.7126 108.752 55.7126 107.92C55.7126 106.992 55.8939 106.203 56.2566 105.552C56.6299 104.891 57.1099 104.389 57.6966 104.048C58.2939 103.696 58.9232 103.52 59.5846 103.52C60.0752 103.52 60.5499 103.611 61.0086 103.792C61.4672 103.973 61.8726 104.24 62.2246 104.592C62.5766 104.933 62.8592 105.349 63.0726 105.84C63.2859 106.32 63.3979 106.859 63.4086 107.456C63.4086 107.627 63.3446 107.771 63.2166 107.888C63.0886 108.005 62.9392 108.064 62.7686 108.064H56.4486L56.1606 106.96H62.3206L62.0646 107.184V106.832C62.0219 106.395 61.8726 106.021 61.6166 105.712C61.3712 105.392 61.0672 105.147 60.7046 104.976C60.3526 104.805 59.9792 104.72 59.5846 104.72C59.2646 104.72 58.9446 104.779 58.6246 104.896C58.3152 105.003 58.0326 105.184 57.7766 105.44C57.5312 105.685 57.3286 106.005 57.1686 106.4C57.0192 106.795 56.9446 107.269 56.9446 107.824C56.9446 108.443 57.0672 108.987 57.3126 109.456C57.5686 109.925 57.9206 110.299 58.3686 110.576C58.8166 110.843 59.3392 110.976 59.9366 110.976C60.3099 110.976 60.6352 110.928 60.9126 110.832C61.1899 110.736 61.4299 110.619 61.6326 110.48C61.8352 110.331 62.0059 110.181 62.1446 110.032C62.2832 109.936 62.4166 109.888 62.5446 109.888C62.7046 109.888 62.8326 109.941 62.9286 110.048C63.0352 110.155 63.0886 110.283 63.0886 110.432C63.0886 110.613 63.0032 110.773 62.8326 110.912C62.5339 111.243 62.1286 111.536 61.6166 111.792C61.1046 112.037 60.5606 112.16 59.9846 112.16ZM65.9724 112C65.7911 112 65.6364 111.936 65.5084 111.808C65.3911 111.68 65.3324 111.525 65.3324 111.344V104.368C65.3324 104.187 65.3911 104.037 65.5084 103.92C65.6364 103.792 65.7911 103.728 65.9724 103.728C66.1644 103.728 66.3191 103.792 66.4364 103.92C66.5538 104.037 66.6124 104.187 66.6124 104.368V106.48L66.4204 106.144C66.4844 105.813 66.5964 105.493 66.7564 105.184C66.9271 104.864 67.1404 104.581 67.3964 104.336C67.6524 104.08 67.9458 103.883 68.2764 103.744C68.6071 103.595 68.9698 103.52 69.3644 103.52C69.5991 103.52 69.8124 103.579 70.0044 103.696C70.2071 103.803 70.3084 103.957 70.3084 104.16C70.3084 104.384 70.2498 104.549 70.1324 104.656C70.0151 104.763 69.8818 104.816 69.7324 104.816C69.5938 104.816 69.4604 104.789 69.3324 104.736C69.2044 104.672 69.0444 104.64 68.8524 104.64C68.5858 104.64 68.3191 104.715 68.0524 104.864C67.7964 105.003 67.5564 105.205 67.3324 105.472C67.1191 105.739 66.9431 106.043 66.8044 106.384C66.6764 106.715 66.6124 107.072 66.6124 107.456V111.344C66.6124 111.525 66.5484 111.68 66.4204 111.808C66.3031 111.936 66.1538 112 65.9724 112ZM75.7063 103.6C76.4316 103.6 77.0183 103.787 77.4663 104.16C77.925 104.523 78.229 105.04 78.3783 105.712H78.1383L78.2503 105.424C78.3783 105.125 78.597 104.837 78.9063 104.56C79.2156 104.283 79.573 104.053 79.9783 103.872C80.3836 103.691 80.805 103.6 81.2423 103.6C81.9463 103.6 82.501 103.755 82.9063 104.064C83.3116 104.363 83.5996 104.768 83.7703 105.28C83.9516 105.781 84.0423 106.347 84.0423 106.976V111.344C84.0423 111.525 83.9783 111.68 83.8503 111.808C83.733 111.936 83.5836 112 83.4023 112C83.2103 112 83.0556 111.936 82.9383 111.808C82.821 111.68 82.7623 111.525 82.7623 111.344V107.008C82.7623 106.592 82.6983 106.219 82.5703 105.888C82.453 105.547 82.2556 105.28 81.9783 105.088C81.7116 104.885 81.3436 104.784 80.8743 104.784C80.437 104.784 80.037 104.885 79.6743 105.088C79.3116 105.28 79.0236 105.547 78.8103 105.888C78.597 106.219 78.4903 106.592 78.4903 107.008V111.344C78.4903 111.525 78.4316 111.68 78.3143 111.808C78.197 111.936 78.0423 112 77.8503 112C77.669 112 77.5143 111.936 77.3863 111.808C77.269 111.68 77.2103 111.525 77.2103 111.344V106.96C77.2103 106.555 77.1516 106.192 77.0343 105.872C76.9276 105.541 76.741 105.28 76.4743 105.088C76.2076 104.885 75.8396 104.784 75.3703 104.784C74.9436 104.784 74.5543 104.885 74.2023 105.088C73.8503 105.28 73.5676 105.541 73.3543 105.872C73.141 106.192 73.0343 106.555 73.0343 106.96V111.344C73.0343 111.525 72.9703 111.68 72.8423 111.808C72.725 111.936 72.5756 112 72.3943 112C72.213 112 72.0583 111.936 71.9303 111.808C71.813 111.68 71.7543 111.525 71.7543 111.344V104.368C71.7543 104.187 71.813 104.037 71.9303 103.92C72.0583 103.792 72.213 103.728 72.3943 103.728C72.5863 103.728 72.741 103.792 72.8583 103.92C72.9756 104.037 73.0343 104.187 73.0343 104.368V105.584L72.6823 105.968C72.725 105.691 72.8316 105.413 73.0023 105.136C73.1836 104.859 73.413 104.603 73.6903 104.368C73.9676 104.133 74.277 103.947 74.6183 103.808C74.9596 103.669 75.3223 103.6 75.7063 103.6ZM87.6426 111.344C87.6426 111.525 87.5786 111.68 87.4506 111.808C87.3332 111.936 87.1839 112 87.0026 112C86.8106 112 86.6559 111.936 86.5386 111.808C86.4212 111.68 86.3626 111.525 86.3626 111.344V104.24C86.3626 104.059 86.4212 103.909 86.5386 103.792C86.6666 103.664 86.8212 103.6 87.0026 103.6C87.1839 103.6 87.3332 103.664 87.4506 103.792C87.5786 103.909 87.6426 104.059 87.6426 104.24V111.344ZM87.0026 102.528C86.7359 102.528 86.5386 102.475 86.4106 102.368C86.2826 102.261 86.2186 102.096 86.2186 101.872V101.648C86.2186 101.424 86.2879 101.259 86.4266 101.152C86.5652 101.045 86.7626 100.992 87.0186 100.992C87.2746 100.992 87.4666 101.045 87.5946 101.152C87.7226 101.259 87.7866 101.424 87.7866 101.648V101.872C87.7866 102.096 87.7172 102.261 87.5786 102.368C87.4506 102.475 87.2586 102.528 87.0026 102.528ZM89.4778 110.688C89.3818 110.549 89.3391 110.405 89.3498 110.256C89.3605 110.096 89.4511 109.957 89.6218 109.84C89.7285 109.765 89.8511 109.733 89.9898 109.744C90.1391 109.755 90.2725 109.824 90.3898 109.952C90.6885 110.304 91.0298 110.587 91.4138 110.8C91.7978 111.003 92.2671 111.104 92.8218 111.104C93.0778 111.093 93.3338 111.051 93.5898 110.976C93.8458 110.901 94.0591 110.773 94.2298 110.592C94.4111 110.4 94.5018 110.149 94.5018 109.84C94.5018 109.541 94.4111 109.307 94.2298 109.136C94.0485 108.955 93.8138 108.811 93.5258 108.704C93.2378 108.587 92.9231 108.485 92.5818 108.4C92.2298 108.304 91.8831 108.197 91.5418 108.08C91.2005 107.952 90.8911 107.797 90.6138 107.616C90.3471 107.424 90.1285 107.189 89.9578 106.912C89.7978 106.624 89.7178 106.277 89.7178 105.872C89.7178 105.392 89.8458 104.976 90.1018 104.624C90.3685 104.272 90.7205 104 91.1578 103.808C91.6058 103.616 92.0911 103.52 92.6138 103.52C92.9125 103.52 93.2218 103.557 93.5418 103.632C93.8725 103.696 94.1925 103.813 94.5018 103.984C94.8111 104.144 95.0831 104.368 95.3178 104.656C95.4138 104.763 95.4671 104.896 95.4778 105.056C95.4885 105.216 95.4191 105.36 95.2698 105.488C95.1525 105.573 95.0191 105.611 94.8698 105.6C94.7311 105.589 94.6138 105.536 94.5178 105.44C94.2938 105.173 94.0111 104.971 93.6698 104.832C93.3391 104.683 92.9711 104.608 92.5658 104.608C92.3098 104.608 92.0591 104.645 91.8138 104.72C91.5685 104.795 91.3605 104.923 91.1898 105.104C91.0298 105.275 90.9498 105.515 90.9498 105.824C90.9605 106.112 91.0565 106.347 91.2378 106.528C91.4191 106.709 91.6645 106.859 91.9738 106.976C92.2831 107.083 92.6245 107.189 92.9978 107.296C93.3391 107.381 93.6645 107.483 93.9738 107.6C94.2938 107.707 94.5818 107.851 94.8378 108.032C95.0938 108.213 95.2965 108.448 95.4458 108.736C95.5951 109.013 95.6698 109.365 95.6698 109.792C95.6698 110.283 95.5311 110.709 95.2538 111.072C94.9765 111.424 94.6085 111.696 94.1498 111.888C93.7018 112.069 93.2165 112.16 92.6938 112.16C92.1071 112.16 91.5258 112.048 90.9498 111.824C90.3845 111.6 89.8938 111.221 89.4778 110.688ZM101.2 103.52C101.744 103.52 102.235 103.579 102.672 103.696C103.109 103.813 103.456 103.973 103.712 104.176C103.968 104.379 104.096 104.608 104.096 104.864C104.096 105.003 104.048 105.136 103.952 105.264C103.856 105.392 103.728 105.456 103.568 105.456C103.419 105.456 103.296 105.429 103.2 105.376C103.115 105.323 103.029 105.253 102.944 105.168C102.869 105.083 102.763 105.008 102.624 104.944C102.496 104.869 102.309 104.811 102.064 104.768C101.819 104.725 101.573 104.704 101.328 104.704C100.741 104.704 100.224 104.843 99.7759 105.12C99.3386 105.397 98.9919 105.771 98.7359 106.24C98.4799 106.709 98.3519 107.243 98.3519 107.84C98.3519 108.437 98.4746 108.971 98.7199 109.44C98.9653 109.909 99.3066 110.283 99.7439 110.56C100.181 110.837 100.688 110.976 101.264 110.976C101.637 110.976 101.936 110.944 102.16 110.88C102.384 110.816 102.571 110.741 102.72 110.656C102.912 110.549 103.056 110.443 103.152 110.336C103.259 110.229 103.397 110.176 103.568 110.176C103.749 110.176 103.888 110.235 103.984 110.352C104.091 110.469 104.144 110.613 104.144 110.784C104.144 110.976 104.011 111.179 103.744 111.392C103.477 111.605 103.115 111.787 102.656 111.936C102.208 112.085 101.696 112.16 101.12 112.16C100.309 112.16 99.5999 111.973 98.9919 111.6C98.3839 111.216 97.9093 110.699 97.5679 110.048C97.2373 109.387 97.0719 108.651 97.0719 107.84C97.0719 107.029 97.2426 106.299 97.5839 105.648C97.9359 104.997 98.4213 104.48 99.0399 104.096C99.6586 103.712 100.379 103.52 101.2 103.52ZM109.817 103.6C110.521 103.6 111.075 103.755 111.481 104.064C111.897 104.363 112.19 104.768 112.361 105.28C112.542 105.781 112.633 106.341 112.633 106.96V111.344C112.633 111.525 112.569 111.68 112.441 111.808C112.323 111.936 112.174 112 111.993 112C111.811 112 111.657 111.936 111.529 111.808C111.411 111.68 111.353 111.525 111.353 111.344V106.96C111.353 106.555 111.294 106.192 111.177 105.872C111.059 105.541 110.862 105.28 110.585 105.088C110.318 104.885 109.95 104.784 109.481 104.784C109.043 104.784 108.643 104.885 108.281 105.088C107.918 105.28 107.63 105.541 107.417 105.872C107.203 106.192 107.097 106.555 107.097 106.96V111.344C107.097 111.525 107.033 111.68 106.905 111.808C106.787 111.936 106.638 112 106.457 112C106.275 112 106.121 111.936 105.993 111.808C105.875 111.68 105.817 111.525 105.817 111.344V100.8C105.817 100.619 105.875 100.469 105.993 100.352C106.121 100.224 106.275 100.16 106.457 100.16C106.649 100.16 106.803 100.224 106.921 100.352C107.038 100.469 107.097 100.619 107.097 100.8V105.584L106.777 105.936C106.83 105.659 106.947 105.381 107.129 105.104C107.31 104.816 107.539 104.56 107.817 104.336C108.094 104.112 108.403 103.936 108.745 103.808C109.086 103.669 109.443 103.6 109.817 103.6ZM118.828 112.16C117.975 112.16 117.228 111.979 116.588 111.616C115.948 111.253 115.447 110.757 115.084 110.128C114.732 109.488 114.556 108.752 114.556 107.92C114.556 106.992 114.738 106.203 115.1 105.552C115.474 104.891 115.954 104.389 116.54 104.048C117.138 103.696 117.767 103.52 118.428 103.52C118.919 103.52 119.394 103.611 119.852 103.792C120.311 103.973 120.716 104.24 121.068 104.592C121.42 104.933 121.703 105.349 121.916 105.84C122.13 106.32 122.242 106.859 122.252 107.456C122.252 107.627 122.188 107.771 122.06 107.888C121.932 108.005 121.783 108.064 121.612 108.064H115.292L115.004 106.96H121.164L120.908 107.184V106.832C120.866 106.395 120.716 106.021 120.46 105.712C120.215 105.392 119.911 105.147 119.548 104.976C119.196 104.805 118.823 104.72 118.428 104.72C118.108 104.72 117.788 104.779 117.468 104.896C117.159 105.003 116.876 105.184 116.62 105.44C116.375 105.685 116.172 106.005 116.012 106.4C115.863 106.795 115.788 107.269 115.788 107.824C115.788 108.443 115.911 108.987 116.156 109.456C116.412 109.925 116.764 110.299 117.212 110.576C117.66 110.843 118.183 110.976 118.78 110.976C119.154 110.976 119.479 110.928 119.756 110.832C120.034 110.736 120.274 110.619 120.476 110.48C120.679 110.331 120.85 110.181 120.988 110.032C121.127 109.936 121.26 109.888 121.388 109.888C121.548 109.888 121.676 109.941 121.772 110.048C121.879 110.155 121.932 110.283 121.932 110.432C121.932 110.613 121.847 110.773 121.676 110.912C121.378 111.243 120.972 111.536 120.46 111.792C119.948 112.037 119.404 112.16 118.828 112.16ZM54.5531 123.6C55.2784 123.6 55.9291 123.781 56.5051 124.144C57.0811 124.507 57.5344 125.008 57.8651 125.648C58.2064 126.288 58.3771 127.024 58.3771 127.856C58.3771 128.677 58.2064 129.413 57.8651 130.064C57.5344 130.704 57.0811 131.211 56.5051 131.584C55.9397 131.947 55.2997 132.128 54.5851 132.128C54.1904 132.128 53.8171 132.069 53.4651 131.952C53.1237 131.824 52.8091 131.664 52.5211 131.472C52.2437 131.269 52.0091 131.045 51.8171 130.8C51.6251 130.544 51.4864 130.293 51.4011 130.048L51.7531 129.824V134.544C51.7531 134.725 51.6944 134.88 51.5771 135.008C51.4597 135.136 51.3051 135.2 51.1131 135.2C50.9317 135.2 50.7771 135.136 50.6491 135.008C50.5317 134.891 50.4731 134.736 50.4731 134.544V124.32C50.4731 124.139 50.5317 123.989 50.6491 123.872C50.7771 123.744 50.9317 123.68 51.1131 123.68C51.3051 123.68 51.4597 123.744 51.5771 123.872C51.6944 123.989 51.7531 124.139 51.7531 124.32V125.744L51.5131 125.616C51.5877 125.349 51.7157 125.093 51.8971 124.848C52.0891 124.603 52.3184 124.389 52.5851 124.208C52.8624 124.016 53.1664 123.867 53.4971 123.76C53.8384 123.653 54.1904 123.6 54.5531 123.6ZM54.4091 124.784C53.8757 124.784 53.4011 124.917 52.9851 125.184C52.5797 125.451 52.2597 125.813 52.0251 126.272C51.8011 126.731 51.6891 127.259 51.6891 127.856C51.6891 128.443 51.8011 128.971 52.0251 129.44C52.2597 129.909 52.5797 130.277 52.9851 130.544C53.4011 130.811 53.8757 130.944 54.4091 130.944C54.9424 130.944 55.4117 130.811 55.8171 130.544C56.2224 130.277 56.5424 129.909 56.7771 129.44C57.0117 128.971 57.1291 128.443 57.1291 127.856C57.1291 127.259 57.0117 126.731 56.7771 126.272C56.5424 125.813 56.2224 125.451 55.8171 125.184C55.4117 124.917 54.9424 124.784 54.4091 124.784ZM67.1172 123.648C67.2985 123.648 67.4479 123.712 67.5652 123.84C67.6932 123.957 67.7572 124.107 67.7572 124.288V131.344C67.7572 131.525 67.6932 131.68 67.5652 131.808C67.4479 131.936 67.2985 132 67.1172 132C66.9252 132 66.7705 131.936 66.6532 131.808C66.5359 131.68 66.4772 131.525 66.4772 131.344V129.824L66.7812 129.792C66.7812 130.027 66.7012 130.283 66.5412 130.56C66.3812 130.837 66.1625 131.099 65.8852 131.344C65.6079 131.579 65.2772 131.776 64.8932 131.936C64.5199 132.085 64.1145 132.16 63.6772 132.16C62.9519 132.16 62.3012 131.973 61.7252 131.6C61.1492 131.216 60.6905 130.699 60.3492 130.048C60.0185 129.397 59.8532 128.656 59.8532 127.824C59.8532 126.981 60.0185 126.24 60.3492 125.6C60.6905 124.949 61.1492 124.443 61.7252 124.08C62.3012 123.707 62.9412 123.52 63.6452 123.52C64.1039 123.52 64.5305 123.595 64.9252 123.744C65.3199 123.893 65.6612 124.096 65.9492 124.352C66.2479 124.608 66.4772 124.891 66.6372 125.2C66.8079 125.509 66.8932 125.819 66.8932 126.128L66.4772 126.032V124.288C66.4772 124.107 66.5359 123.957 66.6532 123.84C66.7705 123.712 66.9252 123.648 67.1172 123.648ZM63.8212 130.976C64.3545 130.976 64.8239 130.837 65.2292 130.56C65.6452 130.283 65.9652 129.909 66.1892 129.44C66.4239 128.96 66.5412 128.421 66.5412 127.824C66.5412 127.237 66.4239 126.709 66.1892 126.24C65.9652 125.76 65.6452 125.387 65.2292 125.12C64.8239 124.843 64.3545 124.704 63.8212 124.704C63.2985 124.704 62.8292 124.837 62.4132 125.104C62.0079 125.371 61.6879 125.739 61.4532 126.208C61.2185 126.677 61.1012 127.216 61.1012 127.824C61.1012 128.421 61.2132 128.96 61.4372 129.44C61.6719 129.909 61.9919 130.283 62.3972 130.56C62.8132 130.837 63.2879 130.976 63.8212 130.976ZM74.2413 123.52C74.9666 123.52 75.5373 123.669 75.9533 123.968C76.3693 124.267 76.6626 124.667 76.8333 125.168C77.0146 125.669 77.1053 126.229 77.1053 126.848V131.344C77.1053 131.525 77.0413 131.68 76.9133 131.808C76.796 131.936 76.6466 132 76.4653 132C76.284 132 76.1293 131.936 76.0013 131.808C75.884 131.68 75.8253 131.525 75.8253 131.344V126.88C75.8253 126.475 75.7613 126.112 75.6333 125.792C75.516 125.461 75.3133 125.2 75.0253 125.008C74.748 124.805 74.364 124.704 73.8733 124.704C73.4253 124.704 73.0146 124.805 72.6413 125.008C72.268 125.2 71.9693 125.461 71.7453 125.792C71.5213 126.112 71.4093 126.475 71.4093 126.88V131.344C71.4093 131.525 71.3453 131.68 71.2173 131.808C71.1 131.936 70.9506 132 70.7693 132C70.588 132 70.4333 131.936 70.3053 131.808C70.188 131.68 70.1293 131.525 70.1293 131.344V124.368C70.1293 124.187 70.188 124.037 70.3053 123.92C70.4333 123.792 70.588 123.728 70.7693 123.728C70.9613 123.728 71.116 123.792 71.2333 123.92C71.3506 124.037 71.4093 124.187 71.4093 124.368V125.504L71.0893 125.856C71.1426 125.579 71.2653 125.301 71.4573 125.024C71.6493 124.736 71.8893 124.48 72.1773 124.256C72.4653 124.032 72.7853 123.856 73.1373 123.728C73.4893 123.589 73.8573 123.52 74.2413 123.52ZM83.2971 132.16C82.4437 132.16 81.6971 131.979 81.0571 131.616C80.4171 131.253 79.9157 130.757 79.5531 130.128C79.2011 129.488 79.0251 128.752 79.0251 127.92C79.0251 126.992 79.2064 126.203 79.5691 125.552C79.9424 124.891 80.4224 124.389 81.0091 124.048C81.6064 123.696 82.2357 123.52 82.8971 123.52C83.3877 123.52 83.8624 123.611 84.3211 123.792C84.7797 123.973 85.1851 124.24 85.5371 124.592C85.8891 124.933 86.1717 125.349 86.3851 125.84C86.5984 126.32 86.7104 126.859 86.7211 127.456C86.7211 127.627 86.6571 127.771 86.5291 127.888C86.4011 128.005 86.2517 128.064 86.0811 128.064H79.7611L79.4731 126.96H85.6331L85.3771 127.184V126.832C85.3344 126.395 85.1851 126.021 84.9291 125.712C84.6837 125.392 84.3797 125.147 84.0171 124.976C83.6651 124.805 83.2917 124.72 82.8971 124.72C82.5771 124.72 82.2571 124.779 81.9371 124.896C81.6277 125.003 81.3451 125.184 81.0891 125.44C80.8437 125.685 80.6411 126.005 80.4811 126.4C80.3317 126.795 80.2571 127.269 80.2571 127.824C80.2571 128.443 80.3797 128.987 80.6251 129.456C80.8811 129.925 81.2331 130.299 81.6811 130.576C82.1291 130.843 82.6517 130.976 83.2491 130.976C83.6224 130.976 83.9477 130.928 84.2251 130.832C84.5024 130.736 84.7424 130.619 84.9451 130.48C85.1477 130.331 85.3184 130.181 85.4571 130.032C85.5957 129.936 85.7291 129.888 85.8571 129.888C86.0171 129.888 86.1451 129.941 86.2411 130.048C86.3477 130.155 86.4011 130.283 86.4011 130.432C86.4011 130.613 86.3157 130.773 86.1451 130.912C85.8464 131.243 85.4411 131.536 84.9291 131.792C84.4171 132.037 83.8731 132.16 83.2971 132.16ZM90.0529 131.344C90.0529 131.525 89.9889 131.68 89.8609 131.808C89.7329 131.936 89.5783 132 89.3969 132C89.2156 132 89.0663 131.936 88.9489 131.808C88.8316 131.68 88.7729 131.525 88.7729 131.344V120.8C88.7729 120.619 88.8316 120.469 88.9489 120.352C89.0769 120.224 89.2316 120.16 89.4129 120.16C89.6049 120.16 89.7596 120.224 89.8769 120.352C89.9943 120.469 90.0529 120.619 90.0529 120.8V131.344ZM96.2033 132.16C95.35 132.16 94.6033 131.979 93.9633 131.616C93.3233 131.253 92.822 130.757 92.4593 130.128C92.1073 129.488 91.9313 128.752 91.9313 127.92C91.9313 126.992 92.1126 126.203 92.4753 125.552C92.8486 124.891 93.3286 124.389 93.9153 124.048C94.5126 123.696 95.142 123.52 95.8033 123.52C96.294 123.52 96.7686 123.611 97.2273 123.792C97.686 123.973 98.0913 124.24 98.4433 124.592C98.7953 124.933 99.078 125.349 99.2913 125.84C99.5046 126.32 99.6166 126.859 99.6273 127.456C99.6273 127.627 99.5633 127.771 99.4353 127.888C99.3073 128.005 99.158 128.064 98.9873 128.064H92.6673L92.3793 126.96H98.5393L98.2833 127.184V126.832C98.2406 126.395 98.0913 126.021 97.8353 125.712C97.59 125.392 97.286 125.147 96.9233 124.976C96.5713 124.805 96.198 124.72 95.8033 124.72C95.4833 124.72 95.1633 124.779 94.8433 124.896C94.534 125.003 94.2513 125.184 93.9953 125.44C93.75 125.685 93.5473 126.005 93.3873 126.4C93.238 126.795 93.1633 127.269 93.1633 127.824C93.1633 128.443 93.286 128.987 93.5313 129.456C93.7873 129.925 94.1393 130.299 94.5873 130.576C95.0353 130.843 95.558 130.976 96.1553 130.976C96.5286 130.976 96.854 130.928 97.1313 130.832C97.4086 130.736 97.6486 130.619 97.8513 130.48C98.054 130.331 98.2246 130.181 98.3633 130.032C98.502 129.936 98.6353 129.888 98.7633 129.888C98.9233 129.888 99.0513 129.941 99.1473 130.048C99.254 130.155 99.3073 130.283 99.3073 130.432C99.3073 130.613 99.222 130.773 99.0513 130.912C98.7526 131.243 98.3473 131.536 97.8353 131.792C97.3233 132.037 96.7793 132.16 96.2033 132.16ZM105.663 123.52C106.389 123.52 106.959 123.669 107.375 123.968C107.791 124.267 108.085 124.667 108.255 125.168C108.437 125.669 108.527 126.229 108.527 126.848V131.344C108.527 131.525 108.463 131.68 108.335 131.808C108.218 131.936 108.069 132 107.887 132C107.706 132 107.551 131.936 107.423 131.808C107.306 131.68 107.247 131.525 107.247 131.344V126.88C107.247 126.475 107.183 126.112 107.055 125.792C106.938 125.461 106.735 125.2 106.447 125.008C106.17 124.805 105.786 124.704 105.295 124.704C104.847 124.704 104.437 124.805 104.063 125.008C103.69 125.2 103.391 125.461 103.167 125.792C102.943 126.112 102.831 126.475 102.831 126.88V131.344C102.831 131.525 102.767 131.68 102.639 131.808C102.522 131.936 102.373 132 102.191 132C102.01 132 101.855 131.936 101.727 131.808C101.61 131.68 101.551 131.525 101.551 131.344V124.368C101.551 124.187 101.61 124.037 101.727 123.92C101.855 123.792 102.01 123.728 102.191 123.728C102.383 123.728 102.538 123.792 102.655 123.92C102.773 124.037 102.831 124.187 102.831 124.368V125.504L102.511 125.856C102.565 125.579 102.687 125.301 102.879 125.024C103.071 124.736 103.311 124.48 103.599 124.256C103.887 124.032 104.207 123.856 104.559 123.728C104.911 123.589 105.279 123.52 105.663 123.52Z" fill="#358A66"/>
<rect x="29" y="74" width="100" height="5" rx="2.5" fill="#358A66"/>
<defs>
<filter id="filter0_d_36_20" x="0" y="0" width="158" height="158" filterUnits="userSpaceOnUse" color-interpolation-filters="sRGB">
<feFlood flood-opacity="0" result="BackgroundImageFix"/>
<feColorMatrix in="SourceAlpha" type="matrix" values="0 0 0 0 0 0 0 0 0 0 0 0 0 0 0 0 0 0 127 0" result="hardAlpha"/>
<feOffset/>
<feGaussianBlur stdDeviation="2"/>
<feComposite in2="hardAlpha" operator="out"/>
<feColorMatrix type="matrix" values="0 0 0 0 0 0 0 0 0 0 0 0 0 0 0 0 0 0 0.4 0"/>
<feBlend mode="normal" in2="BackgroundImageFix" result="effect1_dropShadow_36_20"/>
<feBlend mode="normal" in="SourceGraphic" in2="effect1_dropShadow_36_20" result="shape"/>
</filter>
<filter id="filter1_d_36_20" x="10" y="10" width="138" height="138" filterUnits="userSpaceOnUse" color-interpolation-filters="sRGB">
<feFlood flood-opacity="0" result="BackgroundImageFix"/>
<feColorMatrix in="SourceAlpha" type="matrix" values="0 0 0 0 0 0 0 0 0 0 0 0 0 0 0 0 0 0 127 0" result="hardAlpha"/>
<feOffset/>
<feGaussianBlur stdDeviation="2"/>
<feComposite in2="hardAlpha" operator="out"/>
<feColorMatrix type="matrix" values="0 0 0 0 0 0 0 0 0 0 0 0 0 0 0 0 0 0 0.4 0"/>
<feBlend mode="normal" in2="BackgroundImageFix" result="effect1_dropShadow_36_20"/>
<feBlend mode="normal" in="SourceGraphic" in2="effect1_dropShadow_36_20" result="shape"/>
</filter>
</defs>
</svg>
