<svg width="330" height="51" viewBox="0 0 330 51" fill="none" xmlns="http://www.w3.org/2000/svg">
<g clip-path="url(#clip0_25_358)" filter="url(#filter0_i_25_358)">
<path d="M20.3601 9.07753C19.562 9.83769 19.4972 10.9631 19.4722 11.5653C19.3027 15.4797 19.4273 17.4294 19.4722 20.9193C19.577 29.2416 19.7316 30.8162 19.4722 35.6733C19.4473 36.1571 19.2578 38.7584 17.0183 40.7329C14.7438 42.7419 12.0654 42.6037 11.5916 42.574C11.6265 35.5302 11.6614 28.4864 11.6963 21.4474C11.7063 19.6704 12.0006 16.926 11.7462 11.3383C11.7213 10.8002 11.6514 9.64518 10.8334 8.92451C10.4344 8.57404 9.90073 8.36672 8.16998 8.268C6.39933 8.16434 5.11249 8.268 4.05009 8.33217C3.11239 8.38647 1.7258 8.43583 0.0100098 8.39634C0.159642 7.66086 0.633479 5.86411 2.21959 4.24506C3.86555 2.56185 5.75591 2.04849 6.48911 1.89053C14.8236 1.92015 23.1632 1.94977 31.4977 1.97938C31.3182 4.1414 30.4403 5.31127 29.9715 5.82956C28.3455 7.61643 25.7169 8.03107 24.4799 8.22358C22.2754 8.56911 21.2628 8.20877 20.365 9.07259L20.3601 9.07753Z" fill="#358A66"/>
<path d="M129.936 9.91172C129.936 8.31242 130.355 6.85627 131.198 5.53832C132.041 4.22531 133.278 3.17886 134.914 2.40388C136.545 1.62891 138.465 1.2439 140.675 1.2439C142.884 1.2439 144.755 1.64866 146.356 2.45818C147.952 3.26771 149.149 4.32404 149.937 5.63211C150.725 6.94018 151.124 8.29761 151.124 9.70441C151.124 10.6966 150.954 11.6196 150.615 12.4785C150.291 13.2979 149.827 14.0186 149.199 14.7343C146.59 17.6911 143.598 17.6911 143.518 19.0929C143.493 19.5273 143.782 19.4927 145.942 21.9559C146.585 22.6864 147.942 24.266 148.106 24.4585C149.653 26.2552 149.757 26.4082 150.007 26.4428C150.62 26.5267 151.912 25.8801 154.251 19.5618C154.635 19.7593 156.217 20.6379 156.92 22.5778C157.503 24.187 157.139 25.579 156.995 26.0479C156.745 26.4428 156.351 27.0499 155.852 27.7854C154.735 29.4242 154.396 29.7451 154.481 30.2732C154.516 30.4904 154.62 30.752 156.157 32.0107C156.825 32.5586 157.394 32.9881 157.783 33.2744C158.177 33.7779 159.179 35.2044 159.284 37.2924C159.379 39.1731 158.69 40.5749 158.371 41.1426C154.087 36.0041 151.777 35.3426 150.451 35.777C149.393 36.1225 149.184 37.0851 146.944 38.3537C145.308 39.2816 143.852 39.6617 143.064 39.8493C141.682 40.1751 140.141 40.338 138.44 40.338C136.27 40.338 134.32 40.0221 132.59 39.3952C130.859 38.7683 129.422 37.9193 128.275 36.8531C127.128 35.7869 126.275 34.6071 125.721 33.3089C125.163 32.0107 124.888 30.6928 124.888 29.3502C124.888 28.0075 125.098 26.8772 125.512 25.806C125.931 24.73 126.514 23.7625 127.273 22.8937C128.43 21.561 129.712 20.6577 130.061 20.4158C132.639 18.6536 133.707 18.9596 133.906 18.1353C134.161 17.0642 132.355 16.6298 130.949 13.8162C129.986 11.8911 129.946 10.3116 129.946 9.90679L129.936 9.91172ZM137.313 22.2668C135.871 22.2767 134.525 23.8908 133.338 25.3124C133.023 25.6876 132.719 26.1071 132.475 26.6699C132.176 27.356 132.021 28.1063 132.021 28.9257C132.021 29.7451 132.181 30.4707 132.505 31.1963C132.829 31.9219 133.293 32.5883 133.911 33.2102C134.53 33.8322 135.243 34.3011 136.061 34.6269C136.879 34.9527 137.737 35.1156 138.64 35.1156C139.542 35.1156 140.385 34.9773 141.218 34.7009C141.917 34.4689 142.66 34.1283 143.588 33.5261C145.054 32.5784 145.782 32.1045 145.907 31.6307C146.206 30.4805 144.49 29.6365 141.892 26.887C138.939 23.7575 138.705 22.2619 137.308 22.2718L137.313 22.2668ZM139.971 15.1983C140.794 15.4106 141.802 14.3987 143.817 12.3748C144.056 12.1379 144.455 11.7233 144.725 11.0618C144.909 10.6127 145.004 10.124 145.004 9.60075C145.004 8.53455 144.61 7.64111 143.817 6.92044C143.024 6.19976 142.031 5.83942 140.834 5.83942C139.637 5.83942 138.635 6.20963 137.827 6.95005C137.019 7.69047 136.615 8.55923 136.615 9.55632C136.615 10.0697 136.764 10.6275 137.069 11.2198C137.408 11.8763 137.702 12.3107 138.201 12.9869C139.782 15.1144 139.807 15.1638 139.971 15.2032V15.1983Z" fill="#358A66"/>
<path d="M217.621 30.1844V36.0633C217.426 36.6655 216.918 37.9736 215.621 39.0299C213.496 40.7674 210.957 40.4515 210.513 40.3873C210.488 30.4509 210.463 20.5195 210.438 10.583C210.778 10.5386 213.551 10.2128 215.621 12.2416C217.152 13.7422 217.347 15.5883 217.386 16.1016C218.239 14.6553 219.112 13.5645 220.005 12.824C220.898 12.0836 222.095 11.7134 223.586 11.7134C225.786 11.7134 227.372 12.4933 227.936 12.824C229.482 13.7175 230.365 14.8923 230.789 15.5636C229.222 17.5232 227.841 18.0465 226.823 18.1304C225.462 18.239 224.773 17.5627 222.668 17.7799C221.835 17.8638 220.918 17.9329 220.115 18.5944C219.456 19.1373 218.943 19.9419 218.579 21.0081C218.214 22.0743 217.96 23.3429 217.82 24.8139C217.681 26.2849 217.611 28.0767 217.611 30.1893L217.621 30.1844Z" fill="#358A66"/>
<path d="M295.804 37.1196C294.757 35.5302 293.968 34.2024 293.44 33.2694C292.746 32.0552 291.943 30.91 291.245 29.6957C290.487 28.3827 290.153 27.7064 289.514 27.6324C289.12 27.588 288.612 27.9582 287.604 28.7035C286.577 29.4637 286.063 29.8438 285.858 30.2041C285.469 30.8902 285.609 31.4036 285.669 33.2941C285.689 33.9654 285.704 34.9329 285.669 36.1127C285.509 36.705 285.035 38.1611 283.639 39.331C281.549 41.0883 279.04 40.8168 278.606 40.7625V1.30313C278.91 1.21922 281.409 0.587396 283.564 2.20644C285.2 3.44047 285.584 5.18292 285.669 5.63211C285.669 7.25609 285.669 8.88502 285.669 10.509V14.5073C285.639 16.2152 285.669 17.928 285.669 19.6359C285.669 21.2747 285.664 22.0052 286.003 22.1237C286.342 22.2422 286.766 21.6548 287.784 20.4997C288.886 19.2509 290.108 18.1106 291.25 16.9013C291.799 16.3188 292.627 15.455 293.664 14.3937C295.126 13.0955 296.587 11.7973 298.043 10.5041C298.348 10.8447 299.709 12.4242 299.645 14.8034C299.585 16.9803 298.378 18.4068 298.038 18.777C297.066 19.6063 296.288 20.3319 295.724 20.8749C295.051 21.5264 294.846 21.7535 294.762 22.1188C294.622 22.716 294.906 23.1948 295.809 24.6164C296.856 26.2651 297.849 27.7904 297.934 27.9187C297.934 27.9187 298.368 28.59 299.226 29.9277C299.226 29.9376 300.727 32.2575 300.732 32.2674C301.749 33.6446 301.949 35.4512 301.241 36.9814C300.223 39.1829 297.884 39.6025 297.694 39.637C297.061 38.793 296.427 37.9538 295.794 37.1098L295.804 37.1196Z" fill="#358A66"/>
<path d="M56.4265 17.153C57.7632 15.5192 59.1498 14.3246 60.5912 13.5595C62.0327 12.7944 63.6637 12.4143 65.4842 12.4143C67.6689 12.4143 69.6839 12.9721 71.5244 14.0877C73.3649 15.2032 74.8163 16.8371 75.8837 18.9843C76.9511 21.1315 77.4848 23.6736 77.4848 26.6106C77.4848 28.7726 77.1755 30.7619 76.562 32.5735C75.9436 34.385 75.1006 35.9053 74.0233 37.1344C72.9459 38.3635 71.674 39.3063 70.2076 39.9678C68.7412 40.6292 67.1651 40.9599 65.4842 40.9599C63.4542 40.9599 61.7484 40.5552 60.3668 39.7506C58.9852 38.946 57.6734 37.7564 56.4215 36.1966C56.4763 37.3516 56.5113 39.0595 56.3766 41.1228C56.1871 44.0499 56.0923 45.511 55.3591 46.903C54.9501 47.678 53.6632 49.761 50.0621 51.0049C49.9224 44.3165 49.7977 37.5935 49.693 30.8458C49.5932 24.3746 49.5084 17.9329 49.4436 11.516C49.9174 11.5012 52.4712 11.4617 54.4912 13.4213C55.9626 14.8528 56.3217 16.5459 56.4215 17.1579L56.4265 17.153ZM70.3523 26.5316C70.3523 24.6757 70.068 23.0862 69.4944 21.7535C68.9208 20.4207 68.1277 19.3989 67.1102 18.6881C66.0927 17.9773 64.9705 17.617 63.7385 17.617C61.7783 17.617 60.1224 18.3821 58.7807 19.9123C57.434 21.4425 56.7656 23.6934 56.7656 26.66C56.7656 29.4588 57.434 31.6356 58.7707 33.1905C60.1074 34.7453 61.7634 35.5203 63.7435 35.5203C64.9256 35.5203 66.0179 35.1797 67.0255 34.5035C68.033 33.8272 68.841 32.8055 69.4445 31.453C70.053 30.0955 70.3573 28.4567 70.3573 26.5316H70.3523Z" fill="#358A66"/>
<path d="M35.9368 8.06562C35.6575 7.29558 35.3931 6.17015 35.5577 4.84727C35.6575 4.04268 35.7871 3.00116 36.5902 2.13734C37.3034 1.37224 38.1713 1.15011 39.084 0.918116C39.8621 0.720671 41.2238 0.488673 42.9745 0.804585C43.0942 1.39692 43.2239 2.31997 43.1142 3.4306C43.0144 4.45238 42.9196 5.43467 42.2164 6.34291C41.4433 7.34495 40.3809 7.6806 39.6427 7.91754C38.1064 8.40621 36.7348 8.23838 35.9368 8.06562ZM43.1241 26.2651C43.1142 35.7671 42.8598 39.1336 40.4008 41.0932C38.69 42.4556 36.5453 42.6333 35.1038 42.5888C35.0689 35.5302 34.9642 29.9623 34.8794 26.3391C34.7198 19.473 34.5452 15.7215 37.074 13.757C38.8347 12.3897 41.2088 12.4341 42.9745 12.7105C43.0942 17.7108 43.1291 22.257 43.1241 26.2651Z" fill="#358A66"/>
<path d="M105.735 31.606C105.735 33.2941 105.257 34.8095 104.294 36.1521C103.336 37.4948 101.93 38.5511 100.079 39.3113C97.4957 40.3775 95.2412 40.4416 93.5005 40.4515C91.7598 40.4614 89.7298 40.4515 87.4155 39.5186C86.1486 39.0102 84.5076 38.3487 83.4203 36.705C83.0711 36.1768 82.1833 34.6466 82.5424 32.6771C82.7619 31.4776 83.3554 30.6138 83.7195 30.1646C84.762 31.9219 85.979 33.0868 86.8169 33.7729C87.605 34.4196 88.5527 35.1847 90.0739 35.7276C91.5802 36.2657 92.8621 36.3101 93.3309 36.3101C95.1814 36.3101 96.6827 35.9202 97.8399 35.1402C98.997 34.3603 99.5756 33.3879 99.5756 32.2181C99.5756 31.2901 99.2614 30.5398 98.6429 29.9623C98.0194 29.3847 97.2164 28.9454 96.2288 28.6394C95.2412 28.3333 93.9195 28.0125 92.2685 27.667C90.054 27.198 88.2035 26.6501 86.7122 26.0232C85.2208 25.3963 84.0387 24.5375 83.1609 23.4564C82.2831 22.3705 81.8491 21.0229 81.8491 19.4138C81.8491 17.8046 82.313 16.5163 83.2357 15.3217C84.1585 14.1321 85.5002 13.214 87.2509 12.5723C89.0016 11.9306 91.0615 11.6098 93.4307 11.6098C95.3211 11.6098 96.957 11.822 98.3386 12.2465C100.159 12.8092 101.187 13.4707 101.775 13.9396C102.394 14.4332 102.947 14.8873 103.202 15.6574C103.596 16.8667 102.942 17.9675 102.733 18.2883C100.897 17.1135 99.1766 16.5163 98.0194 16.2053C95.755 15.5932 93.9245 15.5883 93.0167 15.6278C90.4879 15.7364 89.4205 16.3929 89.1213 16.5903C88.1337 17.232 87.6399 18.002 87.6399 18.9004C87.6399 19.4582 87.8095 19.9419 88.1437 20.3467C88.4778 20.7515 88.9417 21.1019 89.5303 21.3931C90.1188 21.6844 90.7124 21.9114 91.3159 22.0793C91.9194 22.2422 92.912 22.484 94.2986 22.7999C96.0343 23.1702 97.6054 23.5749 99.017 24.0192C100.424 24.4634 101.621 25.0015 102.608 25.6382C103.596 26.27 104.364 27.0746 104.917 28.047C105.471 29.0195 105.745 30.2041 105.745 31.6159L105.735 31.606Z" fill="#358A66"/>
<path d="M196.882 8.43089C196.084 9.19105 196.019 10.3165 195.994 10.9187C195.824 14.833 195.949 16.7828 195.994 20.2726C196.099 28.5949 196.253 30.1696 195.994 35.0267C195.969 35.5105 195.779 38.1118 193.54 40.0862C191.266 42.0952 188.587 41.957 188.113 41.9274C188.148 34.8836 188.183 27.8397 188.218 20.8008C188.228 19.0238 188.522 16.2793 188.268 10.6916C188.243 10.1536 188.173 8.99854 187.355 8.27787C186.956 7.9274 186.422 7.72009 184.692 7.62136C182.921 7.51771 181.634 7.62136 180.572 7.68553C179.634 7.73983 178.248 7.78919 176.532 7.7497C176.681 7.01422 177.155 5.21747 178.741 3.59843C180.387 1.91521 182.278 1.40185 183.011 1.2439C191.345 1.27351 199.685 1.30313 208.019 1.33275C207.84 3.49477 206.962 4.66463 206.493 5.18292C204.867 6.9698 202.239 7.38443 201.002 7.57694C198.797 7.92247 197.785 7.56213 196.887 8.42595L196.882 8.43089Z" fill="#358A66"/>
<path d="M234.455 7.419C234.175 6.64896 233.911 5.52353 234.076 4.20065C234.175 3.39606 234.305 2.35454 235.108 1.49072C235.821 0.725617 236.689 0.503492 237.602 0.271494C238.38 0.0740493 239.742 -0.157948 241.492 0.157963C241.612 0.750298 241.742 1.67335 241.632 2.78398C241.532 3.80576 241.437 4.78804 240.734 5.69629C239.961 6.69832 238.899 7.03398 238.16 7.27091C236.624 7.75959 235.253 7.59176 234.455 7.419ZM241.642 25.6185C241.632 35.1205 241.378 38.4869 238.919 40.4466C237.208 41.809 235.063 41.9867 233.622 41.9422C233.587 34.8836 233.482 29.3156 233.397 25.6925C233.238 18.8264 233.063 15.0749 235.592 13.1103C237.352 11.743 239.727 11.7875 241.492 12.0639C241.612 17.0642 241.647 21.6103 241.642 25.6185Z" fill="#358A66"/>
<path d="M273.574 31.6553C273.494 32.2872 273.384 33.3336 272.776 34.4739C272.242 35.4759 271.434 36.4236 270.346 37.3319C269.259 38.2352 267.888 38.9657 266.232 39.5186C264.576 40.0714 262.715 40.3478 260.64 40.3478C256.231 40.3478 252.795 39.0793 250.321 36.5322C247.847 33.9901 246.61 30.5793 246.61 26.3046C246.61 23.4071 247.173 20.8502 248.306 18.624C249.438 16.4027 251.074 14.68 253.219 13.4657C255.363 12.2514 257.922 11.6443 260.9 11.6443C262.745 11.6443 264.441 11.9109 265.982 12.444C267.523 12.9771 268.83 13.6681 269.903 14.5122C270.631 15.0848 271.623 15.8795 272.357 17.2122C273.544 19.3644 273.304 21.5708 273.125 22.5433C270.87 23.0517 269.643 22.6272 268.94 22.1039C267.858 21.2994 268.047 20.3121 266.446 18.7671C266.042 18.3772 265.284 17.6565 264.062 17.1481C263.633 16.9704 262.446 16.5261 260.994 16.61C258.211 16.768 256.336 18.7424 255.702 19.5174C253.852 21.7683 253.767 24.3548 253.767 26.2009C253.767 27.5287 253.932 28.748 254.266 29.8586C254.595 30.9692 255.074 31.917 255.702 32.7018C256.331 33.4866 257.089 34.079 257.977 34.4837C258.865 34.8885 259.842 35.0909 260.905 35.0909C262.536 35.0909 263.842 34.5134 264.576 34.1086C267.454 32.5093 267.174 30.2634 269.653 29.0194C270.376 28.6591 271.588 28.2544 273.469 28.4814C273.608 29.2169 273.743 30.3226 273.574 31.6553Z" fill="#358A66"/>
<path d="M330 31.606C330 33.2941 329.521 34.8095 328.559 36.1521C327.601 37.4948 326.194 38.5511 324.344 39.3113C321.76 40.3775 319.506 40.4416 317.765 40.4515C316.024 40.4614 313.994 40.4515 311.68 39.5186C310.413 39.0102 308.772 38.3487 307.685 36.705C307.336 36.1768 306.448 34.6466 306.807 32.6771C307.026 31.4776 307.62 30.6138 307.984 30.1646C309.026 31.9219 310.244 33.0868 311.081 33.7729C311.87 34.4196 312.817 35.1847 314.338 35.7276C315.845 36.2657 317.127 36.3101 317.595 36.3101C319.446 36.3101 320.947 35.9202 322.104 35.1402C323.262 34.3603 323.84 33.3879 323.84 32.2181C323.84 31.2901 323.526 30.5398 322.907 29.9623C322.284 29.3847 321.481 28.9454 320.493 28.6394C319.506 28.3333 318.184 28.0125 316.533 27.667C314.319 27.198 312.468 26.6501 310.977 26.0232C309.485 25.3963 308.303 24.5375 307.425 23.4564C306.548 22.3705 306.114 21.0229 306.114 19.4138C306.114 17.8046 306.578 16.5163 307.5 15.3217C308.423 14.1321 309.765 13.214 311.515 12.5723C313.266 11.9306 315.326 11.6098 317.695 11.6098C319.586 11.6098 321.222 11.822 322.603 12.2465C324.424 12.8092 325.451 13.4707 326.04 13.9396C326.658 14.4332 327.212 14.8873 327.466 15.6574C327.86 16.8667 327.207 17.9675 326.997 18.2883C325.162 17.1135 323.441 16.5163 322.284 16.2053C320.02 15.5932 318.189 15.5883 317.281 15.6278C314.752 15.7364 313.685 16.3929 313.386 16.5903C312.398 17.232 311.904 18.002 311.904 18.9004C311.904 19.4582 312.074 19.9419 312.408 20.3467C312.742 20.7515 313.206 21.1019 313.795 21.3931C314.383 21.6844 314.977 21.9114 315.58 22.0793C316.184 22.2422 317.177 22.484 318.563 22.7999C320.299 23.1702 321.87 23.5749 323.282 24.0192C324.688 24.4634 325.885 25.0015 326.873 25.6382C327.86 26.27 328.628 27.0746 329.182 28.047C329.736 29.0195 330.01 30.2041 330.01 31.6159L330 31.606Z" fill="#358A66"/>
</g>
<defs>
<filter id="filter0_i_25_358" x="0" y="0" width="330" height="51" filterUnits="userSpaceOnUse" color-interpolation-filters="sRGB">
<feFlood flood-opacity="0" result="BackgroundImageFix"/>
<feBlend mode="normal" in="SourceGraphic" in2="BackgroundImageFix" result="shape"/>
<feColorMatrix in="SourceAlpha" type="matrix" values="0 0 0 0 0 0 0 0 0 0 0 0 0 0 0 0 0 0 127 0" result="hardAlpha"/>
<feOffset/>
<feGaussianBlur stdDeviation="2"/>
<feComposite in2="hardAlpha" operator="arithmetic" k2="-1" k3="1"/>
<feColorMatrix type="matrix" values="0 0 0 0 0 0 0 0 0 0 0 0 0 0 0 0 0 0 0.4 0"/>
<feBlend mode="normal" in2="shape" result="effect1_innerShadow_25_358"/>
</filter>
<clipPath id="clip0_25_358">
<rect width="330" height="51" fill="white"/>
</clipPath>
</defs>
</svg>
