<svg width="92" height="347" viewBox="0 0 92 347" fill="none" xmlns="http://www.w3.org/2000/svg">
<g clip-path="url(#clip0_25_422)">
<g filter="url(#filter0_i_25_422)">
<path d="M52.9999 324.62C68.3099 335.62 82.4899 342.25 92.3099 346.16V0C85.3899 1.79 74.1099 4.5 59.9299 6.92C40.2399 10.28 33.2299 9.96 27.6199 15.38C18.3299 24.36 21.6899 40.63 22.9999 52.3C29.3599 108.76 -5.27009 118.08 0.689915 170.77C4.72991 206.44 21.2699 208.23 19.9199 243.85C19.1399 264.5 13.1799 274.68 19.9199 290.77C25.9499 305.17 37.6799 313.6 52.9999 324.62Z" fill="#56C596"/>
</g>
<g filter="url(#filter1_i_25_422)">
<path d="M60.6399 295.15C72.9699 304.02 84.3999 309.35 92.3099 312.5V33.65C86.7399 35.09 77.6499 37.28 66.2199 39.23C50.3599 41.94 44.7099 41.68 40.1899 46.05C32.7099 53.29 35.4099 66.39 36.4699 75.79C41.5899 121.27 13.6999 128.77 18.4999 171.22C21.7499 199.95 35.0799 201.4 33.9899 230.09C33.3599 246.72 28.5599 254.93 33.9899 267.89C38.8499 279.49 48.2999 286.29 60.6399 295.16V295.15Z" fill="white"/>
</g>
<g filter="url(#filter2_i_25_422)">
<path d="M68.1699 262.66C77.5699 269.42 86.2799 273.48 92.3099 275.89V63.34C88.0599 64.44 81.1399 66.1 72.4199 67.59C60.3299 69.65 56.0199 69.46 52.5799 72.79C46.8799 78.31 48.9399 88.3 49.7499 95.46C53.6599 130.13 32.3899 135.85 36.0499 168.2C38.5299 190.1 48.6799 191.2 47.8599 213.07C47.3799 225.75 43.7199 232 47.8599 241.88C51.5699 250.72 58.7699 255.9 68.1699 262.66Z" fill="#11C4D4"/>
</g>
</g>
<defs>
<filter id="filter0_i_25_422" x="-0.00292969" y="0" width="92.3127" height="346.16" filterUnits="userSpaceOnUse" color-interpolation-filters="sRGB">
<feFlood flood-opacity="0" result="BackgroundImageFix"/>
<feBlend mode="normal" in="SourceGraphic" in2="BackgroundImageFix" result="shape"/>
<feColorMatrix in="SourceAlpha" type="matrix" values="0 0 0 0 0 0 0 0 0 0 0 0 0 0 0 0 0 0 127 0" result="hardAlpha"/>
<feOffset/>
<feGaussianBlur stdDeviation="2"/>
<feComposite in2="hardAlpha" operator="arithmetic" k2="-1" k3="1"/>
<feColorMatrix type="matrix" values="0 0 0 0 0 0 0 0 0 0 0 0 0 0 0 0 0 0 0.4 0"/>
<feBlend mode="normal" in2="shape" result="effect1_innerShadow_25_422"/>
</filter>
<filter id="filter1_i_25_422" x="17.9419" y="33.65" width="74.3679" height="278.85" filterUnits="userSpaceOnUse" color-interpolation-filters="sRGB">
<feFlood flood-opacity="0" result="BackgroundImageFix"/>
<feBlend mode="normal" in="SourceGraphic" in2="BackgroundImageFix" result="shape"/>
<feColorMatrix in="SourceAlpha" type="matrix" values="0 0 0 0 0 0 0 0 0 0 0 0 0 0 0 0 0 0 127 0" result="hardAlpha"/>
<feOffset/>
<feGaussianBlur stdDeviation="2"/>
<feComposite in2="hardAlpha" operator="arithmetic" k2="-1" k3="1"/>
<feColorMatrix type="matrix" values="0 0 0 0 0 0 0 0 0 0 0 0 0 0 0 0 0 0 0.4 0"/>
<feBlend mode="normal" in2="shape" result="effect1_innerShadow_25_422"/>
</filter>
<filter id="filter2_i_25_422" x="35.6245" y="63.34" width="56.6853" height="212.55" filterUnits="userSpaceOnUse" color-interpolation-filters="sRGB">
<feFlood flood-opacity="0" result="BackgroundImageFix"/>
<feBlend mode="normal" in="SourceGraphic" in2="BackgroundImageFix" result="shape"/>
<feColorMatrix in="SourceAlpha" type="matrix" values="0 0 0 0 0 0 0 0 0 0 0 0 0 0 0 0 0 0 127 0" result="hardAlpha"/>
<feOffset/>
<feGaussianBlur stdDeviation="2"/>
<feComposite in2="hardAlpha" operator="arithmetic" k2="-1" k3="1"/>
<feColorMatrix type="matrix" values="0 0 0 0 0 0 0 0 0 0 0 0 0 0 0 0 0 0 0.4 0"/>
<feBlend mode="normal" in2="shape" result="effect1_innerShadow_25_422"/>
</filter>
<clipPath id="clip0_25_422">
<rect width="92.31" height="346.15" fill="white"/>
</clipPath>
</defs>
</svg>
