<svg width="117" height="264" viewBox="0 0 117 264" fill="none" xmlns="http://www.w3.org/2000/svg">
<g clip-path="url(#clip0_25_417)">
<g filter="url(#filter0_i_25_417)">
<path d="M77.23 263.3C62.12 266.36 54.74 248.03 33.09 248.31C18.79 248.5 7.27999 256.7 -0.0100098 263.3V11.03C30.38 -3.1 61.3 -4.25 77.22 11.03C87.53 20.92 91.11 37.27 93.01 45.91C97.63 66.96 91.25 71.73 96.37 89.02C102.99 111.39 115.57 109.88 116.85 125.4C118.59 146.51 95.77 154.85 98.2 179.21C99.18 189.02 102.95 188.38 105.23 199.39C110.58 225.21 96.2 259.45 77.21 263.3H77.23Z" fill="#56C596"/>
</g>
<g filter="url(#filter1_i_25_417)">
<path d="M64.97 239.89C52.26 242.47 46.05 227.04 27.84 227.28C15.81 227.44 6.12 234.34 0 239.89V27.68C25.56 15.79 51.57 14.83 64.97 27.68C73.64 36 76.66 49.75 78.25 57.02C82.13 74.73 76.77 78.74 81.08 93.28C86.65 112.1 97.23 110.83 98.31 123.89C99.77 141.65 80.58 148.67 82.62 169.16C83.44 177.41 86.62 176.88 88.54 186.13C93.04 207.85 80.94 236.65 64.97 239.89Z" fill="white"/>
</g>
<g filter="url(#filter2_i_25_417)">
<path d="M53.47 219.31C43.02 221.43 37.91 208.74 22.94 208.94C13.04 209.07 5.08004 214.75 0.0400391 219.31V44.77C21.06 34.99 42.46 34.2 53.47 44.77C60.6 51.61 63.08 62.92 64.39 68.9C67.58 83.46 63.17 86.76 66.72 98.72C71.3 114.19 80.01 113.16 80.89 123.89C82.09 138.49 66.31 144.27 67.99 161.12C68.67 167.91 71.28 167.47 72.85 175.08C76.55 192.94 66.6 216.63 53.47 219.29V219.31Z" fill="#11C4D4"/>
</g>
<g filter="url(#filter3_i_25_417)">
<path d="M41.28 198.56C33.21 200.2 29.27 190.4 17.71 190.55C10.07 190.65 3.92004 195.03 0.0400391 198.56V63.83C16.27 56.28 32.78 55.67 41.29 63.83C46.79 69.11 48.71 77.84 49.72 82.46C52.19 93.7 48.78 96.25 51.52 105.48C55.06 117.43 61.78 116.62 62.46 124.91C63.39 136.18 51.2 140.64 52.5 153.65C53.02 158.89 55.04 158.55 56.26 164.43C59.12 178.22 51.44 196.5 41.3 198.56H41.28Z" fill="#0D4A82"/>
</g>
</g>
<defs>
<filter id="filter0_i_25_417" x="-0.0100098" y="-0.00296021" width="116.955" height="263.648" filterUnits="userSpaceOnUse" color-interpolation-filters="sRGB">
<feFlood flood-opacity="0" result="BackgroundImageFix"/>
<feBlend mode="normal" in="SourceGraphic" in2="BackgroundImageFix" result="shape"/>
<feColorMatrix in="SourceAlpha" type="matrix" values="0 0 0 0 0 0 0 0 0 0 0 0 0 0 0 0 0 0 127 0" result="hardAlpha"/>
<feOffset/>
<feGaussianBlur stdDeviation="2"/>
<feComposite in2="hardAlpha" operator="arithmetic" k2="-1" k3="1"/>
<feColorMatrix type="matrix" values="0 0 0 0 0 0 0 0 0 0 0 0 0 0 0 0 0 0 0.4 0"/>
<feBlend mode="normal" in2="shape" result="effect1_innerShadow_25_417"/>
</filter>
<filter id="filter1_i_25_417" x="0" y="18.399" width="98.3894" height="221.782" filterUnits="userSpaceOnUse" color-interpolation-filters="sRGB">
<feFlood flood-opacity="0" result="BackgroundImageFix"/>
<feBlend mode="normal" in="SourceGraphic" in2="BackgroundImageFix" result="shape"/>
<feColorMatrix in="SourceAlpha" type="matrix" values="0 0 0 0 0 0 0 0 0 0 0 0 0 0 0 0 0 0 127 0" result="hardAlpha"/>
<feOffset/>
<feGaussianBlur stdDeviation="2"/>
<feComposite in2="hardAlpha" operator="arithmetic" k2="-1" k3="1"/>
<feColorMatrix type="matrix" values="0 0 0 0 0 0 0 0 0 0 0 0 0 0 0 0 0 0 0.4 0"/>
<feBlend mode="normal" in2="shape" result="effect1_innerShadow_25_417"/>
</filter>
<filter id="filter2_i_25_417" x="0.0400391" y="37.1359" width="80.9153" height="182.413" filterUnits="userSpaceOnUse" color-interpolation-filters="sRGB">
<feFlood flood-opacity="0" result="BackgroundImageFix"/>
<feBlend mode="normal" in="SourceGraphic" in2="BackgroundImageFix" result="shape"/>
<feColorMatrix in="SourceAlpha" type="matrix" values="0 0 0 0 0 0 0 0 0 0 0 0 0 0 0 0 0 0 127 0" result="hardAlpha"/>
<feOffset/>
<feGaussianBlur stdDeviation="2"/>
<feComposite in2="hardAlpha" operator="arithmetic" k2="-1" k3="1"/>
<feColorMatrix type="matrix" values="0 0 0 0 0 0 0 0 0 0 0 0 0 0 0 0 0 0 0.4 0"/>
<feBlend mode="normal" in2="shape" result="effect1_innerShadow_25_417"/>
</filter>
<filter id="filter3_i_25_417" x="0.0400391" y="57.9365" width="62.4707" height="140.809" filterUnits="userSpaceOnUse" color-interpolation-filters="sRGB">
<feFlood flood-opacity="0" result="BackgroundImageFix"/>
<feBlend mode="normal" in="SourceGraphic" in2="BackgroundImageFix" result="shape"/>
<feColorMatrix in="SourceAlpha" type="matrix" values="0 0 0 0 0 0 0 0 0 0 0 0 0 0 0 0 0 0 127 0" result="hardAlpha"/>
<feOffset/>
<feGaussianBlur stdDeviation="2"/>
<feComposite in2="hardAlpha" operator="arithmetic" k2="-1" k3="1"/>
<feColorMatrix type="matrix" values="0 0 0 0 0 0 0 0 0 0 0 0 0 0 0 0 0 0 0.4 0"/>
<feBlend mode="normal" in2="shape" result="effect1_innerShadow_25_417"/>
</filter>
<clipPath id="clip0_25_417">
<rect width="116.96" height="263.65" fill="white"/>
</clipPath>
</defs>
</svg>
