<svg width="164" height="308" viewBox="0 0 164 308" fill="none" xmlns="http://www.w3.org/2000/svg">
<g clip-path="url(#clip0_25_370)">
<g filter="url(#filter0_i_25_370)">
<path d="M68.0399 288.46C100.71 304.5 112.6 306.62 121.7 307.26C140.75 308.6 156.43 304.06 166.13 300.34V31.18C161.3 22.62 152.95 11.09 139.13 5.04C122.03 -2.44 110.79 4.71 80.4299 5.5C40.7299 6.54 34.7899 -5.02 21.4399 2.64C-1.09006 15.58 -0.35006 57.73 0.16994 87.13C0.94994 131.03 11.9099 133.41 11.1799 172.89C10.3199 218.69 -4.70006 229.53 6.13994 249.93C11.9699 260.91 30.6599 270.09 68.0499 288.45L68.0399 288.46Z" fill="#56C596"/>
</g>
<g filter="url(#filter1_i_25_370)">
<path d="M79.52 272.69C82.42 274.97 90.26 266.34 101.98 260.71C109.94 256.89 122.26 253.2 140.5 255.21C127.24 281.67 125.57 288.48 126.9 289.29C128.79 290.45 136.23 279.07 153.34 267.13C158.76 263.35 163.54 260.64 166.87 258.88C166.62 187.76 166.37 116.65 166.12 45.53C161.86 37.97 154.48 27.79 142.28 22.45C127.18 15.85 117.26 22.16 90.45 22.85C59.11 23.67 49.47 12.84 38.36 20.33C31.91 24.68 25.22 34.65 26.07 60.07C29.72 56.62 34.66 55.07 38.91 56.4C45.11 58.34 49.33 66.25 46.94 74.51C52.93 72.12 58.72 72.13 61.16 74.97C64.55 78.91 61.14 87.94 55.89 92.4C44.7 101.89 28.18 88.12 19.59 94.92C8.79997 103.47 30.15 129.04 29.31 170.64C28.6 205.72 12.68 223.44 24.86 238.67C29.5 244.47 38.74 250.57 48.56 250.62C56.27 250.66 59.36 246.94 67.59 244.89C74.77 243.1 85.34 242.72 99.92 249.25C97.84 249.54 87.79 251.13 82.26 259.8C79.57 264.02 77.3 270.95 79.52 272.7V272.69Z" fill="white"/>
</g>
<g filter="url(#filter2_i_25_370)">
<path d="M107.31 252.27C108.75 254.05 117.6 246.09 128.57 245.58C136.63 245.21 143.54 248.96 148.52 252.69C146.64 258.26 146.33 261.47 147.6 262.32C149.65 263.69 155.83 258.87 166.12 247.87V57.82C162.34 51.11 155.79 42.07 144.96 37.34C130.94 31.21 123.97 38.16 98.97 37.7C71.31 37.19 60.78 28.24 48.89 36C41.3 40.95 38.06 49.51 36.51 55.83C37.42 55.92 38.21 56.13 38.92 56.4C46.62 59.44 47.34 72.61 47.4 74.06C53.92 71.73 59.53 72.16 61.62 75.09C62.52 76.36 62.54 77.77 62.54 79.1C62.54 84.35 59.49 89.8 55.09 92.97C46.82 98.92 36.62 94.77 35.98 94.5C35.99 96.84 36.03 99.22 36.1 101.65C36.16 103.72 36.24 105.76 36.33 107.76C41.26 105.13 47.27 105.79 51.39 109.37C55.17 112.66 56.75 117.91 55.45 122.85C58.17 122.35 60.91 123.15 62.4 125.04C64.56 127.78 63.97 132.64 60.26 135.51C66.34 132.73 72 133.5 73.94 136.43C75.56 138.86 74.81 143.07 72.56 145.6C66.09 152.9 50.48 142.51 43.17 148.92C38.62 152.91 40.75 160.38 41.79 171.62C45.12 207.37 31.9 220.57 40.76 229.21C47.71 235.99 56.92 228.92 78.59 233.18C92.57 235.93 103.3 241.73 110.23 246.25C107.14 250.24 106.87 251.71 107.31 252.25V252.27Z" fill="#11C4D4"/>
</g>
<g filter="url(#filter3_i_25_370)">
<path d="M120.09 239.61C127.39 239.69 129.77 237.76 136.83 239.38C147.09 241.74 150.63 247.81 156.32 246.49C159.23 245.81 162.98 243.13 166.12 233.88V68.79C161.87 61.52 154.42 51.49 142.22 46.66C128.47 41.23 122.73 47.96 99.8 46.77C73.68 45.42 63 35.76 51.65 43.1C45.61 47.01 42.86 53.48 41.5 57.97C42.72 59.41 44.26 61.56 45.46 64.42C47.11 68.34 47.4 71.86 47.41 74.05C53.93 71.72 59.54 72.15 61.63 75.08C62.53 76.35 62.55 77.76 62.55 79.09C62.55 84.35 59.66 89.77 55.1 92.96C51.25 95.66 47.23 96.09 45.14 96.15C45.14 99.56 45.14 102.96 45.14 106.37C46.63 106.64 49.15 107.35 51.41 109.36C56.91 114.26 55.58 122.23 55.47 122.84C58.19 122.34 60.93 123.14 62.42 125.03C64.58 127.77 63.99 132.63 60.28 135.5C66.36 132.72 72.02 133.49 73.96 136.42C75.66 138.98 74.85 143.19 72.58 145.59C71.35 146.9 69.94 147.39 68.91 147.73C64.5 149.2 61.58 147.45 54.08 146.89C52.09 146.74 50.48 146.73 49.5 146.73C49.53 150.42 49.62 156 49.96 162.79C50.61 176.15 51.18 179.3 51.79 186.64C53.66 208.74 45.68 214.24 50.64 220.81C56.35 228.35 66.11 220.05 87.33 227C103.05 232.15 106.08 239.46 120.12 239.61H120.09Z" fill="#0D4A82"/>
</g>
<g filter="url(#filter4_d_25_370)">
<path d="M154.2 125.24C168.764 125.24 180.57 113.434 180.57 98.87C180.57 84.3063 168.764 72.5 154.2 72.5C139.636 72.5 127.83 84.3063 127.83 98.87C127.83 113.434 139.636 125.24 154.2 125.24Z" fill="#11C4D4"/>
</g>
<g filter="url(#filter5_d_25_370)">
<path d="M154.2 120.38C166.08 120.38 175.71 110.75 175.71 98.87C175.71 86.9904 166.08 77.36 154.2 77.36C142.32 77.36 132.69 86.9904 132.69 98.87C132.69 110.75 142.32 120.38 154.2 120.38Z" fill="white"/>
</g>
</g>
<defs>
<filter id="filter0_i_25_370" x="-0.000366211" y="0.00146484" width="166.13" height="307.499" filterUnits="userSpaceOnUse" color-interpolation-filters="sRGB">
<feFlood flood-opacity="0" result="BackgroundImageFix"/>
<feBlend mode="normal" in="SourceGraphic" in2="BackgroundImageFix" result="shape"/>
<feColorMatrix in="SourceAlpha" type="matrix" values="0 0 0 0 0 0 0 0 0 0 0 0 0 0 0 0 0 0 127 0" result="hardAlpha"/>
<feOffset/>
<feGaussianBlur stdDeviation="2"/>
<feComposite in2="hardAlpha" operator="arithmetic" k2="-1" k3="1"/>
<feColorMatrix type="matrix" values="0 0 0 0 0 0 0 0 0 0 0 0 0 0 0 0 0 0 0.4 0"/>
<feBlend mode="normal" in2="shape" result="effect1_innerShadow_25_370"/>
</filter>
<filter id="filter1_i_25_370" x="16.5377" y="17.6763" width="150.332" height="271.695" filterUnits="userSpaceOnUse" color-interpolation-filters="sRGB">
<feFlood flood-opacity="0" result="BackgroundImageFix"/>
<feBlend mode="normal" in="SourceGraphic" in2="BackgroundImageFix" result="shape"/>
<feColorMatrix in="SourceAlpha" type="matrix" values="0 0 0 0 0 0 0 0 0 0 0 0 0 0 0 0 0 0 127 0" result="hardAlpha"/>
<feOffset/>
<feGaussianBlur stdDeviation="2"/>
<feComposite in2="hardAlpha" operator="arithmetic" k2="-1" k3="1"/>
<feColorMatrix type="matrix" values="0 0 0 0 0 0 0 0 0 0 0 0 0 0 0 0 0 0 0.4 0"/>
<feBlend mode="normal" in2="shape" result="effect1_innerShadow_25_370"/>
</filter>
<filter id="filter2_i_25_370" x="35.98" y="32.8486" width="130.14" height="229.699" filterUnits="userSpaceOnUse" color-interpolation-filters="sRGB">
<feFlood flood-opacity="0" result="BackgroundImageFix"/>
<feBlend mode="normal" in="SourceGraphic" in2="BackgroundImageFix" result="shape"/>
<feColorMatrix in="SourceAlpha" type="matrix" values="0 0 0 0 0 0 0 0 0 0 0 0 0 0 0 0 0 0 127 0" result="hardAlpha"/>
<feOffset/>
<feGaussianBlur stdDeviation="2"/>
<feComposite in2="hardAlpha" operator="arithmetic" k2="-1" k3="1"/>
<feColorMatrix type="matrix" values="0 0 0 0 0 0 0 0 0 0 0 0 0 0 0 0 0 0 0.4 0"/>
<feBlend mode="normal" in2="shape" result="effect1_innerShadow_25_370"/>
</filter>
<filter id="filter3_i_25_370" x="41.5" y="40.3743" width="124.62" height="206.301" filterUnits="userSpaceOnUse" color-interpolation-filters="sRGB">
<feFlood flood-opacity="0" result="BackgroundImageFix"/>
<feBlend mode="normal" in="SourceGraphic" in2="BackgroundImageFix" result="shape"/>
<feColorMatrix in="SourceAlpha" type="matrix" values="0 0 0 0 0 0 0 0 0 0 0 0 0 0 0 0 0 0 127 0" result="hardAlpha"/>
<feOffset/>
<feGaussianBlur stdDeviation="2"/>
<feComposite in2="hardAlpha" operator="arithmetic" k2="-1" k3="1"/>
<feColorMatrix type="matrix" values="0 0 0 0 0 0 0 0 0 0 0 0 0 0 0 0 0 0 0.4 0"/>
<feBlend mode="normal" in2="shape" result="effect1_innerShadow_25_370"/>
</filter>
<filter id="filter4_d_25_370" x="123.83" y="68.5" width="60.74" height="60.74" filterUnits="userSpaceOnUse" color-interpolation-filters="sRGB">
<feFlood flood-opacity="0" result="BackgroundImageFix"/>
<feColorMatrix in="SourceAlpha" type="matrix" values="0 0 0 0 0 0 0 0 0 0 0 0 0 0 0 0 0 0 127 0" result="hardAlpha"/>
<feOffset/>
<feGaussianBlur stdDeviation="2"/>
<feComposite in2="hardAlpha" operator="out"/>
<feColorMatrix type="matrix" values="0 0 0 0 0 0 0 0 0 0 0 0 0 0 0 0 0 0 0.4 0"/>
<feBlend mode="normal" in2="BackgroundImageFix" result="effect1_dropShadow_25_370"/>
<feBlend mode="normal" in="SourceGraphic" in2="effect1_dropShadow_25_370" result="shape"/>
</filter>
<filter id="filter5_d_25_370" x="128.69" y="73.36" width="51.02" height="51.02" filterUnits="userSpaceOnUse" color-interpolation-filters="sRGB">
<feFlood flood-opacity="0" result="BackgroundImageFix"/>
<feColorMatrix in="SourceAlpha" type="matrix" values="0 0 0 0 0 0 0 0 0 0 0 0 0 0 0 0 0 0 127 0" result="hardAlpha"/>
<feOffset/>
<feGaussianBlur stdDeviation="2"/>
<feComposite in2="hardAlpha" operator="out"/>
<feColorMatrix type="matrix" values="0 0 0 0 0 0 0 0 0 0 0 0 0 0 0 0 0 0 0.4 0"/>
<feBlend mode="normal" in2="BackgroundImageFix" result="effect1_dropShadow_25_370"/>
<feBlend mode="normal" in="SourceGraphic" in2="effect1_dropShadow_25_370" result="shape"/>
</filter>
<clipPath id="clip0_25_370">
<rect width="180.57" height="307.5" fill="white"/>
</clipPath>
</defs>
</svg>
