<svg width="158" height="158" viewBox="0 0 158 158" fill="none" xmlns="http://www.w3.org/2000/svg">
<g filter="url(#filter0_d_36_19)">
<rect x="4" y="4" width="150" height="150" rx="30" fill="#56C596"/>
</g>
<g filter="url(#filter1_d_36_19)">
<rect x="14" y="14" width="130" height="130" rx="30" fill="white"/>
</g>
<path d="M66.5415 51.288C66.6695 51.288 66.8082 51.32 66.9575 51.384C67.1282 51.4267 67.3095 51.5333 67.5015 51.704C67.9282 52.088 68.4295 52.3973 69.0055 52.632C69.5815 52.8667 70.2428 52.984 70.9895 52.984C71.9068 52.984 72.7495 52.7813 73.5175 52.376C74.2855 51.9493 74.9042 51.352 75.3735 50.584C75.8642 49.816 76.1095 48.9307 76.1095 47.928C76.1095 46.84 75.8642 45.9547 75.3735 45.272C74.9042 44.568 74.2962 44.056 73.5495 43.736C72.8242 43.3947 72.0562 43.224 71.2455 43.224C70.9468 43.224 70.6695 43.2453 70.4135 43.288C70.1575 43.3307 69.9122 43.384 69.6775 43.448C69.4642 43.512 69.2615 43.544 69.0695 43.544C68.7282 43.544 68.4615 43.4267 68.2695 43.192C68.0775 42.9573 67.9815 42.6693 67.9815 42.328C67.9815 42.136 68.0135 41.9653 68.0775 41.816C68.1628 41.6453 68.2908 41.464 68.4615 41.272L74.6695 34.552L75.1815 35.16H66.0935C65.7522 35.16 65.4642 35.0427 65.2295 34.808C64.9948 34.5733 64.8775 34.2853 64.8775 33.944C64.8775 33.6027 64.9948 33.3253 65.2295 33.112C65.4642 32.8773 65.7522 32.76 66.0935 32.76H76.5255C76.9948 32.76 77.3362 32.8987 77.5495 33.176C77.7628 33.432 77.8695 33.72 77.8695 34.04C77.8695 34.232 77.8162 34.4133 77.7095 34.584C77.6242 34.7547 77.5068 34.9147 77.3575 35.064L71.1495 41.816L70.4135 41.176C70.5202 41.0907 70.7655 41.016 71.1495 40.952C71.5335 40.8667 71.8535 40.824 72.1095 40.824C73.3042 40.824 74.4028 41.112 75.4055 41.688C76.4082 42.264 77.2082 43.0747 77.8055 44.12C78.4028 45.1653 78.7015 46.3813 78.7015 47.768C78.7015 49.304 78.3495 50.6373 77.6455 51.768C76.9415 52.8987 75.9708 53.7733 74.7335 54.392C73.5175 55.0107 72.1415 55.32 70.6055 55.32C69.7522 55.32 68.9095 55.192 68.0775 54.936C67.2668 54.6587 66.5628 54.264 65.9655 53.752C65.6882 53.6027 65.4962 53.432 65.3895 53.24C65.3042 53.048 65.2615 52.856 65.2615 52.664C65.2615 52.344 65.3788 52.0347 65.6135 51.736C65.8695 51.4373 66.1788 51.288 66.5415 51.288ZM89.9758 55.32C88.2051 55.32 86.7224 54.8187 85.5278 53.816C84.3544 52.8133 83.4584 51.4373 82.8398 49.688C82.2424 47.9387 81.9438 45.976 81.9438 43.8C81.9438 41.5813 82.2424 39.608 82.8398 37.88C83.4584 36.152 84.3544 34.7867 85.5278 33.784C86.7224 32.7813 88.2051 32.28 89.9758 32.28C91.7464 32.28 93.2184 32.7813 94.3918 33.784C95.5864 34.7867 96.4824 36.152 97.0798 37.88C97.6771 39.608 97.9757 41.5813 97.9757 43.8C97.9757 45.976 97.6771 47.9387 97.0798 49.688C96.4824 51.4373 95.5864 52.8133 94.3918 53.816C93.2184 54.8187 91.7464 55.32 89.9758 55.32ZM89.9758 52.728C91.1064 52.728 92.0558 52.3653 92.8238 51.64C93.6131 50.9147 94.2104 49.8907 94.6158 48.568C95.0211 47.224 95.2238 45.6347 95.2238 43.8C95.2238 41.944 95.0211 40.3547 94.6158 39.032C94.2104 37.688 93.6131 36.664 92.8238 35.96C92.0558 35.2347 91.1064 34.872 89.9758 34.872C88.8451 34.872 87.8851 35.2347 87.0958 35.96C86.3278 36.664 85.7304 37.688 85.3038 39.032C84.8984 40.3547 84.6958 41.944 84.6958 43.8C84.6958 45.6347 84.8984 47.224 85.3038 48.568C85.7304 49.8907 86.3278 50.9147 87.0958 51.64C87.8851 52.3653 88.8451 52.728 89.9758 52.728Z" fill="#358A66"/>
<path d="M32.24 100.752C32.4107 100.752 32.5653 100.811 32.704 100.928C32.8533 101.045 32.928 101.211 32.928 101.424C32.928 101.499 32.9173 101.579 32.896 101.664L29.488 111.584C29.4453 111.712 29.3653 111.813 29.248 111.888C29.1413 111.952 29.0293 111.989 28.912 112C28.784 112 28.6613 111.968 28.544 111.904C28.4267 111.829 28.336 111.723 28.272 111.584L25.6 105.12L25.728 105.168L23.072 111.584C23.008 111.723 22.9173 111.829 22.8 111.904C22.6827 111.968 22.56 112 22.432 112C22.3147 111.989 22.1973 111.952 22.08 111.888C21.9733 111.813 21.8987 111.712 21.856 111.584L18.448 101.664C18.4267 101.579 18.416 101.504 18.416 101.44C18.416 101.227 18.4907 101.061 18.64 100.944C18.8 100.816 18.96 100.752 19.12 100.752C19.248 100.752 19.3707 100.789 19.488 100.864C19.6053 100.939 19.6853 101.04 19.728 101.168L22.72 110H22.496L25.104 103.552C25.1573 103.424 25.2373 103.323 25.344 103.248C25.4507 103.173 25.5733 103.136 25.712 103.136C25.84 103.136 25.9573 103.173 26.064 103.248C26.1813 103.323 26.2613 103.424 26.304 103.552L28.832 109.904L28.64 109.984L31.616 101.168C31.6587 101.04 31.7387 100.939 31.856 100.864C31.9733 100.789 32.1013 100.752 32.24 100.752ZM41.2031 103.648C41.3845 103.648 41.5338 103.712 41.6511 103.84C41.7791 103.957 41.8431 104.107 41.8431 104.288V111.344C41.8431 111.525 41.7791 111.68 41.6511 111.808C41.5338 111.936 41.3845 112 41.2031 112C41.0111 112 40.8565 111.936 40.7391 111.808C40.6218 111.68 40.5631 111.525 40.5631 111.344V109.824L40.8671 109.792C40.8671 110.027 40.7871 110.283 40.6271 110.56C40.4671 110.837 40.2485 111.099 39.9711 111.344C39.6938 111.579 39.3631 111.776 38.9791 111.936C38.6058 112.085 38.2005 112.16 37.7631 112.16C37.0378 112.16 36.3871 111.973 35.8111 111.6C35.2351 111.216 34.7765 110.699 34.4351 110.048C34.1045 109.397 33.9391 108.656 33.9391 107.824C33.9391 106.981 34.1045 106.24 34.4351 105.6C34.7765 104.949 35.2351 104.443 35.8111 104.08C36.3871 103.707 37.0271 103.52 37.7311 103.52C38.1898 103.52 38.6165 103.595 39.0111 103.744C39.4058 103.893 39.7471 104.096 40.0351 104.352C40.3338 104.608 40.5631 104.891 40.7231 105.2C40.8938 105.509 40.9791 105.819 40.9791 106.128L40.5631 106.032V104.288C40.5631 104.107 40.6218 103.957 40.7391 103.84C40.8565 103.712 41.0111 103.648 41.2031 103.648ZM37.9071 110.976C38.4405 110.976 38.9098 110.837 39.3151 110.56C39.7311 110.283 40.0511 109.909 40.2751 109.44C40.5098 108.96 40.6271 108.421 40.6271 107.824C40.6271 107.237 40.5098 106.709 40.2751 106.24C40.0511 105.76 39.7311 105.387 39.3151 105.12C38.9098 104.843 38.4405 104.704 37.9071 104.704C37.3845 104.704 36.9151 104.837 36.4991 105.104C36.0938 105.371 35.7738 105.739 35.5391 106.208C35.3045 106.677 35.1871 107.216 35.1871 107.824C35.1871 108.421 35.2991 108.96 35.5231 109.44C35.7578 109.909 36.0778 110.283 36.4831 110.56C36.8991 110.837 37.3738 110.976 37.9071 110.976ZM44.8553 112C44.6739 112 44.5193 111.936 44.3913 111.808C44.2739 111.68 44.2153 111.525 44.2153 111.344V104.368C44.2153 104.187 44.2739 104.037 44.3913 103.92C44.5193 103.792 44.6739 103.728 44.8553 103.728C45.0473 103.728 45.2019 103.792 45.3193 103.92C45.4366 104.037 45.4953 104.187 45.4953 104.368V106.48L45.3033 106.144C45.3673 105.813 45.4793 105.493 45.6393 105.184C45.8099 104.864 46.0233 104.581 46.2793 104.336C46.5353 104.08 46.8286 103.883 47.1593 103.744C47.4899 103.595 47.8526 103.52 48.2473 103.52C48.4819 103.52 48.6953 103.579 48.8873 103.696C49.0899 103.803 49.1913 103.957 49.1913 104.16C49.1913 104.384 49.1326 104.549 49.0153 104.656C48.8979 104.763 48.7646 104.816 48.6153 104.816C48.4766 104.816 48.3433 104.789 48.2153 104.736C48.0873 104.672 47.9273 104.64 47.7352 104.64C47.4686 104.64 47.2019 104.715 46.9353 104.864C46.6793 105.003 46.4393 105.205 46.2153 105.472C46.0019 105.739 45.8259 106.043 45.6873 106.384C45.5593 106.715 45.4953 107.072 45.4953 107.456V111.344C45.4953 111.525 45.4313 111.68 45.3033 111.808C45.1859 111.936 45.0366 112 44.8553 112ZM54.5891 103.6C55.3145 103.6 55.9011 103.787 56.3491 104.16C56.8078 104.523 57.1118 105.04 57.2611 105.712H57.0211L57.1331 105.424C57.2611 105.125 57.4798 104.837 57.7891 104.56C58.0985 104.283 58.4558 104.053 58.8611 103.872C59.2665 103.691 59.6878 103.6 60.1251 103.6C60.8291 103.6 61.3838 103.755 61.7891 104.064C62.1945 104.363 62.4825 104.768 62.6531 105.28C62.8345 105.781 62.9251 106.347 62.9251 106.976V111.344C62.9251 111.525 62.8611 111.68 62.7331 111.808C62.6158 111.936 62.4665 112 62.2851 112C62.0931 112 61.9385 111.936 61.8211 111.808C61.7038 111.68 61.6451 111.525 61.6451 111.344V107.008C61.6451 106.592 61.5811 106.219 61.4531 105.888C61.3358 105.547 61.1385 105.28 60.8611 105.088C60.5945 104.885 60.2265 104.784 59.7571 104.784C59.3198 104.784 58.9198 104.885 58.5571 105.088C58.1945 105.28 57.9065 105.547 57.6931 105.888C57.4798 106.219 57.3731 106.592 57.3731 107.008V111.344C57.3731 111.525 57.3145 111.68 57.1971 111.808C57.0798 111.936 56.9251 112 56.7331 112C56.5518 112 56.3971 111.936 56.2691 111.808C56.1518 111.68 56.0931 111.525 56.0931 111.344V106.96C56.0931 106.555 56.0345 106.192 55.9171 105.872C55.8105 105.541 55.6238 105.28 55.3571 105.088C55.0905 104.885 54.7225 104.784 54.2531 104.784C53.8265 104.784 53.4371 104.885 53.0851 105.088C52.7331 105.28 52.4505 105.541 52.2371 105.872C52.0238 106.192 51.9171 106.555 51.9171 106.96V111.344C51.9171 111.525 51.8531 111.68 51.7251 111.808C51.6078 111.936 51.4585 112 51.2771 112C51.0958 112 50.9411 111.936 50.8131 111.808C50.6958 111.68 50.6371 111.525 50.6371 111.344V104.368C50.6371 104.187 50.6958 104.037 50.8131 103.92C50.9411 103.792 51.0958 103.728 51.2771 103.728C51.4691 103.728 51.6238 103.792 51.7411 103.92C51.8585 104.037 51.9171 104.187 51.9171 104.368V105.584L51.5651 105.968C51.6078 105.691 51.7145 105.413 51.8851 105.136C52.0665 104.859 52.2958 104.603 52.5731 104.368C52.8505 104.133 53.1598 103.947 53.5011 103.808C53.8425 103.669 54.2051 103.6 54.5891 103.6ZM64.9734 103.776H68.7334C68.904 103.776 69.0427 103.835 69.1494 103.952C69.2667 104.069 69.3254 104.208 69.3254 104.368C69.3254 104.539 69.2667 104.683 69.1494 104.8C69.0427 104.907 68.904 104.96 68.7334 104.96H64.9734C64.8134 104.96 64.6747 104.901 64.5574 104.784C64.44 104.667 64.3814 104.523 64.3814 104.352C64.3814 104.192 64.44 104.059 64.5574 103.952C64.6747 103.835 64.8134 103.776 64.9734 103.776ZM66.6534 101.6C66.8347 101.6 66.984 101.664 67.1014 101.792C67.2187 101.909 67.2774 102.059 67.2774 102.24V109.968C67.2774 110.224 67.3147 110.416 67.3894 110.544C67.464 110.672 67.56 110.763 67.6774 110.816C67.8054 110.859 67.928 110.88 68.0454 110.88C68.152 110.88 68.2427 110.864 68.3174 110.832C68.4027 110.789 68.4987 110.768 68.6054 110.768C68.712 110.768 68.808 110.821 68.8934 110.928C68.9894 111.024 69.0374 111.152 69.0374 111.312C69.0374 111.504 68.9254 111.669 68.7014 111.808C68.4774 111.936 68.2267 112 67.9494 112C67.8 112 67.6134 111.989 67.3894 111.968C67.176 111.947 66.9627 111.877 66.7494 111.76C66.536 111.643 66.3547 111.451 66.2054 111.184C66.0667 110.907 65.9974 110.523 65.9974 110.032V102.24C65.9974 102.059 66.0614 101.909 66.1894 101.792C66.3174 101.664 66.472 101.6 66.6534 101.6ZM74.8518 112.16C73.9984 112.16 73.2518 111.979 72.6118 111.616C71.9718 111.253 71.4704 110.757 71.1078 110.128C70.7558 109.488 70.5798 108.752 70.5798 107.92C70.5798 106.992 70.7611 106.203 71.1238 105.552C71.4971 104.891 71.9771 104.389 72.5638 104.048C73.1611 103.696 73.7904 103.52 74.4518 103.52C74.9424 103.52 75.4171 103.611 75.8758 103.792C76.3344 103.973 76.7398 104.24 77.0918 104.592C77.4438 104.933 77.7264 105.349 77.9398 105.84C78.1531 106.32 78.2651 106.859 78.2758 107.456C78.2758 107.627 78.2118 107.771 78.0838 107.888C77.9558 108.005 77.8064 108.064 77.6358 108.064H71.3158L71.0278 106.96H77.1878L76.9318 107.184V106.832C76.8891 106.395 76.7398 106.021 76.4838 105.712C76.2384 105.392 75.9344 105.147 75.5718 104.976C75.2198 104.805 74.8464 104.72 74.4518 104.72C74.1318 104.72 73.8118 104.779 73.4918 104.896C73.1824 105.003 72.8998 105.184 72.6438 105.44C72.3984 105.685 72.1958 106.005 72.0358 106.4C71.8864 106.795 71.8118 107.269 71.8118 107.824C71.8118 108.443 71.9344 108.987 72.1798 109.456C72.4358 109.925 72.7878 110.299 73.2358 110.576C73.6838 110.843 74.2064 110.976 74.8038 110.976C75.1771 110.976 75.5024 110.928 75.7798 110.832C76.0571 110.736 76.2971 110.619 76.4998 110.48C76.7024 110.331 76.8731 110.181 77.0118 110.032C77.1504 109.936 77.2838 109.888 77.4118 109.888C77.5718 109.888 77.6998 109.941 77.7958 110.048C77.9024 110.155 77.9558 110.283 77.9558 110.432C77.9558 110.613 77.8704 110.773 77.6998 110.912C77.4011 111.243 76.9958 111.536 76.4838 111.792C75.9718 112.037 75.4278 112.16 74.8518 112.16ZM84.2796 103.6C85.005 103.6 85.6556 103.781 86.2316 104.144C86.8076 104.507 87.261 105.008 87.5916 105.648C87.933 106.288 88.1036 107.024 88.1036 107.856C88.1036 108.677 87.933 109.413 87.5916 110.064C87.261 110.704 86.8076 111.211 86.2316 111.584C85.6663 111.947 85.0263 112.128 84.3116 112.128C83.917 112.128 83.5436 112.069 83.1916 111.952C82.8503 111.824 82.5356 111.664 82.2476 111.472C81.9703 111.269 81.7356 111.045 81.5436 110.8C81.3516 110.544 81.213 110.293 81.1276 110.048L81.4796 109.824V114.544C81.4796 114.725 81.421 114.88 81.3036 115.008C81.1863 115.136 81.0316 115.2 80.8396 115.2C80.6583 115.2 80.5036 115.136 80.3756 115.008C80.2583 114.891 80.1996 114.736 80.1996 114.544V104.32C80.1996 104.139 80.2583 103.989 80.3756 103.872C80.5036 103.744 80.6583 103.68 80.8396 103.68C81.0316 103.68 81.1863 103.744 81.3036 103.872C81.421 103.989 81.4796 104.139 81.4796 104.32V105.744L81.2396 105.616C81.3143 105.349 81.4423 105.093 81.6236 104.848C81.8156 104.603 82.045 104.389 82.3116 104.208C82.589 104.016 82.893 103.867 83.2236 103.76C83.565 103.653 83.917 103.6 84.2796 103.6ZM84.1356 104.784C83.6023 104.784 83.1276 104.917 82.7116 105.184C82.3063 105.451 81.9863 105.813 81.7516 106.272C81.5276 106.731 81.4156 107.259 81.4156 107.856C81.4156 108.443 81.5276 108.971 81.7516 109.44C81.9863 109.909 82.3063 110.277 82.7116 110.544C83.1276 110.811 83.6023 110.944 84.1356 110.944C84.669 110.944 85.1383 110.811 85.5436 110.544C85.949 110.277 86.269 109.909 86.5036 109.44C86.7383 108.971 86.8556 108.443 86.8556 107.856C86.8556 107.259 86.7383 106.731 86.5036 106.272C86.269 105.813 85.949 105.451 85.5436 105.184C85.1383 104.917 84.669 104.784 84.1356 104.784ZM97.8837 107.84C97.8837 108.672 97.6971 109.413 97.3238 110.064C96.9611 110.715 96.4651 111.227 95.8358 111.6C95.2171 111.973 94.5184 112.16 93.7398 112.16C92.9611 112.16 92.2571 111.973 91.6278 111.6C90.9984 111.227 90.4971 110.715 90.1238 110.064C89.7611 109.413 89.5798 108.672 89.5798 107.84C89.5798 107.008 89.7611 106.267 90.1238 105.616C90.4971 104.965 90.9984 104.453 91.6278 104.08C92.2571 103.707 92.9611 103.52 93.7398 103.52C94.5184 103.52 95.2171 103.707 95.8358 104.08C96.4651 104.453 96.9611 104.965 97.3238 105.616C97.6971 106.267 97.8837 107.008 97.8837 107.84ZM96.6038 107.84C96.6038 107.221 96.4758 106.677 96.2198 106.208C95.9744 105.739 95.6331 105.371 95.1958 105.104C94.7691 104.837 94.2838 104.704 93.7398 104.704C93.1958 104.704 92.7051 104.837 92.2678 105.104C91.8411 105.371 91.4998 105.739 91.2438 106.208C90.9878 106.677 90.8598 107.221 90.8598 107.84C90.8598 108.448 90.9878 108.987 91.2438 109.456C91.4998 109.925 91.8411 110.299 92.2678 110.576C92.7051 110.843 93.1958 110.976 93.7398 110.976C94.2838 110.976 94.7691 110.843 95.1958 110.576C95.6331 110.299 95.9744 109.925 96.2198 109.456C96.4758 108.987 96.6038 108.448 96.6038 107.84ZM103.761 103.6C104.486 103.6 105.073 103.787 105.521 104.16C105.98 104.523 106.284 105.04 106.433 105.712H106.193L106.305 105.424C106.433 105.125 106.652 104.837 106.961 104.56C107.27 104.283 107.628 104.053 108.033 103.872C108.438 103.691 108.86 103.6 109.297 103.6C110.001 103.6 110.556 103.755 110.961 104.064C111.366 104.363 111.654 104.768 111.825 105.28C112.006 105.781 112.097 106.347 112.097 106.976V111.344C112.097 111.525 112.033 111.68 111.905 111.808C111.788 111.936 111.638 112 111.457 112C111.265 112 111.11 111.936 110.993 111.808C110.876 111.68 110.817 111.525 110.817 111.344V107.008C110.817 106.592 110.753 106.219 110.625 105.888C110.508 105.547 110.31 105.28 110.033 105.088C109.766 104.885 109.398 104.784 108.929 104.784C108.492 104.784 108.092 104.885 107.729 105.088C107.366 105.28 107.078 105.547 106.865 105.888C106.652 106.219 106.545 106.592 106.545 107.008V111.344C106.545 111.525 106.486 111.68 106.369 111.808C106.252 111.936 106.097 112 105.905 112C105.724 112 105.569 111.936 105.441 111.808C105.324 111.68 105.265 111.525 105.265 111.344V106.96C105.265 106.555 105.206 106.192 105.089 105.872C104.982 105.541 104.796 105.28 104.529 105.088C104.262 104.885 103.894 104.784 103.425 104.784C102.998 104.784 102.609 104.885 102.257 105.088C101.905 105.28 101.622 105.541 101.409 105.872C101.196 106.192 101.089 106.555 101.089 106.96V111.344C101.089 111.525 101.025 111.68 100.897 111.808C100.78 111.936 100.63 112 100.449 112C100.268 112 100.113 111.936 99.985 111.808C99.8677 111.68 99.809 111.525 99.809 111.344V104.368C99.809 104.187 99.8677 104.037 99.985 103.92C100.113 103.792 100.268 103.728 100.449 103.728C100.641 103.728 100.796 103.792 100.913 103.92C101.03 104.037 101.089 104.187 101.089 104.368V105.584L100.737 105.968C100.78 105.691 100.886 105.413 101.057 105.136C101.238 104.859 101.468 104.603 101.745 104.368C102.022 104.133 102.332 103.947 102.673 103.808C103.014 103.669 103.377 103.6 103.761 103.6ZM118.545 103.6C119.271 103.6 119.921 103.781 120.497 104.144C121.073 104.507 121.527 105.008 121.857 105.648C122.199 106.288 122.369 107.024 122.369 107.856C122.369 108.677 122.199 109.413 121.857 110.064C121.527 110.704 121.073 111.211 120.497 111.584C119.932 111.947 119.292 112.128 118.577 112.128C118.183 112.128 117.809 112.069 117.457 111.952C117.116 111.824 116.801 111.664 116.513 111.472C116.236 111.269 116.001 111.045 115.809 110.8C115.617 110.544 115.479 110.293 115.393 110.048L115.745 109.824V114.544C115.745 114.725 115.687 114.88 115.569 115.008C115.452 115.136 115.297 115.2 115.105 115.2C114.924 115.2 114.769 115.136 114.641 115.008C114.524 114.891 114.465 114.736 114.465 114.544V104.32C114.465 104.139 114.524 103.989 114.641 103.872C114.769 103.744 114.924 103.68 115.105 103.68C115.297 103.68 115.452 103.744 115.569 103.872C115.687 103.989 115.745 104.139 115.745 104.32V105.744L115.505 105.616C115.58 105.349 115.708 105.093 115.889 104.848C116.081 104.603 116.311 104.389 116.577 104.208C116.855 104.016 117.159 103.867 117.489 103.76C117.831 103.653 118.183 103.6 118.545 103.6ZM118.401 104.784C117.868 104.784 117.393 104.917 116.977 105.184C116.572 105.451 116.252 105.813 116.017 106.272C115.793 106.731 115.681 107.259 115.681 107.856C115.681 108.443 115.793 108.971 116.017 109.44C116.252 109.909 116.572 110.277 116.977 110.544C117.393 110.811 117.868 110.944 118.401 110.944C118.935 110.944 119.404 110.811 119.809 110.544C120.215 110.277 120.535 109.909 120.769 109.44C121.004 108.971 121.121 108.443 121.121 107.856C121.121 107.259 121.004 106.731 120.769 106.272C120.535 105.813 120.215 105.451 119.809 105.184C119.404 104.917 118.935 104.784 118.401 104.784ZM128.117 112.16C127.264 112.16 126.517 111.979 125.877 111.616C125.237 111.253 124.736 110.757 124.373 110.128C124.021 109.488 123.845 108.752 123.845 107.92C123.845 106.992 124.027 106.203 124.389 105.552C124.763 104.891 125.243 104.389 125.829 104.048C126.427 103.696 127.056 103.52 127.717 103.52C128.208 103.52 128.683 103.611 129.141 103.792C129.6 103.973 130.005 104.24 130.357 104.592C130.709 104.933 130.992 105.349 131.205 105.84C131.419 106.32 131.531 106.859 131.541 107.456C131.541 107.627 131.477 107.771 131.349 107.888C131.221 108.005 131.072 108.064 130.901 108.064H124.581L124.293 106.96H130.453L130.197 107.184V106.832C130.155 106.395 130.005 106.021 129.749 105.712C129.504 105.392 129.2 105.147 128.837 104.976C128.485 104.805 128.112 104.72 127.717 104.72C127.397 104.72 127.077 104.779 126.757 104.896C126.448 105.003 126.165 105.184 125.909 105.44C125.664 105.685 125.461 106.005 125.301 106.4C125.152 106.795 125.077 107.269 125.077 107.824C125.077 108.443 125.2 108.987 125.445 109.456C125.701 109.925 126.053 110.299 126.501 110.576C126.949 110.843 127.472 110.976 128.069 110.976C128.443 110.976 128.768 110.928 129.045 110.832C129.323 110.736 129.563 110.619 129.765 110.48C129.968 110.331 130.139 110.181 130.277 110.032C130.416 109.936 130.549 109.888 130.677 109.888C130.837 109.888 130.965 109.941 131.061 110.048C131.168 110.155 131.221 110.283 131.221 110.432C131.221 110.613 131.136 110.773 130.965 110.912C130.667 111.243 130.261 111.536 129.749 111.792C129.237 112.037 128.693 112.16 128.117 112.16ZM137.577 103.52C138.303 103.52 138.873 103.669 139.289 103.968C139.705 104.267 139.999 104.667 140.169 105.168C140.351 105.669 140.441 106.229 140.441 106.848V111.344C140.441 111.525 140.377 111.68 140.249 111.808C140.132 111.936 139.983 112 139.801 112C139.62 112 139.465 111.936 139.337 111.808C139.22 111.68 139.161 111.525 139.161 111.344V106.88C139.161 106.475 139.097 106.112 138.969 105.792C138.852 105.461 138.649 105.2 138.361 105.008C138.084 104.805 137.7 104.704 137.209 104.704C136.761 104.704 136.351 104.805 135.977 105.008C135.604 105.2 135.305 105.461 135.081 105.792C134.857 106.112 134.745 106.475 134.745 106.88V111.344C134.745 111.525 134.681 111.68 134.553 111.808C134.436 111.936 134.287 112 134.105 112C133.924 112 133.769 111.936 133.641 111.808C133.524 111.68 133.465 111.525 133.465 111.344V104.368C133.465 104.187 133.524 104.037 133.641 103.92C133.769 103.792 133.924 103.728 134.105 103.728C134.297 103.728 134.452 103.792 134.569 103.92C134.687 104.037 134.745 104.187 134.745 104.368V105.504L134.425 105.856C134.479 105.579 134.601 105.301 134.793 105.024C134.985 104.736 135.225 104.48 135.513 104.256C135.801 104.032 136.121 103.856 136.473 103.728C136.825 103.589 137.193 103.52 137.577 103.52Z" fill="#358A66"/>
<rect x="29" y="74" width="100" height="5" rx="2.5" fill="#358A66"/>
<defs>
<filter id="filter0_d_36_19" x="0" y="0" width="158" height="158" filterUnits="userSpaceOnUse" color-interpolation-filters="sRGB">
<feFlood flood-opacity="0" result="BackgroundImageFix"/>
<feColorMatrix in="SourceAlpha" type="matrix" values="0 0 0 0 0 0 0 0 0 0 0 0 0 0 0 0 0 0 127 0" result="hardAlpha"/>
<feOffset/>
<feGaussianBlur stdDeviation="2"/>
<feComposite in2="hardAlpha" operator="out"/>
<feColorMatrix type="matrix" values="0 0 0 0 0 0 0 0 0 0 0 0 0 0 0 0 0 0 0.4 0"/>
<feBlend mode="normal" in2="BackgroundImageFix" result="effect1_dropShadow_36_19"/>
<feBlend mode="normal" in="SourceGraphic" in2="effect1_dropShadow_36_19" result="shape"/>
</filter>
<filter id="filter1_d_36_19" x="10" y="10" width="138" height="138" filterUnits="userSpaceOnUse" color-interpolation-filters="sRGB">
<feFlood flood-opacity="0" result="BackgroundImageFix"/>
<feColorMatrix in="SourceAlpha" type="matrix" values="0 0 0 0 0 0 0 0 0 0 0 0 0 0 0 0 0 0 127 0" result="hardAlpha"/>
<feOffset/>
<feGaussianBlur stdDeviation="2"/>
<feComposite in2="hardAlpha" operator="out"/>
<feColorMatrix type="matrix" values="0 0 0 0 0 0 0 0 0 0 0 0 0 0 0 0 0 0 0.4 0"/>
<feBlend mode="normal" in2="BackgroundImageFix" result="effect1_dropShadow_36_19"/>
<feBlend mode="normal" in="SourceGraphic" in2="effect1_dropShadow_36_19" result="shape"/>
</filter>
</defs>
</svg>
