<svg width="158" height="158" viewBox="0 0 158 158" fill="none" xmlns="http://www.w3.org/2000/svg">
<g filter="url(#filter0_d_36_18)">
<rect x="4" y="4" width="150" height="150" rx="30" fill="#56C596"/>
</g>
<g filter="url(#filter1_d_36_18)">
<rect x="14" y="14" width="130" height="130" rx="30" fill="white"/>
</g>
<path d="M63.584 55.128C62.7307 55.128 61.856 55 60.96 54.744C60.0853 54.4667 59.3173 54.0613 58.656 53.528C58.4853 53.3787 58.3467 53.1867 58.24 52.952C58.1333 52.7173 58.08 52.4933 58.08 52.28C58.08 52.024 58.1867 51.7787 58.4 51.544C58.6347 51.288 58.9333 51.16 59.296 51.16C59.5733 51.16 59.8933 51.2987 60.256 51.576C60.7253 51.9387 61.248 52.2267 61.824 52.44C62.4 52.6533 62.976 52.76 63.552 52.76C64.7467 52.76 65.7813 52.536 66.656 52.088C67.5307 51.64 68.2027 51.0107 68.672 50.2C69.1413 49.3893 69.376 48.44 69.376 47.352C69.376 46.3707 69.152 45.5173 68.704 44.792C68.2773 44.0453 67.6693 43.4693 66.88 43.064C66.112 42.6587 65.2267 42.456 64.224 42.456C63.4773 42.456 62.8053 42.5733 62.208 42.808C61.632 43.0213 61.12 43.2453 60.672 43.48C60.2453 43.7147 59.872 43.832 59.552 43.832C59.1467 43.832 58.8373 43.7467 58.624 43.576C58.4107 43.384 58.272 43.1493 58.208 42.872C58.144 42.5947 58.1227 42.3387 58.144 42.104L59.392 33.816C59.456 33.5387 59.6053 33.2933 59.84 33.08C60.0747 32.8667 60.3627 32.76 60.704 32.76H70.208C70.5493 32.76 70.8373 32.8773 71.072 33.112C71.3067 33.3467 71.424 33.6453 71.424 34.008C71.424 34.3493 71.3067 34.6373 71.072 34.872C70.8373 35.0853 70.5493 35.192 70.208 35.192H61.344L61.664 34.904L60.48 42.136L59.968 41.464C60.2027 41.2507 60.5547 41.0373 61.024 40.824C61.5147 40.6107 62.0693 40.4293 62.688 40.28C63.328 40.1307 63.9787 40.056 64.64 40.056C66.0267 40.056 67.264 40.376 68.352 41.016C69.4613 41.6347 70.336 42.488 70.976 43.576C71.616 44.664 71.936 45.912 71.936 47.32C71.936 48.8773 71.5947 50.2427 70.912 51.416C70.2293 52.5893 69.2587 53.5067 68 54.168C66.7627 54.808 65.2907 55.128 63.584 55.128ZM81.1413 55C80.7573 55 80.4373 54.872 80.1813 54.616C79.9253 54.36 79.7973 54.0507 79.7973 53.688V35.48L80.1813 35.928L76.5653 38.424C76.3519 38.5733 76.1066 38.648 75.8293 38.648C75.4666 38.648 75.1573 38.52 74.9013 38.264C74.6453 37.9867 74.5173 37.6773 74.5173 37.336C74.5173 36.8667 74.7413 36.4933 75.1893 36.216L80.2773 32.856C80.4479 32.7493 80.6186 32.6747 80.7893 32.632C80.9599 32.5893 81.1306 32.5787 81.3013 32.6C81.6853 32.6 81.9839 32.728 82.1973 32.984C82.4319 33.2187 82.5493 33.5173 82.5493 33.88V53.688C82.5493 54.0507 82.4106 54.36 82.1333 54.616C81.8773 54.872 81.5466 55 81.1413 55ZM94.9965 55.32C93.7805 55.32 92.7032 55.096 91.7645 54.648C90.8472 54.1787 90.0792 53.5493 89.4605 52.76C88.8418 51.9707 88.3725 51.0853 88.0525 50.104C87.7325 49.1227 87.5725 48.1093 87.5725 47.064C87.5725 46.1467 87.6898 45.1227 87.9245 43.992C88.1592 42.8613 88.5112 41.7093 88.9805 40.536C89.4712 39.3413 90.1005 38.2 90.8685 37.112C91.6365 36.024 92.5538 35.0533 93.6205 34.2C94.6872 33.3253 95.9138 32.6533 97.3005 32.184C97.4925 32.1413 97.6632 32.12 97.8125 32.12C98.1538 32.12 98.4525 32.216 98.7085 32.408C98.9858 32.5787 99.1245 32.8987 99.1245 33.368C99.1245 33.6667 99.0285 33.9333 98.8365 34.168C98.6445 34.3813 98.3885 34.5413 98.0685 34.648C97.2152 34.968 96.3725 35.4373 95.5405 36.056C94.7298 36.6533 93.9725 37.368 93.2685 38.2C92.5858 39.0107 91.9885 39.896 91.4765 40.856C90.9858 41.7947 90.6445 42.776 90.4525 43.8L89.6845 44.056C90.0472 43.48 90.5058 42.936 91.0605 42.424C91.6152 41.912 92.2552 41.496 92.9805 41.176C93.7272 40.856 94.5378 40.696 95.4125 40.696C96.3512 40.696 97.2258 40.8987 98.0365 41.304C98.8472 41.7093 99.5618 42.2533 100.181 42.936C100.799 43.6187 101.279 44.408 101.621 45.304C101.983 46.1787 102.165 47.096 102.165 48.056C102.165 49.3573 101.845 50.5627 101.205 51.672C100.586 52.76 99.7325 53.6453 98.6445 54.328C97.5778 54.9893 96.3618 55.32 94.9965 55.32ZM94.9645 52.92C95.8392 52.92 96.6178 52.7173 97.3005 52.312C98.0045 51.8853 98.5592 51.3093 98.9645 50.584C99.3698 49.8373 99.5725 48.9947 99.5725 48.056C99.5725 47.1813 99.3912 46.3707 99.0285 45.624C98.6658 44.8773 98.1432 44.28 97.4605 43.832C96.7992 43.3627 95.9992 43.128 95.0605 43.128C94.0578 43.128 93.1938 43.352 92.4685 43.8C91.7432 44.248 91.1778 44.856 90.7725 45.624C90.3885 46.3707 90.1965 47.2027 90.1965 48.12C90.1965 48.9733 90.3885 49.7627 90.7725 50.488C91.1565 51.2133 91.7005 51.8 92.4045 52.248C93.1298 52.696 93.9832 52.92 94.9645 52.92Z" fill="#358A66"/>
<path d="M33.944 100.8C34.136 100.8 34.3013 100.859 34.44 100.976C34.5787 101.093 34.648 101.243 34.648 101.424C34.648 101.563 34.6 101.696 34.504 101.824L27.624 110.88L27.528 110.768H33.88C34.0613 110.768 34.216 110.827 34.344 110.944C34.472 111.061 34.536 111.205 34.536 111.376C34.536 111.557 34.472 111.707 34.344 111.824C34.216 111.941 34.0613 112 33.88 112H26.44C26.248 112 26.088 111.931 25.96 111.792C25.832 111.653 25.768 111.509 25.768 111.36C25.768 111.221 25.816 111.088 25.912 110.96L32.776 101.936L32.904 102.016H26.92C26.7387 102.016 26.584 101.957 26.456 101.84C26.328 101.723 26.264 101.579 26.264 101.408C26.264 101.227 26.328 101.083 26.456 100.976C26.584 100.859 26.7387 100.8 26.92 100.8H33.944ZM44.3056 107.84C44.3056 108.672 44.119 109.413 43.7456 110.064C43.383 110.715 42.887 111.227 42.2576 111.6C41.639 111.973 40.9403 112.16 40.1616 112.16C39.383 112.16 38.679 111.973 38.0496 111.6C37.4203 111.227 36.919 110.715 36.5456 110.064C36.183 109.413 36.0016 108.672 36.0016 107.84C36.0016 107.008 36.183 106.267 36.5456 105.616C36.919 104.965 37.4203 104.453 38.0496 104.08C38.679 103.707 39.383 103.52 40.1616 103.52C40.9403 103.52 41.639 103.707 42.2576 104.08C42.887 104.453 43.383 104.965 43.7456 105.616C44.119 106.267 44.3056 107.008 44.3056 107.84ZM43.0256 107.84C43.0256 107.221 42.8976 106.677 42.6416 106.208C42.3963 105.739 42.055 105.371 41.6176 105.104C41.191 104.837 40.7056 104.704 40.1616 104.704C39.6176 104.704 39.127 104.837 38.6896 105.104C38.263 105.371 37.9216 105.739 37.6656 106.208C37.4096 106.677 37.2816 107.221 37.2816 107.84C37.2816 108.448 37.4096 108.987 37.6656 109.456C37.9216 109.925 38.263 110.299 38.6896 110.576C39.127 110.843 39.6176 110.976 40.1616 110.976C40.7056 110.976 41.191 110.843 41.6176 110.576C42.055 110.299 42.3963 109.925 42.6416 109.456C42.8976 108.987 43.0256 108.448 43.0256 107.84ZM50.3429 103.52C51.0682 103.52 51.6389 103.669 52.0549 103.968C52.4709 104.267 52.7642 104.667 52.9349 105.168C53.1162 105.669 53.2069 106.229 53.2069 106.848V111.344C53.2069 111.525 53.1429 111.68 53.0149 111.808C52.8975 111.936 52.7482 112 52.5669 112C52.3855 112 52.2309 111.936 52.1029 111.808C51.9855 111.68 51.9269 111.525 51.9269 111.344V106.88C51.9269 106.475 51.8629 106.112 51.7349 105.792C51.6175 105.461 51.4149 105.2 51.1269 105.008C50.8495 104.805 50.4655 104.704 49.9749 104.704C49.5269 104.704 49.1162 104.805 48.7429 105.008C48.3695 105.2 48.0709 105.461 47.8469 105.792C47.6229 106.112 47.5109 106.475 47.5109 106.88V111.344C47.5109 111.525 47.4469 111.68 47.3189 111.808C47.2015 111.936 47.0522 112 46.8709 112C46.6895 112 46.5349 111.936 46.4069 111.808C46.2895 111.68 46.2309 111.525 46.2309 111.344V104.368C46.2309 104.187 46.2895 104.037 46.4069 103.92C46.5349 103.792 46.6895 103.728 46.8709 103.728C47.0629 103.728 47.2175 103.792 47.3349 103.92C47.4522 104.037 47.5109 104.187 47.5109 104.368V105.504L47.1909 105.856C47.2442 105.579 47.3669 105.301 47.5589 105.024C47.7509 104.736 47.9909 104.48 48.2789 104.256C48.5669 104.032 48.8869 103.856 49.2389 103.728C49.5909 103.589 49.9589 103.52 50.3429 103.52ZM59.6866 103.52C60.412 103.52 60.9826 103.669 61.3986 103.968C61.8146 104.267 62.108 104.667 62.2786 105.168C62.46 105.669 62.5506 106.229 62.5506 106.848V111.344C62.5506 111.525 62.4866 111.68 62.3586 111.808C62.2413 111.936 62.092 112 61.9106 112C61.7293 112 61.5746 111.936 61.4466 111.808C61.3293 111.68 61.2706 111.525 61.2706 111.344V106.88C61.2706 106.475 61.2066 106.112 61.0786 105.792C60.9613 105.461 60.7586 105.2 60.4706 105.008C60.1933 104.805 59.8093 104.704 59.3186 104.704C58.8706 104.704 58.46 104.805 58.0866 105.008C57.7133 105.2 57.4146 105.461 57.1906 105.792C56.9666 106.112 56.8546 106.475 56.8546 106.88V111.344C56.8546 111.525 56.7906 111.68 56.6626 111.808C56.5453 111.936 56.396 112 56.2146 112C56.0333 112 55.8786 111.936 55.7506 111.808C55.6333 111.68 55.5746 111.525 55.5746 111.344V104.368C55.5746 104.187 55.6333 104.037 55.7506 103.92C55.8786 103.792 56.0333 103.728 56.2146 103.728C56.4066 103.728 56.5613 103.792 56.6786 103.92C56.796 104.037 56.8546 104.187 56.8546 104.368V105.504L56.5346 105.856C56.588 105.579 56.7106 105.301 56.9026 105.024C57.0946 104.736 57.3346 104.48 57.6226 104.256C57.9106 104.032 58.2306 103.856 58.5826 103.728C58.9346 103.589 59.3026 103.52 59.6866 103.52ZM68.7424 112.16C67.889 112.16 67.1424 111.979 66.5024 111.616C65.8624 111.253 65.361 110.757 64.9984 110.128C64.6464 109.488 64.4704 108.752 64.4704 107.92C64.4704 106.992 64.6517 106.203 65.0144 105.552C65.3877 104.891 65.8677 104.389 66.4544 104.048C67.0517 103.696 67.681 103.52 68.3424 103.52C68.833 103.52 69.3077 103.611 69.7664 103.792C70.225 103.973 70.6304 104.24 70.9824 104.592C71.3344 104.933 71.617 105.349 71.8304 105.84C72.0437 106.32 72.1557 106.859 72.1664 107.456C72.1664 107.627 72.1024 107.771 71.9744 107.888C71.8464 108.005 71.697 108.064 71.5264 108.064H65.2064L64.9184 106.96H71.0784L70.8224 107.184V106.832C70.7797 106.395 70.6304 106.021 70.3744 105.712C70.129 105.392 69.825 105.147 69.4624 104.976C69.1104 104.805 68.737 104.72 68.3424 104.72C68.0224 104.72 67.7024 104.779 67.3824 104.896C67.073 105.003 66.7904 105.184 66.5344 105.44C66.289 105.685 66.0864 106.005 65.9264 106.4C65.777 106.795 65.7024 107.269 65.7024 107.824C65.7024 108.443 65.825 108.987 66.0704 109.456C66.3264 109.925 66.6784 110.299 67.1264 110.576C67.5744 110.843 68.097 110.976 68.6944 110.976C69.0677 110.976 69.393 110.928 69.6704 110.832C69.9477 110.736 70.1877 110.619 70.3904 110.48C70.593 110.331 70.7637 110.181 70.9024 110.032C71.041 109.936 71.1744 109.888 71.3024 109.888C71.4624 109.888 71.5904 109.941 71.6864 110.048C71.793 110.155 71.8464 110.283 71.8464 110.432C71.8464 110.613 71.761 110.773 71.5904 110.912C71.2917 111.243 70.8864 111.536 70.3744 111.792C69.8624 112.037 69.3184 112.16 68.7424 112.16ZM78.1703 103.6C78.8956 103.6 79.5463 103.781 80.1223 104.144C80.6983 104.507 81.1516 105.008 81.4823 105.648C81.8236 106.288 81.9943 107.024 81.9943 107.856C81.9943 108.677 81.8236 109.413 81.4823 110.064C81.1516 110.704 80.6983 111.211 80.1223 111.584C79.5569 111.947 78.9169 112.128 78.2023 112.128C77.8076 112.128 77.4343 112.069 77.0823 111.952C76.7409 111.824 76.4263 111.664 76.1383 111.472C75.8609 111.269 75.6263 111.045 75.4343 110.8C75.2423 110.544 75.1036 110.293 75.0182 110.048L75.3703 109.824V114.544C75.3703 114.725 75.3116 114.88 75.1943 115.008C75.0769 115.136 74.9223 115.2 74.7303 115.2C74.5489 115.2 74.3943 115.136 74.2663 115.008C74.1489 114.891 74.0903 114.736 74.0903 114.544V104.32C74.0903 104.139 74.1489 103.989 74.2663 103.872C74.3943 103.744 74.5489 103.68 74.7303 103.68C74.9223 103.68 75.0769 103.744 75.1943 103.872C75.3116 103.989 75.3703 104.139 75.3703 104.32V105.744L75.1303 105.616C75.2049 105.349 75.3329 105.093 75.5143 104.848C75.7063 104.603 75.9356 104.389 76.2023 104.208C76.4796 104.016 76.7836 103.867 77.1143 103.76C77.4556 103.653 77.8076 103.6 78.1703 103.6ZM78.0263 104.784C77.4929 104.784 77.0183 104.917 76.6023 105.184C76.1969 105.451 75.8769 105.813 75.6423 106.272C75.4183 106.731 75.3063 107.259 75.3063 107.856C75.3063 108.443 75.4183 108.971 75.6423 109.44C75.8769 109.909 76.1969 110.277 76.6023 110.544C77.0183 110.811 77.4929 110.944 78.0263 110.944C78.5596 110.944 79.0289 110.811 79.4343 110.544C79.8396 110.277 80.1596 109.909 80.3943 109.44C80.6289 108.971 80.7463 108.443 80.7463 107.856C80.7463 107.259 80.6289 106.731 80.3943 106.272C80.1596 105.813 79.8396 105.451 79.4343 105.184C79.0289 104.917 78.5596 104.784 78.0263 104.784ZM90.7344 103.648C90.9157 103.648 91.065 103.712 91.1824 103.84C91.3104 103.957 91.3744 104.107 91.3744 104.288V111.344C91.3744 111.525 91.3104 111.68 91.1824 111.808C91.065 111.936 90.9157 112 90.7344 112C90.5424 112 90.3877 111.936 90.2704 111.808C90.153 111.68 90.0944 111.525 90.0944 111.344V109.824L90.3984 109.792C90.3984 110.027 90.3184 110.283 90.1584 110.56C89.9984 110.837 89.7797 111.099 89.5024 111.344C89.225 111.579 88.8944 111.776 88.5104 111.936C88.137 112.085 87.7317 112.16 87.2944 112.16C86.569 112.16 85.9184 111.973 85.3424 111.6C84.7664 111.216 84.3077 110.699 83.9664 110.048C83.6357 109.397 83.4704 108.656 83.4704 107.824C83.4704 106.981 83.6357 106.24 83.9664 105.6C84.3077 104.949 84.7664 104.443 85.3424 104.08C85.9184 103.707 86.5584 103.52 87.2624 103.52C87.721 103.52 88.1477 103.595 88.5424 103.744C88.937 103.893 89.2784 104.096 89.5664 104.352C89.865 104.608 90.0944 104.891 90.2544 105.2C90.425 105.509 90.5104 105.819 90.5104 106.128L90.0944 106.032V104.288C90.0944 104.107 90.153 103.957 90.2704 103.84C90.3877 103.712 90.5424 103.648 90.7344 103.648ZM87.4384 110.976C87.9717 110.976 88.441 110.837 88.8464 110.56C89.2624 110.283 89.5824 109.909 89.8064 109.44C90.041 108.96 90.1584 108.421 90.1584 107.824C90.1584 107.237 90.041 106.709 89.8064 106.24C89.5824 105.76 89.2624 105.387 88.8464 105.12C88.441 104.843 87.9717 104.704 87.4384 104.704C86.9157 104.704 86.4464 104.837 86.0304 105.104C85.625 105.371 85.305 105.739 85.0704 106.208C84.8357 106.677 84.7184 107.216 84.7184 107.824C84.7184 108.421 84.8304 108.96 85.0544 109.44C85.289 109.909 85.609 110.283 86.0144 110.56C86.4304 110.837 86.905 110.976 87.4384 110.976ZM97.8585 103.52C98.5838 103.52 99.1545 103.669 99.5705 103.968C99.9865 104.267 100.28 104.667 100.451 105.168C100.632 105.669 100.723 106.229 100.723 106.848V111.344C100.723 111.525 100.659 111.68 100.531 111.808C100.413 111.936 100.264 112 100.083 112C99.9012 112 99.7465 111.936 99.6185 111.808C99.5012 111.68 99.4425 111.525 99.4425 111.344V106.88C99.4425 106.475 99.3785 106.112 99.2505 105.792C99.1332 105.461 98.9305 105.2 98.6425 105.008C98.3652 104.805 97.9812 104.704 97.4905 104.704C97.0425 104.704 96.6318 104.805 96.2585 105.008C95.8852 105.2 95.5865 105.461 95.3625 105.792C95.1385 106.112 95.0265 106.475 95.0265 106.88V111.344C95.0265 111.525 94.9625 111.68 94.8345 111.808C94.7172 111.936 94.5678 112 94.3865 112C94.2052 112 94.0505 111.936 93.9225 111.808C93.8052 111.68 93.7465 111.525 93.7465 111.344V104.368C93.7465 104.187 93.8052 104.037 93.9225 103.92C94.0505 103.792 94.2052 103.728 94.3865 103.728C94.5785 103.728 94.7332 103.792 94.8505 103.92C94.9678 104.037 95.0265 104.187 95.0265 104.368V105.504L94.7065 105.856C94.7598 105.579 94.8825 105.301 95.0745 105.024C95.2665 104.736 95.5065 104.48 95.7945 104.256C96.0825 104.032 96.4025 103.856 96.7545 103.728C97.1065 103.589 97.4745 103.52 97.8585 103.52ZM106.914 112.16C106.061 112.16 105.314 111.979 104.674 111.616C104.034 111.253 103.533 110.757 103.17 110.128C102.818 109.488 102.642 108.752 102.642 107.92C102.642 106.992 102.824 106.203 103.186 105.552C103.56 104.891 104.04 104.389 104.626 104.048C105.224 103.696 105.853 103.52 106.514 103.52C107.005 103.52 107.48 103.611 107.938 103.792C108.397 103.973 108.802 104.24 109.154 104.592C109.506 104.933 109.789 105.349 110.002 105.84C110.216 106.32 110.328 106.859 110.338 107.456C110.338 107.627 110.274 107.771 110.146 107.888C110.018 108.005 109.869 108.064 109.698 108.064H103.378L103.09 106.96H109.25L108.994 107.184V106.832C108.952 106.395 108.802 106.021 108.546 105.712C108.301 105.392 107.997 105.147 107.634 104.976C107.282 104.805 106.909 104.72 106.514 104.72C106.194 104.72 105.874 104.779 105.554 104.896C105.245 105.003 104.962 105.184 104.706 105.44C104.461 105.685 104.258 106.005 104.098 106.4C103.949 106.795 103.874 107.269 103.874 107.824C103.874 108.443 103.997 108.987 104.242 109.456C104.498 109.925 104.85 110.299 105.298 110.576C105.746 110.843 106.269 110.976 106.866 110.976C107.24 110.976 107.565 110.928 107.842 110.832C108.12 110.736 108.36 110.619 108.562 110.48C108.765 110.331 108.936 110.181 109.074 110.032C109.213 109.936 109.346 109.888 109.474 109.888C109.634 109.888 109.762 109.941 109.858 110.048C109.965 110.155 110.018 110.283 110.018 110.432C110.018 110.613 109.933 110.773 109.762 110.912C109.464 111.243 109.058 111.536 108.546 111.792C108.034 112.037 107.49 112.16 106.914 112.16ZM113.67 111.344C113.67 111.525 113.606 111.68 113.478 111.808C113.35 111.936 113.195 112 113.014 112C112.833 112 112.683 111.936 112.566 111.808C112.449 111.68 112.39 111.525 112.39 111.344V100.8C112.39 100.619 112.449 100.469 112.566 100.352C112.694 100.224 112.849 100.16 113.03 100.16C113.222 100.16 113.377 100.224 113.494 100.352C113.611 100.469 113.67 100.619 113.67 100.8V111.344ZM119.821 112.16C118.967 112.16 118.221 111.979 117.581 111.616C116.941 111.253 116.439 110.757 116.077 110.128C115.725 109.488 115.549 108.752 115.549 107.92C115.549 106.992 115.73 106.203 116.093 105.552C116.466 104.891 116.946 104.389 117.533 104.048C118.13 103.696 118.759 103.52 119.421 103.52C119.911 103.52 120.386 103.611 120.845 103.792C121.303 103.973 121.709 104.24 122.061 104.592C122.413 104.933 122.695 105.349 122.909 105.84C123.122 106.32 123.234 106.859 123.245 107.456C123.245 107.627 123.181 107.771 123.053 107.888C122.925 108.005 122.775 108.064 122.605 108.064H116.285L115.997 106.96H122.157L121.901 107.184V106.832C121.858 106.395 121.709 106.021 121.453 105.712C121.207 105.392 120.903 105.147 120.541 104.976C120.189 104.805 119.815 104.72 119.421 104.72C119.101 104.72 118.781 104.779 118.461 104.896C118.151 105.003 117.869 105.184 117.613 105.44C117.367 105.685 117.165 106.005 117.005 106.4C116.855 106.795 116.781 107.269 116.781 107.824C116.781 108.443 116.903 108.987 117.149 109.456C117.405 109.925 117.757 110.299 118.205 110.576C118.653 110.843 119.175 110.976 119.773 110.976C120.146 110.976 120.471 110.928 120.749 110.832C121.026 110.736 121.266 110.619 121.469 110.48C121.671 110.331 121.842 110.181 121.981 110.032C122.119 109.936 122.253 109.888 122.381 109.888C122.541 109.888 122.669 109.941 122.765 110.048C122.871 110.155 122.925 110.283 122.925 110.432C122.925 110.613 122.839 110.773 122.669 110.912C122.37 111.243 121.965 111.536 121.453 111.792C120.941 112.037 120.397 112.16 119.821 112.16ZM129.28 103.52C130.006 103.52 130.576 103.669 130.992 103.968C131.408 104.267 131.702 104.667 131.872 105.168C132.054 105.669 132.144 106.229 132.144 106.848V111.344C132.144 111.525 132.08 111.68 131.952 111.808C131.835 111.936 131.686 112 131.504 112C131.323 112 131.168 111.936 131.04 111.808C130.923 111.68 130.864 111.525 130.864 111.344V106.88C130.864 106.475 130.8 106.112 130.672 105.792C130.555 105.461 130.352 105.2 130.064 105.008C129.787 104.805 129.403 104.704 128.912 104.704C128.464 104.704 128.054 104.805 127.68 105.008C127.307 105.2 127.008 105.461 126.784 105.792C126.56 106.112 126.448 106.475 126.448 106.88V111.344C126.448 111.525 126.384 111.68 126.256 111.808C126.139 111.936 125.99 112 125.808 112C125.627 112 125.472 111.936 125.344 111.808C125.227 111.68 125.168 111.525 125.168 111.344V104.368C125.168 104.187 125.227 104.037 125.344 103.92C125.472 103.792 125.627 103.728 125.808 103.728C126 103.728 126.155 103.792 126.272 103.92C126.39 104.037 126.448 104.187 126.448 104.368V105.504L126.128 105.856C126.182 105.579 126.304 105.301 126.496 105.024C126.688 104.736 126.928 104.48 127.216 104.256C127.504 104.032 127.824 103.856 128.176 103.728C128.528 103.589 128.896 103.52 129.28 103.52Z" fill="#358A66"/>
<rect x="29" y="74" width="100" height="5" rx="2.5" fill="#358A66"/>
<defs>
<filter id="filter0_d_36_18" x="0" y="0" width="158" height="158" filterUnits="userSpaceOnUse" color-interpolation-filters="sRGB">
<feFlood flood-opacity="0" result="BackgroundImageFix"/>
<feColorMatrix in="SourceAlpha" type="matrix" values="0 0 0 0 0 0 0 0 0 0 0 0 0 0 0 0 0 0 127 0" result="hardAlpha"/>
<feOffset/>
<feGaussianBlur stdDeviation="2"/>
<feComposite in2="hardAlpha" operator="out"/>
<feColorMatrix type="matrix" values="0 0 0 0 0 0 0 0 0 0 0 0 0 0 0 0 0 0 0.4 0"/>
<feBlend mode="normal" in2="BackgroundImageFix" result="effect1_dropShadow_36_18"/>
<feBlend mode="normal" in="SourceGraphic" in2="effect1_dropShadow_36_18" result="shape"/>
</filter>
<filter id="filter1_d_36_18" x="10" y="10" width="138" height="138" filterUnits="userSpaceOnUse" color-interpolation-filters="sRGB">
<feFlood flood-opacity="0" result="BackgroundImageFix"/>
<feColorMatrix in="SourceAlpha" type="matrix" values="0 0 0 0 0 0 0 0 0 0 0 0 0 0 0 0 0 0 127 0" result="hardAlpha"/>
<feOffset/>
<feGaussianBlur stdDeviation="2"/>
<feComposite in2="hardAlpha" operator="out"/>
<feColorMatrix type="matrix" values="0 0 0 0 0 0 0 0 0 0 0 0 0 0 0 0 0 0 0.4 0"/>
<feBlend mode="normal" in2="BackgroundImageFix" result="effect1_dropShadow_36_18"/>
<feBlend mode="normal" in="SourceGraphic" in2="effect1_dropShadow_36_18" result="shape"/>
</filter>
</defs>
</svg>
