<svg width="86" height="48" viewBox="0 0 86 48" fill="none" xmlns="http://www.w3.org/2000/svg">
<path d="M41.4813 13L44.5187 13V38H58V4H28V38H41.4813V13Z" fill="#3B3B3B" stroke="black" stroke-miterlimit="10" stroke-linecap="round"/>
<path d="M44 37C44 36.4477 44.4477 36 45 36H57.5C58.0523 36 58.5 36.4477 58.5 37V39C58.5 39.5523 58.0523 40 57.5 40H45C44.4477 40 44 39.5523 44 39V37Z" fill="#D9D9D9" stroke="black"/>
<path d="M27.5 37C27.5 36.4477 27.9477 36 28.5 36H41C41.5523 36 42 36.4477 42 37V39C42 39.5523 41.5523 40 41 40H28.5C27.9477 40 27.5 39.5523 27.5 39V37Z" fill="#D9D9D9" stroke="black"/>
</svg>
