<svg width="86" height="62" viewBox="0 0 86 62" fill="none" xmlns="http://www.w3.org/2000/svg">
<path d="M69.4911 8.14271C65.2013 3.05699 56 4.07414 56 11.7027C55.9999 22.7574 56.7082 24.3591 57.9064 34.0799C59.027 43.17 67.2212 49.9351 64.3825 57.4284C64.1088 58.1509 64.5914 58.8324 65.263 58.4505C66.7604 57.5989 68.5595 55.7942 69.3317 53.2919C69.1221 54.229 68.7287 55.0851 68.2916 55.8601C68.0229 56.3363 68.3922 56.6615 68.7258 56.2284C75.9122 46.8986 77.8956 15.6943 69.4911 8.14271Z" fill="#231C1C"/>
<path d="M69.4911 51.88C69.4911 53.3848 68.9395 54.7115 68.2916 55.8601C68.0229 56.3363 68.3922 56.6615 68.7258 56.2284C75.9122 46.8986 77.8956 15.6943 69.4911 8.14271C65.2013 3.05699 56 4.07414 56 11.7027C55.9999 22.7574 56.7082 24.3591 57.9064 34.0799C59.027 43.17 67.2212 49.9351 64.3825 57.4284C64.1088 58.1509 64.5914 58.8324 65.263 58.4505C66.7604 57.5989 68.5595 55.7942 69.3317 53.2919" stroke="black" stroke-linecap="round" stroke-linejoin="round"/>
<path d="M16.5089 8.14271C20.7987 3.05699 30 4.07414 30 11.7027C30.0001 22.7574 29.2918 24.3591 28.0936 34.0799C26.973 43.17 18.7788 49.9351 21.6175 57.4284C21.8912 58.1509 21.4086 58.8324 20.737 58.4505C19.2396 57.5989 17.4405 55.7942 16.6683 53.2919C16.8779 54.229 17.2713 55.0851 17.7084 55.8601C17.9771 56.3363 17.6078 56.6615 17.2742 56.2284C10.0878 46.8986 8.10444 15.6943 16.5089 8.14271Z" fill="#231C1C"/>
<path d="M16.5089 51.88C16.5089 53.3848 17.0605 54.7115 17.7084 55.8601C17.9771 56.3363 17.6078 56.6615 17.2742 56.2284C10.0878 46.8986 8.10444 15.6943 16.5089 8.14271C20.7987 3.05699 30 4.07414 30 11.7027C30.0001 22.7574 29.2918 24.3591 28.0936 34.0799C26.973 43.17 18.7788 49.9351 21.6175 57.4284C21.8912 58.1509 21.4086 58.8324 20.737 58.4505C19.2396 57.5989 17.4405 55.7942 16.6683 53.2919" stroke="black" stroke-linecap="round" stroke-linejoin="round"/>
<ellipse cx="61.5021" cy="12.3252" rx="7.5" ry="3.5" transform="rotate(-130 61.5021 12.3252)" fill="#FFAB00" stroke="black"/>
<ellipse cx="24.5021" cy="12.3252" rx="7.5" ry="3.5" transform="rotate(130 24.5021 12.3252)" fill="#FFAB00" stroke="black"/>
<path d="M43 4C27.5 4 19 14.8437 19 28.2201C19 37.5 23.5 50 43 50C62.5 50 67 37.5 67 28.2201C67 14.8437 58.5 4 43 4Z" fill="#231C1C" stroke="black"/>
<path d="M32.8261 25.6328C30.3261 23.1328 30.8261 18.6327 30.8261 18.6327C30.4003 20.0523 29.6116 25.5828 23.8261 28.1184C23.4592 28.2792 23.3261 42.6328 26.3261 46.1328C20.941 44.6642 20.3492 32.5167 20.3268 29.3247C20.3258 29.193 20.3128 29.0687 20.2888 28.9392C19.8174 26.4005 19.6795 21.926 21.8261 17.6328C25.3261 10.6328 29.8262 7.63279 33.8261 7.13284C46.6996 -0.0190711 65.9385 11.9251 65.095 26.4897C65.0204 27.7766 64.6295 29.4614 64.5783 30.7495C64.3959 35.3377 64.0836 45.8507 57.8261 46.6328C62.3261 41.6328 61.733 28.7118 61.2449 28.6328C60.1738 28.4594 59.286 28.1244 58.553 27.6922C55.7793 28.2715 53.6823 27.9609 52.194 27.1829C49.5681 28.1683 47.6043 28.164 46.2013 27.542C44.0226 27.9051 42.19 27.7528 40.7393 27.172C39.5825 27.6497 35.1209 27.9276 32.8261 25.6328Z" fill="#231C1C"/>
<path d="M39.8261 27.1328C38.8261 27.6328 35.1831 27.9899 32.826 25.6328C30.326 23.1328 30.8261 18.6328 30.8261 18.6328C30.3929 20.0768 29.9597 25.7742 23.9988 28.2465M36.826 20.6328C36.826 25.6328 39.8261 28.6328 45.826 27.6328M43.326 22.1328C43.326 26.1328 45.326 29.6328 51.826 27.1328M49.326 22.6328C49.326 25.6328 51.826 29.1328 58.4542 27.6328M30.8261 17.1328C30.8261 16.2995 31.0261 14.4328 31.8261 13.6328M64.467 21.6328C65.8261 40.6329 61.8261 46.6329 57.8261 46.6329C60.8504 45.3367 61.3859 35.4543 61.0455 28.5983M20.8261 22.1328C19.8261 24.6329 19.8261 46.6329 27.3261 46.6329C24.116 45.1329 23.5584 33.7991 23.9988 28.2465M49.326 21.1328C49.326 21.1328 49.3261 20.6328 49.8261 19.6328M43.326 20.6328V20.1328M55.326 22.6328C55.4601 24.2416 56.6726 27.7916 61.0455 28.5983M24.3261 25.1329C24.2078 25.9908 24.0939 27.0482 23.9988 28.2465M60.8261 25.6328C60.9167 26.5163 60.9919 27.5199 61.0455 28.5983" stroke="black" stroke-linecap="round" stroke-linejoin="round"/>
</svg>
