<svg width="48" height="27" viewBox="0 0 48 27" fill="none" xmlns="http://www.w3.org/2000/svg">
<path d="M44.0371 24.3418C43.8824 24.4495 43.6985 24.5 43.5082 24.5H27.5499C26.4286 24.5 25.5226 23.6156 25.5226 22.5247V15.5986C28.0001 15.5986 29.0264 17.6035 32.0001 18C32.5427 18.0723 33.0408 18.1185 33.5001 18.1422C35.0001 14 38.6668 13 40.0001 13L42.0001 14C40.6668 14 36.5001 15.5986 36.0808 18C39.5001 17.57 40.4952 15.2157 44.0371 15.5986C46.6641 18.5224 46.6444 22.5264 44.0371 24.3418Z" fill="#3B3B3B"/>
<path d="M36.0808 18C35.6588 18.0531 35.0001 18.1359 35.0001 18.1359C34.1756 18.1918 33.1959 18.1594 32.0001 18C29.0264 17.6035 28.0001 15.5986 25.5226 15.5986V22.5247C25.5226 23.6156 26.4286 24.5 27.5499 24.5H43.5082C43.6985 24.5 43.8824 24.4495 44.0371 24.3418C46.6444 22.5264 46.6641 18.5224 44.0371 15.5986C40.4952 15.2157 39.5001 17.57 36.0808 18ZM36.0808 18C36.5001 15.5986 40.6668 14 42.0001 14L40.0001 13C38.6668 13 35.0001 14 33.5001 18.1422" stroke="black" stroke-miterlimit="10" stroke-linecap="round" stroke-linejoin="round"/>
<path d="M3.96297 24.3418C4.11769 24.4495 4.30165 24.5 4.49189 24.5H20.4502C21.5715 24.5 22.4775 23.6156 22.4775 22.5247V15.5986C20 15.5986 18.9737 17.6035 16 18C15.4574 18.0723 14.9593 18.1185 14.5 18.1422C13 14 9.33333 13 8 13L6 14C7.33333 14 11.5 15.5986 11.9193 18C8.5 17.57 7.50488 15.2157 3.96297 15.5986C1.33602 18.5224 1.35568 22.5264 3.96297 24.3418Z" fill="#3B3B3B"/>
<path d="M11.9193 18C12.3413 18.0531 13 18.1359 13 18.1359C13.8246 18.1918 14.8043 18.1594 16 18C18.9737 17.6035 20 15.5986 22.4775 15.5986V22.5247C22.4775 23.6156 21.5715 24.5 20.4502 24.5H4.49189C4.30165 24.5 4.11769 24.4495 3.96297 24.3418C1.35568 22.5264 1.33601 18.5224 3.96297 15.5986C7.50488 15.2157 8.5 17.57 11.9193 18ZM11.9193 18C11.5 15.5986 7.33333 14 6 14L8 13C9.33333 13 13 14 14.5 18.1422" stroke="black" stroke-miterlimit="10" stroke-linecap="round" stroke-linejoin="round"/>
</svg>
