<svg width="47" height="43" viewBox="0 0 47 43" fill="none" xmlns="http://www.w3.org/2000/svg">
<path d="M13.8261 20.6328C11.3261 18.1328 11.8261 13.6327 11.8261 13.6327C11.4003 15.0523 10.6116 20.5828 4.82611 23.1184C4.45919 23.2792 4.32611 37.6328 7.32611 41.1328C1.94103 39.6642 1.34915 27.5167 1.32677 24.3247C1.32584 24.193 1.3128 24.0687 1.28875 23.9392C0.817357 21.4005 0.679475 16.926 2.82608 12.6328C6.32611 5.63279 10.8262 2.63279 14.8261 2.13284C27.6996 -5.01907 46.9385 6.92508 46.095 21.4897C46.0204 22.7766 45.6295 24.4614 45.5783 25.7495C45.3959 30.3377 45.0836 40.8507 38.8261 41.6328C43.3261 36.6328 42.733 23.7118 42.2449 23.6328C41.1738 23.4594 40.286 23.1244 39.553 22.6922C36.7793 23.2715 34.6823 22.9609 33.194 22.1829C30.5681 23.1683 28.6043 23.164 27.2013 22.542C25.0226 22.9051 23.19 22.7528 21.7393 22.172C20.5825 22.6497 16.1209 22.9276 13.8261 20.6328Z" fill="#231C1C"/>
<path d="M20.8261 22.1328C19.8261 22.6328 16.1831 22.9899 13.826 20.6328C11.326 18.1328 11.8261 13.6328 11.8261 13.6328C11.3929 15.0768 10.9597 20.7742 4.99884 23.2465M17.826 15.6328C17.826 20.6328 20.8261 23.6328 26.826 22.6328M24.326 17.1328C24.326 21.1328 26.326 24.6328 32.826 22.1328M30.326 17.6328C30.326 20.6328 32.826 24.1328 39.4542 22.6328M11.8261 12.1328C11.8261 11.2995 12.0261 9.4328 12.8261 8.6328M45.467 16.6328C46.8261 35.6329 42.8261 41.6329 38.8261 41.6329C41.8504 40.3367 42.3859 30.4543 42.0455 23.5983M1.82605 17.1328C0.826101 19.6329 0.826082 41.6329 8.32611 41.6329C5.11603 40.1329 4.55845 28.7991 4.99884 23.2465M30.326 16.1328C30.326 16.1328 30.3261 15.6328 30.8261 14.6328M24.326 15.6328V15.1328M36.326 17.6328C36.4601 19.2416 37.6726 22.7916 42.0455 23.5983M5.32611 20.1329C5.20777 20.9908 5.09388 22.0482 4.99884 23.2465M41.8261 20.6328C41.9167 21.5163 41.9919 22.5199 42.0455 23.5983" stroke="black" stroke-linecap="round" stroke-linejoin="round"/>
</svg>
