<svg width="86" height="62" viewBox="0 0 86 62" fill="none" xmlns="http://www.w3.org/2000/svg">
<path d="M69.4911 8.14271C65.2013 3.05699 56 4.07414 56 11.7027C55.9999 22.7574 56.7082 24.3591 57.9064 34.0799C59.027 43.17 67.2212 49.9351 64.3825 57.4284C64.1088 58.1509 64.5914 58.8324 65.263 58.4505C66.7604 57.5989 68.5595 55.7942 69.3317 53.2919C69.1221 54.229 68.7287 55.0851 68.2916 55.8601C68.0229 56.3363 68.3922 56.6615 68.7258 56.2284C75.9122 46.8986 77.8956 15.6943 69.4911 8.14271Z" fill="#231C1C"/>
<path d="M69.4911 51.88C69.4911 53.3848 68.9395 54.7115 68.2916 55.8601C68.0229 56.3363 68.3922 56.6615 68.7258 56.2284C75.9122 46.8986 77.8956 15.6943 69.4911 8.14271C65.2013 3.05699 56 4.07414 56 11.7027C55.9999 22.7574 56.7082 24.3591 57.9064 34.0799C59.027 43.17 67.2212 49.9351 64.3825 57.4284C64.1088 58.1509 64.5914 58.8324 65.263 58.4505C66.7604 57.5989 68.5595 55.7942 69.3317 53.2919" stroke="black" stroke-linecap="round" stroke-linejoin="round"/>
<path d="M16.5089 8.14271C20.7987 3.05699 30 4.07414 30 11.7027C30.0001 22.7574 29.2918 24.3591 28.0936 34.0799C26.973 43.17 18.7788 49.9351 21.6175 57.4284C21.8912 58.1509 21.4086 58.8324 20.737 58.4505C19.2396 57.5989 17.4405 55.7942 16.6683 53.2919C16.8779 54.229 17.2713 55.0851 17.7084 55.8601C17.9771 56.3363 17.6078 56.6615 17.2742 56.2284C10.0878 46.8986 8.10444 15.6943 16.5089 8.14271Z" fill="#231C1C"/>
<path d="M16.5089 51.88C16.5089 53.3848 17.0605 54.7115 17.7084 55.8601C17.9771 56.3363 17.6078 56.6615 17.2742 56.2284C10.0878 46.8986 8.10444 15.6943 16.5089 8.14271C20.7987 3.05699 30 4.07414 30 11.7027C30.0001 22.7574 29.2918 24.3591 28.0936 34.0799C26.973 43.17 18.7788 49.9351 21.6175 57.4284C21.8912 58.1509 21.4086 58.8324 20.737 58.4505C19.2396 57.5989 17.4405 55.7942 16.6683 53.2919" stroke="black" stroke-linecap="round" stroke-linejoin="round"/>
<ellipse cx="61.5021" cy="12.3252" rx="7.5" ry="3.5" transform="rotate(-130 61.5021 12.3252)" fill="#FFAB00" stroke="black"/>
<ellipse cx="24.5021" cy="12.3252" rx="7.5" ry="3.5" transform="rotate(130 24.5021 12.3252)" fill="#FFAB00" stroke="black"/>
<path d="M43 4C27.5 4 19 14.8437 19 28.2201C19 37.5 23.5 50 43 50C62.5 50 67 37.5 67 28.2201C67 14.8437 58.5 4 43 4Z" fill="#231C1C" stroke="black"/>
</svg>
