<svg width="16" height="12" viewBox="0 0 16 12" fill="none" xmlns="http://www.w3.org/2000/svg">
<path d="M10.5 3H13.5" stroke="black" stroke-width="1.5" stroke-miterlimit="10" stroke-linecap="round"/>
<path d="M2.5 3H5.5" stroke="black" stroke-width="1.5" stroke-miterlimit="10" stroke-linecap="round"/>
<path d="M10.4722 10.9444V11.1944H10.7222H11.5833V11.5V11.75H11.8333H12.3889H12.6389V11.5V11.1944H12.9444H13.1944V10.9444V10.6389H13.5H13.75V10.3889V9.27778V9.02778H13.5H13.1944V8.72222V8.47222H12.9444H12.6389V7.86111H13.5H13.75V7.61111V7.05556V6.80556H13.5H12.6389V6.5V6.25H12.3889H11.8333H11.5833V6.5V6.80556H11.2778H11.0278V7.05556V7.36111H10.7222H10.4722V7.61111V8.72222V8.97222H10.7222H11.0278V9.27778V9.52778H11.2778H11.5833V10.1389H10.7222H10.4722V10.3889V10.9444ZM12.6944 10.1389H12.6389V9.52778H12.6944V10.1389ZM11.5278 7.86111H11.5833V8.47222H11.5278V7.86111Z" fill="#FFC700" stroke="#A9711D" stroke-width="0.5"/>
<path d="M2.25 10.9444V11.1944H2.5H3.36111V11.5V11.75H3.61111H4.16667H4.41667V11.5V11.1944H4.72222H4.97222V10.9444V10.6389H5.27778H5.52778V10.3889V9.27778V9.02778H5.27778H4.97222V8.72222V8.47222H4.72222H4.41667V7.86111H5.27778H5.52778V7.61111V7.05556V6.80556H5.27778H4.41667V6.5V6.25H4.16667H3.61111H3.36111V6.5V6.80556H3.05556H2.80556V7.05556V7.36111H2.5H2.25V7.61111V8.72222V8.97222H2.5H2.80556V9.27778V9.52778H3.05556H3.36111V10.1389H2.5H2.25V10.3889V10.9444ZM4.47222 10.1389H4.41667V9.52778H4.47222V10.1389ZM3.30556 7.86111H3.36111V8.47222H3.30556V7.86111Z" fill="#FFC700" stroke="#A9711D" stroke-width="0.5"/>
</svg>
