<svg width="47" height="25" viewBox="0 0 47 25" fill="none" xmlns="http://www.w3.org/2000/svg">
<path d="M45.826 22.2933C48.826 6.79337 28.3259 -5.20664 14.8259 2.29332C10.826 2.79327 6.32594 5.79326 2.82591 12.7933C0.623619 17.1978 0.826147 19.7933 1.32617 22.2933C2.32617 18.2933 5.426 13.4933 15.826 12.2933C17.9393 12.2933 20.983 13.844 22.7041 14.5558C23.104 14.7212 23.5485 14.721 23.9527 14.5664C26.1866 13.7115 30.2873 11.7933 32.826 11.7933C36.326 11.7933 41.8262 14.2933 45.826 22.2933Z" fill="#AF3A3A"/>
<path d="M1.32605 22.2932C1.57675 19.4198 10.3001 8.51111 19.4247 13.2134C22.1087 14.5965 25.5369 14.6116 28.1691 13.1322C37.2854 8.00828 44.6938 19.3428 45.326 22.2932" stroke="black" stroke-linecap="round" stroke-linejoin="round"/>
<path d="M19.7975 22.7043C17.0075 19.7135 18.2235 9.98722 22.3261 11.8112C16.6823 6.97235 6.87293 11.1391 2.67372 13.8273C0.154124 17.8597 1.66594 22.9001 3.17769 23.4041C3.00972 22.9001 3.27845 21.7912 3.68158 21.388C3.68158 22.396 4.6894 23.1988 5.19331 23.1988H8.72068L8.01972 21.892C8.90378 22.8904 10.2738 23.651 12.2481 23.4041C11.771 22.9001 11.2402 21.388 11.2671 19.8758C12.0209 22.0833 13.7462 24.3142 17.455 23.1988C18.1694 23.4551 18.938 23.5785 19.5912 23.5856C20.0419 23.5905 20.1049 23.0338 19.7975 22.7043Z" fill="#AF3A3A"/>
<path d="M22.3261 11.8111C18.2234 9.98721 17.0074 19.7134 19.7974 22.7043C20.1048 23.0338 20.0418 23.5905 19.5912 23.5856C18.0543 23.5689 15.8795 22.9085 15.2715 21.3879M10.7363 16.8516C10.7363 18.6997 11.7441 24.9162 17.4549 23.1988M14.7675 19.8758V19.3718M6.705 18.8677C6.705 20.2118 8.21676 23.9082 12.248 23.4041C11.771 22.9001 11.2401 21.3879 11.267 19.8758M2.67368 13.8273C0.154081 17.8597 1.6659 22.9001 3.17764 23.4041C3.00967 22.9001 3.27841 21.7912 3.68153 21.3879C3.68153 22.396 4.68936 23.1988 5.19327 23.1988C5.59639 23.1988 7.71282 23.1988 8.72064 23.1988L8.01968 21.892" stroke="black" stroke-linecap="round" stroke-linejoin="round"/>
<path d="M26.8548 22.7043C29.6448 19.7135 28.4288 9.98722 24.3261 11.8112C29.97 6.97235 39.7794 11.1391 43.9786 13.8273C46.4982 17.8597 44.9863 22.9001 43.4746 23.4041C43.6426 22.9001 43.3738 21.7912 42.9707 21.388C42.9707 22.396 41.9629 23.1988 41.459 23.1988H37.9316L38.6326 21.892C37.7485 22.8904 36.3785 23.651 34.4042 23.4041C34.8813 22.9001 35.4121 21.388 35.3852 19.8758C34.6314 22.0833 32.9061 24.3142 29.1973 23.1988C28.4828 23.4551 27.7143 23.5785 27.0611 23.5856C26.6104 23.5905 26.5474 23.0338 26.8548 22.7043Z" fill="#AF3A3A"/>
<path d="M24.3262 11.8111C28.4289 9.98721 29.6448 19.7134 26.8549 22.7043C26.5474 23.0338 26.6105 23.5905 27.0611 23.5856C28.598 23.5689 30.7728 22.9085 31.3808 21.3879M35.916 16.8516C35.916 18.6997 34.9082 24.9162 29.1973 23.1988M31.8847 19.8758V19.3718M39.9473 18.8677C39.9473 20.2118 38.4355 23.9082 34.4043 23.4041C34.8813 22.9001 35.4122 21.3879 35.3852 19.8758M43.9786 13.8273C46.4982 17.8597 44.9864 22.9001 43.4746 23.4041C43.6426 22.9001 43.3739 21.7912 42.9707 21.3879C42.9707 22.396 41.9629 23.1988 41.459 23.1988C41.0559 23.1988 38.9395 23.1988 37.9316 23.1988L38.6326 21.892" stroke="black" stroke-linecap="round" stroke-linejoin="round"/>
</svg>
