<svg width="112" height="156" viewBox="0 0 112 156" fill="none" xmlns="http://www.w3.org/2000/svg">
<path d="M69 65C64.5718 61.966 59.0037 61 59.0037 61V65.5C71.5 73.5 73.7849 92.8572 73.7849 92.8572C73.7849 94.8798 75.4186 96.4322 76.6092 98.8569C78.1149 101.924 82.033 103.025 84.6396 100.901C87.1491 98.8569 88.3664 93.1643 84.6396 85.2723C80.9128 77.3802 76.6092 70.2134 69 65Z" fill="#F8E2D1" stroke="black" stroke-miterlimit="10" stroke-linecap="round"/>
<path d="M74.0996 91.7016C71.0882 101.924 79.1186 101.924 79.1186 98.3459C79.1186 94.2571 75.6053 88.6351 74.0996 91.7016Z" fill="#F8E2D1"/>
<path d="M74.0996 91.7016C71.0882 101.923 79.1186 101.923 79.1186 98.3458" stroke="black" stroke-linecap="round"/>
<path d="M43.0001 65C47.4283 61.966 52.9964 61 52.9964 61V65.5C40.5001 73.5 38.2152 92.8572 38.2152 92.8572C38.2152 94.8798 36.5814 96.4322 35.3909 98.8569C33.8852 101.924 29.9671 103.025 27.3605 100.901C24.8509 98.8569 23.6337 93.1643 27.3605 85.2723C31.0872 77.3802 35.3909 70.2134 43.0001 65Z" fill="#F8E2D1" stroke="black" stroke-miterlimit="10" stroke-linecap="round"/>
<path d="M37.9005 91.7016C40.9119 101.924 32.8814 101.924 32.8815 98.3459C32.8814 94.2571 36.3947 88.6351 37.9005 91.7016Z" fill="#F8E2D1"/>
<path d="M37.9005 91.7016C40.9119 101.923 32.8814 101.923 32.8815 98.3458" stroke="black" stroke-linecap="round"/>
<path d="M40.9609 129.404L40.9609 84.7346C40.9609 80.3877 41.4894 75.2867 43.3114 71.4012C45.8491 65.9895 50.2757 63.5 56 63.5C61.7243 63.5 66.1509 65.9896 68.6886 71.4012C70.5106 75.2868 71.0391 80.3877 71.0391 84.7346L71.0391 129.404C71.0391 130.734 71.978 131.854 73.1943 132.462C78.4708 135.099 79.3771 141.016 76.0372 143.342C75.8824 143.45 75.6985 143.5 75.5082 143.5H59.5499C58.4287 143.5 57.5226 142.616 57.5226 141.525V101.031L54.4774 101.031V141.525C54.4774 142.616 53.5713 143.5 52.4501 143.5H36.4918C36.3015 143.5 36.1176 143.45 35.9628 143.342C32.6229 141.016 33.5292 135.099 38.8057 132.462C40.022 131.854 40.9609 130.734 40.9609 129.404Z" fill="#F8E2D1"/>
<path d="M43.3114 71.4012C41.4894 75.2867 40.9609 80.3877 40.9609 84.7346L40.9609 129.404C40.9609 130.734 40.022 131.854 38.8057 132.462C33.5292 135.099 32.6229 141.016 35.9628 143.342C36.1176 143.45 36.3015 143.5 36.4918 143.5H52.4501C53.5713 143.5 54.4774 142.616 54.4774 141.525V101.031L57.5226 101.031V141.525C57.5226 142.616 58.4287 143.5 59.5499 143.5H75.5082C75.6985 143.5 75.8824 143.45 76.0372 143.342C79.3771 141.016 78.4708 135.099 73.1943 132.462C71.978 131.854 71.0391 130.734 71.0391 129.404L71.0391 84.7346C71.0391 80.3877 70.5106 75.2867 68.6886 71.4012" stroke="black" stroke-miterlimit="10" stroke-linecap="round"/>
<path d="M60 56.8266H52V64.8266H60V56.8266Z" fill="#F8E2D1"/>
<path d="M60 62.8266L60 56.8266L52 56.8266L52 62.8266" stroke="black" stroke-miterlimit="10" stroke-linecap="round"/>
<path d="M83.8833 42.5667C83.1228 46.8814 79.2254 49.8266 75.54 49.8266C72.5819 49.8266 72 48.1111 72 43.22C72 38.5265 75.2945 36.3246 78.1131 35.9035C82.5228 35.2446 84.5231 38.9367 83.8833 42.5667Z" fill="#F8E2D1" stroke="black" stroke-miterlimit="10" stroke-linecap="round"/>
<g style="mix-blend-mode:plus-darker">
<path d="M75.5 44.8266C76.5 43.8266 78.5 42.3266 80.5 42.3266" stroke="black" stroke-opacity="0.2" stroke-linecap="round" stroke-linejoin="round"/>
</g>
<path d="M28.1167 42.5667C28.8772 46.8814 32.7746 49.8266 36.46 49.8266C39.4181 49.8266 40 48.1111 40 43.22C40 38.5265 36.7055 36.3246 33.8869 35.9035C29.4772 35.2446 27.4769 38.9367 28.1167 42.5667Z" fill="#F8E2D1" stroke="black" stroke-miterlimit="10" stroke-linecap="round"/>
<g style="mix-blend-mode:plus-darker">
<path d="M36.5 44.8266C35.5 43.8266 33.5 42.3266 31.5 42.3266" stroke="black" stroke-opacity="0.2" stroke-linecap="round" stroke-linejoin="round"/>
</g>
<path d="M56 59C68.1503 59 78 49.1502 78 37C78 24.8497 68.1503 15 56 15C43.8497 15 34 24.8497 34 37C34 49.1502 43.8497 59 56 59Z" fill="#F8E2D1" stroke="black" stroke-miterlimit="10" stroke-linecap="round"/>
<g style="mix-blend-mode:plus-darker">
<circle cx="47.5" cy="47.3266" r="4.5" fill="#FFEBEB"/>
</g>
<g style="mix-blend-mode:plus-darker">
<circle cx="64.5" cy="47.3266" r="4.5" fill="#FFEBEB"/>
</g>
</svg>
