<svg width="93" height="95" viewBox="0 0 93 95" fill="none" xmlns="http://www.w3.org/2000/svg">
<g id="Group 8">
<path id="Arrow 1" d="M84.2834 3.11701C83.7956 0.962399 81.6535 -0.388795 79.4989 0.0990303L44.3876 8.04856C42.233 8.53639 40.8818 10.6785 41.3696 12.8331C41.8574 14.9877 43.9995 16.3389 46.1541 15.8511L77.3642 8.78483L84.4305 39.9949C84.9183 42.1495 87.0604 43.5007 89.215 43.0129C91.3696 42.525 92.7208 40.3829 92.233 38.2283L84.2834 3.11701ZM57.09 48.4241L83.7654 6.13432L76.999 1.86626L50.3236 44.156L57.09 48.4241Z" fill="black"/>
<path id="Arrow 2" d="M1.2844 41.5566C-0.337634 43.0563 -0.436747 45.587 1.06303 47.2091L25.5032 73.6416C27.003 75.2636 29.5337 75.3628 31.1557 73.863C32.7777 72.3632 32.8768 69.8325 31.3771 68.2105L9.65249 44.7149L33.1481 22.9903C34.7701 21.4905 34.8692 18.9598 33.3694 17.3378C31.8697 15.7157 29.339 15.6166 27.7169 17.1164L1.2844 41.5566ZM54.1182 42.4533L4.15651 40.4966L3.84344 48.4904L53.8051 50.4471L54.1182 42.4533Z" fill="black"/>
<path id="Arrow 3" d="M75.8074 94.3567C77.9173 95.0116 80.1585 93.832 80.8133 91.7222L91.4845 57.3401C92.1393 55.2303 90.9598 52.989 88.8499 52.3342C86.7401 51.6794 84.4989 52.8589 83.844 54.9687L74.3585 85.5306L43.7967 76.0451C41.6869 75.3903 39.4456 76.5698 38.7908 78.6796C38.136 80.7895 39.3155 83.0307 41.4253 83.6856L75.8074 94.3567ZM50.1671 48.1529L73.4534 92.3994L80.5328 88.6736L57.2465 44.4271L50.1671 48.1529Z" fill="black"/>
</g>
</svg>
