<svg width="92" height="125" viewBox="0 0 92 125" fill="none" xmlns="http://www.w3.org/2000/svg">
<path d="M33.04 86H20.96V52.96C20.96 52.0533 20.96 50.9333 20.96 49.6C21.0133 48.2667 21.0667 46.88 21.12 45.44C21.1733 44 21.2267 42.72 21.28 41.6C21.0133 41.92 20.4267 42.5067 19.52 43.36C18.6667 44.16 17.8667 44.88 17.12 45.52L10.56 50.8L4.72 43.52L23.12 28.88H33.04V86ZM88.6613 53.28C88.6613 56.5333 88.4213 59.7867 87.9413 63.04C87.4613 66.24 86.6079 69.28 85.3813 72.16C84.2079 74.9867 82.5279 77.52 80.3413 79.76C78.2079 81.9467 75.4613 83.68 72.1013 84.96C68.7946 86.1867 64.7679 86.8 60.0213 86.8C58.9013 86.8 57.5946 86.7467 56.1013 86.64C54.6079 86.5867 53.3546 86.4533 52.3413 86.24V76.56C53.4079 76.7733 54.5279 76.96 55.7013 77.12C56.8746 77.28 58.0479 77.36 59.2213 77.36C62.7946 77.36 65.7279 76.9333 68.0213 76.08C70.3679 75.2267 72.2079 74 73.5413 72.4C74.8746 70.8 75.8346 68.9067 76.4213 66.72C77.0613 64.5333 77.4346 62.1333 77.5413 59.52H77.0613C76.3146 60.7467 75.4079 61.8667 74.3413 62.88C73.3279 63.8933 72.0213 64.6933 70.4213 65.28C68.8746 65.8667 66.8746 66.16 64.4213 66.16C61.1679 66.16 58.3413 65.4667 55.9413 64.08C53.5413 62.64 51.6746 60.5867 50.3413 57.92C49.0079 55.2 48.3413 51.92 48.3413 48.08C48.3413 43.92 49.1146 40.3733 50.6613 37.44C52.2613 34.4533 54.5279 32.1867 57.4613 30.64C60.3946 29.04 63.8346 28.24 67.7813 28.24C70.7146 28.24 73.4346 28.7467 75.9413 29.76C78.5013 30.7733 80.7146 32.32 82.5813 34.4C84.5013 36.4267 85.9946 39.0133 87.0613 42.16C88.1279 45.3067 88.6613 49.0133 88.6613 53.28ZM68.0213 37.92C65.6746 37.92 63.7546 38.72 62.2613 40.32C60.7679 41.92 60.0213 44.4533 60.0213 47.92C60.0213 50.6933 60.6613 52.88 61.9413 54.48C63.2213 56.08 65.1679 56.88 67.7813 56.88C69.5946 56.88 71.1413 56.48 72.4213 55.68C73.7546 54.88 74.7946 53.8933 75.5413 52.72C76.2879 51.4933 76.6613 50.24 76.6613 48.96C76.6613 47.6267 76.4746 46.32 76.1013 45.04C75.7279 43.7067 75.1679 42.5067 74.4213 41.44C73.7279 40.3733 72.8479 39.52 71.7813 38.88C70.7146 38.24 69.4613 37.92 68.0213 37.92Z" fill="#FFECA0"/>
<path d="M37.99 119L36.098 114.138H29.872L28.002 119H26L32.138 103.226H33.92L40.036 119H37.99ZM33.744 107.626C33.7 107.509 33.6267 107.296 33.524 106.988C33.4213 106.68 33.3187 106.365 33.216 106.042C33.128 105.705 33.0547 105.448 32.996 105.272C32.9227 105.565 32.842 105.866 32.754 106.174C32.6807 106.467 32.6 106.739 32.512 106.988C32.4387 107.237 32.3727 107.45 32.314 107.626L30.532 112.378H35.504L33.744 107.626ZM46.1008 106.988C46.8781 106.988 47.5748 107.135 48.1908 107.428C48.8214 107.721 49.3568 108.169 49.7968 108.77H49.9068L50.1708 107.208H51.7108V119.198C51.7108 120.313 51.5201 121.244 51.1388 121.992C50.7574 122.755 50.1781 123.327 49.4008 123.708C48.6234 124.089 47.6334 124.28 46.4308 124.28C45.5801 124.28 44.7954 124.214 44.0768 124.082C43.3728 123.965 42.7421 123.781 42.1848 123.532V121.75C42.5661 121.941 42.9841 122.102 43.4388 122.234C43.8934 122.381 44.3848 122.491 44.9128 122.564C45.4408 122.637 45.9834 122.674 46.5408 122.674C47.5528 122.674 48.3448 122.373 48.9168 121.772C49.5034 121.185 49.7968 120.379 49.7968 119.352V118.89C49.7968 118.714 49.8041 118.465 49.8188 118.142C49.8334 117.805 49.8481 117.57 49.8628 117.438H49.7748C49.3641 118.039 48.8508 118.487 48.2348 118.78C47.6334 119.073 46.9294 119.22 46.1228 119.22C44.5974 119.22 43.4021 118.685 42.5368 117.614C41.6861 116.543 41.2608 115.047 41.2608 113.126C41.2608 111.865 41.4514 110.779 41.8328 109.87C42.2288 108.946 42.7861 108.235 43.5048 107.736C44.2234 107.237 45.0888 106.988 46.1008 106.988ZM46.3648 108.616C45.7048 108.616 45.1401 108.792 44.6708 109.144C44.2161 109.496 43.8641 110.009 43.6148 110.684C43.3801 111.359 43.2628 112.18 43.2628 113.148C43.2628 114.6 43.5268 115.715 44.0548 116.492C44.5974 117.255 45.3821 117.636 46.4088 117.636C47.0101 117.636 47.5234 117.563 47.9488 117.416C48.3741 117.255 48.7261 117.013 49.0048 116.69C49.2834 116.353 49.4888 115.927 49.6208 115.414C49.7528 114.901 49.8188 114.292 49.8188 113.588V113.126C49.8188 112.055 49.6941 111.19 49.4448 110.53C49.2101 109.87 48.8361 109.386 48.3228 109.078C47.8094 108.77 47.1568 108.616 46.3648 108.616ZM60.0099 106.988C61.0219 106.988 61.8873 107.208 62.6059 107.648C63.3393 108.088 63.8966 108.711 64.2779 109.518C64.6739 110.31 64.8719 111.241 64.8719 112.312V113.478H56.7979C56.8273 114.813 57.1646 115.832 57.8099 116.536C58.4699 117.225 59.3866 117.57 60.5599 117.57C61.3079 117.57 61.9679 117.504 62.5399 117.372C63.1266 117.225 63.7279 117.02 64.3439 116.756V118.45C63.7426 118.714 63.1486 118.905 62.5619 119.022C61.9753 119.154 61.2786 119.22 60.4719 119.22C59.3573 119.22 58.3673 118.993 57.5019 118.538C56.6513 118.083 55.9839 117.409 55.4999 116.514C55.0306 115.605 54.7959 114.497 54.7959 113.192C54.7959 111.901 55.0086 110.794 55.4339 109.87C55.8739 108.946 56.4826 108.235 57.2599 107.736C58.0519 107.237 58.9686 106.988 60.0099 106.988ZM59.9879 108.572C59.0639 108.572 58.3306 108.873 57.7879 109.474C57.2599 110.061 56.9446 110.882 56.8419 111.938H62.8479C62.8479 111.263 62.7453 110.677 62.5399 110.178C62.3346 109.679 62.0193 109.291 61.5939 109.012C61.1833 108.719 60.6479 108.572 59.9879 108.572Z" fill="black"/>
</svg>
