<svg width="375" height="139" viewBox="0 0 375 139" fill="none" xmlns="http://www.w3.org/2000/svg">
<path d="M321.115 26.0272C401.414 13.1785 364.977 61.197 400.293 68.7681C437.783 76.8055 478.266 65.5723 490.34 82.0641C514.46 115.01 494.264 144.846 469.437 163.566C382.045 229.46 408.66 162.792 310.456 178.506C199.231 196.304 243.405 143.277 202.781 128.076C159.881 112.024 157.187 75.0104 175.5 50.5002C213.5 64.0001 249.199 37.5344 321.115 26.0272Z" fill="#FFB4C7"/>
<path d="M217.449 137.132C217.449 194.018 148.451 179.132 96.9492 227.632C74.1187 249.132 43.7628 303.181 5.44926 273.632C-14.2372 258.45 -76.5484 95.1325 -16.5494 47.6325C51.9519 -6.59858 42.6365 45.6325 142.951 45.6325C199.836 45.6325 217.449 80.2471 217.449 137.132Z" fill="#FFB4C7"/>
<rect y="132" width="375" height="278" fill="#FFB4C7"/>
</svg>
