<svg width="23" height="23" viewBox="0 0 23 23" fill="none" xmlns="http://www.w3.org/2000/svg">
<path d="M7.35422 10.7485C12.5531 10.7485 12.5531 21.3832 7.35422 21.3832C4.42157 21.3832 1 21.3832 1 21.3832V10.7485M7.35422 10.7485C4.42157 10.7485 1 10.7485 1 10.7485M7.35422 10.7485C12.5531 10.7485 12.5531 1.00002 7.35422 1C5.04359 1 1 1 1 1V10.7485" stroke="#FFECA0" stroke-width="2" stroke-linecap="round" stroke-linejoin="round"/>
<path d="M17.4053 7.27173C15.1402 7.27173 13.304 10.4307 13.304 14.3275H21.5067C21.5067 10.4307 19.6704 7.27173 17.4053 7.27173Z" stroke="#FFECA0" stroke-width="2" stroke-linecap="round" stroke-linejoin="round"/>
<path d="M13.304 14.3276C13.304 18.2244 15.1402 21.3834 17.4053 21.3834C20.2303 21.3834 20.994 18.2475 20.994 18.2475" stroke="#FFECA0" stroke-width="2" stroke-linecap="round" stroke-linejoin="round"/>
<path d="M19.9687 2.56787H14.842" stroke="#FFECA0" stroke-width="2" stroke-linecap="round" stroke-linejoin="round"/>
</svg>
