<svg width="189" height="114" viewBox="0 0 189 114" fill="none" xmlns="http://www.w3.org/2000/svg">
<path d="M189 69.4813C189 109.506 151.564 84.0818 111.597 84.0818C95.4947 84.0818 97.7941 112.19 70.5105 113.884C30.0767 116.393 0 77.7177 0 53.819C0 13.7941 44.5929 0 84.5596 0C124.526 0 189 29.4564 189 69.4813Z" fill="#FFB4C7"/>
<path d="M91.8791 79.9394C93.1979 79.9394 94.267 78.8703 94.267 77.5515C94.267 76.2326 93.1979 75.1636 91.8791 75.1636C90.5603 75.1636 89.4912 76.2326 89.4912 77.5515C89.4912 78.8703 90.5603 79.9394 91.8791 79.9394Z" fill="black" stroke="black" stroke-width="5" stroke-linecap="round" stroke-linejoin="round"/>
<path d="M70.3879 44.121C71.7067 44.121 72.7758 43.0519 72.7758 41.7331C72.7758 40.4143 71.7067 39.3452 70.3879 39.3452C69.0691 39.3452 68 40.4143 68 41.7331C68 43.0519 69.0691 44.121 70.3879 44.121Z" fill="black" stroke="black" stroke-width="5" stroke-linecap="round" stroke-linejoin="round"/>
<path d="M70.3879 67.9999C71.7067 67.9999 72.7758 66.9308 72.7758 65.612C72.7758 64.2932 71.7067 63.2241 70.3879 63.2241C69.0691 63.2241 68 64.2932 68 65.612C68 66.9308 69.0691 67.9999 70.3879 67.9999Z" fill="black" stroke="black" stroke-width="5" stroke-linecap="round" stroke-linejoin="round"/>
<path d="M113.37 42.5762V64.7691C113.37 65.2895 113.088 65.7687 112.633 66.0216L92.5746 77.1649C92.1419 77.4054 91.6156 77.4054 91.1829 77.1649L71.1247 66.0216C70.6698 65.7687 70.3877 65.2895 70.3877 64.7691L70.3877 42.5762C70.3877 42.0559 70.6698 41.5765 71.1246 41.3238L91.1829 30.1803C91.6156 29.9399 92.1419 29.9399 92.5746 30.1803L112.633 41.3238C113.087 41.5765 113.37 42.0559 113.37 42.5762Z" stroke="black" stroke-width="5" stroke-linecap="round" stroke-linejoin="round"/>
<path d="M71.6494 42.4345L91.1827 53.2864C91.6154 53.5266 92.1417 53.5266 92.5744 53.2864L112.176 42.3967" stroke="black" stroke-width="5" stroke-linecap="round" stroke-linejoin="round"/>
<path d="M91.8789 75.1636V53.6726" stroke="black" stroke-width="5" stroke-linecap="round" stroke-linejoin="round"/>
</svg>
