<svg width="189" height="190" viewBox="0 0 189 190" fill="none" xmlns="http://www.w3.org/2000/svg">
<path d="M189 99.3082C189 144.079 145.166 120.094 131.428 138.634C116.845 158.316 121.786 181.301 102.643 186.43C64.4016 196.677 36.7599 183.103 21.4372 167.977C-32.4986 114.736 32.345 135.004 32.3447 80.2502C32.3444 18.2361 80.096 46.8637 102.643 26.1013C126.454 4.17529 134.762 -7.16158 157.184 4.92581C187.486 21.2612 189 59.2113 189 99.3082Z" fill="#FFECA0"/>
<path d="M95 70C81.1929 70 70 81.1929 70 95C70 108.807 81.1929 120 95 120C108.807 120 120 108.807 120 95C120 81.1929 108.807 70 95 70Z" stroke="black" stroke-width="5.2989" stroke-linecap="round" stroke-linejoin="round"/>
<path d="M85 117.92V100L95 82.5L105 100V117.92" stroke="black" stroke-width="5.2989" stroke-linecap="round" stroke-linejoin="round"/>
<path d="M85 100C85 100 87.8169 102.5 90 102.5C92.183 102.5 95 100 95 100C95 100 97.817 102.5 100 102.5C102.183 102.5 105 100 105 100" stroke="black" stroke-width="5.2989" stroke-linecap="round" stroke-linejoin="round"/>
</svg>
