<svg width="189" height="211" viewBox="0 0 189 211" fill="none" xmlns="http://www.w3.org/2000/svg">
<path d="M153.103 94.9834C153.103 132.636 209.075 186.326 171.565 186.326C134.055 186.326 54.1927 259.467 25.1797 153.893C10.9917 102.264 -32.1886 -5.95715 43.3122 33.7572C107.933 62.5501 157.831 0 176.841 0C214.351 0 153.103 57.3307 153.103 94.9834Z" fill="#FFB4C7"/>
<path d="M70 139.744H107.287" stroke="black" stroke-width="5.37866" stroke-linecap="round" stroke-linejoin="round"/>
<path d="M117.229 139.744H119.715" stroke="black" stroke-width="5.37866" stroke-linecap="round" stroke-linejoin="round"/>
<path d="M70 128.309V96.4915C70 95.6678 70.6678 95 71.4915 95H118.224C119.048 95 119.715 95.6678 119.715 96.4915V128.309C119.715 129.133 119.048 129.801 118.224 129.801H71.4915C70.6678 129.801 70 129.133 70 128.309Z" stroke="black" stroke-width="5.37866"/>
</svg>
