<svg width="46" height="46" viewBox="0 0 46 46" fill="none" xmlns="http://www.w3.org/2000/svg">
<path d="M35.3501 32.15C36.2501 33.05 36.2501 34.45 35.3501 35.35C34.9001 35.8 34.3501 36 33.7501 36C33.1501 36 32.6001 35.8 32.1501 35.35L23.0001 26.2L13.8501 35.35C13.4001 35.8 12.8501 36 12.2501 36C11.6501 36 11.1001 35.8 10.6501 35.35C9.7501 34.45 9.7501 33.05 10.6501 32.15L19.8001 23L10.6501 13.85C9.7501 12.95 9.7501 11.55 10.6501 10.65C11.5501 9.75001 12.9501 9.75001 13.8501 10.65L23.0001 19.8L32.1501 10.65C33.0501 9.75001 34.4501 9.75001 35.3501 10.65C36.2501 11.55 36.2501 12.95 35.3501 13.85L26.2001 23L35.3501 32.15Z" fill="#FFECA0"/>
</svg>
