<svg width="176" height="125" viewBox="0 0 176 125" fill="none" xmlns="http://www.w3.org/2000/svg">
<mask id="path-1-outside-1_63_44" maskUnits="userSpaceOnUse" x="1" y="9" width="175" height="40" fill="black">
<rect fill="white" x="1" y="9" width="175" height="40"/>
<path d="M16.812 38H3.276V12.296H16.812V15.14H6.48V23.168H16.2V25.976H6.48V35.156H16.812V38ZM25.9718 28.136L19.7078 18.704H23.2718L27.8798 25.976L32.4158 18.704H35.9798L29.7158 28.136L36.3038 38H32.7398L27.8798 30.296L22.9478 38H19.4198L25.9718 28.136ZM48.4709 18.344C50.7029 18.344 52.4909 19.172 53.8349 20.828C55.2029 22.484 55.8869 24.98 55.8869 28.316C55.8869 30.5 55.5749 32.348 54.9509 33.86C54.3269 35.348 53.4509 36.476 52.3229 37.244C51.2189 37.988 49.9229 38.36 48.4349 38.36C47.4989 38.36 46.6709 38.228 45.9509 37.964C45.2549 37.7 44.6549 37.364 44.1509 36.956C43.6469 36.524 43.2149 36.056 42.8549 35.552H42.6389C42.6869 35.96 42.7349 36.476 42.7829 37.1C42.8309 37.724 42.8549 38.264 42.8549 38.72V46.64H39.7229V18.704H42.2789L42.7109 21.332H42.8549C43.2149 20.78 43.6469 20.276 44.1509 19.82C44.6549 19.364 45.2549 19.004 45.9509 18.74C46.6709 18.476 47.5109 18.344 48.4709 18.344ZM47.8589 21.008C46.6589 21.008 45.6869 21.26 44.9429 21.764C44.2229 22.244 43.6949 22.976 43.3589 23.96C43.0229 24.944 42.8549 26.192 42.8549 27.704V28.316C42.8549 29.9 42.9989 31.244 43.2869 32.348C43.5989 33.452 44.1269 34.292 44.8709 34.868C45.6149 35.444 46.6349 35.732 47.9309 35.732C49.0109 35.732 49.8989 35.408 50.5949 34.76C51.2909 34.112 51.8069 33.236 52.1429 32.132C52.4789 31.004 52.6469 29.72 52.6469 28.28C52.6469 26.072 52.2509 24.308 51.4589 22.988C50.6909 21.668 49.4909 21.008 47.8589 21.008ZM67.6266 18.344C69.1866 18.344 70.5306 18.704 71.6586 19.424C72.7866 20.144 73.6506 21.164 74.2506 22.484C74.8746 23.78 75.1866 25.304 75.1866 27.056V28.964H62.8026C62.8506 31.148 63.3666 32.816 64.3506 33.968C65.3346 35.096 66.7146 35.66 68.4906 35.66C69.6426 35.66 70.6626 35.552 71.5506 35.336C72.4626 35.096 73.3986 34.76 74.3586 34.328V37.1C73.4226 37.532 72.4986 37.844 71.5866 38.036C70.6986 38.252 69.6186 38.36 68.3466 38.36C66.6186 38.36 65.0946 37.988 63.7746 37.244C62.4546 36.5 61.4226 35.396 60.6786 33.932C59.9346 32.444 59.5626 30.632 59.5626 28.496C59.5626 26.384 59.8986 24.572 60.5706 23.06C61.2426 21.548 62.1786 20.384 63.3786 19.568C64.6026 18.752 66.0186 18.344 67.6266 18.344ZM67.6266 20.936C66.2346 20.936 65.1306 21.428 64.3146 22.412C63.4986 23.372 63.0186 24.716 62.8746 26.444H71.9466C71.9466 25.34 71.7906 24.38 71.4786 23.564C71.1666 22.748 70.6866 22.112 70.0386 21.656C69.4146 21.176 68.6106 20.936 67.6266 20.936ZM88.3347 18.344C88.6707 18.344 89.0307 18.368 89.4147 18.416C89.7987 18.44 90.1347 18.488 90.4227 18.56L90.0627 21.476C89.7747 21.404 89.4507 21.344 89.0907 21.296C88.7547 21.248 88.4307 21.224 88.1187 21.224C87.4227 21.224 86.7627 21.38 86.1387 21.692C85.5147 22.004 84.9507 22.448 84.4467 23.024C83.9667 23.576 83.5827 24.248 83.2947 25.04C83.0067 25.832 82.8627 26.72 82.8627 27.704V38H79.7307V18.704H82.2867L82.6467 22.232H82.7907C83.1747 21.512 83.6307 20.864 84.1587 20.288C84.7107 19.688 85.3347 19.22 86.0307 18.884C86.7267 18.524 87.4947 18.344 88.3347 18.344ZM96.9612 18.704V38H93.8292V18.704H96.9612ZM95.4132 11.468C95.8932 11.468 96.3132 11.636 96.6732 11.972C97.0332 12.284 97.2132 12.788 97.2132 13.484C97.2132 14.156 97.0332 14.66 96.6732 14.996C96.3132 15.332 95.8932 15.5 95.4132 15.5C94.9092 15.5 94.4772 15.332 94.1172 14.996C93.7572 14.66 93.5772 14.156 93.5772 13.484C93.5772 12.788 93.7572 12.284 94.1172 11.972C94.4772 11.636 94.9092 11.468 95.4132 11.468ZM109.709 18.344C111.269 18.344 112.613 18.704 113.741 19.424C114.869 20.144 115.733 21.164 116.333 22.484C116.957 23.78 117.269 25.304 117.269 27.056V28.964H104.885C104.933 31.148 105.449 32.816 106.433 33.968C107.417 35.096 108.797 35.66 110.573 35.66C111.725 35.66 112.745 35.552 113.633 35.336C114.545 35.096 115.481 34.76 116.441 34.328V37.1C115.505 37.532 114.581 37.844 113.669 38.036C112.781 38.252 111.701 38.36 110.429 38.36C108.701 38.36 107.177 37.988 105.857 37.244C104.537 36.5 103.505 35.396 102.761 33.932C102.017 32.444 101.645 30.632 101.645 28.496C101.645 26.384 101.981 24.572 102.653 23.06C103.325 21.548 104.261 20.384 105.461 19.568C106.685 18.752 108.101 18.344 109.709 18.344ZM109.709 20.936C108.317 20.936 107.213 21.428 106.397 22.412C105.581 23.372 105.101 24.716 104.957 26.444H114.029C114.029 25.34 113.873 24.38 113.561 23.564C113.249 22.748 112.769 22.112 112.121 21.656C111.497 21.176 110.693 20.936 109.709 20.936ZM130.669 18.344C132.829 18.344 134.461 18.908 135.565 20.036C136.693 21.14 137.257 22.94 137.257 25.436V38H134.125V25.652C134.125 24.092 133.801 22.928 133.153 22.16C132.505 21.392 131.509 21.008 130.165 21.008C128.197 21.008 126.829 21.608 126.061 22.808C125.317 24.008 124.945 25.736 124.945 27.992V38H121.813V18.704H124.333L124.801 21.332H124.981C125.365 20.66 125.857 20.108 126.457 19.676C127.057 19.22 127.717 18.884 128.437 18.668C129.157 18.452 129.901 18.344 130.669 18.344ZM150.144 38.36C148.512 38.36 147.072 38.012 145.824 37.316C144.576 36.62 143.592 35.54 142.872 34.076C142.176 32.612 141.828 30.74 141.828 28.46C141.828 26.084 142.2 24.152 142.944 22.664C143.688 21.176 144.696 20.084 145.968 19.388C147.264 18.692 148.728 18.344 150.36 18.344C151.296 18.344 152.196 18.452 153.06 18.668C153.948 18.86 154.668 19.1 155.22 19.388L154.248 22.016C153.696 21.8 153.048 21.596 152.304 21.404C151.584 21.212 150.912 21.116 150.288 21.116C149.112 21.116 148.14 21.392 147.372 21.944C146.604 22.496 146.028 23.312 145.644 24.392C145.26 25.472 145.068 26.816 145.068 28.424C145.068 29.96 145.26 31.268 145.644 32.348C146.028 33.428 146.592 34.244 147.336 34.796C148.104 35.348 149.04 35.624 150.144 35.624C151.128 35.624 152.004 35.516 152.772 35.3C153.54 35.084 154.248 34.82 154.896 34.508V37.316C154.272 37.652 153.588 37.904 152.844 38.072C152.1 38.264 151.2 38.36 150.144 38.36ZM166.24 18.344C167.8 18.344 169.144 18.704 170.272 19.424C171.4 20.144 172.264 21.164 172.864 22.484C173.488 23.78 173.8 25.304 173.8 27.056V28.964H161.416C161.464 31.148 161.98 32.816 162.964 33.968C163.948 35.096 165.328 35.66 167.104 35.66C168.256 35.66 169.276 35.552 170.164 35.336C171.076 35.096 172.012 34.76 172.972 34.328V37.1C172.036 37.532 171.112 37.844 170.2 38.036C169.312 38.252 168.232 38.36 166.96 38.36C165.232 38.36 163.708 37.988 162.388 37.244C161.068 36.5 160.036 35.396 159.292 33.932C158.548 32.444 158.176 30.632 158.176 28.496C158.176 26.384 158.512 24.572 159.184 23.06C159.856 21.548 160.792 20.384 161.992 19.568C163.216 18.752 164.632 18.344 166.24 18.344ZM166.24 20.936C164.848 20.936 163.744 21.428 162.928 22.412C162.112 23.372 161.632 24.716 161.488 26.444H170.56C170.56 25.34 170.404 24.38 170.092 23.564C169.78 22.748 169.3 22.112 168.652 21.656C168.028 21.176 167.224 20.936 166.24 20.936Z"/>
</mask>
<path d="M16.812 38V40H18.812V38H16.812ZM3.276 38H1.276V40H3.276V38ZM3.276 12.296V10.296H1.276V12.296H3.276ZM16.812 12.296H18.812V10.296H16.812V12.296ZM16.812 15.14V17.14H18.812V15.14H16.812ZM6.48 15.14V13.14H4.48V15.14H6.48ZM6.48 23.168H4.48V25.168H6.48V23.168ZM16.2 23.168H18.2V21.168H16.2V23.168ZM16.2 25.976V27.976H18.2V25.976H16.2ZM6.48 25.976V23.976H4.48V25.976H6.48ZM6.48 35.156H4.48V37.156H6.48V35.156ZM16.812 35.156H18.812V33.156H16.812V35.156ZM16.812 36H3.276V40H16.812V36ZM5.276 38V12.296H1.276V38H5.276ZM3.276 14.296H16.812V10.296H3.276V14.296ZM14.812 12.296V15.14H18.812V12.296H14.812ZM16.812 13.14H6.48V17.14H16.812V13.14ZM4.48 15.14V23.168H8.48V15.14H4.48ZM6.48 25.168H16.2V21.168H6.48V25.168ZM14.2 23.168V25.976H18.2V23.168H14.2ZM16.2 23.976H6.48V27.976H16.2V23.976ZM4.48 25.976V35.156H8.48V25.976H4.48ZM6.48 37.156H16.812V33.156H6.48V37.156ZM14.812 35.156V38H18.812V35.156H14.812ZM25.9718 28.136L27.6377 29.2426L28.3727 28.1361L27.6378 27.0295L25.9718 28.136ZM19.7078 18.704V16.704H15.9786L18.0417 19.8105L19.7078 18.704ZM23.2717 18.704L24.9611 17.6335L24.3721 16.704H23.2717V18.704ZM27.8798 25.976L26.1904 27.0465L27.8931 29.7336L29.5767 27.0345L27.8798 25.976ZM32.4157 18.704V16.704H31.3061L30.7188 17.6455L32.4157 18.704ZM35.9798 18.704L37.6458 19.8105L39.7089 16.704H35.9798V18.704ZM29.7157 28.136L28.0497 27.0295L27.3128 28.1391L28.0526 29.2468L29.7157 28.136ZM36.3037 38V40H40.0446L37.9669 36.8892L36.3037 38ZM32.7397 38L31.0482 39.0671L31.6367 40H32.7397V38ZM27.8798 30.296L29.5713 29.2289L27.8922 26.5672L26.1954 29.2177L27.8798 30.296ZM22.9478 38V40H24.0421L24.6322 39.0783L22.9478 38ZM19.4198 38L17.7538 36.8934L15.6903 40H19.4198V38ZM27.6378 27.0295L21.3738 17.5975L18.0417 19.8105L24.3057 29.2425L27.6378 27.0295ZM19.7078 20.704H23.2717V16.704H19.7078V20.704ZM21.5824 19.7745L26.1904 27.0465L29.5691 24.9055L24.9611 17.6335L21.5824 19.7745ZM29.5767 27.0345L34.1127 19.7625L30.7188 17.6455L26.1828 24.9175L29.5767 27.0345ZM32.4157 20.704H35.9798V16.704H32.4157V20.704ZM34.3137 17.5975L28.0497 27.0295L31.3818 29.2425L37.6458 19.8105L34.3137 17.5975ZM28.0526 29.2468L34.6406 39.1108L37.9669 36.8892L31.3789 27.0252L28.0526 29.2468ZM36.3037 36H32.7397V40H36.3037V36ZM34.4313 36.9329L29.5713 29.2289L26.1882 31.3631L31.0482 39.0671L34.4313 36.9329ZM26.1954 29.2177L21.2633 36.9217L24.6322 39.0783L29.5641 31.3743L26.1954 29.2177ZM22.9478 36H19.4198V40H22.9478V36ZM21.0857 39.1066L27.6377 29.2426L24.3058 27.0294L17.7538 36.8934L21.0857 39.1066ZM53.8349 20.828L52.282 22.0883L52.2875 22.0951L52.293 22.1018L53.8349 20.828ZM54.9509 33.86L56.7953 34.6335L56.7997 34.623L54.9509 33.86ZM52.3229 37.244L53.4406 38.9025L53.4485 38.8972L52.3229 37.244ZM45.9509 37.964L45.2416 39.834L45.252 39.8379L45.2624 39.8418L45.9509 37.964ZM44.1509 36.956L42.8493 38.4745L42.8707 38.4928L42.8925 38.5105L44.1509 36.956ZM42.8549 35.552L44.4824 34.3895L43.8841 33.552H42.8549V35.552ZM42.6389 35.552V33.552H40.3898L40.6526 35.7857L42.6389 35.552ZM42.7829 37.1L40.7888 37.2534L42.7829 37.1ZM42.8549 46.64V48.64H44.8549V46.64H42.8549ZM39.7229 46.64H37.7229V48.64H39.7229V46.64ZM39.7229 18.704V16.704H37.7229V18.704H39.7229ZM42.2789 18.704L44.2524 18.3796L43.977 16.704H42.2789V18.704ZM42.7109 21.332L40.7374 21.6564L41.0128 23.332H42.7109V21.332ZM42.8549 21.332V23.332H43.9383L44.5301 22.4245L42.8549 21.332ZM44.1509 19.82L45.4927 21.3031L45.4927 21.3031L44.1509 19.82ZM45.9509 18.74L45.2624 16.8622L45.252 16.8661L45.2416 16.87L45.9509 18.74ZM44.9429 21.764L46.0523 23.4281L46.0585 23.424L46.0646 23.4198L44.9429 21.764ZM43.2869 32.348L41.3517 32.8528L41.3568 32.8724L41.3623 32.8919L43.2869 32.348ZM50.5949 34.76L49.2321 33.2962L50.5949 34.76ZM52.1429 32.132L54.0563 32.7143L54.0597 32.703L52.1429 32.132ZM51.4589 22.988L49.7302 23.9938L49.737 24.0054L49.7439 24.017L51.4589 22.988ZM48.4709 20.344C50.1326 20.344 51.3377 20.9248 52.282 22.0883L55.3878 19.5677C53.6441 17.4192 51.2732 16.344 48.4709 16.344V20.344ZM52.293 22.1018C53.2399 23.248 53.8869 25.201 53.8869 28.316H57.8869C57.8869 24.759 57.166 21.72 55.3768 19.5542L52.293 22.1018ZM53.8869 28.316C53.8869 30.3211 53.5989 31.8934 53.1022 33.097L56.7997 34.623C57.5509 32.8026 57.8869 30.6789 57.8869 28.316H53.8869ZM53.1065 33.0865C52.6043 34.2841 51.9512 35.0775 51.1973 35.5908L53.4485 38.8972C54.9506 37.8745 56.0495 36.4119 56.7953 34.6335L53.1065 33.0865ZM51.2052 35.5855C50.4696 36.0812 49.5733 36.36 48.4349 36.36V40.36C50.2725 40.36 51.9682 39.8948 53.4406 38.9025L51.2052 35.5855ZM48.4349 36.36C47.6837 36.36 47.0963 36.2538 46.6394 36.0862L45.2624 39.8418C46.2455 40.2022 47.3141 40.36 48.4349 40.36V36.36ZM46.6602 36.094C46.134 35.8944 45.7258 35.6577 45.4093 35.4015L42.8925 38.5105C43.584 39.0703 44.3758 39.5056 45.2416 39.834L46.6602 36.094ZM45.4525 35.4375C45.0624 35.1031 44.7421 34.7531 44.4824 34.3895L41.2274 36.7145C41.6878 37.3589 42.2315 37.9449 42.8493 38.4745L45.4525 35.4375ZM42.8549 33.552H42.6389V37.552H42.8549V33.552ZM40.6526 35.7857C40.6963 36.157 40.7419 36.6439 40.7888 37.2534L44.777 36.9466C44.7279 36.3081 44.6775 35.763 44.6252 35.3183L40.6526 35.7857ZM40.7888 37.2534C40.8342 37.8437 40.8549 38.33 40.8549 38.72H44.8549C44.8549 38.198 44.8276 37.6043 44.777 36.9466L40.7888 37.2534ZM40.8549 38.72V46.64H44.8549V38.72H40.8549ZM42.8549 44.64H39.7229V48.64H42.8549V44.64ZM41.7229 46.64V18.704H37.7229V46.64H41.7229ZM39.7229 20.704H42.2789V16.704H39.7229V20.704ZM40.3054 19.0284L40.7374 21.6564L44.6844 21.0076L44.2524 18.3796L40.3054 19.0284ZM42.7109 23.332H42.8549V19.332H42.7109V23.332ZM44.5301 22.4245C44.7933 22.021 45.1122 21.6474 45.4927 21.3031L42.8091 18.3369C42.1816 18.9046 41.6365 19.539 41.1797 20.2395L44.5301 22.4245ZM45.4927 21.3031C45.795 21.0296 46.1751 20.794 46.6602 20.61L45.2416 16.87C44.3347 17.214 43.5148 17.6984 42.8091 18.3369L45.4927 21.3031ZM46.6394 20.6178C47.0912 20.4521 47.689 20.344 48.4709 20.344V16.344C47.3328 16.344 46.2506 16.4999 45.2624 16.8622L46.6394 20.6178ZM47.8589 19.008C46.3906 19.008 44.9907 19.316 43.8212 20.1082L46.0646 23.4198C46.3832 23.204 46.9272 23.008 47.8589 23.008V19.008ZM43.8335 20.0999C42.6782 20.8701 41.9148 22 41.4662 23.3137L45.2516 24.6063C45.475 23.952 45.7676 23.6179 46.0523 23.4281L43.8335 20.0999ZM41.4662 23.3137C41.0348 24.5771 40.8549 26.0628 40.8549 27.704H44.8549C44.8549 26.3212 45.011 25.3109 45.2516 24.6063L41.4662 23.3137ZM40.8549 27.704V28.316H44.8549V27.704H40.8549ZM40.8549 28.316C40.8549 30.0097 41.0077 31.5342 41.3517 32.8528L45.2221 31.8432C44.9901 30.9538 44.8549 29.7903 44.8549 28.316H40.8549ZM41.3623 32.8919C41.7646 34.3155 42.4955 35.5583 43.6466 36.4494L46.0953 33.2866C45.7584 33.0257 45.4332 32.5885 45.2115 31.8041L41.3623 32.8919ZM43.6466 36.4494C44.8522 37.3828 46.3565 37.732 47.9309 37.732V33.732C46.9133 33.732 46.3776 33.5052 46.0953 33.2866L43.6466 36.4494ZM47.9309 37.732C49.4427 37.732 50.8409 37.2637 51.9577 36.2238L49.2321 33.2962C48.957 33.5523 48.5791 33.732 47.9309 33.732V37.732ZM51.9577 36.2238C52.9616 35.2891 53.6395 34.0837 54.0563 32.7143L50.2296 31.5497C49.9743 32.3883 49.6202 32.9349 49.2321 33.2962L51.9577 36.2238ZM54.0597 32.703C54.4616 31.3537 54.6469 29.8719 54.6469 28.28H50.6469C50.6469 29.5681 50.4962 30.6543 50.2261 31.561L54.0597 32.703ZM54.6469 28.28C54.6469 25.8583 54.2164 23.6965 53.1739 21.959L49.7439 24.017C50.2854 24.9195 50.6469 26.2857 50.6469 28.28H54.6469ZM53.1876 21.9822C52.0324 19.9968 50.1434 19.008 47.8589 19.008V23.008C48.8384 23.008 49.3494 23.3392 49.7302 23.9938L53.1876 21.9822ZM71.6586 19.424L72.7346 17.7382V17.7382L71.6586 19.424ZM74.2506 22.484L72.4298 23.3116L72.439 23.3317L72.4486 23.3516L74.2506 22.484ZM75.1866 28.964V30.964H77.1866V28.964H75.1866ZM62.8026 28.964V26.964H60.7581L60.803 29.0079L62.8026 28.964ZM64.3506 33.968L62.8298 35.267L62.8366 35.2749L62.8434 35.2827L64.3506 33.968ZM71.5506 35.336L72.0233 37.2793L72.0415 37.2749L72.0595 37.2701L71.5506 35.336ZM74.3586 34.328H76.3586V31.2348L73.5378 32.5042L74.3586 34.328ZM74.3586 37.1L75.1967 38.9159L76.3586 38.3797V37.1H74.3586ZM71.5866 38.036L71.1745 36.0789L71.1441 36.0853L71.1139 36.0927L71.5866 38.036ZM63.7746 37.244L64.7566 35.5017L63.7746 37.244ZM60.6786 33.932L58.8897 34.8264L58.8956 34.8381L60.6786 33.932ZM60.5706 23.06L58.7429 22.2477L60.5706 23.06ZM63.3786 19.568L62.2692 17.9039L62.2615 17.909L62.2539 17.9141L63.3786 19.568ZM64.3146 22.412L65.8384 23.7073L65.8463 23.698L65.8541 23.6887L64.3146 22.412ZM62.8746 26.444L60.8815 26.2779L60.701 28.444H62.8746V26.444ZM71.9466 26.444V28.444H73.9466V26.444H71.9466ZM71.4786 23.564L73.3467 22.8497V22.8497L71.4786 23.564ZM70.0386 21.656L68.8191 23.2412L68.8528 23.2672L68.8876 23.2916L70.0386 21.656ZM67.6266 20.344C68.8697 20.344 69.8262 20.6271 70.5825 21.1098L72.7346 17.7382C71.2349 16.7809 69.5034 16.344 67.6266 16.344V20.344ZM70.5825 21.1098C71.3572 21.6044 71.9759 22.313 72.4298 23.3116L76.0713 21.6564C75.3252 20.015 74.2159 18.6836 72.7346 17.7382L70.5825 21.1098ZM72.4486 23.3516C72.9169 24.3244 73.1866 25.5401 73.1866 27.056H77.1866C77.1866 25.0679 76.8322 23.2356 76.0526 21.6164L72.4486 23.3516ZM73.1866 27.056V28.964H77.1866V27.056H73.1866ZM75.1866 26.964H62.8026V30.964H75.1866V26.964ZM60.803 29.0079C60.8568 31.4543 61.4386 33.6383 62.8298 35.267L65.8713 32.669C65.2945 31.9937 64.8443 30.8417 64.8021 28.9201L60.803 29.0079ZM62.8434 35.2827C64.2787 36.928 66.2551 37.66 68.4906 37.66V33.66C67.174 33.66 66.3904 33.264 65.8577 32.6533L62.8434 35.2827ZM68.4906 37.66C69.7626 37.66 70.9465 37.5412 72.0233 37.2793L71.0779 33.3927C70.3786 33.5628 69.5225 33.66 68.4906 33.66V37.66ZM72.0595 37.2701C73.0898 36.999 74.13 36.624 75.1793 36.1518L73.5378 32.5042C72.6671 32.896 71.8353 33.193 71.0416 33.4019L72.0595 37.2701ZM72.3586 34.328V37.1H76.3586V34.328H72.3586ZM73.5204 35.2841C72.7065 35.6597 71.9251 35.9209 71.1745 36.0789L71.9986 39.9931C73.072 39.7671 74.1386 39.4043 75.1967 38.9159L73.5204 35.2841ZM71.1139 36.0927C70.4277 36.2596 69.5164 36.36 68.3466 36.36V40.36C69.7208 40.36 70.9695 40.2444 72.0593 39.9793L71.1139 36.0927ZM68.3466 36.36C66.9136 36.36 65.7369 36.0542 64.7566 35.5017L62.7925 38.9863C64.4522 39.9218 66.3235 40.36 68.3466 40.36V36.36ZM64.7566 35.5017C63.8091 34.9677 63.0425 34.1691 62.4615 33.0259L58.8956 34.8381C59.8026 36.6229 61.1 38.0323 62.7925 38.9863L64.7566 35.5017ZM62.4674 33.0376C61.896 31.8947 61.5626 30.4069 61.5626 28.496H57.5626C57.5626 30.8571 57.9731 32.9933 58.8897 34.8264L62.4674 33.0376ZM61.5626 28.496C61.5626 26.5893 61.8666 25.0683 62.3982 23.8723L58.7429 22.2477C57.9305 24.0757 57.5626 26.1787 57.5626 28.496H61.5626ZM62.3982 23.8723C62.9405 22.652 63.6528 21.8001 64.5032 21.2219L62.2539 17.9141C60.7044 18.9679 59.5446 20.444 58.7429 22.2477L62.3982 23.8723ZM64.488 21.2321C65.3529 20.6555 66.3751 20.344 67.6266 20.344V16.344C65.6621 16.344 63.8522 16.8485 62.2692 17.9039L64.488 21.2321ZM67.6266 18.936C65.6995 18.936 64.0078 19.6487 62.775 21.1353L65.8541 23.6887C66.2533 23.2073 66.7696 22.936 67.6266 22.936V18.936ZM62.7907 21.1167C61.6194 22.4947 61.0474 24.2867 60.8815 26.2779L64.8677 26.6101C64.9897 25.1453 65.3777 24.2493 65.8384 23.7073L62.7907 21.1167ZM62.8746 28.444H71.9466V24.444H62.8746V28.444ZM73.9466 26.444C73.9466 25.1576 73.7655 23.9451 73.3467 22.8497L69.6105 24.2783C69.8157 24.8149 69.9466 25.5224 69.9466 26.444H73.9466ZM73.3467 22.8497C72.9078 21.7018 72.196 20.7286 71.1896 20.0204L68.8876 23.2916C69.1771 23.4954 69.4254 23.7942 69.6105 24.2783L73.3467 22.8497ZM71.258 20.0708C70.2048 19.2606 68.9394 18.936 67.6266 18.936V22.936C68.2817 22.936 68.6244 23.0914 68.8191 23.2412L71.258 20.0708ZM89.4147 18.416L89.1667 20.4006L89.2281 20.4082L89.29 20.4121L89.4147 18.416ZM90.4227 18.56L92.4076 18.8051L92.6245 17.0489L90.9078 16.6197L90.4227 18.56ZM90.0627 21.476L89.5777 23.4163L91.7707 23.9645L92.0477 21.7211L90.0627 21.476ZM89.0907 21.296L88.8079 23.2759L88.8171 23.2772L88.8264 23.2785L89.0907 21.296ZM86.1387 21.692L87.0331 23.4809H87.0331L86.1387 21.692ZM84.4467 23.024L82.9416 21.707L82.9375 21.7116L84.4467 23.024ZM83.2947 25.04L81.4151 24.3565V24.3565L83.2947 25.04ZM82.8627 38V40H84.8627V38H82.8627ZM79.7307 38H77.7307V40H79.7307V38ZM79.7307 18.704V16.704H77.7307V18.704H79.7307ZM82.2867 18.704L84.2764 18.501L84.093 16.704H82.2867V18.704ZM82.6467 22.232L80.6571 22.435L80.8404 24.232H82.6467V22.232ZM82.7907 22.232V24.232H83.9907L84.5554 23.1732L82.7907 22.232ZM84.1587 20.288L82.6869 18.9339L82.6844 18.9366L84.1587 20.288ZM86.0307 18.884L86.9002 20.6851L86.9251 20.6731L86.9496 20.6604L86.0307 18.884ZM88.3347 20.344C88.5765 20.344 88.8529 20.3613 89.1667 20.4006L89.6628 16.4314C89.2085 16.3747 88.765 16.344 88.3347 16.344V20.344ZM89.29 20.4121C89.586 20.4306 89.7965 20.465 89.9376 20.5003L90.9078 16.6197C90.473 16.511 90.0115 16.4494 89.5395 16.4199L89.29 20.4121ZM88.4378 18.3149L88.0778 21.2309L92.0477 21.7211L92.4076 18.8051L88.4378 18.3149ZM90.5478 19.5357C90.1731 19.4421 89.7736 19.3694 89.355 19.3135L88.8264 23.2785C89.1278 23.3186 89.3763 23.3659 89.5777 23.4163L90.5478 19.5357ZM89.3736 19.3161C88.952 19.2559 88.5332 19.224 88.1187 19.224V23.224C88.3283 23.224 88.5575 23.2401 88.8079 23.2759L89.3736 19.3161ZM88.1187 19.224C87.1115 19.224 86.1453 19.4526 85.2443 19.9031L87.0331 23.4809C87.3801 23.3074 87.734 23.224 88.1187 23.224V19.224ZM85.2443 19.9031C84.3664 20.3421 83.5999 20.9546 82.9416 21.707L85.9519 24.341C86.3015 23.9414 86.663 23.6659 87.0331 23.4809L85.2443 19.9031ZM82.9375 21.7116C82.274 22.4747 81.7744 23.3685 81.4151 24.3565L85.1743 25.7235C85.391 25.1275 85.6594 24.6773 85.9559 24.3364L82.9375 21.7116ZM81.4151 24.3565C81.0354 25.4009 80.8627 26.5252 80.8627 27.704H84.8627C84.8627 26.9148 84.9781 26.2631 85.1743 25.7235L81.4151 24.3565ZM80.8627 27.704V38H84.8627V27.704H80.8627ZM82.8627 36H79.7307V40H82.8627V36ZM81.7307 38V18.704H77.7307V38H81.7307ZM79.7307 20.704H82.2867V16.704H79.7307V20.704ZM80.2971 18.907L80.6571 22.435L84.6364 22.029L84.2764 18.501L80.2971 18.907ZM82.6467 24.232H82.7907V20.232H82.6467V24.232ZM84.5554 23.1732C84.8638 22.595 85.2236 22.0861 85.633 21.6394L82.6844 18.9366C82.0378 19.6419 81.4857 20.429 81.026 21.2908L84.5554 23.1732ZM85.6306 21.6421C86.0213 21.2174 86.4437 20.9055 86.9002 20.6851L85.1612 17.0829C84.2257 17.5345 83.4002 18.1586 82.6869 18.9339L85.6306 21.6421ZM86.9496 20.6604C87.3413 20.4578 87.7909 20.344 88.3347 20.344V16.344C87.1986 16.344 86.1121 16.5902 85.1119 17.1076L86.9496 20.6604ZM96.9612 18.704H98.9612V16.704H96.9612V18.704ZM96.9612 38V40H98.9612V38H96.9612ZM93.8292 38H91.8292V40H93.8292V38ZM93.8292 18.704V16.704H91.8292V18.704H93.8292ZM96.6732 11.972L95.3086 13.4341L95.3355 13.4592L95.3634 13.4834L96.6732 11.972ZM96.6732 14.996L95.3086 13.5339L95.3086 13.5339L96.6732 14.996ZM94.1172 14.996L95.4819 13.5339V13.5339L94.1172 14.996ZM94.1172 11.972L95.4271 13.4834L95.4549 13.4592L95.4819 13.4341L94.1172 11.972ZM94.9612 18.704V38H98.9612V18.704H94.9612ZM96.9612 36H93.8292V40H96.9612V36ZM95.8292 38V18.704H91.8292V38H95.8292ZM93.8292 20.704H96.9612V16.704H93.8292V20.704ZM95.4132 13.468C95.416 13.468 95.4092 13.4682 95.395 13.4655C95.3805 13.4628 95.3633 13.4581 95.3454 13.451C95.3277 13.4438 95.3144 13.4364 95.3065 13.4313C95.2989 13.4264 95.2999 13.426 95.3086 13.4341L98.0379 10.5099C97.3181 9.83816 96.4142 9.468 95.4132 9.468V13.468ZM95.3634 13.4834C95.3124 13.4392 95.2716 13.3911 95.2416 13.3457C95.2122 13.3013 95.1989 13.2684 95.1947 13.2567C95.1908 13.2458 95.1958 13.2561 95.2016 13.2947C95.2074 13.3334 95.2132 13.3952 95.2132 13.484H99.2132C99.2132 12.4812 98.9526 11.3008 97.9831 10.4606L95.3634 13.4834ZM95.2132 13.484C95.2132 13.6469 95.1908 13.7044 95.1947 13.6933C95.1973 13.6861 95.2065 13.663 95.2271 13.631C95.2481 13.5984 95.2756 13.5647 95.3086 13.5339L98.0379 16.4581C98.9343 15.6214 99.2132 14.501 99.2132 13.484H95.2132ZM95.3086 13.5339C95.2998 13.542 95.2989 13.5416 95.3065 13.5367C95.3144 13.5316 95.3277 13.5242 95.3454 13.517C95.3633 13.5099 95.3805 13.5052 95.395 13.5025C95.4092 13.4998 95.416 13.5 95.4132 13.5V17.5C96.4142 17.5 97.3182 17.1298 98.0379 16.4581L95.3086 13.5339ZM95.4132 13.5C95.3987 13.5 95.3957 13.4988 95.402 13.5C95.4087 13.5012 95.4209 13.5041 95.4361 13.51C95.4514 13.5159 95.4646 13.5229 95.4745 13.5292C95.4841 13.5353 95.4864 13.5381 95.4819 13.5339L92.7526 16.4581C93.4924 17.1487 94.4158 17.5 95.4132 17.5V13.5ZM95.4819 13.5339C95.5148 13.5647 95.5424 13.5984 95.5633 13.631C95.5839 13.663 95.5931 13.6861 95.5957 13.6933C95.5997 13.7044 95.5772 13.6469 95.5772 13.484H91.5772C91.5772 14.501 91.8561 15.6214 92.7526 16.4581L95.4819 13.5339ZM95.5772 13.484C95.5772 13.3952 95.583 13.3334 95.5888 13.2947C95.5946 13.2561 95.5996 13.2458 95.5957 13.2567C95.5915 13.2684 95.5782 13.3013 95.5488 13.3457C95.5188 13.3911 95.4781 13.4392 95.4271 13.4834L92.8074 10.4606C91.8379 11.3008 91.5772 12.4812 91.5772 13.484H95.5772ZM95.4819 13.4341C95.4864 13.4299 95.4841 13.4327 95.4745 13.4388C95.4646 13.4451 95.4514 13.4521 95.4361 13.458C95.4209 13.4639 95.4087 13.4668 95.402 13.468C95.3957 13.4692 95.3987 13.468 95.4132 13.468V9.468C94.4158 9.468 93.4925 9.81934 92.7526 10.5099L95.4819 13.4341ZM113.741 19.424L114.817 17.7382V17.7382L113.741 19.424ZM116.333 22.484L114.512 23.3116L114.521 23.3317L114.531 23.3516L116.333 22.484ZM117.269 28.964V30.964H119.269V28.964H117.269ZM104.885 28.964V26.964H102.84L102.885 29.0079L104.885 28.964ZM106.433 33.968L104.912 35.267L104.919 35.2749L104.925 35.2827L106.433 33.968ZM113.633 35.336L114.105 37.2793L114.123 37.2749L114.142 37.2701L113.633 35.336ZM116.441 34.328H118.441V31.2348L115.62 32.5042L116.441 34.328ZM116.441 37.1L117.279 38.9159L118.441 38.3797V37.1H116.441ZM113.669 38.036L113.257 36.0789L113.226 36.0853L113.196 36.0927L113.669 38.036ZM105.857 37.244L106.839 35.5017L105.857 37.244ZM102.761 33.932L100.972 34.8264L100.978 34.8381L102.761 33.932ZM102.653 23.06L100.825 22.2477L102.653 23.06ZM105.461 19.568L104.351 17.9039L104.344 17.909L104.336 17.9141L105.461 19.568ZM106.397 22.412L107.92 23.7073L107.928 23.698L107.936 23.6887L106.397 22.412ZM104.957 26.444L102.964 26.2779L102.783 28.444H104.957V26.444ZM114.029 26.444V28.444H116.029V26.444H114.029ZM113.561 23.564L115.429 22.8497V22.8497L113.561 23.564ZM112.121 21.656L110.901 23.2412L110.935 23.2672L110.97 23.2916L112.121 21.656ZM109.709 20.344C110.952 20.344 111.908 20.6271 112.665 21.1098L114.817 17.7382C113.317 16.7809 111.585 16.344 109.709 16.344V20.344ZM112.665 21.1098C113.439 21.6044 114.058 22.313 114.512 23.3116L118.153 21.6564C117.407 20.015 116.298 18.6836 114.817 17.7382L112.665 21.1098ZM114.531 23.3516C114.999 24.3244 115.269 25.5401 115.269 27.056H119.269C119.269 25.0679 118.914 23.2356 118.135 21.6164L114.531 23.3516ZM115.269 27.056V28.964H119.269V27.056H115.269ZM117.269 26.964H104.885V30.964H117.269V26.964ZM102.885 29.0079C102.939 31.4543 103.521 33.6383 104.912 35.267L107.953 32.669C107.377 31.9937 106.926 30.8417 106.884 28.9201L102.885 29.0079ZM104.925 35.2827C106.361 36.928 108.337 37.66 110.573 37.66V33.66C109.256 33.66 108.472 33.264 107.94 32.6533L104.925 35.2827ZM110.573 37.66C111.845 37.66 113.029 37.5412 114.105 37.2793L113.16 33.3927C112.461 33.5628 111.605 33.66 110.573 33.66V37.66ZM114.142 37.2701C115.172 36.999 116.212 36.624 117.261 36.1518L115.62 32.5042C114.749 32.896 113.917 33.193 113.124 33.4019L114.142 37.2701ZM114.441 34.328V37.1H118.441V34.328H114.441ZM115.602 35.2841C114.789 35.6597 114.007 35.9209 113.257 36.0789L114.081 39.9931C115.154 39.7671 116.221 39.4043 117.279 38.9159L115.602 35.2841ZM113.196 36.0927C112.51 36.2596 111.598 36.36 110.429 36.36V40.36C111.803 40.36 113.052 40.2444 114.141 39.9793L113.196 36.0927ZM110.429 36.36C108.996 36.36 107.819 36.0542 106.839 35.5017L104.875 38.9863C106.534 39.9218 108.406 40.36 110.429 40.36V36.36ZM106.839 35.5017C105.891 34.9677 105.125 34.1691 104.544 33.0259L100.978 34.8381C101.885 36.6229 103.182 38.0323 104.875 38.9863L106.839 35.5017ZM104.549 33.0376C103.978 31.8947 103.645 30.4069 103.645 28.496H99.6446C99.6446 30.8571 100.055 32.9933 100.972 34.8264L104.549 33.0376ZM103.645 28.496C103.645 26.5893 103.949 25.0683 104.48 23.8723L100.825 22.2477C100.013 24.0757 99.6446 26.1787 99.6446 28.496H103.645ZM104.48 23.8723C105.023 22.652 105.735 21.8001 106.585 21.2219L104.336 17.9141C102.786 18.9679 101.627 20.444 100.825 22.2477L104.48 23.8723ZM106.57 21.2321C107.435 20.6555 108.457 20.344 109.709 20.344V16.344C107.744 16.344 105.934 16.8485 104.351 17.9039L106.57 21.2321ZM109.709 18.936C107.782 18.936 106.09 19.6487 104.857 21.1353L107.936 23.6887C108.335 23.2073 108.852 22.936 109.709 22.936V18.936ZM104.873 21.1167C103.701 22.4947 103.129 24.2867 102.964 26.2779L106.95 26.6101C107.072 25.1453 107.46 24.2493 107.92 23.7073L104.873 21.1167ZM104.957 28.444H114.029V24.444H104.957V28.444ZM116.029 26.444C116.029 25.1576 115.848 23.9451 115.429 22.8497L111.692 24.2783C111.898 24.8149 112.029 25.5224 112.029 26.444H116.029ZM115.429 22.8497C114.99 21.7018 114.278 20.7286 113.272 20.0204L110.97 23.2916C111.259 23.4954 111.507 23.7942 111.692 24.2783L115.429 22.8497ZM113.34 20.0708C112.287 19.2606 111.021 18.936 109.709 18.936V22.936C110.364 22.936 110.706 23.0914 110.901 23.2412L113.34 20.0708ZM135.565 20.036L134.135 21.4349L134.15 21.4503L134.166 21.4653L135.565 20.036ZM137.257 38V40H139.257V38H137.257ZM134.125 38H132.125V40H134.125V38ZM126.061 22.808L124.376 21.7299L124.368 21.742L124.361 21.7541L126.061 22.808ZM124.945 38V40H126.945V38H124.945ZM121.813 38H119.813V40H121.813V38ZM121.813 18.704V16.704H119.813V18.704H121.813ZM124.333 18.704L126.302 18.3534L126.008 16.704H124.333V18.704ZM124.801 21.332L122.832 21.6826L123.125 23.332H124.801V21.332ZM124.981 21.332V23.332H126.141L126.717 22.3243L124.981 21.332ZM126.457 19.676L127.625 21.2991L127.646 21.284L127.667 21.2683L126.457 19.676ZM130.669 20.344C132.494 20.344 133.529 20.8158 134.135 21.4349L136.994 18.6371C135.392 17.0002 133.163 16.344 130.669 16.344V20.344ZM134.166 21.4653C134.736 22.0237 135.257 23.1745 135.257 25.436H139.257C139.257 22.7055 138.649 20.2563 136.964 18.6067L134.166 21.4653ZM135.257 25.436V38H139.257V25.436H135.257ZM137.257 36H134.125V40H137.257V36ZM136.125 38V25.652H132.125V38H136.125ZM136.125 25.652C136.125 23.868 135.763 22.1517 134.681 20.8703L131.624 23.4497C131.839 23.7043 132.125 24.316 132.125 25.652H136.125ZM134.681 20.8703C133.536 19.5123 131.887 19.008 130.165 19.008V23.008C131.13 23.008 131.474 23.2717 131.624 23.4497L134.681 20.8703ZM130.165 19.008C127.801 19.008 125.643 19.7498 124.376 21.7299L127.745 23.8861C128.014 23.4662 128.592 23.008 130.165 23.008V19.008ZM124.361 21.7541C123.336 23.407 122.945 25.5658 122.945 27.992H126.945C126.945 25.9062 127.297 24.609 127.761 23.8619L124.361 21.7541ZM122.945 27.992V38H126.945V27.992H122.945ZM124.945 36H121.813V40H124.945V36ZM123.813 38V18.704H119.813V38H123.813ZM121.813 20.704H124.333V16.704H121.813V20.704ZM122.364 19.0546L122.832 21.6826L126.77 20.9814L126.302 18.3534L122.364 19.0546ZM124.801 23.332H124.981V19.332H124.801V23.332ZM126.717 22.3243C126.966 21.8888 127.268 21.556 127.625 21.2991L125.288 18.0529C124.445 18.66 123.763 19.4312 123.244 20.3397L126.717 22.3243ZM127.667 21.2683C128.077 20.9569 128.522 20.7306 129.011 20.5837L127.862 16.7523C126.912 17.0374 126.037 17.4831 125.247 18.0837L127.667 21.2683ZM129.011 20.5837C129.541 20.4248 130.091 20.344 130.669 20.344V16.344C129.71 16.344 128.773 16.4792 127.862 16.7523L129.011 20.5837ZM145.824 37.316L144.85 39.0627L145.824 37.316ZM142.872 34.076L141.066 34.9347L141.072 34.9467L141.077 34.9586L142.872 34.076ZM142.944 22.664L141.155 21.7696L142.944 22.664ZM145.968 19.388L145.022 17.626L145.015 17.6297L145.008 17.6335L145.968 19.388ZM153.06 18.668L152.575 20.6083L152.606 20.6161L152.638 20.6228L153.06 18.668ZM155.22 19.388L157.096 20.0818L157.707 18.4297L156.145 17.6148L155.22 19.388ZM154.248 22.016L153.519 23.8785L155.417 24.6211L156.124 22.7098L154.248 22.016ZM152.304 21.404L151.789 23.3365L151.797 23.3385L151.804 23.3406L152.304 21.404ZM145.644 24.392L143.76 23.722L145.644 24.392ZM147.336 34.796L146.145 36.4022L146.157 36.4112L146.169 36.42L147.336 34.796ZM154.896 34.508H156.896V31.3253L154.029 32.706L154.896 34.508ZM154.896 37.316L155.844 39.0769L156.896 38.5106V37.316H154.896ZM152.844 38.072L152.404 36.1211L152.374 36.1278L152.344 36.1354L152.844 38.072ZM150.144 36.36C148.804 36.36 147.708 36.0768 146.798 35.5693L144.85 39.0627C146.436 39.9472 148.22 40.36 150.144 40.36V36.36ZM146.798 35.5693C145.954 35.0984 145.234 34.3461 144.667 33.1934L141.077 34.9586C141.951 36.7339 143.198 38.1416 144.85 39.0627L146.798 35.5693ZM144.678 33.2173C144.151 32.1077 143.828 30.5558 143.828 28.46H139.828C139.828 30.9242 140.201 33.1163 141.066 34.9347L144.678 33.2173ZM143.828 28.46C143.828 26.2705 144.174 24.6758 144.733 23.5584L141.155 21.7696C140.226 23.6282 139.828 25.8975 139.828 28.46H143.828ZM144.733 23.5584C145.323 22.3794 146.064 21.6151 146.928 21.1425L145.008 17.6335C143.328 18.5529 142.054 19.9726 141.155 21.7696L144.733 23.5584ZM146.914 21.15C147.889 20.6268 149.022 20.344 150.36 20.344V16.344C148.435 16.344 146.64 16.7572 145.022 17.626L146.914 21.15ZM150.36 20.344C151.141 20.344 151.878 20.4339 152.575 20.6083L153.545 16.7277C152.515 16.4701 151.451 16.344 150.36 16.344V20.344ZM152.638 20.6228C153.423 20.7927 153.956 20.9843 154.295 21.1612L156.145 17.6148C155.38 17.2157 154.473 16.9273 153.483 16.7132L152.638 20.6228ZM153.344 18.6942L152.372 21.3222L156.124 22.7098L157.096 20.0818L153.344 18.6942ZM154.977 20.1535C154.332 19.9012 153.604 19.674 152.804 19.4674L151.804 23.3406C152.492 23.518 153.06 23.6988 153.519 23.8785L154.977 20.1535ZM152.82 19.4715C151.963 19.2431 151.116 19.116 150.288 19.116V23.116C150.708 23.116 151.206 23.1809 151.789 23.3365L152.82 19.4715ZM150.288 19.116C148.796 19.116 147.388 19.4695 146.205 20.32L148.539 23.568C148.892 23.3145 149.428 23.116 150.288 23.116V19.116ZM146.205 20.32C145.042 21.1561 144.251 22.341 143.76 23.722L147.529 25.062C147.806 24.283 148.167 23.8359 148.539 23.568L146.205 20.32ZM143.76 23.722C143.275 25.0846 143.068 26.6725 143.068 28.424H147.068C147.068 26.9595 147.245 25.8594 147.529 25.062L143.76 23.722ZM143.068 28.424C143.068 30.1156 143.278 31.6637 143.76 33.018L147.529 31.678C147.242 30.8723 147.068 29.8044 147.068 28.424H143.068ZM143.76 33.018C144.245 34.3827 145.013 35.563 146.145 36.4022L148.528 33.1898C148.171 32.925 147.811 32.4733 147.529 31.678L143.76 33.018ZM146.169 36.42C147.331 37.2556 148.694 37.624 150.144 37.624V33.624C149.387 33.624 148.877 33.4404 148.503 33.172L146.169 36.42ZM150.144 37.624C151.27 37.624 152.334 37.5008 153.314 37.2253L152.231 33.3747C151.674 33.5312 150.986 33.624 150.144 33.624V37.624ZM153.314 37.2253C154.182 36.9811 155 36.6776 155.764 36.31L154.029 32.706C153.496 32.9624 152.899 33.1869 152.231 33.3747L153.314 37.2253ZM152.896 34.508V37.316H156.896V34.508H152.896ZM153.948 35.5551C153.495 35.7987 152.984 35.9901 152.404 36.1211L153.285 40.0229C154.192 39.8179 155.049 39.5053 155.844 39.0769L153.948 35.5551ZM152.344 36.1354C151.812 36.2729 151.09 36.36 150.144 36.36V40.36C151.311 40.36 152.389 40.2551 153.344 40.0086L152.344 36.1354ZM170.272 19.424L171.348 17.7382V17.7382L170.272 19.424ZM172.864 22.484L171.043 23.3116L171.052 23.3317L171.062 23.3516L172.864 22.484ZM173.8 28.964V30.964H175.8V28.964H173.8ZM161.416 28.964V26.964H159.371L159.416 29.0079L161.416 28.964ZM162.964 33.968L161.443 35.267L161.45 35.2749L161.457 35.2827L162.964 33.968ZM170.164 35.336L170.637 37.2793L170.655 37.2749L170.673 37.2701L170.164 35.336ZM172.972 34.328H174.972V31.2348L172.151 32.5042L172.972 34.328ZM172.972 37.1L173.81 38.9159L174.972 38.3797V37.1H172.972ZM170.2 38.036L169.788 36.0789L169.757 36.0853L169.727 36.0927L170.2 38.036ZM162.388 37.244L163.37 35.5017L162.388 37.244ZM159.292 33.932L157.503 34.8264L157.509 34.8381L159.292 33.932ZM159.184 23.06L157.356 22.2477L159.184 23.06ZM161.992 19.568L160.882 17.9039L160.875 17.909L160.867 17.9141L161.992 19.568ZM162.928 22.412L164.452 23.7073L164.46 23.698L164.467 23.6887L162.928 22.412ZM161.488 26.444L159.495 26.2779L159.314 28.444H161.488V26.444ZM170.56 26.444V28.444H172.56V26.444H170.56ZM170.092 23.564L171.96 22.8497V22.8497L170.092 23.564ZM168.652 21.656L167.432 23.2412L167.466 23.2672L167.501 23.2916L168.652 21.656ZM166.24 20.344C167.483 20.344 168.439 20.6271 169.196 21.1098L171.348 17.7382C169.848 16.7809 168.117 16.344 166.24 16.344V20.344ZM169.196 21.1098C169.971 21.6044 170.589 22.313 171.043 23.3116L174.685 21.6564C173.938 20.015 172.829 18.6836 171.348 17.7382L169.196 21.1098ZM171.062 23.3516C171.53 24.3244 171.8 25.5401 171.8 27.056H175.8C175.8 25.0679 175.445 23.2356 174.666 21.6164L171.062 23.3516ZM171.8 27.056V28.964H175.8V27.056H171.8ZM173.8 26.964H161.416V30.964H173.8V26.964ZM159.416 29.0079C159.47 31.4543 160.052 33.6383 161.443 35.267L164.485 32.669C163.908 31.9937 163.458 30.8417 163.415 28.9201L159.416 29.0079ZM161.457 35.2827C162.892 36.928 164.868 37.66 167.104 37.66V33.66C165.787 33.66 165.004 33.264 164.471 32.6533L161.457 35.2827ZM167.104 37.66C168.376 37.66 169.56 37.5412 170.637 37.2793L169.691 33.3927C168.992 33.5628 168.136 33.66 167.104 33.66V37.66ZM170.673 37.2701C171.703 36.999 172.743 36.624 173.793 36.1518L172.151 32.5042C171.28 32.896 170.449 33.193 169.655 33.4019L170.673 37.2701ZM170.972 34.328V37.1H174.972V34.328H170.972ZM172.134 35.2841C171.32 35.6597 170.538 35.9209 169.788 36.0789L170.612 39.9931C171.685 39.7671 172.752 39.4043 173.81 38.9159L172.134 35.2841ZM169.727 36.0927C169.041 36.2596 168.13 36.36 166.96 36.36V40.36C168.334 40.36 169.583 40.2444 170.673 39.9793L169.727 36.0927ZM166.96 36.36C165.527 36.36 164.35 36.0542 163.37 35.5017L161.406 38.9863C163.066 39.9218 164.937 40.36 166.96 40.36V36.36ZM163.37 35.5017C162.422 34.9677 161.656 34.1691 161.075 33.0259L157.509 34.8381C158.416 36.6229 159.713 38.0323 161.406 38.9863L163.37 35.5017ZM161.081 33.0376C160.509 31.8947 160.176 30.4069 160.176 28.496H156.176C156.176 30.8571 156.586 32.9933 157.503 34.8264L161.081 33.0376ZM160.176 28.496C160.176 26.5893 160.48 25.0683 161.011 23.8723L157.356 22.2477C156.544 24.0757 156.176 26.1787 156.176 28.496H160.176ZM161.011 23.8723C161.554 22.652 162.266 21.8001 163.116 21.2219L160.867 17.9141C159.318 18.9679 158.158 20.444 157.356 22.2477L161.011 23.8723ZM163.101 21.2321C163.966 20.6555 164.988 20.344 166.24 20.344V16.344C164.275 16.344 162.465 16.8485 160.882 17.9039L163.101 21.2321ZM166.24 18.936C164.313 18.936 162.621 19.6487 161.388 21.1353L164.467 23.6887C164.867 23.2073 165.383 22.936 166.24 22.936V18.936ZM161.404 21.1167C160.233 22.4947 159.661 24.2867 159.495 26.2779L163.481 26.6101C163.603 25.1453 163.991 24.2493 164.452 23.7073L161.404 21.1167ZM161.488 28.444H170.56V24.444H161.488V28.444ZM172.56 26.444C172.56 25.1576 172.379 23.9451 171.96 22.8497L168.224 24.2783C168.429 24.8149 168.56 25.5224 168.56 26.444H172.56ZM171.96 22.8497C171.521 21.7018 170.809 20.7286 169.803 20.0204L167.501 23.2916C167.79 23.4954 168.039 23.7942 168.224 24.2783L171.96 22.8497ZM169.871 20.0708C168.818 19.2606 167.553 18.936 166.24 18.936V22.936C166.895 22.936 167.238 23.0914 167.432 23.2412L169.871 20.0708Z" fill="#FFB4C7" mask="url(#path-1-outside-1_63_44)"/>
<path d="M29.47 73L28.645 70.165H24.985L24.16 73H22L25.6 62.245H28.015L31.63 73H29.47ZM27.31 65.755C27.27 65.595 27.215 65.405 27.145 65.185C27.085 64.955 27.025 64.72 26.965 64.48C26.915 64.24 26.865 64.015 26.815 63.805C26.775 64.045 26.725 64.285 26.665 64.525C26.605 64.755 26.545 64.975 26.485 65.185C26.435 65.395 26.385 65.585 26.335 65.755L25.495 68.515H28.165L27.31 65.755ZM41.629 64.72C42.509 64.72 43.169 64.955 43.609 65.425C44.049 65.895 44.269 66.655 44.269 67.705V73H42.304V68.065C42.304 67.465 42.204 67.015 42.004 66.715C41.804 66.405 41.494 66.25 41.074 66.25C40.494 66.25 40.084 66.465 39.844 66.895C39.604 67.325 39.484 67.95 39.484 68.77V73H37.504V68.065C37.504 67.665 37.459 67.33 37.369 67.06C37.279 66.79 37.144 66.59 36.964 66.46C36.784 66.32 36.554 66.25 36.274 66.25C35.874 66.25 35.559 66.36 35.329 66.58C35.099 66.79 34.934 67.1 34.834 67.51C34.744 67.92 34.699 68.425 34.699 69.025V73H32.704V64.87H34.234L34.519 65.935H34.609C34.759 65.655 34.944 65.425 35.164 65.245C35.394 65.065 35.654 64.935 35.944 64.855C36.244 64.765 36.554 64.72 36.874 64.72C37.444 64.72 37.919 64.825 38.299 65.035C38.689 65.235 38.989 65.55 39.199 65.98H39.304C39.554 65.54 39.884 65.22 40.294 65.02C40.714 64.82 41.159 64.72 41.629 64.72ZM49.6553 64.72C50.6353 64.72 51.3853 64.95 51.9053 65.41C52.4253 65.86 52.6853 66.57 52.6853 67.54V73H51.2903L50.9003 71.875H50.8403C50.6203 72.165 50.3953 72.41 50.1653 72.61C49.9353 72.8 49.6703 72.935 49.3703 73.015C49.0703 73.105 48.7103 73.15 48.2903 73.15C47.8403 73.15 47.4353 73.06 47.0753 72.88C46.7153 72.7 46.4303 72.425 46.2203 72.055C46.0103 71.675 45.9053 71.2 45.9053 70.63C45.9053 69.79 46.1953 69.16 46.7753 68.74C47.3553 68.31 48.2253 68.075 49.3853 68.035L50.6903 67.99V67.585C50.6903 67.065 50.5803 66.695 50.3603 66.475C50.1403 66.255 49.8403 66.145 49.4603 66.145C49.1003 66.145 48.7353 66.205 48.3653 66.325C48.0053 66.445 47.6503 66.585 47.3003 66.745L46.6853 65.425C47.0953 65.215 47.5503 65.045 48.0503 64.915C48.5503 64.785 49.0853 64.72 49.6553 64.72ZM49.8503 69.19C49.1403 69.22 48.6453 69.365 48.3653 69.625C48.0853 69.875 47.9453 70.215 47.9453 70.645C47.9453 71.025 48.0403 71.3 48.2303 71.47C48.4303 71.64 48.6903 71.725 49.0103 71.725C49.4803 71.725 49.8803 71.57 50.2103 71.26C50.5403 70.94 50.7053 70.47 50.7053 69.85V69.16L49.8503 69.19ZM58.0339 73.15C57.2839 73.15 56.6339 73.005 56.0839 72.715C55.5439 72.415 55.1239 71.96 54.8239 71.35C54.5339 70.73 54.3889 69.94 54.3889 68.98C54.3889 67.98 54.5489 67.17 54.8689 66.55C55.1989 65.92 55.6489 65.46 56.2189 65.17C56.7989 64.87 57.4539 64.72 58.1839 64.72C58.6439 64.72 59.0739 64.77 59.4739 64.87C59.8839 64.97 60.2239 65.09 60.4939 65.23L59.8939 66.685C59.6239 66.575 59.3539 66.48 59.0839 66.4C58.8139 66.32 58.5439 66.28 58.2739 66.28C57.8639 66.28 57.5239 66.38 57.2539 66.58C56.9839 66.78 56.7739 67.08 56.6239 67.48C56.4839 67.87 56.4139 68.365 56.4139 68.965C56.4139 69.545 56.4839 70.03 56.6239 70.42C56.7739 70.81 56.9839 71.105 57.2539 71.305C57.5239 71.495 57.8539 71.59 58.2439 71.59C58.6339 71.59 58.9939 71.535 59.3239 71.425C59.6639 71.315 59.9839 71.165 60.2839 70.975V72.61C59.9739 72.8 59.6439 72.935 59.2939 73.015C58.9439 73.105 58.5239 73.15 58.0339 73.15ZM64.0409 71.425C63.9609 71.775 63.8509 72.155 63.7109 72.565C63.5809 72.965 63.4409 73.365 63.2909 73.765C63.1409 74.175 62.9859 74.565 62.8259 74.935H61.4009C61.4909 74.545 61.5809 74.13 61.6709 73.69C61.7609 73.26 61.8409 72.835 61.9109 72.415C61.9909 71.995 62.0509 71.61 62.0909 71.26H63.9359L64.0409 71.425ZM76.0081 73L75.1831 70.165H71.5231L70.6981 73H68.5381L72.1381 62.245H74.5531L78.1681 73H76.0081ZM73.8481 65.755C73.8081 65.595 73.7531 65.405 73.6831 65.185C73.6231 64.955 73.5631 64.72 73.5031 64.48C73.4531 64.24 73.4031 64.015 73.3531 63.805C73.3131 64.045 73.2631 64.285 73.2031 64.525C73.1431 64.755 73.0831 64.975 73.0231 65.185C72.9731 65.395 72.9231 65.585 72.8731 65.755L72.0331 68.515H74.7031L73.8481 65.755ZM88.1671 64.72C89.0471 64.72 89.7071 64.955 90.1471 65.425C90.5871 65.895 90.8071 66.655 90.8071 67.705V73H88.8421V68.065C88.8421 67.465 88.7421 67.015 88.5421 66.715C88.3421 66.405 88.0321 66.25 87.6121 66.25C87.0321 66.25 86.6221 66.465 86.3821 66.895C86.1421 67.325 86.0221 67.95 86.0221 68.77V73H84.0421V68.065C84.0421 67.665 83.9971 67.33 83.9071 67.06C83.8171 66.79 83.6821 66.59 83.5021 66.46C83.3221 66.32 83.0921 66.25 82.8121 66.25C82.4121 66.25 82.0971 66.36 81.8671 66.58C81.6371 66.79 81.4721 67.1 81.3721 67.51C81.2821 67.92 81.2371 68.425 81.2371 69.025V73H79.2421V64.87H80.7721L81.0571 65.935H81.1471C81.2971 65.655 81.4821 65.425 81.7021 65.245C81.9321 65.065 82.1921 64.935 82.4821 64.855C82.7821 64.765 83.0921 64.72 83.4121 64.72C83.9821 64.72 84.4571 64.825 84.8371 65.035C85.2271 65.235 85.5271 65.55 85.7371 65.98H85.8421C86.0921 65.54 86.4221 65.22 86.8321 65.02C87.2521 64.82 87.6971 64.72 88.1671 64.72ZM98.2934 70.645C98.2934 71.185 98.1734 71.645 97.9334 72.025C97.6934 72.395 97.3384 72.675 96.8684 72.865C96.3984 73.055 95.8084 73.15 95.0984 73.15C94.5584 73.15 94.0884 73.11 93.6884 73.03C93.2884 72.95 92.9034 72.825 92.5334 72.655V71.05C92.9334 71.24 93.3634 71.4 93.8234 71.53C94.2934 71.66 94.7184 71.725 95.0984 71.725C95.5484 71.725 95.8734 71.645 96.0734 71.485C96.2734 71.325 96.3734 71.11 96.3734 70.84C96.3734 70.68 96.3284 70.535 96.2384 70.405C96.1584 70.275 95.9884 70.14 95.7284 70C95.4784 69.85 95.1134 69.665 94.6334 69.445C94.1634 69.235 93.7734 69.025 93.4634 68.815C93.1534 68.605 92.9184 68.355 92.7584 68.065C92.5984 67.765 92.5184 67.39 92.5184 66.94C92.5184 66.21 92.7934 65.66 93.3434 65.29C93.9034 64.91 94.6334 64.72 95.5334 64.72C96.0234 64.72 96.4784 64.77 96.8984 64.87C97.3284 64.96 97.7584 65.11 98.1884 65.32L97.6034 66.715C97.3634 66.605 97.1184 66.51 96.8684 66.43C96.6284 66.34 96.3934 66.27 96.1634 66.22C95.9434 66.17 95.7234 66.145 95.5034 66.145C95.1534 66.145 94.8884 66.21 94.7084 66.34C94.5284 66.46 94.4384 66.635 94.4384 66.865C94.4384 67.025 94.4834 67.17 94.5734 67.3C94.6634 67.42 94.8334 67.545 95.0834 67.675C95.3334 67.805 95.6884 67.97 96.1484 68.17C96.6084 68.35 96.9984 68.545 97.3184 68.755C97.6384 68.955 97.8784 69.205 98.0384 69.505C98.2084 69.805 98.2934 70.185 98.2934 70.645ZM103.135 71.635C103.355 71.635 103.565 71.615 103.765 71.575C103.975 71.525 104.17 71.47 104.35 71.41V72.82C104.14 72.91 103.885 72.985 103.585 73.045C103.285 73.115 102.95 73.15 102.58 73.15C102.12 73.15 101.71 73.075 101.35 72.925C100.99 72.765 100.705 72.495 100.495 72.115C100.295 71.735 100.195 71.205 100.195 70.525V66.295H99.175V65.47L100.315 64.81L100.915 63.085H102.175V64.87H104.275V66.295H102.175V70.51C102.175 70.89 102.26 71.175 102.43 71.365C102.61 71.545 102.845 71.635 103.135 71.635ZM109.024 64.72C109.724 64.72 110.324 64.87 110.824 65.17C111.334 65.46 111.729 65.88 112.009 66.43C112.289 66.97 112.429 67.63 112.429 68.41V69.37H107.449C107.469 70.11 107.649 70.685 107.989 71.095C108.339 71.495 108.829 71.695 109.459 71.695C109.959 71.695 110.404 71.645 110.794 71.545C111.184 71.435 111.589 71.28 112.009 71.08V72.595C111.629 72.785 111.234 72.925 110.824 73.015C110.414 73.105 109.909 73.15 109.309 73.15C108.549 73.15 107.874 73 107.284 72.7C106.704 72.39 106.249 71.925 105.919 71.305C105.589 70.685 105.424 69.915 105.424 68.995C105.424 68.065 105.574 67.285 105.874 66.655C106.174 66.015 106.594 65.535 107.134 65.215C107.684 64.885 108.314 64.72 109.024 64.72ZM109.054 66.115C108.604 66.115 108.239 66.28 107.959 66.61C107.689 66.93 107.529 67.41 107.479 68.05H110.539C110.539 67.67 110.484 67.335 110.374 67.045C110.264 66.755 110.099 66.53 109.879 66.37C109.669 66.2 109.394 66.115 109.054 66.115ZM116.13 73H114.135V61.6H116.13V73ZM120.14 73L117.215 64.87H119.3L120.755 69.565C120.825 69.755 120.88 69.965 120.92 70.195C120.97 70.415 121.015 70.635 121.055 70.855C121.095 71.065 121.115 71.25 121.115 71.41H121.175C121.195 71.24 121.22 71.05 121.25 70.84C121.29 70.62 121.34 70.4 121.4 70.18C121.46 69.96 121.515 69.755 121.565 69.565L123.035 64.87H125.12L122.195 73H120.14ZM129.4 64.72C130.1 64.72 130.7 64.87 131.2 65.17C131.71 65.46 132.105 65.88 132.385 66.43C132.665 66.97 132.805 67.63 132.805 68.41V69.37H127.825C127.845 70.11 128.025 70.685 128.365 71.095C128.715 71.495 129.205 71.695 129.835 71.695C130.335 71.695 130.78 71.645 131.17 71.545C131.56 71.435 131.965 71.28 132.385 71.08V72.595C132.005 72.785 131.61 72.925 131.2 73.015C130.79 73.105 130.285 73.15 129.685 73.15C128.925 73.15 128.25 73 127.66 72.7C127.08 72.39 126.625 71.925 126.295 71.305C125.965 70.685 125.8 69.915 125.8 68.995C125.8 68.065 125.95 67.285 126.25 66.655C126.55 66.015 126.97 65.535 127.51 65.215C128.06 64.885 128.69 64.72 129.4 64.72ZM129.43 66.115C128.98 66.115 128.615 66.28 128.335 66.61C128.065 66.93 127.905 67.41 127.855 68.05H130.915C130.915 67.67 130.86 67.335 130.75 67.045C130.64 66.755 130.475 66.53 130.255 66.37C130.045 66.2 129.77 66.115 129.43 66.115ZM137.706 64.72C138.406 64.72 139.006 64.87 139.506 65.17C140.016 65.46 140.411 65.88 140.691 66.43C140.971 66.97 141.111 67.63 141.111 68.41V69.37H136.131C136.151 70.11 136.331 70.685 136.671 71.095C137.021 71.495 137.511 71.695 138.141 71.695C138.641 71.695 139.086 71.645 139.476 71.545C139.866 71.435 140.271 71.28 140.691 71.08V72.595C140.311 72.785 139.916 72.925 139.506 73.015C139.096 73.105 138.591 73.15 137.991 73.15C137.231 73.15 136.556 73 135.966 72.7C135.386 72.39 134.931 71.925 134.601 71.305C134.271 70.685 134.106 69.915 134.106 68.995C134.106 68.065 134.256 67.285 134.556 66.655C134.856 66.015 135.276 65.535 135.816 65.215C136.366 64.885 136.996 64.72 137.706 64.72ZM137.736 66.115C137.286 66.115 136.921 66.28 136.641 66.61C136.371 66.93 136.211 67.41 136.161 68.05H139.221C139.221 67.67 139.166 67.335 139.056 67.045C138.946 66.755 138.781 66.53 138.561 66.37C138.351 66.2 138.076 66.115 137.736 66.115ZM147.091 64.72C147.941 64.72 148.611 64.955 149.101 65.425C149.591 65.895 149.836 66.655 149.836 67.705V73H147.841V68.08C147.841 67.47 147.736 67.015 147.526 66.715C147.316 66.405 146.986 66.25 146.536 66.25C145.866 66.25 145.411 66.49 145.171 66.97C144.931 67.44 144.811 68.125 144.811 69.025V73H142.816V64.87H144.346L144.631 65.935H144.706C144.886 65.655 145.096 65.425 145.336 65.245C145.576 65.065 145.846 64.935 146.146 64.855C146.446 64.765 146.761 64.72 147.091 64.72Z" fill="black"/>
<path d="M25.86 84L23.7 77.74H23.66C23.6733 77.8733 23.6833 78.0433 23.69 78.25C23.7033 78.4567 23.7133 78.6833 23.72 78.93C23.7267 79.17 23.73 79.4167 23.73 79.67V84H22.91V76.86H24.21L26.24 82.71H26.28L28.35 76.86H29.65V84H28.77V79.61C28.77 79.3767 28.7733 79.1467 28.78 78.92C28.7867 78.6867 28.7967 78.47 28.81 78.27C28.8233 78.0633 28.8333 77.89 28.84 77.75H28.8L26.6 84H25.86ZM33.2845 78.55C33.8978 78.55 34.3545 78.6933 34.6545 78.98C34.9611 79.2667 35.1145 79.7233 35.1145 80.35V84H34.4845L34.3145 83.24H34.2745C34.1278 83.4333 33.9778 83.5967 33.8245 83.73C33.6778 83.8567 33.5045 83.95 33.3045 84.01C33.1111 84.07 32.8711 84.1 32.5845 84.1C32.2845 84.1 32.0145 84.0433 31.7745 83.93C31.5345 83.8167 31.3445 83.6433 31.2045 83.41C31.0645 83.17 30.9945 82.87 30.9945 82.51C30.9945 81.9767 31.1911 81.5667 31.5845 81.28C31.9778 80.9867 32.5845 80.8267 33.4045 80.8L34.2545 80.77V80.45C34.2545 80.0033 34.1645 79.6933 33.9845 79.52C33.8111 79.3467 33.5611 79.26 33.2345 79.26C32.9745 79.26 32.7245 79.3033 32.4845 79.39C32.2511 79.47 32.0278 79.5633 31.8145 79.67L31.5445 79.01C31.7711 78.8833 32.0345 78.7767 32.3345 78.69C32.6345 78.5967 32.9511 78.55 33.2845 78.55ZM33.5245 81.41C32.9111 81.4367 32.4845 81.5433 32.2445 81.73C32.0111 81.9167 31.8945 82.18 31.8945 82.52C31.8945 82.82 31.9778 83.04 32.1445 83.18C32.3111 83.32 32.5278 83.39 32.7945 83.39C33.2078 83.39 33.5545 83.2667 33.8345 83.02C34.1145 82.7667 34.2545 82.38 34.2545 81.86V81.38L33.5245 81.41ZM39.057 78.54C39.1503 78.54 39.2503 78.5467 39.357 78.56C39.4636 78.5667 39.557 78.58 39.637 78.6L39.537 79.41C39.457 79.39 39.367 79.3733 39.267 79.36C39.1736 79.3467 39.0836 79.34 38.997 79.34C38.8036 79.34 38.6203 79.3833 38.447 79.47C38.2736 79.5567 38.117 79.68 37.977 79.84C37.8436 79.9933 37.737 80.18 37.657 80.4C37.577 80.62 37.537 80.8667 37.537 81.14V84H36.667V78.64H37.377L37.477 79.62H37.517C37.6236 79.42 37.7503 79.24 37.897 79.08C38.0503 78.9133 38.2236 78.7833 38.417 78.69C38.6103 78.59 38.8236 78.54 39.057 78.54ZM38.8516 83.46C38.8516 83.2133 38.9083 83.04 39.0216 82.94C39.135 82.84 39.275 82.79 39.4416 82.79C39.6083 82.79 39.7516 82.84 39.8716 82.94C39.9916 83.04 40.0516 83.2133 40.0516 83.46C40.0516 83.7 39.9916 83.8733 39.8716 83.98C39.7516 84.0867 39.6083 84.14 39.4416 84.14C39.275 84.14 39.135 84.0867 39.0216 83.98C38.9083 83.8733 38.8516 83.7 38.8516 83.46ZM48.0721 84H43.6121V83.27L45.3621 81.38C45.6954 81.02 45.9754 80.7 46.2021 80.42C46.4354 80.14 46.6121 79.8667 46.7321 79.6C46.8521 79.3267 46.9121 79.03 46.9121 78.71C46.9121 78.3167 46.8054 78.02 46.5921 77.82C46.3788 77.6133 46.0988 77.51 45.7521 77.51C45.4321 77.51 45.1488 77.57 44.9021 77.69C44.6554 77.81 44.4054 77.9767 44.1521 78.19L43.6821 77.6C43.8621 77.44 44.0554 77.2967 44.2621 77.17C44.4688 77.0433 44.6954 76.9433 44.9421 76.87C45.1954 76.7967 45.4688 76.76 45.7621 76.76C46.1821 76.76 46.5421 76.8367 46.8421 76.99C47.1488 77.1433 47.3854 77.3633 47.5521 77.65C47.7188 77.93 47.8021 78.2667 47.8021 78.66C47.8021 78.94 47.7588 79.2067 47.6721 79.46C47.5921 79.7067 47.4754 79.95 47.3221 80.19C47.1688 80.43 46.9854 80.6733 46.7721 80.92C46.5654 81.1667 46.3321 81.4267 46.0721 81.7L44.7021 83.16L44.7121 83.2H48.0721V84ZM53.4532 80.42C53.4532 81 53.4099 81.5167 53.3232 81.97C53.2432 82.4233 53.1132 82.81 52.9332 83.13C52.7599 83.4433 52.5299 83.6833 52.2432 83.85C51.9565 84.0167 51.6132 84.1 51.2132 84.1C50.7065 84.1 50.2865 83.9533 49.9532 83.66C49.6265 83.3667 49.3832 82.9467 49.2232 82.4C49.0632 81.8467 48.9832 81.1867 48.9832 80.42C48.9832 79.6467 49.0565 78.9867 49.2032 78.44C49.3499 77.8933 49.5865 77.4767 49.9132 77.19C50.2399 76.8967 50.6732 76.75 51.2132 76.75C51.7199 76.75 52.1365 76.8967 52.4632 77.19C52.7965 77.4767 53.0432 77.8933 53.2032 78.44C53.3699 78.9867 53.4532 79.6467 53.4532 80.42ZM49.8532 80.42C49.8532 81.0733 49.8965 81.6167 49.9832 82.05C50.0765 82.4833 50.2232 82.81 50.4232 83.03C50.6232 83.2433 50.8865 83.35 51.2132 83.35C51.5399 83.35 51.8032 83.2433 52.0032 83.03C52.2032 82.8167 52.3465 82.4933 52.4332 82.06C52.5265 81.62 52.5732 81.0733 52.5732 80.42C52.5732 79.7667 52.5265 79.2267 52.4332 78.8C52.3465 78.3667 52.2032 78.0433 52.0032 77.83C51.8032 77.61 51.5399 77.5 51.2132 77.5C50.8865 77.5 50.6232 77.61 50.4232 77.83C50.2232 78.0433 50.0765 78.3667 49.9832 78.8C49.8965 79.2267 49.8532 79.7667 49.8532 80.42ZM58.8143 84H54.3543V83.27L56.1043 81.38C56.4376 81.02 56.7176 80.7 56.9443 80.42C57.1776 80.14 57.3543 79.8667 57.4743 79.6C57.5943 79.3267 57.6543 79.03 57.6543 78.71C57.6543 78.3167 57.5476 78.02 57.3343 77.82C57.121 77.6133 56.841 77.51 56.4943 77.51C56.1743 77.51 55.891 77.57 55.6443 77.69C55.3976 77.81 55.1476 77.9767 54.8943 78.19L54.4243 77.6C54.6043 77.44 54.7976 77.2967 55.0043 77.17C55.211 77.0433 55.4376 76.9433 55.6843 76.87C55.9376 76.7967 56.211 76.76 56.5043 76.76C56.9243 76.76 57.2843 76.8367 57.5843 76.99C57.891 77.1433 58.1276 77.3633 58.2943 77.65C58.461 77.93 58.5443 78.2667 58.5443 78.66C58.5443 78.94 58.501 79.2067 58.4143 79.46C58.3343 79.7067 58.2176 79.95 58.0643 80.19C57.911 80.43 57.7276 80.6733 57.5143 80.92C57.3076 81.1667 57.0743 81.4267 56.8143 81.7L55.4443 83.16L55.4543 83.2H58.8143V84ZM64.1854 84H59.7254V83.27L61.4754 81.38C61.8087 81.02 62.0887 80.7 62.3154 80.42C62.5487 80.14 62.7254 79.8667 62.8454 79.6C62.9654 79.3267 63.0254 79.03 63.0254 78.71C63.0254 78.3167 62.9187 78.02 62.7054 77.82C62.4921 77.6133 62.2121 77.51 61.8654 77.51C61.5454 77.51 61.2621 77.57 61.0154 77.69C60.7687 77.81 60.5187 77.9767 60.2654 78.19L59.7954 77.6C59.9754 77.44 60.1687 77.2967 60.3754 77.17C60.5821 77.0433 60.8087 76.9433 61.0554 76.87C61.3087 76.7967 61.5821 76.76 61.8754 76.76C62.2954 76.76 62.6554 76.8367 62.9554 76.99C63.2621 77.1433 63.4987 77.3633 63.6654 77.65C63.8321 77.93 63.9154 78.2667 63.9154 78.66C63.9154 78.94 63.8721 79.2067 63.7854 79.46C63.7054 79.7067 63.5887 79.95 63.4354 80.19C63.2821 80.43 63.0987 80.6733 62.8854 80.92C62.6787 81.1667 62.4454 81.4267 62.1854 81.7L60.8154 83.16L60.8254 83.2H64.1854V84ZM67.4579 81.71V80.93H69.7479V81.71H67.4579ZM78.8366 84H77.7866L74.2466 78.07H74.2066C74.2133 78.19 74.22 78.3233 74.2266 78.47C74.24 78.6167 74.25 78.7767 74.2566 78.95C74.2633 79.1167 74.27 79.29 74.2766 79.47C74.2833 79.65 74.2866 79.83 74.2866 80.01V84H73.4666V76.86H74.5066L78.0366 82.77H78.0766C78.07 82.69 78.0633 82.58 78.0566 82.44C78.05 82.2933 78.0433 82.1333 78.0366 81.96C78.03 81.78 78.0233 81.5967 78.0166 81.41C78.01 81.2233 78.0066 81.05 78.0066 80.89V76.86H78.8366V84ZM84.9441 81.31C84.9441 81.7567 84.8875 82.1533 84.7741 82.5C84.6675 82.84 84.5108 83.13 84.3041 83.37C84.0975 83.61 83.8475 83.7933 83.5541 83.92C83.2608 84.04 82.9341 84.1 82.5741 84.1C82.2408 84.1 81.9308 84.04 81.6441 83.92C81.3641 83.7933 81.1175 83.61 80.9041 83.37C80.6975 83.13 80.5375 82.84 80.4241 82.5C80.3108 82.1533 80.2541 81.7567 80.2541 81.31C80.2541 80.7167 80.3475 80.2167 80.5341 79.81C80.7275 79.3967 81.0008 79.0833 81.3541 78.87C81.7075 78.65 82.1241 78.54 82.6041 78.54C83.0641 78.54 83.4675 78.65 83.8141 78.87C84.1675 79.0833 84.4441 79.3967 84.6441 79.81C84.8441 80.2167 84.9441 80.7167 84.9441 81.31ZM81.1541 81.31C81.1541 81.73 81.2041 82.0967 81.3041 82.41C81.4041 82.7167 81.5608 82.9533 81.7741 83.12C81.9875 83.2867 82.2608 83.37 82.5941 83.37C82.9275 83.37 83.2008 83.2867 83.4141 83.12C83.6275 82.9533 83.7841 82.7167 83.8841 82.41C83.9908 82.0967 84.0441 81.73 84.0441 81.31C84.0441 80.8833 83.9908 80.52 83.8841 80.22C83.7841 79.92 83.6275 79.69 83.4141 79.53C83.2008 79.3633 82.9241 79.28 82.5841 79.28C82.0841 79.28 81.7208 79.46 81.4941 79.82C81.2675 80.18 81.1541 80.6767 81.1541 81.31ZM89.3517 80.97C89.3117 80.83 89.2717 80.6933 89.2317 80.56C89.1984 80.42 89.1651 80.29 89.1317 80.17C89.0984 80.0433 89.0684 79.9267 89.0417 79.82C89.0217 79.7133 89.0051 79.6233 88.9917 79.55H88.9517C88.9384 79.6233 88.9184 79.7133 88.8917 79.82C88.8717 79.9267 88.8451 80.0433 88.8117 80.17C88.7851 80.2967 88.7517 80.43 88.7117 80.57C88.6784 80.7033 88.6417 80.84 88.6017 80.98L87.7317 83.99H86.7517L85.3617 78.63H86.2617L86.9517 81.49C86.9984 81.6833 87.0417 81.88 87.0817 82.08C87.1284 82.2733 87.1684 82.46 87.2017 82.64C87.2351 82.8133 87.2584 82.9633 87.2717 83.09H87.3117C87.3251 83.01 87.3417 82.91 87.3617 82.79C87.3884 82.67 87.4151 82.5433 87.4417 82.41C87.4751 82.2767 87.5084 82.1433 87.5417 82.01C87.5751 81.8767 87.6084 81.7567 87.6417 81.65L88.5117 78.63H89.4717L90.3117 81.65C90.3584 81.8033 90.4017 81.9667 90.4417 82.14C90.4884 82.3133 90.5284 82.4833 90.5617 82.65C90.6017 82.81 90.6284 82.9533 90.6417 83.08H90.6717C90.6851 82.9667 90.7084 82.8267 90.7417 82.66C90.7751 82.4867 90.8151 82.3 90.8617 82.1C90.9151 81.8933 90.9651 81.69 91.0117 81.49L91.7117 78.63H92.5917L91.1917 83.99H90.1817L89.3517 80.97Z" fill="black"/>
<path d="M22.15 114.03C21.88 114.03 21.645 114.01 21.445 113.97C21.245 113.94 21.07 113.905 20.92 113.865V112.26C21.07 112.3 21.23 112.335 21.4 112.365C21.56 112.395 21.735 112.41 21.925 112.41C22.195 112.41 22.425 112.36 22.615 112.26C22.815 112.16 22.965 111.975 23.065 111.705C23.175 111.435 23.23 111.05 23.23 110.55V100.29H25.255V110.505C25.255 111.345 25.125 112.02 24.865 112.53C24.605 113.05 24.24 113.43 23.77 113.67C23.31 113.91 22.77 114.03 22.15 114.03ZM34.5078 102.87V111H32.9778L32.7228 109.95H32.6178C32.4578 110.23 32.2528 110.46 32.0028 110.64C31.7528 110.81 31.4778 110.935 31.1778 111.015C30.8778 111.105 30.5678 111.15 30.2478 111.15C29.6878 111.15 29.2028 111.045 28.7928 110.835C28.3828 110.625 28.0628 110.305 27.8328 109.875C27.6128 109.435 27.5028 108.87 27.5028 108.18V102.87H29.4978V107.805C29.4978 108.405 29.5978 108.86 29.7978 109.17C30.0078 109.47 30.3378 109.62 30.7878 109.62C31.2378 109.62 31.5878 109.515 31.8378 109.305C32.0978 109.085 32.2778 108.77 32.3778 108.36C32.4778 107.95 32.5278 107.445 32.5278 106.845V102.87H34.5078ZM45.6134 102.72C46.4934 102.72 47.1534 102.955 47.5934 103.425C48.0334 103.895 48.2534 104.655 48.2534 105.705V111H46.2884V106.065C46.2884 105.465 46.1884 105.015 45.9884 104.715C45.7884 104.405 45.4784 104.25 45.0584 104.25C44.4784 104.25 44.0684 104.465 43.8284 104.895C43.5884 105.325 43.4684 105.95 43.4684 106.77V111H41.4884V106.065C41.4884 105.665 41.4434 105.33 41.3534 105.06C41.2634 104.79 41.1284 104.59 40.9484 104.46C40.7684 104.32 40.5384 104.25 40.2584 104.25C39.8584 104.25 39.5434 104.36 39.3134 104.58C39.0834 104.79 38.9184 105.1 38.8184 105.51C38.7284 105.92 38.6834 106.425 38.6834 107.025V111H36.6884V102.87H38.2184L38.5034 103.935H38.5934C38.7434 103.655 38.9284 103.425 39.1484 103.245C39.3784 103.065 39.6384 102.935 39.9284 102.855C40.2284 102.765 40.5384 102.72 40.8584 102.72C41.4284 102.72 41.9034 102.825 42.2834 103.035C42.6734 103.235 42.9734 103.55 43.1834 103.98H43.2884C43.5384 103.54 43.8684 103.22 44.2784 103.02C44.6984 102.82 45.1434 102.72 45.6134 102.72ZM52.3647 102.3C52.3647 102.62 52.3547 102.93 52.3347 103.23C52.3247 103.53 52.3097 103.765 52.2897 103.935H52.3647C52.5747 103.595 52.8547 103.31 53.2047 103.08C53.5547 102.84 54.0147 102.72 54.5847 102.72C55.4447 102.72 56.1447 103.075 56.6847 103.785C57.2347 104.495 57.5097 105.54 57.5097 106.92C57.5097 107.85 57.3847 108.63 57.1347 109.26C56.8947 109.89 56.5497 110.365 56.0997 110.685C55.6497 110.995 55.1247 111.15 54.5247 111.15C53.9647 111.15 53.5147 111.04 53.1747 110.82C52.8447 110.6 52.5747 110.345 52.3647 110.055H52.2297L51.8997 111H50.3847V99.6H52.3647V102.3ZM53.9547 104.25C53.5747 104.25 53.2697 104.34 53.0397 104.52C52.8097 104.7 52.6397 104.975 52.5297 105.345C52.4297 105.715 52.3797 106.185 52.3797 106.755V106.92C52.3797 107.79 52.4947 108.455 52.7247 108.915C52.9547 109.375 53.3797 109.605 53.9997 109.605C54.4797 109.605 54.8447 109.375 55.0947 108.915C55.3547 108.445 55.4847 107.775 55.4847 106.905C55.4847 106.025 55.3547 105.365 55.0947 104.925C54.8447 104.475 54.4647 104.25 53.9547 104.25ZM66.2516 106.92C66.2516 107.6 66.1666 108.2 65.9966 108.72C65.8266 109.24 65.5766 109.685 65.2466 110.055C64.9266 110.415 64.5366 110.69 64.0766 110.88C63.6166 111.06 63.1016 111.15 62.5316 111.15C62.0016 111.15 61.5066 111.06 61.0466 110.88C60.5966 110.69 60.2066 110.415 59.8766 110.055C59.5566 109.685 59.3066 109.24 59.1266 108.72C58.9466 108.2 58.8566 107.6 58.8566 106.92C58.8566 106.02 59.0016 105.26 59.2916 104.64C59.5916 104.01 60.0216 103.535 60.5816 103.215C61.1416 102.885 61.8066 102.72 62.5766 102.72C63.2966 102.72 63.9316 102.885 64.4816 103.215C65.0316 103.535 65.4616 104.01 65.7716 104.64C66.0916 105.26 66.2516 106.02 66.2516 106.92ZM60.8816 106.92C60.8816 107.49 60.9416 107.98 61.0616 108.39C61.1816 108.79 61.3616 109.095 61.6016 109.305C61.8516 109.515 62.1716 109.62 62.5616 109.62C62.9516 109.62 63.2666 109.515 63.5066 109.305C63.7566 109.095 63.9366 108.79 64.0466 108.39C64.1666 107.98 64.2266 107.49 64.2266 106.92C64.2266 106.34 64.1666 105.855 64.0466 105.465C63.9266 105.065 63.7416 104.765 63.4916 104.565C63.2516 104.355 62.9366 104.25 62.5466 104.25C61.9566 104.25 61.5316 104.48 61.2716 104.94C61.0116 105.4 60.8816 106.06 60.8816 106.92ZM70.0321 109.425C69.9521 109.775 69.8421 110.155 69.7021 110.565C69.5721 110.965 69.4321 111.365 69.2821 111.765C69.1321 112.175 68.9771 112.565 68.8171 112.935H67.3921C67.4821 112.545 67.5721 112.13 67.6621 111.69C67.7521 111.26 67.8321 110.835 67.9021 110.415C67.9821 109.995 68.0421 109.61 68.0821 109.26H69.9271L70.0321 109.425ZM81.9993 111L81.1743 108.165H77.5143L76.6893 111H74.5293L78.1293 100.245H80.5443L84.1593 111H81.9993ZM79.8393 103.755C79.7993 103.595 79.7443 103.405 79.6743 103.185C79.6143 102.955 79.5543 102.72 79.4943 102.48C79.4443 102.24 79.3943 102.015 79.3443 101.805C79.3043 102.045 79.2543 102.285 79.1943 102.525C79.1343 102.755 79.0743 102.975 79.0143 103.185C78.9643 103.395 78.9143 103.585 78.8643 103.755L78.0243 106.515H80.6943L79.8393 103.755ZM94.1583 102.72C95.0383 102.72 95.6983 102.955 96.1383 103.425C96.5783 103.895 96.7983 104.655 96.7983 105.705V111H94.8333V106.065C94.8333 105.465 94.7333 105.015 94.5333 104.715C94.3333 104.405 94.0233 104.25 93.6033 104.25C93.0233 104.25 92.6133 104.465 92.3733 104.895C92.1333 105.325 92.0133 105.95 92.0133 106.77V111H90.0333V106.065C90.0333 105.665 89.9883 105.33 89.8983 105.06C89.8083 104.79 89.6733 104.59 89.4933 104.46C89.3133 104.32 89.0833 104.25 88.8033 104.25C88.4033 104.25 88.0883 104.36 87.8583 104.58C87.6283 104.79 87.4633 105.1 87.3633 105.51C87.2733 105.92 87.2283 106.425 87.2283 107.025V111H85.2333V102.87H86.7633L87.0483 103.935H87.1383C87.2883 103.655 87.4733 103.425 87.6933 103.245C87.9233 103.065 88.1833 102.935 88.4733 102.855C88.7733 102.765 89.0833 102.72 89.4033 102.72C89.9733 102.72 90.4483 102.825 90.8283 103.035C91.2183 103.235 91.5183 103.55 91.7283 103.98H91.8333C92.0833 103.54 92.4133 103.22 92.8233 103.02C93.2433 102.82 93.6883 102.72 94.1583 102.72ZM104.285 108.645C104.285 109.185 104.165 109.645 103.925 110.025C103.685 110.395 103.33 110.675 102.86 110.865C102.39 111.055 101.8 111.15 101.09 111.15C100.55 111.15 100.08 111.11 99.6796 111.03C99.2796 110.95 98.8946 110.825 98.5246 110.655V109.05C98.9246 109.24 99.3546 109.4 99.8146 109.53C100.285 109.66 100.71 109.725 101.09 109.725C101.54 109.725 101.865 109.645 102.065 109.485C102.265 109.325 102.365 109.11 102.365 108.84C102.365 108.68 102.32 108.535 102.23 108.405C102.15 108.275 101.98 108.14 101.72 108C101.47 107.85 101.105 107.665 100.625 107.445C100.155 107.235 99.7646 107.025 99.4546 106.815C99.1446 106.605 98.9096 106.355 98.7496 106.065C98.5896 105.765 98.5096 105.39 98.5096 104.94C98.5096 104.21 98.7846 103.66 99.3346 103.29C99.8946 102.91 100.625 102.72 101.525 102.72C102.015 102.72 102.47 102.77 102.89 102.87C103.32 102.96 103.75 103.11 104.18 103.32L103.595 104.715C103.355 104.605 103.11 104.51 102.86 104.43C102.62 104.34 102.385 104.27 102.155 104.22C101.935 104.17 101.715 104.145 101.495 104.145C101.145 104.145 100.88 104.21 100.7 104.34C100.52 104.46 100.43 104.635 100.43 104.865C100.43 105.025 100.475 105.17 100.565 105.3C100.655 105.42 100.825 105.545 101.075 105.675C101.325 105.805 101.68 105.97 102.14 106.17C102.6 106.35 102.99 106.545 103.31 106.755C103.63 106.955 103.87 107.205 104.03 107.505C104.2 107.805 104.285 108.185 104.285 108.645ZM109.126 109.635C109.346 109.635 109.556 109.615 109.756 109.575C109.966 109.525 110.161 109.47 110.341 109.41V110.82C110.131 110.91 109.876 110.985 109.576 111.045C109.276 111.115 108.941 111.15 108.571 111.15C108.111 111.15 107.701 111.075 107.341 110.925C106.981 110.765 106.696 110.495 106.486 110.115C106.286 109.735 106.186 109.205 106.186 108.525V104.295H105.166V103.47L106.306 102.81L106.906 101.085H108.166V102.87H110.266V104.295H108.166V108.51C108.166 108.89 108.251 109.175 108.421 109.365C108.601 109.545 108.836 109.635 109.126 109.635ZM115.015 102.72C115.715 102.72 116.315 102.87 116.815 103.17C117.325 103.46 117.72 103.88 118 104.43C118.28 104.97 118.42 105.63 118.42 106.41V107.37H113.44C113.46 108.11 113.64 108.685 113.98 109.095C114.33 109.495 114.82 109.695 115.45 109.695C115.95 109.695 116.395 109.645 116.785 109.545C117.175 109.435 117.58 109.28 118 109.08V110.595C117.62 110.785 117.225 110.925 116.815 111.015C116.405 111.105 115.9 111.15 115.3 111.15C114.54 111.15 113.865 111 113.275 110.7C112.695 110.39 112.24 109.925 111.91 109.305C111.58 108.685 111.415 107.915 111.415 106.995C111.415 106.065 111.565 105.285 111.865 104.655C112.165 104.015 112.585 103.535 113.125 103.215C113.675 102.885 114.305 102.72 115.015 102.72ZM115.045 104.115C114.595 104.115 114.23 104.28 113.95 104.61C113.68 104.93 113.52 105.41 113.47 106.05H116.53C116.53 105.67 116.475 105.335 116.365 105.045C116.255 104.755 116.09 104.53 115.87 104.37C115.66 104.2 115.385 104.115 115.045 104.115ZM122.121 111H120.126V99.6H122.121V111ZM126.131 111L123.206 102.87H125.291L126.746 107.565C126.816 107.755 126.871 107.965 126.911 108.195C126.961 108.415 127.006 108.635 127.046 108.855C127.086 109.065 127.106 109.25 127.106 109.41H127.166C127.186 109.24 127.211 109.05 127.241 108.84C127.281 108.62 127.331 108.4 127.391 108.18C127.451 107.96 127.506 107.755 127.556 107.565L129.026 102.87H131.111L128.186 111H126.131ZM135.391 102.72C136.091 102.72 136.691 102.87 137.191 103.17C137.701 103.46 138.096 103.88 138.376 104.43C138.656 104.97 138.796 105.63 138.796 106.41V107.37H133.816C133.836 108.11 134.016 108.685 134.356 109.095C134.706 109.495 135.196 109.695 135.826 109.695C136.326 109.695 136.771 109.645 137.161 109.545C137.551 109.435 137.956 109.28 138.376 109.08V110.595C137.996 110.785 137.601 110.925 137.191 111.015C136.781 111.105 136.276 111.15 135.676 111.15C134.916 111.15 134.241 111 133.651 110.7C133.071 110.39 132.616 109.925 132.286 109.305C131.956 108.685 131.791 107.915 131.791 106.995C131.791 106.065 131.941 105.285 132.241 104.655C132.541 104.015 132.961 103.535 133.501 103.215C134.051 102.885 134.681 102.72 135.391 102.72ZM135.421 104.115C134.971 104.115 134.606 104.28 134.326 104.61C134.056 104.93 133.896 105.41 133.846 106.05H136.906C136.906 105.67 136.851 105.335 136.741 105.045C136.631 104.755 136.466 104.53 136.246 104.37C136.036 104.2 135.761 104.115 135.421 104.115ZM143.697 102.72C144.397 102.72 144.997 102.87 145.497 103.17C146.007 103.46 146.402 103.88 146.682 104.43C146.962 104.97 147.102 105.63 147.102 106.41V107.37H142.122C142.142 108.11 142.322 108.685 142.662 109.095C143.012 109.495 143.502 109.695 144.132 109.695C144.632 109.695 145.077 109.645 145.467 109.545C145.857 109.435 146.262 109.28 146.682 109.08V110.595C146.302 110.785 145.907 110.925 145.497 111.015C145.087 111.105 144.582 111.15 143.982 111.15C143.222 111.15 142.547 111 141.957 110.7C141.377 110.39 140.922 109.925 140.592 109.305C140.262 108.685 140.097 107.915 140.097 106.995C140.097 106.065 140.247 105.285 140.547 104.655C140.847 104.015 141.267 103.535 141.807 103.215C142.357 102.885 142.987 102.72 143.697 102.72ZM143.727 104.115C143.277 104.115 142.912 104.28 142.632 104.61C142.362 104.93 142.202 105.41 142.152 106.05H145.212C145.212 105.67 145.157 105.335 145.047 105.045C144.937 104.755 144.772 104.53 144.552 104.37C144.342 104.2 144.067 104.115 143.727 104.115ZM153.083 102.72C153.933 102.72 154.603 102.955 155.093 103.425C155.583 103.895 155.828 104.655 155.828 105.705V111H153.833V106.08C153.833 105.47 153.728 105.015 153.518 104.715C153.308 104.405 152.978 104.25 152.528 104.25C151.858 104.25 151.403 104.49 151.163 104.97C150.923 105.44 150.803 106.125 150.803 107.025V111H148.808V102.87H150.338L150.623 103.935H150.698C150.878 103.655 151.088 103.425 151.328 103.245C151.568 103.065 151.838 102.935 152.138 102.855C152.438 102.765 152.753 102.72 153.083 102.72Z" fill="black"/>
<path d="M26.73 120.09C26.73 120.517 26.63 120.88 26.43 121.18C26.2367 121.473 25.96 121.7 25.6 121.86C25.2467 122.02 24.8233 122.1 24.33 122.1C24.0833 122.1 23.8433 122.087 23.61 122.06C23.3833 122.033 23.1733 121.997 22.98 121.95C22.7933 121.897 22.6267 121.833 22.48 121.76V120.9C22.7133 121.007 22.9967 121.103 23.33 121.19C23.67 121.277 24.0167 121.32 24.37 121.32C24.6967 121.32 24.9667 121.273 25.18 121.18C25.4 121.087 25.5633 120.953 25.67 120.78C25.7833 120.607 25.84 120.403 25.84 120.17C25.84 119.937 25.79 119.74 25.69 119.58C25.5967 119.42 25.4367 119.273 25.21 119.14C24.9833 119 24.6733 118.853 24.28 118.7C24 118.587 23.7533 118.467 23.54 118.34C23.3267 118.207 23.1467 118.057 23 117.89C22.8533 117.723 22.7433 117.533 22.67 117.32C22.5967 117.107 22.56 116.86 22.56 116.58C22.56 116.2 22.65 115.877 22.83 115.61C23.0167 115.337 23.27 115.127 23.59 114.98C23.9167 114.833 24.2933 114.76 24.72 114.76C25.0867 114.76 25.4233 114.797 25.73 114.87C26.0367 114.943 26.32 115.04 26.58 115.16L26.3 115.93C26.06 115.823 25.8033 115.733 25.53 115.66C25.2633 115.587 24.9867 115.55 24.7 115.55C24.4267 115.55 24.1967 115.593 24.01 115.68C23.83 115.767 23.6933 115.89 23.6 116.05C23.5067 116.203 23.46 116.383 23.46 116.59C23.46 116.83 23.5067 117.03 23.6 117.19C23.6933 117.35 23.8467 117.493 24.06 117.62C24.2733 117.747 24.5567 117.883 24.91 118.03C25.3033 118.183 25.6333 118.35 25.9 118.53C26.1733 118.703 26.38 118.913 26.52 119.16C26.66 119.407 26.73 119.717 26.73 120.09ZM29.916 116.54C30.3493 116.54 30.7227 116.64 31.036 116.84C31.3493 117.04 31.5893 117.323 31.756 117.69C31.9293 118.05 32.016 118.473 32.016 118.96V119.49H28.576C28.5893 120.097 28.7327 120.56 29.006 120.88C29.2793 121.193 29.6627 121.35 30.156 121.35C30.476 121.35 30.7593 121.32 31.006 121.26C31.2593 121.193 31.5193 121.1 31.786 120.98V121.75C31.526 121.87 31.2693 121.957 31.016 122.01C30.7693 122.07 30.4693 122.1 30.116 122.1C29.636 122.1 29.2127 121.997 28.846 121.79C28.4793 121.583 28.1927 121.277 27.986 120.87C27.7793 120.457 27.676 119.953 27.676 119.36C27.676 118.773 27.7693 118.27 27.956 117.85C28.1427 117.43 28.4027 117.107 28.736 116.88C29.076 116.653 29.4693 116.54 29.916 116.54ZM29.916 117.26C29.5293 117.26 29.2227 117.397 28.996 117.67C28.7693 117.937 28.636 118.31 28.596 118.79H31.116C31.116 118.483 31.0727 118.217 30.986 117.99C30.8993 117.763 30.766 117.587 30.586 117.46C30.4127 117.327 30.1893 117.26 29.916 117.26ZM35.7083 116.54C36.3283 116.54 36.8249 116.77 37.1983 117.23C37.5783 117.69 37.7683 118.383 37.7683 119.31C37.7683 119.917 37.6816 120.43 37.5083 120.85C37.3349 121.263 37.0916 121.577 36.7783 121.79C36.4716 121.997 36.1116 122.1 35.6983 122.1C35.4383 122.1 35.2083 122.063 35.0083 121.99C34.8149 121.917 34.6483 121.823 34.5083 121.71C34.3683 121.59 34.2483 121.46 34.1483 121.32H34.0883C34.1016 121.433 34.1149 121.577 34.1283 121.75C34.1416 121.923 34.1483 122.073 34.1483 122.2V124.4H33.2783V116.64H33.9883L34.1083 117.37H34.1483C34.2483 117.217 34.3683 117.077 34.5083 116.95C34.6483 116.823 34.8149 116.723 35.0083 116.65C35.2083 116.577 35.4416 116.54 35.7083 116.54ZM35.5383 117.28C35.2049 117.28 34.9349 117.35 34.7283 117.49C34.5283 117.623 34.3816 117.827 34.2883 118.1C34.1949 118.373 34.1483 118.72 34.1483 119.14V119.31C34.1483 119.75 34.1883 120.123 34.2683 120.43C34.3549 120.737 34.5016 120.97 34.7083 121.13C34.9149 121.29 35.1983 121.37 35.5583 121.37C35.8583 121.37 36.1049 121.28 36.2983 121.1C36.4916 120.92 36.6349 120.677 36.7283 120.37C36.8216 120.057 36.8683 119.7 36.8683 119.3C36.8683 118.687 36.7583 118.197 36.5383 117.83C36.3249 117.463 35.9916 117.28 35.5383 117.28ZM38.9493 121.46C38.9493 121.213 39.006 121.04 39.1193 120.94C39.2326 120.84 39.3726 120.79 39.5393 120.79C39.706 120.79 39.8493 120.84 39.9693 120.94C40.0893 121.04 40.1493 121.213 40.1493 121.46C40.1493 121.7 40.0893 121.873 39.9693 121.98C39.8493 122.087 39.706 122.14 39.5393 122.14C39.3726 122.14 39.2326 122.087 39.1193 121.98C39.006 121.873 38.9493 121.7 38.9493 121.46ZM48.1698 122H43.7098V121.27L45.4598 119.38C45.7931 119.02 46.0731 118.7 46.2998 118.42C46.5331 118.14 46.7098 117.867 46.8298 117.6C46.9498 117.327 47.0098 117.03 47.0098 116.71C47.0098 116.317 46.9031 116.02 46.6898 115.82C46.4764 115.613 46.1964 115.51 45.8498 115.51C45.5298 115.51 45.2464 115.57 44.9998 115.69C44.7531 115.81 44.5031 115.977 44.2498 116.19L43.7798 115.6C43.9598 115.44 44.1531 115.297 44.3598 115.17C44.5664 115.043 44.7931 114.943 45.0398 114.87C45.2931 114.797 45.5664 114.76 45.8598 114.76C46.2798 114.76 46.6398 114.837 46.9398 114.99C47.2464 115.143 47.4831 115.363 47.6498 115.65C47.8164 115.93 47.8998 116.267 47.8998 116.66C47.8998 116.94 47.8564 117.207 47.7698 117.46C47.6898 117.707 47.5731 117.95 47.4198 118.19C47.2664 118.43 47.0831 118.673 46.8698 118.92C46.6631 119.167 46.4298 119.427 46.1698 119.7L44.7998 121.16L44.8098 121.2H48.1698V122ZM53.5509 118.42C53.5509 119 53.5075 119.517 53.4209 119.97C53.3409 120.423 53.2109 120.81 53.0309 121.13C52.8575 121.443 52.6275 121.683 52.3409 121.85C52.0542 122.017 51.7109 122.1 51.3109 122.1C50.8042 122.1 50.3842 121.953 50.0509 121.66C49.7242 121.367 49.4809 120.947 49.3209 120.4C49.1609 119.847 49.0809 119.187 49.0809 118.42C49.0809 117.647 49.1542 116.987 49.3009 116.44C49.4475 115.893 49.6842 115.477 50.0109 115.19C50.3375 114.897 50.7709 114.75 51.3109 114.75C51.8175 114.75 52.2342 114.897 52.5609 115.19C52.8942 115.477 53.1409 115.893 53.3009 116.44C53.4675 116.987 53.5509 117.647 53.5509 118.42ZM49.9509 118.42C49.9509 119.073 49.9942 119.617 50.0809 120.05C50.1742 120.483 50.3209 120.81 50.5209 121.03C50.7209 121.243 50.9842 121.35 51.3109 121.35C51.6375 121.35 51.9009 121.243 52.1009 121.03C52.3009 120.817 52.4442 120.493 52.5309 120.06C52.6242 119.62 52.6709 119.073 52.6709 118.42C52.6709 117.767 52.6242 117.227 52.5309 116.8C52.4442 116.367 52.3009 116.043 52.1009 115.83C51.9009 115.61 51.6375 115.5 51.3109 115.5C50.9842 115.5 50.7209 115.61 50.5209 115.83C50.3209 116.043 50.1742 116.367 50.0809 116.8C49.9942 117.227 49.9509 117.767 49.9509 118.42ZM57.372 122H56.522V117.01C56.522 116.817 56.522 116.653 56.522 116.52C56.5286 116.387 56.5353 116.263 56.542 116.15C56.5486 116.03 56.5553 115.907 56.562 115.78C56.4686 115.887 56.3786 115.98 56.292 116.06C56.2053 116.133 56.102 116.223 55.982 116.33L55.272 116.95L54.812 116.36L56.652 114.86H57.372V122ZM64.273 117.91C64.273 118.317 64.2464 118.723 64.193 119.13C64.1397 119.53 64.0464 119.91 63.913 120.27C63.7864 120.623 63.6064 120.94 63.373 121.22C63.1397 121.493 62.843 121.71 62.483 121.87C62.123 122.023 61.6864 122.1 61.173 122.1C61.0464 122.1 60.8997 122.09 60.733 122.07C60.5664 122.057 60.4297 122.033 60.323 122V121.25C60.4364 121.29 60.5664 121.323 60.713 121.35C60.8664 121.37 61.0097 121.38 61.143 121.38C61.583 121.38 61.943 121.303 62.223 121.15C62.5097 120.997 62.7364 120.79 62.903 120.53C63.0697 120.263 63.1897 119.957 63.263 119.61C63.343 119.257 63.3897 118.887 63.403 118.5H63.343C63.2497 118.653 63.1297 118.793 62.983 118.92C62.843 119.047 62.6697 119.147 62.463 119.22C62.263 119.293 62.0264 119.33 61.753 119.33C61.373 119.33 61.0364 119.247 60.743 119.08C60.4564 118.907 60.233 118.66 60.073 118.34C59.913 118.02 59.833 117.63 59.833 117.17C59.833 116.67 59.9197 116.24 60.093 115.88C60.273 115.52 60.523 115.243 60.843 115.05C61.1697 114.857 61.5497 114.76 61.983 114.76C62.303 114.76 62.603 114.827 62.883 114.96C63.163 115.087 63.4064 115.28 63.613 115.54C63.8197 115.8 63.9797 116.127 64.093 116.52C64.213 116.913 64.273 117.377 64.273 117.91ZM61.993 115.5C61.6064 115.5 61.293 115.637 61.053 115.91C60.813 116.183 60.693 116.6 60.693 117.16C60.693 117.613 60.7964 117.973 61.003 118.24C61.2097 118.5 61.5264 118.63 61.953 118.63C62.2464 118.63 62.4997 118.567 62.713 118.44C62.933 118.313 63.0997 118.15 63.213 117.95C63.333 117.75 63.393 117.543 63.393 117.33C63.393 117.117 63.363 116.903 63.303 116.69C63.243 116.47 63.153 116.27 63.033 116.09C62.9197 115.91 62.7764 115.767 62.603 115.66C62.4297 115.553 62.2264 115.5 61.993 115.5ZM67.5555 119.71V118.93H69.8455V119.71H67.5555ZM72.6343 123.9C72.481 123.9 72.3476 123.887 72.2343 123.86C72.1143 123.84 72.011 123.81 71.9243 123.77V123.01C72.0243 123.037 72.131 123.06 72.2443 123.08C72.3576 123.1 72.4776 123.11 72.6043 123.11C72.7643 123.11 72.911 123.077 73.0443 123.01C73.1843 122.943 73.2976 122.827 73.3843 122.66C73.471 122.493 73.5143 122.26 73.5143 121.96V114.86H74.4043V121.89C74.4043 122.35 74.331 122.727 74.1843 123.02C74.0376 123.32 73.831 123.54 73.5643 123.68C73.3043 123.827 72.9943 123.9 72.6343 123.9ZM80.292 116.64V122H79.592L79.462 121.29H79.422C79.3153 121.477 79.1753 121.63 79.002 121.75C78.8353 121.87 78.652 121.957 78.452 122.01C78.252 122.07 78.042 122.1 77.822 122.1C77.422 122.1 77.0853 122.033 76.812 121.9C76.5386 121.76 76.332 121.547 76.192 121.26C76.0586 120.973 75.992 120.603 75.992 120.15V116.64H76.872V120.09C76.872 120.517 76.962 120.837 77.142 121.05C77.322 121.263 77.5986 121.37 77.972 121.37C78.3386 121.37 78.6253 121.297 78.832 121.15C79.0453 120.997 79.1953 120.777 79.282 120.49C79.3753 120.197 79.422 119.843 79.422 119.43V116.64H80.292ZM82.742 122H81.872V114.4H82.742V122ZM84.2032 121.46C84.2032 121.213 84.2599 121.04 84.3732 120.94C84.4865 120.84 84.6265 120.79 84.7932 120.79C84.9599 120.79 85.1032 120.84 85.2232 120.94C85.3432 121.04 85.4032 121.213 85.4032 121.46C85.4032 121.7 85.3432 121.873 85.2232 121.98C85.1032 122.087 84.9599 122.14 84.7932 122.14C84.6265 122.14 84.4865 122.087 84.3732 121.98C84.2599 121.873 84.2032 121.7 84.2032 121.46ZM93.4237 122H88.9637V121.27L90.7137 119.38C91.047 119.02 91.327 118.7 91.5537 118.42C91.787 118.14 91.9637 117.867 92.0837 117.6C92.2037 117.327 92.2637 117.03 92.2637 116.71C92.2637 116.317 92.157 116.02 91.9437 115.82C91.7303 115.613 91.4503 115.51 91.1037 115.51C90.7837 115.51 90.5003 115.57 90.2537 115.69C90.007 115.81 89.757 115.977 89.5037 116.19L89.0337 115.6C89.2137 115.44 89.407 115.297 89.6137 115.17C89.8203 115.043 90.047 114.943 90.2937 114.87C90.547 114.797 90.8203 114.76 91.1137 114.76C91.5337 114.76 91.8937 114.837 92.1937 114.99C92.5003 115.143 92.737 115.363 92.9037 115.65C93.0703 115.93 93.1537 116.267 93.1537 116.66C93.1537 116.94 93.1103 117.207 93.0237 117.46C92.9437 117.707 92.827 117.95 92.6737 118.19C92.5203 118.43 92.337 118.673 92.1237 118.92C91.917 119.167 91.6837 119.427 91.4237 119.7L90.0537 121.16L90.0637 121.2H93.4237V122ZM98.8048 118.42C98.8048 119 98.7614 119.517 98.6748 119.97C98.5948 120.423 98.4648 120.81 98.2848 121.13C98.1114 121.443 97.8814 121.683 97.5948 121.85C97.3081 122.017 96.9648 122.1 96.5648 122.1C96.0581 122.1 95.6381 121.953 95.3048 121.66C94.9781 121.367 94.7348 120.947 94.5748 120.4C94.4148 119.847 94.3348 119.187 94.3348 118.42C94.3348 117.647 94.4081 116.987 94.5548 116.44C94.7014 115.893 94.9381 115.477 95.2648 115.19C95.5914 114.897 96.0248 114.75 96.5648 114.75C97.0714 114.75 97.4881 114.897 97.8148 115.19C98.1481 115.477 98.3948 115.893 98.5548 116.44C98.7214 116.987 98.8048 117.647 98.8048 118.42ZM95.2048 118.42C95.2048 119.073 95.2481 119.617 95.3348 120.05C95.4281 120.483 95.5748 120.81 95.7748 121.03C95.9748 121.243 96.2381 121.35 96.5648 121.35C96.8914 121.35 97.1548 121.243 97.3548 121.03C97.5548 120.817 97.6981 120.493 97.7848 120.06C97.8781 119.62 97.9248 119.073 97.9248 118.42C97.9248 117.767 97.8781 117.227 97.7848 116.8C97.6981 116.367 97.5548 116.043 97.3548 115.83C97.1548 115.61 96.8914 115.5 96.5648 115.5C96.2381 115.5 95.9748 115.61 95.7748 115.83C95.5748 116.043 95.4281 116.367 95.3348 116.8C95.2481 117.227 95.2048 117.767 95.2048 118.42ZM104.166 122H99.7059V121.27L101.456 119.38C101.789 119.02 102.069 118.7 102.296 118.42C102.529 118.14 102.706 117.867 102.826 117.6C102.946 117.327 103.006 117.03 103.006 116.71C103.006 116.317 102.899 116.02 102.686 115.82C102.473 115.613 102.193 115.51 101.846 115.51C101.526 115.51 101.243 115.57 100.996 115.69C100.749 115.81 100.499 115.977 100.246 116.19L99.7759 115.6C99.9559 115.44 100.149 115.297 100.356 115.17C100.563 115.043 100.789 114.943 101.036 114.87C101.289 114.797 101.563 114.76 101.856 114.76C102.276 114.76 102.636 114.837 102.936 114.99C103.243 115.143 103.479 115.363 103.646 115.65C103.813 115.93 103.896 116.267 103.896 116.66C103.896 116.94 103.853 117.207 103.766 117.46C103.686 117.707 103.569 117.95 103.416 118.19C103.263 118.43 103.079 118.673 102.866 118.92C102.659 119.167 102.426 119.427 102.166 119.7L100.796 121.16L100.806 121.2H104.166V122ZM107.997 122H107.147V117.01C107.147 116.817 107.147 116.653 107.147 116.52C107.154 116.387 107.16 116.263 107.167 116.15C107.174 116.03 107.18 115.907 107.187 115.78C107.094 115.887 107.004 115.98 106.917 116.06C106.83 116.133 106.727 116.223 106.607 116.33L105.897 116.95L105.437 116.36L107.277 114.86H107.997V122Z" fill="black"/>
<path d="M9 51L9 109" stroke="#FFECA0" stroke-width="2" stroke-linecap="round"/>
<circle cx="9" cy="69" r="5" fill="#FFECA0"/>
<circle cx="9" cy="106" r="5" fill="#FFECA0"/>
</svg>
