<svg width="56" height="56" viewBox="0 0 56 56" fill="none" xmlns="http://www.w3.org/2000/svg">
<path d="M28 3C14.1929 3 3 14.1929 3 28C3 41.807 14.1929 53 28 53C41.807 53 53 41.807 53 28C53 14.1929 41.807 3 28 3Z" stroke="black" stroke-width="5.2989" stroke-linecap="round" stroke-linejoin="round"/>
<path d="M18 50.9198V33L28 15.5L38 33V50.9198" stroke="black" stroke-width="5.2989" stroke-linecap="round" stroke-linejoin="round"/>
<path d="M18 33C18 33 20.8169 35.5 23 35.5C25.183 35.5 28 33 28 33C28 33 30.817 35.5 33 35.5C35.183 35.5 38 33 38 33" stroke="black" stroke-width="5.2989" stroke-linecap="round" stroke-linejoin="round"/>
</svg>
