<svg width="23" height="23" viewBox="0 0 23 23" fill="none" xmlns="http://www.w3.org/2000/svg">
<path d="M11.2067 15.743C13.712 15.743 15.743 13.712 15.743 11.2067C15.743 8.70137 13.712 6.67041 11.2067 6.67041C8.70137 6.67041 6.67041 8.70137 6.67041 11.2067C6.67041 13.712 8.70137 15.743 11.2067 15.743Z" stroke="#FFECA0" stroke-width="2" stroke-linecap="round" stroke-linejoin="round"/>
<path d="M1 15.7429V6.67034C1 3.5387 3.5387 1 6.67034 1H15.7429C18.8745 1 21.4132 3.5387 21.4132 6.67034V15.7429C21.4132 18.8745 18.8745 21.4132 15.7429 21.4132H6.67034C3.5387 21.4132 1 18.8745 1 15.7429Z" stroke="#FFECA0" stroke-width="2"/>
<path d="M17.4438 4.98037L17.4552 4.96777" stroke="#FFECA0" stroke-width="2" stroke-linecap="round" stroke-linejoin="round"/>
</svg>
