<svg width="211" height="125" viewBox="0 0 211 125" fill="none" xmlns="http://www.w3.org/2000/svg">
<mask id="path-1-outside-1_63_45" maskUnits="userSpaceOnUse" x="-1" y="8" width="185" height="41" fill="black">
<rect fill="white" x="-1" y="8" width="185" height="41"/>
<path d="M10.224 38H1.332V36.128L4.176 35.444V14.888L1.332 14.168V12.296H10.224V14.168L7.38 14.888V35.444L10.224 36.128V38ZM23.3016 18.344C25.4616 18.344 27.0936 18.908 28.1976 20.036C29.3256 21.14 29.8896 22.94 29.8896 25.436V38H26.7576V25.652C26.7576 24.092 26.4336 22.928 25.7856 22.16C25.1376 21.392 24.1416 21.008 22.7976 21.008C20.8296 21.008 19.4616 21.608 18.6936 22.808C17.9496 24.008 17.5776 25.736 17.5776 27.992V38H14.4456V18.704H16.9656L17.4336 21.332H17.6136C17.9976 20.66 18.4896 20.108 19.0896 19.676C19.6896 19.22 20.3496 18.884 21.0696 18.668C21.7896 18.452 22.5336 18.344 23.3016 18.344ZM41.697 35.768C42.153 35.768 42.621 35.732 43.101 35.66C43.581 35.564 43.977 35.468 44.289 35.372V37.784C43.953 37.952 43.473 38.084 42.849 38.18C42.249 38.3 41.673 38.36 41.121 38.36C40.161 38.36 39.273 38.192 38.457 37.856C37.641 37.496 36.981 36.884 36.477 36.02C35.997 35.156 35.757 33.944 35.757 32.384V21.152H33.201V19.64L35.829 18.38L37.017 14.276H38.889V18.704H44.145V21.152H38.889V32.312C38.889 33.488 39.153 34.364 39.681 34.94C40.209 35.492 40.881 35.768 41.697 35.768ZM54.9352 18.344C56.4952 18.344 57.8392 18.704 58.9672 19.424C60.0952 20.144 60.9592 21.164 61.5592 22.484C62.1832 23.78 62.4952 25.304 62.4952 27.056V28.964H50.1112C50.1592 31.148 50.6752 32.816 51.6592 33.968C52.6432 35.096 54.0232 35.66 55.7992 35.66C56.9512 35.66 57.9712 35.552 58.8592 35.336C59.7712 35.096 60.7072 34.76 61.6672 34.328V37.1C60.7312 37.532 59.8072 37.844 58.8952 38.036C58.0072 38.252 56.9272 38.36 55.6552 38.36C53.9272 38.36 52.4032 37.988 51.0832 37.244C49.7632 36.5 48.7312 35.396 47.9872 33.932C47.2432 32.444 46.8712 30.632 46.8712 28.496C46.8712 26.384 47.2072 24.572 47.8792 23.06C48.5512 21.548 49.4872 20.384 50.6872 19.568C51.9112 18.752 53.3272 18.344 54.9352 18.344ZM54.9352 20.936C53.5432 20.936 52.4392 21.428 51.6232 22.412C50.8072 23.372 50.3272 24.716 50.1832 26.444H59.2552C59.2552 25.34 59.0992 24.38 58.7872 23.564C58.4752 22.748 57.9952 22.112 57.3472 21.656C56.7232 21.176 55.9192 20.936 54.9352 20.936ZM75.6433 18.344C75.9793 18.344 76.3393 18.368 76.7233 18.416C77.1073 18.44 77.4433 18.488 77.7313 18.56L77.3713 21.476C77.0833 21.404 76.7593 21.344 76.3993 21.296C76.0633 21.248 75.7393 21.224 75.4273 21.224C74.7313 21.224 74.0713 21.38 73.4473 21.692C72.8233 22.004 72.2593 22.448 71.7553 23.024C71.2753 23.576 70.8913 24.248 70.6033 25.04C70.3153 25.832 70.1713 26.72 70.1713 27.704V38H67.0393V18.704H69.5953L69.9553 22.232H70.0993C70.4833 21.512 70.9393 20.864 71.4673 20.288C72.0193 19.688 72.6433 19.22 73.3393 18.884C74.0353 18.524 74.8033 18.344 75.6433 18.344ZM89.9578 18.344C92.1178 18.344 93.7498 18.908 94.8538 20.036C95.9818 21.14 96.5458 22.94 96.5458 25.436V38H93.4138V25.652C93.4138 24.092 93.0898 22.928 92.4418 22.16C91.7938 21.392 90.7978 21.008 89.4538 21.008C87.4858 21.008 86.1178 21.608 85.3498 22.808C84.6058 24.008 84.2338 25.736 84.2338 27.992V38H81.1018V18.704H83.6218L84.0898 21.332H84.2698C84.6538 20.66 85.1458 20.108 85.7458 19.676C86.3458 19.22 87.0058 18.884 87.7258 18.668C88.4458 18.452 89.1898 18.344 89.9578 18.344ZM114.041 32.672C114.041 33.92 113.741 34.964 113.141 35.804C112.565 36.644 111.737 37.28 110.657 37.712C109.577 38.144 108.281 38.36 106.769 38.36C105.497 38.36 104.393 38.252 103.457 38.036C102.545 37.82 101.741 37.52 101.045 37.136V34.256C101.789 34.64 102.677 35 103.709 35.336C104.741 35.648 105.785 35.804 106.841 35.804C108.305 35.804 109.361 35.552 110.009 35.048C110.681 34.52 111.017 33.824 111.017 32.96C111.017 32.48 110.885 32.048 110.621 31.664C110.381 31.28 109.937 30.896 109.289 30.512C108.665 30.128 107.753 29.696 106.553 29.216C105.401 28.736 104.405 28.256 103.565 27.776C102.749 27.296 102.113 26.72 101.657 26.048C101.225 25.376 101.009 24.512 101.009 23.456C101.009 21.824 101.633 20.564 102.881 19.676C104.153 18.788 105.809 18.344 107.849 18.344C108.953 18.344 109.985 18.464 110.945 18.704C111.905 18.92 112.817 19.232 113.681 19.64L112.637 22.16C112.133 21.92 111.605 21.716 111.053 21.548C110.501 21.356 109.937 21.212 109.361 21.116C108.809 20.996 108.245 20.936 107.669 20.936C106.493 20.936 105.593 21.152 104.969 21.584C104.345 21.992 104.033 22.556 104.033 23.276C104.033 23.804 104.177 24.26 104.465 24.644C104.753 25.028 105.221 25.4 105.869 25.76C106.541 26.096 107.453 26.492 108.605 26.948C109.757 27.404 110.741 27.872 111.557 28.352C112.373 28.832 112.985 29.42 113.393 30.116C113.825 30.788 114.041 31.64 114.041 32.672ZM121.535 18.668C121.535 19.124 121.511 19.592 121.463 20.072C121.439 20.552 121.403 20.984 121.355 21.368H121.571C121.955 20.696 122.435 20.144 123.011 19.712C123.611 19.28 124.259 18.956 124.955 18.74C125.675 18.5 126.419 18.38 127.187 18.38C128.651 18.38 129.875 18.632 130.859 19.136C131.843 19.616 132.587 20.372 133.091 21.404C133.595 22.436 133.847 23.78 133.847 25.436V38H130.715V25.652C130.715 24.092 130.391 22.928 129.743 22.16C129.095 21.392 128.099 21.008 126.755 21.008C125.435 21.008 124.391 21.284 123.623 21.836C122.855 22.364 122.315 23.156 122.003 24.212C121.691 25.244 121.535 26.516 121.535 28.028V38H118.403V10.64H121.535V18.668ZM142.594 18.704V38H139.462V18.704H142.594ZM141.046 11.468C141.526 11.468 141.946 11.636 142.306 11.972C142.666 12.284 142.846 12.788 142.846 13.484C142.846 14.156 142.666 14.66 142.306 14.996C141.946 15.332 141.526 15.5 141.046 15.5C140.542 15.5 140.11 15.332 139.75 14.996C139.39 14.66 139.21 14.156 139.21 13.484C139.21 12.788 139.39 12.284 139.75 11.972C140.11 11.636 140.542 11.468 141.046 11.468ZM157.033 18.344C159.265 18.344 161.053 19.172 162.397 20.828C163.765 22.484 164.449 24.98 164.449 28.316C164.449 30.5 164.137 32.348 163.513 33.86C162.889 35.348 162.013 36.476 160.885 37.244C159.781 37.988 158.485 38.36 156.997 38.36C156.061 38.36 155.233 38.228 154.513 37.964C153.817 37.7 153.217 37.364 152.713 36.956C152.209 36.524 151.777 36.056 151.417 35.552H151.201C151.249 35.96 151.297 36.476 151.345 37.1C151.393 37.724 151.417 38.264 151.417 38.72V46.64H148.285V18.704H150.841L151.273 21.332H151.417C151.777 20.78 152.209 20.276 152.713 19.82C153.217 19.364 153.817 19.004 154.513 18.74C155.233 18.476 156.073 18.344 157.033 18.344ZM156.421 21.008C155.221 21.008 154.249 21.26 153.505 21.764C152.785 22.244 152.257 22.976 151.921 23.96C151.585 24.944 151.417 26.192 151.417 27.704V28.316C151.417 29.9 151.561 31.244 151.849 32.348C152.161 33.452 152.689 34.292 153.433 34.868C154.177 35.444 155.197 35.732 156.493 35.732C157.573 35.732 158.461 35.408 159.157 34.76C159.853 34.112 160.369 33.236 160.705 32.132C161.041 31.004 161.209 29.72 161.209 28.28C161.209 26.072 160.813 24.308 160.021 22.988C159.253 21.668 158.053 21.008 156.421 21.008ZM181.049 32.672C181.049 33.92 180.749 34.964 180.149 35.804C179.573 36.644 178.745 37.28 177.665 37.712C176.585 38.144 175.289 38.36 173.777 38.36C172.505 38.36 171.401 38.252 170.465 38.036C169.553 37.82 168.749 37.52 168.053 37.136V34.256C168.797 34.64 169.685 35 170.717 35.336C171.749 35.648 172.793 35.804 173.849 35.804C175.313 35.804 176.369 35.552 177.017 35.048C177.689 34.52 178.025 33.824 178.025 32.96C178.025 32.48 177.893 32.048 177.629 31.664C177.389 31.28 176.945 30.896 176.297 30.512C175.673 30.128 174.761 29.696 173.561 29.216C172.409 28.736 171.413 28.256 170.573 27.776C169.757 27.296 169.121 26.72 168.665 26.048C168.233 25.376 168.017 24.512 168.017 23.456C168.017 21.824 168.641 20.564 169.889 19.676C171.161 18.788 172.817 18.344 174.857 18.344C175.961 18.344 176.993 18.464 177.953 18.704C178.913 18.92 179.825 19.232 180.689 19.64L179.645 22.16C179.141 21.92 178.613 21.716 178.061 21.548C177.509 21.356 176.945 21.212 176.369 21.116C175.817 20.996 175.253 20.936 174.677 20.936C173.501 20.936 172.601 21.152 171.977 21.584C171.353 21.992 171.041 22.556 171.041 23.276C171.041 23.804 171.185 24.26 171.473 24.644C171.761 25.028 172.229 25.4 172.877 25.76C173.549 26.096 174.461 26.492 175.613 26.948C176.765 27.404 177.749 27.872 178.565 28.352C179.381 28.832 179.993 29.42 180.401 30.116C180.833 30.788 181.049 31.64 181.049 32.672Z"/>
</mask>
<path d="M10.224 38V40H12.224V38H10.224ZM1.332 38H-0.668V40H1.332V38ZM1.332 36.128L0.864323 34.1834L-0.668 34.552V36.128H1.332ZM4.176 35.444L4.64368 37.3885L6.176 37.02V35.444H4.176ZM4.176 14.888H6.176V13.3312L4.66684 12.9492L4.176 14.888ZM1.332 14.168H-0.668V15.7248L0.841155 16.1068L1.332 14.168ZM1.332 12.296V10.296H-0.668V12.296H1.332ZM10.224 12.296H12.224V10.296H10.224V12.296ZM10.224 14.168L10.7148 16.1068L12.224 15.7248V14.168H10.224ZM7.38 14.888L6.88916 12.9492L5.38 13.3312V14.888H7.38ZM7.38 35.444H5.38V37.02L6.91232 37.3885L7.38 35.444ZM10.224 36.128H12.224V34.552L10.6917 34.1834L10.224 36.128ZM10.224 36H1.332V40H10.224V36ZM3.332 38V36.128H-0.668V38H3.332ZM1.79968 38.0726L4.64368 37.3885L3.70832 33.4995L0.864323 34.1834L1.79968 38.0726ZM6.176 35.444V14.888H2.176V35.444H6.176ZM4.66684 12.9492L1.82284 12.2292L0.841155 16.1068L3.68516 16.8268L4.66684 12.9492ZM3.332 14.168V12.296H-0.668V14.168H3.332ZM1.332 14.296H10.224V10.296H1.332V14.296ZM8.224 12.296V14.168H12.224V12.296H8.224ZM9.73316 12.2292L6.88916 12.9492L7.87085 16.8268L10.7148 16.1068L9.73316 12.2292ZM5.38 14.888V35.444H9.38V14.888H5.38ZM6.91232 37.3885L9.75632 38.0726L10.6917 34.1834L7.84768 33.4995L6.91232 37.3885ZM8.224 36.128V38H12.224V36.128H8.224ZM28.1976 20.036L26.7682 21.4349L26.7833 21.4503L26.7986 21.4653L28.1976 20.036ZM29.8896 38V40H31.8896V38H29.8896ZM26.7576 38H24.7576V40H26.7576V38ZM18.6936 22.808L17.009 21.7299L17.0013 21.742L16.9938 21.7541L18.6936 22.808ZM17.5776 38V40H19.5776V38H17.5776ZM14.4456 38H12.4456V40H14.4456V38ZM14.4456 18.704V16.704H12.4456V18.704H14.4456ZM16.9656 18.704L18.9346 18.3534L18.6409 16.704H16.9656V18.704ZM17.4336 21.332L15.4645 21.6826L15.7583 23.332H17.4336V21.332ZM17.6136 21.332V23.332H18.7742L19.35 22.3243L17.6136 21.332ZM19.0896 19.676L20.2582 21.2991L20.2791 21.284L20.2997 21.2683L19.0896 19.676ZM23.3016 20.344C25.1272 20.344 26.1623 20.8158 26.7682 21.4349L29.6269 18.6371C28.0248 17.0002 25.7959 16.344 23.3016 16.344V20.344ZM26.7986 21.4653C27.3692 22.0237 27.8896 23.1745 27.8896 25.436H31.8896C31.8896 22.7055 31.2819 20.2563 29.5965 18.6067L26.7986 21.4653ZM27.8896 25.436V38H31.8896V25.436H27.8896ZM29.8896 36H26.7576V40H29.8896V36ZM28.7576 38V25.652H24.7576V38H28.7576ZM28.7576 25.652C28.7576 23.868 28.3954 22.1517 27.3141 20.8703L24.257 23.4497C24.4718 23.7043 24.7576 24.316 24.7576 25.652H28.7576ZM27.3141 20.8703C26.1684 19.5123 24.5198 19.008 22.7976 19.008V23.008C23.7633 23.008 24.1068 23.2717 24.257 23.4497L27.3141 20.8703ZM22.7976 19.008C20.4342 19.008 18.2763 19.7498 17.009 21.7299L20.3781 23.8861C20.6469 23.4662 21.2249 23.008 22.7976 23.008V19.008ZM16.9938 21.7541C15.9689 23.407 15.5776 25.5658 15.5776 27.992H19.5776C19.5776 25.9062 19.9302 24.609 20.3934 23.8619L16.9938 21.7541ZM15.5776 27.992V38H19.5776V27.992H15.5776ZM17.5776 36H14.4456V40H17.5776V36ZM16.4456 38V18.704H12.4456V38H16.4456ZM14.4456 20.704H16.9656V16.704H14.4456V20.704ZM14.9965 19.0546L15.4645 21.6826L19.4026 20.9814L18.9346 18.3534L14.9965 19.0546ZM17.4336 23.332H17.6136V19.332H17.4336V23.332ZM19.35 22.3243C19.5989 21.8888 19.9013 21.556 20.2582 21.2991L17.921 18.0529C17.0778 18.66 16.3963 19.4312 15.8771 20.3397L19.35 22.3243ZM20.2997 21.2683C20.7095 20.9569 21.1543 20.7306 21.6443 20.5837L20.4949 16.7523C19.5448 17.0374 18.6696 17.4831 17.8794 18.0837L20.2997 21.2683ZM21.6443 20.5837C22.1738 20.4248 22.7239 20.344 23.3016 20.344V16.344C22.3432 16.344 21.4053 16.4792 20.4949 16.7523L21.6443 20.5837ZM43.101 35.66L43.3977 37.6379L43.4457 37.6307L43.4932 37.6212L43.101 35.66ZM44.289 35.372H46.289V32.6641L43.7008 33.4604L44.289 35.372ZM44.289 37.784L45.1834 39.5729L46.289 39.0201V37.784H44.289ZM42.849 38.18L42.5449 36.2033L42.5007 36.2101L42.4568 36.2188L42.849 38.18ZM38.457 37.856L37.6497 39.6858L37.6725 39.6959L37.6955 39.7054L38.457 37.856ZM36.477 36.02L34.7287 36.9913L34.7389 37.0096L34.7494 37.0277L36.477 36.02ZM35.757 21.152H37.757V19.152H35.757V21.152ZM33.201 21.152H31.201V23.152H33.201V21.152ZM33.201 19.64L32.3363 17.8366L31.201 18.3809V19.64H33.201ZM35.829 18.38L36.6937 20.1834L37.5011 19.7963L37.7501 18.9361L35.829 18.38ZM37.017 14.276V12.276H35.5138L35.0959 13.7199L37.017 14.276ZM38.889 14.276H40.889V12.276H38.889V14.276ZM38.889 18.704H36.889V20.704H38.889V18.704ZM44.145 18.704H46.145V16.704H44.145V18.704ZM44.145 21.152V23.152H46.145V21.152H44.145ZM38.889 21.152V19.152H36.889V21.152H38.889ZM39.681 34.94L38.2067 36.2915L38.221 36.3071L38.2357 36.3224L39.681 34.94ZM41.697 37.768C42.2584 37.768 42.8257 37.7237 43.3977 37.6379L42.8043 33.6821C42.4163 33.7403 42.0476 33.768 41.697 33.768V37.768ZM43.4932 37.6212C44.0102 37.5178 44.4775 37.4065 44.8772 37.2836L43.7008 33.4604C43.4765 33.5295 43.1518 33.6102 42.7088 33.6988L43.4932 37.6212ZM42.289 35.372V37.784H46.289V35.372H42.289ZM43.3946 35.9951C43.3282 36.0283 43.0831 36.1205 42.5449 36.2033L43.1531 40.1567C43.8629 40.0476 44.5778 39.8757 45.1834 39.5729L43.3946 35.9951ZM42.4568 36.2188C41.9722 36.3158 41.528 36.36 41.121 36.36V40.36C41.818 40.36 42.5258 40.2842 43.2412 40.1412L42.4568 36.2188ZM41.121 36.36C40.3991 36.36 39.7725 36.2347 39.2185 36.0066L37.6955 39.7054C38.7735 40.1493 39.9229 40.36 41.121 40.36V36.36ZM39.2643 36.0262C38.8803 35.8568 38.5231 35.5583 38.2046 35.0123L34.7494 37.0277C35.4389 38.2097 36.4017 39.1352 37.6497 39.6858L39.2643 36.0262ZM38.2253 35.0487C37.9793 34.6059 37.757 33.7819 37.757 32.384H33.757C33.757 34.1061 34.0147 35.7061 34.7287 36.9913L38.2253 35.0487ZM37.757 32.384V21.152H33.757V32.384H37.757ZM35.757 19.152H33.201V23.152H35.757V19.152ZM35.201 21.152V19.64H31.201V21.152H35.201ZM34.0657 21.4434L36.6937 20.1834L34.9643 16.5766L32.3363 17.8366L34.0657 21.4434ZM37.7501 18.9361L38.9381 14.8321L35.0959 13.7199L33.9079 17.8239L37.7501 18.9361ZM37.017 16.276H38.889V12.276H37.017V16.276ZM36.889 14.276V18.704H40.889V14.276H36.889ZM38.889 20.704H44.145V16.704H38.889V20.704ZM42.145 18.704V21.152H46.145V18.704H42.145ZM44.145 19.152H38.889V23.152H44.145V19.152ZM36.889 21.152V32.312H40.889V21.152H36.889ZM36.889 32.312C36.889 33.7422 37.2046 35.1983 38.2067 36.2915L41.1553 33.5886C41.1014 33.5297 40.889 33.2338 40.889 32.312H36.889ZM38.2357 36.3224C39.1688 37.298 40.3767 37.768 41.697 37.768V33.768C41.3853 33.768 41.2492 33.686 41.1263 33.5576L38.2357 36.3224ZM58.9672 19.424L60.0432 17.7382V17.7382L58.9672 19.424ZM61.5592 22.484L59.7384 23.3116L59.7476 23.3317L59.7572 23.3516L61.5592 22.484ZM62.4952 28.964V30.964H64.4952V28.964H62.4952ZM50.1112 28.964V26.964H48.0667L48.1116 29.0079L50.1112 28.964ZM51.6592 33.968L50.1384 35.267L50.1452 35.2749L50.152 35.2827L51.6592 33.968ZM58.8592 35.336L59.3319 37.2793L59.35 37.2749L59.3681 37.2701L58.8592 35.336ZM61.6672 34.328H63.6672V31.2348L60.8464 32.5042L61.6672 34.328ZM61.6672 37.1L62.5053 38.9159L63.6672 38.3797V37.1H61.6672ZM58.8952 38.036L58.4831 36.0789L58.4527 36.0853L58.4225 36.0927L58.8952 38.036ZM51.0832 37.244L52.0652 35.5017L51.0832 37.244ZM47.9872 33.932L46.1983 34.8264L46.2042 34.8381L47.9872 33.932ZM47.8792 23.06L46.0515 22.2477L47.8792 23.06ZM50.6872 19.568L49.5778 17.9039L49.5701 17.909L49.5625 17.9141L50.6872 19.568ZM51.6232 22.412L53.147 23.7073L53.1549 23.698L53.1627 23.6887L51.6232 22.412ZM50.1832 26.444L48.1901 26.2779L48.0096 28.444H50.1832V26.444ZM59.2552 26.444V28.444H61.2552V26.444H59.2552ZM58.7872 23.564L60.6553 22.8497V22.8497L58.7872 23.564ZM57.3472 21.656L56.1277 23.2412L56.1614 23.2672L56.1962 23.2916L57.3472 21.656ZM54.9352 20.344C56.1783 20.344 57.1348 20.6271 57.8911 21.1098L60.0432 17.7382C58.5435 16.7809 56.812 16.344 54.9352 16.344V20.344ZM57.8911 21.1098C58.6658 21.6044 59.2845 22.313 59.7384 23.3116L63.3799 21.6564C62.6338 20.015 61.5245 18.6836 60.0432 17.7382L57.8911 21.1098ZM59.7572 23.3516C60.2255 24.3244 60.4952 25.5401 60.4952 27.056H64.4952C64.4952 25.0679 64.1408 23.2356 63.3612 21.6164L59.7572 23.3516ZM60.4952 27.056V28.964H64.4952V27.056H60.4952ZM62.4952 26.964H50.1112V30.964H62.4952V26.964ZM48.1116 29.0079C48.1654 31.4543 48.7472 33.6383 50.1384 35.267L53.1799 32.669C52.6031 31.9937 52.1529 30.8417 52.1107 28.9201L48.1116 29.0079ZM50.152 35.2827C51.5873 36.928 53.5637 37.66 55.7992 37.66V33.66C54.4826 33.66 53.699 33.264 53.1663 32.6533L50.152 35.2827ZM55.7992 37.66C57.0712 37.66 58.2551 37.5412 59.3319 37.2793L58.3865 33.3927C57.6872 33.5628 56.8311 33.66 55.7992 33.66V37.66ZM59.3681 37.2701C60.3984 36.999 61.4386 36.624 62.4879 36.1518L60.8464 32.5042C59.9757 32.896 59.1439 33.193 58.3502 33.4019L59.3681 37.2701ZM59.6672 34.328V37.1H63.6672V34.328H59.6672ZM60.829 35.2841C60.0151 35.6597 59.2337 35.9209 58.4831 36.0789L59.3072 39.9931C60.3806 39.7671 61.4472 39.4043 62.5053 38.9159L60.829 35.2841ZM58.4225 36.0927C57.7362 36.2596 56.8249 36.36 55.6552 36.36V40.36C57.0294 40.36 58.2781 40.2444 59.3679 39.9793L58.4225 36.0927ZM55.6552 36.36C54.2222 36.36 53.0455 36.0542 52.0652 35.5017L50.1011 38.9863C51.7608 39.9218 53.6321 40.36 55.6552 40.36V36.36ZM52.0652 35.5017C51.1177 34.9677 50.3511 34.1691 49.7701 33.0259L46.2042 34.8381C47.1112 36.6229 48.4086 38.0323 50.1011 38.9863L52.0652 35.5017ZM49.776 33.0376C49.2046 31.8947 48.8712 30.4069 48.8712 28.496H44.8712C44.8712 30.8571 45.2817 32.9933 46.1983 34.8264L49.776 33.0376ZM48.8712 28.496C48.8712 26.5893 49.1752 25.0683 49.7068 23.8723L46.0515 22.2477C45.2391 24.0757 44.8712 26.1787 44.8712 28.496H48.8712ZM49.7068 23.8723C50.2491 22.652 50.9613 21.8001 51.8118 21.2219L49.5625 17.9141C48.013 18.9679 46.8532 20.444 46.0515 22.2477L49.7068 23.8723ZM51.7966 21.2321C52.6615 20.6555 53.6837 20.344 54.9352 20.344V16.344C52.9707 16.344 51.1608 16.8485 49.5778 17.9039L51.7966 21.2321ZM54.9352 18.936C53.0081 18.936 51.3164 19.6487 50.0836 21.1353L53.1627 23.6887C53.5619 23.2073 54.0782 22.936 54.9352 22.936V18.936ZM50.0993 21.1167C48.928 22.4947 48.356 24.2867 48.1901 26.2779L52.1762 26.6101C52.2983 25.1453 52.6863 24.2493 53.147 23.7073L50.0993 21.1167ZM50.1832 28.444H59.2552V24.444H50.1832V28.444ZM61.2552 26.444C61.2552 25.1576 61.0741 23.9451 60.6553 22.8497L56.9191 24.2783C57.1242 24.8149 57.2552 25.5224 57.2552 26.444H61.2552ZM60.6553 22.8497C60.2164 21.7018 59.5046 20.7286 58.4981 20.0204L56.1962 23.2916C56.4857 23.4954 56.734 23.7942 56.9191 24.2783L60.6553 22.8497ZM58.5666 20.0708C57.5134 19.2606 56.248 18.936 54.9352 18.936V22.936C55.5903 22.936 55.933 23.0914 56.1277 23.2412L58.5666 20.0708ZM76.7233 18.416L76.4753 20.4006L76.5367 20.4082L76.5986 20.4121L76.7233 18.416ZM77.7313 18.56L79.7162 18.8051L79.9331 17.0489L78.2164 16.6197L77.7313 18.56ZM77.3713 21.476L76.8862 23.4163L79.0793 23.9645L79.3562 21.7211L77.3713 21.476ZM76.3993 21.296L76.1165 23.2759L76.1257 23.2772L76.135 23.2785L76.3993 21.296ZM73.4473 21.692L74.3417 23.4809H74.3417L73.4473 21.692ZM71.7553 23.024L70.2502 21.707L70.2461 21.7116L71.7553 23.024ZM70.6033 25.04L68.7237 24.3565V24.3565L70.6033 25.04ZM70.1713 38V40H72.1713V38H70.1713ZM67.0393 38H65.0393V40H67.0393V38ZM67.0393 18.704V16.704H65.0393V18.704H67.0393ZM69.5953 18.704L71.585 18.501L71.4016 16.704H69.5953V18.704ZM69.9553 22.232L67.9656 22.435L68.149 24.232H69.9553V22.232ZM70.0993 22.232V24.232H71.2993L71.864 23.1732L70.0993 22.232ZM71.4673 20.288L69.9954 18.9339L69.993 18.9366L71.4673 20.288ZM73.3393 18.884L74.2088 20.6851L74.2337 20.6731L74.2582 20.6604L73.3393 18.884ZM75.6433 20.344C75.8851 20.344 76.1615 20.3613 76.4753 20.4006L76.9714 16.4314C76.5171 16.3747 76.0736 16.344 75.6433 16.344V20.344ZM76.5986 20.4121C76.8946 20.4306 77.1051 20.465 77.2462 20.5003L78.2164 16.6197C77.7815 16.511 77.3201 16.4494 76.8481 16.4199L76.5986 20.4121ZM75.7464 18.3149L75.3864 21.2309L79.3562 21.7211L79.7162 18.8051L75.7464 18.3149ZM77.8564 19.5357C77.4817 19.4421 77.0822 19.3694 76.6636 19.3135L76.135 23.2785C76.4364 23.3186 76.6849 23.3659 76.8862 23.4163L77.8564 19.5357ZM76.6822 19.3161C76.2606 19.2559 75.8418 19.224 75.4273 19.224V23.224C75.6368 23.224 75.8661 23.2401 76.1165 23.2759L76.6822 19.3161ZM75.4273 19.224C74.4201 19.224 73.4539 19.4526 72.5529 19.9031L74.3417 23.4809C74.6887 23.3074 75.0426 23.224 75.4273 23.224V19.224ZM72.5529 19.9031C71.675 20.3421 70.9085 20.9546 70.2502 21.707L73.2605 24.341C73.6101 23.9414 73.9716 23.6659 74.3417 23.4809L72.5529 19.9031ZM70.2461 21.7116C69.5826 22.4747 69.083 23.3685 68.7237 24.3565L72.4829 25.7235C72.6996 25.1275 72.968 24.6773 73.2645 24.3364L70.2461 21.7116ZM68.7237 24.3565C68.3439 25.4009 68.1713 26.5252 68.1713 27.704H72.1713C72.1713 26.9148 72.2867 26.2631 72.4829 25.7235L68.7237 24.3565ZM68.1713 27.704V38H72.1713V27.704H68.1713ZM70.1713 36H67.0393V40H70.1713V36ZM69.0393 38V18.704H65.0393V38H69.0393ZM67.0393 20.704H69.5953V16.704H67.0393V20.704ZM67.6056 18.907L67.9656 22.435L71.945 22.029L71.585 18.501L67.6056 18.907ZM69.9553 24.232H70.0993V20.232H69.9553V24.232ZM71.864 23.1732C72.1724 22.595 72.5322 22.0861 72.9416 21.6394L69.993 18.9366C69.3464 19.6419 68.7943 20.429 68.3346 21.2908L71.864 23.1732ZM72.9392 21.6421C73.3299 21.2174 73.7523 20.9055 74.2088 20.6851L72.4698 17.0829C71.5343 17.5345 70.7087 18.1586 69.9955 18.9339L72.9392 21.6421ZM74.2582 20.6604C74.6499 20.4578 75.0995 20.344 75.6433 20.344V16.344C74.5072 16.344 73.4207 16.5902 72.4205 17.1076L74.2582 20.6604ZM94.8538 20.036L93.4245 21.4349L93.4395 21.4503L93.4549 21.4653L94.8538 20.036ZM96.5458 38V40H98.5458V38H96.5458ZM93.4138 38H91.4138V40H93.4138V38ZM85.3498 22.808L83.6653 21.7299L83.6576 21.742L83.65 21.7541L85.3498 22.808ZM84.2338 38V40H86.2338V38H84.2338ZM81.1018 38H79.1018V40H81.1018V38ZM81.1018 18.704V16.704H79.1018V18.704H81.1018ZM83.6218 18.704L85.5908 18.3534L85.2971 16.704H83.6218V18.704ZM84.0898 21.332L82.1208 21.6826L82.4145 23.332H84.0898V21.332ZM84.2698 21.332V23.332H85.4305L86.0063 22.3243L84.2698 21.332ZM85.7458 19.676L86.9144 21.2991L86.9354 21.284L86.956 21.2683L85.7458 19.676ZM89.9578 20.344C91.7835 20.344 92.8186 20.8158 93.4245 21.4349L96.2831 18.6371C94.6811 17.0002 92.4521 16.344 89.9578 16.344V20.344ZM93.4549 21.4653C94.0254 22.0237 94.5458 23.1745 94.5458 25.436H98.5458C98.5458 22.7055 97.9382 20.2563 96.2527 18.6067L93.4549 21.4653ZM94.5458 25.436V38H98.5458V25.436H94.5458ZM96.5458 36H93.4138V40H96.5458V36ZM95.4138 38V25.652H91.4138V38H95.4138ZM95.4138 25.652C95.4138 23.868 95.0516 22.1517 93.9704 20.8703L90.9132 23.4497C91.128 23.7043 91.4138 24.316 91.4138 25.652H95.4138ZM93.9704 20.8703C92.8246 19.5123 91.1761 19.008 89.4538 19.008V23.008C90.4196 23.008 90.763 23.2717 90.9132 23.4497L93.9704 20.8703ZM89.4538 19.008C87.0904 19.008 84.9325 19.7498 83.6653 21.7299L87.0344 23.8861C87.3031 23.4662 87.8812 23.008 89.4538 23.008V19.008ZM83.65 21.7541C82.6252 23.407 82.2338 25.5658 82.2338 27.992H86.2338C86.2338 25.9062 86.5864 24.609 87.0496 23.8619L83.65 21.7541ZM82.2338 27.992V38H86.2338V27.992H82.2338ZM84.2338 36H81.1018V40H84.2338V36ZM83.1018 38V18.704H79.1018V38H83.1018ZM81.1018 20.704H83.6218V16.704H81.1018V20.704ZM81.6528 19.0546L82.1208 21.6826L86.0588 20.9814L85.5908 18.3534L81.6528 19.0546ZM84.0898 23.332H84.2698V19.332H84.0898V23.332ZM86.0063 22.3243C86.2551 21.8888 86.5575 21.556 86.9144 21.2991L84.5772 18.0529C83.7341 18.66 83.0525 19.4312 82.5333 20.3397L86.0063 22.3243ZM86.956 21.2683C87.3657 20.9569 87.8106 20.7306 88.3005 20.5837L87.1511 16.7523C86.201 17.0374 85.3259 17.4831 84.5356 18.0837L86.956 21.2683ZM88.3005 20.5837C88.83 20.4248 89.3802 20.344 89.9578 20.344V16.344C88.9994 16.344 88.0616 16.4792 87.1511 16.7523L88.3005 20.5837ZM113.141 35.804L111.514 34.6415L111.503 34.6571L111.492 34.6729L113.141 35.804ZM110.657 37.712L109.914 35.855L110.657 37.712ZM103.457 38.036L102.996 39.9822L103.008 39.9848L103.457 38.036ZM101.045 37.136H99.0452V38.3168L100.079 38.8872L101.045 37.136ZM101.045 34.256L101.963 32.4788L99.0452 30.9731V34.256H101.045ZM103.709 35.336L103.09 37.2377L103.11 37.2443L103.13 37.2504L103.709 35.336ZM110.009 35.048L111.237 36.6267L111.245 36.6206L110.009 35.048ZM110.621 31.664L108.925 32.724L108.948 32.7611L108.973 32.7971L110.621 31.664ZM109.289 30.512L108.241 32.2153L108.255 32.2241L108.27 32.2326L109.289 30.512ZM106.553 29.216L105.784 31.0622L105.797 31.0676L105.81 31.073L106.553 29.216ZM103.565 27.776L102.551 29.4999L102.562 29.5062L102.573 29.5125L103.565 27.776ZM101.657 26.048L99.9749 27.1295L99.9883 27.1504L100.002 27.171L101.657 26.048ZM102.881 19.676L101.736 18.0361L101.729 18.0412L101.722 18.0464L102.881 19.676ZM110.945 18.704L110.46 20.6443L110.483 20.65L110.506 20.6552L110.945 18.704ZM113.681 19.64L115.529 20.4055L116.258 18.6451L114.535 17.8315L113.681 19.64ZM112.637 22.16L111.777 23.9657L113.679 24.8712L114.485 22.9255L112.637 22.16ZM111.053 21.548L110.396 23.437L110.433 23.4499L110.471 23.4613L111.053 21.548ZM109.361 21.116L108.936 23.0704L108.984 23.0807L109.032 23.0888L109.361 21.116ZM104.969 21.584L106.064 23.2579L106.086 23.2435L106.108 23.2284L104.969 21.584ZM104.465 24.644L106.065 23.444L106.065 23.444L104.465 24.644ZM105.869 25.76L104.898 27.5083L104.936 27.5294L104.975 27.5489L105.869 25.76ZM108.605 26.948L107.869 28.8076L108.605 26.948ZM111.557 28.352L110.543 30.0759L111.557 28.352ZM113.393 30.116L111.668 31.1274L111.689 31.1629L111.711 31.1975L113.393 30.116ZM112.041 32.672C112.041 33.592 111.825 34.2065 111.514 34.6415L114.769 36.9665C115.658 35.7215 116.041 34.248 116.041 32.672H112.041ZM111.492 34.6729C111.17 35.1419 110.681 35.5485 109.914 35.855L111.4 39.569C112.794 39.0115 113.96 38.1461 114.791 36.9351L111.492 34.6729ZM109.914 35.855C109.13 36.1689 108.099 36.36 106.769 36.36V40.36C108.463 40.36 110.025 40.1191 111.4 39.569L109.914 35.855ZM106.769 36.36C105.603 36.36 104.657 36.2603 103.907 36.0872L103.008 39.9848C104.13 40.2437 105.391 40.36 106.769 40.36V36.36ZM103.918 36.0898C103.152 35.9084 102.523 35.6672 102.011 35.3848L100.079 38.8872C100.959 39.3728 101.938 39.7316 102.996 39.9822L103.918 36.0898ZM103.045 37.136V34.256H99.0452V37.136H103.045ZM100.128 36.0332C100.991 36.4787 101.984 36.8776 103.09 37.2377L104.328 33.4343C103.371 33.1224 102.587 32.8013 101.963 32.4788L100.128 36.0332ZM103.13 37.2504C104.346 37.618 105.585 37.804 106.841 37.804V33.804C105.985 33.804 105.136 33.678 104.288 33.4216L103.13 37.2504ZM106.841 37.804C108.441 37.804 110.054 37.5468 111.237 36.6267L108.781 33.4693C108.668 33.5572 108.17 33.804 106.841 33.804V37.804ZM111.245 36.6206C112.406 35.7086 113.017 34.4298 113.017 32.96H109.017C109.017 33.2182 108.957 33.3314 108.774 33.4754L111.245 36.6206ZM113.017 32.96C113.017 32.0883 112.77 31.2588 112.269 30.5309L108.973 32.7971C109.001 32.8372 109.017 32.8717 109.017 32.96H113.017ZM112.317 30.604C111.831 29.8257 111.071 29.2432 110.309 28.7914L108.27 32.2326C108.519 32.3801 108.689 32.5046 108.8 32.6007C108.913 32.6985 108.937 32.743 108.925 32.724L112.317 30.604ZM110.337 28.8087C109.57 28.3362 108.535 27.8546 107.296 27.359L105.81 31.073C106.972 31.5374 107.761 31.9198 108.241 32.2153L110.337 28.8087ZM107.322 27.3698C106.226 26.9131 105.308 26.4686 104.558 26.0395L102.573 29.5125C103.502 30.0434 104.576 30.5589 105.784 31.0622L107.322 27.3698ZM104.579 26.0521C103.977 25.6977 103.576 25.3142 103.312 24.925L100.002 27.171C100.65 28.1258 101.522 28.8943 102.551 29.4999L104.579 26.0521ZM103.34 24.9665C103.172 24.7056 103.009 24.2494 103.009 23.456H99.0092C99.0092 24.7746 99.2786 26.0464 99.9749 27.1295L103.34 24.9665ZM103.009 23.456C103.009 22.4213 103.359 21.7904 104.041 21.3056L101.722 18.0464C99.9071 19.3376 99.0092 21.2267 99.0092 23.456H103.009ZM104.026 21.3159C104.871 20.7261 106.091 20.344 107.849 20.344V16.344C105.527 16.344 103.436 16.8499 101.736 18.0361L104.026 21.3159ZM107.849 20.344C108.808 20.344 109.676 20.4482 110.46 20.6443L111.43 16.7637C110.295 16.4798 109.098 16.344 107.849 16.344V20.344ZM110.506 20.6552C111.327 20.84 112.1 21.105 112.827 21.4485L114.535 17.8315C113.535 17.359 112.483 17 111.384 16.7528L110.506 20.6552ZM111.834 18.8745L110.79 21.3945L114.485 22.9255L115.529 20.4055L111.834 18.8745ZM113.497 20.3543C112.9 20.0702 112.279 19.8306 111.636 19.6347L110.471 23.4613C110.931 23.6014 111.366 23.7698 111.777 23.9657L113.497 20.3543ZM111.71 19.659C111.052 19.4299 110.378 19.2578 109.69 19.1432L109.032 23.0888C109.497 23.1662 109.951 23.2821 110.396 23.437L111.71 19.659ZM109.786 19.1616C109.092 19.0107 108.385 18.936 107.669 18.936V22.936C108.105 22.936 108.527 22.9813 108.936 23.0704L109.786 19.1616ZM107.669 18.936C106.294 18.936 104.927 19.1807 103.831 19.9396L106.108 23.2284C106.259 23.1233 106.692 22.936 107.669 22.936V18.936ZM103.875 19.9101C102.71 20.6717 102.033 21.8526 102.033 23.276H106.033C106.033 23.241 106.037 23.2302 106.035 23.2375C106.034 23.2408 106.033 23.2471 106.029 23.2554C106.026 23.2637 106.022 23.2725 106.017 23.2811C106.013 23.2897 106.008 23.2966 106.004 23.3015C106.001 23.3063 105.999 23.3079 106 23.3065C106.003 23.3039 106.021 23.2862 106.064 23.2579L103.875 19.9101ZM102.033 23.276C102.033 24.1911 102.291 25.079 102.865 25.844L106.065 23.444C106.056 23.4318 106.052 23.4238 106.048 23.4117C106.044 23.3977 106.033 23.3568 106.033 23.276H102.033ZM102.865 25.844C103.389 26.5417 104.124 27.0786 104.898 27.5083L106.841 24.0117C106.318 23.7214 106.118 23.5143 106.065 23.444L102.865 25.844ZM104.975 27.5489C105.721 27.9219 106.693 28.3421 107.869 28.8076L109.341 25.0884C108.214 24.6419 107.362 24.2701 106.764 23.9711L104.975 27.5489ZM107.869 28.8076C108.953 29.2365 109.839 29.6613 110.543 30.0759L112.571 26.6281C111.644 26.0827 110.562 25.5715 109.341 25.0884L107.869 28.8076ZM110.543 30.0759C111.116 30.4131 111.46 30.773 111.668 31.1274L115.119 29.1046C114.51 28.067 113.63 27.2509 112.571 26.6281L110.543 30.0759ZM111.711 31.1975C111.883 31.4651 112.041 31.913 112.041 32.672H116.041C116.041 31.367 115.768 30.1109 115.076 29.0345L111.711 31.1975ZM121.463 20.072L119.473 19.873L119.468 19.9225L119.465 19.9721L121.463 20.072ZM121.355 21.368L119.37 21.1199L119.089 23.368H121.355V21.368ZM121.571 21.368V23.368H122.731L123.307 22.3603L121.571 21.368ZM123.011 19.712L121.842 18.0889L121.826 18.1003L121.811 18.112L123.011 19.712ZM124.955 18.74L125.547 20.6501L125.567 20.644L125.587 20.6374L124.955 18.74ZM130.859 19.136L129.947 20.9161L129.964 20.925L129.982 20.9335L130.859 19.136ZM133.091 21.404L134.888 20.5263L133.091 21.404ZM133.847 38V40H135.847V38H133.847ZM130.715 38H128.715V40H130.715V38ZM123.623 21.836L124.756 23.4841L124.773 23.4722L124.79 23.46L123.623 21.836ZM122.003 24.212L123.917 24.7908L123.921 24.7787L122.003 24.212ZM121.535 38V40H123.535V38H121.535ZM118.403 38H116.403V40H118.403V38ZM118.403 10.64V8.64H116.403V10.64H118.403ZM121.535 10.64H123.535V8.64H121.535V10.64ZM119.535 18.668C119.535 19.0538 119.514 19.4553 119.473 19.873L123.453 20.271C123.507 19.7287 123.535 19.1942 123.535 18.668H119.535ZM119.465 19.9721C119.443 20.4139 119.411 20.7952 119.37 21.1199L123.339 21.6161C123.395 21.1728 123.434 20.6901 123.46 20.1719L119.465 19.9721ZM121.355 23.368H121.571V19.368H121.355V23.368ZM123.307 22.3603C123.566 21.9074 123.869 21.5682 124.211 21.312L121.811 18.112C121 18.7198 120.343 19.4846 119.834 20.3757L123.307 22.3603ZM124.179 21.3351C124.607 21.0273 125.061 20.8012 125.547 20.6501L124.362 16.8299C123.457 17.1108 122.615 17.5327 121.842 18.0889L124.179 21.3351ZM125.587 20.6374C126.101 20.4662 126.631 20.38 127.187 20.38V16.38C126.206 16.38 125.249 16.5338 124.322 16.8426L125.587 20.6374ZM127.187 20.38C128.432 20.38 129.321 20.5957 129.947 20.9161L131.77 17.3559C130.428 16.6683 128.869 16.38 127.187 16.38V20.38ZM129.982 20.9335C130.544 21.208 130.975 21.6292 131.293 22.2817L134.888 20.5263C134.198 19.1148 133.141 18.024 131.735 17.3385L129.982 20.9335ZM131.293 22.2817C131.618 22.9469 131.847 23.9595 131.847 25.436H135.847C135.847 23.6005 135.571 21.9251 134.888 20.5263L131.293 22.2817ZM131.847 25.436V38H135.847V25.436H131.847ZM133.847 36H130.715V40H133.847V36ZM132.715 38V25.652H128.715V38H132.715ZM132.715 25.652C132.715 23.868 132.352 22.1517 131.271 20.8703L128.214 23.4497C128.429 23.7043 128.715 24.316 128.715 25.652H132.715ZM131.271 20.8703C130.125 19.5123 128.477 19.008 126.755 19.008V23.008C127.72 23.008 128.064 23.2717 128.214 23.4497L131.271 20.8703ZM126.755 19.008C125.177 19.008 123.674 19.3358 122.455 20.212L124.79 23.46C125.107 23.2322 125.692 23.008 126.755 23.008V19.008ZM122.49 20.1879C121.278 21.021 120.502 22.2328 120.085 23.6453L123.921 24.7787C124.127 24.0792 124.431 23.707 124.756 23.4841L122.49 20.1879ZM120.088 23.6332C119.702 24.9114 119.535 26.3923 119.535 28.028H123.535C123.535 26.6397 123.679 25.5766 123.917 24.7908L120.088 23.6332ZM119.535 28.028V38H123.535V28.028H119.535ZM121.535 36H118.403V40H121.535V36ZM120.403 38V10.64H116.403V38H120.403ZM118.403 12.64H121.535V8.64H118.403V12.64ZM119.535 10.64V18.668H123.535V10.64H119.535ZM142.594 18.704H144.594V16.704H142.594V18.704ZM142.594 38V40H144.594V38H142.594ZM139.462 38H137.462V40H139.462V38ZM139.462 18.704V16.704H137.462V18.704H139.462ZM142.306 11.972L140.941 13.4341L140.968 13.4592L140.996 13.4834L142.306 11.972ZM142.306 14.996L140.941 13.5339V13.5339L142.306 14.996ZM139.75 14.996L141.115 13.5339V13.5339L139.75 14.996ZM139.75 11.972L141.06 13.4834L141.088 13.4592L141.115 13.4341L139.75 11.972ZM140.594 18.704V38H144.594V18.704H140.594ZM142.594 36H139.462V40H142.594V36ZM141.462 38V18.704H137.462V38H141.462ZM139.462 20.704H142.594V16.704H139.462V20.704ZM141.046 13.468C141.049 13.468 141.042 13.4682 141.028 13.4655C141.013 13.4628 140.996 13.4581 140.978 13.451C140.96 13.4438 140.947 13.4364 140.939 13.4313C140.932 13.4264 140.933 13.426 140.941 13.4341L143.671 10.5099C142.951 9.83816 142.047 9.468 141.046 9.468V13.468ZM140.996 13.4834C140.945 13.4392 140.904 13.3911 140.874 13.3457C140.845 13.3013 140.832 13.2684 140.828 13.2567C140.824 13.2458 140.829 13.2561 140.834 13.2947C140.84 13.3334 140.846 13.3952 140.846 13.484H144.846C144.846 12.4812 144.585 11.3008 143.616 10.4606L140.996 13.4834ZM140.846 13.484C140.846 13.6469 140.824 13.7044 140.828 13.6933C140.83 13.6861 140.839 13.663 140.86 13.631C140.881 13.5984 140.908 13.5647 140.941 13.5339L143.671 16.4581C144.567 15.6214 144.846 14.501 144.846 13.484H140.846ZM140.941 13.5339C140.933 13.542 140.932 13.5416 140.939 13.5367C140.947 13.5316 140.96 13.5242 140.978 13.517C140.996 13.5099 141.013 13.5052 141.028 13.5025C141.042 13.4998 141.049 13.5 141.046 13.5V17.5C142.047 17.5 142.951 17.1298 143.671 16.4581L140.941 13.5339ZM141.046 13.5C141.031 13.5 141.029 13.4988 141.035 13.5C141.042 13.5012 141.054 13.5041 141.069 13.51C141.084 13.5159 141.097 13.5229 141.107 13.5292C141.117 13.5353 141.119 13.5381 141.115 13.5339L138.385 16.4581C139.125 17.1487 140.049 17.5 141.046 17.5V13.5ZM141.115 13.5339C141.148 13.5647 141.175 13.5984 141.196 13.631C141.217 13.663 141.226 13.6861 141.229 13.6933C141.232 13.7044 141.21 13.6469 141.21 13.484H137.21C137.21 14.501 137.489 15.6214 138.385 16.4581L141.115 13.5339ZM141.21 13.484C141.21 13.3952 141.216 13.3334 141.222 13.2947C141.227 13.2561 141.232 13.2458 141.229 13.2567C141.224 13.2684 141.211 13.3013 141.182 13.3457C141.152 13.3911 141.111 13.4392 141.06 13.4834L138.44 10.4606C137.471 11.3008 137.21 12.4812 137.21 13.484H141.21ZM141.115 13.4341C141.119 13.4299 141.117 13.4327 141.107 13.4388C141.097 13.4451 141.084 13.4521 141.069 13.458C141.054 13.4639 141.042 13.4668 141.035 13.468C141.029 13.4692 141.031 13.468 141.046 13.468V9.468C140.049 9.468 139.125 9.81934 138.385 10.5099L141.115 13.4341ZM162.397 20.828L160.844 22.0883L160.85 22.0951L160.855 22.1018L162.397 20.828ZM163.513 33.86L165.358 34.6335L165.362 34.623L163.513 33.86ZM160.885 37.244L162.003 38.9025L162.011 38.8972L160.885 37.244ZM154.513 37.964L153.804 39.834L153.814 39.8379L153.825 39.8418L154.513 37.964ZM152.713 36.956L151.412 38.4745L151.433 38.4928L151.455 38.5105L152.713 36.956ZM151.417 35.552L153.045 34.3895L152.447 33.552H151.417V35.552ZM151.201 35.552V33.552H148.952L149.215 35.7857L151.201 35.552ZM151.345 37.1L149.351 37.2534L151.345 37.1ZM151.417 46.64V48.64H153.417V46.64H151.417ZM148.285 46.64H146.285V48.64H148.285V46.64ZM148.285 18.704V16.704H146.285V18.704H148.285ZM150.841 18.704L152.815 18.3796L152.539 16.704H150.841V18.704ZM151.273 21.332L149.3 21.6564L149.575 23.332H151.273V21.332ZM151.417 21.332V23.332H152.501L153.093 22.4245L151.417 21.332ZM152.713 19.82L154.055 21.3031V21.3031L152.713 19.82ZM154.513 18.74L153.825 16.8622L153.814 16.8661L153.804 16.87L154.513 18.74ZM153.505 21.764L154.615 23.4281L154.621 23.424L154.627 23.4198L153.505 21.764ZM151.849 32.348L149.914 32.8528L149.919 32.8724L149.925 32.8919L151.849 32.348ZM159.157 34.76L157.795 33.2962L159.157 34.76ZM160.705 32.132L162.619 32.7143L162.622 32.703L160.705 32.132ZM160.021 22.988L158.293 23.9938L158.299 24.0054L158.306 24.017L160.021 22.988ZM157.033 20.344C158.695 20.344 159.9 20.9248 160.844 22.0883L163.95 19.5677C162.207 17.4192 159.836 16.344 157.033 16.344V20.344ZM160.855 22.1018C161.802 23.248 162.449 25.201 162.449 28.316H166.449C166.449 24.759 165.728 21.72 163.939 19.5542L160.855 22.1018ZM162.449 28.316C162.449 30.3211 162.161 31.8934 161.665 33.097L165.362 34.623C166.113 32.8026 166.449 30.6789 166.449 28.316H162.449ZM161.669 33.0865C161.167 34.2841 160.514 35.0775 159.76 35.5908L162.011 38.8972C163.513 37.8745 164.612 36.4119 165.358 34.6335L161.669 33.0865ZM159.768 35.5855C159.032 36.0812 158.136 36.36 156.997 36.36V40.36C158.835 40.36 160.531 39.8948 162.003 38.9025L159.768 35.5855ZM156.997 36.36C156.246 36.36 155.659 36.2538 155.202 36.0862L153.825 39.8418C154.808 40.2022 155.877 40.36 156.997 40.36V36.36ZM155.223 36.094C154.696 35.8944 154.288 35.6577 153.972 35.4015L151.455 38.5105C152.146 39.0703 152.938 39.5056 153.804 39.834L155.223 36.094ZM154.015 35.4375C153.625 35.1031 153.305 34.7531 153.045 34.3895L149.79 36.7145C150.25 37.3589 150.794 37.9449 151.412 38.4745L154.015 35.4375ZM151.417 33.552H151.201V37.552H151.417V33.552ZM149.215 35.7857C149.259 36.157 149.304 36.6439 149.351 37.2534L153.34 36.9466C153.29 36.3081 153.24 35.763 153.188 35.3183L149.215 35.7857ZM149.351 37.2534C149.397 37.8437 149.417 38.33 149.417 38.72H153.417C153.417 38.198 153.39 37.6043 153.34 36.9466L149.351 37.2534ZM149.417 38.72V46.64H153.417V38.72H149.417ZM151.417 44.64H148.285V48.64H151.417V44.64ZM150.285 46.64V18.704H146.285V46.64H150.285ZM148.285 20.704H150.841V16.704H148.285V20.704ZM148.868 19.0284L149.3 21.6564L153.247 21.0076L152.815 18.3796L148.868 19.0284ZM151.273 23.332H151.417V19.332H151.273V23.332ZM153.093 22.4245C153.356 22.021 153.675 21.6474 154.055 21.3031L151.372 18.3369C150.744 18.9046 150.199 19.539 149.742 20.2395L153.093 22.4245ZM154.055 21.3031C154.357 21.0296 154.738 20.794 155.223 20.61L153.804 16.87C152.897 17.214 152.077 17.6984 151.372 18.3369L154.055 21.3031ZM155.202 20.6178C155.654 20.4521 156.252 20.344 157.033 20.344V16.344C155.895 16.344 154.813 16.4999 153.825 16.8622L155.202 20.6178ZM156.421 19.008C154.953 19.008 153.553 19.316 152.384 20.1082L154.627 23.4198C154.946 23.204 155.49 23.008 156.421 23.008V19.008ZM152.396 20.0999C151.241 20.8701 150.477 22 150.029 23.3137L153.814 24.6063C154.038 23.952 154.33 23.6179 154.615 23.4281L152.396 20.0999ZM150.029 23.3137C149.597 24.5771 149.417 26.0628 149.417 27.704H153.417C153.417 26.3212 153.574 25.3109 153.814 24.6063L150.029 23.3137ZM149.417 27.704V28.316H153.417V27.704H149.417ZM149.417 28.316C149.417 30.0097 149.57 31.5342 149.914 32.8528L153.785 31.8432C153.553 30.9538 153.417 29.7903 153.417 28.316H149.417ZM149.925 32.8919C150.327 34.3155 151.058 35.5583 152.209 36.4494L154.658 33.2866C154.321 33.0257 153.996 32.5885 153.774 31.8041L149.925 32.8919ZM152.209 36.4494C153.415 37.3828 154.919 37.732 156.493 37.732V33.732C155.476 33.732 154.94 33.5052 154.658 33.2866L152.209 36.4494ZM156.493 37.732C158.005 37.732 159.403 37.2637 160.52 36.2238L157.795 33.2962C157.519 33.5523 157.142 33.732 156.493 33.732V37.732ZM160.52 36.2238C161.524 35.2891 162.202 34.0837 162.619 32.7143L158.792 31.5497C158.537 32.3883 158.183 32.9349 157.795 33.2962L160.52 36.2238ZM162.622 32.703C163.024 31.3537 163.209 29.8719 163.209 28.28H159.209C159.209 29.5681 159.059 30.6543 158.789 31.561L162.622 32.703ZM163.209 28.28C163.209 25.8583 162.779 23.6965 161.736 21.959L158.306 24.017C158.848 24.9195 159.209 26.2857 159.209 28.28H163.209ZM161.75 21.9822C160.595 19.9968 158.706 19.008 156.421 19.008V23.008C157.401 23.008 157.912 23.3392 158.293 23.9938L161.75 21.9822ZM180.149 35.804L178.522 34.6415L178.51 34.6571L178.5 34.6729L180.149 35.804ZM177.665 37.712L176.922 35.855L177.665 37.712ZM170.465 38.036L170.004 39.9822L170.015 39.9848L170.465 38.036ZM168.053 37.136H166.053V38.3168L167.087 38.8872L168.053 37.136ZM168.053 34.256L168.97 32.4788L166.053 30.9731V34.256H168.053ZM170.717 35.336L170.098 37.2377L170.118 37.2443L170.138 37.2504L170.717 35.336ZM177.017 35.048L178.245 36.6267L178.253 36.6206L177.017 35.048ZM177.629 31.664L175.933 32.724L175.956 32.7611L175.981 32.7971L177.629 31.664ZM176.297 30.512L175.249 32.2153L175.263 32.2241L175.277 32.2326L176.297 30.512ZM173.561 29.216L172.792 31.0622L172.805 31.0676L172.818 31.073L173.561 29.216ZM170.573 27.776L169.559 29.4999L169.57 29.5062L169.581 29.5125L170.573 27.776ZM168.665 26.048L166.983 27.1295L166.996 27.1504L167.01 27.171L168.665 26.048ZM169.889 19.676L168.744 18.0361L168.737 18.0412L168.73 18.0464L169.889 19.676ZM177.953 18.704L177.468 20.6443L177.491 20.65L177.514 20.6552L177.953 18.704ZM180.689 19.64L182.537 20.4055L183.266 18.6451L181.543 17.8315L180.689 19.64ZM179.645 22.16L178.785 23.9657L180.687 24.8712L181.493 22.9255L179.645 22.16ZM178.061 21.548L177.404 23.437L177.441 23.4499L177.479 23.4613L178.061 21.548ZM176.369 21.116L175.944 23.0704L175.992 23.0807L176.04 23.0888L176.369 21.116ZM171.977 21.584L173.072 23.2579L173.094 23.2435L173.115 23.2284L171.977 21.584ZM171.473 24.644L173.073 23.444V23.444L171.473 24.644ZM172.877 25.76L171.906 27.5083L171.944 27.5294L171.983 27.5489L172.877 25.76ZM175.613 26.948L174.877 28.8076L175.613 26.948ZM178.565 28.352L177.551 30.0759L178.565 28.352ZM180.401 30.116L178.676 31.1274L178.696 31.1629L178.719 31.1975L180.401 30.116ZM179.049 32.672C179.049 33.592 178.832 34.2065 178.522 34.6415L181.777 36.9665C182.666 35.7215 183.049 34.248 183.049 32.672H179.049ZM178.5 34.6729C178.178 35.1419 177.689 35.5485 176.922 35.855L178.408 39.569C179.801 39.0115 180.968 38.1461 181.799 36.9351L178.5 34.6729ZM176.922 35.855C176.138 36.1689 175.107 36.36 173.777 36.36V40.36C175.471 40.36 177.032 40.1191 178.408 39.569L176.922 35.855ZM173.777 36.36C172.611 36.36 171.665 36.2603 170.915 36.0872L170.015 39.9848C171.137 40.2437 172.399 40.36 173.777 40.36V36.36ZM170.926 36.0898C170.16 35.9084 169.531 35.6672 169.019 35.3848L167.087 38.8872C167.967 39.3728 168.946 39.7316 170.004 39.9822L170.926 36.0898ZM170.053 37.136V34.256H166.053V37.136H170.053ZM167.136 36.0332C167.999 36.4787 168.992 36.8776 170.098 37.2377L171.336 33.4343C170.378 33.1224 169.595 32.8013 168.97 32.4788L167.136 36.0332ZM170.138 37.2504C171.354 37.618 172.593 37.804 173.849 37.804V33.804C172.993 33.804 172.144 33.678 171.296 33.4216L170.138 37.2504ZM173.849 37.804C175.449 37.804 177.062 37.5468 178.245 36.6267L175.789 33.4693C175.676 33.5572 175.177 33.804 173.849 33.804V37.804ZM178.253 36.6206C179.413 35.7086 180.025 34.4298 180.025 32.96H176.025C176.025 33.2182 175.965 33.3314 175.781 33.4754L178.253 36.6206ZM180.025 32.96C180.025 32.0883 179.778 31.2588 179.277 30.5309L175.981 32.7971C176.009 32.8372 176.025 32.8717 176.025 32.96H180.025ZM179.325 30.604C178.839 29.8257 178.079 29.2432 177.317 28.7914L175.277 32.2326C175.526 32.3801 175.697 32.5046 175.808 32.6007C175.921 32.6985 175.945 32.743 175.933 32.724L179.325 30.604ZM177.345 28.8087C176.577 28.3362 175.543 27.8546 174.304 27.359L172.818 31.073C173.979 31.5374 174.769 31.9198 175.249 32.2153L177.345 28.8087ZM174.33 27.3698C173.234 26.9131 172.316 26.4686 171.565 26.0395L169.581 29.5125C170.51 30.0434 171.584 30.5589 172.792 31.0622L174.33 27.3698ZM171.587 26.0521C170.984 25.6977 170.584 25.3142 170.32 24.925L167.01 27.171C167.658 28.1258 168.53 28.8943 169.559 29.4999L171.587 26.0521ZM170.347 24.9665C170.18 24.7056 170.017 24.2494 170.017 23.456H166.017C166.017 24.7746 166.286 26.0464 166.983 27.1295L170.347 24.9665ZM170.017 23.456C170.017 22.4213 170.367 21.7904 171.049 21.3056L168.73 18.0464C166.915 19.3376 166.017 21.2267 166.017 23.456H170.017ZM171.034 21.3159C171.879 20.7261 173.099 20.344 174.857 20.344V16.344C172.535 16.344 170.443 16.8499 168.744 18.0361L171.034 21.3159ZM174.857 20.344C175.816 20.344 176.684 20.4482 177.468 20.6443L178.438 16.7637C177.302 16.4798 176.106 16.344 174.857 16.344V20.344ZM177.514 20.6552C178.335 20.84 179.108 21.105 179.835 21.4485L181.543 17.8315C180.542 17.359 179.491 17 178.392 16.7528L177.514 20.6552ZM178.841 18.8745L177.797 21.3945L181.493 22.9255L182.537 20.4055L178.841 18.8745ZM180.505 20.3543C179.908 20.0702 179.287 19.8306 178.643 19.6347L177.479 23.4613C177.939 23.6014 178.374 23.7698 178.785 23.9657L180.505 20.3543ZM178.718 19.659C178.059 19.4299 177.386 19.2578 176.698 19.1432L176.04 23.0888C176.505 23.1662 176.959 23.2821 177.404 23.437L178.718 19.659ZM176.794 19.1616C176.1 19.0107 175.393 18.936 174.677 18.936V22.936C175.113 22.936 175.535 22.9813 175.944 23.0704L176.794 19.1616ZM174.677 18.936C173.302 18.936 171.935 19.1807 170.839 19.9396L173.115 23.2284C173.267 23.1233 173.7 22.936 174.677 22.936V18.936ZM170.883 19.9101C169.718 20.6717 169.041 21.8526 169.041 23.276H173.041C173.041 23.241 173.045 23.2302 173.043 23.2375C173.042 23.2408 173.04 23.2471 173.037 23.2554C173.034 23.2637 173.03 23.2725 173.025 23.2811C173.02 23.2897 173.016 23.2966 173.012 23.3015C173.009 23.3063 173.007 23.3079 173.008 23.3065C173.011 23.3039 173.028 23.2862 173.072 23.2579L170.883 19.9101ZM169.041 23.276C169.041 24.1911 169.299 25.079 169.873 25.844L173.073 23.444C173.064 23.4318 173.06 23.4238 173.056 23.4117C173.052 23.3977 173.041 23.3568 173.041 23.276H169.041ZM169.873 25.844C170.396 26.5417 171.132 27.0786 171.906 27.5083L173.848 24.0117C173.326 23.7214 173.126 23.5143 173.073 23.444L169.873 25.844ZM171.983 27.5489C172.729 27.9219 173.701 28.3421 174.877 28.8076L176.349 25.0884C175.221 24.6419 174.369 24.2701 173.771 23.9711L171.983 27.5489ZM174.877 28.8076C175.96 29.2365 176.846 29.6613 177.551 30.0759L179.579 26.6281C178.652 26.0827 177.57 25.5715 176.349 25.0884L174.877 28.8076ZM177.551 30.0759C178.124 30.4131 178.468 30.773 178.676 31.1274L182.126 29.1046C181.518 28.067 180.638 27.2509 179.579 26.6281L177.551 30.0759ZM178.719 31.1975C178.891 31.4651 179.049 31.913 179.049 32.672H183.049C183.049 31.367 182.775 30.1109 182.083 29.0345L178.719 31.1975Z" fill="#FFECA0" mask="url(#path-1-outside-1_63_45)"/>
<path d="M31.435 73H29.41V68.245H25.27V73H23.26V62.29H25.27V66.61H29.41V62.29H31.435V73ZM37.0284 64.72C38.0084 64.72 38.7584 64.95 39.2784 65.41C39.7984 65.86 40.0584 66.57 40.0584 67.54V73H38.6634L38.2734 71.875H38.2134C37.9934 72.165 37.7684 72.41 37.5384 72.61C37.3084 72.8 37.0434 72.935 36.7434 73.015C36.4434 73.105 36.0834 73.15 35.6634 73.15C35.2134 73.15 34.8084 73.06 34.4484 72.88C34.0884 72.7 33.8034 72.425 33.5934 72.055C33.3834 71.675 33.2784 71.2 33.2784 70.63C33.2784 69.79 33.5684 69.16 34.1484 68.74C34.7284 68.31 35.5984 68.075 36.7584 68.035L38.0634 67.99V67.585C38.0634 67.065 37.9534 66.695 37.7334 66.475C37.5134 66.255 37.2134 66.145 36.8334 66.145C36.4734 66.145 36.1084 66.205 35.7384 66.325C35.3784 66.445 35.0234 66.585 34.6734 66.745L34.0584 65.425C34.4684 65.215 34.9234 65.045 35.4234 64.915C35.9234 64.785 36.4584 64.72 37.0284 64.72ZM37.2234 69.19C36.5134 69.22 36.0184 69.365 35.7384 69.625C35.4584 69.875 35.3184 70.215 35.3184 70.645C35.3184 71.025 35.4134 71.3 35.6034 71.47C35.8034 71.64 36.0634 71.725 36.3834 71.725C36.8534 71.725 37.2534 71.57 37.5834 71.26C37.9134 70.94 38.0784 70.47 38.0784 69.85V69.16L37.2234 69.19ZM45.4069 73.15C44.6569 73.15 44.0069 73.005 43.4569 72.715C42.9169 72.415 42.4969 71.96 42.1969 71.35C41.9069 70.73 41.7619 69.94 41.7619 68.98C41.7619 67.98 41.9219 67.17 42.2419 66.55C42.5719 65.92 43.0219 65.46 43.5919 65.17C44.1719 64.87 44.8269 64.72 45.5569 64.72C46.0169 64.72 46.4469 64.77 46.8469 64.87C47.2569 64.97 47.5969 65.09 47.8669 65.23L47.2669 66.685C46.9969 66.575 46.7269 66.48 46.4569 66.4C46.1869 66.32 45.9169 66.28 45.6469 66.28C45.2369 66.28 44.8969 66.38 44.6269 66.58C44.3569 66.78 44.1469 67.08 43.9969 67.48C43.8569 67.87 43.7869 68.365 43.7869 68.965C43.7869 69.545 43.8569 70.03 43.9969 70.42C44.1469 70.81 44.3569 71.105 44.6269 71.305C44.8969 71.495 45.2269 71.59 45.6169 71.59C46.0069 71.59 46.3669 71.535 46.6969 71.425C47.0369 71.315 47.3569 71.165 47.6569 70.975V72.61C47.3469 72.8 47.0169 72.935 46.6669 73.015C46.3169 73.105 45.8969 73.15 45.4069 73.15ZM56.3639 68.92C56.3639 69.6 56.2789 70.2 56.1089 70.72C55.9389 71.24 55.6889 71.685 55.3589 72.055C55.0389 72.415 54.6489 72.69 54.1889 72.88C53.7289 73.06 53.2139 73.15 52.6439 73.15C52.1139 73.15 51.6189 73.06 51.1589 72.88C50.7089 72.69 50.3189 72.415 49.9889 72.055C49.6689 71.685 49.4189 71.24 49.2389 70.72C49.0589 70.2 48.9689 69.6 48.9689 68.92C48.9689 68.02 49.1139 67.26 49.4039 66.64C49.7039 66.01 50.1339 65.535 50.6939 65.215C51.2539 64.885 51.9189 64.72 52.6889 64.72C53.4089 64.72 54.0439 64.885 54.5939 65.215C55.1439 65.535 55.5739 66.01 55.8839 66.64C56.2039 67.26 56.3639 68.02 56.3639 68.92ZM50.9939 68.92C50.9939 69.49 51.0539 69.98 51.1739 70.39C51.2939 70.79 51.4739 71.095 51.7139 71.305C51.9639 71.515 52.2839 71.62 52.6739 71.62C53.0639 71.62 53.3789 71.515 53.6189 71.305C53.8689 71.095 54.0489 70.79 54.1589 70.39C54.2789 69.98 54.3389 69.49 54.3389 68.92C54.3389 68.34 54.2789 67.855 54.1589 67.465C54.0389 67.065 53.8539 66.765 53.6039 66.565C53.3639 66.355 53.0489 66.25 52.6589 66.25C52.0689 66.25 51.6439 66.48 51.3839 66.94C51.1239 67.4 50.9939 68.06 50.9939 68.92ZM61.1215 69.775V68.185H64.7815V69.775H61.1215ZM76.345 73L75.52 70.165H71.86L71.035 73H68.875L72.475 62.245H74.89L78.505 73H76.345ZM74.185 65.755C74.145 65.595 74.09 65.405 74.02 65.185C73.96 64.955 73.9 64.72 73.84 64.48C73.79 64.24 73.74 64.015 73.69 63.805C73.65 64.045 73.6 64.285 73.54 64.525C73.48 64.755 73.42 64.975 73.36 65.185C73.31 65.395 73.26 65.585 73.21 65.755L72.37 68.515H75.04L74.185 65.755ZM88.504 64.72C89.384 64.72 90.044 64.955 90.484 65.425C90.924 65.895 91.144 66.655 91.144 67.705V73H89.179V68.065C89.179 67.465 89.079 67.015 88.879 66.715C88.679 66.405 88.369 66.25 87.949 66.25C87.369 66.25 86.959 66.465 86.719 66.895C86.479 67.325 86.359 67.95 86.359 68.77V73H84.379V68.065C84.379 67.665 84.334 67.33 84.244 67.06C84.154 66.79 84.019 66.59 83.839 66.46C83.659 66.32 83.429 66.25 83.149 66.25C82.749 66.25 82.434 66.36 82.204 66.58C81.974 66.79 81.809 67.1 81.709 67.51C81.619 67.92 81.574 68.425 81.574 69.025V73H79.579V64.87H81.109L81.394 65.935H81.484C81.634 65.655 81.819 65.425 82.039 65.245C82.269 65.065 82.529 64.935 82.819 64.855C83.119 64.765 83.429 64.72 83.749 64.72C84.319 64.72 84.794 64.825 85.174 65.035C85.564 65.235 85.864 65.55 86.074 65.98H86.179C86.429 65.54 86.759 65.22 87.169 65.02C87.589 64.82 88.034 64.72 88.504 64.72ZM98.6303 70.645C98.6303 71.185 98.5103 71.645 98.2703 72.025C98.0303 72.395 97.6753 72.675 97.2053 72.865C96.7353 73.055 96.1453 73.15 95.4353 73.15C94.8953 73.15 94.4253 73.11 94.0253 73.03C93.6253 72.95 93.2403 72.825 92.8703 72.655V71.05C93.2703 71.24 93.7003 71.4 94.1603 71.53C94.6303 71.66 95.0553 71.725 95.4353 71.725C95.8853 71.725 96.2103 71.645 96.4103 71.485C96.6103 71.325 96.7103 71.11 96.7103 70.84C96.7103 70.68 96.6653 70.535 96.5753 70.405C96.4953 70.275 96.3253 70.14 96.0653 70C95.8153 69.85 95.4503 69.665 94.9703 69.445C94.5003 69.235 94.1103 69.025 93.8003 68.815C93.4903 68.605 93.2553 68.355 93.0953 68.065C92.9353 67.765 92.8553 67.39 92.8553 66.94C92.8553 66.21 93.1303 65.66 93.6803 65.29C94.2403 64.91 94.9703 64.72 95.8703 64.72C96.3603 64.72 96.8153 64.77 97.2353 64.87C97.6653 64.96 98.0953 65.11 98.5253 65.32L97.9403 66.715C97.7003 66.605 97.4553 66.51 97.2053 66.43C96.9653 66.34 96.7303 66.27 96.5003 66.22C96.2803 66.17 96.0603 66.145 95.8403 66.145C95.4903 66.145 95.2253 66.21 95.0453 66.34C94.8653 66.46 94.7753 66.635 94.7753 66.865C94.7753 67.025 94.8203 67.17 94.9103 67.3C95.0003 67.42 95.1703 67.545 95.4203 67.675C95.6703 67.805 96.0253 67.97 96.4853 68.17C96.9453 68.35 97.3353 68.545 97.6553 68.755C97.9753 68.955 98.2153 69.205 98.3753 69.505C98.5453 69.805 98.6303 70.185 98.6303 70.645ZM103.472 71.635C103.692 71.635 103.902 71.615 104.102 71.575C104.312 71.525 104.507 71.47 104.687 71.41V72.82C104.477 72.91 104.222 72.985 103.922 73.045C103.622 73.115 103.287 73.15 102.917 73.15C102.457 73.15 102.047 73.075 101.687 72.925C101.327 72.765 101.042 72.495 100.832 72.115C100.632 71.735 100.532 71.205 100.532 70.525V66.295H99.5119V65.47L100.652 64.81L101.252 63.085H102.512V64.87H104.612V66.295H102.512V70.51C102.512 70.89 102.597 71.175 102.767 71.365C102.947 71.545 103.182 71.635 103.472 71.635ZM109.361 64.72C110.061 64.72 110.661 64.87 111.161 65.17C111.671 65.46 112.066 65.88 112.346 66.43C112.626 66.97 112.766 67.63 112.766 68.41V69.37H107.786C107.806 70.11 107.986 70.685 108.326 71.095C108.676 71.495 109.166 71.695 109.796 71.695C110.296 71.695 110.741 71.645 111.131 71.545C111.521 71.435 111.926 71.28 112.346 71.08V72.595C111.966 72.785 111.571 72.925 111.161 73.015C110.751 73.105 110.246 73.15 109.646 73.15C108.886 73.15 108.211 73 107.621 72.7C107.041 72.39 106.586 71.925 106.256 71.305C105.926 70.685 105.761 69.915 105.761 68.995C105.761 68.065 105.911 67.285 106.211 66.655C106.511 66.015 106.931 65.535 107.471 65.215C108.021 64.885 108.651 64.72 109.361 64.72ZM109.391 66.115C108.941 66.115 108.576 66.28 108.296 66.61C108.026 66.93 107.866 67.41 107.816 68.05H110.876C110.876 67.67 110.821 67.335 110.711 67.045C110.601 66.755 110.436 66.53 110.216 66.37C110.006 66.2 109.731 66.115 109.391 66.115ZM118.627 64.72C118.767 64.72 118.912 64.725 119.062 64.735C119.212 64.745 119.337 64.765 119.437 64.795L119.257 66.55C119.157 66.53 119.037 66.515 118.897 66.505C118.767 66.485 118.627 66.475 118.477 66.475C118.227 66.475 117.982 66.525 117.742 66.625C117.502 66.715 117.287 66.855 117.097 67.045C116.907 67.225 116.752 67.46 116.632 67.75C116.522 68.04 116.467 68.385 116.467 68.785V73H114.472V64.87H116.002L116.272 66.28H116.377C116.527 65.99 116.712 65.73 116.932 65.5C117.162 65.26 117.417 65.07 117.697 64.93C117.987 64.79 118.297 64.72 118.627 64.72ZM122.983 73.15C122.113 73.15 121.408 72.8 120.868 72.1C120.328 71.39 120.058 70.34 120.058 68.95C120.058 67.56 120.333 66.51 120.883 65.8C121.433 65.08 122.153 64.72 123.043 64.72C123.413 64.72 123.733 64.775 124.003 64.885C124.283 64.985 124.523 65.125 124.723 65.305C124.923 65.485 125.098 65.685 125.248 65.905H125.308C125.288 65.765 125.263 65.55 125.233 65.26C125.203 64.97 125.188 64.7 125.188 64.45V61.6H127.183V73H125.653L125.278 71.935H125.188C125.058 72.155 124.893 72.36 124.693 72.55C124.493 72.73 124.253 72.875 123.973 72.985C123.693 73.095 123.363 73.15 122.983 73.15ZM123.643 71.62C124.253 71.62 124.683 71.42 124.933 71.02C125.183 70.62 125.308 70.015 125.308 69.205V68.965C125.308 68.085 125.188 67.415 124.948 66.955C124.708 66.495 124.268 66.265 123.628 66.265C123.128 66.265 122.743 66.505 122.473 66.985C122.213 67.455 122.083 68.12 122.083 68.98C122.083 69.84 122.218 70.495 122.488 70.945C122.758 71.395 123.143 71.62 123.643 71.62ZM132.595 64.72C133.575 64.72 134.325 64.95 134.845 65.41C135.365 65.86 135.625 66.57 135.625 67.54V73H134.23L133.84 71.875H133.78C133.56 72.165 133.335 72.41 133.105 72.61C132.875 72.8 132.61 72.935 132.31 73.015C132.01 73.105 131.65 73.15 131.23 73.15C130.78 73.15 130.375 73.06 130.015 72.88C129.655 72.7 129.37 72.425 129.16 72.055C128.95 71.675 128.845 71.2 128.845 70.63C128.845 69.79 129.135 69.16 129.715 68.74C130.295 68.31 131.165 68.075 132.325 68.035L133.63 67.99V67.585C133.63 67.065 133.52 66.695 133.3 66.475C133.08 66.255 132.78 66.145 132.4 66.145C132.04 66.145 131.675 66.205 131.305 66.325C130.945 66.445 130.59 66.585 130.24 66.745L129.625 65.425C130.035 65.215 130.49 65.045 130.99 64.915C131.49 64.785 132.025 64.72 132.595 64.72ZM132.79 69.19C132.08 69.22 131.585 69.365 131.305 69.625C131.025 69.875 130.885 70.215 130.885 70.645C130.885 71.025 130.98 71.3 131.17 71.47C131.37 71.64 131.63 71.725 131.95 71.725C132.42 71.725 132.82 71.57 133.15 71.26C133.48 70.94 133.645 70.47 133.645 69.85V69.16L132.79 69.19ZM146.658 64.72C147.538 64.72 148.198 64.955 148.638 65.425C149.078 65.895 149.298 66.655 149.298 67.705V73H147.333V68.065C147.333 67.465 147.233 67.015 147.033 66.715C146.833 66.405 146.523 66.25 146.103 66.25C145.523 66.25 145.113 66.465 144.873 66.895C144.633 67.325 144.513 67.95 144.513 68.77V73H142.533V68.065C142.533 67.665 142.488 67.33 142.398 67.06C142.308 66.79 142.173 66.59 141.993 66.46C141.813 66.32 141.583 66.25 141.303 66.25C140.903 66.25 140.588 66.36 140.358 66.58C140.128 66.79 139.963 67.1 139.863 67.51C139.773 67.92 139.728 68.425 139.728 69.025V73H137.733V64.87H139.263L139.548 65.935H139.638C139.788 65.655 139.973 65.425 140.193 65.245C140.423 65.065 140.683 64.935 140.973 64.855C141.273 64.765 141.583 64.72 141.903 64.72C142.473 64.72 142.948 64.825 143.328 65.035C143.718 65.235 144.018 65.55 144.228 65.98H144.333C144.583 65.54 144.913 65.22 145.323 65.02C145.743 64.82 146.188 64.72 146.658 64.72Z" fill="black"/>
<path d="M25.86 84L23.7 77.74H23.66C23.6733 77.8733 23.6833 78.0433 23.69 78.25C23.7033 78.4567 23.7133 78.6833 23.72 78.93C23.7267 79.17 23.73 79.4167 23.73 79.67V84H22.91V76.86H24.21L26.24 82.71H26.28L28.35 76.86H29.65V84H28.77V79.61C28.77 79.3767 28.7733 79.1467 28.78 78.92C28.7867 78.6867 28.7967 78.47 28.81 78.27C28.8233 78.0633 28.8333 77.89 28.84 77.75H28.8L26.6 84H25.86ZM33.2845 78.55C33.8978 78.55 34.3545 78.6933 34.6545 78.98C34.9611 79.2667 35.1145 79.7233 35.1145 80.35V84H34.4845L34.3145 83.24H34.2745C34.1278 83.4333 33.9778 83.5967 33.8245 83.73C33.6778 83.8567 33.5045 83.95 33.3045 84.01C33.1111 84.07 32.8711 84.1 32.5845 84.1C32.2845 84.1 32.0145 84.0433 31.7745 83.93C31.5345 83.8167 31.3445 83.6433 31.2045 83.41C31.0645 83.17 30.9945 82.87 30.9945 82.51C30.9945 81.9767 31.1911 81.5667 31.5845 81.28C31.9778 80.9867 32.5845 80.8267 33.4045 80.8L34.2545 80.77V80.45C34.2545 80.0033 34.1645 79.6933 33.9845 79.52C33.8111 79.3467 33.5611 79.26 33.2345 79.26C32.9745 79.26 32.7245 79.3033 32.4845 79.39C32.2511 79.47 32.0278 79.5633 31.8145 79.67L31.5445 79.01C31.7711 78.8833 32.0345 78.7767 32.3345 78.69C32.6345 78.5967 32.9511 78.55 33.2845 78.55ZM33.5245 81.41C32.9111 81.4367 32.4845 81.5433 32.2445 81.73C32.0111 81.9167 31.8945 82.18 31.8945 82.52C31.8945 82.82 31.9778 83.04 32.1445 83.18C32.3111 83.32 32.5278 83.39 32.7945 83.39C33.2078 83.39 33.5545 83.2667 33.8345 83.02C34.1145 82.7667 34.2545 82.38 34.2545 81.86V81.38L33.5245 81.41ZM39.057 78.54C39.1503 78.54 39.2503 78.5467 39.357 78.56C39.4636 78.5667 39.557 78.58 39.637 78.6L39.537 79.41C39.457 79.39 39.367 79.3733 39.267 79.36C39.1736 79.3467 39.0836 79.34 38.997 79.34C38.8036 79.34 38.6203 79.3833 38.447 79.47C38.2736 79.5567 38.117 79.68 37.977 79.84C37.8436 79.9933 37.737 80.18 37.657 80.4C37.577 80.62 37.537 80.8667 37.537 81.14V84H36.667V78.64H37.377L37.477 79.62H37.517C37.6236 79.42 37.7503 79.24 37.897 79.08C38.0503 78.9133 38.2236 78.7833 38.417 78.69C38.6103 78.59 38.8236 78.54 39.057 78.54ZM38.8516 83.46C38.8516 83.2133 38.9083 83.04 39.0216 82.94C39.135 82.84 39.275 82.79 39.4416 82.79C39.6083 82.79 39.7516 82.84 39.8716 82.94C39.9916 83.04 40.0516 83.2133 40.0516 83.46C40.0516 83.7 39.9916 83.8733 39.8716 83.98C39.7516 84.0867 39.6083 84.14 39.4416 84.14C39.275 84.14 39.135 84.0867 39.0216 83.98C38.9083 83.8733 38.8516 83.7 38.8516 83.46ZM48.0721 84H43.6121V83.27L45.3621 81.38C45.6954 81.02 45.9754 80.7 46.2021 80.42C46.4354 80.14 46.6121 79.8667 46.7321 79.6C46.8521 79.3267 46.9121 79.03 46.9121 78.71C46.9121 78.3167 46.8054 78.02 46.5921 77.82C46.3788 77.6133 46.0988 77.51 45.7521 77.51C45.4321 77.51 45.1488 77.57 44.9021 77.69C44.6554 77.81 44.4054 77.9767 44.1521 78.19L43.6821 77.6C43.8621 77.44 44.0554 77.2967 44.2621 77.17C44.4688 77.0433 44.6954 76.9433 44.9421 76.87C45.1954 76.7967 45.4688 76.76 45.7621 76.76C46.1821 76.76 46.5421 76.8367 46.8421 76.99C47.1488 77.1433 47.3854 77.3633 47.5521 77.65C47.7188 77.93 47.8021 78.2667 47.8021 78.66C47.8021 78.94 47.7588 79.2067 47.6721 79.46C47.5921 79.7067 47.4754 79.95 47.3221 80.19C47.1688 80.43 46.9854 80.6733 46.7721 80.92C46.5654 81.1667 46.3321 81.4267 46.0721 81.7L44.7021 83.16L44.7121 83.2H48.0721V84ZM53.4532 80.42C53.4532 81 53.4099 81.5167 53.3232 81.97C53.2432 82.4233 53.1132 82.81 52.9332 83.13C52.7599 83.4433 52.5299 83.6833 52.2432 83.85C51.9565 84.0167 51.6132 84.1 51.2132 84.1C50.7065 84.1 50.2865 83.9533 49.9532 83.66C49.6265 83.3667 49.3832 82.9467 49.2232 82.4C49.0632 81.8467 48.9832 81.1867 48.9832 80.42C48.9832 79.6467 49.0565 78.9867 49.2032 78.44C49.3499 77.8933 49.5865 77.4767 49.9132 77.19C50.2399 76.8967 50.6732 76.75 51.2132 76.75C51.7199 76.75 52.1365 76.8967 52.4632 77.19C52.7965 77.4767 53.0432 77.8933 53.2032 78.44C53.3699 78.9867 53.4532 79.6467 53.4532 80.42ZM49.8532 80.42C49.8532 81.0733 49.8965 81.6167 49.9832 82.05C50.0765 82.4833 50.2232 82.81 50.4232 83.03C50.6232 83.2433 50.8865 83.35 51.2132 83.35C51.5399 83.35 51.8032 83.2433 52.0032 83.03C52.2032 82.8167 52.3465 82.4933 52.4332 82.06C52.5265 81.62 52.5732 81.0733 52.5732 80.42C52.5732 79.7667 52.5265 79.2267 52.4332 78.8C52.3465 78.3667 52.2032 78.0433 52.0032 77.83C51.8032 77.61 51.5399 77.5 51.2132 77.5C50.8865 77.5 50.6232 77.61 50.4232 77.83C50.2232 78.0433 50.0765 78.3667 49.9832 78.8C49.8965 79.2267 49.8532 79.7667 49.8532 80.42ZM58.8143 84H54.3543V83.27L56.1043 81.38C56.4376 81.02 56.7176 80.7 56.9443 80.42C57.1776 80.14 57.3543 79.8667 57.4743 79.6C57.5943 79.3267 57.6543 79.03 57.6543 78.71C57.6543 78.3167 57.5476 78.02 57.3343 77.82C57.121 77.6133 56.841 77.51 56.4943 77.51C56.1743 77.51 55.891 77.57 55.6443 77.69C55.3976 77.81 55.1476 77.9767 54.8943 78.19L54.4243 77.6C54.6043 77.44 54.7976 77.2967 55.0043 77.17C55.211 77.0433 55.4376 76.9433 55.6843 76.87C55.9376 76.7967 56.211 76.76 56.5043 76.76C56.9243 76.76 57.2843 76.8367 57.5843 76.99C57.891 77.1433 58.1276 77.3633 58.2943 77.65C58.461 77.93 58.5443 78.2667 58.5443 78.66C58.5443 78.94 58.501 79.2067 58.4143 79.46C58.3343 79.7067 58.2176 79.95 58.0643 80.19C57.911 80.43 57.7276 80.6733 57.5143 80.92C57.3076 81.1667 57.0743 81.4267 56.8143 81.7L55.4443 83.16L55.4543 83.2H58.8143V84ZM63.9254 78.53C63.9254 78.85 63.8654 79.1267 63.7454 79.36C63.6321 79.5933 63.4721 79.7833 63.2654 79.93C63.0587 80.0767 62.8121 80.18 62.5254 80.24V80.28C63.0654 80.3467 63.4687 80.5267 63.7354 80.82C64.0021 81.1133 64.1354 81.4967 64.1354 81.97C64.1354 82.3833 64.0421 82.7533 63.8554 83.08C63.6754 83.4 63.3921 83.65 63.0054 83.83C62.6254 84.01 62.1387 84.1 61.5454 84.1C61.1921 84.1 60.8654 84.07 60.5654 84.01C60.2654 83.9567 59.9754 83.8567 59.6954 83.71V82.89C59.9754 83.0367 60.2787 83.1533 60.6054 83.24C60.9321 83.32 61.2454 83.36 61.5454 83.36C62.1387 83.36 62.5654 83.2367 62.8254 82.99C63.0854 82.7367 63.2154 82.39 63.2154 81.95C63.2154 81.65 63.1421 81.41 62.9954 81.23C62.8554 81.0433 62.6454 80.9067 62.3654 80.82C62.0921 80.7333 61.7554 80.69 61.3554 80.69H60.7254V79.94H61.3654C61.7387 79.94 62.0487 79.8833 62.2954 79.77C62.5421 79.6567 62.7254 79.5 62.8454 79.3C62.9721 79.0933 63.0354 78.8567 63.0354 78.59C63.0354 78.2433 62.9287 77.9767 62.7154 77.79C62.5021 77.5967 62.2087 77.5 61.8354 77.5C61.5954 77.5 61.3787 77.5267 61.1854 77.58C60.9921 77.6267 60.8121 77.6967 60.6454 77.79C60.4854 77.8767 60.3254 77.98 60.1654 78.1L59.7354 77.5C59.8954 77.3667 60.0787 77.2433 60.2854 77.13C60.4987 77.0167 60.7354 76.9267 60.9954 76.86C61.2554 76.7933 61.5354 76.76 61.8354 76.76C62.5354 76.76 63.0587 76.9267 63.4054 77.26C63.7521 77.5933 63.9254 78.0167 63.9254 78.53ZM67.4579 81.71V80.93H69.7479V81.71H67.4579ZM72.5366 85.9C72.3833 85.9 72.25 85.8867 72.1366 85.86C72.0166 85.84 71.9133 85.81 71.8266 85.77V85.01C71.9266 85.0367 72.0333 85.06 72.1466 85.08C72.26 85.1 72.38 85.11 72.5066 85.11C72.6666 85.11 72.8133 85.0767 72.9466 85.01C73.0866 84.9433 73.2 84.8267 73.2866 84.66C73.3733 84.4933 73.4166 84.26 73.4166 83.96V76.86H74.3066V83.89C74.3066 84.35 74.2333 84.7267 74.0866 85.02C73.94 85.32 73.7333 85.54 73.4666 85.68C73.2066 85.8267 72.8966 85.9 72.5366 85.9ZM80.1943 78.64V84H79.4943L79.3643 83.29H79.3243C79.2176 83.4767 79.0776 83.63 78.9043 83.75C78.7376 83.87 78.5543 83.9567 78.3543 84.01C78.1543 84.07 77.9443 84.1 77.7243 84.1C77.3243 84.1 76.9876 84.0333 76.7143 83.9C76.441 83.76 76.2343 83.5467 76.0943 83.26C75.961 82.9733 75.8943 82.6033 75.8943 82.15V78.64H76.7743V82.09C76.7743 82.5167 76.8643 82.8367 77.0443 83.05C77.2243 83.2633 77.501 83.37 77.8743 83.37C78.241 83.37 78.5276 83.2967 78.7343 83.15C78.9476 82.9967 79.0976 82.7767 79.1843 82.49C79.2776 82.1967 79.3243 81.8433 79.3243 81.43V78.64H80.1943ZM82.6444 84H81.7744V76.4H82.6444V84ZM84.1055 83.46C84.1055 83.2133 84.1622 83.04 84.2755 82.94C84.3889 82.84 84.5289 82.79 84.6955 82.79C84.8622 82.79 85.0055 82.84 85.1255 82.94C85.2455 83.04 85.3055 83.2133 85.3055 83.46C85.3055 83.7 85.2455 83.8733 85.1255 83.98C85.0055 84.0867 84.8622 84.14 84.6955 84.14C84.5289 84.14 84.3889 84.0867 84.2755 83.98C84.1622 83.8733 84.1055 83.7 84.1055 83.46ZM93.326 84H88.866V83.27L90.616 81.38C90.9493 81.02 91.2293 80.7 91.456 80.42C91.6893 80.14 91.866 79.8667 91.986 79.6C92.106 79.3267 92.166 79.03 92.166 78.71C92.166 78.3167 92.0593 78.02 91.846 77.82C91.6327 77.6133 91.3527 77.51 91.006 77.51C90.686 77.51 90.4027 77.57 90.156 77.69C89.9093 77.81 89.6593 77.9767 89.406 78.19L88.936 77.6C89.116 77.44 89.3093 77.2967 89.516 77.17C89.7227 77.0433 89.9493 76.9433 90.196 76.87C90.4493 76.7967 90.7227 76.76 91.016 76.76C91.436 76.76 91.796 76.8367 92.096 76.99C92.4027 77.1433 92.6393 77.3633 92.806 77.65C92.9727 77.93 93.056 78.2667 93.056 78.66C93.056 78.94 93.0127 79.2067 92.926 79.46C92.846 79.7067 92.7293 79.95 92.576 80.19C92.4227 80.43 92.2393 80.6733 92.026 80.92C91.8193 81.1667 91.586 81.4267 91.326 81.7L89.956 83.16L89.966 83.2H93.326V84ZM98.7071 80.42C98.7071 81 98.6638 81.5167 98.5771 81.97C98.4971 82.4233 98.3671 82.81 98.1871 83.13C98.0138 83.4433 97.7838 83.6833 97.4971 83.85C97.2104 84.0167 96.8671 84.1 96.4671 84.1C95.9604 84.1 95.5404 83.9533 95.2071 83.66C94.8804 83.3667 94.6371 82.9467 94.4771 82.4C94.3171 81.8467 94.2371 81.1867 94.2371 80.42C94.2371 79.6467 94.3104 78.9867 94.4571 78.44C94.6038 77.8933 94.8404 77.4767 95.1671 77.19C95.4938 76.8967 95.9271 76.75 96.4671 76.75C96.9738 76.75 97.3904 76.8967 97.7171 77.19C98.0504 77.4767 98.2971 77.8933 98.4571 78.44C98.6238 78.9867 98.7071 79.6467 98.7071 80.42ZM95.1071 80.42C95.1071 81.0733 95.1504 81.6167 95.2371 82.05C95.3304 82.4833 95.4771 82.81 95.6771 83.03C95.8771 83.2433 96.1404 83.35 96.4671 83.35C96.7938 83.35 97.0571 83.2433 97.2571 83.03C97.4571 82.8167 97.6004 82.4933 97.6871 82.06C97.7804 81.62 97.8271 81.0733 97.8271 80.42C97.8271 79.7667 97.7804 79.2267 97.6871 78.8C97.6004 78.3667 97.4571 78.0433 97.2571 77.83C97.0571 77.61 96.7938 77.5 96.4671 77.5C96.1404 77.5 95.8771 77.61 95.6771 77.83C95.4771 78.0433 95.3304 78.3667 95.2371 78.8C95.1504 79.2267 95.1071 79.7667 95.1071 80.42ZM104.068 84H99.6082V83.27L101.358 81.38C101.692 81.02 101.972 80.7 102.198 80.42C102.432 80.14 102.608 79.8667 102.728 79.6C102.848 79.3267 102.908 79.03 102.908 78.71C102.908 78.3167 102.802 78.02 102.588 77.82C102.375 77.6133 102.095 77.51 101.748 77.51C101.428 77.51 101.145 77.57 100.898 77.69C100.652 77.81 100.402 77.9767 100.148 78.19L99.6782 77.6C99.8582 77.44 100.052 77.2967 100.258 77.17C100.465 77.0433 100.692 76.9433 100.938 76.87C101.192 76.7967 101.465 76.76 101.758 76.76C102.178 76.76 102.538 76.8367 102.838 76.99C103.145 77.1433 103.382 77.3633 103.548 77.65C103.715 77.93 103.798 78.2667 103.798 78.66C103.798 78.94 103.755 79.2067 103.668 79.46C103.588 79.7067 103.472 79.95 103.318 80.19C103.165 80.43 102.982 80.6733 102.768 80.92C102.562 81.1667 102.328 81.4267 102.068 81.7L100.698 83.16L100.708 83.2H104.068V84ZM109.179 78.53C109.179 78.85 109.119 79.1267 108.999 79.36C108.886 79.5933 108.726 79.7833 108.519 79.93C108.313 80.0767 108.066 80.18 107.779 80.24V80.28C108.319 80.3467 108.723 80.5267 108.989 80.82C109.256 81.1133 109.389 81.4967 109.389 81.97C109.389 82.3833 109.296 82.7533 109.109 83.08C108.929 83.4 108.646 83.65 108.259 83.83C107.879 84.01 107.393 84.1 106.799 84.1C106.446 84.1 106.119 84.07 105.819 84.01C105.519 83.9567 105.229 83.8567 104.949 83.71V82.89C105.229 83.0367 105.533 83.1533 105.859 83.24C106.186 83.32 106.499 83.36 106.799 83.36C107.393 83.36 107.819 83.2367 108.079 82.99C108.339 82.7367 108.469 82.39 108.469 81.95C108.469 81.65 108.396 81.41 108.249 81.23C108.109 81.0433 107.899 80.9067 107.619 80.82C107.346 80.7333 107.009 80.69 106.609 80.69H105.979V79.94H106.619C106.993 79.94 107.303 79.8833 107.549 79.77C107.796 79.6567 107.979 79.5 108.099 79.3C108.226 79.0933 108.289 78.8567 108.289 78.59C108.289 78.2433 108.183 77.9767 107.969 77.79C107.756 77.5967 107.463 77.5 107.089 77.5C106.849 77.5 106.633 77.5267 106.439 77.58C106.246 77.6267 106.066 77.6967 105.899 77.79C105.739 77.8767 105.579 77.98 105.419 78.1L104.989 77.5C105.149 77.3667 105.333 77.2433 105.539 77.13C105.753 77.0167 105.989 76.9267 106.249 76.86C106.509 76.7933 106.789 76.76 107.089 76.76C107.789 76.76 108.313 76.9267 108.659 77.26C109.006 77.5933 109.179 78.0167 109.179 78.53Z" fill="black"/>
<path d="M9 71L9 109" stroke="#FFB4C7" stroke-width="2" stroke-linecap="round"/>
<path d="M26.35 100.29C27.65 100.29 28.605 100.58 29.215 101.16C29.825 101.74 30.13 102.54 30.13 103.56C30.13 104.02 30.065 104.46 29.935 104.88C29.805 105.29 29.585 105.66 29.275 105.99C28.975 106.32 28.575 106.58 28.075 106.77C27.575 106.96 26.96 107.055 26.23 107.055H25.27V111H23.26V100.29H26.35ZM26.275 101.88H25.27V105.465H26.02C26.46 105.465 26.835 105.405 27.145 105.285C27.455 105.155 27.69 104.955 27.85 104.685C28.02 104.415 28.105 104.065 28.105 103.635C28.105 103.045 27.955 102.605 27.655 102.315C27.355 102.025 26.895 101.88 26.275 101.88ZM36.0094 102.72C36.1494 102.72 36.2944 102.725 36.4444 102.735C36.5944 102.745 36.7194 102.765 36.8194 102.795L36.6394 104.55C36.5394 104.53 36.4194 104.515 36.2794 104.505C36.1494 104.485 36.0094 104.475 35.8594 104.475C35.6094 104.475 35.3644 104.525 35.1244 104.625C34.8844 104.715 34.6694 104.855 34.4794 105.045C34.2894 105.225 34.1344 105.46 34.0144 105.75C33.9044 106.04 33.8494 106.385 33.8494 106.785V111H31.8544V102.87H33.3844L33.6544 104.28H33.7594C33.9094 103.99 34.0944 103.73 34.3144 103.5C34.5444 103.26 34.7994 103.07 35.0794 102.93C35.3694 102.79 35.6794 102.72 36.0094 102.72ZM44.8356 106.92C44.8356 107.6 44.7506 108.2 44.5806 108.72C44.4106 109.24 44.1606 109.685 43.8306 110.055C43.5106 110.415 43.1206 110.69 42.6606 110.88C42.2006 111.06 41.6856 111.15 41.1156 111.15C40.5856 111.15 40.0906 111.06 39.6306 110.88C39.1806 110.69 38.7906 110.415 38.4606 110.055C38.1406 109.685 37.8906 109.24 37.7106 108.72C37.5306 108.2 37.4406 107.6 37.4406 106.92C37.4406 106.02 37.5856 105.26 37.8756 104.64C38.1756 104.01 38.6056 103.535 39.1656 103.215C39.7256 102.885 40.3906 102.72 41.1606 102.72C41.8806 102.72 42.5156 102.885 43.0656 103.215C43.6156 103.535 44.0456 104.01 44.3556 104.64C44.6756 105.26 44.8356 106.02 44.8356 106.92ZM39.4656 106.92C39.4656 107.49 39.5256 107.98 39.6456 108.39C39.7656 108.79 39.9456 109.095 40.1856 109.305C40.4356 109.515 40.7556 109.62 41.1456 109.62C41.5356 109.62 41.8506 109.515 42.0906 109.305C42.3406 109.095 42.5206 108.79 42.6306 108.39C42.7506 107.98 42.8106 107.49 42.8106 106.92C42.8106 106.34 42.7506 105.855 42.6306 105.465C42.5106 105.065 42.3256 104.765 42.0756 104.565C41.8356 104.355 41.5206 104.25 41.1306 104.25C40.5406 104.25 40.1156 104.48 39.8556 104.94C39.5956 105.4 39.4656 106.06 39.4656 106.92ZM50.8511 102.72C51.7011 102.72 52.3711 102.955 52.8611 103.425C53.3511 103.895 53.5961 104.655 53.5961 105.705V111H51.6011V106.08C51.6011 105.47 51.4961 105.015 51.2861 104.715C51.0761 104.405 50.7461 104.25 50.2961 104.25C49.6261 104.25 49.1711 104.49 48.9311 104.97C48.6911 105.44 48.5711 106.125 48.5711 107.025V111H46.5761V102.87H48.1061L48.3911 103.935H48.4661C48.6461 103.655 48.8561 103.425 49.0961 103.245C49.3361 103.065 49.6061 102.935 49.9061 102.855C50.2061 102.765 50.5211 102.72 50.8511 102.72ZM58.8967 109.635C59.1167 109.635 59.3267 109.615 59.5267 109.575C59.7367 109.525 59.9317 109.47 60.1117 109.41V110.82C59.9017 110.91 59.6467 110.985 59.3467 111.045C59.0467 111.115 58.7117 111.15 58.3417 111.15C57.8817 111.15 57.4717 111.075 57.1117 110.925C56.7517 110.765 56.4667 110.495 56.2567 110.115C56.0567 109.735 55.9567 109.205 55.9567 108.525V104.295H54.9367V103.47L56.0767 102.81L56.6767 101.085H57.9367V102.87H60.0367V104.295H57.9367V108.51C57.9367 108.89 58.0217 109.175 58.1917 109.365C58.3717 109.545 58.6067 109.635 58.8967 109.635ZM68.5807 106.92C68.5807 107.6 68.4957 108.2 68.3257 108.72C68.1557 109.24 67.9057 109.685 67.5757 110.055C67.2557 110.415 66.8657 110.69 66.4057 110.88C65.9457 111.06 65.4307 111.15 64.8607 111.15C64.3307 111.15 63.8357 111.06 63.3757 110.88C62.9257 110.69 62.5357 110.415 62.2057 110.055C61.8857 109.685 61.6357 109.24 61.4557 108.72C61.2757 108.2 61.1857 107.6 61.1857 106.92C61.1857 106.02 61.3307 105.26 61.6207 104.64C61.9207 104.01 62.3507 103.535 62.9107 103.215C63.4707 102.885 64.1357 102.72 64.9057 102.72C65.6257 102.72 66.2607 102.885 66.8107 103.215C67.3607 103.535 67.7907 104.01 68.1007 104.64C68.4207 105.26 68.5807 106.02 68.5807 106.92ZM63.2107 106.92C63.2107 107.49 63.2707 107.98 63.3907 108.39C63.5107 108.79 63.6907 109.095 63.9307 109.305C64.1807 109.515 64.5007 109.62 64.8907 109.62C65.2807 109.62 65.5957 109.515 65.8357 109.305C66.0857 109.095 66.2657 108.79 66.3757 108.39C66.4957 107.98 66.5557 107.49 66.5557 106.92C66.5557 106.34 66.4957 105.855 66.3757 105.465C66.2557 105.065 66.0707 104.765 65.8207 104.565C65.5807 104.355 65.2657 104.25 64.8757 104.25C64.2857 104.25 63.8607 104.48 63.6007 104.94C63.3407 105.4 63.2107 106.06 63.2107 106.92ZM86.5383 100.29L83.9583 111H81.6783L80.2233 104.85C80.1933 104.7 80.1533 104.515 80.1033 104.295C80.0633 104.075 80.0183 103.85 79.9683 103.62C79.9183 103.38 79.8783 103.16 79.8483 102.96C79.8183 102.75 79.7933 102.595 79.7733 102.495C79.7633 102.595 79.7383 102.75 79.6983 102.96C79.6683 103.16 79.6283 103.38 79.5783 103.62C79.5383 103.85 79.4933 104.08 79.4433 104.31C79.4033 104.53 79.3633 104.72 79.3233 104.88L77.8833 111H75.6033L73.0233 100.29H75.0333L76.3533 106.395C76.3833 106.595 76.4233 106.815 76.4733 107.055C76.5233 107.285 76.5683 107.525 76.6083 107.775C76.6583 108.015 76.7033 108.255 76.7433 108.495C76.7833 108.725 76.8133 108.93 76.8333 109.11C76.8633 108.92 76.8983 108.71 76.9383 108.48C76.9783 108.24 77.0183 108 77.0583 107.76C77.1083 107.51 77.1583 107.27 77.2083 107.04C77.2583 106.81 77.3033 106.61 77.3433 106.44L78.8133 100.29H80.7333L82.2183 106.485C82.2583 106.655 82.3033 106.855 82.3533 107.085C82.4033 107.305 82.4483 107.54 82.4883 107.79C82.5383 108.03 82.5833 108.265 82.6233 108.495C82.6633 108.725 82.6983 108.93 82.7283 109.11C82.7583 108.86 82.7983 108.575 82.8483 108.255C82.9083 107.935 82.9733 107.61 83.0433 107.28C83.1133 106.95 83.1733 106.655 83.2233 106.395L84.5433 100.29H86.5383ZM94.4645 106.92C94.4645 107.6 94.3795 108.2 94.2095 108.72C94.0395 109.24 93.7895 109.685 93.4595 110.055C93.1395 110.415 92.7495 110.69 92.2895 110.88C91.8295 111.06 91.3145 111.15 90.7445 111.15C90.2145 111.15 89.7195 111.06 89.2595 110.88C88.8095 110.69 88.4195 110.415 88.0895 110.055C87.7695 109.685 87.5195 109.24 87.3395 108.72C87.1595 108.2 87.0695 107.6 87.0695 106.92C87.0695 106.02 87.2145 105.26 87.5045 104.64C87.8045 104.01 88.2345 103.535 88.7945 103.215C89.3545 102.885 90.0195 102.72 90.7895 102.72C91.5095 102.72 92.1445 102.885 92.6945 103.215C93.2445 103.535 93.6745 104.01 93.9845 104.64C94.3045 105.26 94.4645 106.02 94.4645 106.92ZM89.0945 106.92C89.0945 107.49 89.1545 107.98 89.2745 108.39C89.3945 108.79 89.5745 109.095 89.8145 109.305C90.0645 109.515 90.3845 109.62 90.7745 109.62C91.1645 109.62 91.4795 109.515 91.7195 109.305C91.9695 109.095 92.1495 108.79 92.2595 108.39C92.3795 107.98 92.4395 107.49 92.4395 106.92C92.4395 106.34 92.3795 105.855 92.2595 105.465C92.1395 105.065 91.9545 104.765 91.7045 104.565C91.4645 104.355 91.1495 104.25 90.7595 104.25C90.1695 104.25 89.7445 104.48 89.4845 104.94C89.2245 105.4 89.0945 106.06 89.0945 106.92ZM100.48 102.72C101.33 102.72 102 102.955 102.49 103.425C102.98 103.895 103.225 104.655 103.225 105.705V111H101.23V106.08C101.23 105.47 101.125 105.015 100.915 104.715C100.705 104.405 100.375 104.25 99.925 104.25C99.255 104.25 98.8 104.49 98.56 104.97C98.32 105.44 98.2 106.125 98.2 107.025V111H96.205V102.87H97.735L98.02 103.935H98.095C98.275 103.655 98.485 103.425 98.725 103.245C98.965 103.065 99.235 102.935 99.535 102.855C99.835 102.765 100.15 102.72 100.48 102.72ZM108.541 102.72C109.241 102.72 109.841 102.87 110.341 103.17C110.851 103.46 111.246 103.88 111.526 104.43C111.806 104.97 111.946 105.63 111.946 106.41V107.37H106.966C106.986 108.11 107.166 108.685 107.506 109.095C107.856 109.495 108.346 109.695 108.976 109.695C109.476 109.695 109.921 109.645 110.311 109.545C110.701 109.435 111.106 109.28 111.526 109.08V110.595C111.146 110.785 110.751 110.925 110.341 111.015C109.931 111.105 109.426 111.15 108.826 111.15C108.066 111.15 107.391 111 106.801 110.7C106.221 110.39 105.766 109.925 105.436 109.305C105.106 108.685 104.941 107.915 104.941 106.995C104.941 106.065 105.091 105.285 105.391 104.655C105.691 104.015 106.111 103.535 106.651 103.215C107.201 102.885 107.831 102.72 108.541 102.72ZM108.571 104.115C108.121 104.115 107.756 104.28 107.476 104.61C107.206 104.93 107.046 105.41 106.996 106.05H110.056C110.056 105.67 110.001 105.335 109.891 105.045C109.781 104.755 109.616 104.53 109.396 104.37C109.186 104.2 108.911 104.115 108.571 104.115ZM117.926 102.72C118.776 102.72 119.446 102.955 119.936 103.425C120.426 103.895 120.671 104.655 120.671 105.705V111H118.676V106.08C118.676 105.47 118.571 105.015 118.361 104.715C118.151 104.405 117.821 104.25 117.371 104.25C116.701 104.25 116.246 104.49 116.006 104.97C115.766 105.44 115.646 106.125 115.646 107.025V111H113.651V102.87H115.181L115.466 103.935H115.541C115.721 103.655 115.931 103.425 116.171 103.245C116.411 103.065 116.681 102.935 116.981 102.855C117.281 102.765 117.596 102.72 117.926 102.72ZM124.832 109.425C124.752 109.775 124.642 110.155 124.502 110.565C124.372 110.965 124.232 111.365 124.082 111.765C123.932 112.175 123.777 112.565 123.617 112.935H122.192C122.282 112.545 122.372 112.13 122.462 111.69C122.552 111.26 122.632 110.835 122.702 110.415C122.782 109.995 122.842 109.61 122.882 109.26H124.727L124.832 109.425ZM136.799 111L135.974 108.165H132.314L131.489 111H129.329L132.929 100.245H135.344L138.959 111H136.799ZM134.639 103.755C134.599 103.595 134.544 103.405 134.474 103.185C134.414 102.955 134.354 102.72 134.294 102.48C134.244 102.24 134.194 102.015 134.144 101.805C134.104 102.045 134.054 102.285 133.994 102.525C133.934 102.755 133.874 102.975 133.814 103.185C133.764 103.395 133.714 103.585 133.664 103.755L132.824 106.515H135.494L134.639 103.755ZM148.958 102.72C149.838 102.72 150.498 102.955 150.938 103.425C151.378 103.895 151.598 104.655 151.598 105.705V111H149.633V106.065C149.633 105.465 149.533 105.015 149.333 104.715C149.133 104.405 148.823 104.25 148.403 104.25C147.823 104.25 147.413 104.465 147.173 104.895C146.933 105.325 146.813 105.95 146.813 106.77V111H144.833V106.065C144.833 105.665 144.788 105.33 144.698 105.06C144.608 104.79 144.473 104.59 144.293 104.46C144.113 104.32 143.883 104.25 143.603 104.25C143.203 104.25 142.888 104.36 142.658 104.58C142.428 104.79 142.263 105.1 142.163 105.51C142.073 105.92 142.028 106.425 142.028 107.025V111H140.033V102.87H141.563L141.848 103.935H141.938C142.088 103.655 142.273 103.425 142.493 103.245C142.723 103.065 142.983 102.935 143.273 102.855C143.573 102.765 143.883 102.72 144.203 102.72C144.773 102.72 145.248 102.825 145.628 103.035C146.018 103.235 146.318 103.55 146.528 103.98H146.633C146.883 103.54 147.213 103.22 147.623 103.02C148.043 102.82 148.488 102.72 148.958 102.72ZM159.084 108.645C159.084 109.185 158.964 109.645 158.724 110.025C158.484 110.395 158.129 110.675 157.659 110.865C157.189 111.055 156.599 111.15 155.889 111.15C155.349 111.15 154.879 111.11 154.479 111.03C154.079 110.95 153.694 110.825 153.324 110.655V109.05C153.724 109.24 154.154 109.4 154.614 109.53C155.084 109.66 155.509 109.725 155.889 109.725C156.339 109.725 156.664 109.645 156.864 109.485C157.064 109.325 157.164 109.11 157.164 108.84C157.164 108.68 157.119 108.535 157.029 108.405C156.949 108.275 156.779 108.14 156.519 108C156.269 107.85 155.904 107.665 155.424 107.445C154.954 107.235 154.564 107.025 154.254 106.815C153.944 106.605 153.709 106.355 153.549 106.065C153.389 105.765 153.309 105.39 153.309 104.94C153.309 104.21 153.584 103.66 154.134 103.29C154.694 102.91 155.424 102.72 156.324 102.72C156.814 102.72 157.269 102.77 157.689 102.87C158.119 102.96 158.549 103.11 158.979 103.32L158.394 104.715C158.154 104.605 157.909 104.51 157.659 104.43C157.419 104.34 157.184 104.27 156.954 104.22C156.734 104.17 156.514 104.145 156.294 104.145C155.944 104.145 155.679 104.21 155.499 104.34C155.319 104.46 155.229 104.635 155.229 104.865C155.229 105.025 155.274 105.17 155.364 105.3C155.454 105.42 155.624 105.545 155.874 105.675C156.124 105.805 156.479 105.97 156.939 106.17C157.399 106.35 157.789 106.545 158.109 106.755C158.429 106.955 158.669 107.205 158.829 107.505C158.999 107.805 159.084 108.185 159.084 108.645ZM163.926 109.635C164.146 109.635 164.356 109.615 164.556 109.575C164.766 109.525 164.961 109.47 165.141 109.41V110.82C164.931 110.91 164.676 110.985 164.376 111.045C164.076 111.115 163.741 111.15 163.371 111.15C162.911 111.15 162.501 111.075 162.141 110.925C161.781 110.765 161.496 110.495 161.286 110.115C161.086 109.735 160.986 109.205 160.986 108.525V104.295H159.966V103.47L161.106 102.81L161.706 101.085H162.966V102.87H165.066V104.295H162.966V108.51C162.966 108.89 163.051 109.175 163.221 109.365C163.401 109.545 163.636 109.635 163.926 109.635ZM169.815 102.72C170.515 102.72 171.115 102.87 171.615 103.17C172.125 103.46 172.52 103.88 172.8 104.43C173.08 104.97 173.22 105.63 173.22 106.41V107.37H168.24C168.26 108.11 168.44 108.685 168.78 109.095C169.13 109.495 169.62 109.695 170.25 109.695C170.75 109.695 171.195 109.645 171.585 109.545C171.975 109.435 172.38 109.28 172.8 109.08V110.595C172.42 110.785 172.025 110.925 171.615 111.015C171.205 111.105 170.7 111.15 170.1 111.15C169.34 111.15 168.665 111 168.075 110.7C167.495 110.39 167.04 109.925 166.71 109.305C166.38 108.685 166.215 107.915 166.215 106.995C166.215 106.065 166.365 105.285 166.665 104.655C166.965 104.015 167.385 103.535 167.925 103.215C168.475 102.885 169.105 102.72 169.815 102.72ZM169.845 104.115C169.395 104.115 169.03 104.28 168.75 104.61C168.48 104.93 168.32 105.41 168.27 106.05H171.33C171.33 105.67 171.275 105.335 171.165 105.045C171.055 104.755 170.89 104.53 170.67 104.37C170.46 104.2 170.185 104.115 169.845 104.115ZM179.081 102.72C179.221 102.72 179.366 102.725 179.516 102.735C179.666 102.745 179.791 102.765 179.891 102.795L179.711 104.55C179.611 104.53 179.491 104.515 179.351 104.505C179.221 104.485 179.081 104.475 178.931 104.475C178.681 104.475 178.436 104.525 178.196 104.625C177.956 104.715 177.741 104.855 177.551 105.045C177.361 105.225 177.206 105.46 177.086 105.75C176.976 106.04 176.921 106.385 176.921 106.785V111H174.926V102.87H176.456L176.726 104.28H176.831C176.981 103.99 177.166 103.73 177.386 103.5C177.616 103.26 177.871 103.07 178.151 102.93C178.441 102.79 178.751 102.72 179.081 102.72ZM183.437 111.15C182.567 111.15 181.862 110.8 181.322 110.1C180.782 109.39 180.512 108.34 180.512 106.95C180.512 105.56 180.787 104.51 181.337 103.8C181.887 103.08 182.607 102.72 183.497 102.72C183.867 102.72 184.187 102.775 184.457 102.885C184.737 102.985 184.977 103.125 185.177 103.305C185.377 103.485 185.552 103.685 185.702 103.905H185.762C185.742 103.765 185.717 103.55 185.687 103.26C185.657 102.97 185.642 102.7 185.642 102.45V99.6H187.637V111H186.107L185.732 109.935H185.642C185.512 110.155 185.347 110.36 185.147 110.55C184.947 110.73 184.707 110.875 184.427 110.985C184.147 111.095 183.817 111.15 183.437 111.15ZM184.097 109.62C184.707 109.62 185.137 109.42 185.387 109.02C185.637 108.62 185.762 108.015 185.762 107.205V106.965C185.762 106.085 185.642 105.415 185.402 104.955C185.162 104.495 184.722 104.265 184.082 104.265C183.582 104.265 183.197 104.505 182.927 104.985C182.667 105.455 182.537 106.12 182.537 106.98C182.537 107.84 182.672 108.495 182.942 108.945C183.212 109.395 183.597 109.62 184.097 109.62ZM193.049 102.72C194.029 102.72 194.779 102.95 195.299 103.41C195.819 103.86 196.079 104.57 196.079 105.54V111H194.684L194.294 109.875H194.234C194.014 110.165 193.789 110.41 193.559 110.61C193.329 110.8 193.064 110.935 192.764 111.015C192.464 111.105 192.104 111.15 191.684 111.15C191.234 111.15 190.829 111.06 190.469 110.88C190.109 110.7 189.824 110.425 189.614 110.055C189.404 109.675 189.299 109.2 189.299 108.63C189.299 107.79 189.589 107.16 190.169 106.74C190.749 106.31 191.619 106.075 192.779 106.035L194.084 105.99V105.585C194.084 105.065 193.974 104.695 193.754 104.475C193.534 104.255 193.234 104.145 192.854 104.145C192.494 104.145 192.129 104.205 191.759 104.325C191.399 104.445 191.044 104.585 190.694 104.745L190.079 103.425C190.489 103.215 190.944 103.045 191.444 102.915C191.944 102.785 192.479 102.72 193.049 102.72ZM193.244 107.19C192.534 107.22 192.039 107.365 191.759 107.625C191.479 107.875 191.339 108.215 191.339 108.645C191.339 109.025 191.434 109.3 191.624 109.47C191.824 109.64 192.084 109.725 192.404 109.725C192.874 109.725 193.274 109.57 193.604 109.26C193.934 108.94 194.099 108.47 194.099 107.85V107.16L193.244 107.19ZM207.112 102.72C207.992 102.72 208.652 102.955 209.092 103.425C209.532 103.895 209.752 104.655 209.752 105.705V111H207.787V106.065C207.787 105.465 207.687 105.015 207.487 104.715C207.287 104.405 206.977 104.25 206.557 104.25C205.977 104.25 205.567 104.465 205.327 104.895C205.087 105.325 204.967 105.95 204.967 106.77V111H202.987V106.065C202.987 105.665 202.942 105.33 202.852 105.06C202.762 104.79 202.627 104.59 202.447 104.46C202.267 104.32 202.037 104.25 201.757 104.25C201.357 104.25 201.042 104.36 200.812 104.58C200.582 104.79 200.417 105.1 200.317 105.51C200.227 105.92 200.182 106.425 200.182 107.025V111H198.187V102.87H199.717L200.002 103.935H200.092C200.242 103.655 200.427 103.425 200.647 103.245C200.877 103.065 201.137 102.935 201.427 102.855C201.727 102.765 202.037 102.72 202.357 102.72C202.927 102.72 203.402 102.825 203.782 103.035C204.172 103.235 204.472 103.55 204.682 103.98H204.787C205.037 103.54 205.367 103.22 205.777 103.02C206.197 102.82 206.642 102.72 207.112 102.72Z" fill="black"/>
<path d="M27.11 122L26.33 119.79H23.68L22.91 122H22L24.6 114.83H25.44L28.03 122H27.11ZM25.33 116.83C25.3167 116.777 25.2867 116.68 25.24 116.54C25.2 116.4 25.1567 116.257 25.11 116.11C25.07 115.957 25.0367 115.84 25.01 115.76C24.9767 115.893 24.94 116.03 24.9 116.17C24.8667 116.303 24.8333 116.427 24.8 116.54C24.7667 116.653 24.7367 116.75 24.71 116.83L23.97 118.99H26.07L25.33 116.83ZM33.0752 116.64V122H32.3752L32.2452 121.29H32.2052C32.0985 121.477 31.9585 121.63 31.7852 121.75C31.6185 121.87 31.4352 121.957 31.2352 122.01C31.0352 122.07 30.8252 122.1 30.6052 122.1C30.2052 122.1 29.8685 122.033 29.5952 121.9C29.3218 121.76 29.1152 121.547 28.9752 121.26C28.8418 120.973 28.7752 120.603 28.7752 120.15V116.64H29.6552V120.09C29.6552 120.517 29.7452 120.837 29.9252 121.05C30.1052 121.263 30.3818 121.37 30.7552 121.37C31.1218 121.37 31.4085 121.297 31.6152 121.15C31.8285 120.997 31.9785 120.777 32.0652 120.49C32.1585 120.197 32.2052 119.843 32.2052 119.43V116.64H33.0752ZM36.4352 116.54C36.7686 116.54 37.0652 116.607 37.3252 116.74C37.5919 116.873 37.8186 117.077 38.0052 117.35H38.0552L38.1652 116.64H38.8652V122.09C38.8652 122.597 38.7819 123.02 38.6152 123.36C38.4552 123.707 38.2052 123.967 37.8652 124.14C37.5319 124.313 37.1052 124.4 36.5852 124.4C36.2186 124.4 35.8852 124.37 35.5852 124.31C35.2852 124.257 35.0119 124.173 34.7652 124.06V123.25C34.9319 123.337 35.1119 123.41 35.3052 123.47C35.5052 123.537 35.7152 123.587 35.9352 123.62C36.1619 123.653 36.3952 123.67 36.6352 123.67C37.0619 123.67 37.3952 123.533 37.6352 123.26C37.8819 122.993 38.0052 122.627 38.0052 122.16V121.95C38.0052 121.87 38.0086 121.757 38.0152 121.61C38.0219 121.457 38.0286 121.35 38.0352 121.29H37.9952C37.8219 121.563 37.6052 121.767 37.3452 121.9C37.0852 122.033 36.7852 122.1 36.4452 122.1C35.7986 122.1 35.2919 121.857 34.9252 121.37C34.5586 120.883 34.3752 120.203 34.3752 119.33C34.3752 118.757 34.4552 118.263 34.6152 117.85C34.7819 117.43 35.0186 117.107 35.3252 116.88C35.6386 116.653 36.0086 116.54 36.4352 116.54ZM36.5752 117.28C36.3019 117.28 36.0652 117.36 35.8652 117.52C35.6719 117.68 35.5252 117.913 35.4252 118.22C35.3252 118.527 35.2752 118.9 35.2752 119.34C35.2752 120 35.3852 120.507 35.6052 120.86C35.8319 121.207 36.1619 121.38 36.5952 121.38C36.8419 121.38 37.0552 121.347 37.2352 121.28C37.4152 121.207 37.5619 121.097 37.6752 120.95C37.7886 120.797 37.8719 120.603 37.9252 120.37C37.9852 120.137 38.0152 119.86 38.0152 119.54V119.33C38.0152 118.843 37.9619 118.45 37.8552 118.15C37.7552 117.85 37.5986 117.63 37.3852 117.49C37.1786 117.35 36.9086 117.28 36.5752 117.28ZM40.3263 121.46C40.3263 121.213 40.3829 121.04 40.4963 120.94C40.6096 120.84 40.7496 120.79 40.9163 120.79C41.0829 120.79 41.2263 120.84 41.3463 120.94C41.4663 121.04 41.5263 121.213 41.5263 121.46C41.5263 121.7 41.4663 121.873 41.3463 121.98C41.2263 122.087 41.0829 122.14 40.9163 122.14C40.7496 122.14 40.6096 122.087 40.4963 121.98C40.3829 121.873 40.3263 121.7 40.3263 121.46ZM49.5467 122H45.0867V121.27L46.8367 119.38C47.1701 119.02 47.4501 118.7 47.6767 118.42C47.9101 118.14 48.0867 117.867 48.2067 117.6C48.3267 117.327 48.3867 117.03 48.3867 116.71C48.3867 116.317 48.2801 116.02 48.0667 115.82C47.8534 115.613 47.5734 115.51 47.2267 115.51C46.9067 115.51 46.6234 115.57 46.3767 115.69C46.1301 115.81 45.8801 115.977 45.6267 116.19L45.1567 115.6C45.3367 115.44 45.5301 115.297 45.7367 115.17C45.9434 115.043 46.1701 114.943 46.4167 114.87C46.6701 114.797 46.9434 114.76 47.2367 114.76C47.6567 114.76 48.0167 114.837 48.3167 114.99C48.6234 115.143 48.8601 115.363 49.0267 115.65C49.1934 115.93 49.2767 116.267 49.2767 116.66C49.2767 116.94 49.2334 117.207 49.1467 117.46C49.0667 117.707 48.9501 117.95 48.7967 118.19C48.6434 118.43 48.4601 118.673 48.2467 118.92C48.0401 119.167 47.8067 119.427 47.5467 119.7L46.1767 121.16L46.1867 121.2H49.5467V122ZM54.9278 118.42C54.9278 119 54.8845 119.517 54.7978 119.97C54.7178 120.423 54.5878 120.81 54.4078 121.13C54.2345 121.443 54.0045 121.683 53.7178 121.85C53.4311 122.017 53.0878 122.1 52.6878 122.1C52.1811 122.1 51.7611 121.953 51.4278 121.66C51.1011 121.367 50.8578 120.947 50.6978 120.4C50.5378 119.847 50.4578 119.187 50.4578 118.42C50.4578 117.647 50.5311 116.987 50.6778 116.44C50.8245 115.893 51.0611 115.477 51.3878 115.19C51.7145 114.897 52.1478 114.75 52.6878 114.75C53.1945 114.75 53.6111 114.897 53.9378 115.19C54.2711 115.477 54.5178 115.893 54.6778 116.44C54.8445 116.987 54.9278 117.647 54.9278 118.42ZM51.3278 118.42C51.3278 119.073 51.3711 119.617 51.4578 120.05C51.5511 120.483 51.6978 120.81 51.8978 121.03C52.0978 121.243 52.3611 121.35 52.6878 121.35C53.0145 121.35 53.2778 121.243 53.4778 121.03C53.6778 120.817 53.8211 120.493 53.9078 120.06C54.0011 119.62 54.0478 119.073 54.0478 118.42C54.0478 117.767 54.0011 117.227 53.9078 116.8C53.8211 116.367 53.6778 116.043 53.4778 115.83C53.2778 115.61 53.0145 115.5 52.6878 115.5C52.3611 115.5 52.0978 115.61 51.8978 115.83C51.6978 116.043 51.5511 116.367 51.4578 116.8C51.3711 117.227 51.3278 117.767 51.3278 118.42ZM60.2889 122H55.8289V121.27L57.5789 119.38C57.9122 119.02 58.1922 118.7 58.4189 118.42C58.6522 118.14 58.8289 117.867 58.9489 117.6C59.0689 117.327 59.1289 117.03 59.1289 116.71C59.1289 116.317 59.0222 116.02 58.8089 115.82C58.5956 115.613 58.3156 115.51 57.9689 115.51C57.6489 115.51 57.3656 115.57 57.1189 115.69C56.8722 115.81 56.6222 115.977 56.3689 116.19L55.8989 115.6C56.0789 115.44 56.2722 115.297 56.4789 115.17C56.6856 115.043 56.9122 114.943 57.1589 114.87C57.4122 114.797 57.6856 114.76 57.9789 114.76C58.3989 114.76 58.7589 114.837 59.0589 114.99C59.3656 115.143 59.6022 115.363 59.7689 115.65C59.9356 115.93 60.0189 116.267 60.0189 116.66C60.0189 116.94 59.9756 117.207 59.8889 117.46C59.8089 117.707 59.6922 117.95 59.5389 118.19C59.3856 118.43 59.2022 118.673 58.9889 118.92C58.7822 119.167 58.5489 119.427 58.2889 119.7L56.9189 121.16L56.9289 121.2H60.2889V122ZM64.12 122H63.27V117.01C63.27 116.817 63.27 116.653 63.27 116.52C63.2767 116.387 63.2833 116.263 63.29 116.15C63.2967 116.03 63.3033 115.907 63.31 115.78C63.2167 115.887 63.1267 115.98 63.04 116.06C62.9533 116.133 62.85 116.223 62.73 116.33L62.02 116.95L61.56 116.36L63.4 114.86H64.12V122ZM68.9325 119.71V118.93H71.2225V119.71H68.9325ZM74.0112 123.9C73.8579 123.9 73.7246 123.887 73.6112 123.86C73.4912 123.84 73.3879 123.81 73.3012 123.77V123.01C73.4012 123.037 73.5079 123.06 73.6212 123.08C73.7346 123.1 73.8546 123.11 73.9812 123.11C74.1413 123.11 74.2879 123.077 74.4213 123.01C74.5613 122.943 74.6746 122.827 74.7613 122.66C74.8479 122.493 74.8913 122.26 74.8913 121.96V114.86H75.7813V121.89C75.7813 122.35 75.7079 122.727 75.5613 123.02C75.4146 123.32 75.2079 123.54 74.9413 123.68C74.6813 123.827 74.3713 123.9 74.0112 123.9ZM79.3489 116.55C79.9622 116.55 80.4189 116.693 80.7189 116.98C81.0256 117.267 81.1789 117.723 81.1789 118.35V122H80.5489L80.3789 121.24H80.3389C80.1922 121.433 80.0422 121.597 79.8889 121.73C79.7422 121.857 79.5689 121.95 79.3689 122.01C79.1756 122.07 78.9356 122.1 78.6489 122.1C78.3489 122.1 78.0789 122.043 77.8389 121.93C77.5989 121.817 77.4089 121.643 77.2689 121.41C77.1289 121.17 77.0589 120.87 77.0589 120.51C77.0589 119.977 77.2556 119.567 77.6489 119.28C78.0422 118.987 78.6489 118.827 79.4689 118.8L80.3189 118.77V118.45C80.3189 118.003 80.2289 117.693 80.0489 117.52C79.8756 117.347 79.6256 117.26 79.2989 117.26C79.0389 117.26 78.7889 117.303 78.5489 117.39C78.3156 117.47 78.0922 117.563 77.8789 117.67L77.6089 117.01C77.8356 116.883 78.0989 116.777 78.3989 116.69C78.6989 116.597 79.0156 116.55 79.3489 116.55ZM79.5889 119.41C78.9756 119.437 78.5489 119.543 78.3089 119.73C78.0756 119.917 77.9589 120.18 77.9589 120.52C77.9589 120.82 78.0422 121.04 78.2089 121.18C78.3756 121.32 78.5922 121.39 78.8589 121.39C79.2722 121.39 79.6189 121.267 79.8989 121.02C80.1789 120.767 80.3189 120.38 80.3189 119.86V119.38L79.5889 119.41ZM85.1914 116.54C85.7914 116.54 86.2447 116.697 86.5514 117.01C86.8647 117.317 87.0214 117.817 87.0214 118.51V122H86.1514V118.57C86.1514 118.137 86.0614 117.813 85.8814 117.6C85.7014 117.387 85.4247 117.28 85.0514 117.28C84.5047 117.28 84.1247 117.447 83.9114 117.78C83.7047 118.113 83.6014 118.593 83.6014 119.22V122H82.7314V116.64H83.4314L83.5614 117.37H83.6114C83.7181 117.183 83.8547 117.03 84.0214 116.91C84.1881 116.783 84.3714 116.69 84.5714 116.63C84.7714 116.57 84.9781 116.54 85.1914 116.54ZM88.4513 121.46C88.4513 121.213 88.5079 121.04 88.6213 120.94C88.7346 120.84 88.8746 120.79 89.0413 120.79C89.2079 120.79 89.3513 120.84 89.4713 120.94C89.5913 121.04 89.6513 121.213 89.6513 121.46C89.6513 121.7 89.5913 121.873 89.4713 121.98C89.3513 122.087 89.2079 122.14 89.0413 122.14C88.8746 122.14 88.7346 122.087 88.6213 121.98C88.5079 121.873 88.4513 121.7 88.4513 121.46ZM97.6717 122H93.2117V121.27L94.9617 119.38C95.2951 119.02 95.5751 118.7 95.8017 118.42C96.0351 118.14 96.2117 117.867 96.3317 117.6C96.4517 117.327 96.5117 117.03 96.5117 116.71C96.5117 116.317 96.4051 116.02 96.1917 115.82C95.9784 115.613 95.6984 115.51 95.3517 115.51C95.0317 115.51 94.7484 115.57 94.5017 115.69C94.2551 115.81 94.0051 115.977 93.7517 116.19L93.2817 115.6C93.4617 115.44 93.6551 115.297 93.8617 115.17C94.0684 115.043 94.2951 114.943 94.5417 114.87C94.7951 114.797 95.0684 114.76 95.3617 114.76C95.7817 114.76 96.1417 114.837 96.4417 114.99C96.7484 115.143 96.9851 115.363 97.1517 115.65C97.3184 115.93 97.4017 116.267 97.4017 116.66C97.4017 116.94 97.3584 117.207 97.2717 117.46C97.1917 117.707 97.0751 117.95 96.9217 118.19C96.7684 118.43 96.5851 118.673 96.3717 118.92C96.1651 119.167 95.9317 119.427 95.6717 119.7L94.3017 121.16L94.3117 121.2H97.6717V122ZM103.053 118.42C103.053 119 103.009 119.517 102.923 119.97C102.843 120.423 102.713 120.81 102.533 121.13C102.359 121.443 102.129 121.683 101.843 121.85C101.556 122.017 101.213 122.1 100.813 122.1C100.306 122.1 99.8861 121.953 99.5528 121.66C99.2261 121.367 98.9828 120.947 98.8228 120.4C98.6628 119.847 98.5828 119.187 98.5828 118.42C98.5828 117.647 98.6561 116.987 98.8028 116.44C98.9495 115.893 99.1861 115.477 99.5128 115.19C99.8395 114.897 100.273 114.75 100.813 114.75C101.319 114.75 101.736 114.897 102.063 115.19C102.396 115.477 102.643 115.893 102.803 116.44C102.969 116.987 103.053 117.647 103.053 118.42ZM99.4528 118.42C99.4528 119.073 99.4961 119.617 99.5828 120.05C99.6761 120.483 99.8228 120.81 100.023 121.03C100.223 121.243 100.486 121.35 100.813 121.35C101.139 121.35 101.403 121.243 101.603 121.03C101.803 120.817 101.946 120.493 102.033 120.06C102.126 119.62 102.173 119.073 102.173 118.42C102.173 117.767 102.126 117.227 102.033 116.8C101.946 116.367 101.803 116.043 101.603 115.83C101.403 115.61 101.139 115.5 100.813 115.5C100.486 115.5 100.223 115.61 100.023 115.83C99.8228 116.043 99.6761 116.367 99.5828 116.8C99.4961 117.227 99.4528 117.767 99.4528 118.42ZM108.414 122H103.954V121.27L105.704 119.38C106.037 119.02 106.317 118.7 106.544 118.42C106.777 118.14 106.954 117.867 107.074 117.6C107.194 117.327 107.254 117.03 107.254 116.71C107.254 116.317 107.147 116.02 106.934 115.82C106.721 115.613 106.441 115.51 106.094 115.51C105.774 115.51 105.491 115.57 105.244 115.69C104.997 115.81 104.747 115.977 104.494 116.19L104.024 115.6C104.204 115.44 104.397 115.297 104.604 115.17C104.811 115.043 105.037 114.943 105.284 114.87C105.537 114.797 105.811 114.76 106.104 114.76C106.524 114.76 106.884 114.837 107.184 114.99C107.491 115.143 107.727 115.363 107.894 115.65C108.061 115.93 108.144 116.267 108.144 116.66C108.144 116.94 108.101 117.207 108.014 117.46C107.934 117.707 107.817 117.95 107.664 118.19C107.511 118.43 107.327 118.673 107.114 118.92C106.907 119.167 106.674 119.427 106.414 119.7L105.044 121.16L105.054 121.2H108.414V122ZM113.785 122H109.325V121.27L111.075 119.38C111.408 119.02 111.688 118.7 111.915 118.42C112.148 118.14 112.325 117.867 112.445 117.6C112.565 117.327 112.625 117.03 112.625 116.71C112.625 116.317 112.518 116.02 112.305 115.82C112.092 115.613 111.812 115.51 111.465 115.51C111.145 115.51 110.862 115.57 110.615 115.69C110.368 115.81 110.118 115.977 109.865 116.19L109.395 115.6C109.575 115.44 109.768 115.297 109.975 115.17C110.182 115.043 110.408 114.943 110.655 114.87C110.908 114.797 111.182 114.76 111.475 114.76C111.895 114.76 112.255 114.837 112.555 114.99C112.862 115.143 113.098 115.363 113.265 115.65C113.432 115.93 113.515 116.267 113.515 116.66C113.515 116.94 113.472 117.207 113.385 117.46C113.305 117.707 113.188 117.95 113.035 118.19C112.882 118.43 112.698 118.673 112.485 118.92C112.278 119.167 112.045 119.427 111.785 119.7L110.415 121.16L110.425 121.2H113.785V122Z" fill="black"/>
<circle cx="9" cy="69" r="4.5" fill="#FFB4C7" stroke="#FFB4C7"/>
<circle cx="9" cy="106" r="4.5" fill="#FFB4C7" stroke="#FFB4C7"/>
</svg>
