<svg width="114" height="125" viewBox="0 0 114 125" fill="none" xmlns="http://www.w3.org/2000/svg">
<path d="M77.12 86H37.2V77.6L51.52 63.12C54.4 60.1333 56.72 57.6533 58.48 55.68C60.24 53.6533 61.52 51.84 62.32 50.24C63.12 48.5867 63.52 46.8267 63.52 44.96C63.52 42.6667 62.88 40.96 61.6 39.84C60.3733 38.72 58.6933 38.16 56.56 38.16C54.3733 38.16 52.24 38.6667 50.16 39.68C48.08 40.6933 45.8933 42.1333 43.6 44L37.04 36.24C38.6933 34.8 40.4267 33.4667 42.24 32.24C44.1067 31.0133 46.24 30.0267 48.64 29.28C51.0933 28.48 54.0267 28.08 57.44 28.08C61.1733 28.08 64.3733 28.7733 67.04 30.16C69.76 31.4933 71.84 33.3333 73.28 35.68C74.7733 37.9733 75.52 40.5867 75.52 43.52C75.52 45.92 75.1467 48.1333 74.4 50.16C73.7067 52.1867 72.6667 54.16 71.28 56.08C69.9467 57.9467 68.2933 59.8933 66.32 61.92C64.3467 63.8933 62.1067 66.0533 59.6 68.4L52.24 75.28V75.84H77.12V86Z" fill="#FFB4C7"/>
<path d="M2.134 119V103.292H4.114V117.24H10.978V119H2.134ZM17.8731 107.01C19.3104 107.01 20.3738 107.325 21.0631 107.956C21.7524 108.587 22.0971 109.591 22.0971 110.97V119H20.6891L20.3151 117.328H20.2271C19.8898 117.753 19.5378 118.113 19.1711 118.406C18.8191 118.685 18.4084 118.89 17.9391 119.022C17.4844 119.154 16.9271 119.22 16.2671 119.22C15.5631 119.22 14.9251 119.095 14.3531 118.846C13.7958 118.597 13.3558 118.215 13.0331 117.702C12.7104 117.174 12.5491 116.514 12.5491 115.722C12.5491 114.549 13.0111 113.647 13.9351 113.016C14.8591 112.371 16.2818 112.019 18.2031 111.96L20.2051 111.894V111.19C20.2051 110.207 19.9924 109.525 19.5671 109.144C19.1418 108.763 18.5404 108.572 17.7631 108.572C17.1471 108.572 16.5604 108.667 16.0031 108.858C15.4458 109.034 14.9251 109.239 14.4411 109.474L13.8471 108.022C14.3604 107.743 14.9691 107.509 15.6731 107.318C16.3771 107.113 17.1104 107.01 17.8731 107.01ZM18.4451 113.302C16.9784 113.361 15.9591 113.595 15.3871 114.006C14.8298 114.417 14.5511 114.996 14.5511 115.744C14.5511 116.404 14.7491 116.888 15.1451 117.196C15.5558 117.504 16.0764 117.658 16.7071 117.658C17.7044 117.658 18.5331 117.387 19.1931 116.844C19.8531 116.287 20.1831 115.436 20.1831 114.292V113.236L18.4451 113.302ZM31.4151 106.988C32.8231 106.988 33.8865 107.333 34.6051 108.022C35.3238 108.697 35.6831 109.797 35.6831 111.322V119H33.7691V111.454C33.7691 110.501 33.5565 109.789 33.1311 109.32C32.7058 108.851 32.0385 108.616 31.1291 108.616C29.8238 108.616 28.9218 108.983 28.4231 109.716C27.9245 110.449 27.6751 111.505 27.6751 112.884V119H25.7391V107.208H27.3011L27.5871 108.814H27.6971C27.9611 108.403 28.2838 108.066 28.6651 107.802C29.0611 107.523 29.4938 107.318 29.9631 107.186C30.4325 107.054 30.9165 106.988 31.4151 106.988ZM43.5188 106.988C44.2961 106.988 44.9928 107.135 45.6088 107.428C46.2394 107.721 46.7748 108.169 47.2148 108.77H47.3248L47.5888 107.208H49.1288V119.198C49.1288 120.313 48.9381 121.244 48.5568 121.992C48.1754 122.755 47.5961 123.327 46.8188 123.708C46.0414 124.089 45.0514 124.28 43.8488 124.28C42.9981 124.28 42.2134 124.214 41.4948 124.082C40.7908 123.965 40.1601 123.781 39.6028 123.532V121.75C39.9841 121.941 40.4021 122.102 40.8568 122.234C41.3114 122.381 41.8028 122.491 42.3308 122.564C42.8588 122.637 43.4014 122.674 43.9588 122.674C44.9708 122.674 45.7628 122.373 46.3348 121.772C46.9214 121.185 47.2148 120.379 47.2148 119.352V118.89C47.2148 118.714 47.2221 118.465 47.2368 118.142C47.2514 117.805 47.2661 117.57 47.2808 117.438H47.1928C46.7821 118.039 46.2688 118.487 45.6528 118.78C45.0514 119.073 44.3474 119.22 43.5408 119.22C42.0154 119.22 40.8201 118.685 39.9548 117.614C39.1041 116.543 38.6788 115.047 38.6788 113.126C38.6788 111.865 38.8694 110.779 39.2508 109.87C39.6468 108.946 40.2041 108.235 40.9228 107.736C41.6414 107.237 42.5068 106.988 43.5188 106.988ZM43.7828 108.616C43.1228 108.616 42.5581 108.792 42.0888 109.144C41.6341 109.496 41.2821 110.009 41.0328 110.684C40.7981 111.359 40.6808 112.18 40.6808 113.148C40.6808 114.6 40.9448 115.715 41.4728 116.492C42.0154 117.255 42.8001 117.636 43.8268 117.636C44.4281 117.636 44.9414 117.563 45.3668 117.416C45.7921 117.255 46.1441 117.013 46.4228 116.69C46.7014 116.353 46.9068 115.927 47.0388 115.414C47.1708 114.901 47.2368 114.292 47.2368 113.588V113.126C47.2368 112.055 47.1121 111.19 46.8628 110.53C46.6281 109.87 46.2541 109.386 45.7408 109.078C45.2274 108.77 44.5748 108.616 43.7828 108.616ZM62.7299 107.208V119H61.1459L60.8599 117.438H60.7719C60.5226 117.849 60.1999 118.186 59.8039 118.45C59.4079 118.714 58.9752 118.905 58.5059 119.022C58.0366 119.154 57.5452 119.22 57.0319 119.22C56.0932 119.22 55.3012 119.073 54.6559 118.78C54.0252 118.472 53.5486 118.003 53.2259 117.372C52.9032 116.741 52.7419 115.927 52.7419 114.93V107.208H54.6999V114.798C54.6999 115.737 54.9126 116.441 55.3379 116.91C55.7632 117.379 56.4232 117.614 57.3179 117.614C58.1979 117.614 58.8872 117.453 59.3859 117.13C59.8992 116.793 60.2586 116.309 60.4639 115.678C60.6839 115.033 60.7939 114.255 60.7939 113.346V107.208H62.7299ZM70.9395 107.01C72.3768 107.01 73.4402 107.325 74.1295 107.956C74.8188 108.587 75.1635 109.591 75.1635 110.97V119H73.7555L73.3815 117.328H73.2935C72.9562 117.753 72.6042 118.113 72.2375 118.406C71.8855 118.685 71.4748 118.89 71.0055 119.022C70.5508 119.154 69.9935 119.22 69.3335 119.22C68.6295 119.22 67.9915 119.095 67.4195 118.846C66.8622 118.597 66.4222 118.215 66.0995 117.702C65.7768 117.174 65.6155 116.514 65.6155 115.722C65.6155 114.549 66.0775 113.647 67.0015 113.016C67.9255 112.371 69.3482 112.019 71.2695 111.96L73.2715 111.894V111.19C73.2715 110.207 73.0588 109.525 72.6335 109.144C72.2082 108.763 71.6068 108.572 70.8295 108.572C70.2135 108.572 69.6268 108.667 69.0695 108.858C68.5122 109.034 67.9915 109.239 67.5075 109.474L66.9135 108.022C67.4268 107.743 68.0355 107.509 68.7395 107.318C69.4435 107.113 70.1768 107.01 70.9395 107.01ZM71.5115 113.302C70.0448 113.361 69.0255 113.595 68.4535 114.006C67.8962 114.417 67.6175 114.996 67.6175 115.744C67.6175 116.404 67.8155 116.888 68.2115 117.196C68.6222 117.504 69.1428 117.658 69.7735 117.658C70.7708 117.658 71.5995 117.387 72.2595 116.844C72.9195 116.287 73.2495 115.436 73.2495 114.292V113.236L71.5115 113.302ZM82.9855 106.988C83.7629 106.988 84.4595 107.135 85.0755 107.428C85.7062 107.721 86.2415 108.169 86.6815 108.77H86.7915L87.0555 107.208H88.5955V119.198C88.5955 120.313 88.4049 121.244 88.0235 121.992C87.6422 122.755 87.0629 123.327 86.2855 123.708C85.5082 124.089 84.5182 124.28 83.3155 124.28C82.4649 124.28 81.6802 124.214 80.9615 124.082C80.2575 123.965 79.6269 123.781 79.0695 123.532V121.75C79.4509 121.941 79.8689 122.102 80.3235 122.234C80.7782 122.381 81.2695 122.491 81.7975 122.564C82.3255 122.637 82.8682 122.674 83.4255 122.674C84.4375 122.674 85.2295 122.373 85.8015 121.772C86.3882 121.185 86.6815 120.379 86.6815 119.352V118.89C86.6815 118.714 86.6889 118.465 86.7035 118.142C86.7182 117.805 86.7329 117.57 86.7475 117.438H86.6595C86.2489 118.039 85.7355 118.487 85.1195 118.78C84.5182 119.073 83.8142 119.22 83.0075 119.22C81.4822 119.22 80.2869 118.685 79.4215 117.614C78.5709 116.543 78.1455 115.047 78.1455 113.126C78.1455 111.865 78.3362 110.779 78.7175 109.87C79.1135 108.946 79.6709 108.235 80.3895 107.736C81.1082 107.237 81.9735 106.988 82.9855 106.988ZM83.2495 108.616C82.5895 108.616 82.0249 108.792 81.5555 109.144C81.1009 109.496 80.7489 110.009 80.4995 110.684C80.2649 111.359 80.1475 112.18 80.1475 113.148C80.1475 114.6 80.4115 115.715 80.9395 116.492C81.4822 117.255 82.2669 117.636 83.2935 117.636C83.8949 117.636 84.4082 117.563 84.8335 117.416C85.2589 117.255 85.6109 117.013 85.8895 116.69C86.1682 116.353 86.3735 115.927 86.5055 115.414C86.6375 114.901 86.7035 114.292 86.7035 113.588V113.126C86.7035 112.055 86.5789 111.19 86.3295 110.53C86.0949 109.87 85.7209 109.386 85.2075 109.078C84.6942 108.77 84.0415 108.616 83.2495 108.616ZM96.8947 106.988C97.9067 106.988 98.772 107.208 99.4907 107.648C100.224 108.088 100.781 108.711 101.163 109.518C101.559 110.31 101.757 111.241 101.757 112.312V113.478H93.6827C93.712 114.813 94.0494 115.832 94.6947 116.536C95.3547 117.225 96.2714 117.57 97.4447 117.57C98.1927 117.57 98.8527 117.504 99.4247 117.372C100.011 117.225 100.613 117.02 101.229 116.756V118.45C100.627 118.714 100.033 118.905 99.4467 119.022C98.86 119.154 98.1634 119.22 97.3567 119.22C96.242 119.22 95.252 118.993 94.3867 118.538C93.536 118.083 92.8687 117.409 92.3847 116.514C91.9154 115.605 91.6807 114.497 91.6807 113.192C91.6807 111.901 91.8934 110.794 92.3187 109.87C92.7587 108.946 93.3674 108.235 94.1447 107.736C94.9367 107.237 95.8534 106.988 96.8947 106.988ZM96.8727 108.572C95.9487 108.572 95.2154 108.873 94.6727 109.474C94.1447 110.061 93.8294 110.882 93.7267 111.938H99.7327C99.7327 111.263 99.63 110.677 99.4247 110.178C99.2194 109.679 98.904 109.291 98.4787 109.012C98.068 108.719 97.5327 108.572 96.8727 108.572ZM112.437 115.744C112.437 116.507 112.246 117.145 111.865 117.658C111.483 118.171 110.941 118.56 110.237 118.824C109.533 119.088 108.697 119.22 107.729 119.22C106.907 119.22 106.196 119.154 105.595 119.022C105.008 118.89 104.487 118.707 104.033 118.472V116.712C104.502 116.947 105.067 117.167 105.727 117.372C106.401 117.563 107.083 117.658 107.773 117.658C108.755 117.658 109.467 117.504 109.907 117.196C110.347 116.873 110.567 116.448 110.567 115.92C110.567 115.627 110.486 115.363 110.325 115.128C110.163 114.893 109.87 114.659 109.445 114.424C109.034 114.189 108.44 113.925 107.663 113.632C106.9 113.339 106.247 113.045 105.705 112.752C105.162 112.459 104.744 112.107 104.451 111.696C104.157 111.285 104.011 110.757 104.011 110.112C104.011 109.115 104.414 108.345 105.221 107.802C106.042 107.259 107.113 106.988 108.433 106.988C109.151 106.988 109.819 107.061 110.435 107.208C111.065 107.34 111.652 107.531 112.195 107.78L111.535 109.32C111.212 109.173 110.867 109.049 110.501 108.946C110.149 108.829 109.789 108.741 109.423 108.682C109.056 108.609 108.682 108.572 108.301 108.572C107.509 108.572 106.9 108.704 106.475 108.968C106.064 109.217 105.859 109.562 105.859 110.002C105.859 110.325 105.954 110.603 106.145 110.838C106.335 111.058 106.651 111.278 107.091 111.498C107.545 111.703 108.147 111.953 108.895 112.246C109.643 112.525 110.281 112.811 110.809 113.104C111.337 113.397 111.74 113.757 112.019 114.182C112.297 114.593 112.437 115.113 112.437 115.744Z" fill="black"/>
</svg>
