<svg width="76" height="39" viewBox="0 0 76 39" fill="none" xmlns="http://www.w3.org/2000/svg">
<path d="M12.6936 16.0586H10.3194L4.64214 8.42298L3.01489 9.85641V16.0586H1V0.064621H3.01489V7.95458L4.3918 6.43231L10.0892 0.064621H12.4433L6.10788 7.03395L12.6936 16.0586Z" fill="#F0FFFF"/>
<path d="M24.9005 16.0585L22.9745 11.1041H16.631L14.7292 16.0585H12.6941L18.9406 0H20.7577L26.9921 16.0585H24.9005ZM22.3728 9.31936L20.58 4.47394L19.8169 2.07949C19.5958 2.9547 19.3656 3.75318 19.1264 4.47394L17.3094 9.31936H22.3728Z" fill="#F0FFFF"/>
<path d="M33.3564 7.93036L37.5235 0.064621H39.6918L34.3618 9.85641V16.0586H32.3389V9.94525L27.0129 0.064621H29.2136L33.3564 7.93036Z" fill="#F0FFFF"/>
<path d="M41.8677 16.0586V0.064621H43.8826V14.2657H50.8721V16.0586H41.8677Z" fill="#F0FFFF"/>
<path d="M62.5407 16.0586H53.605V0.064621H62.5407V1.83724H55.6199V6.82802H62.137V8.57641H55.6199V14.2859H62.5407V16.0586Z" fill="#F0FFFF"/>
<path d="M75.0002 16.0586H66.0645V0.064621H75.0002V1.83724H68.0793V6.82802H74.5964V8.57641H68.0793V14.2859H75.0002V16.0586Z" fill="#F0FFFF"/>
<path d="M17.0283 37.3718H12.9581V29.0599H5.33059V37.3718H1.24731V18.1133H5.33059V25.661H12.9581V18.1133H17.0283V37.3718ZM39.3687 27.7163C39.3687 30.9042 38.5783 33.3542 36.9975 35.0672C35.4166 36.7793 33.1514 37.6353 30.2007 37.6353C27.2501 37.6353 24.9838 36.7793 23.403 35.0672C21.8222 33.3542 21.0318 30.8951 21.0318 27.6901C21.0318 24.485 21.8252 22.0371 23.4101 20.3462C24.9949 18.6554 27.2672 17.8104 30.227 17.8104C33.1867 17.8104 35.45 18.6624 37.0176 20.3664C38.5853 22.0694 39.3687 24.5203 39.3687 27.7163ZM25.3139 27.7163C25.3139 29.8685 25.7218 31.4887 26.5384 32.5769C27.3551 33.6661 28.5755 34.2102 30.2007 34.2102C33.4583 34.2102 35.0876 32.0459 35.0876 27.7163C35.0876 23.3786 33.4674 21.2093 30.227 21.2093C28.6018 21.2093 27.3773 21.7554 26.5515 22.8487C25.7258 23.9429 25.3139 25.5651 25.3139 27.7163ZM54.4511 37.3718H43.3591V18.1133H54.4511V21.4596H47.4434V25.6883H53.9635V29.0337H47.4434V34.0002H54.4511V37.3718ZM73.959 37.3718H69.3225L64.2772 29.2578L62.552 30.4964V37.3718H58.4677V18.1133H62.552V26.9259L64.1591 24.6607L69.375 18.1133H73.9065L67.1885 26.6362L73.959 37.3718Z" stroke="#FFECA0" stroke-width="1.5"/>
</svg>
