<svg width="146" height="19" viewBox="0 0 146 19" fill="none" xmlns="http://www.w3.org/2000/svg">
<path d="M11.6936 18.0675H9.31936L3.64214 9.95213L2.01489 11.4756V18.0675H0V1.0686H2.01489V9.45431L3.3918 7.83639L9.08921 1.0686H11.4433L5.10788 8.47584L11.6936 18.0675Z" fill="#F0FFFF"/>
<path d="M23.9005 18.0675L21.9745 12.8018H15.631L13.7292 18.0675H11.6941L17.9406 1H19.7577L25.9921 18.0675H23.9005ZM21.3728 10.9049L19.58 5.75505L18.8169 3.21015C18.5958 4.14035 18.3656 4.989 18.1264 5.75505L16.3094 10.9049H21.3728Z" fill="#F0FFFF"/>
<path d="M32.3564 9.42856L36.5235 1.0686H38.6918L33.3618 11.4756V18.0675H31.3389V11.5701L26.0129 1.0686H28.2136L32.3564 9.42856Z" fill="#F0FFFF"/>
<path d="M40.8677 18.0675V1.0686H42.8826V16.162H49.8721V18.0675H40.8677Z" fill="#F0FFFF"/>
<path d="M61.5407 18.0675H52.605V1.0686H61.5407V2.9526H54.6199V8.25697H61.137V10.1152H54.6199V16.1835H61.5407V18.0675Z" fill="#F0FFFF"/>
<path d="M74.0002 18.0675H65.0645V1.0686H74.0002V2.9526H67.0793V8.25697H73.5964V10.1152H67.0793V16.1835H74.0002V18.0675Z" fill="#F0FFFF"/>
<path d="M96.2391 17.7741H92.8245V10.6465H86.4256V17.7741H83V1.25969H86.4256V7.73196H92.8245V1.25969H96.2391V17.7741ZM114.981 9.49437C114.981 12.228 114.318 14.3289 112.992 15.7979C111.666 17.2659 109.765 18 107.29 18C104.815 18 102.913 17.2659 101.587 15.7979C100.261 14.3289 99.5978 12.2202 99.5978 9.47187C99.5978 6.72351 100.263 4.62437 101.593 3.17445C102.923 1.72453 104.829 1 107.312 1C109.795 1 111.694 1.73059 113.009 3.19176C114.324 4.65207 114.981 6.75381 114.981 9.49437ZM103.19 9.49437C103.19 11.3399 103.532 12.7292 104.217 13.6624C104.903 14.5964 105.926 15.0629 107.29 15.0629C110.023 15.0629 111.39 13.207 111.39 9.49437C111.39 5.77478 110.03 3.91456 107.312 3.91456C105.948 3.91456 104.921 4.38286 104.228 5.32033C103.536 6.25867 103.19 7.64973 103.19 9.49437ZM127.634 17.7741H118.329V1.25969H127.634V4.12923H121.755V7.75533H127.225V10.624H121.755V14.8829H127.634V17.7741ZM144 17.7741H140.11L135.878 10.8162L134.43 11.8783V17.7741H131.004V1.25969H134.43V8.81659L135.779 6.87413L140.154 1.25969H143.956L138.32 8.56816L144 17.7741Z" stroke="#FFECA0" stroke-width="1.5"/>
</svg>
