<svg width="30" height="30" viewBox="0 0 30 30" fill="none" xmlns="http://www.w3.org/2000/svg">
<path fill-rule="evenodd" clip-rule="evenodd" d="M15 30C23.2843 30 30 23.2843 30 15C30 6.71573 23.2843 0 15 0C6.71573 0 0 6.71573 0 15C0 23.2843 6.71573 30 15 30ZM13.7487 9.39463C13.2609 9.47593 12.8285 9.75551 12.5541 10.167L12.3841 10.422C11.996 11.1983 11.887 12.0845 12.0752 12.9317L12.3841 14.322L10.292 22.9168C10.2868 22.9381 10.2852 22.96 10.2871 22.9818L10.5393 25.8163C10.5553 25.9971 10.7847 26.0647 10.8963 25.9215L12.7357 23.5599C12.7538 23.5366 12.7666 23.5096 12.7731 23.4807L13.8842 18.522L15.3138 19.3798C16.3222 19.9848 17.5242 20.1799 18.6721 19.9249C19.2745 19.791 19.8438 19.5372 20.3459 19.1784L20.6486 18.9621C21.3324 18.4735 21.9135 17.8554 22.3591 17.1428L22.4882 16.9364C22.9493 16.1989 23.2813 15.3882 23.4697 14.5391L23.5563 14.1492C23.7078 13.4665 23.7843 12.7692 23.7843 12.0699L23.7843 11.1289C23.7843 10.0759 23.5097 9.04114 22.9875 8.12678C22.7204 7.65904 22.392 7.22906 22.0111 6.84821L21.6818 6.51901C21.2853 6.12252 20.8416 5.77614 20.3608 5.48761C19.8458 5.17859 19.2925 4.93851 18.715 4.77353L17.4849 4.42207L16.8576 4.31753C16.0796 4.18785 15.2874 4.16624 14.5034 4.25333C13.4987 4.36495 12.5216 4.65353 11.6174 5.10574L11.5643 5.13227C10.9139 5.45757 10.3058 5.86138 9.75358 6.33466L9.6407 6.43142C8.87629 7.0866 8.23461 7.87262 7.74568 8.7527L7.43709 9.30818C7.13818 9.84622 6.94031 10.4344 6.85326 11.0438C6.74256 11.8186 6.8138 12.6087 7.06133 13.3513L7.43349 14.4677C7.53415 14.7697 7.66756 15.0598 7.83133 15.3327L7.99047 15.598C8.31341 16.1362 8.78312 16.5712 9.34452 16.8519C9.52415 16.9417 9.74169 16.8516 9.80523 16.6611L9.98499 16.1221L10.2011 15.4737C10.2536 15.3161 10.2254 15.1427 10.1258 15.0098L9.95388 14.7807C9.58006 14.2822 9.33147 13.7013 9.22904 13.0867C9.13416 12.5174 9.16718 11.9341 9.32572 11.3792L9.46345 10.8971C9.61041 10.3826 9.82428 9.88969 10.0996 9.43091L10.2367 9.20233C10.468 8.81693 10.7456 8.46134 11.0635 8.14354C11.5404 7.66663 12.101 7.28156 12.7173 7.00757L12.897 6.92771C13.9372 6.46526 15.0799 6.28162 16.2127 6.39488L16.6328 6.43688C17.1961 6.4932 17.7444 6.65185 18.2508 6.90503L18.2766 6.91797C18.9387 7.24898 19.5096 7.73695 19.9397 8.33931C20.489 9.10856 20.7842 10.0302 20.7842 10.9754V12.1847C20.7842 12.8055 20.6842 13.4223 20.4878 14.0113L20.2469 14.734C20.0114 15.4406 19.5548 16.0526 18.9447 16.4797C17.7155 17.3402 16.0725 17.3132 14.8722 16.413L14.4842 16.122L15.0842 13.422L15.692 11.5989C15.8742 11.0522 15.7668 10.4503 15.4068 10.0003C15.0223 9.51978 14.408 9.28474 13.801 9.38591L13.7487 9.39463Z" fill="#F0FFFF"/>
</svg>
