<svg width="333" height="92" viewBox="0 0 333 92" fill="none" xmlns="http://www.w3.org/2000/svg">
<path fill-rule="evenodd" clip-rule="evenodd" d="M326.106 54.9201C327.066 52.1467 327.546 48.9734 327.546 45.4001C327.546 40.6001 326.666 36.5467 324.906 33.2401C323.2 29.9334 320.826 27.4267 317.786 25.7201C314.8 23.9601 311.333 23.0801 307.386 23.0801C303.226 23.0801 299.6 23.9601 296.506 25.7201C293.466 27.4267 291.12 29.9334 289.466 33.2401C287.866 36.5467 287.066 40.5734 287.066 45.3201C287.066 48.9467 287.573 52.1467 288.586 54.9201C289.6 57.6934 290.986 60.0401 292.746 61.9601C294.56 63.8801 296.693 65.3467 299.146 66.3601C301.6 67.3201 304.266 67.8001 307.146 67.8001C310.293 67.8001 313.12 67.3201 315.626 66.3601C318.133 65.3467 320.266 63.8801 322.026 61.9601C323.786 60.0401 325.146 57.6934 326.106 54.9201ZM320.28 21.3859C324.2 23.5988 327.221 26.8343 329.336 30.9205C331.563 35.119 332.546 40.0179 332.546 45.4001C332.546 49.4131 332.008 53.156 330.831 56.5556C329.676 59.8931 327.989 62.8547 325.712 65.3387C323.43 67.8284 320.67 69.7143 317.5 70.9956L317.458 71.0129L317.415 71.0294C314.248 72.2421 310.801 72.8001 307.146 72.8001C303.701 72.8001 300.41 72.2238 297.324 71.0163L297.281 70.9992L297.237 70.9814C294.135 69.6998 291.412 67.8294 289.111 65.3932L289.086 65.3661L289.061 65.3387C286.803 62.8757 285.098 59.9426 283.89 56.636C282.636 53.2035 282.066 49.4031 282.066 45.3201C282.066 40.0316 282.955 35.2163 284.965 31.0623L284.98 31.0331L284.994 31.004C287.064 26.8637 290.087 23.5928 294.047 21.3664C298.01 19.1156 302.512 18.0801 307.386 18.0801C312.081 18.0801 316.433 19.131 320.28 21.3859ZM296.986 53.7201C296.186 51.3734 295.786 48.6001 295.786 45.4001C295.786 40.5467 296.693 36.7867 298.506 34.1201C300.32 31.4534 303.226 30.1201 307.226 30.1201C309.946 30.1201 312.133 30.7334 313.786 31.9601C315.493 33.1334 316.746 34.8401 317.546 37.0801C318.4 39.3201 318.826 42.0934 318.826 45.4001C318.826 48.6001 318.426 51.3734 317.626 53.7201C316.826 56.0134 315.573 57.7734 313.866 59.0001C312.16 60.2267 309.973 60.8401 307.306 60.8401C304.64 60.8401 302.453 60.2267 300.746 59.0001C299.04 57.7734 297.786 56.0134 296.986 53.7201ZM301.713 52.0909C301.137 50.3918 300.786 48.1937 300.786 45.4001C300.786 41.074 301.61 38.4478 302.641 36.9316C303.296 35.9687 304.431 35.1201 307.226 35.1201C309.216 35.1201 310.255 35.5661 310.807 35.9756L310.879 36.0292L310.954 36.0803C311.67 36.5726 312.337 37.3591 312.838 38.7618L312.855 38.8111L312.874 38.8601C313.445 40.3606 313.826 42.487 313.826 45.4001C313.826 48.1924 313.476 50.3898 312.9 52.0885C312.385 53.5578 311.693 54.4048 310.948 54.94C310.296 55.4089 309.209 55.8401 307.306 55.8401C305.404 55.8401 304.317 55.4089 303.664 54.94C302.92 54.4051 302.229 53.5586 301.713 52.0909Z" fill="#FFB4C7"/>
<path fill-rule="evenodd" clip-rule="evenodd" d="M281.229 18.8795V71.9995H262.749V18.8795H264.287C262.684 16.922 262.189 14.5119 262.189 12.3595C262.189 9.8652 262.831 6.83185 265.371 4.73984L265.425 4.69553L265.48 4.65273C267.438 3.1294 269.734 2.47949 272.069 2.47949C274.399 2.47949 276.613 3.18597 278.499 4.65273C281.151 6.71526 281.869 9.77735 281.869 12.3595C281.869 14.5474 281.337 16.9458 279.716 18.8795H281.229ZM268.549 8.59949C269.509 7.85283 270.683 7.47949 272.069 7.47949C273.349 7.47949 274.469 7.85283 275.429 8.59949C276.389 9.34616 276.869 10.5995 276.869 12.3595C276.869 14.0662 276.389 15.3195 275.429 16.1195C274.469 16.8662 273.349 17.2395 272.069 17.2395C270.683 17.2395 269.509 16.8662 268.549 16.1195C267.643 15.3195 267.189 14.0662 267.189 12.3595C267.189 10.5995 267.643 9.34616 268.549 8.59949ZM276.229 23.8795H267.749V66.9995H276.229V23.8795Z" fill="#FFB4C7"/>
<path fill-rule="evenodd" clip-rule="evenodd" d="M259.433 72.0002H240.953V1.2002H259.433V72.0002ZM254.433 67.0002V6.2002H245.953V67.0002H254.433Z" fill="#FFB4C7"/>
<path fill-rule="evenodd" clip-rule="evenodd" d="M233.763 54.9201C234.723 52.1467 235.203 48.9734 235.203 45.4001C235.203 40.6001 234.323 36.5467 232.563 33.2401C230.856 29.9334 228.483 27.4267 225.443 25.7201C222.456 23.9601 218.989 23.0801 215.043 23.0801C210.883 23.0801 207.256 23.9601 204.163 25.7201C201.123 27.4267 198.776 29.9334 197.123 33.2401C195.523 36.5467 194.723 40.5734 194.723 45.3201C194.723 48.9467 195.229 52.1467 196.243 54.9201C197.256 57.6934 198.643 60.0401 200.403 61.9601C202.216 63.8801 204.349 65.3467 206.803 66.3601C209.256 67.3201 211.923 67.8001 214.803 67.8001C217.949 67.8001 220.776 67.3201 223.283 66.3601C225.789 65.3467 227.923 63.8801 229.683 61.9601C231.443 60.0401 232.803 57.6934 233.763 54.9201ZM221.443 31.9601C219.789 30.7334 217.603 30.1201 214.883 30.1201C210.883 30.1201 207.976 31.4534 206.163 34.1201C204.349 36.7867 203.443 40.5467 203.443 45.4001C203.443 48.6001 203.843 51.3734 204.643 53.7201C205.443 56.0134 206.696 57.7734 208.403 59.0001C210.109 60.2267 212.296 60.8401 214.963 60.8401C217.629 60.8401 219.816 60.2267 221.523 59.0001C223.229 57.7734 224.483 56.0134 225.283 53.7201C226.083 51.3734 226.483 48.6001 226.483 45.4001C226.483 42.0934 226.056 39.3201 225.203 37.0801C224.403 34.8401 223.149 33.1334 221.443 31.9601ZM220.556 52.0885C221.132 50.3898 221.483 48.1924 221.483 45.4001C221.483 42.487 221.102 40.3606 220.53 38.8601L220.511 38.8111L220.494 38.7618C219.993 37.3591 219.326 36.5726 218.61 36.0803L218.536 36.0292L218.463 35.9756C217.911 35.5661 216.872 35.1201 214.883 35.1201C212.087 35.1201 210.952 35.9687 210.297 36.9316C209.266 38.4478 208.443 41.074 208.443 45.4001C208.443 48.193 208.793 50.3907 209.369 52.0896C209.884 53.5582 210.576 54.405 211.321 54.94C211.973 55.4089 213.06 55.8401 214.963 55.8401C216.865 55.8401 217.952 55.4089 218.604 54.94C219.349 54.4048 220.041 53.5578 220.556 52.0885ZM201.702 21.3673C197.742 23.5937 194.72 26.8643 192.65 31.004L192.636 31.0331L192.622 31.0623C190.612 35.2163 189.723 40.0316 189.723 45.3201C189.723 49.4031 190.292 53.2035 191.546 56.636C192.754 59.9426 194.459 62.8757 196.717 65.3387L196.742 65.3661L196.767 65.3932C199.068 67.8294 201.791 69.6998 204.894 70.9814L204.937 70.9992L204.981 71.0163C208.066 72.2238 211.357 72.8001 214.803 72.8001C218.457 72.8001 221.904 72.2421 225.071 71.0294L225.114 71.0129L225.156 70.9956C228.326 69.7143 231.086 67.8284 233.368 65.3387C235.645 62.8547 237.332 59.8931 238.487 56.5556C239.664 53.156 240.203 49.4131 240.203 45.4001C240.203 40.0169 239.219 35.1171 236.991 30.9181C234.876 26.8329 231.856 23.5982 227.936 21.3857C224.089 19.1309 219.738 18.0801 215.043 18.0801C210.168 18.0801 205.665 19.1159 201.702 21.3673Z" fill="#FFB4C7"/>
<path fill-rule="evenodd" clip-rule="evenodd" d="M194.649 35.3598H184.009V71.9998H165.529V35.3598H158.249V30.3598H159.584V23.8798H158.249V22.8544L165.536 20.2116C165.612 16.4023 166.246 12.8738 167.759 9.92043L167.769 9.90005L167.78 9.87977C169.418 6.75162 171.84 4.3157 175.023 2.80342C177.991 1.39392 181.352 0.799805 184.929 0.799805C187.076 0.799805 189.128 0.98345 191.062 1.3835C192.747 1.73217 194.281 2.13182 195.621 2.60051L200.27 4.22779L195.001 20.0357L194.649 19.9258V35.3598ZM170.529 23.7198L163.249 26.3598V30.3598H170.529V66.9998H179.009V30.3598H189.649V23.8798H179.009V21.0798C179.009 20.2903 179.048 19.557 179.127 18.8798C179.331 17.1325 179.798 15.7592 180.529 14.7598C181.595 13.3731 183.195 12.6798 185.329 12.6798C186.555 12.6798 187.729 12.8131 188.849 13.0798C189.969 13.2931 190.955 13.5331 191.809 13.7998L193.969 7.31981C193.791 7.25759 193.607 7.19611 193.415 7.13537C192.46 6.83166 191.338 6.54647 190.049 6.2798C189.74 6.21587 189.424 6.15832 189.103 6.10715C187.814 5.90225 186.422 5.7998 184.929 5.7998C181.889 5.7998 179.302 6.30647 177.169 7.31981C175.035 8.33314 173.382 9.9598 172.209 12.1998C171.089 14.3865 170.529 17.3198 170.529 20.9998V23.7198ZM184.518 17.7871C184.569 17.7651 184.801 17.6798 185.329 17.6798C186.191 17.6798 186.974 17.7732 187.691 17.9438L187.801 17.9702L187.913 17.9915C188.894 18.1783 189.688 18.3756 190.317 18.5722L191.302 18.8798H184.18C184.293 18.2697 184.436 17.9361 184.518 17.7871Z" fill="#FFB4C7"/>
<path fill-rule="evenodd" clip-rule="evenodd" d="M127.784 31.1123V35.3602H133.784V54.2002C133.784 58.1784 134.43 61.942 136.246 64.9956C137.909 67.792 140.245 69.9591 143.261 71.2156L143.283 71.2248L143.305 71.2339C145.934 72.2994 148.739 72.8002 151.664 72.8002C153.53 72.8002 155.389 72.6097 157.235 72.2334C158.975 71.9287 160.661 71.4877 162.113 70.8043L164.984 69.4532V53.0792L158.492 55.1078C157.887 55.297 157.083 55.4929 156.049 55.6808C155.152 55.844 154.305 55.9202 153.504 55.9202C152.909 55.9202 152.64 55.8072 152.499 55.7097C152.43 55.5662 152.264 55.1052 152.264 54.0402V35.3602H164.584V30.3602H163.249V26.3602L164.584 25.8761V18.8802H152.264V9.2002H138.43L134.99 19.7988L128.144 23.2651C128.879 23.3173 129.498 23.389 129.999 23.4802L129.119 31.4002C128.723 31.2921 128.278 31.1961 127.784 31.1123ZM139.104 23.3202L132.784 26.5202V30.3602H138.784V54.2002C138.784 57.7202 139.37 60.4669 140.544 62.4402C141.717 64.4135 143.264 65.8002 145.184 66.6002C147.157 67.4002 149.317 67.8002 151.664 67.8002C153.21 67.8002 154.757 67.6402 156.304 67.3202C157.85 67.0535 159.077 66.7069 159.984 66.2802V59.8802C159.13 60.1469 158.117 60.3869 156.944 60.6002C156.282 60.7205 155.629 60.8069 154.984 60.8594C154.485 60.8999 153.992 60.9202 153.504 60.9202C151.637 60.9202 150.117 60.3602 148.944 59.2402C147.824 58.1202 147.264 56.3869 147.264 54.0402V30.3602H159.584V23.8802H147.264V14.2002H142.064L139.104 23.3202Z" fill="#FFB4C7"/>
<path fill-rule="evenodd" clip-rule="evenodd" d="M127.759 23.2401C126.853 23.1334 126.026 23.0801 125.279 23.0801C125.19 23.0801 125.101 23.0809 125.013 23.0825C123.142 23.1171 121.418 23.5162 119.839 24.2801C118.494 24.8877 117.272 25.672 116.174 26.6329C115.922 26.8527 115.678 27.0818 115.439 27.3201C114.236 28.5232 113.198 29.8441 112.325 31.2828C112.279 31.3579 112.234 31.4333 112.189 31.509C112.179 31.526 112.169 31.543 112.159 31.5601H111.839L110.719 23.8801H103.999V67.0001H112.479V44.2801C112.479 42.1467 112.799 40.2534 113.439 38.6001C113.746 37.8678 114.101 37.1878 114.502 36.5601C115.007 35.7707 115.586 35.064 116.239 34.4401C116.261 34.4182 116.283 34.3964 116.305 34.3747C117.462 33.234 118.746 32.3758 120.159 31.8001C121.469 31.2389 122.819 30.9238 124.211 30.8546C124.406 30.8449 124.602 30.8401 124.799 30.8401C125.493 30.8401 126.239 30.8934 127.039 31.0001C127.839 31.1067 128.533 31.2401 129.119 31.4001L129.999 23.4801C129.452 23.3805 128.765 23.3042 127.939 23.2511C127.88 23.2473 127.82 23.2436 127.759 23.2401ZM128.198 18.2575C127.19 18.1434 126.214 18.0801 125.279 18.0801C122.632 18.0801 120.087 18.6174 117.722 19.75C116.9 20.1244 116.111 20.5498 115.356 21.0253L115.043 18.8801H98.9994V72.0001H117.479V44.2801C117.479 42.6768 117.715 41.433 118.078 40.468C118.528 39.4159 119.079 38.6416 119.692 38.0569L119.734 38.0167L119.775 37.9756C120.509 37.2414 121.264 36.7492 122.046 36.4305L122.088 36.4135L122.129 36.3958C123.01 36.0183 123.887 35.8401 124.799 35.8401C125.239 35.8401 125.763 35.8741 126.379 35.9562C127.024 36.0423 127.489 36.1379 127.804 36.2239L133.443 37.7619L134.266 30.3601H132.784V26.5201L134.806 25.4961L135.484 19.3953L130.894 18.5607C130.075 18.4119 129.161 18.3177 128.198 18.2575Z" fill="#FFB4C7"/>
<path fill-rule="evenodd" clip-rule="evenodd" d="M91.8094 54.9201C92.7694 52.1467 93.2494 48.9734 93.2494 45.4001C93.2494 40.6001 92.3694 36.5467 90.6094 33.2401C88.9027 29.9334 86.5294 27.4267 83.4894 25.7201C80.5027 23.9601 77.0361 23.0801 73.0894 23.0801C68.9294 23.0801 65.3027 23.9601 62.2094 25.7201C59.1694 27.4267 56.8227 29.9334 55.1694 33.2401C53.5694 36.5467 52.7694 40.5734 52.7694 45.3201C52.7694 48.9467 53.2761 52.1467 54.2894 54.9201C55.3027 57.6934 56.6894 60.0401 58.4494 61.9601C60.2627 63.8801 62.3961 65.3467 64.8494 66.3601C67.3027 67.3201 69.9694 67.8001 72.8494 67.8001C75.9961 67.8001 78.8227 67.3201 81.3294 66.3601C83.8361 65.3467 85.9694 63.8801 87.7294 61.9601C89.4894 60.0401 90.8494 57.6934 91.8094 54.9201ZM79.4894 31.9601C77.8361 30.7334 75.6494 30.1201 72.9294 30.1201C68.9294 30.1201 66.0227 31.4534 64.2094 34.1201C62.3961 36.7867 61.4894 40.5467 61.4894 45.4001C61.4894 48.6001 61.8894 51.3734 62.6894 53.7201C63.4894 56.0134 64.7427 57.7734 66.4494 59.0001C68.1561 60.2267 70.3427 60.8401 73.0094 60.8401C75.6761 60.8401 77.8627 60.2267 79.5694 59.0001C81.2761 57.7734 82.5294 56.0134 83.3294 53.7201C84.1294 51.3734 84.5294 48.6001 84.5294 45.4001C84.5294 42.0934 84.1027 39.3201 83.2494 37.0801C82.4494 34.8401 81.1961 33.1334 79.4894 31.9601ZM78.6026 52.0898C79.1791 50.3909 79.5294 48.1931 79.5294 45.4001C79.5294 42.487 79.1486 40.3606 78.577 38.8601L78.5583 38.8111L78.5407 38.7618C78.0398 37.3591 77.3728 36.5726 76.6568 36.0803L76.5825 36.0292L76.5102 35.9756C75.9583 35.5661 74.9194 35.1201 72.9294 35.1201C70.1343 35.1201 68.9989 35.9687 68.344 36.9316C67.313 38.4478 66.4894 41.074 66.4894 45.4001C66.4894 48.193 66.8396 50.3907 67.4161 52.0896C67.9314 53.5582 68.6232 54.405 69.3676 54.94C70.0199 55.4089 71.107 55.8401 73.0094 55.8401C74.9118 55.8401 75.9989 55.4089 76.6512 54.94C77.3956 54.405 78.0874 53.5583 78.6026 52.0898ZM85.9828 21.3859C89.903 23.5986 92.9235 26.8337 95.0382 30.9193C97.2657 35.118 98.2494 40.0174 98.2494 45.4001C98.2494 49.4131 97.7111 53.156 96.5343 56.5556C95.3791 59.8931 93.6922 62.8547 91.4152 65.3387C89.133 67.8284 86.373 69.7143 83.2034 70.9956L83.1607 71.0129L83.1176 71.0294C79.951 72.2421 76.504 72.8001 72.8494 72.8001C69.4042 72.8001 66.1132 72.2238 63.0274 71.0163L62.9838 70.9992L62.9406 70.9814C59.8378 69.6998 57.1152 67.8294 54.8143 65.3932L54.7888 65.3661L54.7636 65.3387C52.5059 62.8757 50.8013 59.9426 49.5931 56.636C48.3389 53.2035 47.7694 49.4031 47.7694 45.3201C47.7694 40.0316 48.6586 35.2163 50.6686 31.0623L50.6828 31.0331L50.6973 31.004C52.7672 26.8641 55.7895 23.5935 59.7494 21.3671C63.7119 19.1158 68.2152 18.0801 73.0894 18.0801C77.7846 18.0801 82.1363 19.131 85.9828 21.3859Z" fill="#FFB4C7"/>
<path fill-rule="evenodd" clip-rule="evenodd" d="M39.64 28.6801C36.4934 24.9467 32.3333 23.0801 27.16 23.0801C24.9733 23.0801 23.0533 23.3734 21.4 23.9601C20.1261 24.4121 18.9947 24.9908 18.0057 25.6962C17.7112 25.9062 17.4293 26.1275 17.16 26.3601C16.7237 26.7369 16.3094 27.1248 15.9174 27.5238C15.2846 28.1676 14.7095 28.8403 14.192 29.5417C14.1679 29.5745 14.1439 29.6072 14.12 29.6401H13.72L12.52 23.8801H5.64001V86.2001H14.12V68.6001C14.12 68.5969 14.12 68.5938 14.12 68.5907C14.12 68.4678 14.1192 68.343 14.1175 68.2163C14.1116 67.7446 14.0948 67.2459 14.0671 66.7201C14.0411 66.2242 14.0054 65.7042 13.96 65.1601C13.8677 64.0061 13.7554 62.9919 13.6231 62.1176C13.6026 61.9817 13.5815 61.8492 13.56 61.7201H14.12C14.1998 61.8198 14.2807 61.919 14.3628 62.0177C15.1589 62.9757 16.0647 63.8898 17.08 64.7601C17.1349 64.8025 17.1903 64.8445 17.2462 64.8862C17.2506 64.8895 17.2551 64.8928 17.2595 64.8961C17.8019 65.2995 18.3936 65.67 19.0346 66.0078C19.7372 66.378 20.499 66.7088 21.32 67.0001C22.9733 67.5334 24.8933 67.8001 27.08 67.8001C30.5467 67.8001 33.5867 66.9734 36.2 65.3201C38.8134 63.6134 40.84 61.0801 42.28 57.7201C43.72 54.3601 44.44 50.2534 44.44 45.4001C44.44 37.9867 42.84 32.4134 39.64 28.6801ZM43.4501 25.4423C39.292 20.5176 33.7004 18.0801 27.16 18.0801C24.5384 18.0801 22.032 18.4304 19.728 19.2479C18.7514 19.5945 17.8132 20.0073 16.9214 20.4912L16.5857 18.8801H0.640015V91.2001H19.12V71.5181C19.2948 71.5846 19.4708 71.6493 19.648 71.7122L19.7161 71.7364L19.785 71.7586C22.0434 72.4871 24.5008 72.8001 27.08 72.8001C31.3751 72.8001 35.3659 71.7644 38.8732 69.5455L38.9037 69.5262L38.934 69.5064C42.5064 67.1734 45.1153 63.7974 46.8757 59.6897C48.6545 55.5393 49.44 50.7202 49.44 45.4001C49.44 37.3863 47.7273 30.4429 43.4501 25.4423ZM19.115 31.4173C18.9939 31.4888 18.8756 31.563 18.76 31.6401C18.4302 31.8489 18.1186 32.0805 17.825 32.3346C17.0981 32.9641 16.4823 33.7326 15.9777 34.6401C15.6975 35.1439 15.4516 35.6906 15.24 36.2801C14.5467 38.3067 14.1733 40.8934 14.12 44.0401V45.3201C14.12 48.6267 14.4667 51.4534 15.16 53.8001C15.491 54.895 15.9254 55.8683 16.4631 56.7201C16.9114 57.4303 17.4316 58.056 18.0236 58.5972C18.0251 58.5986 18.0267 58.6 18.0282 58.6015C18.2119 58.7691 18.4025 58.9287 18.6 59.0801C20.2533 60.2534 22.4933 60.8401 25.32 60.8401C27.72 60.8401 29.6667 60.2001 31.16 58.9201C32.7067 57.5868 33.8534 55.7467 34.6 53.4001C35.3467 51.0534 35.72 48.3334 35.72 45.2401C35.72 40.5467 34.8667 36.8401 33.16 34.1201C31.4534 31.4001 28.7867 30.0401 25.16 30.0401C22.6859 30.0401 20.6709 30.4992 19.115 31.4173ZM21.5653 55.0515C22.1236 55.4194 23.2268 55.8401 25.32 55.8401C26.794 55.8401 27.5013 55.4689 27.9012 55.128C28.6134 54.5119 29.3125 53.5275 29.8354 51.8841C30.3921 50.1345 30.72 47.9446 30.72 45.2401C30.72 41.078 29.9517 38.4143 28.9247 36.7775C28.2645 35.7254 27.3296 35.0401 25.16 35.0401C23.1115 35.0401 22.0512 35.4552 21.5335 35.8003L21.4848 35.8328L21.4353 35.8642C20.9316 36.1831 20.3925 36.7437 19.9586 37.9347C19.502 39.2872 19.1703 41.2846 19.12 44.0837V45.3201C19.12 48.2947 19.434 50.612 19.9505 52.3677C20.3805 53.7822 20.9713 54.5702 21.5653 55.0515Z" fill="#FFB4C7"/>
</svg>
