<svg width="92" height="125" viewBox="0 0 92 125" fill="none" xmlns="http://www.w3.org/2000/svg">
<path d="M33.04 86H20.96V52.96C20.96 52.0533 20.96 50.9333 20.96 49.6C21.0133 48.2667 21.0667 46.88 21.12 45.44C21.1733 44 21.2267 42.72 21.28 41.6C21.0133 41.92 20.4267 42.5067 19.52 43.36C18.6667 44.16 17.8667 44.88 17.12 45.52L10.56 50.8L4.72 43.52L23.12 28.88H33.04V86ZM86.6613 41.68C86.6613 44.2933 86.1013 46.56 84.9813 48.48C83.9146 50.4 82.4479 51.9733 80.5813 53.2C78.7679 54.4267 76.6879 55.3333 74.3413 55.92V56.16C78.9279 56.6933 82.3946 58.08 84.7413 60.32C87.1413 62.56 88.3413 65.5733 88.3413 69.36C88.3413 72.6667 87.5146 75.6533 85.8613 78.32C84.2613 80.9333 81.7546 83.0133 78.3413 84.56C74.9813 86.0533 70.6346 86.8 65.3013 86.8C62.1546 86.8 59.2213 86.5333 56.5013 86C53.7813 85.4667 51.2213 84.6933 48.8213 83.68V73.44C51.2746 74.6667 53.8346 75.6 56.5013 76.24C59.2213 76.88 61.7279 77.2 64.0213 77.2C68.3413 77.2 71.3546 76.4533 73.0613 74.96C74.8213 73.4667 75.7013 71.36 75.7013 68.64C75.7013 67.04 75.3013 65.7067 74.5013 64.64C73.7013 63.52 72.2879 62.6933 70.2613 62.16C68.2879 61.5733 65.5146 61.28 61.9413 61.28H57.6213V52H62.0213C65.5413 52 68.2079 51.68 70.0213 51.04C71.8879 50.3467 73.1413 49.44 73.7813 48.32C74.4746 47.1467 74.8213 45.8133 74.8213 44.32C74.8213 42.2933 74.1813 40.72 72.9013 39.6C71.6746 38.4267 69.5946 37.84 66.6613 37.84C64.8479 37.84 63.1946 38.08 61.7013 38.56C60.2079 38.9867 58.8479 39.52 57.6213 40.16C56.4479 40.8 55.4079 41.4133 54.5013 42L48.9013 33.68C50.3946 32.6133 52.0479 31.6533 53.8613 30.8C55.7279 29.9467 57.7813 29.28 60.0213 28.8C62.2613 28.32 64.7679 28.08 67.5413 28.08C73.4079 28.08 78.0479 29.28 81.4613 31.68C84.9279 34.0267 86.6613 37.36 86.6613 41.68Z" fill="#FFB4C7"/>
<path d="M15.292 103.292C17.3453 103.292 18.8413 103.695 19.78 104.502C20.7187 105.309 21.188 106.445 21.188 107.912C21.188 108.557 21.078 109.181 20.858 109.782C20.6527 110.369 20.308 110.897 19.824 111.366C19.34 111.835 18.6947 112.209 17.888 112.488C17.0813 112.752 16.0913 112.884 14.918 112.884H13.114V119H11.134V103.292H15.292ZM15.116 104.986H13.114V111.19H14.698C15.6953 111.19 16.524 111.087 17.184 110.882C17.844 110.662 18.3353 110.317 18.658 109.848C18.9807 109.379 19.142 108.763 19.142 108C19.142 106.988 18.8193 106.233 18.174 105.734C17.5287 105.235 16.5093 104.986 15.116 104.986ZM29.6903 106.988C29.9103 106.988 30.145 107.003 30.3943 107.032C30.6583 107.047 30.8856 107.076 31.0763 107.12L30.8343 108.902C30.6436 108.858 30.431 108.821 30.1963 108.792C29.9763 108.763 29.7636 108.748 29.5583 108.748C29.1036 108.748 28.671 108.843 28.2603 109.034C27.8496 109.225 27.483 109.496 27.1603 109.848C26.8376 110.185 26.581 110.596 26.3903 111.08C26.2143 111.564 26.1263 112.107 26.1263 112.708V119H24.1903V107.208H25.7743L25.9943 109.364H26.0823C26.3316 108.924 26.6323 108.528 26.9843 108.176C27.3363 107.809 27.7396 107.523 28.1943 107.318C28.649 107.098 29.1476 106.988 29.6903 106.988ZM43.1005 113.082C43.1005 114.065 42.9685 114.937 42.7045 115.7C42.4552 116.448 42.0885 117.086 41.6045 117.614C41.1352 118.142 40.5558 118.545 39.8665 118.824C39.1918 119.088 38.4365 119.22 37.6005 119.22C36.8232 119.22 36.1045 119.088 35.4445 118.824C34.7845 118.545 34.2125 118.142 33.7285 117.614C33.2445 117.086 32.8632 116.448 32.5845 115.7C32.3205 114.937 32.1885 114.065 32.1885 113.082C32.1885 111.777 32.4085 110.677 32.8485 109.782C33.2885 108.873 33.9192 108.183 34.7405 107.714C35.5618 107.23 36.5372 106.988 37.6665 106.988C38.7372 106.988 39.6758 107.23 40.4825 107.714C41.3038 108.183 41.9418 108.873 42.3965 109.782C42.8658 110.677 43.1005 111.777 43.1005 113.082ZM34.1905 113.082C34.1905 114.006 34.3078 114.813 34.5425 115.502C34.7918 116.177 35.1732 116.697 35.6865 117.064C36.1998 117.431 36.8525 117.614 37.6445 117.614C38.4365 117.614 39.0892 117.431 39.6025 117.064C40.1158 116.697 40.4898 116.177 40.7245 115.502C40.9738 114.813 41.0985 114.006 41.0985 113.082C41.0985 112.143 40.9738 111.344 40.7245 110.684C40.4752 110.024 40.0938 109.518 39.5805 109.166C39.0818 108.799 38.4292 108.616 37.6225 108.616C36.4198 108.616 35.5472 109.012 35.0045 109.804C34.4618 110.596 34.1905 111.689 34.1905 113.082ZM44.7828 124.28C44.4162 124.28 44.0935 124.251 43.8148 124.192C43.5362 124.148 43.2942 124.089 43.0888 124.016V122.454C43.3088 122.513 43.5362 122.564 43.7708 122.608C44.0055 122.652 44.2622 122.674 44.5408 122.674C45.0102 122.674 45.3988 122.542 45.7068 122.278C46.0148 122.029 46.1688 121.545 46.1688 120.826V107.208H48.1048V120.76C48.1048 121.493 47.9875 122.124 47.7528 122.652C47.5182 123.18 47.1588 123.583 46.6748 123.862C46.1908 124.141 45.5602 124.28 44.7828 124.28ZM46.0148 104.018C46.0148 103.593 46.1248 103.285 46.3448 103.094C46.5648 102.889 46.8362 102.786 47.1588 102.786C47.4522 102.786 47.7088 102.889 47.9288 103.094C48.1635 103.285 48.2808 103.593 48.2808 104.018C48.2808 104.429 48.1635 104.737 47.9288 104.942C47.7088 105.147 47.4522 105.25 47.1588 105.25C46.8362 105.25 46.5648 105.147 46.3448 104.942C46.1248 104.737 46.0148 104.429 46.0148 104.018ZM56.3947 106.988C57.4067 106.988 58.272 107.208 58.9907 107.648C59.724 108.088 60.2814 108.711 60.6627 109.518C61.0587 110.31 61.2567 111.241 61.2567 112.312V113.478H53.1827C53.212 114.813 53.5494 115.832 54.1947 116.536C54.8547 117.225 55.7714 117.57 56.9447 117.57C57.6927 117.57 58.3527 117.504 58.9247 117.372C59.5114 117.225 60.1127 117.02 60.7287 116.756V118.45C60.1274 118.714 59.5334 118.905 58.9467 119.022C58.36 119.154 57.6634 119.22 56.8567 119.22C55.742 119.22 54.752 118.993 53.8867 118.538C53.036 118.083 52.3687 117.409 51.8847 116.514C51.4154 115.605 51.1807 114.497 51.1807 113.192C51.1807 111.901 51.3934 110.794 51.8187 109.87C52.2587 108.946 52.8674 108.235 53.6447 107.736C54.4367 107.237 55.3534 106.988 56.3947 106.988ZM56.3727 108.572C55.4487 108.572 54.7154 108.873 54.1727 109.474C53.6447 110.061 53.3294 110.882 53.2267 111.938H59.2327C59.2327 111.263 59.13 110.677 58.9247 110.178C58.7194 109.679 58.404 109.291 57.9787 109.012C57.568 108.719 57.0327 108.572 56.3727 108.572ZM68.9887 119.22C67.9473 119.22 67.016 119.007 66.1947 118.582C65.388 118.157 64.75 117.497 64.2807 116.602C63.826 115.707 63.5987 114.563 63.5987 113.17C63.5987 111.718 63.8407 110.537 64.3247 109.628C64.8087 108.719 65.4613 108.051 66.2827 107.626C67.1187 107.201 68.0647 106.988 69.1207 106.988C69.722 106.988 70.3013 107.054 70.8587 107.186C71.416 107.303 71.8707 107.45 72.2227 107.626L71.6287 109.232C71.2767 109.1 70.866 108.975 70.3967 108.858C69.9273 108.741 69.4873 108.682 69.0767 108.682C68.2847 108.682 67.632 108.851 67.1187 109.188C66.6053 109.525 66.224 110.024 65.9747 110.684C65.7253 111.344 65.6007 112.165 65.6007 113.148C65.6007 114.087 65.7253 114.886 65.9747 115.546C66.224 116.206 66.598 116.705 67.0967 117.042C67.5953 117.379 68.2187 117.548 68.9667 117.548C69.612 117.548 70.1767 117.482 70.6607 117.35C71.1593 117.218 71.614 117.057 72.0247 116.866V118.582C71.6287 118.787 71.1887 118.941 70.7047 119.044C70.2353 119.161 69.6633 119.22 68.9887 119.22ZM78.767 117.636C79.0603 117.636 79.361 117.614 79.669 117.57C79.977 117.511 80.2263 117.453 80.417 117.394V118.868C80.2117 118.971 79.9183 119.051 79.537 119.11C79.1557 119.183 78.789 119.22 78.437 119.22C77.821 119.22 77.249 119.117 76.721 118.912C76.2077 118.692 75.7897 118.318 75.467 117.79C75.1443 117.262 74.983 116.521 74.983 115.568V108.704H73.311V107.78L75.005 107.01L75.775 104.502H76.919V107.208H80.329V108.704H76.919V115.524C76.919 116.243 77.0877 116.778 77.425 117.13C77.777 117.467 78.2243 117.636 78.767 117.636ZM90.4562 115.744C90.4562 116.507 90.2655 117.145 89.8842 117.658C89.5029 118.171 88.9602 118.56 88.2562 118.824C87.5522 119.088 86.7162 119.22 85.7482 119.22C84.9269 119.22 84.2155 119.154 83.6142 119.022C83.0275 118.89 82.5069 118.707 82.0522 118.472V116.712C82.5215 116.947 83.0862 117.167 83.7462 117.372C84.4209 117.563 85.1029 117.658 85.7922 117.658C86.7749 117.658 87.4862 117.504 87.9262 117.196C88.3662 116.873 88.5862 116.448 88.5862 115.92C88.5862 115.627 88.5055 115.363 88.3442 115.128C88.1829 114.893 87.8895 114.659 87.4642 114.424C87.0535 114.189 86.4595 113.925 85.6822 113.632C84.9195 113.339 84.2669 113.045 83.7242 112.752C83.1815 112.459 82.7635 112.107 82.4702 111.696C82.1769 111.285 82.0302 110.757 82.0302 110.112C82.0302 109.115 82.4335 108.345 83.2402 107.802C84.0615 107.259 85.1322 106.988 86.4522 106.988C87.1709 106.988 87.8382 107.061 88.4542 107.208C89.0849 107.34 89.6715 107.531 90.2142 107.78L89.5542 109.32C89.2315 109.173 88.8869 109.049 88.5202 108.946C88.1682 108.829 87.8089 108.741 87.4422 108.682C87.0755 108.609 86.7015 108.572 86.3202 108.572C85.5282 108.572 84.9195 108.704 84.4942 108.968C84.0835 109.217 83.8782 109.562 83.8782 110.002C83.8782 110.325 83.9735 110.603 84.1642 110.838C84.3549 111.058 84.6702 111.278 85.1102 111.498C85.5649 111.703 86.1662 111.953 86.9142 112.246C87.6622 112.525 88.3002 112.811 88.8282 113.104C89.3562 113.397 89.7595 113.757 90.0382 114.182C90.3169 114.593 90.4562 115.113 90.4562 115.744Z" fill="black"/>
</svg>
