<svg width="192" height="72" viewBox="0 0 192 72" fill="none" xmlns="http://www.w3.org/2000/svg">
<path fill-rule="evenodd" clip-rule="evenodd" d="M184.028 60.9601C185.415 59.0401 186.108 56.6667 186.108 53.8401C186.108 51.4401 185.601 49.4667 184.588 47.9201C183.628 46.3734 182.188 45.0667 180.268 44.0001C178.401 42.9334 176.135 41.8934 173.468 40.8801C170.801 39.8134 168.695 38.9067 167.148 38.1601C165.601 37.4134 164.508 36.6667 163.868 35.9201C163.281 35.1734 162.988 34.2934 162.988 33.2801C162.988 31.8401 163.655 30.7201 164.988 29.9201C166.321 29.1201 168.268 28.7201 170.828 28.7201C172.215 28.7201 173.548 28.8534 174.828 29.1201C176.161 29.3867 177.468 29.7334 178.748 30.1601C179.499 30.3704 180.234 30.6146 180.951 30.8927C181.507 31.1082 182.053 31.344 182.588 31.6001L185.388 25.1203C184.891 24.89 184.39 24.6731 183.884 24.4703C182.837 24.0501 181.772 23.6891 180.69 23.3873C179.997 23.194 179.296 23.0249 178.588 22.8801C176.295 22.3467 173.841 22.0801 171.228 22.0801C166.268 22.0801 162.268 23.0934 159.228 25.1201C156.241 27.0934 154.748 29.9467 154.748 33.6801C154.748 36.0801 155.255 38.0534 156.268 39.6001C157.281 41.0934 158.748 42.4001 160.668 43.5201C162.588 44.5867 164.908 45.6801 167.628 46.8001C170.455 47.8667 172.588 48.8267 174.028 49.6801C175.521 50.4801 176.535 51.2801 177.068 52.0801C177.601 52.8267 177.868 53.6801 177.868 54.6401C177.868 56.3467 177.148 57.7067 175.708 58.7201C174.321 59.7334 172.028 60.2401 168.828 60.2401C166.428 60.2401 163.975 59.8934 161.468 59.2001C160.907 59.0329 160.36 58.8616 159.828 58.6864C157.985 58.0791 156.318 57.4237 154.828 56.7201V64.1601C156.641 65.0134 158.615 65.6534 160.748 66.0801C162.935 66.5601 165.548 66.8001 168.588 66.8001C172.268 66.8001 175.415 66.3201 178.028 65.3601C180.641 64.3467 182.641 62.8801 184.028 60.9601ZM159.722 70.9738C157.242 70.4744 154.895 69.7175 152.699 68.6842L149.828 67.3331V48.8295L156.963 52.1988C158.598 52.9707 160.551 53.7075 162.847 54.3937C164.939 54.9682 166.928 55.2401 168.828 55.2401C170.186 55.2401 171.178 55.1305 171.869 54.9778C172.334 54.8751 172.586 54.77 172.694 54.7167C172.471 54.5535 172.139 54.3406 171.667 54.0875L171.572 54.0365L171.479 53.9815C170.412 53.3494 168.597 52.5099 165.863 51.4781L165.793 51.4518L165.724 51.4235C162.881 50.2526 160.375 49.0773 158.24 47.8909L158.194 47.8654L158.149 47.839C155.73 46.4278 153.649 44.6457 152.131 42.4076L152.108 42.3741L152.086 42.3402C150.401 39.7688 149.748 36.7672 149.748 33.6801C149.748 28.3577 152.01 23.9001 156.463 20.9545C160.568 18.2203 165.628 17.0801 171.228 17.0801C174.158 17.0801 176.972 17.3767 179.655 17.9949C182.361 18.5535 184.975 19.4177 187.49 20.5835L191.91 22.6317L185.117 38.3521L180.431 36.1107C179.469 35.6509 178.46 35.2718 177.4 34.9749L177.283 34.942L177.167 34.9035C176.085 34.5429 174.979 34.2493 173.847 34.023L173.828 34.0191L173.808 34.015C172.883 33.8223 171.893 33.7201 170.828 33.7201C170.341 33.7201 169.918 33.7383 169.553 33.7681C170.928 34.4213 172.826 35.2374 175.285 36.2219C178.094 37.291 180.588 38.4264 182.724 39.6446C185.205 41.0281 187.318 42.8601 188.805 45.2324C190.464 47.7921 191.108 50.774 191.108 53.8401C191.108 57.5092 190.195 60.9607 188.081 63.8875C186.032 66.7246 183.181 68.7245 179.836 70.0219L179.794 70.038L179.752 70.0534C176.441 71.2698 172.678 71.8001 168.588 71.8001C165.325 71.8001 162.349 71.5459 159.722 70.9738Z" fill="#FFECA0"/>
<path fill-rule="evenodd" clip-rule="evenodd" d="M149.151 71.0002H130.671V0.200195H149.151V71.0002ZM144.151 66.0002V5.2002H135.671V66.0002H144.151Z" fill="#FFECA0"/>
<path fill-rule="evenodd" clip-rule="evenodd" d="M127.354 71.0002H108.874V0.200195H127.354V71.0002ZM122.354 66.0002V5.2002H113.874V66.0002H122.354Z" fill="#FFECA0"/>
<path fill-rule="evenodd" clip-rule="evenodd" d="M105.557 17.8805V71.0005H87.0775V17.8805H88.615C87.0121 15.9229 86.5175 13.5129 86.5175 11.3605C86.5175 8.86617 87.1586 5.83283 89.6989 3.74082L89.7527 3.6965L89.8078 3.65371C91.7663 2.13038 94.0624 1.48047 96.3975 1.48047C98.7267 1.48047 100.941 2.18694 102.827 3.65371C105.479 5.71623 106.197 8.77832 106.197 11.3605C106.197 13.5484 105.665 15.9467 104.044 17.8805H105.557ZM92.8775 7.60047C93.8375 6.8538 95.0108 6.48047 96.3975 6.48047C97.6775 6.48047 98.7975 6.8538 99.7575 7.60047C100.717 8.34713 101.197 9.60047 101.197 11.3605C101.197 13.0671 100.717 14.3205 99.7575 15.1205C98.7975 15.8671 97.6775 16.2405 96.3975 16.2405C95.0108 16.2405 93.8375 15.8671 92.8775 15.1205C91.9708 14.3205 91.5175 13.0671 91.5175 11.3605C91.5175 9.60047 91.9708 8.34713 92.8775 7.60047ZM100.557 22.8805H92.0775V66.0005H100.557V22.8805Z" fill="#FFECA0"/>
<path fill-rule="evenodd" clip-rule="evenodd" d="M74.9899 66.0002L60.7499 46.7202L55.7899 50.8802V66.0002H47.3899V5.2002H55.7899V35.6002C55.7899 35.8857 55.7864 36.1816 55.7795 36.4879C55.7592 37.3832 55.7094 38.3673 55.6299 39.4402C55.6194 39.7231 55.6079 40.0019 55.5954 40.2766C55.595 40.2837 55.5947 40.2909 55.5944 40.298C55.5463 41.3455 55.4833 42.333 55.4053 43.2605C55.4002 43.3206 55.3951 43.3805 55.3899 43.4402H55.6299C56.0566 42.9069 56.5632 42.2669 57.1499 41.5202L59.0699 39.1202C59.6837 38.353 60.2484 37.6839 60.764 37.1129C60.7861 37.0885 60.808 37.0643 60.8299 37.0402L74.0299 22.8802H83.8699L66.5099 41.3602L84.9899 66.0002H74.9899ZM73.0308 41.7214L94.9899 71.0002H72.4669L60.7899 55.1903V71.0002H42.3899V0.200195H60.7899V29.7504L71.8553 17.8802H95.427L73.0308 41.7214Z" fill="#FFECA0"/>
<path fill-rule="evenodd" clip-rule="evenodd" d="M35.1999 60.9601C36.5866 59.0401 37.2799 56.6667 37.2799 53.8401C37.2799 51.4401 36.7733 49.4667 35.7599 47.9201C34.7999 46.3734 33.3599 45.0667 31.4399 44.0001C29.5733 42.9334 27.3066 41.8934 24.6399 40.8801C21.9733 39.8134 19.8666 38.9067 18.3199 38.1601C16.7733 37.4134 15.6799 36.6667 15.0399 35.9201C14.4533 35.1734 14.1599 34.2934 14.1599 33.2801C14.1599 31.8401 14.8266 30.7201 16.1599 29.9201C17.4933 29.1201 19.4399 28.7201 21.9999 28.7201C23.3866 28.7201 24.7199 28.8534 25.9999 29.1201C27.3333 29.3867 28.6399 29.7334 29.9199 30.1601C30.6712 30.3704 31.4055 30.6147 32.123 30.8927C32.6788 31.1082 33.2244 31.344 33.7599 31.6001L36.5599 25.1201C36.0628 24.8897 35.5616 24.6731 35.0562 24.4703C34.0092 24.0502 32.9444 23.6891 31.8618 23.3873C31.1685 23.1939 30.4678 23.0249 29.7599 22.8801C27.4666 22.3467 25.0133 22.0801 22.3999 22.0801C17.4399 22.0801 13.4399 23.0934 10.3999 25.1201C7.41326 27.0934 5.91992 29.9467 5.91992 33.6801C5.91992 36.0801 6.42659 38.0534 7.43992 39.6001C8.45326 41.0934 9.91992 42.4001 11.8399 43.5201C13.7599 44.5867 16.0799 45.6801 18.7999 46.8001C21.6266 47.8667 23.7599 48.8267 25.1999 49.6801C26.6933 50.4801 27.7066 51.2801 28.2399 52.0801C28.7733 52.8267 29.0399 53.6801 29.0399 54.6401C29.0399 56.3467 28.3199 57.7067 26.8799 58.7201C25.4933 59.7334 23.1999 60.2401 19.9999 60.2401C17.5999 60.2401 15.1466 59.8934 12.6399 59.2001C12.0785 59.0329 11.5319 58.8616 10.9999 58.6864C9.1566 58.0791 7.48993 57.4237 5.99992 56.7201V64.1601C7.81326 65.0134 9.78659 65.6534 11.9199 66.0801C14.1066 66.5601 16.7199 66.8001 19.7599 66.8001C23.4399 66.8001 26.5866 66.3201 29.1999 65.3601C31.8133 64.3467 33.8133 62.8801 35.1999 60.9601ZM10.8939 70.9739C8.41419 70.4745 6.06668 69.7175 3.87094 68.6842L0.999922 67.3331V48.8295L8.13495 52.1988C9.76959 52.9707 11.7225 53.7075 14.0191 54.3938C16.1107 54.9683 18.1003 55.2401 19.9999 55.2401C21.3581 55.2401 22.3501 55.1305 23.0413 54.9778C23.506 54.8751 23.7575 54.77 23.8661 54.7167C23.6433 54.5535 23.3113 54.3406 22.8388 54.0875L22.7437 54.0365L22.6509 53.9815C21.5842 53.3494 19.7689 52.5099 17.0346 51.4781L16.965 51.4518L16.8962 51.4235C14.0526 50.2526 11.5473 49.0773 9.41171 47.8909L9.36586 47.8654L9.32057 47.839C6.90142 46.4278 4.82125 44.6457 3.30254 42.4076L3.27981 42.3741L3.25762 42.3402C1.57292 39.7688 0.919922 36.7672 0.919922 33.6801C0.919922 28.3579 3.18219 23.9004 7.63406 20.9547C11.7397 18.2204 16.8 17.0801 22.3999 17.0801C25.3296 17.0801 28.1441 17.3767 30.8271 17.9949C33.5325 18.5535 36.1465 19.4177 38.6622 20.5835L43.082 22.6317L36.2892 38.3521L31.6026 36.1107C30.6411 35.6509 29.6322 35.2718 28.5718 34.9749L28.4544 34.942L28.3388 34.9035C27.257 34.5429 26.151 34.2493 25.0193 34.023L24.9997 34.0191L24.9802 34.015C24.0552 33.8223 23.0646 33.7201 21.9999 33.7201C21.5125 33.7201 21.0897 33.7383 20.7249 33.7681C22.0994 34.4214 23.9977 35.2374 26.4574 36.2219C29.2658 37.2909 31.7595 38.4262 33.8952 39.6444C36.3769 41.0278 38.4899 42.8598 39.9762 45.2321C41.6357 47.7919 42.2799 50.7738 42.2799 53.8401C42.2799 57.5092 41.3672 60.9607 39.2533 63.8875C37.2043 66.7246 34.3534 68.7245 31.0076 70.0219L30.9659 70.038L30.924 70.0534C27.6127 71.2698 23.8497 71.8001 19.7599 71.8001C16.4973 71.8001 13.5211 71.5459 10.8939 70.9739Z" fill="#FFECA0"/>
</svg>
