<svg width="32" height="32" viewBox="0 0 32 32" fill="none" xmlns="http://www.w3.org/2000/svg">
<path d="M27.1304 8.17391H4.86951C3.61734 8.17391 2.60864 7.16522 2.60864 5.91305C2.60864 4.66087 3.61734 3.65218 4.86951 3.65218H27.1304C28.3826 3.65218 29.3912 4.66087 29.3912 5.91305C29.3912 7.16522 28.3826 8.17391 27.1304 8.17391ZM29.3912 16C29.3912 14.7478 28.3826 13.7391 27.1304 13.7391H4.86951C3.61734 13.7391 2.60864 14.7478 2.60864 16C2.60864 17.2522 3.61734 18.2609 4.86951 18.2609H27.1304C28.3826 18.2609 29.3912 17.2522 29.3912 16ZM29.3912 26.087C29.3912 24.8348 28.3826 23.8261 27.1304 23.8261H4.86951C3.61734 23.8261 2.60864 24.8348 2.60864 26.087C2.60864 27.3391 3.61734 28.3478 4.86951 28.3478H27.1304C28.3826 28.3478 29.3912 27.3391 29.3912 26.087Z" fill="#FFB4C7"/>
</svg>
