<svg width="64" height="67" viewBox="0 0 64 67" fill="none" xmlns="http://www.w3.org/2000/svg">
<path fill-rule="evenodd" clip-rule="evenodd" d="M51.5554 47.4097C52.6916 45.8459 52.345 43.6571 50.7812 42.5209C49.2174 41.3847 47.0286 41.7313 45.8924 43.2951C44.7561 44.8589 45.1028 47.0477 46.6666 48.1839C47.3481 48.6791 48.1483 48.8927 48.9284 48.8466C48.9011 48.8813 48.8743 48.9167 48.8482 48.9527C47.7119 50.5165 48.0586 52.7053 49.6224 53.8416C50.3039 54.3367 51.1041 54.5503 51.8842 54.5042C51.8569 54.5389 51.8301 54.5743 51.804 54.6103C50.6677 56.1741 51.0144 58.363 52.5782 59.4992C53.44 60.1253 54.4916 60.3012 55.4523 60.0711C54.1266 61.9086 55.5249 65.0472 56.4398 65.888C59.395 64.7624 61.8295 63.1582 61.8295 63.1582L60.2675 61.7229C60.2675 61.7229 61.9138 62.5212 62.8918 61.9795C62.1417 61.5714 61.4629 61.043 60.8167 60.54C59.6145 59.6042 58.5254 58.7564 57.3013 58.9358C57.3587 58.8682 57.414 58.7979 57.467 58.725C58.6032 57.1612 58.2566 54.9724 56.6928 53.8361C56.0113 53.341 55.211 53.1274 54.431 53.1735C54.4583 53.1388 54.485 53.1034 54.5112 53.0674C55.6474 51.5036 55.3008 49.3148 53.737 48.1785C53.0555 47.6834 52.2552 47.4698 51.4752 47.5159C51.5025 47.4812 51.5292 47.4458 51.5554 47.4097Z" fill="#D1B275"/>
<path d="M50.7812 42.5209L50.4873 42.9254L50.7812 42.5209ZM51.5554 47.4097L51.9599 47.7036L51.9599 47.7036L51.5554 47.4097ZM45.8924 43.2951L46.2969 43.589L46.2969 43.589L45.8924 43.2951ZM46.6666 48.1839L46.9605 47.7794L46.9605 47.7794L46.6666 48.1839ZM48.9284 48.8466L49.3216 49.1554C49.4431 49.0006 49.4626 48.7891 49.3714 48.6147C49.2802 48.4404 49.0953 48.3358 48.8989 48.3474L48.9284 48.8466ZM48.8482 48.9527L48.4437 48.6588L48.4437 48.6588L48.8482 48.9527ZM49.6224 53.8416L49.9163 53.4371L49.6224 53.8416ZM51.8842 54.5042L52.2774 54.813C52.3989 54.6583 52.4184 54.4467 52.3272 54.2724C52.236 54.0981 52.0511 53.9934 51.8547 54.005L51.8842 54.5042ZM51.804 54.6103L52.2085 54.9042L52.2085 54.9042L51.804 54.6103ZM52.5782 59.4992L52.2843 59.9037L52.2843 59.9037L52.5782 59.4992ZM55.4523 60.0711L55.8577 60.3636C55.9801 60.1941 55.984 59.9664 55.8676 59.7927C55.7512 59.6191 55.5391 59.5362 55.3358 59.5848L55.4523 60.0711ZM56.4398 65.888L56.1015 66.2562C56.2409 66.3843 56.4408 66.4227 56.6178 66.3553L56.4398 65.888ZM61.8295 63.1582L62.1046 63.5758C62.2332 63.491 62.3155 63.3518 62.3279 63.1983C62.3402 63.0449 62.2812 62.8943 62.1678 62.7901L61.8295 63.1582ZM60.2675 61.7229L60.4856 61.273C60.2624 61.1647 59.9936 61.2365 59.854 61.4416C59.7145 61.6468 59.7465 61.9232 59.9291 62.091L60.2675 61.7229ZM62.8918 61.9795L63.1341 62.4168C63.2937 62.3284 63.3925 62.16 63.3918 61.9776C63.3911 61.7951 63.291 61.6275 63.1307 61.5402L62.8918 61.9795ZM60.8167 60.54L60.5096 60.9346L60.8167 60.54ZM57.3013 58.9358L56.9201 58.6122C56.7855 58.7708 56.7631 58.9963 56.864 59.1782C56.9649 59.3602 57.1679 59.4607 57.3738 59.4305L57.3013 58.9358ZM57.467 58.725L57.0625 58.4311L57.0625 58.4311L57.467 58.725ZM56.6928 53.8361L56.3989 54.2406L56.6928 53.8361ZM54.431 53.1735L54.0377 52.8647C53.9162 53.0195 53.8967 53.231 53.988 53.4053C54.0792 53.5796 54.2641 53.6843 54.4605 53.6727L54.431 53.1735ZM54.5112 53.0674L54.1067 52.7735L54.1067 52.7735L54.5112 53.0674ZM53.737 48.1785L53.4431 48.583L53.737 48.1785ZM51.4752 47.5159L51.0819 47.2071C50.9604 47.3618 50.9409 47.5734 51.0322 47.7477C51.1234 47.922 51.3083 48.0267 51.5047 48.0151L51.4752 47.5159ZM50.4873 42.9254C51.8277 43.8993 52.1248 45.7754 51.1509 47.1158L51.9599 47.7036C53.2584 45.9164 52.8623 43.4149 51.0751 42.1164L50.4873 42.9254ZM46.2969 43.589C47.2708 42.2486 49.1469 41.9515 50.4873 42.9254L51.0751 42.1164C49.2879 40.8179 46.7864 41.214 45.4879 43.0012L46.2969 43.589ZM46.9605 47.7794C45.6201 46.8055 45.323 44.9294 46.2969 43.589L45.4879 43.0012C44.1893 44.7884 44.5855 47.2899 46.3727 48.5884L46.9605 47.7794ZM48.8989 48.3474C48.2301 48.387 47.545 48.2041 46.9605 47.7794L46.3727 48.5884C47.1512 49.1541 48.0666 49.3984 48.9579 49.3457L48.8989 48.3474ZM49.2527 49.2466C49.2752 49.2156 49.2982 49.1852 49.3216 49.1554L48.5351 48.5377C48.504 48.5774 48.4735 48.6177 48.4437 48.6588L49.2527 49.2466ZM49.9163 53.4371C48.5759 52.4632 48.2788 50.587 49.2527 49.2466L48.4437 48.6588C47.1451 50.446 47.5413 52.9475 49.3285 54.2461L49.9163 53.4371ZM51.8547 54.005C51.1859 54.0446 50.5008 53.8618 49.9163 53.4371L49.3285 54.2461C50.107 54.8117 51.0224 55.056 51.9137 55.0033L51.8547 54.005ZM52.2085 54.9042C52.231 54.8733 52.254 54.8428 52.2774 54.813L51.4909 54.1954C51.4598 54.235 51.4293 54.2753 51.3995 54.3164L52.2085 54.9042ZM52.8721 59.0947C51.5317 58.1208 51.2346 56.2447 52.2085 54.9042L51.3995 54.3164C50.1009 56.1036 50.4971 58.6051 52.2843 59.9037L52.8721 59.0947ZM55.3358 59.5848C54.5112 59.7823 53.6107 59.6313 52.8721 59.0947L52.2843 59.9037C53.2693 60.6194 54.472 60.82 55.5687 60.5573L55.3358 59.5848ZM55.0468 59.7785C54.2543 60.877 54.3091 62.3049 54.6227 63.482C54.9362 64.659 55.5517 65.7509 56.1015 66.2562L56.7781 65.5199C56.413 65.1844 55.8719 64.2865 55.589 63.2246C55.3061 62.1628 55.3246 61.1027 55.8577 60.3636L55.0468 59.7785ZM56.6178 66.3553C58.1244 65.7814 59.4941 65.0873 60.4851 64.5384C60.9813 64.2635 61.3843 64.0241 61.664 63.8529C61.8038 63.7673 61.913 63.6987 61.9877 63.6511C62.025 63.6274 62.0537 63.6088 62.0734 63.5961C62.0832 63.5898 62.0907 63.5848 62.096 63.5814C62.0986 63.5797 62.1006 63.5784 62.102 63.5774C62.1028 63.577 62.1033 63.5766 62.1038 63.5763C62.104 63.5762 62.1041 63.576 62.1043 63.576C62.1044 63.5759 62.1044 63.5759 62.1045 63.5758C62.1045 63.5758 62.1046 63.5758 61.8295 63.1582C61.5544 62.7407 61.5544 62.7407 61.5544 62.7407C61.5544 62.7407 61.5545 62.7407 61.5545 62.7407C61.5545 62.7407 61.5544 62.7407 61.5543 62.7408C61.5542 62.7409 61.5538 62.7411 61.5534 62.7414C61.5525 62.742 61.551 62.743 61.5489 62.7443C61.5447 62.7471 61.5382 62.7513 61.5295 62.7569C61.512 62.7683 61.4856 62.7853 61.4506 62.8076C61.3805 62.8522 61.2764 62.9177 61.1419 63C60.8727 63.1648 60.4824 63.3967 60.0006 63.6636C59.0355 64.1982 57.7103 64.869 56.2618 65.4208L56.6178 66.3553ZM62.1678 62.7901L60.6058 61.3547L59.9291 62.091L61.4912 63.5264L62.1678 62.7901ZM60.2675 61.7229C60.0493 62.1728 60.0494 62.1728 60.0495 62.1729C60.0496 62.1729 60.0497 62.173 60.0498 62.173C60.05 62.1731 60.0502 62.1732 60.0505 62.1733C60.051 62.1736 60.0516 62.1739 60.0523 62.1742C60.0537 62.1749 60.0555 62.1757 60.0577 62.1768C60.062 62.1788 60.068 62.1817 60.0755 62.1851C60.0904 62.192 60.1113 62.2016 60.1377 62.2133C60.1905 62.2367 60.2654 62.2686 60.3578 62.3048C60.5416 62.3767 60.7993 62.4672 61.093 62.5397C61.6467 62.6765 62.4681 62.7857 63.1341 62.4168L62.6495 61.5421C62.3375 61.7149 61.8467 61.6958 61.3328 61.5689C61.0926 61.5096 60.8776 61.4343 60.7222 61.3735C60.6449 61.3433 60.5836 61.3171 60.5425 61.2989C60.522 61.2898 60.5066 61.2828 60.4969 61.2783C60.4921 61.276 60.4887 61.2744 60.4868 61.2735C60.4858 61.2731 60.4852 61.2728 60.485 61.2727C60.4849 61.2726 60.4849 61.2726 60.485 61.2727C60.4851 61.2727 60.4852 61.2727 60.4853 61.2728C60.4853 61.2728 60.4854 61.2729 60.4854 61.2729C60.4855 61.2729 60.4856 61.273 60.2675 61.7229ZM63.1307 61.5402C62.4225 61.155 61.7753 60.6525 61.1239 60.1455L60.5096 60.9346C61.1505 61.4335 61.861 61.9879 62.6529 62.4187L63.1307 61.5402ZM61.1239 60.1455C60.5317 59.6845 59.9233 59.2091 59.3023 58.8784C58.6723 58.5429 57.9837 58.3305 57.2288 58.4411L57.3738 59.4305C57.8431 59.3618 58.3111 59.4835 58.8322 59.761C59.3623 60.0433 59.8996 60.4597 60.5096 60.9346L61.1239 60.1455ZM57.0625 58.4311C57.0169 58.4938 56.9694 58.5542 56.9201 58.6122L57.6825 59.2594C57.748 59.1822 57.8111 59.102 57.8715 59.0189L57.0625 58.4311ZM56.3989 54.2406C57.7393 55.2145 58.0364 57.0907 57.0625 58.4311L57.8715 59.0189C59.17 57.2317 58.7739 54.7302 56.9867 53.4316L56.3989 54.2406ZM54.4605 53.6727C55.1293 53.6331 55.8144 53.8159 56.3989 54.2406L56.9867 53.4316C56.2082 52.866 55.2928 52.6217 54.4015 52.6744L54.4605 53.6727ZM54.1067 52.7735C54.0842 52.8045 54.0612 52.8349 54.0377 52.8647L54.8242 53.4823C54.8553 53.4427 54.8858 53.4023 54.9157 53.3613L54.1067 52.7735ZM53.4431 48.583C54.7835 49.5569 55.0806 51.4331 54.1067 52.7735L54.9157 53.3613C56.2142 51.5741 55.8181 49.0726 54.0309 47.774L53.4431 48.583ZM51.5047 48.0151C52.1735 47.9755 52.8586 48.1583 53.4431 48.583L54.0309 47.774C53.2524 47.2084 52.337 46.9641 51.4457 47.0168L51.5047 48.0151ZM51.1509 47.1158C51.1284 47.1468 51.1054 47.1773 51.0819 47.2071L51.8684 47.8247C51.8995 47.7851 51.93 47.7447 51.9599 47.7036L51.1509 47.1158Z" fill="black"/>
<path fill-rule="evenodd" clip-rule="evenodd" d="M12.6438 47.4097C11.5075 45.8459 11.8542 43.6571 13.418 42.5209C14.9818 41.3847 17.1706 41.7313 18.3068 43.2951C19.443 44.8589 19.0964 47.0477 17.5326 48.1839C16.8511 48.6791 16.0508 48.8927 15.2708 48.8466C15.2981 48.8813 15.3248 48.9167 15.351 48.9527C16.4872 50.5165 16.1406 52.7053 14.5768 53.8416C13.8953 54.3367 13.0951 54.5503 12.315 54.5042C12.3423 54.5389 12.369 54.5743 12.3952 54.6103C13.5314 56.1741 13.1848 58.363 11.621 59.4992C10.7592 60.1253 9.70756 60.3012 8.7469 60.0711C10.0725 61.9086 8.67427 65.0472 7.75936 65.888C4.80417 64.7624 2.36967 63.1582 2.36967 63.1582L3.9317 61.7229C3.9317 61.7229 2.28539 62.5212 1.30737 61.9795C2.05742 61.5714 2.73626 61.043 3.38242 60.54C4.58463 59.6042 5.67372 58.7564 6.89785 58.9358C6.84045 58.8682 6.78516 58.7979 6.73217 58.725C5.59595 57.1612 5.94257 54.9724 7.50637 53.8361C8.18789 53.341 8.98811 53.1274 9.76819 53.1735C9.7409 53.1388 9.71416 53.1034 9.68797 53.0674C8.55175 51.5036 8.89837 49.3148 10.4622 48.1785C11.1437 47.6834 11.9439 47.4698 12.724 47.5159C12.6967 47.4812 12.67 47.4458 12.6438 47.4097Z" fill="#D1B275"/>
<path d="M13.418 42.5209L13.7119 42.9254L13.418 42.5209ZM12.6438 47.4097L12.2393 47.7036L12.2393 47.7036L12.6438 47.4097ZM18.3068 43.2951L17.9023 43.589L17.9023 43.589L18.3068 43.2951ZM17.5326 48.1839L17.2387 47.7794L17.2387 47.7794L17.5326 48.1839ZM15.2708 48.8466L14.8775 49.1554C14.756 49.0006 14.7366 48.7891 14.8278 48.6147C14.919 48.4404 15.1039 48.3358 15.3003 48.3474L15.2708 48.8466ZM15.351 48.9527L15.7555 48.6588L15.7555 48.6588L15.351 48.9527ZM14.5768 53.8416L14.2829 53.4371L14.5768 53.8416ZM12.315 54.5042L11.9217 54.813C11.8002 54.6583 11.7808 54.4467 11.872 54.2724C11.9632 54.0981 12.1481 53.9934 12.3445 54.005L12.315 54.5042ZM12.3952 54.6103L11.9907 54.9042L11.9907 54.9042L12.3952 54.6103ZM11.621 59.4992L11.9149 59.9037L11.9149 59.9037L11.621 59.4992ZM8.7469 60.0711L8.34141 60.3636C8.21911 60.1941 8.21517 59.9664 8.33155 59.7927C8.44793 59.6191 8.66006 59.5362 8.86335 59.5848L8.7469 60.0711ZM7.75936 65.888L8.09769 66.2562C7.95825 66.3843 7.75837 66.4227 7.58138 66.3553L7.75936 65.888ZM2.36967 63.1582L2.09457 63.5758C1.966 63.491 1.88363 63.3518 1.87128 63.1983C1.85893 63.0449 1.91799 62.8943 2.03136 62.7901L2.36967 63.1582ZM3.9317 61.7229L3.71354 61.273C3.93676 61.1647 4.20559 61.2365 4.34512 61.4416C4.48465 61.6468 4.45268 61.9232 4.27002 62.091L3.9317 61.7229ZM1.30737 61.9795L1.06509 62.4168C0.905458 62.3284 0.806676 62.16 0.807369 61.9776C0.808062 61.7951 0.908123 61.6275 1.06843 61.5402L1.30737 61.9795ZM3.38242 60.54L3.68955 60.9346L3.38242 60.54ZM6.89785 58.9358L7.27901 58.6122C7.41368 58.7708 7.43603 58.9963 7.33515 59.1782C7.23427 59.3602 7.03123 59.4607 6.82536 59.4305L6.89785 58.9358ZM6.73217 58.725L7.13667 58.4311L7.13667 58.4311L6.73217 58.725ZM7.50637 53.8361L7.80027 54.2406L7.50637 53.8361ZM9.76819 53.1735L10.1614 52.8647C10.2829 53.0195 10.3024 53.231 10.2112 53.4053C10.12 53.5796 9.93507 53.6843 9.73869 53.6727L9.76819 53.1735ZM9.68797 53.0674L10.0925 52.7735L10.0925 52.7735L9.68797 53.0674ZM10.4622 48.1785L10.7561 48.583L10.4622 48.1785ZM12.724 47.5159L13.1172 47.2071C13.2387 47.3618 13.2582 47.5734 13.167 47.7477C13.0758 47.922 12.8909 48.0267 12.6945 48.0151L12.724 47.5159ZM13.7119 42.9254C12.3715 43.8993 12.0744 45.7754 13.0483 47.1158L12.2393 47.7036C10.9407 45.9164 11.3369 43.4149 13.1241 42.1164L13.7119 42.9254ZM17.9023 43.589C16.9284 42.2486 15.0523 41.9515 13.7119 42.9254L13.1241 42.1164C14.9113 40.8179 17.4128 41.214 18.7113 43.0012L17.9023 43.589ZM17.2387 47.7794C18.5791 46.8055 18.8762 44.9294 17.9023 43.589L18.7113 43.0012C20.0098 44.7884 19.6137 47.2899 17.8265 48.5884L17.2387 47.7794ZM15.3003 48.3474C15.9691 48.387 16.6542 48.2041 17.2387 47.7794L17.8265 48.5884C17.048 49.1541 16.1326 49.3984 15.2413 49.3457L15.3003 48.3474ZM14.9465 49.2466C14.924 49.2156 14.901 49.1852 14.8775 49.1554L15.664 48.5377C15.6951 48.5774 15.7256 48.6177 15.7555 48.6588L14.9465 49.2466ZM14.2829 53.4371C15.6233 52.4632 15.9204 50.587 14.9465 49.2466L15.7555 48.6588C17.054 50.446 16.6579 52.9475 14.8707 54.2461L14.2829 53.4371ZM12.3445 54.005C13.0133 54.0446 13.6984 53.8618 14.2829 53.4371L14.8707 54.2461C14.0922 54.8117 13.1768 55.056 12.2855 55.0033L12.3445 54.005ZM11.9907 54.9042C11.9682 54.8733 11.9452 54.8428 11.9217 54.813L12.7082 54.1954C12.7393 54.235 12.7698 54.2753 12.7997 54.3164L11.9907 54.9042ZM11.3271 59.0947C12.6675 58.1208 12.9646 56.2447 11.9907 54.9042L12.7997 54.3164C14.0982 56.1036 13.7021 58.6051 11.9149 59.9037L11.3271 59.0947ZM8.86335 59.5848C9.68792 59.7823 10.5885 59.6313 11.3271 59.0947L11.9149 59.9037C10.9299 60.6194 9.7272 60.82 8.63045 60.5573L8.86335 59.5848ZM9.15239 59.7785C9.94483 60.877 9.89008 62.3049 9.57648 63.482C9.26293 64.659 8.64751 65.7509 8.09769 66.2562L7.42103 65.5199C7.78613 65.1844 8.32729 64.2865 8.61019 63.2246C8.89304 62.1628 8.8746 61.1027 8.34141 60.3636L9.15239 59.7785ZM7.58138 66.3553C6.07471 65.7814 4.70503 65.0873 3.71405 64.5384C3.21784 64.2635 2.81488 64.0241 2.53519 63.8529C2.39531 63.7673 2.28617 63.6987 2.2115 63.6511C2.17417 63.6274 2.14544 63.6088 2.1258 63.5961C2.11598 63.5898 2.10842 63.5848 2.1032 63.5814C2.10059 63.5797 2.09856 63.5784 2.09712 63.5774C2.0964 63.577 2.09582 63.5766 2.0954 63.5763C2.09518 63.5762 2.09501 63.576 2.09487 63.576C2.0948 63.5759 2.09472 63.5759 2.09469 63.5758C2.09462 63.5758 2.09457 63.5758 2.36967 63.1582C2.64478 62.7407 2.64474 62.7407 2.64471 62.7407C2.64471 62.7407 2.64469 62.7407 2.6447 62.7407C2.64471 62.7407 2.64475 62.7407 2.64484 62.7408C2.645 62.7409 2.64532 62.7411 2.64578 62.7414C2.6467 62.742 2.64821 62.743 2.65029 62.7443C2.65446 62.7471 2.66094 62.7513 2.66967 62.7569C2.68713 62.7683 2.7136 62.7853 2.7486 62.8076C2.81861 62.8522 2.92275 62.9177 3.05728 63C3.32641 63.1648 3.71677 63.3967 4.19859 63.6636C5.16366 64.1982 6.48882 64.869 7.93734 65.4208L7.58138 66.3553ZM2.03136 62.7901L3.59339 61.3547L4.27002 62.091L2.70798 63.5264L2.03136 62.7901ZM3.9317 61.7229C4.14987 62.1728 4.14975 62.1728 4.14963 62.1729C4.14958 62.1729 4.14945 62.173 4.14935 62.173C4.14915 62.1731 4.14893 62.1732 4.14868 62.1733C4.14819 62.1736 4.14759 62.1739 4.14689 62.1742C4.14549 62.1749 4.14369 62.1757 4.1415 62.1768C4.13712 62.1788 4.13116 62.1817 4.12371 62.1851C4.10879 62.192 4.08784 62.2016 4.06143 62.2133C4.00866 62.2367 3.93378 62.2686 3.8414 62.3048C3.65755 62.3767 3.39982 62.4672 3.1062 62.5397C2.55246 62.6765 1.73105 62.7857 1.06509 62.4168L1.54964 61.5421C1.8617 61.7149 2.35246 61.6958 2.86639 61.5689C3.1066 61.5096 3.32157 61.4343 3.47697 61.3735C3.55422 61.3433 3.61559 61.3171 3.65668 61.2989C3.67719 61.2898 3.69257 61.2828 3.70225 61.2783C3.70709 61.276 3.71049 61.2744 3.7124 61.2735C3.71335 61.2731 3.71393 61.2728 3.71412 61.2727C3.71422 61.2726 3.71422 61.2726 3.71412 61.2727C3.71408 61.2727 3.714 61.2727 3.71391 61.2728C3.71386 61.2728 3.71377 61.2729 3.71374 61.2729C3.71364 61.2729 3.71354 61.273 3.9317 61.7229ZM1.06843 61.5402C1.77664 61.155 2.42386 60.6525 3.0753 60.1455L3.68955 60.9346C3.04865 61.4335 2.33819 61.9879 1.5463 62.4187L1.06843 61.5402ZM3.0753 60.1455C3.6675 59.6845 4.27582 59.2091 4.8969 58.8784C5.52688 58.5429 6.21547 58.3305 6.97034 58.4411L6.82536 59.4305C6.3561 59.3618 5.88807 59.4835 5.36693 59.761C4.83688 60.0433 4.29955 60.4597 3.68955 60.9346L3.0753 60.1455ZM7.13667 58.4311C7.18225 58.4938 7.22975 58.5542 7.27901 58.6122L6.51669 59.2594C6.45115 59.1822 6.38807 59.102 6.32766 59.0189L7.13667 58.4311ZM7.80027 54.2406C6.45987 55.2145 6.16277 57.0907 7.13667 58.4311L6.32767 59.0189C5.02913 57.2317 5.42527 54.7302 7.21247 53.4316L7.80027 54.2406ZM9.73869 53.6727C9.06986 53.6331 8.3848 53.8159 7.80027 54.2406L7.21247 53.4316C7.99098 52.866 8.90637 52.6217 9.79769 52.6744L9.73869 53.6727ZM10.0925 52.7735C10.115 52.8045 10.138 52.8349 10.1614 52.8647L9.37495 53.4823C9.34381 53.4427 9.31331 53.4023 9.28347 53.3613L10.0925 52.7735ZM10.7561 48.583C9.41567 49.5569 9.11857 51.4331 10.0925 52.7735L9.28347 53.3613C7.98493 51.5741 8.38107 49.0726 10.1683 47.774L10.7561 48.583ZM12.6945 48.0151C12.0257 47.9755 11.3406 48.1583 10.7561 48.583L10.1683 47.774C10.9468 47.2084 11.8622 46.9641 12.7535 47.0168L12.6945 48.0151ZM13.0483 47.1158C13.0708 47.1468 13.0938 47.1773 13.1172 47.2071L12.3307 47.8247C12.2996 47.7851 12.2691 47.7447 12.2393 47.7036L13.0483 47.1158Z" fill="black"/>
<path d="M32 1C16.5 1 7.99997 11.8437 7.99997 25.2201C7.99997 33.9663 7.99997 40.5007 14 44.3944C20 48.2882 28.5 47.422 32 44.3944C35.5 47.422 44 48.2882 50 44.3944C56 40.5007 56 33.9663 56 25.2201C56 11.8437 47.5 1 32 1Z" fill="#D1B275" stroke="black"/>
</svg>
