<svg width="48" height="43" viewBox="0 0 48 43" fill="none" xmlns="http://www.w3.org/2000/svg">
<path d="M46.4998 22.2933C49.4998 6.79337 28.9998 -5.20664 15.4998 2.29332C11.4998 2.79327 6.99977 5.79326 3.49973 12.7933C1.29745 17.1978 1.49998 19.7933 2 22.2933C3 18.2933 6.09982 13.4933 16.4998 12.2933C18.6131 12.2933 21.6568 13.844 23.3779 14.5558C23.7778 14.7212 24.2224 14.721 24.6265 14.5664C26.8605 13.7115 30.9611 11.7933 33.4998 11.7933C36.9998 11.7933 42.5 14.2933 46.4998 22.2933Z" fill="#D1B275"/>
<path d="M1.99988 22.2932C2.25058 19.4198 10.9739 8.51111 20.0985 13.2134C22.7826 14.5965 26.2108 14.6116 28.8429 13.1322C37.9592 8.00828 45.3676 19.3428 45.9999 22.2932" stroke="black" stroke-linecap="round" stroke-linejoin="round"/>
<path d="M12.1929 16.8494C14.2575 8.75665 19.419 8.25084 21.9998 10.7798C21.1395 9.26244 14.8769 6.1265 9.09607 7.74505C3.31522 9.3636 1.52575 15.5006 1.35361 18.3668C-0.180511 32.8995 3.85866 43.5166 10.9612 42.1797C11.7866 42.2526 12.7239 42.0897 13.7414 41.6908C8.27393 41.6908 10.6444 22.919 12.1929 16.8494Z" fill="#D1B275"/>
<path d="M22 10.7798C18.9031 7.74505 13.7415 9.76827 11.6769 17.861C10.1285 23.9306 8.27411 41.6908 13.7416 41.6908C11.1608 42.7024 9.09629 42.1966 8.06385 40.1734M10.6446 42.1392C3.4185 43.7141 -0.194622 33.0349 1.35379 18.3668M7.03144 38.656C6.68734 38.1502 5.89591 36.734 5.48298 35.1155" stroke="black" stroke-linecap="round" stroke-linejoin="round"/>
<path d="M35.8071 16.9028C33.7425 8.81008 28.581 8.30428 26.0002 10.8333C26.8605 9.31587 33.1231 6.17994 38.9039 7.79849C44.6848 9.41704 46.4743 15.554 46.6464 18.4202C48.1805 32.9529 44.1413 43.57 37.0388 42.2332C36.2134 42.3061 35.2761 42.1431 34.2586 41.7443C39.7261 41.7443 37.3556 22.9724 35.8071 16.9028Z" fill="#D1B275"/>
<path d="M26 10.8333C29.0969 7.79847 34.2585 9.82169 36.3231 17.9144C37.8715 23.984 39.7259 41.7443 34.2584 41.7443C36.8392 42.7559 38.9037 42.25 39.9362 40.2269M37.3554 42.1927C44.5815 43.7675 48.1946 33.0883 46.6462 18.4202M40.9686 38.7095C41.3127 38.2037 42.1041 36.7874 42.517 35.1689" stroke="black" stroke-linecap="round" stroke-linejoin="round"/>
</svg>
