<svg width="48" height="27" viewBox="0 0 48 27" fill="none" xmlns="http://www.w3.org/2000/svg">
<mask id="mask0_25_227" style="mask-type:alpha" maskUnits="userSpaceOnUse" x="1" y="4" width="46" height="21">
<path d="M41.1943 13.4622C39.978 12.8543 39.0391 11.734 39.0391 10.4036V5H25.5226V22.5247C25.5226 23.6156 26.4287 24.5 27.5499 24.5H43.5082C43.6985 24.5 43.8824 24.4495 44.0372 24.3418C47.3771 22.0163 46.4708 16.0992 41.1943 13.4622Z" fill="white"/>
<path d="M22.4774 22.5247C22.4774 23.6156 21.5713 24.5 20.4501 24.5H4.49176C4.30152 24.5 4.11756 24.4495 3.96285 24.3418C0.622893 22.0163 1.52917 16.0992 6.80571 13.4622C8.02196 12.8543 8.96092 11.734 8.96092 10.4036V5H22.4774V22.5247Z" fill="white"/>
<path d="M41.1943 13.4622C39.978 12.8543 39.0391 11.734 39.0391 10.4036V5H25.5226V22.5247C25.5226 23.6156 26.4287 24.5 27.5499 24.5H43.5082C43.6985 24.5 43.8824 24.4495 44.0372 24.3418C47.3771 22.0163 46.4708 16.0992 41.1943 13.4622Z" stroke="black" stroke-miterlimit="10" stroke-linecap="round"/>
<path d="M22.4774 22.5247C22.4774 23.6156 21.5713 24.5 20.4501 24.5H4.49176C4.30152 24.5 4.11756 24.4495 3.96285 24.3418C0.622893 22.0163 1.52917 16.0992 6.80571 13.4622C8.02196 12.8543 8.96092 11.734 8.96092 10.4036V5H22.4774V22.5247Z" stroke="black" stroke-miterlimit="10" stroke-linecap="round"/>
</mask>
<g mask="url(#mask0_25_227)">
<path d="M41.1943 13.4622C39.978 12.8543 39.0391 11.734 39.0391 10.4036V5H25.5226V22.5247C25.5226 23.6156 26.4287 24.5 27.5499 24.5H43.5082C43.6985 24.5 43.8824 24.4495 44.0372 24.3418C47.3771 22.0163 46.4708 16.0992 41.1943 13.4622Z" fill="white"/>
<path d="M22.4774 22.5247C22.4774 23.6156 21.5713 24.5 20.4501 24.5H4.49176C4.30152 24.5 4.11756 24.4495 3.96285 24.3418C0.622893 22.0163 1.52917 16.0992 6.80571 13.4622C8.02196 12.8543 8.96092 11.734 8.96092 10.4036V5H22.4774V22.5247Z" fill="white"/>
<path d="M41.1943 13.4622C39.978 12.8543 39.0391 11.734 39.0391 10.4036V5H25.5226V22.5247C25.5226 23.6156 26.4287 24.5 27.5499 24.5H43.5082C43.6985 24.5 43.8824 24.4495 44.0372 24.3418C47.3771 22.0163 46.4708 16.0992 41.1943 13.4622Z" stroke="black" stroke-miterlimit="10" stroke-linecap="round"/>
<path d="M22.4774 22.5247C22.4774 23.6156 21.5713 24.5 20.4501 24.5H4.49176C4.30152 24.5 4.11756 24.4495 3.96285 24.3418C0.622893 22.0163 1.52917 16.0992 6.80571 13.4622C8.02196 12.8543 8.96092 11.734 8.96092 10.4036V5H22.4774V22.5247Z" stroke="black" stroke-miterlimit="10" stroke-linecap="round"/>
<rect x="7" y="7" width="34" height="1" fill="#FFAB00"/>
</g>
<path d="M41.1943 13.4622C39.978 12.8543 39.0391 11.734 39.0391 10.4036V5H25.5226V22.5247C25.5226 23.6156 26.4287 24.5 27.5499 24.5H43.5082C43.6985 24.5 43.8824 24.4495 44.0372 24.3418C47.3771 22.0163 46.4708 16.0992 41.1943 13.4622Z" stroke="black" stroke-miterlimit="10" stroke-linecap="round"/>
<path d="M22.4774 22.5247C22.4774 23.6156 21.5713 24.5 20.4501 24.5H4.49176C4.30152 24.5 4.11756 24.4495 3.96285 24.3418C0.622893 22.0163 1.52917 16.0992 6.80571 13.4622C8.02196 12.8543 8.96092 11.734 8.96092 10.4036V5H22.4774V22.5247Z" stroke="black" stroke-miterlimit="10" stroke-linecap="round"/>
<path d="M39.0391 10.4037C39.0391 11.734 39.978 12.8543 41.1943 13.4622C42.9394 14.3343 44.2065 15.5653 45 16.9064C46.6058 19.6203 46.2725 22.7854 44.0371 24.3418C43.8824 24.4495 43.6985 24.5 43.5082 24.5H27.5499C26.4286 24.5 25.5226 23.6156 25.5226 22.5247V13.4622C27.5499 12.5 30.5 14 33 13.5C36 9.00003 39.0391 9.50003 39.0391 10.4037Z" fill="#FFAB00"/>
<path d="M33 13.5C30.5 14 27.5499 12.5 25.5226 13.4622V22.5247C25.5226 23.6156 26.4286 24.5 27.5499 24.5H43.5082C43.6985 24.5 43.8824 24.4495 44.0371 24.3418C47.3771 22.0163 46.4708 16.0992 41.1943 13.4622C39.978 12.8543 39.0391 11.734 39.0391 10.4037C39.0391 9.50003 36 9.00003 33 13.5ZM33 13.5C34 16 35.806 17.8337 38.5 18.5C40.7831 19.0647 41.5 16.5 45 16.9064M45.5 22.5H26M40 18.4274C37.5 19.5 32 20.6749 26 19" stroke="#FFCE69" stroke-miterlimit="10" stroke-linecap="round"/>
<path d="M44 16C43 15.5 40 15 38 16.5C38.1667 15.8333 39 14 41 13.5C40 13 37.5 13 35 14C36 12.5 38 11.5 39.5 12C37.7047 12.9091 36.8333 15 36.5 15.5C39.5 14 41.5 14.5 42.5 14.5C42 15 40.5 15.5 39.5 17.5" stroke="#FFCE69" stroke-width="0.8" stroke-linecap="round" stroke-linejoin="round"/>
<path d="M41.1943 13.4622C39.978 12.8543 39.0391 11.734 39.0391 10.4037C39.0391 9.50003 36 9.00003 33 13.5C30.5 14 27.5499 12.5 25.5226 13.4622V22.5247C25.5226 23.6156 26.4286 24.5 27.5499 24.5H43.5082C43.6985 24.5 43.8824 24.4495 44.0371 24.3418C47.3771 22.0163 46.4708 16.0992 41.1943 13.4622Z" stroke="black" stroke-miterlimit="10" stroke-linecap="round"/>
<path d="M8.96094 10.4037C8.96094 11.734 8.02198 12.8543 6.80572 13.4622C5.06059 14.3343 3.7935 15.5653 2.99996 16.9064C1.39417 19.6203 1.72753 22.7854 3.96285 24.3418C4.11757 24.4495 4.30152 24.5 4.49177 24.5H20.4501C21.5714 24.5 22.4774 23.6156 22.4774 22.5247V13.4622C20.4501 12.5 17.5 14 15 13.5C12 9.00003 8.96094 9.50003 8.96094 10.4037Z" fill="#FFAB00"/>
<path d="M15 13.5C17.5 14 20.4501 12.5 22.4774 13.4622V22.5247C22.4774 23.6156 21.5714 24.5 20.4501 24.5H4.49177C4.30152 24.5 4.11757 24.4495 3.96285 24.3418C0.622888 22.0163 1.52917 16.0992 6.80572 13.4622C8.02198 12.8543 8.96094 11.734 8.96094 10.4037C8.96094 9.50003 12 9.00003 15 13.5ZM15 13.5C14 16 12.194 17.8337 9.49997 18.5C7.21687 19.0647 6.49996 16.5 2.99996 16.9064M2.49995 22.5H22M7.99997 18.4274C10.5 19.5 16 20.6749 22 19" stroke="#FFCE69" stroke-miterlimit="10" stroke-linecap="round"/>
<path d="M3.99998 16C4.99998 15.5 7.99999 15 9.99999 16.5C9.83333 15.8333 8.99999 14 6.99999 13.5C7.99999 13 10.5 13 13 14C12 12.5 9.99999 11.5 8.49999 12C10.2953 12.9091 11.1667 15 11.5 15.5C8.49999 14 6.49999 14.5 5.49998 14.5C5.99998 15 7.49999 15.5 8.49999 17.5" stroke="#FFCE69" stroke-width="0.8" stroke-linecap="round" stroke-linejoin="round"/>
<path d="M6.80572 13.4622C8.02198 12.8543 8.96094 11.734 8.96094 10.4037C8.96094 9.50003 12 9.00003 15 13.5C17.5 14 20.4501 12.5 22.4774 13.4622V22.5247C22.4774 23.6156 21.5714 24.5 20.4501 24.5H4.49177C4.30152 24.5 4.11757 24.4495 3.96285 24.3418C0.622889 22.0163 1.52917 16.0992 6.80572 13.4622Z" stroke="black" stroke-miterlimit="10" stroke-linecap="round"/>
</svg>
