<svg width="32" height="15" viewBox="0 0 32 15" fill="none" xmlns="http://www.w3.org/2000/svg">
<path d="M22.0297 2.70752L22.848 4.79297C22.974 5.11415 23.2069 5.38206 23.5074 5.55156L25.4587 6.65215C25.7647 6.82474 25.802 7.25078 25.5306 7.47388L23.8001 8.89658C23.5336 9.11569 23.3507 9.41998 23.2824 9.75816L22.8387 11.954C22.7691 12.2984 22.3754 12.4655 22.0794 12.2763L20.1915 11.0702C19.9008 10.8844 19.5549 10.8045 19.2122 10.844L16.9866 11.1006C16.6376 11.1408 16.3571 10.818 16.4455 10.478L17.0092 8.30988C17.0961 7.97597 17.0651 7.62233 16.9216 7.30857L15.9899 5.27125C15.8438 4.95176 16.0641 4.58518 16.4148 4.56419L18.651 4.43037C18.9954 4.40976 19.3222 4.27106 19.5763 4.03763L21.226 2.52197C21.4847 2.28428 21.9014 2.38049 22.0297 2.70752Z" fill="#F3A93A" fill-opacity="0.58" stroke="#F17291"/>
<path d="M10.774 2.52198L12.4237 4.03765C12.6778 4.27107 13.0045 4.40978 13.3489 4.43039L15.5852 4.56421C15.9359 4.58519 16.1561 4.95177 16.01 5.27126L15.0783 7.30858C14.9348 7.62235 14.9039 7.97598 14.9907 8.3099L15.5545 10.4781C15.6429 10.8181 15.3623 11.1408 15.0133 11.1006L12.7878 10.8441C12.4451 10.8046 12.0992 10.8844 11.8084 11.0702L9.92061 12.2763C9.62457 12.4655 9.2309 12.2984 9.16132 11.954L8.71757 9.75817C8.64923 9.41999 8.4664 9.1157 8.19988 8.8966L6.46937 7.4739C6.198 7.25079 6.23527 6.82476 6.54127 6.65216L8.49254 5.55158C8.79305 5.38208 9.02594 5.11416 9.15197 4.79299L9.97028 2.70753C10.0986 2.3805 10.5153 2.2843 10.774 2.52198Z" fill="#F3A93A" fill-opacity="0.58" stroke="#F17291"/>
</svg>
