<svg width="50" height="26" viewBox="0 0 50 26" fill="none" xmlns="http://www.w3.org/2000/svg">
<path d="M47.4998 22.2933C50.4998 6.79337 29.9998 -5.20664 16.4998 2.29332C12.4998 2.79327 7.99977 5.79326 4.49973 12.7933C2.29745 17.1978 2.49998 19.7933 3 22.2933C4 18.2933 7.09982 13.4933 17.4998 12.2933C19.6131 12.2933 22.6568 13.844 24.3779 14.5558C24.7778 14.7212 25.2224 14.721 25.6265 14.5664C27.8605 13.7115 31.9611 11.7933 34.4998 11.7933C37.9998 11.7933 43.5 14.2933 47.4998 22.2933Z" fill="#3B3B3B"/>
<path d="M2.99988 22.2932C3.25058 19.4198 11.9739 8.51111 21.0985 13.2134C23.7826 14.5965 27.2108 14.6116 29.8429 13.1322C38.9592 8.00828 46.3676 19.3428 46.9999 22.2932" stroke="black" stroke-linecap="round" stroke-linejoin="round"/>
<path d="M35.0001 19.0679C33.5001 12.6792 29.097 9.71495 26.0001 12.6792C26.5001 10.7257 30.2001 5.11698 37.0001 6.28908C43.8001 7.46118 46 15.4258 46.25 19.2616C46.25 20.4011 47.5001 22.4055 49.0001 22.4055C48.0001 23.3822 46.25 23.181 46.25 23.181C46.6277 23.3103 47.0448 23.3822 47.5001 23.3822C46.5967 24.2645 43.7894 24.1539 42.7637 23.8843C43.396 24.1877 44.1454 24.359 45.0001 24.359C40.0001 25.8241 36.2495 24.3893 35.0001 19.0679Z" fill="#3B3B3B"/>
<path d="M26.0001 12.6792C27.0001 11.2049 31.0001 10.1624 33.5001 15.5682C35.7993 20.54 37.0001 27.9137 45.5001 24.0502C43.0001 24.0502 40.9001 22.8939 40.5001 20.9404M43.1541 23.6684C43.8208 23.994 46.5001 24.359 47.5001 23.3822C45.0001 23.3822 43.6519 21.2151 43.6519 19.2616M46.25 19.2616C46.25 20.4012 47.5001 22.4055 49.0001 22.4055C48.0001 23.3822 46.25 23.1445 46.25 23.1445M43.5001 17.5217C43.4445 17.0905 43.3192 16.2881 43.1541 15.5682M40.5001 19.4752V18.9869" stroke="black" stroke-linecap="round" stroke-linejoin="round"/>
<path d="M15 19.0679C16.5 12.6792 20.9031 9.71495 24 12.6792C23.5 10.7257 19.8 5.11698 13 6.28908C6.2 7.46118 4.00007 15.4258 3.7501 19.2616C3.7501 20.4011 2.50001 22.4055 1 22.4055C2 23.3822 3.7501 23.181 3.7501 23.181C3.37239 23.3103 2.9553 23.3822 2.5 23.3822C3.40332 24.2645 6.21063 24.1539 7.23639 23.8843C6.6041 24.1877 5.85464 24.359 5 24.359C10 25.8241 13.7506 24.3893 15 19.0679Z" fill="#3B3B3B"/>
<path d="M24 12.6792C23 11.2049 19 10.1624 16.5 15.5682C14.2007 20.54 13 27.9138 4.5 24.0502C7 24.0502 9.1 22.8939 9.5 20.9404M6.84597 23.6684C6.17931 23.994 3.5 24.359 2.5 23.3823C5 23.3823 6.34812 21.2152 6.34812 19.2616M3.7501 19.2616C3.7501 20.4012 2.50001 22.4055 1 22.4055C2 23.3823 3.7501 23.1445 3.7501 23.1445M6.5 17.5217C6.55559 17.0905 6.68081 16.2881 6.84597 15.5682M9.5 19.4752V18.9869" stroke="black" stroke-linecap="round" stroke-linejoin="round"/>
</svg>
