<svg width="231" height="461" viewBox="0 0 231 461" fill="none" xmlns="http://www.w3.org/2000/svg">
<path d="M115 345L50 345C22.3858 345 1.95703e-06 322.614 4.37114e-06 295L5.68248e-06 280C8.09659e-06 252.386 22.3858 230 50 230L115 230L115 345Z" fill="#FFB4C7"/>
<path d="M230 115L165 115C137.386 115 115 92.6142 115 65L115 50C115 22.3858 137.386 -8.09659e-06 165 -5.68248e-06L180 -4.37114e-06C207.614 -1.95703e-06 230 22.3858 230 50L230 115Z" fill="#FFECA0"/>
<circle cx="172.145" cy="287.5" r="57.5" fill="#FFECA0"/>
<path d="M172.822 120.716L223.929 171.822L172.822 222.929L121.716 171.822L172.822 120.716Z" stroke="#FFB4C7" stroke-width="10"/>
<path d="M173.161 461L115.322 403.161L173.161 345.322L231 403.161L173.161 461Z" fill="#FFB4C7"/>
</svg>
