<svg width="463" height="232" viewBox="0 0 463 232" fill="none" xmlns="http://www.w3.org/2000/svg">
<path d="M345 65.3555C345 92.9697 322.614 115.355 295 115.355L165 115.355C137.386 115.355 115 92.9697 115 65.3554L115 0.355449L345 0.355469L345 65.3555Z" fill="#FFECA0"/>
<circle cx="57.5" cy="172.855" r="57.5" transform="rotate(-180 57.5 172.855)" fill="#FFB4C7"/>
<path d="M110 110.355L5 110.355L5.00001 5.35546L110 5.35547L110 110.355Z" stroke="#FFB4C7" stroke-width="10"/>
<path d="M404.322 115.678L346.483 57.8389L404.322 0.000122956L462.161 57.8389L404.322 115.678Z" fill="#FFB4C7"/>
<path d="M172.823 224.284L121.716 173.178L172.823 122.071L223.929 173.178L172.823 224.284Z" stroke="#FFECA0" stroke-width="10"/>
</svg>
